<?xml version="1.0" encoding="iso-8859-1"?>
<!-- Uploaded to: SVG Repo, www.svgrepo.com, Generator: SVG Repo Mixer Tools -->
<svg version="1.1" id="Layer_1" xmlns="http://www.w3.org/2000/svg" xmlns:xlink="http://www.w3.org/1999/xlink" 
	 viewBox="0 0 511.99 511.99" xml:space="preserve">
<rect x="42.663" y="159.997" style="fill:#E6E9ED;" width="426.67" height="277.34"/>
<g>
	<path style="fill:#434A54;" d="M309.339,309.34H85.999c-5.891,0-10.664-4.781-10.664-10.688c0-5.875,4.773-10.656,10.664-10.656
		h223.34c5.875,0,10.656,4.781,10.656,10.656C319.995,304.559,315.214,309.34,309.339,309.34z"/>
	<path style="fill:#434A54;" d="M309.339,351.995H85.999c-5.891,0-10.664-4.781-10.664-10.655c0-5.906,4.773-10.688,10.664-10.688
		h223.34c5.875,0,10.656,4.781,10.656,10.688C319.995,347.214,315.214,351.995,309.339,351.995z"/>
	<path style="fill:#434A54;" d="M191.997,394.65H85.999c-5.891,0-10.664-4.766-10.664-10.656s4.773-10.656,10.664-10.656h105.998
		c5.891,0,10.663,4.766,10.663,10.656S197.888,394.65,191.997,394.65z"/>
</g>
<g>
	<rect x="127.995" y="213.337" style="fill:#ED5564;" width="255.99" height="32"/>
	<polygon style="fill:#ED5564;" points="373.337,347.495 373.337,394.65 394.398,383.994 415.992,395.103 415.992,348.839 	"/>
</g>
<g>
	<path style="fill:#434A54;" d="M53.327,138.67c-4.531,0-8.727-2.914-10.164-7.46c-1.773-5.617,1.336-11.609,6.961-13.383
		l202.66-63.999c5.617-1.773,11.609,1.344,13.383,6.96c1.773,5.617-1.344,11.609-6.961,13.383L56.546,138.17
		C55.475,138.506,54.39,138.67,53.327,138.67z"/>
	<path style="fill:#434A54;" d="M458.664,138.67c-1.062,0-2.141-0.164-3.219-0.5L252.784,74.172
		c-5.617-1.773-8.733-7.766-6.96-13.383c1.772-5.617,7.765-8.734,13.382-6.96l202.661,63.999c5.625,1.773,8.734,7.766,6.969,13.383
		C467.398,135.756,463.195,138.67,458.664,138.67z"/>
</g>
<circle style="fill:#F6BB42;" cx="255.995" cy="63.997" r="32"/>
<g>
	<rect y="127.997" style="fill:#965353;" width="504.18" height="32"/>
	<rect x="469.335" y="154.447" style="fill:#965353;" width="34.843" height="315.99"/>
	<rect x="21.335" y="434.437" style="fill:#965353;" width="465.42" height="35.999"/>
	<rect x="12.859" y="143.997" style="fill:#965353;" width="34.663" height="313.1"/>
</g>
<path style="fill:#7F4545;" d="M501.335,117.335H10.664C4.773,117.335,0,122.108,0,127.999v341.338
	c0,5.875,4.773,10.656,10.664,10.656h490.671c5.875,0,10.655-4.781,10.655-10.656V127.999
	C511.99,122.108,507.21,117.335,501.335,117.335z M464.898,149.334H47.085l-10.664-10.672h439.148L464.898,149.334z
	 M458.648,170.663v255.988H53.335V170.663H458.648z M31.999,164.42V432.9l-10.664,10.672V153.748L31.999,164.42z M47.085,447.993
	h417.813l10.671,10.656H36.421L47.085,447.993z M479.991,432.9V164.42l10.656-10.672v289.824L479.991,432.9z"/>
<path style="fill:#F6BB42;" d="M426.648,319.996c0,17.672-14.312,31.999-32,31.999c-17.656,0-31.999-14.327-31.999-31.999
	s14.343-32,31.999-32C412.336,287.996,426.648,302.324,426.648,319.996z"/>
<g>
	<path style="fill:#FFCE54;" d="M394.648,362.651c-23.515,0-42.654-19.125-42.654-42.655c0-23.531,19.14-42.655,42.654-42.655
		c23.531,0,42.688,19.124,42.688,42.655C437.336,343.526,418.18,362.651,394.648,362.651z M394.648,298.652
		c-11.75,0-21.312,9.578-21.312,21.344s9.562,21.344,21.312,21.344c11.781,0,21.344-9.578,21.344-21.344
		S406.43,298.652,394.648,298.652z"/>
	<path style="fill:#FFCE54;" d="M405.336,319.996c0,5.891-4.781,10.656-10.688,10.656c-5.875,0-10.656-4.766-10.656-10.656
		s4.781-10.656,10.656-10.656C400.555,309.34,405.336,314.105,405.336,319.996z"/>
</g>
</svg>