<?xml version="1.0" encoding="iso-8859-1"?>
<!-- Uploaded to: SVG Repo, www.svgrepo.com, Generator: SVG Repo Mixer Tools -->
<svg version="1.1" id="Layer_1" xmlns="http://www.w3.org/2000/svg" xmlns:xlink="http://www.w3.org/1999/xlink" 
	 viewBox="0 0 512 512" xml:space="preserve">
<path style="fill:#FF7D00;" d="M496,376.8c0,8.8-8,15.2-18.4,15.2c1.6-2.4,2.4-4.8,2.4-8c0-8.8-7.2-16-16-16s-16,7.2-16,16
	c0,3.2,0.8,5.6,2.4,8h-52.8c-13.6,0-26.4-8.8-30.4-21.6l-4.8-12.8l-2.4-7.2c-0.8-3.2-4-4.8-8-4.8H160c-4,0-6.4,2.4-8,4.8l-8,22.4
	c-3.2,11.2-14.4,19.2-26.4,19.2h-56c1.6-2.4,2.4-4.8,2.4-8c0-8.8-7.2-16-16-16s-16,7.2-16,16c0,3.2,0.8,5.6,2.4,8
	C24,392,16,385.6,16,376.8V312h480V376.8z"/>
<g>
	<path style="fill:#FF5400;" d="M496,389.6c0,10.4-8,18.4-18.4,18.4h-104L360,357.6l2.4-0.8l4.8,12.8c4.8,12.8,16.8,21.6,30.4,21.6
		h52.8c0,0.8,0.8,0.8,0.8,1.6c0.8,0.8,0.8,0.8,1.6,1.6s0.8,0.8,1.6,1.6c0.8,0.8,2.4,1.6,3.2,2.4c1.6,0.8,4,1.6,6.4,1.6
		s4-0.8,6.4-1.6c1.6-0.8,2.4-1.6,3.2-2.4l0,0c0.8-0.8,0.8-0.8,1.6-1.6c0.8-0.8,0.8-0.8,1.6-1.6c0.8-0.8,0.8-0.8,0.8-1.6
		c10.4,0,18.4-6.4,18.4-15.2L496,389.6L496,389.6z"/>
	<path style="fill:#FF5400;" d="M352,345.6c4,0,6.4,2.4,8,4.8l2.4,7.2H360c-0.8-3.2-4-5.6-8-5.6H160c-4,0-6.4,2.4-8,5.6L138.4,408
		h-104C24,408,16,400,16,389.6v-12.8c0,8.8,8,15.2,18.4,15.2c0,0.8,0.8,0.8,1.6,1.6c0,0.8,0.8,0.8,1.6,1.6c0.8,0.8,0.8,0.8,1.6,1.6
		c0.8,0.8,2.4,1.6,3.2,2.4c1.6,0,3.2,0.8,5.6,0.8s4-0.8,6.4-1.6c0.8-0.8,2.4-1.6,3.2-2.4s0.8-0.8,1.6-1.6c0.8-0.8,0.8-0.8,1.6-1.6
		c0.8-0.8,0.8-0.8,1.6-1.6h56c12,0,23.2-8,26.4-19.2l8-22.4c0.8-3.2,4-4.8,8-4.8H352V345.6z"/>
</g>
<rect x="472" y="152" style="fill:#FF9900;" width="24" height="144"/>
<path style="fill:#FF7D00;" d="M477.6,104c10.4,0,18.4,8,18.4,18.4V136H16v-13.6C16,112,24,104,34.4,104H477.6z"/>
<g>
	<path style="fill:#42210B;" d="M477.6,392L477.6,392c0,0.8-0.8,0.8-0.8,1.6C476.8,392.8,477.6,392.8,477.6,392z"/>
	<path style="fill:#42210B;" d="M475.2,395.2c0.8-0.8,0.8-0.8,1.6-1.6C476,394.4,476,394.4,475.2,395.2z"/>
	<path style="fill:#42210B;" d="M452.8,395.2c-0.8-0.8-0.8-0.8-1.6-1.6c0-0.8-0.8-0.8-0.8-1.6l0,0c-1.6-2.4-2.4-4.8-2.4-8
		c0-8.8,7.2-16,16-16s16,7.2,16,16c0,3.2-0.8,5.6-2.4,8l0,0c0,0.8-0.8,0.8-0.8,1.6c-0.8,0.8-0.8,0.8-1.6,1.6c-0.8,0-0.8,0.8-1.6,1.6
		l0,0c-0.8,0.8-2.4,1.6-3.2,2.4c-2.4,0-4,0.8-6.4,0.8s-4-0.8-6.4-1.6c-1.6-0.8-2.4-1.6-3.2-2.4C453.6,396,453.6,396,452.8,395.2z"/>
	<path style="fill:#42210B;" d="M473.6,396.8c0.8-0.8,0.8-0.8,1.6-1.6C474.4,396,474.4,396,473.6,396.8z"/>
	<path style="fill:#42210B;" d="M473.6,396.8c-0.8,0.8-2.4,1.6-3.2,2.4C471.2,398.4,472.8,397.6,473.6,396.8z"/>
	<path style="fill:#42210B;" d="M454.4,396.8c0.8,0.8,2.4,1.6,3.2,2.4C456.8,398.4,455.2,397.6,454.4,396.8z"/>
	<path style="fill:#42210B;" d="M452.8,395.2c0.8,0.8,0.8,0.8,1.6,1.6C453.6,396,453.6,396,452.8,395.2z"/>
	<path style="fill:#42210B;" d="M451.2,393.6c0.8,0.8,0.8,0.8,1.6,1.6C452,394.4,452,394.4,451.2,393.6z"/>
	<path style="fill:#42210B;" d="M450.4,392c0,0.8,0.8,0.8,0.8,1.6C451.2,392.8,450.4,392.8,450.4,392L450.4,392z"/>
	<path style="fill:#42210B;" d="M368,224c0,17.6,14.4,32,32,32s32-14.4,32-32s-14.4-32-32-32S368,206.4,368,224z M352,224
		c0-26.4,21.6-48,48-48s48,21.6,48,48s-21.6,48-48,48S352,250.4,352,224z"/>
</g>
<polygon style="fill:#EE5656;" points="346.4,368 357.6,408 154.4,408 166.4,368 "/>
<g>
	<path style="fill:#42210B;" d="M328,248v-40H184v40H328z M344,224v32c0,4-4,8-8,8H176c-4,0-8-4-8-8v-32v-24c0-4,4-8,8-8h160
		c4,0,8,4,8,8V224z"/>
	<path style="fill:#42210B;" d="M144,224c0-17.6-14.4-32-32-32s-32,14.4-32,32s14.4,32,32,32S144,241.6,144,224z M112,176
		c26.4,0,48,21.6,48,48s-21.6,48-48,48s-48-21.6-48-48S85.6,176,112,176z"/>
</g>
<path style="fill:#E4C6A1;" d="M56,152v72v72h400v-72v-72H56z M112,272c-26.4,0-48-21.6-48-48s21.6-48,48-48s48,21.6,48,48
	S138.4,272,112,272z M344,256c0,4-4,8-8,8H176c-4,0-8-4-8-8v-32v-24c0-4,4-8,8-8h160c4,0,8,4,8,8v24V256z M400,272
	c-26.4,0-48-21.6-48-48s21.6-48,48-48s48,21.6,48,48S426.4,272,400,272z"/>
<g>
	<path style="fill:#42210B;" d="M61.6,392L61.6,392c0,0.8-0.8,0.8-0.8,1.6C60.8,392.8,61.6,392.8,61.6,392z"/>
	<path style="fill:#42210B;" d="M60.8,393.6c0,0.8-0.8,0.8-1.6,1.6C60,394.4,60,394.4,60.8,393.6z"/>
	<path style="fill:#42210B;" d="M36.8,395.2c-0.8-0.8-0.8-0.8-1.6-1.6c-0.8-0.8-0.8-0.8-0.8-1.6l0,0c-1.6-2.4-2.4-4.8-2.4-8
		c0-8.8,7.2-16,16-16s16,7.2,16,16c0,3.2-0.8,5.6-2.4,8l0,0c0,0.8-0.8,0.8-0.8,1.6c-0.8,0.8-0.8,0.8-1.6,1.6
		c-0.8,0.8-0.8,0.8-1.6,1.6c-0.8,0.8-2.4,1.6-3.2,2.4c-2.4,0-4,0.8-6.4,0.8s-4-0.8-6.4-1.6c-1.6-0.8-2.4-1.6-3.2-2.4
		C37.6,396,37.6,396,36.8,395.2z"/>
	<path style="fill:#42210B;" d="M57.6,396.8c0.8-0.8,0.8-0.8,1.6-1.6C58.4,396,58.4,396,57.6,396.8z"/>
	<path style="fill:#42210B;" d="M54.4,398.4c1.6-0.8,2.4-1.6,3.2-2.4C56.8,397.6,55.2,398.4,54.4,398.4z"/>
	<path style="fill:#42210B;" d="M41.6,398.4c-0.8-0.8-2.4-1.6-3.2-2.4C39.2,397.6,40.8,398.4,41.6,398.4z"/>
</g>
<rect x="16" y="152" style="fill:#FF9900;" width="24" height="144"/>
<g>
	<path style="fill:#42210B;" d="M36.8,395.2c0.8,0.8,0.8,0.8,1.6,1.6C37.6,396,37.6,396,36.8,395.2z"/>
	<path style="fill:#42210B;" d="M35.2,393.6c0.8,0.8,0.8,0.8,1.6,1.6C36,394.4,36,394.4,35.2,393.6z"/>
	<path style="fill:#42210B;" d="M34.4,392c0,0.8,0.8,0.8,0.8,1.6C35.2,392.8,34.4,392.8,34.4,392L34.4,392z"/>
	<path style="fill:#42210B;" d="M16,296h24V152H16V296z M496,152h-24v144h24V152z M16,136h480v-13.6c0-10.4-8-18.4-18.4-18.4H34.4
		C24,104,16,112,16,122.4V136z M456,152H56v72v72h400v-72V152z M357.6,408l-11.2-40h-180l-11.2,40H357.6z M477.6,424H368H144H34.4
		C15.2,424,0,408.8,0,389.6V304V144v-21.6C0,103.2,15.2,88,34.4,88h443.2c19.2,0,34.4,15.2,34.4,34.4V144v160v85.6
		C512,408.8,496.8,424,477.6,424z M360,357.6l14.4,50.4h104c10.4,0,18.4-8,18.4-18.4v-12.8V312H16v64.8v12.8C16,400,24,408,34.4,408
		h104l14.4-50.4c0.8-3.2,4-5.6,8-5.6h192C356,352,358.4,354.4,360,357.6z"/>
</g>
</svg>