<?xml version="1.0" encoding="iso-8859-1"?>
<!-- Uploaded to: SVG Repo, www.svgrepo.com, Generator: SVG Repo Mixer Tools -->
<svg version="1.1" id="Layer_1" xmlns="http://www.w3.org/2000/svg" xmlns:xlink="http://www.w3.org/1999/xlink" 
	 viewBox="0 0 501.333 501.333" xml:space="preserve">
<g>
	<rect y="88.533" style="fill:#3A5569;" width="250.667" height="347.733"/>
	<rect x="250.667" y="88.533" style="fill:#3A5569;" width="250.667" height="347.733"/>
</g>
<path style="fill:#F2EEED;" d="M221.867,65.067h-198.4v337.067h195.2c0,0,32,4.267,32,34.133v-34.133V374.4V93.867
	C250.667,77.867,237.867,65.067,221.867,65.067z"/>
<path style="fill:#E2E1E0;" d="M279.467,65.067h198.4v337.067h-195.2c0,0-32,4.267-32,34.133v-34.133V374.4V93.867
	C250.667,77.867,263.467,65.067,279.467,65.067z"/>
<rect x="64" y="107.733" style="fill:#E0E0DF;" width="144" height="9.6"/>
<rect x="64" y="140.8" style="fill:#FEC656;" width="61.867" height="9.6"/>
<g>
	<rect x="64" y="173.867" style="fill:#E0E0DF;" width="61.867" height="9.6"/>
	<rect x="64" y="206.933" style="fill:#E0E0DF;" width="61.867" height="9.6"/>
	<rect x="64" y="241.067" style="fill:#E0E0DF;" width="144" height="9.6"/>
	<rect x="64" y="274.133" style="fill:#E0E0DF;" width="144" height="9.6"/>
	<rect x="64" y="307.2" style="fill:#E0E0DF;" width="144" height="9.6"/>
	<rect x="64" y="340.267" style="fill:#E0E0DF;" width="144" height="9.6"/>
</g>
<rect x="149.333" y="140.8" style="fill:#F16D6E;" width="57.6" height="75.733"/>
<g>
	<rect x="292.267" y="107.733" style="fill:#CCC4C4;" width="144" height="9.6"/>
	<rect x="292.267" y="241.067" style="fill:#CCC4C4;" width="144" height="9.6"/>
	<rect x="292.267" y="340.267" style="fill:#CCC4C4;" width="144" height="9.6"/>
</g>
<rect x="377.6" y="140.8" style="fill:#E0BBA6;" width="57.6" height="75.733"/>
<rect x="292.267" y="268.8" style="fill:#F7B044;" width="144" height="53.333"/>
<rect x="292.267" y="140.8" style="fill:#E0BBA6;" width="57.6" height="75.733"/>
</svg>