<?xml version="1.0" encoding="iso-8859-1"?>
<!-- Uploaded to: SVG Repo, www.svgrepo.com, Generator: SVG Repo Mixer Tools -->
<svg version="1.1" id="Layer_1" xmlns="http://www.w3.org/2000/svg" xmlns:xlink="http://www.w3.org/1999/xlink" 
	 viewBox="0 0 512 512" xml:space="preserve">
<path style="fill:#C61C31;" d="M440,16h-96v496h96c17.672,0,32-14.328,32-32V48C472,30.328,457.672,16,440,16z"/>
<path style="fill:#B4172B;" d="M344,496h72l0,0l0,0c0,8.84-7.16,16-16,16h-56l0,0V496L344,496z"/>
<g>
	<path style="fill:#E2E7F0;" d="M432,32h-16c13.256,0,24,10.744,24,24v416c0,13.256-10.744,24-24,24h16c13.256,0,24-10.744,24-24V56
		C456,42.744,445.256,32,432,32z"/>
	<path style="fill:#E2E7F0;" d="M416,32h-16c13.256,0,24,10.744,24,24v416c0,13.256-10.744,24-24,24h16c13.256,0,24-10.744,24-24V56
		C440,42.744,429.256,32,416,32z"/>
</g>
<path style="fill:#C9D5E3;" d="M400,32h-16c13.256,0,24,10.744,24,24v416c0,13.256-10.744,24-24,24h16c13.256,0,24-10.744,24-24V56
	C424,42.744,413.256,32,400,32z"/>
<path style="fill:#DE333F;" d="M408,480c0,17.672-14.328,32-32,32H56c-8.84,0-16-7.16-16-16V32c0-8.84,7.16-16,16-16h320
	c17.672,0,32,14.328,32,32V480z"/>
<path style="fill:#F19920;" d="M336,0c-8.84,0-16,7.16-16,16h32C352,7.16,344.84,0,336,0z"/>
<path style="fill:#F6B545;" d="M336,0h-80c-8.84,0-16,7.16-16,16v112l40-16l40,16V16C320,7.16,327.16,0,336,0z"/>
<g>
	<path style="fill:#C61C31;" d="M152,336h176c4.416,0,8,3.584,8,8l0,0c0,4.416-3.584,8-8,8H152c-4.416,0-8-3.584-8-8l0,0
		C144,339.584,147.584,336,152,336z"/>
	<path style="fill:#C61C31;" d="M184,368h112c4.416,0,8,3.584,8,8l0,0c0,4.416-3.584,8-8,8H184c-4.416,0-8-3.584-8-8l0,0
		C176,371.584,179.584,368,184,368z"/>
	<path style="fill:#C61C31;" d="M288,296v-16c0-20.56-23.44-24-32-32h-32c-8.56,8-32,11.44-32,32v16H288z"/>
	<circle style="fill:#C61C31;" cx="240" cy="208" r="24"/>
	<path style="fill:#C61C31;" d="M56,16h24l0,0v496l0,0H56c-8.84,0-16-7.16-16-16V32C40,23.16,47.16,16,56,16z"/>
	<path style="fill:#C61C31;" d="M392,64v416c0,8.84-7.16,16-16,16H128c-8.84,0-16,7.16-16,16h264c17.672,0,32-14.328,32-32V48l0,0
		C399.16,48,392,55.16,392,64z"/>
</g>
<rect x="80" y="16" style="fill:#B4172B;" width="16" height="496"/>
</svg>