<?xml version="1.0" encoding="UTF-8" standalone="no"?>
<!-- Uploaded to: SVG Repo, www.svgrepo.com, Generator: SVG Repo Mixer Tools -->

<svg
   width="800px"
   height="800px"
   viewBox="0 0 73 73"
   version="1.1"
   id="svg25"
   sodipodi:docname="queues-and-stacks-svgrepo-com.svg"
   inkscape:version="1.2.2 (b0a8486541, 2022-12-01)"
   xmlns:inkscape="http://www.inkscape.org/namespaces/inkscape"
   xmlns:sodipodi="http://sodipodi.sourceforge.net/DTD/sodipodi-0.dtd"
   xmlns="http://www.w3.org/2000/svg"
   xmlns:svg="http://www.w3.org/2000/svg"
   xmlns:rdf="http://www.w3.org/1999/02/22-rdf-syntax-ns#"
   xmlns:cc="http://creativecommons.org/ns#"
   xmlns:dc="http://purl.org/dc/elements/1.1/">
  <sodipodi:namedview
     id="namedview27"
     pagecolor="#505050"
     bordercolor="#ffffff"
     borderopacity="1"
     inkscape:showpageshadow="0"
     inkscape:pageopacity="0"
     inkscape:pagecheckerboard="1"
     inkscape:deskcolor="#505050"
     showgrid="false"
     inkscape:zoom="0.59"
     inkscape:cx="229.66102"
     inkscape:cy="479.66102"
     inkscape:window-width="1920"
     inkscape:window-height="1040"
     inkscape:window-x="0"
     inkscape:window-y="0"
     inkscape:window-maximized="1"
     inkscape:current-layer="svg25" />
  <title
     id="title2">algorithms-and-data-structures/data-structures/queues-and-stacks</title>
  <desc
     id="desc4">Created with Sketch.</desc>
  <defs
     id="defs6" />
  <g
     id="algorithms-and-data-structures/data-structures/queues-and-stacks"
     stroke="none"
     stroke-width="1"
     fill="none"
     fill-rule="evenodd"
     transform="matrix(1.5697685,0,0,1.5697685,-21.581434,-20.148168)">
    <g
       id="container"
       transform="translate(2,2)"
       fill="#ffffff"
       fill-rule="nonzero"
       stroke="#333336"
       stroke-width="2" />
    <g
       id="books"
       transform="translate(15,16)"
       fill-rule="nonzero">
      <path
         d="m 44,26.782609 v 1.913043 c 0,1.584861 -1.284704,2.869565 -2.869565,2.869565 h -0.956522 c 0.528287,0 0.956522,0.428235 0.956522,0.956522 v 6.695652 c 0,0.528287 -0.428235,0.956522 -0.956522,0.956522 H 3.826087 c -0.528287,0 -0.9565218,-0.428235 -0.9565218,-0.956522 v -6.695652 c 0,-0.528287 0.4282348,-0.956522 0.9565218,-0.956522 h 6.695652 c -0.5282868,0 -0.9565216,-0.428234 -0.9565216,-0.956521 0,-0.528287 0.4282348,-0.956522 0.9565216,-0.956522 h 0.956522 v -3.826087 h -0.956522 c -0.5282868,0 -0.9565216,-0.428235 -0.9565216,-0.956522 0,-0.528287 0.4282348,-0.956522 0.9565216,-0.956522 H 2.8695652 C 1.2847043,23.913043 0,22.628339 0,21.043478 V 17.217391 C 0,15.63253 1.2847043,14.347826 2.8695652,14.347826 H 14.347826 V 7.6521739 H 2.8695652 C 1.2847043,7.6521739 0,6.3674696 0,4.7826087 V 2.8695652 C 0,1.2847043 1.2847043,0 2.8695652,0 h 27.7391308 0.956521 1.913044 c 0.528287,0 0.956522,0.42823478 0.956522,0.95652174 0,0.52828696 -0.428235,0.95652176 -0.956522,0.95652176 h -0.956522 v 3.8260869 h 0.956522 c 0.528287,0 0.956522,0.4282348 0.956522,0.9565218 0,0.5282869 -0.428235,0.9565217 -0.956522,0.9565217 h 1.913043 v 6.6956521 h -1.913043 c 0.528287,0 0.956522,0.428235 0.956522,0.956522 0,0.528287 -0.428235,0.956522 -0.956522,0.956522 V 22 c 0.528287,0 0.956522,0.428235 0.956522,0.956522 0,0.528287 -0.428235,0.956521 -0.956522,0.956521 h 7.652174 C 42.715296,23.913043 44,25.197748 44,26.782609 Z"
         id="XMLID_227_"
         fill="#59595b" />
      <path
         d="M 11.478261,40.173913 H 8.6086957 v -8.608696 h 2.8695653 z m 23.913043,-8.608696 h -2.869565 v 8.608696 h 2.869565 z"
         id="XMLID_243_"
         fill="#c18f2b" />
      <path
         d="m 35.391304,14.347826 h -1.913043 c 0.528287,0 0.956522,0.428235 0.956522,0.956522 0,0.528287 -0.428235,0.956522 -0.956522,0.956522 V 22 c 0.528287,0 0.956522,0.428235 0.956522,0.956522 0,0.528287 -0.428235,0.956521 -0.956522,0.956521 h 7.652174 C 42.715296,23.913043 44,25.197748 44,26.782609 v 1.913043 c 0,1.584861 -1.284704,2.869565 -2.869565,2.869565 H 13.391304 12.434783 10.521739 c -0.5282868,0 -0.9565216,-0.428234 -0.9565216,-0.956521 0,-0.528287 0.4282348,-0.956522 0.9565216,-0.956522 h 0.956522 v -3.826087 h -0.956522 c -0.5282868,0 -0.9565216,-0.428235 -0.9565216,-0.956522 0,-0.528287 0.4282348,-0.956522 0.9565216,-0.956522 H 2.8695652 C 1.2847043,23.913043 0,22.628339 0,21.043478 V 17.217391 C 0,15.63253 1.2847043,14.347826 2.8695652,14.347826 h 3.826087 c -0.528287,0 -0.9565218,-0.428235 -0.9565218,-0.956522 V 8.6086957 c 0,-0.528287 0.4282348,-0.9565218 0.9565218,-0.9565218 H 2.8695652 C 1.2847043,7.6521739 0,6.3674696 0,4.7826087 V 2.8695652 C 0,1.2847043 1.2847043,0 2.8695652,0 h 27.7391308 0.956521 1.913044 c 0.528287,0 0.956522,0.42823478 0.956522,0.95652174 0,0.52828696 -0.428235,0.95652176 -0.956522,0.95652176 h -0.956522 v 3.8260869 h 0.956522 c 0.528287,0 0.956522,0.4282348 0.956522,0.9565218 0,0.5282869 -0.428235,0.9565217 -0.956522,0.9565217 h 1.913043 7.652174 C 43.571765,7.6521739 44,8.0804087 44,8.6086957 v 4.7826083 c 0,0.528287 -0.428235,0.956522 -0.956522,0.956522 z"
         id="XMLID_226_"
         fill="#732d21" />
      <path
         d="m 42.086956,27.26087 v 0.956521 c 0,0.792383 -0.6424,1.434783 -1.434782,1.434783 H 13.134765 c 0.162896,-0.562913 0.256539,-1.215931 0.256539,-1.913044 0,-0.697113 -0.09364,-1.35013 -0.256539,-1.913043 h 27.517409 c 0.792382,0 1.434782,0.6424 1.434782,1.434783 z M 1.9130435,3.3478261 v 0.9565217 c 0,0.7923826 0.6424,1.4347826 1.4347826,1.4347826 H 30.865235 C 30.702339,5.1762174 30.608696,4.5232 30.608696,3.826087 c 0,-0.6971131 0.09364,-1.3501305 0.256539,-1.9130435 H 3.3478261 c -0.7923826,0 -1.4347826,0.6424 -1.4347826,1.4347826 z"
         id="XMLID_225_"
         fill="#8f8d7e" />
      <path
         d="m 40.173913,27.26087 v 0.956521 c 0,0.792383 -0.6424,1.434783 -1.434783,1.434783 H 11.221722 c 0.162895,-0.562913 0.256539,-1.215931 0.256539,-1.913044 0,-0.697113 -0.09364,-1.35013 -0.256539,-1.913043 H 38.73913 c 0.792383,0 1.434783,0.6424 1.434783,1.434783 z M 3.826087,3.3478261 v 0.9565217 c 0,0.7923826 0.6424,1.4347826 1.4347826,1.4347826 H 32.778278 C 32.615383,5.1762174 32.521739,4.5232 32.521739,3.826087 c 0,-0.6971131 0.09364,-1.3501305 0.256539,-1.9130435 H 5.2608696 c -0.7923826,0 -1.4347826,0.6424 -1.4347826,1.4347826 z"
         id="XMLID_88_"
         fill="#c6c2ac" />
      <path
         d="m 34.784774,27.73913 c 0,0.264096 -3.211904,0.478261 -7.173913,0.478261 -3.962009,0 -7.173913,-0.214165 -7.173913,-0.478261 0,-0.264095 3.211904,-0.47826 7.173913,-0.47826 3.962009,0 7.173913,0.214165 7.173913,0.47826 z M 29.173913,2.8695652 C 25.211904,2.8695652 22,3.0837304 22,3.3478261 c 0,0.2640956 3.211904,0.4782609 7.173913,0.4782609 1.209809,0 2.34893,-0.020087 3.348783,-0.055287 0.0021,-0.2904956 0.02066,-0.5727652 0.05347,-0.8441304 -1.012478,-0.036443 -2.171017,-0.057104 -3.402252,-0.057104 z"
         id="XMLID_221_"
         fill="#8f8d7e" />
      <path
         d="m 30.608696,34.434783 -2.869566,-0.956522 -2.869565,0.956522 v -6.217392 c 0,-0.264095 0.214165,-0.478261 0.478261,-0.478261 h 4.782609 c 0.264095,0 0.478261,0.214166 0.478261,0.478261 z"
         id="XMLID_1408_"
         fill="#b04230" />
      <path
         d="m 44,8.6086957 v 4.7826083 c 0,0.528287 -0.428235,0.956522 -0.956522,0.956522 h -9.565217 c 0.528287,0 0.956522,0.428235 0.956522,0.956522 0,0.528287 -0.428235,0.956522 -0.956522,0.956522 V 22 c 0.528287,0 0.956522,0.428235 0.956522,0.956522 0,0.528287 -0.428235,0.956521 -0.956522,0.956521 H 32.521739 31.565217 2.8695652 C 1.2847043,23.913043 0,22.628339 0,21.043478 V 17.217391 C 0,15.63253 1.2847043,14.347826 2.8695652,14.347826 h 3.826087 c -0.528287,0 -0.9565218,-0.428235 -0.9565218,-0.956522 V 8.6086957 c 0,-0.528287 0.4282348,-0.9565218 0.9565218,-0.9565218 H 43.043478 C 43.571765,7.6521739 44,8.0804087 44,8.6086957 Z"
         id="XMLID_1407_"
         fill="#677445" />
      <path
         d="M 35.391304,14.347826 H 14.347826 V 7.6521739 H 35.391304 Z M 11.478261,7.6521739 H 9.5652174 v 6.6956521 h 1.9130436 z m 29.652174,0 h -3.826087 v 6.6956521 h 3.826087 z"
         id="XMLID_1357_"
         fill="#798751" />
      <path
         d="m 34.434783,22.956522 c 0,0.528287 -0.428235,0.956521 -0.956522,0.956521 H 32.521739 31.565217 2.8695652 C 1.2847043,23.913043 0,22.628339 0,21.043478 V 17.217391 C 0,15.63253 1.2847043,14.347826 2.8695652,14.347826 h 28.6956518 0.956522 0.956522 c 0.528287,0 0.956522,0.428235 0.956522,0.956522 0,0.528287 -0.428235,0.956522 -0.956522,0.956522 V 22 c 0.528287,0 0.956522,0.428235 0.956522,0.956522 z"
         id="XMLID_1401_"
         fill="#b14724" />
      <path
         d="m 3.091287,16.26087 h 27.517409 c -0.162896,0.844321 -0.25654,1.8238 -0.25654,2.869565 0,1.045669 0.09364,2.025243 0.25654,2.869565 H 3.091287 C 2.2989044,22 1.6565044,21.0364 1.6565044,19.847826 v -1.434783 c 0,-1.188573 0.6423043,-2.152173 1.4347826,-2.152173 z"
         id="XMLID_1395_"
         fill="#8f8d7e" />
      <path
         d="m 5.308313,16.26087 h 28.426583 c -0.168253,0.844321 -0.265052,1.8238 -0.265052,2.869565 0,1.045669 0.0968,2.025243 0.265052,2.869565 H 5.308313 C 4.4897217,22 3.826087,21.0364 3.826087,19.847826 v -1.434783 c 0,-1.188573 0.6636347,-2.152173 1.482226,-2.152173 z"
         id="XMLID_1371_"
         fill="#c6c2ac" />
      <path
         d="m 16.1326,18.652174 c 3.962009,0 7.173913,0.214165 7.173913,0.478261 0,0.264095 -3.211904,0.478261 -7.173913,0.478261 -3.962009,0 -7.173913,-0.214166 -7.173913,-0.478261 0,-0.264096 3.211809,-0.478261 7.173913,-0.478261 z m 17.123939,-1.434783 c -3.962009,0 -7.173913,0.214165 -7.173913,0.478261 0,0.264096 3.211904,0.478261 7.173913,0.478261 0.08111,0 0.161365,-1.91e-4 0.241809,-3.83e-4 0.01913,-0.328756 0.04725,-0.64833 0.08475,-0.955565 -0.108279,-3.82e-4 -0.217035,-5.74e-4 -0.326557,-5.74e-4 z m 0.241809,2.869948 c -0.08044,-1.91e-4 -0.160696,-3.83e-4 -0.241809,-3.83e-4 -3.962009,0 -7.173913,0.214166 -7.173913,0.478261 0,0.264096 3.211904,0.478261 7.173913,0.478261 0.109522,0 0.218183,-1.91e-4 0.326557,-5.74e-4 -0.0375,-0.307234 -0.06562,-0.626808 -0.08475,-0.955565 z"
         id="XMLID_1361_"
         fill="#8f8d7e" />
    </g>
  </g>
  <metadata
     id="metadata408">
    <rdf:RDF>
      <cc:Work
         rdf:about="">
        <dc:title>algorithms-and-data-structures/data-structures/queues-and-stacks</dc:title>
      </cc:Work>
    </rdf:RDF>
  </metadata>
</svg>
