<?xml version="1.0" encoding="UTF-8" standalone="no"?>
<!-- Uploaded to: SVG Repo, www.svgrepo.com, Generator: SVG Repo Mixer Tools -->

<svg
   version="1.1"
   id="Layer_1"
   viewBox="0 0 512 512"
   xml:space="preserve"
   sodipodi:docname="book22.svg"
   inkscape:version="1.2.2 (b0a8486541, 2022-12-01)"
   xmlns:inkscape="http://www.inkscape.org/namespaces/inkscape"
   xmlns:sodipodi="http://sodipodi.sourceforge.net/DTD/sodipodi-0.dtd"
   xmlns="http://www.w3.org/2000/svg"
   xmlns:svg="http://www.w3.org/2000/svg"><defs
   id="defs51" /><sodipodi:namedview
   id="namedview49"
   pagecolor="#505050"
   bordercolor="#ffffff"
   borderopacity="1"
   inkscape:showpageshadow="0"
   inkscape:pageopacity="0"
   inkscape:pagecheckerboard="1"
   inkscape:deskcolor="#505050"
   showgrid="false"
   inkscape:zoom="0.4609375"
   inkscape:cx="-111.72881"
   inkscape:cy="113.89831"
   inkscape:window-width="1370"
   inkscape:window-height="1031"
   inkscape:window-x="1514"
   inkscape:window-y="40"
   inkscape:window-maximized="0"
   inkscape:current-layer="Layer_1" />
<path
   style="fill:#ffdc64"
   d="m 503.983,409.9205 h -51.307 v -282.188 c 0,-4.722 3.829,-8.551 8.551,-8.551 h 34.205 c 4.722,0 8.551,3.829 8.551,8.551 v 282.188 z"
   id="path2" />
<path
   style="fill:#00aaf0"
   d="m 358.614,119.1815 h -34.205 c -4.722,0 -8.551,3.829 -8.551,8.551 v 273.637 c 0,4.722 3.829,8.551 8.551,8.551 h 42.756 v -282.188 c 0,-4.722 -3.829,-8.551 -8.551,-8.551 z"
   id="path4" />
<path
   style="fill:#ff5050"
   d="m 179.04,409.9205 h -51.307 v -282.188 c 0,-4.722 3.829,-8.551 8.551,-8.551 h 34.205 c 4.722,0 8.551,3.829 8.551,8.551 v 282.188 z"
   id="path6" />
<path
   style="fill:#959cb5"
   d="M 59.324,409.9205 H 8.017 v -282.188 c 0,-4.722 3.829,-8.551 8.551,-8.551 h 34.205 c 4.722,0 8.551,3.829 8.551,8.551 z"
   id="path8" />
<path
   style="fill:#785353"
   d="m 452.676,409.9205 h -85.511 v -299.29 c 0,-4.722 3.829,-8.551 8.551,-8.551 h 68.409 c 4.722,0 8.551,3.829 8.551,8.551 v 299.29 z"
   id="path10" />
<path
   style="fill:#ffdc64"
   d="M 127.733,409.9205 H 59.324 V 93.5285 c 0,-4.722 3.829,-8.551 8.551,-8.551 h 51.307 c 4.722,0 8.551,3.829 8.551,8.551 z"
   id="path12" />
<path
   style="fill:#7df5a5"
   d="m 307.307,102.0795 h -68.409 c -4.722,0 -8.551,3.829 -8.551,8.551 v 299.29 h 85.511 v -299.29 c 0,-4.722 -3.829,-8.551 -8.551,-8.551 z"
   id="path14" />

<path
   style="fill:#0096dc"
   d="m 324.409,409.9205 h 42.756 v -17.705 l -51.307,-51.307 v 60.461 c 0,4.722 3.829,8.551 8.551,8.551 z"
   id="path18" />

<path
   style="fill:#707487"
   d="m 179.04,409.9205 h 51.307 V 93.5285 c 0,-4.722 -3.829,-8.551 -8.551,-8.551 h -34.205 c -4.722,0 -8.551,3.829 -8.551,8.551 v 316.392 z"
   id="path22" />
<g
   id="g28"
   transform="translate(0,55.5825)">
	<path
   style="fill:#5b5d6e"
   d="M 221.795,29.395 H 187.59 c -4.722,0 -8.551,3.829 -8.551,8.551 v 17.102 h 51.307 V 37.946 c 0.001,-4.723 -3.828,-8.551 -8.551,-8.551 z"
   id="path24" />
	<rect
   x="179.03999"
   y="328.685"
   style="fill:#5b5d6e"
   width="51.306999"
   height="25.653"
   id="rect26" />
</g>
<g
   id="g34"
   transform="translate(0,55.5825)">
	<path
   style="fill:#ffc850"
   d="m 495.432,63.599 h -34.205 c -4.722,0 -8.551,3.829 -8.551,8.551 v 17.102 h 51.307 V 72.15 c 0,-4.722 -3.828,-8.551 -8.551,-8.551 z"
   id="path30" />
	<rect
   x="452.67599"
   y="328.685"
   style="fill:#ffc850"
   width="51.306999"
   height="25.653"
   id="rect32" />
</g>
<path
   d="m 495.432,111.1645 h -34.205 c -0.181,0 -0.356,0.021 -0.534,0.027 v -0.561 c 0,-9.136 -7.432,-16.568 -16.568,-16.568 h -68.409 c -9.136,0 -16.568,7.432 -16.568,16.568 v 0.561 c -0.178,-0.005 -0.354,-0.027 -0.534,-0.027 h -34.205 c -0.181,0 -0.356,0.021 -0.534,0.027 v -0.561 c 0,-9.136 -7.432,-16.568 -16.568,-16.568 h -68.409 c -0.181,0 -0.356,0.021 -0.534,0.027 v -0.561 c 0,-9.136 -7.432,-16.568 -16.568,-16.568 h -34.205 c -9.136,0 -16.568,7.432 -16.568,16.568 v 17.663 c -0.179,-0.005 -0.354,-0.027 -0.534,-0.027 h -34.205 c -0.181,0 -0.356,0.021 -0.534,0.027 v -17.663 c 0,-9.136 -7.432,-16.568 -16.568,-16.568 H 67.875 c -9.136,0 -16.568,7.432 -16.568,16.568 v 17.663 c -0.179,-0.005 -0.354,-0.027 -0.534,-0.027 H 16.568 C 7.432,111.1645 0,118.5965 0,127.7325 v 282.188 c 0,4.427 8.017,8.017 8.017,8.017 l 359.929,0.002 h 136.039 c 4.427,0 8.017,-3.589 8.017,-8.017 v -282.19 c -0.002,-9.136 -7.434,-16.568 -16.57,-16.568 z m -171.72439,290.74 -0.13075,-18.172 H 359.149 v 18.171 c 0,0 -62.55845,-5.6e-4 -35.44139,10e-4 z M 238.364,402.41036 V 144.3005 h 69.478 v 257.90824 c 0,0 -51.891,0.26985 -69.478,0.20162 z m 86.045,-34.71086 c -0.181,0 -0.357,0.015 -0.534,0.027 v -206.324 h 35.273 v 206.296 h -34.739 z m 50.773,-189.194 h 69.478 v 154.99 h -69.478 z m 69.478,-16.034 h -69.478 v -18.171 h 69.478 z m -69.478,187.057 h 69.478 v 18.171 h -69.478 z m 0,-238.898 c 0,-0.295 0.239,-0.534 0.534,-0.534 h 68.409 c 0.295,0 0.534,0.239 0.534,0.534 v 17.102 0.534 h -69.478 v -0.534 -17.102 z m -50.773,16.568 h 34.205 c 0.295,0 0.534,0.239 0.534,0.534 v 17.637 h -35.273 v -17.637 c 0,-0.295 0.239,-0.534 0.534,-0.534 z m -85.511,-17.102 h 68.409 c 0.295,0 0.534,0.239 0.534,0.534 v 17.102 0.534 h -69.478 v -17.636 c 0,-0.295 0.24,-0.534 0.535,-0.534 z m -222.865,51.306 h 35.273 v 206.296 H 16.033 Z m 51.307,17.103 h 52.376 v 154.99 H 67.34 Z m 52.376,-16.034 H 67.34 v -18.171 h 52.376 z M 67.34,349.5285 h 52.376 v 18.171 H 67.34 Z m 68.409,-188.126 h 35.273 v 206.296 h -35.273 z m 0.535,-34.204 h 34.205 c 0.295,0 0.534,0.239 0.534,0.534 v 17.637 H 135.75 v -17.637 c -0.001,-0.295 0.239,-0.534 0.534,-0.534 z M 67.34,93.5285 c 0,-0.295 0.239,-0.534 0.534,-0.534 h 51.307 c 0.295,0 0.534,0.239 0.534,0.534 v 34.204 0.534 H 67.34 v -0.534 z m -50.772,33.67 h 34.205 c 0.295,0 0.534,0.239 0.534,0.534 v 17.637 H 16.033 v -17.637 c 0,-0.295 0.24,-0.534 0.535,-0.534 z m -0.535,256.534 h 35.273 v 18.171 H 16.033 Z m 51.307,0 h 52.376 v 18.171 H 67.34 Z m 68.409,0 h 35.273 v 18.171 h -35.273 z m 51.307,-290.204 c 0,-0.295 0.239,-0.534 0.534,-0.534 h 34.205 c 0.295,0 0.534,0.239 0.534,0.534 v 17.102 291.273 h -35.273 z m 188.126,290.204 h 69.478 v 18.171 h -69.478 z m 120.785,18.172 h -35.273 v -274.172 c 0,-0.295 0.239,-0.534 0.534,-0.534 h 34.205 c 0.295,0 0.534,0.239 0.534,0.534 z"
   id="path36"
   sodipodi:nodetypes="sscsssscsscssscsssscsscsssscssssccsscscccccccccccccccccccccccccccccccccsssccccccsssccssssscccssccccccccccccccccccccccccccsssccccssssccccssssccsccccccccccccccccssssccccccccsccssss" />
<path
   d="m 273.102,265.0855 c -4.427,0 -8.017,3.589 -8.017,8.017 v 25.653 c 0,4.427 3.589,8.017 8.017,8.017 4.427,0 8.017,-3.589 8.017,-8.017 v -25.653 c 0,-4.428 -3.589,-8.017 -8.017,-8.017 z"
   id="path38" />
<path
   d="m 273.102,162.4715 c -4.427,0 -8.017,3.589 -8.017,8.017 v 68.409 c 0,4.427 3.589,8.017 8.017,8.017 4.427,0 8.017,-3.589 8.017,-8.017 v -68.409 c 0,-4.427 -3.589,-8.017 -8.017,-8.017 z"
   id="path40" />
<path
   d="m 93.528,196.6765 c -4.427,0 -8.017,3.589 -8.017,8.017 v 102.614 c 0,4.427 3.589,8.017 8.017,8.017 4.427,0 8.017,-3.589 8.017,-8.017 v -102.614 c 0,-4.428 -3.589,-8.017 -8.017,-8.017 z"
   id="path42" />
<path
   d="m 409.921,247.9835 c -4.427,0 -8.017,3.589 -8.017,8.017 v 51.307 c 0,4.427 3.589,8.017 8.017,8.017 4.427,0 8.017,-3.589 8.017,-8.017 v -51.307 c -10e-4,-4.429 -3.59,-8.017 -8.017,-8.017 z"
   id="path44" />
<path
   d="m 409.921,196.6765 c -4.427,0 -8.017,3.589 -8.017,8.017 v 17.103 c 0,4.427 3.589,8.017 8.017,8.017 4.427,0 8.017,-3.589 8.017,-8.017 v -17.103 c -10e-4,-4.428 -3.59,-8.017 -8.017,-8.017 z"
   id="path46" />
</svg>
