<?xml version="1.0" encoding="iso-8859-1"?>
<!-- Uploaded to: SVG Repo, www.svgrepo.com, Generator: SVG Repo Mixer Tools -->
<svg height="800px" width="800px" version="1.1" id="Layer_1" xmlns="http://www.w3.org/2000/svg" xmlns:xlink="http://www.w3.org/1999/xlink" 
	 viewBox="0 0 511.882 511.882" xml:space="preserve">
<path style="fill:#DA4453;" d="M469.22,0H95.978c-5.905,0-10.67,4.78-10.67,10.67c0,5.889,4.765,10.669,10.67,10.669H469.22
	c5.889,0,10.669-4.78,10.669-10.669C479.889,4.78,475.109,0,469.22,0z"/>
<path style="fill:#ED5564;" d="M479.889,501.228c0,5.89-4.78,10.654-10.669,10.654H95.978c-5.905,0-10.67-4.765-10.67-10.654V53.332
	c0-5.89,4.765-10.67,10.67-10.67H469.22c5.889,0,10.669,4.78,10.669,10.67V501.228z"/>
<polygon style="fill:#F6BB42;" points="159.963,298.603 223.948,191.956 287.933,298.603 "/>
<polygon style="fill:#FFCE54;" points="213.279,298.603 298.587,149.309 383.912,298.603 "/>
<g>
	<path style="fill:#434A54;" d="M314.584,426.574h-85.309c-5.889,0-10.669-4.765-10.669-10.67c0-5.889,4.78-10.653,10.669-10.653
		h85.309c5.889,0,10.67,4.765,10.67,10.653C325.253,421.809,320.472,426.574,314.584,426.574z"/>
	<path style="fill:#434A54;" d="M357.246,383.912H186.613c-5.889,0-10.653-4.765-10.653-10.654c0-5.889,4.765-10.669,10.653-10.669
		h170.633c5.889,0,10.67,4.78,10.67,10.669C367.916,379.147,363.134,383.912,357.246,383.912z"/>
</g>
<path style="fill:#656D78;" d="M63.985,0C46.301,0,31.993,14.325,31.993,31.993v447.896c0,17.684,14.309,31.993,31.992,31.993
	h31.993V0H63.985z"/>
<path style="fill:#F5F7FA;" d="M74.342,21.338c-6.062,0-10.982,4.765-10.982,10.654c0,5.904,4.921,10.669,10.982,10.669H469.22
	V21.338H74.342z"/>
</svg>