<?xml version="1.0" encoding="iso-8859-1"?>
<!-- Uploaded to: SVG Repo, www.svgrepo.com, Generator: SVG Repo Mixer Tools -->
<svg height="800px" width="800px" version="1.1" id="Layer_1" xmlns="http://www.w3.org/2000/svg" xmlns:xlink="http://www.w3.org/1999/xlink" 
	 viewBox="0 0 512.003 512.003" xml:space="preserve">
<path style="fill:#E6E6E6;" d="M153.973,9.913h244.729h46.759c21.408,0,38.772,17.364,38.772,38.772v415.134
	c0,21.421-17.364,38.772-38.772,38.772h-46.759H153.973"/>
<path style="fill:#E88158;" d="M67.154,82.512V48.686c0-21.408,17.364-38.772,38.772-38.772h291.488
	c21.408,0,38.772,17.364,38.772,38.772v415.134c0,21.421-17.364,38.772-38.772,38.772H105.926
	c-21.408,0-38.772-17.351-38.772-38.772v-33.826C67.154,429.993,67.154,82.512,67.154,82.512z"/>
<path style="fill:#D37250;" d="M94.204,463.819v-33.826V82.512V48.686c0-21.408,17.364-38.772,38.772-38.772h-25.762
	c-21.408,0-38.772,17.364-38.772,38.772v33.826v347.482v33.826c0,21.421,17.364,38.772,38.772,38.772h25.762
	C111.568,502.592,94.204,485.241,94.204,463.819z"/>
<g>
	<path style="fill:#F4BD64;" d="M93.958,391.354h-46.37c-10.671,0-19.32,8.65-19.32,19.32l0,0c0,10.671,8.65,19.32,19.32,19.32
		h46.37c10.671,0,19.32-8.65,19.32-19.32l0,0C113.279,400.004,104.629,391.354,93.958,391.354z"/>
	<path style="fill:#F4BD64;" d="M93.958,236.933h-46.37c-10.671,0-19.32,8.65-19.32,19.32l0,0c0,10.671,8.65,19.32,19.32,19.32
		h46.37c10.671,0,19.32-8.65,19.32-19.32l0,0C113.279,245.583,104.629,236.933,93.958,236.933z"/>
	<path style="fill:#F4BD64;" d="M93.958,82.513h-46.37c-10.671,0-19.32,8.65-19.32,19.32l0,0c0,10.671,8.65,19.32,19.32,19.32h46.37
		c10.671,0,19.32-8.65,19.32-19.32l0,0C113.279,91.164,104.629,82.513,93.958,82.513z"/>
	<path style="fill:#F4BD64;" d="M93.958,314.143h-46.37c-10.671,0-19.32,8.65-19.32,19.32l0,0c0,10.671,8.65,19.32,19.32,19.32
		h46.37c10.671,0,19.32-8.65,19.32-19.32l0,0C113.279,322.794,104.629,314.143,93.958,314.143z"/>
	<path style="fill:#F4BD64;" d="M93.958,159.724h-46.37c-10.671,0-19.32,8.65-19.32,19.32l0,0c0,10.671,8.65,19.32,19.32,19.32
		h46.37c10.671,0,19.32-8.65,19.32-19.32l0,0C113.279,168.373,104.629,159.724,93.958,159.724z"/>
</g>
<g>
	<path style="fill:#DDA758;" d="M68.702,424.337c3.504,3.491,8.321,5.655,13.667,5.655H47.59c-5.346,0-10.163-2.164-13.667-5.655
		c-3.491-3.504-5.655-8.321-5.655-13.667c0-10.666,8.643-19.322,19.322-19.322h34.779c-10.678,0-19.322,8.656-19.322,19.322
		C63.047,416.016,65.211,420.834,68.702,424.337z"/>
	<path style="fill:#DDA758;" d="M68.702,269.918c3.504,3.491,8.321,5.655,13.667,5.655H47.59c-5.346,0-10.163-2.164-13.667-5.655
		c-3.491-3.504-5.655-8.321-5.655-13.667c0-10.666,8.643-19.322,19.322-19.322h34.779c-10.678,0-19.322,8.656-19.322,19.322
		C63.047,261.597,65.211,266.414,68.702,269.918z"/>
	<path style="fill:#DDA758;" d="M68.702,115.499c3.504,3.491,8.321,5.655,13.667,5.655H47.59c-5.346,0-10.163-2.164-13.667-5.655
		c-3.491-3.504-5.655-8.321-5.655-13.667c0-10.666,8.643-19.322,19.322-19.322h34.779c-10.678,0-19.322,8.656-19.322,19.322
		C63.047,107.178,65.211,111.995,68.702,115.499z"/>
	<path style="fill:#DDA758;" d="M68.702,347.128c3.504,3.491,8.321,5.655,13.667,5.655H47.59c-5.346,0-10.163-2.164-13.667-5.655
		c-3.491-3.504-5.655-8.321-5.655-13.667c0-10.666,8.643-19.322,19.322-19.322h34.779c-10.678,0-19.322,8.656-19.322,19.322
		C63.047,338.806,65.211,343.624,68.702,347.128z"/>
	<path style="fill:#DDA758;" d="M68.702,192.708c3.504,3.491,8.321,5.655,13.667,5.655H47.59c-5.346,0-10.163-2.164-13.667-5.655
		c-3.491-3.504-5.655-8.321-5.655-13.667c0-10.666,8.643-19.322,19.322-19.322h34.779c-10.678,0-19.322,8.656-19.322,19.322
		C63.047,184.387,65.211,189.205,68.702,192.708z"/>
</g>
<path d="M483.983,387.09c5.337,0,9.661-4.326,9.661-9.661V48.433C493.644,21.728,471.917,0,445.209,0H185.927
	c-5.337,0-9.661,4.325-9.661,9.661s4.324,9.661,9.661,9.661h212.525c16.052,0,29.111,13.059,29.111,29.111v415.134
	c0,16.052-13.059,29.111-29.111,29.111H106.964c-16.052,0-29.111-13.059-29.111-29.111v-24.164h15.855
	c15.98,0,28.981-13.001,28.981-28.981c0-15.98-13.001-28.983-28.981-28.983H77.853v-19.246h15.855
	c15.98,0,28.981-13.001,28.981-28.983s-13.001-28.981-28.981-28.981H77.853v-19.247h15.855c15.98,0,28.981-13.001,28.981-28.983
	c0-15.982-13.001-28.981-28.981-28.981H77.853v-19.246h15.855c15.98,0,28.981-13.001,28.981-28.983s-13.001-28.981-28.981-28.981
	H77.853v-19.247h15.855c15.98,0,28.981-13.001,28.981-28.981s-13.001-28.983-28.981-28.983H77.853V48.433
	c0-16.051,13.059-29.111,29.111-29.111h46.76c5.337,0,9.661-4.325,9.661-9.661S159.061,0,153.724,0h-46.76
	C80.259,0,58.531,21.727,58.531,48.433v24.166H47.339c-15.98,0-28.981,13.001-28.981,28.983c0,15.98,13.001,28.981,28.981,28.981
	h11.192v19.247H47.339c-15.98,0-28.981,13.001-28.981,28.983c0,15.98,13.001,28.981,28.981,28.981h11.192v19.247H47.339
	c-15.98,0-28.981,13.001-28.981,28.981c0,15.98,13.001,28.983,28.981,28.983h11.192v19.247H47.339
	c-15.98,0-28.981,13.001-28.981,28.981c0,15.98,13.001,28.983,28.981,28.983h11.192v19.246H47.339
	c-15.98,0-28.981,13.001-28.981,28.983s13.001,28.981,28.981,28.981h11.192v24.164c0,26.706,21.727,48.433,48.433,48.433h338.246
	c26.706,0,48.434-21.727,48.434-48.433v-53.935c0-5.335-4.324-9.661-9.661-9.661s-9.661,4.326-9.661,9.661v53.935
	c0,16.052-13.06,29.111-29.113,29.111h-8.079c6.119-8.11,9.754-18.193,9.754-29.111V48.433c0-10.918-3.635-21.001-9.754-29.111
	h8.079c16.052,0,29.113,13.059,29.113,29.111v328.996C474.322,382.765,478.647,387.09,483.983,387.09z M37.679,101.581
	c0-5.326,4.333-9.661,9.66-9.661h46.37c5.326,0,9.66,4.333,9.66,9.661c0,5.326-4.333,9.66-9.66,9.66h-46.37
	C42.013,111.24,37.679,106.907,37.679,101.581z M37.679,178.79c0-5.326,4.333-9.66,9.66-9.66h46.37c5.326,0,9.66,4.333,9.66,9.661
	c0,5.326-4.333,9.66-9.66,9.66h-46.37C42.013,188.451,37.679,184.118,37.679,178.79z M37.679,256.001c0-5.326,4.333-9.66,9.66-9.66
	h46.37c5.326,0,9.66,4.333,9.66,9.66c0,5.326-4.333,9.661-9.66,9.661h-46.37C42.013,265.661,37.679,261.328,37.679,256.001z
	 M37.679,333.211c0-5.326,4.333-9.66,9.66-9.66h46.37c5.326,0,9.66,4.333,9.66,9.66c0,5.326-4.333,9.661-9.66,9.661h-46.37
	C42.013,342.872,37.679,338.537,37.679,333.211z M37.679,410.422c0-5.326,4.333-9.661,9.66-9.661h46.37
	c5.326,0,9.66,4.333,9.66,9.661c0,5.326-4.333,9.66-9.66,9.66h-46.37C42.013,420.081,37.679,415.747,37.679,410.422z"/>
<path d="M341.014,146.558H234.107c-5.337,0-9.661,4.326-9.661,9.661c0,5.335,4.324,9.661,9.661,9.661h106.907
	c5.337,0,9.661-4.326,9.661-9.661S346.35,146.558,341.014,146.558z"/>
<path d="M180.652,165.88h21.251c5.337,0,9.661-4.325,9.661-9.661s-4.324-9.661-9.661-9.661h-21.251
	c-5.337,0-9.661,4.325-9.661,9.661S175.316,165.88,180.652,165.88z"/>
<path d="M341.014,204.52h-33.485c-5.337,0-9.661,4.325-9.661,9.661s4.324,9.661,9.661,9.661h33.485c5.337,0,9.661-4.326,9.661-9.661
	S346.35,204.52,341.014,204.52z"/>
<path d="M180.652,223.842h94.674c5.337,0,9.661-4.326,9.661-9.661s-4.324-9.661-9.661-9.661h-94.674
	c-5.337,0-9.661,4.325-9.661,9.661S175.316,223.842,180.652,223.842z"/>
</svg>