<?xml version="1.0" encoding="iso-8859-1"?>
<!-- Uploaded to: SVG Repo, www.svgrepo.com, Generator: SVG Repo Mixer Tools -->
<svg version="1.1" id="Layer_1" xmlns="http://www.w3.org/2000/svg" xmlns:xlink="http://www.w3.org/1999/xlink" 
	 viewBox="0 0 512 512" xml:space="preserve">
<path style="fill:#B3B3B3;" d="M46.505,448.972V63.203l0,0c0-29.844,24.194-54.039,54.039-54.039h364.762v385.769"/>
<path style="fill:#808080;" d="M122.501,503.015h-21.96c-14.919,0-28.422-6.05-38.21-15.826
	c-9.776-9.788-15.826-23.304-15.826-38.222c0-29.837,24.199-54.036,54.036-54.036h324.241h40.521v108.084H199.938"/>
<rect x="77.191" y="394.926" style="fill:#CCCCCC;" width="347.593" height="70.77"/>
<path style="fill:#808080;" d="M422.847,308.307V93.639c-23.327,0-42.237-18.91-42.237-42.237h-193.44
	c0,23.327-18.91,42.237-42.237,42.237v214.668c23.327,0,42.237,18.91,42.237,42.237h193.44
	C380.609,327.217,399.519,308.307,422.847,308.307z"/>
<g>
	<polygon style="fill:#F7B239;" points="323.466,121.534 335.871,146.671 363.612,150.701 343.539,170.267 348.277,197.895 
		323.466,184.852 298.655,197.895 303.393,170.267 283.321,150.701 311.06,146.671 	"/>
	<path style="fill:#F7B239;" d="M321.063,237.677c-40.801,0-73.877-33.076-73.877-73.877c0-22.696,10.237-42.998,26.343-56.549
		c-46.906,5.296-83.36,45.097-83.36,93.419c0,51.928,42.096,94.025,94.025,94.025c48.322,0,88.123-36.454,93.419-83.36
		C364.06,227.439,343.758,237.677,321.063,237.677z"/>
</g>
<path d="M465.4,88.748c5.013,0,9.075-4.063,9.075-9.075V9.075c0-5.012-4.062-9.075-9.075-9.075H100.639
	C65.837,0,37.526,28.313,37.526,63.113V448.83c0,0.016-0.001,0.031-0.001,0.047c0,16.852,6.563,32.704,18.488,44.642
	C67.944,505.436,83.792,512,100.635,512h364.762c5.013,0,9.075-4.063,9.075-9.075l0.004-393.003c0-5.012-4.062-9.075-9.075-9.075
	s-9.075,4.063-9.075,9.075v275.844H109.714v-66.191c0-5.012-4.062-9.075-9.075-9.075s-9.075,4.063-9.075,9.075v66.852
	c-13.953,2.018-26.441,8.615-35.889,18.217V63.113c0-21.686,15.432-39.834,35.889-44.043v34.142c0,5.012,4.062,9.075,9.075,9.075
	s9.075-4.063,9.075-9.075V18.149h346.613v61.524C456.325,84.685,460.388,88.748,465.4,88.748z M100.603,403.917
	c0.012,0,0.024,0.002,0.036,0.002c0.018,0,0.035-0.002,0.052-0.002H415.8v17.144H273.838c-5.013,0-9.075,4.063-9.075,9.075
	c0,5.012,4.062,9.075,9.075,9.075H415.8v17.326H331.02c-5.013,0-9.075,4.063-9.075,9.075c0,5.012,4.062,9.075,9.075,9.075h93.855
	c5.013,0,9.075-4.063,9.075-9.075v-61.695h22.372v89.935H100.635c-12,0-23.293-4.678-31.789-13.164
	c-8.49-8.5-13.167-19.79-13.171-31.79c0-0.005,0.001-0.01,0.001-0.015v-0.052C55.7,424.071,75.841,403.934,100.603,403.917z"/>
<path d="M88.716,474.685h212.055c5.013,0,9.075-4.063,9.075-9.075c0-5.012-4.062-9.075-9.075-9.075H88.716
	c-5.013,0-9.075,4.063-9.075,9.075C79.642,470.622,83.705,474.685,88.716,474.685z"/>
<path d="M100.639,75.017c-5.013,0-9.075,4.063-9.075,9.075v202.677c0,5.012,4.062,9.075,9.075,9.075s9.075-4.063,9.075-9.075V84.091
	C109.714,79.08,105.651,75.017,100.639,75.017z"/>
<path d="M145.027,284.759c-5.013,0-9.075,4.063-9.075,9.075v14.384c0,5.012,4.062,9.075,9.075,9.075
	c18.286,0,33.162,14.876,33.162,33.162c0,5.012,4.062,9.075,9.075,9.075h193.44c5.013,0,9.075-4.063,9.075-9.075
	c0-18.286,14.876-33.162,33.162-33.162c5.013,0,9.075-4.063,9.075-9.075V93.549c0-5.012-4.062-9.075-9.075-9.075
	c-18.286,0-33.162-14.876-33.162-33.162c0-5.012-4.062-9.075-9.075-9.075h-193.44c-5.013,0-9.075,4.063-9.075,9.075
	c0,18.286-14.876,33.162-33.162,33.162c-5.013,0-9.075,4.063-9.075,9.075v170.036c0,5.012,4.062,9.075,9.075,9.075
	s9.075-4.063,9.075-9.075V101.82c21.034-3.769,37.664-20.401,41.433-41.433h176.897c3.769,21.032,20.4,37.664,41.433,41.433v198.127
	c-21.034,3.769-37.664,20.401-41.433,41.433H195.535c-3.769-21.032-20.4-37.664-41.433-41.433v-6.113
	C154.102,288.822,150.04,284.759,145.027,284.759z"/>
<path d="M100.816,439.21H218.18c5.013,0,9.075-4.063,9.075-9.075c0-5.012-4.062-9.075-9.075-9.075H100.816
	c-5.013,0-9.075,4.063-9.075,9.075C91.741,435.147,95.804,439.21,100.816,439.21z"/>
<path d="M372.336,147.808c-1.067-3.285-3.907-5.679-7.326-6.176l-23.018-3.344l-10.294-20.858c-1.529-3.097-4.684-5.059-8.138-5.059
	s-6.609,1.961-8.138,5.059l-10.294,20.858l-23.018,3.344c-3.418,0.497-6.259,2.891-7.326,6.176
	c-1.067,3.285-0.177,6.892,2.295,9.302l16.657,16.236l-3.931,22.926c-0.584,3.405,0.815,6.845,3.609,8.875
	c2.794,2.03,6.497,2.299,9.556,0.691l20.588-10.824l20.588,10.824c1.328,0.698,2.778,1.043,4.221,1.043
	c1.883,0,3.754-0.584,5.335-1.733c2.795-2.03,4.195-5.471,3.609-8.875l-3.931-22.926l16.657-16.236
	C372.513,154.699,373.403,151.093,372.336,147.808z M337.298,163.68c-2.139,2.085-3.114,5.088-2.609,8.032l1.63,9.505l-8.536-4.488
	c-1.322-0.695-2.772-1.043-4.223-1.043c-1.451,0-2.9,0.347-4.223,1.043l-8.536,4.488l1.63-9.505
	c0.506-2.944-0.471-5.948-2.609-8.032l-6.906-6.731l9.544-1.387c2.956-0.43,5.511-2.286,6.833-4.964l4.267-8.647l4.267,8.647
	c1.322,2.679,3.877,4.535,6.833,4.964l9.544,1.387L337.298,163.68z"/>
<path d="M272.605,98.145c-52.116,5.884-91.417,49.922-91.417,102.436c0,56.849,46.25,103.099,103.099,103.099
	c52.513,0,96.552-39.3,102.436-91.417c0.449-3.975-1.758-7.775-5.433-9.355c-3.671-1.579-7.949-0.567-10.527,2.494
	c-12.36,14.688-30.441,23.111-49.607,23.111c-35.732,0-64.803-29.07-64.803-64.802c0-19.166,8.424-37.246,23.112-49.605
	c3.06-2.576,4.074-6.852,2.495-10.527C280.38,99.903,276.591,97.693,272.605,98.145z M321.157,246.662
	c14.293,0,28.115-3.659,40.291-10.43c-13.53,29.347-43.193,49.299-77.161,49.299c-46.842,0-84.95-38.108-84.95-84.95
	c0-33.968,19.951-63.632,49.298-77.161c-6.771,12.176-10.43,25.997-10.43,40.29C238.205,209.45,275.417,246.662,321.157,246.662z"/>
</svg>