<?xml version="1.0" encoding="iso-8859-1"?>
<!-- Uploaded to: SVG Repo, www.svgrepo.com, Generator: SVG Repo Mixer Tools -->
<svg height="800px" width="800px" version="1.1" id="Layer_1" xmlns="http://www.w3.org/2000/svg" xmlns:xlink="http://www.w3.org/1999/xlink" 
	 viewBox="0 0 502.4 502.4" xml:space="preserve">
<path style="fill:#E0E0DF;" d="M401.6,417.067c0-28.8,5.333-53.333,12.8-60.8H91.2c-35.2,0-64,27.733-64,60.8s28.8,60.8,64,60.8
	h322.133C406.933,470.4,401.6,445.867,401.6,417.067z"/>
<path style="fill:#60C3AB;" d="M413.333,471.467H85.867c-27.733,0-52.267-20.267-54.4-48c-3.2-32,22.4-58.667,53.333-58.667h328.533
	c8.533,0,14.933-6.4,14.933-14.933s-6.4-14.933-14.933-14.933h-326.4c-46.933,0-87.467,38.4-86.4,85.333
	C1.6,466.133,38.933,502.4,84.8,502.4h328.533c8.533,0,14.933-6.4,14.933-14.933C429.333,477.867,421.867,471.467,413.333,471.467z"
	/>
<path style="fill:#E0E0DF;" d="M401.6,83.2c0-28.8,5.333-53.333,12.8-60.8H91.2c-35.2,0-64,27.733-64,60.8S56,144,91.2,144h322.133
	C406.933,136.533,401.6,112,401.6,83.2z"/>
<path style="fill:#F16D6E;" d="M413.333,136.533H85.867c-27.733,0-52.267-20.267-54.4-48c-3.2-32,22.4-58.667,53.333-58.667h328.533
	c8.533,0,14.933-6.4,14.933-14.933S421.867,0,413.333,0h-326.4C40,0-0.533,38.4,0.533,85.333C1.6,131.2,38.933,167.467,84.8,167.467
	h328.533c8.533,0,14.933-6.4,14.933-14.933S421.867,136.533,413.333,136.533z"/>
<path style="fill:#E0E0DF;" d="M100.8,250.667c0-28.8-5.333-53.333-12.8-60.8h323.2c35.2,0,64,27.733,64,60.8s-28.8,60.8-64,60.8H88
	C95.467,302.933,100.8,279.467,100.8,250.667z"/>
<path style="fill:#637888;" d="M89.067,304h327.467c27.733,0,52.267-20.267,54.4-48c3.2-32-22.4-58.667-53.333-58.667H89.067
	c-8.533,0-14.933-6.4-14.933-14.933s6.4-14.933,14.933-14.933h326.4c46.933,0,87.467,38.4,86.4,85.333
	c-1.067,45.867-38.4,82.133-84.267,82.133H89.067c-8.533,0-14.933-6.4-14.933-14.933C73.067,310.4,80.533,304,89.067,304z"/>
</svg>