<?xml version="1.0" encoding="utf-8"?><!-- Uploaded to: SVG Repo, www.svgrepo.com, Generator: SVG Repo Mixer Tools -->
<svg width="800px" height="800px" viewBox="0 0 512 512" xmlns="http://www.w3.org/2000/svg" xmlns:xlink="http://www.w3.org/1999/xlink" aria-hidden="true" role="img" class="iconify iconify--fxemoji" preserveAspectRatio="xMidYMid meet"><path fill="#2B3B47" d="M511.801 156.812c0-62.675-50.808-113.484-113.484-113.484S284.834 94.137 284.834 156.812c0 10.092 1.324 19.874 3.796 29.188h-34.464a113.637 113.637 0 0 0 3.796-29.188c0-62.675-50.808-113.484-113.484-113.484S30.995 94.137 30.995 156.812c0 45.331 26.582 84.448 65.005 102.63v53.056c-22-27.23-62.862-37.472-62.862-37.472C21.211 263.453 1 271.905 1 288.524v119.481c0 16.619 20.211 25.07 32.138 13.497c0 0 40.862-10.241 62.862-37.472v68.185c0 9.842 7.511 17.785 17.353 17.785h316.928c9.842 0 17.719-7.943 17.719-17.785v-193.35c37.774-18.424 63.801-57.197 63.801-102.053z"></path><path fill="#8F9799" d="M230.713 156.812c0 47.626-38.609 86.235-86.235 86.235s-86.235-38.609-86.235-86.235s38.609-86.235 86.235-86.235s86.235 38.609 86.235 86.235zm167.876-86.234c-47.626 0-86.235 38.609-86.235 86.235s38.609 86.235 86.235 86.235s86.235-38.609 86.235-86.235s-38.609-86.235-86.235-86.235z"></path><circle fill="#FF473E" cx="145.177" cy="422.029" r="16.302"></circle><path fill="#8F9799" d="M226.97 435.555h-27.906c-5.604 0-10.146-4.543-10.146-10.146v-6.759c0-5.604 4.543-10.146 10.146-10.146h27.906c5.604 0 10.146 4.543 10.146 10.146v6.759c.001 5.603-4.542 10.146-10.146 10.146z"></path><path fill="#ADB8BC" d="M341.148 363.283H202.486c-5.447 0-9.863-4.416-9.863-9.863v-77.767c0-5.447 4.416-9.863 9.863-9.863h138.662c5.447 0 9.863 4.416 9.863 9.863v77.767c0 5.447-4.416 9.863-9.863 9.863z"></path><path fill="#132028" d="M321.904 345.313H221.731a6.732 6.732 0 0 1-6.733-6.733v-49.862a6.732 6.732 0 0 1 6.733-6.733h100.173a6.732 6.732 0 0 1 6.733 6.733v49.862a6.734 6.734 0 0 1-6.733 6.733z"></path><path fill="#132028" d="M173.473 156.859c0 16.145-12.849 29.28-28.994 29.28S115.246 173 115.246 157H58.244C58.244 109 97 70.578 144 70.578v57.001c17 0 29.473 13.135 29.473 29.28zm216.475-13.865l-3.134-43.733c-.222-3.092-3.73-4.762-6.269-2.984L344.3 121.656c-2.517 1.762-2.182 5.588.603 6.886l39.378 18.354c2.759 1.286 5.884-.866 5.667-3.902zm-10.181 18.333l-42.809-9.476c-3.027-.67-5.628 2.216-4.649 5.157l13.981 41.98c.971 2.915 4.733 3.685 6.772 1.387l28.828-32.504c2.019-2.277.848-5.886-2.123-6.544zm80.452-9.476l-42.809 9.476c-2.972.658-4.143 4.267-2.123 6.544l28.828 32.504c2.039 2.298 5.801 1.528 6.772-1.387l13.981-41.98c.98-2.941-1.622-5.827-4.649-5.157zm-65.913 22.562l-22.517 37.584c-1.592 2.66.324 6.003 3.424 6.003h44.247c3.072 0 4.992-3.289 3.456-5.949l-21.729-37.603c-1.524-2.636-5.318-2.647-6.881-.035zm13.426-75.152l-3.134 43.733c-.218 3.036 2.907 5.188 5.666 3.902l39.378-18.354c2.785-1.298 3.12-5.124.603-6.886L414 96.277c-2.538-1.778-6.046-.108-6.268 2.984z"></path><ellipse transform="rotate(-45.001 135.663 147.78)" fill="#ADB8BC" cx="135.664" cy="147.778" rx="13.04" ry="9.495"></ellipse></svg>