<?xml version="1.0" encoding="utf-8"?>
<!-- Uploaded to: SVG Repo, www.svgrepo.com, Generator: SVG Repo Mixer Tools -->
<svg width="800px" height="800px" viewBox="0 0 1024 1024" class="icon"  version="1.1" xmlns="http://www.w3.org/2000/svg"><path d="M861.5 781.71875H161.28125c-38.53125 0-69.84375-31.21875-69.84375-69.84375V299.09375c0-31.59375 25.59375-57.09375 57.09375-57.09375l146.4375-0.375c4.78125 0 9.09375-2.71875 11.25-6.9375l46.59375-91.125c6.1875-12 18.46875-19.5 31.96875-19.5l255 0.09375c13.03125 0 24.9375 7.21875 30.9375 18.75l48.09375 91.96875c2.15625 4.125 6.46875 6.75 11.15625 6.84375l144.09375 0.375c31.59375 0 57.09375 25.59375 57.09375 57.09375v412.875c0.1875 38.34375-31.125 69.65625-69.65625 69.65625z" fill="#515151" /><path d="M518.375 703.25c-54.75 0-106.125-21.28125-144.84375-60s-60-90.09375-60-144.84375c0-54.75 21.28125-106.125 60-144.84375s90.09375-60 144.84375-60c54.75 0 106.125 21.28125 144.84375 60s60 90.09375 60 144.84375c0 54.75-21.28125 106.125-60 144.84375-38.625 38.71875-90.09375 60-144.84375 60z m0-392.15625c-103.3125 0-187.3125 84-187.3125 187.3125 0 103.3125 84 187.3125 187.3125 187.3125 103.3125 0 187.3125-84 187.3125-187.3125 0-103.3125-84-187.3125-187.3125-187.3125z" fill="#FFFFFF" /><path d="M752.09375 332m-20.4375 0a20.4375 20.4375 0 1 0 40.875 0 20.4375 20.4375 0 1 0-40.875 0Z" fill="#FFE000" /><path d="M254.1875 219.3125h-58.875c-9.5625 0-17.34375-7.78125-17.34375-17.34375s7.78125-17.34375 17.34375-17.34375H254.1875c9.5625 0 17.34375 7.78125 17.34375 17.34375s-7.78125 17.34375-17.34375 17.34375z" fill="#565656" /></svg>