<?xml version="1.0" encoding="UTF-8" standalone="no"?>
<!-- Uploaded to: SVG Repo, www.svgrepo.com, Generator: SVG Repo Mixer Tools -->

<svg
   version="1.1"
   id="_x35_"
   viewBox="0 0 512 512"
   xml:space="preserve"
   sodipodi:docname="card3.svg"
   inkscape:version="1.2.2 (b0a8486541, 2022-12-01)"
   xmlns:inkscape="http://www.inkscape.org/namespaces/inkscape"
   xmlns:sodipodi="http://sodipodi.sourceforge.net/DTD/sodipodi-0.dtd"
   xmlns="http://www.w3.org/2000/svg"
   xmlns:svg="http://www.w3.org/2000/svg"><defs
   id="defs177" /><sodipodi:namedview
   id="namedview175"
   pagecolor="#505050"
   bordercolor="#ffffff"
   borderopacity="1"
   inkscape:showpageshadow="0"
   inkscape:pageopacity="0"
   inkscape:pagecheckerboard="1"
   inkscape:deskcolor="#505050"
   showgrid="false"
   inkscape:zoom="0.4609375"
   inkscape:cx="55.322034"
   inkscape:cy="261.42373"
   inkscape:window-width="1370"
   inkscape:window-height="1031"
   inkscape:window-x="1638"
   inkscape:window-y="40"
   inkscape:window-maximized="0"
   inkscape:current-layer="_x35_" />
<g
   id="g172"
   transform="translate(0,93.6745)">
	<path
   style="fill:#85685f"
   d="M 512,16.274 V 308.3 c 0,9.016 -7.411,16.351 -16.351,16.351 H 16.046 C 7.335,324.498 0.153,317.393 0,308.605 V 16.274 C 0,7.335 7.335,0 16.275,0 H 495.65 C 504.589,0 512,7.335 512,16.274 Z"
   id="path2" />
	<g
   style="opacity:0.1"
   id="g26">
		<path
   style="fill:#ffffff"
   d="m 307.689,128.21 c 0,0 -1.299,0.916 -2.063,1.987 -0.306,0.458 -1.146,0.686 -1.986,0.763 h -0.077 c -1.375,0.153 -2.98,0 -3.82,-0.382 -1.528,-0.534 -2.063,-1.529 -2.98,-1.223 -0.229,0.077 -0.305,0.153 -0.458,0.229 -0.535,0.382 -0.764,0.84 -2.216,1.298 -1.91,0.459 -1.758,1.071 -1.834,2.446 -0.076,1.375 0.382,2.216 -0.152,3.133 -0.458,0.993 -3.668,0.611 -5.654,0.458 -0.535,-0.076 -1.07,0 -1.528,0.23 h -0.077 v 0.076 c -1.146,0.382 -2.14,1.298 -3.515,2.598 -1.91,1.91 -1.299,1.986 -3.82,1.604 -0.611,-0.153 -1.299,-0.076 -2.063,0.077 -1.987,0.229 -4.126,1.298 -6.036,2.368 -2.521,1.376 -0.84,1.987 -1.069,4.737 -0.229,2.675 -0.841,4.05 -2.369,5.195 -1.528,1.147 -2.751,1.3 -5.119,4.356 -0.229,0.229 -0.382,0.459 -0.535,0.688 -1.91,2.368 -2.216,2.597 -2.979,2.445 -0.917,-0.077 -0.306,-5.73 -0.306,-7.489 0,-1.681 0.917,-3.667 3.209,-5.577 l 0.077,-0.077 c 2.216,-1.757 3.744,-2.139 5.578,-4.507 1.757,-2.446 1.986,-3.897 1.299,-5.121 -0.688,-1.222 -2.598,2.216 -4.05,2.904 -1.528,0.611 -1.681,-0.382 -2.827,-1.376 l -0.077,-0.076 c -0.534,-0.382 -1.375,-0.229 -2.216,0.076 v 0.077 c -1.146,0.381 -2.369,1.146 -2.98,1.223 -0.993,0.076 -2.139,0.611 -3.896,1.681 -0.076,0 -0.229,0.077 -0.306,0.153 -1.834,1.145 -2.522,0.229 -4.584,-0.612 -1.987,-0.916 -4.126,-1.528 -7.182,-0.305 -1.146,0.458 -2.827,1.91 -4.432,3.591 -0.077,0.077 -0.229,0.153 -0.305,0.23 -2.598,2.751 -5.043,5.959 -4.814,6.953 0.458,1.681 2.292,1.375 4.737,2.826 2.445,1.452 0.535,1.452 -0.382,4.662 -0.917,3.208 -0.611,3.591 -1.223,6.341 -0.687,2.75 -4.814,5.043 -5.807,6.035 -0.993,0.994 -3.438,3.439 -5.96,3.057 -2.521,-0.459 -2.521,1.834 -4.432,5.119 -1.834,3.285 -0.458,2.369 -0.077,4.203 0.383,1.757 -1.604,6.113 -3.056,7.564 -1.375,1.451 -2.674,-1.223 -1.987,-4.126 0.611,-2.98 -0.84,-1.528 -2.445,-2.063 -1.681,-0.611 1.146,-1.757 0.84,-3.285 -0.229,-1.528 -2.139,-0.153 -2.827,0.153 -0.687,0.381 -1.528,0.992 -2.903,-0.459 -1.222,-1.222 -0.993,-1.757 -0.917,-1.834 -0.229,0.229 -1.757,1.757 -3.667,3.514 -2.14,1.987 0.382,0.841 2.751,1.452 2.368,0.534 1.375,0 3.438,0.993 2.063,1.069 -1.528,1.145 -2.98,1.681 -1.375,0.459 -1.299,1.298 0.305,2.446 1.528,1.145 2.522,2.979 3.209,7.335 0.764,4.355 -1.987,5.348 -4.508,8.557 -2.598,3.286 -7.335,4.737 -10.544,5.654 -3.285,0.917 -2.445,2.215 -5.196,1.757 -2.674,-0.535 -1.604,-1.07 -3.897,-0.305 -2.292,0.839 0,2.673 2.216,5.272 2.216,2.598 -0.611,8.558 -2.14,9.321 -1.528,0.688 -1.91,3.056 -3.897,2.75 -2.063,-0.305 -1.528,-1.91 -3.438,-2.903 -1.987,-1.069 -0.23,2.675 1.222,6.8 1.375,3.973 2.903,3.897 3.438,6.112 0,0.076 0.076,0.229 0.076,0.382 0.229,1.604 -1.452,1.299 -3.515,0 -0.23,-0.153 -0.382,-0.229 -0.611,-0.382 -1.222,-0.839 -2.445,-1.91 -3.591,-3.132 -3.285,-3.591 -3.056,-3.056 -4.126,-6.877 -1.069,-3.82 -0.993,-4.202 -2.369,-5.196 -1.375,-1.069 -1.069,-1.757 -0.764,-3.438 0.305,-1.757 -6.953,-9.933 -9.856,-10.238 -2.98,-0.306 -2.063,0.764 -3.515,2.445 -1.452,1.757 -4.737,3.362 -7.106,4.967 -2.369,1.682 -2.216,2.827 -2.216,7.412 0,4.507 -1.299,4.355 -5.73,5.654 -4.431,1.298 -2.292,-3.592 -3.667,-4.662 -1.375,-0.992 -2.98,-6.036 -3.744,-11.385 -0.84,-5.424 -1.452,-1.145 -5.425,-2.292 -3.896,-1.145 -2.216,-5.348 -4.814,-6.799 -2.598,-1.451 -3.591,-0.841 -6.036,0.306 -2.445,1.145 -5.043,-0.306 -6.647,-2.369 -1.528,-2.063 -3.591,-0.764 -6.418,-1.375 -2.827,-0.535 -1.91,-1.299 -4.431,-1.682 -2.521,-0.458 0.229,2.216 1.987,4.814 1.681,2.598 3.744,1.299 9.703,3.591 5.96,2.292 0.611,3.286 -1.757,5.654 -2.369,2.369 -4.355,2.675 -7.641,4.432 -3.285,1.834 -4.508,1.987 -7.946,3.361 -3.362,1.376 -4.126,0.382 -6.418,-0.534 -2.292,-0.917 -3.82,-5.273 -6.418,-10.85 -2.674,-5.654 -4.508,-9.321 -6.494,-11.767 -1.987,-2.445 -1.528,0.535 -0.917,2.293 0.688,1.681 2.139,3.973 3.667,8.405 1.605,4.355 1.299,2.826 2.14,5.959 0.917,3.057 5.349,9.78 8.022,11.232 2.674,1.528 9.092,-1.147 12.301,-1.224 3.285,-0.077 -0.229,1.605 -3.132,8.176 -2.216,4.967 -3.362,4.279 -5.578,5.119 -0.687,0.306 -1.528,0.765 -2.598,1.605 -4.279,3.515 -4.661,7.336 -5.272,11.766 -0.153,1.529 -0.076,2.904 0.076,4.279 0,0.153 0,0.306 0.076,0.382 0.076,0.764 0.153,1.604 0.305,2.369 0.076,0.458 0.153,0.992 0.153,1.528 0.076,0.458 0.152,0.992 0.152,1.528 0.076,0.688 0.153,1.528 0.076,2.293 0,0.077 0,0.229 -0.076,0.306 0,0.611 -0.152,1.145 -0.458,1.681 -0.229,0.764 -0.764,1.528 -1.299,2.216 -1.605,2.139 -3.897,3.972 -5.119,5.501 -0.306,0.382 -0.535,0.764 -0.688,1.069 -0.076,0.153 -0.152,0.306 -0.152,0.459 -0.153,0.382 -0.229,0.764 -0.306,1.07 -0.153,0.534 -0.229,0.993 -0.305,1.528 -0.306,1.299 -0.688,3.056 -1.987,6.494 -0.229,0.535 -0.382,0.994 -0.611,1.376 -0.306,0.611 -0.687,1.146 -0.993,1.529 -0.306,0.458 -0.687,0.763 -1.069,1.069 -1.146,0.841 -2.368,1.07 -3.668,1.528 -0.84,0.306 -1.757,0.765 -2.597,1.529 -2.903,2.674 -4.203,3.056 -7.182,4.202 -0.382,0.153 -0.841,0.382 -1.299,0.535 -4.049,1.681 -8.481,-0.917 -8.939,-3.285 -0.458,-2.369 0.764,-2.675 0.229,-6.572 -0.458,-3.897 -4.814,-11.69 -6.342,-15.511 -1.528,-3.82 -0.535,-4.583 1.987,-8.633 2.445,-4.126 -1.758,-8.559 -4.126,-13.295 -2.369,-4.738 -2.521,-2.14 -2.521,-5.501 0,-3.362 -0.229,-4.509 -2.903,-5.883 -2.598,-1.376 -4.202,-2.216 -8.711,-3.362 -4.508,-1.146 -4.432,1.376 -8.787,0.764 -4.431,-0.687 -4.202,0.688 -7.029,0.382 -1.299,-0.153 -2.903,-1.146 -4.432,-2.292 V 194.99 c 1.605,-1.223 4.279,-1.91 7.947,-3.209 5.501,-1.91 4.584,-0.229 9.398,-1.605 4.814,-1.375 10.697,-2.749 13.983,-2.521 3.362,0.229 2.827,2.674 2.827,4.584 0,1.834 0.84,1.529 5.043,2.598 4.279,1.069 1.987,2.445 5.119,3.056 3.209,0.688 2.139,-0.611 3.667,-3.132 1.452,-2.522 2.445,0 6.494,1.987 4.126,2.063 3.82,0.84 8.94,0.306 5.043,-0.612 5.501,0.152 6.647,-0.382 1.146,-0.459 1.299,-5.73 0.611,-8.1 -0.764,-2.368 -1.986,-0.534 -4.661,-0.534 -1.757,0 -2.369,-0.382 -2.292,-1.299 0,-0.534 0.153,-1.222 0.458,-2.14 0.076,-0.153 0.076,-0.305 0.153,-0.382 0.458,-1.299 0.84,-1.605 1.834,-1.987 0.535,-0.229 1.375,-0.458 2.521,-0.993 0.076,-0.076 0.229,-0.076 0.306,-0.076 v -0.077 c 1.07,-0.382 2.216,-0.611 3.362,-0.687 1.987,-0.229 3.897,-0.229 5.349,-1.07 0.305,-0.229 0.535,-0.382 0.611,-0.535 0.458,-0.839 -1.834,-1.604 -3.286,-2.598 -0.305,-0.152 -0.535,-0.305 -0.764,-0.534 -0.917,-0.993 -0.917,-1.91 -0.688,-2.98 0.153,-0.611 0.382,-1.299 0.611,-2.063 0.535,-2.063 -1.299,-0.611 -3.438,0.611 -2.139,1.223 0.382,1.681 -0.535,3.362 -0.458,0.84 -1.222,0.764 -1.91,0.305 -0.458,-0.229 -0.84,-0.686 -1.146,-1.222 -0.229,-0.229 -0.382,-0.459 -0.458,-0.688 -0.382,-0.839 -0.917,-0.839 -1.758,-0.305 -0.611,0.305 -1.375,0.917 -2.445,1.681 -1.758,1.223 -1.146,2.14 -0.993,3.668 0.076,0.458 0.076,0.916 0,1.451 0,0.306 -0.153,0.611 -0.229,0.917 -0.535,1.604 -1.452,1.757 -2.369,1.681 -0.917,0 -1.834,-0.153 -2.292,0.687 -0.993,1.681 -0.306,2.98 -2.14,3.286 -1.757,0.382 -1.069,1.376 -1.91,2.674 -0.764,1.299 -2.598,-0.993 -2.903,-3.514 -0.305,-2.522 -3.362,-5.272 -3.667,-6.572 -0.306,-1.298 -3.744,-2.826 -5.578,-3.438 -1.758,-0.535 -0.611,1.299 0.84,3.056 1.452,1.682 4.202,2.216 4.432,4.05 0.153,1.91 -1.223,0.917 -2.292,1.987 -1.07,1.07 -0.535,3.286 -2.14,3.972 -1.681,0.765 -1.452,-2.062 -1.07,-4.583 0.382,-2.446 -1.987,-2.904 -3.667,-4.509 -1.757,-1.681 -4.432,-3.208 -5.348,-3.973 -0.84,-0.687 -3.209,1.987 -5.807,1.91 -2.521,-0.076 -1.528,-0.534 -2.521,0.612 -0.993,1.145 -2.14,3.132 -3.82,3.438 -1.681,0.382 -2.521,1.604 -2.827,3.514 -0.382,1.987 -1.834,2.14 -4.355,3.209 -2.522,1.07 -5.96,-0.229 -8.099,-0.993 -2.14,-0.687 -1.758,-2.293 -1.146,-3.973 0.229,-0.534 0.305,-1.298 0.535,-2.14 0.382,-1.757 0.993,-3.897 3.132,-4.66 0.841,-0.306 1.452,-0.382 1.987,-0.382 0.076,-0.076 0.076,-0.076 0.076,-0.076 1.528,-0.076 2.292,0.459 4.05,0 2.369,-0.688 1.604,-1.834 1.528,-5.12 0,-0.152 0,-0.305 -0.076,-0.458 -0.306,-2.598 -3.438,-1.604 -3.896,-3.514 -0.382,-1.987 2.75,-0.688 8.176,-1.529 0.382,-0.076 0.764,-0.153 1.069,-0.306 2.063,-0.611 2.827,-1.91 3.285,-3.286 0.458,-1.375 0.611,-2.902 1.452,-3.591 1.91,-1.604 3.056,-2.14 3.744,-5.348 0.764,-3.208 3.285,-4.432 5.577,-3.514 0.458,0.229 0.764,0.458 0.917,0.764 0.535,1.07 -0.84,2.598 -0.688,4.049 0.153,1.91 2.445,1.529 3.897,1.91 1.375,0.306 7.412,-0.763 9.474,-2.292 1.605,-1.299 2.751,-2.445 4.126,-3.514 0.305,-0.229 0.611,-0.534 0.993,-0.764 1.91,-1.299 0.458,-2.14 0.917,-2.751 0.382,-0.687 1.91,-2.445 1.299,-4.355 -0.611,-1.605 -2.674,-0.84 -3.973,-1.834 -0.153,-0.153 -0.305,-0.381 -0.458,-0.611 -0.764,-1.299 -0.229,-2.751 0.458,-4.126 0.306,-0.612 0.611,-1.223 0.917,-1.834 0.229,-0.535 0.229,-0.841 0.076,-0.841 -0.153,-0.152 -0.535,0 -0.993,0.153 -0.687,0.306 -1.528,0.765 -2.216,1.071 -1.757,0.839 -2.827,2.597 -4.432,4.966 -0.611,0.917 -0.917,1.681 -0.993,2.445 -0.076,0.077 -0.076,0.077 -0.076,0.077 -0.229,1.222 0.076,2.368 0.153,3.82 0.153,2.368 -3.285,4.66 -4.89,4.355 -0.84,-0.229 -1.299,-0.993 -1.604,-1.91 -0.153,-0.764 -0.229,-1.681 -0.306,-2.368 -0.153,-1.452 -1.146,-2.369 -2.445,-1.91 -1.299,0.535 -3.897,1.681 -6.418,0.992 -2.522,-0.611 -1.757,-4.202 -0.535,-7.335 1.223,-3.132 1.91,-2.14 5.96,-4.203 4.126,-1.987 2.979,-2.826 6.265,-5.654 3.209,-2.903 3.897,-4.889 7.106,-7.258 3.132,-2.369 5.272,-3.209 13.218,-4.05 6.189,-0.687 4.967,0.153 5.73,1.604 0.076,0.306 0.306,0.612 0.687,0.918 0.076,0.153 0.229,0.306 0.382,0.382 1.91,1.376 3.362,1.835 5.196,2.216 0.993,0.229 2.139,0.382 3.514,0.764 3.973,0.993 3.591,2.293 4.05,3.209 0.535,0.917 -1.757,2.521 -3.82,2.598 h -0.917 v -0.076 c -1.452,-0.076 -2.292,-0.611 -3.209,-0.993 -1.146,-0.458 -0.382,1.07 0.382,1.987 0.611,0.687 1.528,0.917 2.98,0.917 0.382,0 0.917,-0.076 1.375,-0.153 2.292,-0.229 5.578,-1.834 6.571,-1.604 0.382,0.076 1.146,0 2.063,-0.229 1.604,-0.459 3.82,-1.069 5.425,-1.528 2.521,-0.765 2.521,-2.369 3.515,-3.056 0.764,-0.611 2.445,-0.764 6.112,-0.458 0.611,0.076 1.375,0.076 2.14,0.153 5.119,0.382 4.584,-0.535 7.87,-1.835 1.375,-0.535 2.369,-0.611 3.209,-0.458 1.223,0.153 2.216,0.687 3.668,0.687 2.521,0 6.189,-1.529 7.411,-3.209 0.076,-0.076 0.076,-0.153 0.153,-0.153 1.07,-1.528 1.605,-0.84 3.515,-1.987 2.063,-1.222 1.451,-1.069 6.876,-2.062 5.501,-0.993 6.953,1.376 9.322,0 2.368,-1.376 -1.146,-4.508 -0.459,-5.349 0.611,-0.916 5.883,-0.153 8.175,-1.145 2.293,-1.071 0.917,-2.446 1.987,-3.667 1.07,-1.299 5.272,-1.834 9.551,-2.216 4.355,-0.459 4.126,1.069 6.036,0.534 1.834,-0.458 1.299,-1.834 2.827,-2.139 1.528,-0.229 1.528,-1.071 2.445,-1.529 0.917,-0.458 4.049,-0.382 6.494,1.146 2.522,1.528 2.98,-0.229 5.577,0 2.598,0.229 1.452,2.521 1.452,3.591 0,1.07 -1.91,3.285 -3.514,3.973 -1.528,0.764 -0.153,1.757 2.139,1.604 2.292,-0.153 3.744,-0.993 6.495,-1.222 2.674,-0.153 3.667,0.382 6.189,1.528 2.521,1.145 4.661,1.145 6.265,0.764 1.681,-0.458 1.146,-1.91 2.063,-2.215 0.917,-0.382 5.502,1.528 7.947,2.521 2.445,0.993 -0.382,2.139 0,3.209 0.305,0.992 3.133,2.826 4.966,2.597 1.757,-0.229 1.07,-2.062 3.973,-1.91 2.98,0.153 3.82,0.153 6.953,-0.84 3.209,-0.918 2.98,-1.681 7.641,-1.376 4.661,0.382 4.585,0.764 6.189,0.993 1.605,0.229 2.292,-0.459 5.501,0.535 3.132,0.916 2.139,3.208 2.98,3.667 0.84,0.458 2.216,0.305 5.501,0.076 0.917,-0.076 1.452,-0.076 1.757,0 0.917,0.153 0.688,0.84 2.063,1.757 1.91,1.298 0.688,1.604 1.91,1.375 0.229,0 0.535,-0.076 0.84,-0.153 1.146,-0.229 2.598,-0.687 4.737,-0.84 2.827,-0.305 2.751,0.076 4.355,1.146 1.605,0.993 2.904,0.84 4.585,0.076 1.604,-0.84 0.458,-1.604 0.687,-1.604 0.306,0 3.285,0.611 7.488,1.145 1.223,0.153 2.14,0.382 2.98,0.612 1.91,0.535 3.133,1.222 5.807,2.216 0.84,0.305 1.528,0.611 1.987,0.992 1.681,1.071 1.528,2.216 2.827,3.209 1.757,1.299 1.757,0.229 3.362,-0.458 0.153,-0.076 0.229,-0.076 0.305,-0.076 1.453,-0.535 2.218,0.688 3.44,2.063 z"
   id="path4" />
		<path
   style="fill:#ffffff"
   d="m 235.992,172.685 c 1.068,0.393 3.104,2.042 4.329,1.961 1.225,-0.082 1.879,1.552 0.898,1.715 -0.98,0.163 -4.248,1.715 -4.248,1.715 0,0 -0.98,-1.225 -1.552,0 -0.572,1.225 -0.899,2.124 -0.735,2.859 0.163,0.735 1.307,2.859 0.654,3.921 -0.654,1.062 -1.552,1.634 -1.552,2.941 0,1.307 0.817,2.696 -0.327,3.268 -1.144,0.572 -2.287,0.735 -3.268,1.062 -0.98,0.327 -1.715,0.408 -2.124,1.307 -0.408,0.899 -1.389,2.206 -3.431,2.124 -2.042,-0.082 -2.042,-1.715 -3.921,-0.163 -1.879,1.552 -1.96,2.451 -2.941,2.042 -0.98,-0.408 -0.245,-0.98 0,-2.532 0.245,-1.552 -3.349,-1.144 -0.082,-2.941 3.268,-1.797 3.268,-2.042 5.473,-2.369 2.206,-0.327 3.431,0.735 4.33,-1.144 0.898,-1.879 0,-2.614 1.797,-2.696 1.797,-0.082 2.941,0.735 3.268,-1.307 0.327,-2.042 0.082,-3.758 0,-5.065 -0.082,-1.307 -0.572,-2.532 0.899,-3.022 1.471,-0.49 1.634,0.408 1.797,-0.735 0.164,-1.143 -0.816,-3.512 0.736,-2.941 z"
   id="path6" />
		<path
   style="fill:#ffffff"
   d="m 203.153,216.96 c 1.552,0.245 2.287,3.022 1.797,4.166 -0.49,1.144 -0.98,2.451 0.408,2.696 1.389,0.245 2.369,0.408 2.369,1.389 0,0.98 0.572,-1.062 1.634,1.552 1.062,2.614 0.082,3.023 1.307,4.983 1.225,1.961 2.696,2.941 0.98,3.921 -1.715,0.98 -0.408,2.042 -2.206,1.47 -1.797,-0.572 -1.062,-0.245 -1.96,-1.96 -0.899,-1.715 -1.47,-0.327 -2.287,-0.408 -0.817,-0.082 -1.062,-0.082 -0.408,-1.225 0.653,-1.144 0.98,-1.062 0.245,-2.369 -0.735,-1.307 0.408,-2.859 -0.654,-3.104 -1.062,-0.245 -1.389,1.552 -3.268,2.696 -1.879,1.144 -4.656,1.47 -4.574,1.062 0.082,-0.408 1.144,-0.98 2.859,-3.104 1.715,-2.124 2.777,-0.817 2.451,-4.084 -0.327,-3.268 -1.47,-2.369 -0.408,-4.656 1.062,-2.29 1.715,-3.025 1.715,-3.025 z"
   id="path8" />
		<path
   style="fill:#ffffff"
   d="m 197.925,235.503 c 1.236,1.236 2.859,0.899 2.369,2.124 -0.49,1.225 -1.946,1.389 -1.136,2.614 0.81,1.225 1.545,3.023 2.607,2.859 1.062,-0.163 0.98,-0.98 3.594,-0.98 2.614,0 4.248,-0.572 4.411,0.49 0.163,1.062 -1.144,1.144 -2.859,2.696 -1.715,1.552 -3.431,3.104 -2.042,4.084 1.389,0.98 1.96,2.777 1.47,3.431 -0.49,0.654 -0.98,1.307 0.163,2.124 1.144,0.817 6.617,0.572 5.31,2.532 -1.307,1.961 -4.493,3.022 -7.842,3.104 -3.349,0.082 -0.657,-0.899 -7.435,-1.552 -6.778,-0.654 -7.922,1.062 -12.66,-1.225 -4.738,-2.287 -7.842,-0.327 -10.456,-4.493 -2.614,-4.166 -1.552,-2.124 -4.82,-6.453 -3.267,-4.329 -1.715,-4.329 -4.493,-6.045 -2.777,-1.715 -5.146,-4.166 -3.268,-4.166 1.879,0 0.98,-2.206 6.78,2.614 5.8,4.82 4.248,4.574 8.496,7.434 4.248,2.859 5.636,3.186 7.189,2.859 1.552,-0.327 3.839,0 2.369,-1.879 -1.47,-1.879 -2.287,-4.248 -1.062,-4.656 1.225,-0.408 1.144,1.634 3.186,-0.572 2.042,-2.206 2.042,-2.777 3.839,-3.513 1.797,-0.735 0.817,0 2.532,-1.062 1.716,-1.062 2.369,-3.757 3.758,-2.369 z"
   id="path10" />
		<path
   style="fill:#ffffff"
   d="m 220.389,244.979 c 0.889,1.143 2.369,2.614 3.022,3.839 0.654,1.225 1.879,-1.038 4.248,-0.968 2.369,0.07 5.882,1.376 7.352,2.03 1.47,0.654 4.003,1.062 5.555,3.186 1.552,2.124 2.696,0.899 2.777,3.023 0.082,2.124 0.408,1.879 1.797,3.104 1.389,1.225 1.634,3.513 -0.817,2.532 -2.451,-0.98 -3.186,-4.329 -5.8,-4.003 -2.614,0.327 -1.552,1.062 -3.594,1.47 -2.042,0.408 -2.941,-0.327 -5.391,-0.49 -2.451,-0.163 -4.248,0.654 -3.104,-1.552 1.144,-2.206 1.961,-2.287 -2.042,-3.921 -4.003,-1.634 -5.555,-0.817 -5.555,-2.532 0,-1.715 0.654,-1.879 -0.899,-3.349 -1.552,-1.47 -2.042,-2.532 -1.062,-3.268 0.981,-0.735 2.941,0.164 3.513,0.899 z"
   id="path12" />
		<path
   style="fill:#ffffff"
   d="m 225.127,268.505 c 2.696,1.389 3.758,4.166 5.065,3.676 1.307,-0.49 0.817,-1.307 1.797,-4.248 0.98,-2.941 1.062,-5.963 2.287,-4.738 1.225,1.225 0.082,3.617 2.042,4.382 1.961,0.765 2.369,1.337 2.777,3.624 0.408,2.287 0.817,1.552 2.859,3.921 2.042,2.369 3.876,1.961 4.225,4.656 0.349,2.696 3.78,5.473 3.944,8.25 0.163,2.777 0.654,4.738 -1.389,8.251 -2.042,3.512 -2.859,5.31 -3.513,6.78 -0.654,1.47 -2.614,2.206 -4.738,2.206 -2.124,0 -3.349,-0.899 -4.656,-0.572 -1.307,0.327 -2.206,1.961 -3.758,0.817 -1.552,-1.144 -2.451,-2.614 -2.941,-3.513 -0.49,-0.899 -0.735,-3.921 -3.022,-3.594 -2.287,0.327 -1.96,1.47 -3.349,0 -1.389,-1.47 -0.409,-2.696 -4.493,-3.349 -4.084,-0.654 -5.146,-0.98 -6.862,-0.572 -1.715,0.409 -3.513,0.98 -5.391,2.451 -1.879,1.47 -4.82,0.735 -6.453,1.47 -1.634,0.735 -4.084,2.369 -5.882,1.389 -1.797,-0.98 -1.144,-1.47 -1.062,-3.758 0.082,-2.287 -0.082,-0.735 -1.225,-4.656 -1.144,-3.921 -0.654,-3.349 -1.715,-5.228 -1.062,-1.879 -1.879,-0.98 -0.408,-3.676 1.47,-2.696 0.98,-3.267 1.797,-4.166 0.817,-0.898 1.552,0.245 4.329,-1.634 2.777,-1.879 3.594,-1.062 6.127,-2.042 2.532,-0.98 3.104,-4.738 4.656,-5.882 1.552,-1.144 1.961,-2.042 3.104,-2.042 1.143,0 2.451,0.654 4.493,1.47 2.042,0.817 1.634,0.898 3.349,-0.98 1.715,-1.879 0,-3.676 3.104,-3.349 3.104,0.327 4.248,-0.163 4.656,1.634 0.41,1.797 0.246,3.022 0.246,3.022 z"
   id="path14" />
		<path
   style="fill:#ffffff"
   d="m 281.818,307.062 c 1.634,-2.124 2.451,-2.369 1.879,-4.819 -0.572,-2.451 -0.409,-4.373 1.715,-2.186 2.124,2.187 4.493,3.412 6.127,3.493 1.634,0.082 5.555,1.307 1.552,4.329 -4.003,3.023 -3.268,0.899 -6.453,5.391 -3.185,4.492 -0.735,4.574 -4.574,6.78 -3.839,2.206 -8.087,3.186 -7.27,1.225 0.817,-1.961 0.408,-1.961 3.921,-4.575 3.513,-2.614 5.8,-4.574 5.8,-6.78 0,-2.206 -2.697,-2.858 -2.697,-2.858 z"
   id="path16" />
		<path
   style="fill:#ffffff"
   d="m 86.748,285.006 c -1.47,-2.124 -1.47,-2.777 -1.634,-6.208 -0.163,-3.431 -1.307,-5.065 0,-7.025 1.307,-1.961 4.738,-5.228 6.045,-7.515 1.307,-2.287 1.634,-7.188 2.451,-2.777 0.817,4.411 3.431,7.025 -0.49,12.907 -3.921,5.88 -6.372,10.618 -6.372,10.618 z"
   id="path18" />
		<path
   style="fill:#ffffff"
   d="m 8.164,163.455 c -0.327,-0.654 1.144,-2.777 1.144,-2.777 0,0 1.797,-0.98 1.307,-4.575 -0.49,-3.594 -0.817,-1.47 -2.124,-4.901 -1.307,-3.431 -3.268,-2.777 -1.307,-5.065 1.96,-2.287 4.248,-5.718 4.738,-2.941 0.49,2.777 -0.653,4.575 0.49,5.882 1.144,1.307 3.431,1.577 4.738,3.729 1.307,2.152 6.535,2.969 2.614,5.746 -3.921,2.777 -5.718,0.98 -7.188,2.941 -1.47,1.961 -4.412,1.961 -4.412,1.961 z"
   id="path20" />
		<path
   style="fill:#ffffff"
   d="m 2.936,160.841 c 2.614,-1.47 3.569,-1.144 3.418,-3.758 -0.151,-2.614 1.646,-4.901 -1.131,-5.065 -2.777,-0.163 -3.594,1.47 -3.921,2.614 -0.327,1.144 -0.327,1.47 0.49,2.614 0.817,1.144 0.98,2.777 0.654,3.594 -0.326,0.817 0.49,0.001 0.49,0.001 z"
   id="path22" />
		<path
   style="fill:#ffffff"
   d="m 511.965,266.413 c -0.506,1.204 -0.786,2.612 -0.605,5.358 0.326,4.904 0.489,4.41 -0.489,6.865 -0.983,2.449 -4.573,2.775 -7.517,4.573 -2.938,1.798 -3.101,0.326 -5.062,5.23 -1.96,4.899 -0.82,2.287 -2.455,6.533 -1.629,4.247 0.657,2.124 -4.084,4.573 -4.736,2.449 -6.534,0.326 -7.023,1.798 -0.489,1.472 2.776,0.326 -0.651,3.432 -3.433,3.101 -4.905,3.921 -7.028,5.225 -2.123,1.309 -3.432,2.781 -2.938,5.556 0.489,2.775 2.938,2.612 0.163,5.231 -2.688,2.525 -3.846,0.169 -4.66,3.845 h -12.823 v -0.419 c 0,-3.921 -0.489,-0.977 1.472,-7.674 1.961,-6.702 -1.309,-4.416 0.326,-11.764 1.635,-7.354 1.309,-15.197 2.938,-20.59 1.635,-5.387 5.23,-3.916 1.635,-8.82 -3.596,-4.899 -4.247,-4.084 -7.348,-7.354 -3.107,-3.264 -1.146,-2.612 -2.944,-6.534 -1.798,-3.921 -2.938,-3.595 -4.41,-6.533 -1.472,-2.944 -2.286,-1.961 -0.82,-6.865 1.472,-4.899 -1.792,-4.736 1.472,-6.208 3.27,-1.466 2.781,-5.062 2.286,-6.371 -0.489,-1.303 2.455,-1.798 -2.124,-2.449 -4.573,-0.651 -5.882,0.814 -7.511,-1.96 -1.635,-2.775 -0.332,-3.27 -3.758,-4.899 -3.433,-1.635 -7.191,-1.635 -8.5,-2.944 -1.303,-1.309 -1.303,-1.309 -1.303,-1.309 0,0 2.449,-0.977 -3.107,-1.629 -5.55,-0.657 -9.64,0 -12.415,-3.921 -2.775,-3.921 -2.124,-1.635 -2.775,-5.23 -0.657,-3.596 -1.472,-3.596 -4.084,-5.882 -2.618,-2.287 -2.618,-3.596 -5.067,-4.573 -2.449,-0.983 -2.938,-0.651 -2.938,-0.163 0,0.488 -0.163,2.449 2.124,4.247 2.287,1.798 2.449,3.433 2.449,4.247 0,0.814 -3.107,1.798 -3.107,1.798 0,0 0,-0.983 -0.978,-3.27 -0.983,-2.286 -1.309,-3.427 -3.27,-6.208 -1.961,-2.775 -2.449,-3.101 -2.449,-3.101 0,0 -2.286,-3.595 -6.208,-8.331 -3.921,-4.742 -5.067,-1.798 -5.067,-7.191 0,-5.393 0.983,-5.393 0,-9.152 -0.978,-3.753 -3.264,-5.55 -1.303,-6.208 1.961,-0.651 3.101,-1.629 -0.489,-4.736 -3.595,-3.107 -4.904,-1.472 -6.213,-5.719 -1.303,-4.247 1.472,-3.921 -3.916,-5.882 -5.393,-1.961 -6.045,-3.596 -8.5,-4.736 -2.449,-1.146 -3.921,-1.798 -3.921,-1.798 0,0 0.494,-0.489 -5.387,-0.983 -5.882,-0.489 -5.23,-3.264 -9.64,-1.466 -4.137,1.687 -4.969,2.077 -5.062,2.118 0.128,-0.157 2.327,-2.926 -1.803,-2.612 -4.247,0.331 -3.264,1.309 -3.427,3.27 -0.163,1.961 0.489,4.247 -2.449,5.393 -2.944,1.14 -7.191,4.247 -5.556,0.977 1.635,-3.264 5.719,-5.55 4.247,-6.371 -1.472,-0.814 -4.573,1.798 -4.905,-0.814 -0.326,-2.618 0.332,-3.921 -3.101,-4.084 -3.432,-0.163 -6.208,-1.635 -3.595,-2.781 2.612,-1.14 5.067,-0.652 5.882,-3.427 0.814,-2.781 6.859,-3.432 0.163,-3.27 -6.696,0.163 -9.64,0.163 -8.82,-1.146 0.815,-1.303 0.489,-3.753 5.225,-3.101 4.742,0.652 4.742,-1.309 3.595,-2.612 -2.548,-2.915 -6.696,-3.107 -3.432,-4.904 3.27,-1.798 5.23,-2.938 8.337,-3.596 3.101,-0.651 6.37,0.658 11.432,1.961 5.067,1.309 13.236,0.163 16.994,1.309 3.758,1.146 5.55,3.432 6.697,3.27 1.146,-0.169 4.41,-3.596 7.68,-3.596 3.264,0 4.899,-0.489 11.601,0.326 6.697,0.814 13.23,1.146 13.393,2.775 0.163,1.635 0.163,2.455 2.618,2.455 2.449,0 4.573,-1.472 6.045,0.815 1.466,2.286 3.753,3.921 3.427,2.123 -0.326,-1.798 -1.961,-3.27 -0.652,-3.921 1.309,-0.652 5.067,-0.977 6.045,-0.652 0.983,0.326 4.084,0.815 5.067,0.652 0.978,-0.163 0.326,-1.798 3.59,-0.815 3.27,0.978 3.758,3.427 4.416,3.59 0.652,0.169 2.124,-2.507 2.286,-4.276 0.163,-1.769 1.629,-1.769 -1.309,-4.055 -2.938,-2.286 -0.285,-5.062 1.821,-4.084 2.1,0.983 0.792,2.287 2.915,4.41 2.124,2.129 2.455,3.921 3.921,3.27 1.472,-0.652 0.657,-3.433 2.618,-1.309 1.961,2.124 2.449,1.059 4.247,0.692 1.798,-0.361 0.326,-1.507 2.45,-0.361 2.124,1.14 5.719,2.449 3.101,4.573 -2.612,2.124 -6.533,1.798 -9.309,3.433 -2.781,1.629 -1.96,1.14 -2.781,3.101 -0.814,1.961 -0.489,2.124 -3.752,2.944 -3.27,0.814 -4.253,0.163 -4.084,2.938 0.163,2.775 -0.169,3.107 -1.309,4.573 -1.146,1.472 -0.489,2.781 0.815,3.433 1.309,0.652 2.781,-0.489 2.781,1.472 0,1.961 2.449,3.427 5.719,3.427 3.264,0 4.736,0.82 6.697,3.27 1.96,2.449 -0.82,2.612 2.449,5.719 3.27,3.101 6.37,4.573 6.865,1.798 0.489,-2.781 0,-3.433 0.489,-6.696 0.489,-3.27 3.596,-3.596 1.961,-6.54 -1.635,-2.938 -4.084,-4.247 -1.798,-5.882 2.286,-1.629 -0.489,-3.142 3.433,-3.939 3.921,-0.797 6.534,-1.449 8.168,1.489 1.629,2.944 -0.163,4.904 1.466,6.208 1.635,1.309 6.702,-0.652 7.68,-1.798 0.983,-1.14 3.759,-0.978 4.742,3.27 0.977,4.247 1.629,5.393 3.101,5.882 1.472,0.489 1.472,1.472 3.27,3.101 1.798,1.635 5.225,4.253 0,4.742 -5.23,0.489 -9.477,-0.163 -11.438,1.635 -1.96,1.792 -2.124,0.489 -0.814,2.938 1.303,2.449 0.326,0.814 1.303,3.921 0.983,3.107 5.882,3.107 2.286,5.23 -3.59,2.124 -2.938,2.612 -5.062,1.961 -2.124,-0.657 -2.612,-5.347 -5.067,-1.53 -2.449,3.816 -2.124,5.283 -4.247,6.429 -2.124,1.146 -2.286,-1.146 -4.247,2.449 -1.961,3.596 1.146,3.921 -3.264,8.005 -4.416,4.085 -6.54,2.124 -6.865,5.556 -0.326,3.433 1.798,7.517 0.652,8.331 -1.14,0.82 -0.978,0.652 -2.287,-1.635 -1.303,-2.286 -0.651,-3.59 -5.224,-3.921 -4.579,-0.326 -4.247,-1.466 -6.045,0.495 -1.798,1.96 0.651,2.612 -4.416,1.96 -5.061,-0.657 -5.713,-6.702 -6.696,0.326 -0.977,7.022 -1.14,7.842 0.489,9.803 1.635,1.961 6.045,6.697 8.006,4.573 1.96,-2.124 -0.489,-4.736 3.269,-3.921 3.758,0.814 4.736,-0.163 4.084,1.961 -0.651,2.123 -5.719,2.449 -1.635,4.41 4.085,1.96 7.517,-0.326 7.843,2.775 0.326,3.107 -0.489,3.921 -0.326,5.719 0.163,1.798 0.977,3.107 4.736,3.107 3.759,0 3.596,-1.472 4.579,0.489 0.978,1.961 4.084,0.983 5.388,-1.798 1.309,-2.775 2.286,-5.882 4.247,-2.612 1.961,3.27 2.292,3.921 4.247,2.612 1.961,-1.303 1.961,-1.303 1.961,-1.303 0,0 2.129,-1.961 3.921,-0.332 1.798,1.635 4.742,-0.163 5.393,2.124 0.651,2.292 -0.326,2.618 2.449,3.433 2.781,0.82 6.045,-0.489 7.679,1.798 1.635,2.287 -2.775,0.815 1.961,3.596 4.736,2.775 6.208,3.101 5.882,4.899 -0.326,1.798 0.983,2.123 5.23,3.107 4.247,0.977 3.59,0.489 7.022,3.101 0.972,0.739 1.885,1.181 2.729,1.46 v 15.073 z"
   id="path24" />
	</g>
	<g
   id="g52">
		<path
   style="fill:#cececf"
   d="m 73.809,127.675 v -0.076 c -0.076,-1.298 -0.382,-2.521 -0.84,-3.591 -0.458,-1.146 -1.07,-2.063 -1.987,-2.903 -0.076,-0.229 -0.382,-0.458 -0.611,-0.687 -1.07,-0.994 -2.292,-1.757 -3.744,-2.293 -0.229,-0.076 -0.458,-0.153 -0.688,-0.153 -0.382,-0.229 -0.84,-0.306 -1.222,-0.382 -0.84,-0.152 -1.757,-0.229 -2.598,-0.229 -1.604,0 -3.132,0.229 -4.584,0.764 -1.452,0.535 -2.674,1.298 -3.744,2.293 -1.146,0.916 -1.987,2.14 -2.674,3.591 -0.611,1.451 -0.917,3.132 -0.917,4.966 v 16.505 c 0,1.681 0.229,3.208 0.764,4.431 0,0.152 0.076,0.305 0.153,0.458 0.688,1.452 1.528,2.675 2.674,3.667 1.07,0.994 2.292,1.757 3.744,2.293 1.452,0.459 2.98,0.764 4.584,0.764 1.528,0 3.057,-0.305 4.508,-0.764 1.452,-0.535 2.674,-1.298 3.744,-2.293 1.146,-0.992 1.987,-2.215 2.598,-3.667 0.611,-1.375 0.993,-3.056 0.993,-4.889 v -16.505 c 0,-0.46 0,-0.841 -0.153,-1.3 z m -7.029,17.727 c 0,1.604 -0.382,2.903 -1.223,3.82 -0.917,0.992 -2.063,1.451 -3.438,1.451 -1.452,0 -2.597,-0.459 -3.514,-1.451 -0.841,-0.918 -1.299,-2.216 -1.299,-3.82 v -16.276 c 0,-1.528 0.382,-2.75 1.146,-3.667 0,-0.076 0.076,-0.153 0.153,-0.229 0.153,-0.152 0.229,-0.229 0.382,-0.305 0.076,-0.153 0.229,-0.229 0.382,-0.306 0.764,-0.611 1.681,-0.84 2.75,-0.84 1.375,0 2.522,0.459 3.438,1.451 0.84,0.918 1.223,2.216 1.223,3.897 v 16.275 z"
   id="path28" />
		<path
   style="fill:#cececf"
   d="m 91.917,117.665 -7.946,6.953 v 7.641 l 7.946,-6.877 v 31.327 h 7.106 v -39.044 h -7.106 z"
   id="path30" />
		<path
   style="fill:#cececf"
   d="m 112.241,117.665 v 12.608 h 6.8 v -6.189 h 10.315 l -12.684,32.626 h 7.717 l 12.683,-32.626 v -6.419 z"
   id="path32" />
		<path
   style="fill:#cececf"
   d="m 166.414,124.008 c -0.611,-1.451 -1.452,-2.675 -2.598,-3.591 -1.069,-0.994 -2.292,-1.757 -3.744,-2.293 -1.452,-0.535 -2.98,-0.764 -4.508,-0.764 -1.605,0 -3.133,0.229 -4.585,0.764 -1.452,0.535 -2.674,1.298 -3.744,2.293 -1.146,0.916 -1.987,2.14 -2.598,3.591 -0.688,1.451 -0.993,3.132 -0.993,4.966 v 16.505 c 0,1.834 0.305,3.514 0.993,4.889 0.611,1.452 1.452,2.675 2.598,3.667 1.07,0.994 2.292,1.757 3.744,2.293 1.452,0.459 2.98,0.764 4.585,0.764 1.528,0 3.056,-0.305 4.508,-0.764 1.452,-0.535 2.674,-1.298 3.744,-2.293 1.146,-0.992 1.987,-2.215 2.598,-3.667 0.688,-1.375 0.993,-3.056 0.993,-4.889 v -16.505 c 0,-1.834 -0.306,-3.515 -0.993,-4.966 z m -6.189,21.394 c 0,1.604 -0.382,2.903 -1.223,3.82 -0.917,0.992 -2.063,1.451 -3.438,1.451 -1.452,0 -2.598,-0.459 -3.438,-1.451 -0.917,-0.918 -1.375,-2.216 -1.375,-3.82 v -16.276 c 0,-1.681 0.459,-2.979 1.375,-3.897 0.84,-0.992 1.987,-1.451 3.438,-1.451 1.375,0 2.521,0.459 3.438,1.451 0.841,0.918 1.223,2.216 1.223,3.897 z"
   id="path34" />
		<path
   style="fill:#cececf"
   d="m 226.24,140.053 c -0.611,-1.452 -1.375,-2.674 -2.369,-3.667 -0.917,-0.993 -2.063,-1.757 -3.285,-2.292 -1.223,-0.535 -2.445,-0.765 -3.82,-0.765 -0.459,0 -0.917,0 -1.452,0.076 -0.458,0.077 -0.917,0.23 -1.452,0.382 l 8.175,-16.122 h -7.793 l -8.252,16.886 c -0.84,1.834 -1.605,3.591 -2.292,5.273 -0.688,1.681 -0.993,3.361 -0.993,5.195 0,1.91 0.305,3.667 0.917,5.119 0.611,1.529 1.528,2.751 2.598,3.82 1.069,0.994 2.369,1.757 3.896,2.293 1.452,0.535 3.056,0.84 4.738,0.84 1.757,0 3.361,-0.305 4.813,-0.84 1.528,-0.535 2.751,-1.375 3.897,-2.369 1.07,-1.069 1.91,-2.368 2.522,-3.82 0.688,-1.528 0.993,-3.208 0.993,-5.195 -10e-4,-1.758 -0.306,-3.362 -0.841,-4.814 z m -7.717,9.093 c -0.993,0.992 -2.216,1.528 -3.667,1.528 -1.452,0 -2.674,-0.535 -3.591,-1.528 -0.917,-0.994 -1.452,-2.369 -1.452,-4.203 0,-1.834 0.535,-3.208 1.452,-4.203 0.917,-0.992 2.14,-1.528 3.591,-1.528 1.528,0 2.751,0.535 3.667,1.604 0.917,0.993 1.375,2.369 1.375,4.126 0,1.835 -0.458,3.209 -1.375,4.204 z"
   id="path36" />
		<path
   style="fill:#cececf"
   d="m 258.025,140.129 v -0.077 c -0.077,-0.611 -0.153,-1.299 -0.306,-1.91 -0.382,-1.757 -1.375,-3.439 -2.904,-4.967 -0.84,-0.84 -1.834,-1.451 -3.056,-1.91 -1.146,-0.534 -2.598,-0.764 -4.279,-0.764 -1.299,0 -2.445,0.229 -3.514,0.611 -1.07,0.382 -1.834,0.841 -2.292,1.376 v -8.405 h 15.74 v -6.419 H 235.18 v 22.083 h 6.494 c 0.306,-0.765 0.764,-1.529 1.452,-2.14 0.764,-0.688 1.834,-1.07 3.285,-1.07 1.758,0 2.98,0.611 3.668,1.834 0.687,1.146 0.993,2.598 1.07,4.661 v 0.535 c 0,1.222 -0.076,2.368 -0.229,3.361 -0.229,0.993 -0.611,1.834 -1.299,2.446 -0.841,0.839 -1.91,1.298 -3.362,1.298 -1.528,0 -2.598,-0.459 -3.362,-1.298 -0.764,-0.841 -1.223,-1.987 -1.452,-3.515 h -7.106 v 0.23 c 0.152,1.299 0.382,2.674 0.764,3.972 0.382,1.376 1.223,2.675 2.445,3.897 0.84,0.841 1.987,1.529 3.438,2.216 1.452,0.612 3.209,0.917 5.272,0.917 2.063,0 3.744,-0.305 5.196,-0.917 1.375,-0.687 2.522,-1.375 3.438,-2.292 1.375,-1.451 2.292,-2.979 2.75,-4.583 0.458,-1.605 0.687,-3.515 0.687,-5.73 10e-4,-1.148 -0.075,-2.294 -0.304,-3.44 z"
   id="path38" />
		<path
   style="fill:#cececf"
   d="m 265.131,117.665 v 12.608 h 6.8 v -6.189 h 10.315 l -6.8,17.421 -5.884,15.205 h 7.717 l 7.564,-19.484 v -0.076 h 0.077 l 5.043,-13.065 v -6.419 h -24.832 z"
   id="path40" />
		<path
   style="fill:#cececf"
   d="m 320.373,126.377 c -0.153,-0.765 -0.306,-1.452 -0.611,-2.14 -0.611,-1.452 -1.528,-2.751 -2.598,-3.744 -1.069,-0.994 -2.369,-1.834 -3.897,-2.369 -1.452,-0.459 -3.056,-0.764 -4.737,-0.764 -1.757,0 -3.362,0.305 -4.814,0.84 -1.528,0.535 -2.75,1.298 -3.896,2.369 -0.841,0.839 -1.528,1.757 -2.063,2.902 -0.229,0.306 -0.382,0.612 -0.535,0.918 -0.611,1.528 -0.917,3.285 -0.917,5.119 v 0.076 c 0,1.834 0.306,3.438 0.917,4.814 0.535,1.452 1.299,2.674 2.292,3.667 0.917,0.993 2.063,1.682 3.285,2.216 1.223,0.534 2.521,0.84 3.82,0.84 0.458,0 0.993,-0.077 1.452,-0.153 0.535,-0.077 0.993,-0.153 1.452,-0.382 l -8.099,16.123 h 7.717 l 8.329,-16.885 c 0,-0.076 0.076,-0.153 0.076,-0.229 0.535,-1.146 1.07,-2.216 1.528,-3.286 0.229,-0.611 0.382,-1.146 0.611,-1.681 0.535,-1.376 0.84,-2.751 0.917,-4.203 0.076,-0.305 0.076,-0.687 0.076,-0.993 0,-1.069 -0.076,-2.063 -0.305,-3.055 z m -8.252,7.334 c -0.993,0.992 -2.14,1.451 -3.591,1.451 -1.604,0 -2.827,-0.459 -3.744,-1.528 -0.611,-0.688 -0.993,-1.604 -1.146,-2.675 h -0.077 c 0,-0.458 -0.077,-0.916 -0.077,-1.451 0,-1.375 0.229,-2.446 0.764,-3.361 0.153,-0.382 0.382,-0.612 0.611,-0.918 0.993,-0.992 2.14,-1.451 3.667,-1.451 1.452,0 2.598,0.459 3.591,1.451 0.84,0.918 1.375,2.216 1.452,3.897 v 0.841 c -0.075,1.681 -0.61,2.827 -1.45,3.744 z"
   id="path42" />
		<path
   style="fill:#cececf"
   d="m 366.446,117.665 -4.508,3.897 h -0.077 l -3.362,3.056 v 7.641 l 7.946,-6.877 v 31.327 h 7.182 v -39.044 h -7.181 z"
   id="path44" />
		<path
   style="fill:#cececf"
   d="m 386.77,117.665 v 12.608 h 6.8 v -6.189 h 10.315 l -0.153,0.306 -12.531,32.32 h 7.717 l 12.684,-32.626 v -6.419 z"
   id="path46" />
		<path
   style="fill:#cececf"
   d="m 428.794,117.665 -0.764,0.688 -5.043,4.355 -2.14,1.91 v 7.641 l 7.947,-6.877 v 31.327 h 7.106 v -39.044 h -7.106 z"
   id="path48" />
		<path
   style="fill:#cececf"
   d="m 472.498,124.237 c -0.611,-1.452 -1.452,-2.751 -2.522,-3.744 -1.146,-0.994 -2.445,-1.834 -3.897,-2.369 -1.452,-0.459 -3.056,-0.764 -4.813,-0.764 -1.681,0 -3.286,0.305 -4.814,0.84 -1.452,0.535 -2.751,1.298 -3.82,2.369 -1.146,1.069 -1.987,2.292 -2.598,3.82 -0.611,1.528 -0.917,3.285 -0.917,5.119 0,1.834 0.306,3.514 0.84,4.89 0.611,1.452 1.375,2.674 2.368,3.667 0.382,0.382 0.764,0.764 1.146,0.993 0.611,0.535 1.375,0.917 2.139,1.223 1.223,0.534 2.521,0.84 3.82,0.84 0.458,0 0.917,-0.077 1.452,-0.153 0.458,-0.077 0.993,-0.153 1.452,-0.382 l -8.099,16.123 h 7.717 l 5.501,-11.231 2.751,-5.654 c 0.917,-1.758 1.681,-3.515 2.292,-5.196 0.611,-1.682 0.993,-3.439 0.993,-5.196 0.002,-1.91 -0.303,-3.667 -0.991,-5.195 z m -14.823,0.992 c 0.917,-0.992 2.14,-1.451 3.591,-1.451 1.451,0 2.674,0.459 3.667,1.451 0.917,0.994 1.375,2.446 1.375,4.279 0,1.834 -0.458,3.209 -1.375,4.203 -0.993,0.992 -2.216,1.451 -3.667,1.451 -1.528,0 -2.751,-0.459 -3.668,-1.528 -0.917,-0.993 -1.375,-2.369 -1.375,-4.126 0,-1.833 0.459,-3.284 1.452,-4.279 z"
   id="path50" />
	</g>
	<g
   id="g70">
		<path
   style="fill:#cececf"
   d="m 334.737,279.876 c -0.458,-0.992 -0.993,-1.757 -1.757,-2.445 -0.764,-0.687 -1.604,-1.223 -2.598,-1.528 -0.993,-0.382 -1.987,-0.534 -3.056,-0.534 -1.146,0 -2.14,0.152 -3.132,0.534 -0.993,0.305 -1.834,0.84 -2.598,1.528 -0.764,0.687 -1.375,1.452 -1.834,2.445 -0.382,0.994 -0.611,2.14 -0.611,3.439 v 11.232 c 0,1.298 0.229,2.445 0.611,3.438 0.458,0.992 1.07,1.834 1.834,2.445 0.764,0.687 1.605,1.223 2.598,1.605 0.993,0.305 1.986,0.458 3.132,0.458 1.07,0 2.063,-0.153 3.056,-0.458 0.993,-0.382 1.834,-0.918 2.598,-1.605 0.764,-0.611 1.299,-1.452 1.757,-2.445 0.459,-0.993 0.688,-2.14 0.688,-3.438 v -11.232 c 0,-1.299 -0.229,-2.445 -0.688,-3.439 z m -4.202,14.671 c 0,1.069 -0.305,1.986 -0.917,2.597 -0.535,0.688 -1.375,0.994 -2.292,0.994 -0.993,0 -1.834,-0.306 -2.369,-0.994 -0.611,-0.611 -0.917,-1.528 -0.917,-2.597 v -11.156 c 0,-1.146 0.306,-2.063 0.917,-2.674 0.535,-0.688 1.375,-0.993 2.369,-0.993 0.917,0 1.757,0.305 2.292,0.993 0.611,0.611 0.917,1.528 0.917,2.674 z"
   id="path54" />
		<path
   style="fill:#cececf"
   d="m 356.513,289.58 c -0.23,-1.222 -0.917,-2.368 -1.987,-3.438 -0.535,-0.535 -1.222,-0.993 -2.063,-1.298 -0.84,-0.306 -1.757,-0.459 -2.904,-0.459 -0.917,0 -1.681,0.076 -2.445,0.382 -0.688,0.305 -1.223,0.611 -1.605,0.916 v -5.73 h 10.85 v -4.355 h -15.281 v 15.053 h 4.508 c 0.152,-0.535 0.458,-0.994 0.993,-1.452 0.458,-0.458 1.222,-0.687 2.216,-0.687 1.222,0 2.063,0.382 2.522,1.222 0.535,0.841 0.764,1.987 0.764,3.591 0,0.841 -0.077,1.605 -0.229,2.293 -0.153,0.688 -0.382,1.223 -0.841,1.681 -0.535,0.535 -1.375,0.841 -2.292,0.841 -1.07,0 -1.834,-0.306 -2.369,-0.841 -0.458,-0.611 -0.84,-1.451 -0.917,-2.445 h -4.89 c 0.077,0.917 0.229,1.91 0.535,2.827 0.229,0.993 0.84,1.91 1.605,2.674 0.611,0.611 1.375,1.07 2.369,1.529 1.07,0.458 2.216,0.611 3.667,0.611 1.375,0 2.522,-0.153 3.515,-0.611 0.993,-0.459 1.757,-0.918 2.369,-1.529 0.993,-0.993 1.605,-2.062 1.91,-3.133 0.305,-1.145 0.458,-2.445 0.458,-3.897 0,-1.3 -0.153,-2.522 -0.458,-3.745 z"
   id="path56" />
		<path
   style="fill:#cececf"
   d="m 370.419,272.771 -10.697,32.32 h 4.585 l 10.697,-32.32 z"
   id="path58" />
		<path
   style="fill:#cececf"
   d="m 385.089,275.598 -5.425,4.737 v 5.196 l 5.425,-4.737 v 21.47 h 4.89 v -26.666 z"
   id="path60" />
		<path
   style="fill:#cececf"
   d="m 406.406,275.598 -5.425,4.737 v 5.196 l 5.425,-4.737 v 21.47 h 4.89 v -26.666 z"
   id="path62" />
		<path
   style="fill:#cececf"
   d="m 420.694,289.275 v 4.584 h 11.538 v -4.584 z"
   id="path64" />
		<path
   style="fill:#cececf"
   d="m 453.014,279.876 c -0.382,-0.992 -0.993,-1.757 -1.758,-2.445 -0.687,-0.687 -1.604,-1.223 -2.598,-1.528 -0.993,-0.382 -1.987,-0.534 -3.056,-0.534 -1.146,0 -2.139,0.152 -3.132,0.534 -0.993,0.305 -1.834,0.84 -2.598,1.528 -0.764,0.687 -1.375,1.452 -1.757,2.445 -0.458,0.994 -0.688,2.14 -0.688,3.439 v 11.232 c 0,1.298 0.229,2.445 0.688,3.438 0.382,0.992 0.993,1.834 1.757,2.445 0.764,0.687 1.605,1.223 2.598,1.605 0.993,0.305 1.987,0.458 3.132,0.458 1.07,0 2.063,-0.153 3.056,-0.458 0.993,-0.382 1.91,-0.918 2.598,-1.605 0.764,-0.611 1.376,-1.452 1.758,-2.445 0.458,-0.993 0.687,-2.14 0.687,-3.438 v -11.232 c 10e-4,-1.299 -0.228,-2.445 -0.687,-3.439 z m -4.202,14.671 c 0,1.069 -0.306,1.986 -0.917,2.597 -0.535,0.688 -1.299,0.994 -2.293,0.994 -0.993,0 -1.757,-0.306 -2.369,-0.994 -0.611,-0.611 -0.917,-1.528 -0.917,-2.597 v -11.156 c 0,-1.146 0.306,-2.063 0.917,-2.674 0.611,-0.688 1.375,-0.993 2.369,-0.993 0.993,0 1.758,0.305 2.293,0.993 0.611,0.611 0.917,1.528 0.917,2.674 z"
   id="path66" />
		<path
   style="fill:#cececf"
   d="m 474.332,279.876 c -0.382,-0.992 -0.993,-1.757 -1.757,-2.445 -0.688,-0.687 -1.605,-1.223 -2.598,-1.528 -0.993,-0.382 -1.987,-0.534 -3.056,-0.534 -1.146,0 -2.14,0.152 -3.133,0.534 -0.076,0 -0.152,0.077 -0.229,0.077 -0.917,0.305 -1.681,0.84 -2.368,1.451 -0.764,0.687 -1.299,1.452 -1.758,2.445 -0.458,0.994 -0.687,2.14 -0.687,3.439 v 11.232 c 0,1.298 0.229,2.445 0.687,3.438 0.077,0.077 0.077,0.23 0.153,0.306 0.459,0.839 0.917,1.604 1.605,2.139 0.764,0.687 1.604,1.223 2.597,1.605 0.993,0.305 1.987,0.458 3.133,0.458 1.069,0 2.063,-0.153 3.056,-0.458 0.993,-0.382 1.91,-0.918 2.598,-1.605 0.764,-0.611 1.375,-1.452 1.757,-2.445 0.459,-0.993 0.688,-2.14 0.688,-3.438 v -11.232 c 0,-1.299 -0.23,-2.445 -0.688,-3.439 z m -4.203,14.671 c 0,1.069 -0.306,1.986 -0.84,2.597 -0.611,0.688 -1.375,0.994 -2.369,0.994 -0.993,0 -1.758,-0.306 -2.368,-0.994 -0.611,-0.611 -0.917,-1.528 -0.917,-2.597 v -11.156 c 0,-1.146 0.305,-2.063 0.917,-2.674 0.611,-0.688 1.375,-0.993 2.368,-0.993 0.993,0 1.757,0.305 2.369,0.993 0.535,0.611 0.84,1.528 0.84,2.674 z"
   id="path68" />
	</g>
	<g
   id="g94">
		<path
   style="fill:#cececf"
   d="m 46.532,172.678 v 2.445 h 3.667 v 11.537 h 2.674 v -11.537 h 3.667 v -2.445 z"
   id="path72" />
		<path
   style="fill:#cececf"
   d="m 68.995,177.874 c 0,-0.535 -0.076,-0.994 -0.153,-1.452 -0.076,-0.458 -0.229,-0.917 -0.382,-1.299 -0.076,-0.076 -0.076,-0.153 -0.153,-0.229 -0.153,-0.229 -0.382,-0.534 -0.687,-0.839 -0.153,-0.153 -0.306,-0.306 -0.458,-0.382 -0.306,-0.306 -0.688,-0.535 -1.146,-0.688 -0.305,-0.152 -0.687,-0.229 -1.07,-0.305 -0.305,-0.076 -0.611,-0.076 -0.993,-0.076 -0.841,0 -1.528,0.153 -2.14,0.382 -0.611,0.229 -1.146,0.612 -1.605,1.071 -0.382,0.382 -0.611,0.763 -0.84,1.069 -0.153,0.382 -0.306,0.841 -0.382,1.299 -0.076,0.458 -0.153,0.917 -0.153,1.452 -0.076,0.535 -0.076,1.145 -0.076,1.834 0,0.611 0,1.222 0.076,1.757 0,0.23 0,0.458 0.076,0.611 0,0.306 0,0.611 0.076,0.84 0.076,0.459 0.229,0.917 0.382,1.299 0.229,0.382 0.458,0.687 0.84,1.07 0.458,0.458 0.993,0.84 1.605,1.069 0.535,0.306 1.146,0.382 1.91,0.382 h 0.229 c 0.764,0 1.451,-0.076 2.063,-0.382 0.611,-0.229 1.146,-0.611 1.605,-1.069 0.382,-0.382 0.611,-0.688 0.84,-1.07 0.153,-0.382 0.305,-0.84 0.382,-1.299 0.076,-0.382 0.153,-0.917 0.153,-1.451 v -0.382 c 0.076,-0.382 0.076,-0.917 0.076,-1.375 0.002,-0.691 0.002,-1.302 -0.075,-1.837 z m -2.827,4.508 c 0,0.305 -0.076,0.534 -0.153,0.687 -0.152,0.229 -0.229,0.382 -0.382,0.459 -0.153,0.229 -0.382,0.458 -0.688,0.611 -0.153,0.076 -0.382,0.153 -0.611,0.076 -0.076,0.077 -0.229,0.077 -0.382,0.077 -0.382,0 -0.764,0 -1.07,-0.153 -0.229,-0.153 -0.535,-0.382 -0.764,-0.611 -0.076,-0.076 -0.229,-0.229 -0.305,-0.459 -0.076,-0.153 -0.153,-0.382 -0.153,-0.687 -0.076,-0.229 -0.153,-0.611 -0.153,-1.07 v -3.285 c 0,-0.459 0.076,-0.765 0.153,-1.071 0,-0.305 0.076,-0.535 0.153,-0.687 0.076,-0.229 0.229,-0.382 0.305,-0.535 0.229,-0.229 0.535,-0.382 0.764,-0.535 0.305,-0.077 0.687,-0.153 1.07,-0.153 0.305,0 0.687,0.076 0.993,0.153 0.306,0.153 0.535,0.306 0.688,0.535 0.153,0.153 0.229,0.306 0.382,0.535 0.076,0.153 0.153,0.382 0.153,0.687 0.076,0.306 0.076,0.612 0.153,1.071 v 3.285 c -0.076,0.382 -0.076,0.687 -0.153,0.917 0,0.077 0,0.153 0,0.153 z"
   id="path74" />
		<path
   style="fill:#cececf"
   d="m 81.984,175.352 c -0.229,-0.535 -0.458,-0.993 -0.917,-1.375 -0.382,-0.382 -0.841,-0.688 -1.375,-0.918 -0.611,-0.229 -1.223,-0.382 -1.987,-0.382 h -5.349 v 13.982 h 2.674 v -5.272 h 2.675 c 0.764,0 1.375,-0.076 1.987,-0.306 0.534,-0.229 0.993,-0.535 1.375,-0.993 0.459,-0.382 0.687,-0.84 0.917,-1.376 0.229,-0.535 0.305,-1.069 0.305,-1.681 0.001,-0.532 -0.075,-1.143 -0.305,-1.679 z m -2.903,3.057 c -0.229,0.229 -0.458,0.382 -0.764,0.382 -0.229,0.153 -0.459,0.153 -0.764,0.153 h -2.522 v -3.82 h 2.522 c 0.688,0 1.146,0.229 1.528,0.535 0.305,0.382 0.535,0.84 0.535,1.375 0,0.611 -0.23,1.069 -0.535,1.375 z"
   id="path76" />
		<path
   style="fill:#cececf"
   d="m 94.286,175.123 v -2.445 h -9.169 v 13.982 h 9.169 v -2.445 h -6.494 v -3.362 h 5.501 v -2.445 h -5.501 v -3.286 h 6.494 z"
   id="path78" />
		<path
   style="fill:#cececf"
   d="m 103.684,183.758 c -0.382,0.382 -0.917,0.534 -1.604,0.534 -0.382,0 -0.688,0 -0.993,-0.153 -0.306,-0.153 -0.535,-0.306 -0.764,-0.535 -0.076,-0.153 -0.229,-0.306 -0.306,-0.459 -0.076,-0.229 -0.153,-0.459 -0.229,-0.764 0,-0.229 -0.076,-0.611 -0.076,-1.07 -0.076,-0.459 -0.076,-0.993 -0.076,-1.604 0,-0.688 0,-1.223 0.076,-1.681 0,-0.459 0.076,-0.765 0.076,-1.071 0.076,-0.305 0.153,-0.535 0.229,-0.687 0.076,-0.229 0.229,-0.382 0.306,-0.535 0.229,-0.229 0.458,-0.382 0.764,-0.535 0.305,-0.077 0.611,-0.153 0.993,-0.153 0.687,0 1.222,0.153 1.528,0.535 0.382,0.382 0.688,0.84 0.764,1.451 h 2.827 c -0.305,-1.528 -0.84,-2.598 -1.757,-3.361 -0.917,-0.688 -2.063,-1.07 -3.362,-1.07 -0.841,0 -1.528,0.153 -2.14,0.382 -0.535,0.229 -1.146,0.612 -1.604,1.071 -0.306,0.382 -0.611,0.763 -0.764,1.069 -0.229,0.382 -0.382,0.841 -0.458,1.299 -0.076,0.458 -0.153,0.917 -0.153,1.452 v 3.591 c 0,0.535 0.076,1.069 0.153,1.451 0.076,0.459 0.229,0.917 0.458,1.299 0.153,0.382 0.459,0.687 0.764,1.07 0.458,0.458 1.069,0.84 1.604,1.069 0.611,0.306 1.299,0.382 2.14,0.382 1.299,0 2.445,-0.382 3.362,-1.069 0.917,-0.765 1.452,-1.835 1.757,-3.286 h -2.75 c -0.154,0.537 -0.459,0.996 -0.765,1.378 z"
   id="path80" />
		<path
   style="fill:#cececf"
   d="m 119.653,176.422 c -0.076,-0.458 -0.229,-0.917 -0.458,-1.299 -0.153,-0.306 -0.458,-0.687 -0.764,-1.069 -0.459,-0.459 -0.993,-0.841 -1.604,-1.071 -0.611,-0.229 -1.299,-0.382 -2.14,-0.382 -0.84,0 -1.528,0.153 -2.139,0.382 -0.611,0.229 -1.146,0.612 -1.605,1.071 -0.306,0.382 -0.611,0.763 -0.764,1.069 -0.229,0.382 -0.382,0.841 -0.458,1.299 -0.076,0.458 -0.153,0.917 -0.153,1.452 v 3.591 c 0,0.535 0.076,1.069 0.153,1.451 0.076,0.459 0.229,0.917 0.458,1.299 0.153,0.382 0.458,0.687 0.764,1.07 0.458,0.458 0.993,0.84 1.605,1.069 0.611,0.306 1.299,0.382 2.139,0.382 0.841,0 1.528,-0.076 2.14,-0.382 0.611,-0.229 1.146,-0.611 1.604,-1.069 0.306,-0.382 0.611,-0.688 0.764,-1.07 0.229,-0.382 0.382,-0.84 0.458,-1.299 0.076,-0.382 0.153,-0.917 0.153,-1.451 v -3.591 c 0,-0.535 -0.077,-0.994 -0.153,-1.452 z m -2.598,4.891 c 0,0.459 -0.076,0.84 -0.076,1.07 -0.076,0.305 -0.152,0.534 -0.229,0.687 -0.076,0.229 -0.153,0.382 -0.305,0.459 -0.229,0.229 -0.458,0.458 -0.764,0.611 -0.305,0.153 -0.611,0.153 -0.993,0.153 -0.382,0 -0.687,0 -0.993,-0.153 -0.305,-0.153 -0.535,-0.382 -0.764,-0.611 -0.153,-0.076 -0.229,-0.229 -0.305,-0.459 -0.076,-0.153 -0.153,-0.382 -0.229,-0.687 -0.076,-0.229 -0.076,-0.611 -0.076,-1.07 -0.076,-0.459 -0.076,-0.993 -0.076,-1.604 0,-0.688 0,-1.223 0.076,-1.681 0,-0.459 0,-0.765 0.076,-1.071 0.076,-0.305 0.153,-0.535 0.229,-0.687 0.076,-0.229 0.153,-0.382 0.305,-0.535 0.229,-0.229 0.458,-0.382 0.764,-0.535 0.306,-0.077 0.611,-0.153 0.993,-0.153 0.382,0 0.688,0.076 0.993,0.153 0.306,0.153 0.535,0.306 0.764,0.535 0.153,0.153 0.229,0.306 0.305,0.535 0.076,0.153 0.153,0.382 0.229,0.687 0,0.306 0.076,0.612 0.076,1.071 0.076,0.458 0.076,0.992 0.076,1.681 0,0.61 0,1.145 -0.076,1.604 z"
   id="path82" />
		<path
   style="fill:#cececf"
   d="m 131.037,172.678 v 8.557 l -5.501,-8.557 h -2.445 v 13.982 h 2.751 v -8.557 l 5.501,8.557 h 2.445 v -13.982 z"
   id="path84" />
		<path
   style="fill:#cececf"
   d="m 152.431,181.313 c -0.152,-0.382 -0.382,-0.765 -0.687,-1.07 -0.153,-0.153 -0.306,-0.305 -0.458,-0.382 -0.153,-0.077 -0.306,-0.23 -0.611,-0.382 1.146,-0.612 1.757,-1.604 1.757,-2.904 0,-0.611 -0.152,-1.146 -0.305,-1.605 -0.229,-0.458 -0.535,-0.839 -0.917,-1.222 -0.306,-0.306 -0.764,-0.612 -1.299,-0.765 -0.535,-0.152 -1.146,-0.305 -1.834,-0.305 H 142.5 v 13.982 h 5.807 c 0.687,0 1.299,-0.153 1.834,-0.306 0.458,-0.229 0.917,-0.458 1.299,-0.839 0.382,-0.306 0.688,-0.765 0.841,-1.223 0.229,-0.459 0.305,-1.07 0.305,-1.682 -0.002,-0.457 -0.079,-0.915 -0.155,-1.297 z m -7.182,-6.19 h 2.674 c 0.535,0 0.993,0.153 1.299,0.459 0.306,0.306 0.458,0.687 0.458,1.145 0,0.535 -0.153,0.918 -0.458,1.224 -0.305,0.229 -0.764,0.382 -1.299,0.382 h -2.674 z m 4.126,8.635 c -0.306,0.305 -0.764,0.458 -1.299,0.458 h -2.827 v -3.439 h 2.827 c 0.535,0 0.993,0.153 1.299,0.459 0.305,0.306 0.535,0.687 0.535,1.222 0,0.535 -0.23,0.994 -0.535,1.3 z"
   id="path86" />
		<path
   style="fill:#cececf"
   d="m 161.523,172.678 h -2.139 l -5.043,13.982 h 2.827 l 0.841,-2.521 h 4.966 l 0.84,2.521 h 2.827 z m -2.75,9.17 1.757,-5.044 1.681,5.044 z"
   id="path88" />
		<path
   style="fill:#cececf"
   d="m 176.728,172.678 v 8.557 l -5.501,-8.557 h -2.369 v 13.982 h 2.674 v -8.557 l 5.501,8.557 h 2.445 v -13.982 z"
   id="path90" />
		<path
   style="fill:#cececf"
   d="m 189.564,178.256 4.585,-5.577 h -3.286 l -4.967,6.112 v -6.112 h -2.674 v 13.982 h 2.674 v -4.203 l 1.834,-2.139 3.591,6.341 h 3.132 z"
   id="path92" />
	</g>
	<g
   id="g146">
		<g
   id="g98">
			<path
   style="fill:#f7d072"
   d="m 126.806,245.621 v 53.623 c 0,2.158 -1.766,3.924 -3.924,3.924 H 56.835 c -2.158,0 -3.924,-1.766 -3.924,-3.924 v -53.623 c 0,-2.158 1.765,-3.924 3.924,-3.924 h 66.047 c 2.158,0 3.924,1.766 3.924,3.924 z"
   id="path96" />
		</g>
		<path
   style="opacity:0.2;fill:#ffffff"
   d="m 112.318,254.663 11.461,-11.461 h -3.744 l -12.531,12.531 -1.528,1.528 -4.738,4.815 -1.528,1.528 H 82.595 l -7.87,-7.87 -2.522,-2.598 -9.933,-9.932 h -3.667 l 9.856,9.932 1.528,1.529 h -15.74 v 2.598 h 18.414 l 4.89,4.967 1.299,1.376 v 3.056 H 54.249 v 2.599 h 24.603 v 9.398 H 54.249 v 2.598 h 24.603 v 3.056 h 0.076 l -4.737,4.814 -1.528,1.529 H 54.249 v 2.597 h 15.816 l -9.933,9.933 H 63.8 l 9.933,-9.933 8.939,-8.939 h 17.039 l 18.796,18.872 h 3.744 l -9.933,-9.933 h 14.518 v -2.597 H 109.72 l -6.342,-6.342 h 0.153 v -3.056 h 23.304 v -2.598 h -23.304 v -9.398 h 23.304 v -2.599 h -23.304 v -3.056 h -0.153 l 6.342,-6.342 h 17.115 v -2.598 h -14.517 z m -11.461,27.048 H 81.45 V 266.2 h 19.407 z"
   id="path100" />
		<g
   id="g144">
			<g
   id="g104">
				<path
   style="fill:#717070"
   d="m 81.297,262.075 1.528,1.528 h 0.076 l 1.07,1.069 h 11.843 l 2.598,-2.597 H 81.297 Z m 0,0 1.528,1.528 h 0.076 l 1.07,1.069 h 11.843 l 2.598,-2.597 H 81.297 Z m 0,0 1.528,1.528 h 0.076 l 1.07,1.069 h 11.843 l 2.598,-2.597 H 81.297 Z m 0,0 1.528,1.528 h 0.076 l 1.07,1.069 h 11.843 l 2.598,-2.597 H 81.297 Z m 0,0 1.528,1.528 h 0.076 l 1.07,1.069 h 11.843 l 2.598,-2.597 H 81.297 Z m 0,0 1.528,1.528 h 0.076 l 1.07,1.069 h 11.843 l 2.598,-2.597 H 81.297 Z m -3.744,0 v 20.706 h 24.679 v -20.706 z m 22.005,18.107 H 80.151 v -15.511 h 19.407 v 15.511 z m -18.261,-18.107 1.528,1.528 h 0.076 l 1.07,1.069 h 11.843 l 2.598,-2.597 H 81.297 Z m 15.969,19.636 -1.528,-1.529 H 83.971 l -1.528,1.529 h -0.076 l -0.993,1.07 h 17.038 z m -15.969,-19.636 1.528,1.528 h 0.076 l 1.07,1.069 h 11.843 l 2.598,-2.597 H 81.297 Z m 0,0 1.528,1.528 h 0.076 l 1.07,1.069 h 11.843 l 2.598,-2.597 H 81.297 Z m 0,0 1.528,1.528 h 0.076 l 1.07,1.069 h 11.843 l 2.598,-2.597 H 81.297 Z m 0,0 1.528,1.528 h 0.076 l 1.07,1.069 h 11.843 l 2.598,-2.597 H 81.297 Z"
   id="path102" />
			</g>
			<g
   id="g130">
				<g
   id="g110">
					<polygon
   style="fill:#717070"
   points="75.031,255.757 52.911,255.757 52.911,253.141 72.415,253.141 "
   id="polygon106" />
					<polygon
   style="fill:#717070"
   points="126.806,255.757 104.687,255.757 107.302,253.141 126.806,253.141 "
   id="polygon108" />
				</g>
				<g
   id="g116">
					<rect
   x="52.910999"
   y="265.13101"
   style="fill:#717070"
   width="27.219999"
   height="2.6159999"
   id="rect112" />
					<rect
   x="99.585999"
   y="265.13101"
   style="fill:#717070"
   width="27.219999"
   height="2.6159999"
   id="rect114" />
				</g>
				<g
   id="g122">
					<rect
   x="52.910999"
   y="277.121"
   style="fill:#717070"
   width="27.219999"
   height="2.6159999"
   id="rect118" />
					<rect
   x="99.585999"
   y="277.121"
   style="fill:#717070"
   width="27.219999"
   height="2.6159999"
   id="rect120" />
				</g>
				<g
   id="g128">
					<polygon
   style="fill:#717070"
   points="72.418,291.723 52.911,291.723 52.911,289.107 75.034,289.107 "
   id="polygon124" />
					<polygon
   style="fill:#717070"
   points="126.806,291.723 107.299,291.723 104.683,289.107 126.806,289.107 "
   id="polygon126" />
				</g>
			</g>
			<g
   id="g136">
				<polygon
   style="fill:#717070"
   points="60.974,303.167 57.276,303.167 80.246,280.198 83.944,280.198 "
   id="polygon132" />
				<polygon
   style="fill:#717070"
   points="99.475,264.667 95.777,264.667 118.746,241.697 122.444,241.697 "
   id="polygon134" />
			</g>
			<g
   id="g142">
				<polygon
   style="fill:#717070"
   points="80.243,264.667 57.273,241.697 60.971,241.697 83.94,264.667 "
   id="polygon138" />
				<polygon
   style="fill:#717070"
   points="118.743,303.167 98.389,282.813 97.3,281.724 95.773,280.198 99.471,280.198 100.894,281.62 102.087,282.813 103.509,284.236 108.381,289.107 109.908,290.634 110.997,291.723 112.524,293.25 122.441,303.167 "
   id="polygon140" />
			</g>
		</g>
	</g>
	<g
   id="g154">
		<path
   style="fill:#ecedf7"
   d="m 212.505,241.697 h -0.438 -3.698 -57.775 -3.698 -0.438 c -2.158,0 -3.924,1.766 -3.924,3.923 v 7.52 2.616 9.374 2.616 9.374 2.616 9.371 2.616 7.52 c 0,2.158 1.766,3.924 3.924,3.924 h 0.441 2.835 0.863 2.835 54.715 0.219 3.479 0.219 0.441 c 2.158,0 3.924,-1.766 3.924,-3.924 v -5.993 -1.527 -1.089 -1.527 -7.844 -1.527 -1.089 -1.527 -7.847 -1.527 -1.089 -1.527 -7.847 -1.527 -1.089 -1.527 -7.52 c 0,-2.157 -1.766,-3.923 -3.924,-3.923 z"
   id="path148" />
		<path
   style="fill:#a0bfc2"
   d="m 216.431,266.273 v 33.325 c 0,2.158 -1.769,3.927 -3.927,3.927 h -45.752 l -24.22,-24.22 v -33.331 c 0,-2.153 1.769,-3.921 3.927,-3.921 h 45.752 z"
   id="path150" />
		<path
   style="opacity:0.2;fill:#040000"
   d="m 212.39,241.619 h -0.438 -1.851 l -61.47,61.47 h 0.988 0.863 2.835 54.715 0.219 3.479 0.219 0.441 c 2.158,0 3.924,-1.765 3.924,-3.924 v -5.993 -1.527 -1.089 -1.527 -7.844 -1.527 -1.089 -1.527 -7.847 -1.527 -1.089 -1.527 -7.847 -1.527 -1.089 -1.527 -7.521 c 0,-2.157 -1.766,-3.922 -3.924,-3.922 z"
   id="path152" />
	</g>
	<g
   id="g168">
		<path
   style="fill:#cececf"
   d="m 176.356,66.811 1.845,-5.871 h 14.945 l -1.845,5.871 z"
   id="path156" />
		<path
   style="fill:#cececf"
   d="m 213.106,82.53 h -5.567 l -0.605,-34.546 h 7.712 l -0.147,22.514 15.471,-22.514 h 7.764 z"
   id="path158" />
		<path
   style="fill:#cececf"
   d="m 231.394,82.53 11.985,-34.546 h 7.446 L 238.84,82.53 Z"
   id="path160" />
		<path
   style="fill:#cececf"
   d="m 275.907,72.343 c -0.583,1.682 -1.456,3.167 -2.616,4.462 -1.164,1.295 -2.536,2.385 -4.109,3.273 -1.578,0.892 -3.313,1.572 -5.212,2.041 -1.892,0.466 -3.84,0.703 -5.841,0.703 -2.89,0 -5.356,-0.332 -7.393,-0.995 -2.041,-0.663 -3.691,-1.852 -4.954,-3.566 l 6.337,-4.367 c 0.835,1.098 1.962,1.86 3.39,2.278 1.423,0.423 3.011,0.632 4.764,0.632 2.25,0 4.074,-0.371 5.475,-1.118 1.4,-0.742 2.341,-1.808 2.824,-3.202 0.415,-1.196 0.353,-2.148 -0.184,-2.863 -0.281,-0.32 -0.628,-0.565 -1.034,-0.727 -0.41,-0.162 -1.07,-0.308 -1.993,-0.438 l -4.333,-0.628 c -1.635,-0.225 -2.961,-0.576 -3.976,-1.042 -1.018,-0.47 -1.823,-1.078 -2.424,-1.82 -1.272,-1.587 -1.393,-3.85 -0.372,-6.795 0.538,-1.552 1.33,-2.965 2.379,-4.245 1.053,-1.275 2.307,-2.377 3.773,-3.297 1.463,-0.924 3.103,-1.643 4.926,-2.16 1.823,-0.517 3.771,-0.778 5.841,-0.778 2.642,0 4.837,0.308 6.589,0.924 1.754,0.612 3.195,1.647 4.333,3.104 l -6.177,4.221 c -0.818,-1.035 -1.877,-1.69 -3.177,-1.962 -1.295,-0.276 -2.572,-0.415 -3.819,-0.415 -2.001,0 -3.624,0.43 -4.867,1.287 -1.243,0.857 -2.075,1.883 -2.49,3.08 -0.158,0.454 -0.225,0.888 -0.211,1.311 0.016,0.418 0.155,0.809 0.424,1.165 0.28,0.324 0.661,0.596 1.135,0.825 0.476,0.225 1.104,0.387 1.895,0.482 l 4.332,0.632 c 1.673,0.229 3.004,0.553 4.005,0.971 0.996,0.423 1.775,1.003 2.341,1.745 0.741,0.841 1.131,1.88 1.171,3.107 0.039,1.229 -0.212,2.619 -0.752,4.175 z"
   id="path162" />
		<path
   style="fill:#cececf"
   d="m 301.48,82.53 -0.133,-6.112 h -13.549 l -4.427,6.112 h -7.769 l 25.861,-34.546 h 5.837 l 1.944,34.546 z m -0.443,-24.359 -9.182,12.568 h 9.482 z"
   id="path164" />
		<path
   style="fill:#cececf"
   d="m 318.854,66.811 1.845,-5.871 h 14.945 l -1.845,5.871 z"
   id="path166" />
	</g>
	<path
   style="opacity:0.1;fill:#040000"
   d="M 512,16.274 V 308.3 c 0,9.016 -7.335,16.351 -16.275,16.351 H 256.038 V 0 H 495.725 C 504.665,0 512,7.335 512,16.274 Z"
   id="path170" />
</g>
</svg>
