<?xml version="1.0" encoding="UTF-8" standalone="no"?>
<!-- Uploaded to: SVG Repo, www.svgrepo.com, Generator: SVG Repo Mixer Tools -->

<svg
   height="800px"
   width="800px"
   version="1.1"
   id="Layer_1"
   viewBox="0 0 512 512"
   xml:space="preserve"
   sodipodi:docname="card2.svg"
   inkscape:version="1.2.2 (b0a8486541, 2022-12-01)"
   xmlns:inkscape="http://www.inkscape.org/namespaces/inkscape"
   xmlns:sodipodi="http://sodipodi.sourceforge.net/DTD/sodipodi-0.dtd"
   xmlns="http://www.w3.org/2000/svg"
   xmlns:svg="http://www.w3.org/2000/svg"><defs
   id="defs45" /><sodipodi:namedview
   id="namedview43"
   pagecolor="#505050"
   bordercolor="#ffffff"
   borderopacity="1"
   inkscape:showpageshadow="0"
   inkscape:pageopacity="0"
   inkscape:pagecheckerboard="1"
   inkscape:deskcolor="#505050"
   showgrid="false"
   inkscape:zoom="0.59"
   inkscape:cx="351.69492"
   inkscape:cy="488.13559"
   inkscape:window-width="1920"
   inkscape:window-height="1040"
   inkscape:window-x="1366"
   inkscape:window-y="40"
   inkscape:window-maximized="1"
   inkscape:current-layer="Layer_1" />
<path
   style="fill:#e4eaf8"
   d="M 476.69,419.31 H 35.31 C 15.809,419.31 0,403.501 0,384 V 119.172 C 0,99.670997 15.809,83.861997 35.31,83.861997 h 441.38 c 19.501,0 35.31,15.809 35.31,35.310003 V 384 c 0,19.501 -15.809,35.31 -35.31,35.31 z"
   id="path2" />

<path
   style="fill:#afb9d2"
   d="M 256,384 H 44.138 c -4.875,0 -8.828,-3.953 -8.828,-8.828 V 128 c 0,-4.875 3.953,-8.828 8.828,-8.828 H 256 c 4.875,0 8.828,3.953 8.828,8.828 v 247.172 c 0,4.875 -3.953,8.828 -8.828,8.828 z"
   id="path6" />

<path
   style="fill:#e4eaf8"
   d="m 220.69,348.689 c 4.875,0 8.828,-3.953 8.828,-8.828 v -22.585 c 0,-7.599 -4.863,-14.346 -12.072,-16.749 l -34.871,-11.624 c -3.598,-1.199 -6.028,-4.563 -6.036,-8.355 l -0.033,-15.698 c 5.511,-2.755 9.187,-8.184 9.698,-14.325 l 1.929,-21.021 c 3.693,-3.235 6.074,-7.933 6.074,-13.229 v -44.138 c 0,-4.875 -3.953,-8.828 -8.828,-8.828 h -52.966 c -14.626,0 -26.483,11.857 -26.483,26.483 v 26.483 c 0,5.297 2.381,9.994 6.074,13.229 l 1.929,21.021 c 0.511,6.14 4.188,11.57 9.698,14.325 l -0.033,15.698 c -0.008,3.793 -2.438,7.157 -6.036,8.355 l -34.871,11.624 c -7.209,2.403 -12.072,9.15 -12.072,16.749 v 22.585 c 0,4.875 3.953,8.828 8.828,8.828 z"
   id="path10" />
<path
   style="fill:#7f8499"
   d="M 423.724,145.655 H 300.138 c -4.879,0 -8.828,-3.953 -8.828,-8.828 0,-4.875 3.948,-8.828 8.828,-8.828 h 123.586 c 4.879,0 8.828,3.953 8.828,8.828 0,4.875 -3.948,8.828 -8.828,8.828 z"
   id="path12" />
<path
   style="fill:#707487"
   d="M 467.862,180.965 H 300.138 c -4.879,0 -8.828,-3.953 -8.828,-8.828 0,-4.875 3.948,-8.828 8.828,-8.828 h 167.724 c 4.879,0 8.828,3.953 8.828,8.828 0,4.876 -3.948,8.828 -8.828,8.828 z"
   id="path14" />
<path
   style="fill:#959cb5"
   d="M 467.862,304.551 H 353.103 c -4.879,0 -8.828,-3.953 -8.828,-8.828 0,-4.875 3.948,-8.828 8.828,-8.828 h 114.759 c 4.879,0 8.828,3.953 8.828,8.828 0,4.875 -3.948,8.828 -8.828,8.828 z"
   id="path16" />
<path
   style="fill:#7f8499"
   d="m 317.793,304.551 h -17.655 c -4.879,0 -8.828,-3.953 -8.828,-8.828 0,-4.875 3.948,-8.828 8.828,-8.828 h 17.655 c 4.879,0 8.828,3.953 8.828,8.828 0,4.875 -3.948,8.828 -8.828,8.828 z"
   id="path18" />
<path
   style="fill:#959cb5"
   d="m 441.379,339.862 h -88.276 c -4.879,0 -8.828,-3.953 -8.828,-8.828 0,-4.875 3.948,-8.828 8.828,-8.828 h 88.276 c 4.879,0 8.828,3.953 8.828,8.828 0,4.875 -3.948,8.828 -8.828,8.828 z"
   id="path20" />
<path
   style="fill:#7f8499"
   d="m 317.793,339.862 h -17.655 c -4.879,0 -8.828,-3.953 -8.828,-8.828 0,-4.875 3.948,-8.828 8.828,-8.828 h 17.655 c 4.879,0 8.828,3.953 8.828,8.828 0,4.875 -3.948,8.828 -8.828,8.828 z"
   id="path22" />
<path
   style="fill:#959cb5"
   d="m 441.379,375.172 h -88.276 c -4.879,0 -8.828,-3.953 -8.828,-8.828 0,-4.875 3.948,-8.828 8.828,-8.828 h 88.276 c 4.879,0 8.828,3.953 8.828,8.828 0,4.875 -3.948,8.828 -8.828,8.828 z"
   id="path24" />
<path
   style="fill:#7f8499"
   d="m 317.793,375.172 h -17.655 c -4.879,0 -8.828,-3.953 -8.828,-8.828 0,-4.875 3.948,-8.828 8.828,-8.828 h 17.655 c 4.879,0 8.828,3.953 8.828,8.828 0,4.875 -3.948,8.828 -8.828,8.828 z"
   id="path26" />
<circle
   style="fill:#9bf57d"
   cx="317.793"
   cy="233.931"
   r="22.069"
   id="circle28" />
<g
   id="g34"
   transform="translate(0,13.240997)">
	<circle
   style="fill:#ffdc64"
   cx="388.414"
   cy="220.69"
   r="22.069"
   id="circle30" />
	<circle
   style="fill:#ffdc64"
   cx="459.034"
   cy="220.69"
   r="22.069"
   id="circle32" />
</g>



</svg>
