<?xml version="1.0" encoding="iso-8859-1"?>
<!-- Uploaded to: SVG Repo, www.svgrepo.com, Generator: SVG Repo Mixer Tools -->
<svg version="1.1" id="Layer_1" xmlns="http://www.w3.org/2000/svg" xmlns:xlink="http://www.w3.org/1999/xlink" 
	 viewBox="0 0 491.52 491.52" xml:space="preserve">
<path style="fill:#EBF0F3;" d="M384.184,0h-276.85c-11.55,0-20.914,9.363-20.914,20.914v449.692
	c0,11.551,9.364,20.914,20.914,20.914h276.85c11.551,0,20.915-9.363,20.915-20.914V20.914C405.099,9.363,395.735,0,384.184,0z"/>
<g>
	<rect x="122.168" y="44.19" style="fill:#64798A;" width="247.194" height="382.874"/>
	<path style="fill:#64798A;" d="M269.993,25.605h-48.467c-2.469,0-4.468-1.998-4.468-4.468s1.999-4.468,4.468-4.468h48.467
		c2.469,0,4.468,1.998,4.468,4.468S272.463,25.605,269.993,25.605z"/>
	<circle style="fill:#64798A;" cx="197.883" cy="21.135" r="4.47"/>
	<path style="fill:#64798A;" d="M245.761,477.982c-11.507,0-20.871-9.364-20.871-20.866c0-11.511,9.364-20.876,20.871-20.876
		c11.507,0,20.872,9.365,20.872,20.876C266.632,468.618,257.268,477.982,245.761,477.982z M245.761,445.176
		c-6.58,0-11.934,5.358-11.934,11.939c0,6.58,5.354,11.93,11.934,11.93c6.581,0,11.935-5.349,11.935-11.93
		C257.696,450.535,252.342,445.176,245.761,445.176z"/>
</g>
<path style="fill:#FCD462;" d="M241.292,126.717c-37.894,0-68.613,30.719-68.613,68.613c0,29.847,19.092,55.17,45.701,64.611
	l22.912-64.611V126.717z"/>
<path style="fill:#44C4A1;" d="M310.597,144.824c-11.607-21.428-34.287-35.98-60.368-35.98v68.613L310.597,144.824z"/>
<path style="fill:#E1E6E9;" d="M227.317,274.817c7.175,2.546,14.864,4.003,22.912,4.003c27.969,0,51.986-16.76,62.671-40.762
	l-62.671-27.85L227.317,274.817z"/>
<path style="fill:#E56353;" d="M310.597,162.697l-60.368,32.633l62.671,27.851c3.793-8.518,5.944-17.926,5.944-27.851
	C318.843,183.517,315.855,172.404,310.597,162.697z"/>
<rect x="139.059" y="346.112" style="fill:#E1E6E9;" width="39.987" height="16.323"/>
<rect x="196.864" y="346.112" style="fill:#FCD462;" width="39.987" height="16.323"/>
<rect x="254.674" y="346.112" style="fill:#44C4A1;" width="39.987" height="16.323"/>
<rect x="312.473" y="346.112" style="fill:#E56353;" width="39.992" height="16.323"/>
</svg>