<?xml version="1.0" encoding="iso-8859-1"?>
<!-- Uploaded to: SVG Repo, www.svgrepo.com, Generator: SVG Repo Mixer Tools -->
<svg version="1.1" id="Layer_1" xmlns="http://www.w3.org/2000/svg" xmlns:xlink="http://www.w3.org/1999/xlink" 
	 viewBox="0 0 512 512" xml:space="preserve">
<path style="fill:#3D3D3B;" d="M388.315,500.494c25.312,0,46.022-20.71,46.022-46.022V57.528c0-25.312-20.71-46.022-46.022-46.022
	H123.685c-25.312,0-46.022,20.71-46.022,46.022v396.944c0,25.312,20.71,46.022,46.022,46.022H388.315z"/>
<g>
	<rect x="135.191" y="392.342" style="fill:#ADA7A4;" width="50.625" height="50.625"/>
	<rect x="230.688" y="392.342" style="fill:#ADA7A4;" width="50.625" height="50.625"/>
</g>
<rect x="326.184" y="296.845" style="fill:#7A7674;" width="50.625" height="146.121"/>
<g>
	<rect x="135.191" y="296.845" style="fill:#ADA7A4;" width="50.625" height="50.625"/>
	<rect x="230.688" y="296.845" style="fill:#ADA7A4;" width="50.625" height="50.625"/>
	<rect x="135.191" y="201.348" style="fill:#ADA7A4;" width="50.625" height="50.625"/>
	<rect x="230.688" y="201.348" style="fill:#ADA7A4;" width="50.625" height="50.625"/>
</g>
<rect x="326.184" y="201.348" style="fill:#EE3840;" width="50.625" height="50.625"/>
<g>
	<polygon style="fill:#95A53B;" points="135.191,69.034 135.191,155.326 172.176,155.326 258.468,112.18 258.468,69.034 	"/>
	<polygon style="fill:#95A53B;" points="376.809,69.034 339.824,69.034 253.532,112.18 253.532,155.326 376.809,155.326 	"/>
</g>
<polygon style="fill:#FFFFFF;" points="258.468,69.034 172.176,155.326 253.532,155.326 339.824,69.034 "/>
<g>
	<path style="fill:#11113F;" d="M185.816,380.836h-50.625c-6.353,0-11.506,5.152-11.506,11.506v50.625
		c0,6.353,5.152,11.506,11.506,11.506h50.625c6.353,0,11.506-5.152,11.506-11.506v-50.625
		C197.321,385.988,192.169,380.836,185.816,380.836z M174.31,431.461h-27.613v-27.613h27.613V431.461z"/>
	<path style="fill:#11113F;" d="M281.312,380.836h-50.625c-6.353,0-11.506,5.152-11.506,11.506v50.625
		c0,6.353,5.152,11.506,11.506,11.506h50.625c6.353,0,11.506-5.152,11.506-11.506v-50.625
		C292.818,385.988,287.666,380.836,281.312,380.836z M269.807,431.461h-27.613v-27.613h27.613V431.461z"/>
	<path style="fill:#11113F;" d="M376.809,285.339h-50.625c-6.353,0-11.506,5.152-11.506,11.506v146.121
		c0,6.353,5.152,11.506,11.506,11.506h50.625c6.353,0,11.506-5.152,11.506-11.506V296.845
		C388.315,290.492,383.162,285.339,376.809,285.339z M365.303,431.461H337.69v-123.11h27.613V431.461z"/>
	<path style="fill:#11113F;" d="M185.816,285.339h-50.625c-6.353,0-11.506,5.152-11.506,11.506v50.625
		c0,6.353,5.152,11.506,11.506,11.506h50.625c6.353,0,11.506-5.152,11.506-11.506v-50.625
		C197.321,290.492,192.169,285.339,185.816,285.339z M174.31,335.964h-27.613v-27.613h27.613V335.964z"/>
	<path style="fill:#11113F;" d="M281.312,285.339h-50.625c-6.353,0-11.506,5.152-11.506,11.506v50.625
		c0,6.353,5.152,11.506,11.506,11.506h50.625c6.353,0,11.506-5.152,11.506-11.506v-50.625
		C292.818,290.492,287.666,285.339,281.312,285.339z M269.807,335.964h-27.613v-27.613h27.613V335.964z"/>
	<path style="fill:#11113F;" d="M388.315,0H123.685C91.964,0,66.157,25.807,66.157,57.528v396.944
		c0,31.721,25.807,57.528,57.528,57.528h264.629c31.721,0,57.528-25.807,57.528-57.528V57.528C445.843,25.807,420.036,0,388.315,0z
		 M422.831,454.472c0,19.033-15.484,34.517-34.517,34.517H123.685c-19.033,0-34.517-15.484-34.517-34.517V57.528
		c0-19.033,15.484-34.517,34.517-34.517h264.629c19.033,0,34.517,15.484,34.517,34.517V454.472z"/>
	<path style="fill:#11113F;" d="M376.809,57.528H135.191c-6.353,0-11.506,5.152-11.506,11.506v86.292
		c0,6.353,5.152,11.506,11.506,11.506h241.618c6.353,0,11.506-5.152,11.506-11.506V69.034
		C388.315,62.68,383.162,57.528,376.809,57.528z M146.697,80.539h83.993l-32.134,32.134c-4.493,4.493-4.493,11.778,0,16.272
		c2.247,2.246,5.191,3.37,8.136,3.37c2.944,0,5.889-1.124,8.136-3.37l48.406-48.406h48.814l-63.281,63.281h-102.07V80.539z
		 M365.303,143.82H281.31l63.281-63.281h20.712V143.82z"/>
	<path style="fill:#11113F;" d="M185.816,189.843h-50.625c-6.353,0-11.506,5.152-11.506,11.506v50.625
		c0,6.353,5.152,11.506,11.506,11.506h50.625c6.353,0,11.506-5.152,11.506-11.506v-50.625
		C197.321,194.995,192.169,189.843,185.816,189.843z M174.31,240.467h-27.613v-27.613h27.613V240.467z"/>
	<path style="fill:#11113F;" d="M281.312,189.843h-50.625c-6.353,0-11.506,5.152-11.506,11.506v50.625
		c0,6.353,5.152,11.506,11.506,11.506h50.625c6.353,0,11.506-5.152,11.506-11.506v-50.625
		C292.818,194.995,287.666,189.843,281.312,189.843z M269.807,240.467h-27.613v-27.613h27.613V240.467z"/>
	<path style="fill:#11113F;" d="M376.809,189.843h-50.625c-6.353,0-11.506,5.152-11.506,11.506v50.625
		c0,6.353,5.152,11.506,11.506,11.506h50.625c6.353,0,11.506-5.152,11.506-11.506v-50.625
		C388.315,194.995,383.162,189.843,376.809,189.843z M365.303,240.467H337.69v-27.613h27.613V240.467z"/>
</g>
</svg>