<?xml version="1.0" encoding="iso-8859-1"?>
<!-- Uploaded to: SVG Repo, www.svgrepo.com, Generator: SVG Repo Mixer Tools -->
<svg height="800px" width="800px" version="1.1" id="Layer_1" xmlns="http://www.w3.org/2000/svg" xmlns:xlink="http://www.w3.org/1999/xlink" 
	 viewBox="0 0 511.992 511.992" xml:space="preserve">
<g>
	<path style="fill:#ED5564;" d="M202.673,328.01c-1.14,0-2.312-0.188-3.468-0.578L7.21,261.48
		c-5.578-1.922-8.546-7.992-6.625-13.562c1.906-5.57,7.984-8.531,13.547-6.625l192.01,65.967c5.578,1.906,8.531,7.969,6.625,13.547
		C211.251,325.228,207.11,328.01,202.673,328.01z"/>
	<path style="fill:#ED5564;" d="M394.652,328.01c-1.141,0-2.312-0.188-3.453-0.578l-192.01-65.951
		c-5.578-1.922-8.531-7.992-6.625-13.562c1.922-5.57,7.984-8.531,13.546-6.625l192.011,65.967c5.578,1.906,8.53,7.969,6.624,13.547
		C403.23,325.228,399.09,328.01,394.652,328.01z"/>
</g>
<path style="fill:#F6BB42;" d="M206.142,339.26l-192.01-65.968c-3.25-1.109-6.859-0.594-9.656,1.406
	c-2.812,2-4.468,5.234-4.468,8.688v217.93c0,5.891,4.765,10.672,10.671,10.672h191.994c5.891,0,10.672-4.781,10.672-10.672V349.337
	C213.345,344.79,210.454,340.727,206.142,339.26z"/>
<path style="fill:#FFCE54;" d="M398.121,339.26L206.11,273.292c-3.25-1.109-6.843-0.594-9.656,1.406
	c-2.797,2-4.469,5.234-4.469,8.688v217.93c0,5.891,4.781,10.672,10.671,10.672h191.995c5.891,0,10.671-4.781,10.671-10.672V349.337
	C405.323,344.79,402.434,340.727,398.121,339.26z"/>
<path style="fill:#CCD1D9;" d="M497.195,47.705c2.625-4.641,4.125-10,4.125-15.702c0-17.641-14.358-31.999-31.998-31.999H138.659
	c-17.64,0-31.999,14.358-31.999,31.999c0,17.647,14.359,31.999,31.999,31.999h236.493c-1.188,3.336-1.828,6.929-1.828,10.671
	c0,17.641,14.359,31.991,31.999,31.991v10.672c0,17.641,14.359,31.999,31.999,31.999c17.641,0,32-14.358,32-31.999v-10.672h10.671
	c17.64,0,31.999-14.351,31.999-31.991C511.992,63.353,506.086,53.392,497.195,47.705z"/>
<path style="fill:#E6E9ED;" d="M479.993,149.335h-85.341c-5.891,0-10.656,4.773-10.656,10.664v341.317
	c0,5.891,4.766,10.672,10.656,10.672h85.341c5.891,0,10.655-4.781,10.655-10.672V159.999
	C490.648,154.108,485.884,149.335,479.993,149.335z"/>
<path style="fill:#ED5564;" d="M479.993,149.335h-85.341c-5.891,0-10.656,4.773-10.656,10.664v53.334h106.652v-53.334
	C490.648,154.108,485.884,149.335,479.993,149.335z"/>
</svg>