<?xml version="1.0" encoding="iso-8859-1"?>
<!-- Uploaded to: SVG Repo, www.svgrepo.com, Generator: SVG Repo Mixer Tools -->
<svg version="1.1" id="Layer_1" xmlns="http://www.w3.org/2000/svg" xmlns:xlink="http://www.w3.org/1999/xlink" 
	 viewBox="0 0 512 512" xml:space="preserve">
<path style="fill:#DFCAA3;" d="M71.635,111.526V44.068c0-19.79,16.191-35.98,35.98-35.98h296.77c19.789,0,35.979,16.19,35.979,35.98
	v67.459H71.635V111.526z"/>
<rect x="96.243" y="55.179" style="fill:#FFFFFF;" width="319.515" height="340.014"/>
<rect x="121.713" y="89.19" style="fill:#A4A9AD;" width="246.273" height="9.925"/>
<rect x="71.635" y="111.523" style="fill:#CAA977;" width="368.731" height="392.39"/>
<rect x="256" y="111.523" style="fill:#BFA070;" width="184.365" height="392.39"/>
<circle style="fill:#FF8189;" cx="256" cy="223.898" r="28.004"/>
<circle style="fill:#F6C65B;" cx="256" cy="223.898" r="16.208"/>
<circle style="fill:#4C5B6B;" cx="256" cy="223.898" r="9.748"/>
<path style="fill:#DFCAA3;" d="M71.635,503.912c0-19.789,16.191-35.98,35.98-35.98h296.77c19.789,0,35.979,16.191,35.979,35.98
	H71.635z"/>
<path d="M404.385,0h-296.77C83.316,0,63.547,19.769,63.547,44.068v459.845c0,4.467,3.621,8.088,8.088,8.088h368.731
	c4.468,0,8.088-3.621,8.088-8.088V44.068C448.453,19.769,428.685,0,404.385,0z M80.923,495.825
	c3.476-11.448,14.125-19.805,26.692-19.805h296.77c12.567,0,23.216,8.357,26.692,19.805H80.923z M432.278,469.824
	c-7.602-6.232-17.317-9.979-27.891-9.979H107.615c-10.575,0-20.29,3.747-27.893,9.979v-350.21h352.555V469.824z M104.332,103.438
	V63.27h303.334v40.168H104.332z M432.278,103.438h-8.435V55.182c0-4.467-3.621-8.088-8.088-8.088H96.245
	c-4.467,0-8.088,3.621-8.088,8.088v48.256h-8.435V44.068c0-15.379,12.513-27.893,27.893-27.893h296.77
	c15.379,0,27.891,12.513,27.891,27.893v59.371H432.278z M227.516,378.572c0,4.467,3.621,8.088,8.088,8.088s8.088-3.621,8.088-8.088
	V257.822c3.843,1.399,7.987,2.163,12.308,2.163c19.901,0,36.091-16.19,36.091-36.091s-16.19-36.091-36.091-36.091
	s-36.092,16.19-36.092,36.091c0,8.333,2.847,16.009,7.609,22.126V378.572z M256,203.979c10.982,0,19.916,8.934,19.916,19.916
	c0,10.982-8.934,19.916-19.916,19.916c-10.982,0-19.917-8.934-19.917-19.916S245.018,203.979,256,203.979z"/>
</svg>