<?xml version="1.0" encoding="iso-8859-1"?>
<!-- Uploaded to: SVG Repo, www.svgrepo.com, Generator: SVG Repo Mixer Tools -->
<svg version="1.1" id="Layer_1" xmlns="http://www.w3.org/2000/svg" xmlns:xlink="http://www.w3.org/1999/xlink" 
	 viewBox="0 0 512 512" xml:space="preserve">
<path style="fill:#E09B2D;" d="M482.45,303.532v171.322c0,20.508-16.624,37.132-37.132,37.132h-0.013
	c-19.984,0-142.764-15.791-143.571-35.573c-0.027-0.511-0.04-1.035-0.04-1.559V285.375h162.6
	C474.322,285.375,482.45,293.505,482.45,303.532z"/>
<polygon style="fill:#F95428;" points="145.165,132.901 145.165,0 419.955,0 419.955,182.97 "/>
<polygon style="fill:#E6E6E6;" points="234.497,84.667 452.209,84.667 452.209,255.694 452.209,476.418 230.466,476.418 "/>
<g>
	<rect x="218.373" y="151.54" style="fill:#4D4D4D;" width="193.524" height="13.439"/>
	<rect x="218.373" y="188.498" style="fill:#4D4D4D;" width="193.524" height="13.439"/>
	<rect x="218.373" y="225.455" style="fill:#4D4D4D;" width="193.524" height="13.439"/>
</g>
<polygon style="fill:#2BA5F7;" points="67.849,234.508 67.849,38.968 264.437,38.968 342.64,117.157 342.64,291.302 "/>
<polygon style="fill:#2197D8;" points="264.437,117.157 264.437,38.968 342.64,117.157 "/>
<g>
	<rect x="109.516" y="120.63" style="fill:#4D4D4D;" width="118.265" height="13.439"/>
	<rect x="109.516" y="156.405" style="fill:#4D4D4D;" width="193.524" height="13.439"/>
</g>
<path style="fill:#F7B239;" d="M445.304,511.987V512H66.682c-20.508,0-37.132-16.624-37.132-37.132V225.92
	c0-14.917,12.095-27.026,27.013-27.026h96.883c11.128,0,21.113,6.827,25.172,17.189l15.495,39.605h184.372
	c16.396,0,29.687,13.291,29.687,29.687v38.759v150.72c0,0.524,0.013,1.048,0.04,1.559
	C409.018,496.196,425.32,511.987,445.304,511.987z"/>
<g>
	<rect x="67.854" y="320.874" style="fill:#E09B2D;" width="173.365" height="17.471"/>
	<rect x="67.854" y="357.159" style="fill:#E09B2D;" width="94.074" height="17.471"/>
</g>
</svg>