<?xml version="1.0" encoding="utf-8"?>
<!-- Uploaded to: SVG Repo, www.svgrepo.com, Generator: SVG Repo Mixer Tools -->
<svg width="800px" height="800px" viewBox="0 -20.14 138.145 138.145" xmlns="http://www.w3.org/2000/svg">
  <g id="Doughnut" transform="translate(-343.276 448.928)">
    <path id="path78" d="M413.824-407.622c-15.076,0-27.3-2.415-27.3-5.392s12.227-5.392,27.3-5.392,27.305,2.416,27.305,5.392S428.908-407.622,413.824-407.622Zm64.641-9.739c-.577-.987-9.887-12.049-9.887-12.049L441.13-442.9l-19.5-2.7-15.041-1.215-13.019,2.293-24.4,6.341L358.5-431.66l-12.276,12.369v12.412L369.168-387.7l8.763,7.124,8.085-.716,20.573-3.871,17.268.133,15.177,4.453,9.292-.716,23.5-21.771,6.635-7.732s.577-5.583,0-6.569" fill="#eb6bbc"/>
    <path id="path80" d="M478.428-407.824c-.095-.539-3.6,1.62-3.6,1.62l-9.173,9.624L443.98-380.391l-16.371-2.7-17.175-1.08-15.743,1.708-17.715,1.437L361.5-394.244l-13.848-12.5-1.437,18.256,5.665,14.575,20.172,12.949,31.093,6.295,23.591-.539,23.357-3.508,21.045-12.951,7.285-10.88s.088-24.736,0-25.276" fill="#f3ac7c"/>
    <path id="path82" d="M440.18-422.866l-16.66-4.452-15.177-.944-16.863,4.317-3.171.808-7.016,3.643,3.036,4.52L405.24-420.5l16.864,1.8,12.141,2.988s5.667,2.024,5.868,2.024,3.441-3.44,3.239-4.047-3.172-5.127-3.172-5.127" fill="#d951b0"/>
    <path id="path84" d="M471.631-376.592a43.951,43.951,0,0,1-13.076,9.692,86.937,86.937,0,0,1-20.591,7.276,116.089,116.089,0,0,1-25.616,2.8,116.09,116.09,0,0,1-25.616-2.8,86.893,86.893,0,0,1-20.591-7.276,43.959,43.959,0,0,1-13.077-9.692c-2.676-3.107-4.029-6.139-4.029-9.013v-16.519l22.579,20.532A16.434,16.434,0,0,0,382-377.8a11.871,11.871,0,0,0,1.96-.156l23.205-3.865a38.435,38.435,0,0,1,10.409.005l23.157,3.86a16.2,16.2,0,0,0,12.348-3.633l22.581-20.532v16.519c0,2.875-1.355,5.907-4.032,9.013ZM353.064-423.406a43.92,43.92,0,0,1,13.083-9.692,86.706,86.706,0,0,1,20.585-7.277q3.82-.866,7.761-1.463c-1.681,3.145-5.779,4.477-5.983,4.541a2.907,2.907,0,0,0-1.223.724,2.882,2.882,0,0,0,0,4.069,2.876,2.876,0,0,0,2.864.725c.56-.169,9.228-2.892,10.627-10.835v-.005q5.712-.55,11.569-.552a116.171,116.171,0,0,1,25.616,2.795,96.792,96.792,0,0,1,10.876,3.116,2.816,2.816,0,0,0-1.113.692,2.878,2.878,0,0,0,0,4.064,2.872,2.872,0,0,0,4.073,0,2.882,2.882,0,0,0,.456-3.467c2.195.887,4.3,1.839,6.3,2.872a43.952,43.952,0,0,1,13.076,9.692c2.677,3.107,4.032,6.139,4.032,9.013v4.485l-26.455,24.056a10.7,10.7,0,0,1-7.527,2.217L418.52-387.5a44.1,44.1,0,0,0-12.3,0l-23.205,3.869a10.691,10.691,0,0,1-7.524-2.217l-26.455-24.056v-4.485C349.035-417.267,350.388-420.3,353.064-423.406Zm59.284-25.523c-38.145,0-69.072,17.057-69.072,34.536v28.787c0,17.479,30.927,34.536,69.072,34.536s69.073-17.057,69.073-34.536v-28.787c0-17.479-30.928-34.536-69.073-34.536" fill="#100f0d"/>
    <path id="path86" d="M390.223-422.154c5.739-2.381,13.812-3.748,22.151-3.748s16.408,1.367,22.151,3.748c5.369,2.231,6.533,4.38,6.533,4.793a1.115,1.115,0,0,1-.193.5c-6.181-3.825-16.687-6.341-28.608-6.341-11.813,0-22.235,2.471-28.44,6.231a.942.942,0,0,1-.132-.388C383.684-417.774,384.847-419.923,390.223-422.154Zm44.3,9.592c-5.743,2.381-13.812,3.748-22.151,3.748s-16.412-1.367-22.151-3.748c-.48-.2-.928-.4-1.34-.595.379-.181.787-.359,1.223-.544,5.741-2.379,13.811-3.748,22.151-3.748s16.408,1.369,22.149,3.748c.481.2.927.4,1.34.6-.379.177-.788.357-1.221.54Zm-22.151,9.5c19.021,0,34.444-6.4,34.444-14.3s-15.423-14.3-34.444-14.3-34.443,6.408-34.443,14.3,15.42,14.3,34.443,14.3" fill="#100f0d"/>
    <path id="path88" d="M364.894-411.871v0a2.88,2.88,0,0,0,3.433-.476,2.889,2.889,0,0,0,0-4.073,2.839,2.839,0,0,0-.641-.48h0a3.293,3.293,0,0,1-2.045-2.859,4.98,4.98,0,0,1,.375-2.024l-.012.035,0-.005a2.874,2.874,0,0,0-.544-3.3,2.885,2.885,0,0,0-4.072,0,2.836,2.836,0,0,0-.548.767h0a10.584,10.584,0,0,0-.952,4.452,9.04,9.04,0,0,0,5.007,7.968" fill="#100f0d"/>
    <path id="path90" d="M452.079-397.174a.776.776,0,0,1-.1-.025h0C452.011-397.192,452.046-397.183,452.079-397.174Zm-10.54,1.453v.005a2.873,2.873,0,0,0,.431,3.508,2.887,2.887,0,0,0,4.072,0,2.866,2.866,0,0,0,.431-.557h.008c2.783-4.653,5.4-4.435,5.6-4.409a2.869,2.869,0,0,0,2.592-.795,2.876,2.876,0,0,0,0-4.067,2.85,2.85,0,0,0-1.369-.764h0l-.105-.025h-.017a8.278,8.278,0,0,0-4.292.431c-2.833,1-5.307,3.247-7.352,6.673" fill="#100f0d"/>
    <path id="path92" d="M455.527-422.832a.426.426,0,0,0,.005.076c0,.008,0,.012,0,.017a7.609,7.609,0,0,0,1.871,4.064c1.961,2.285,5.076,3.719,9.255,4.261v0a2.871,2.871,0,0,0,2.407-.817,2.875,2.875,0,0,0,0-4.064,2.818,2.818,0,0,0-1.669-.817v-.005c-5.616-.729-6.124-3.132-6.147-3.233a.878.878,0,0,1,.017.143h0a2.854,2.854,0,0,0-.831-1.845,2.887,2.887,0,0,0-4.073,0,2.872,2.872,0,0,0-.835,2.225h0" fill="#100f0d"/>
    <path id="path94" d="M423.014-435.379a2.868,2.868,0,0,0,0-4.072,2.875,2.875,0,0,0-4.064,0,2.873,2.873,0,0,0,0,4.072,2.875,2.875,0,0,0,4.064,0" fill="#100f0d"/>
    <path id="path96" d="M424.7-393.4a2.879,2.879,0,0,0,0,4.069,2.878,2.878,0,0,0,4.072,0,2.884,2.884,0,0,0,0-4.069,2.878,2.878,0,0,0-4.072,0" fill="#100f0d"/>
    <path id="path98" d="M401.682-396.276a2.87,2.87,0,0,0,0,4.069,2.868,2.868,0,0,0,4.064,0,2.865,2.865,0,0,0,0-4.069,2.866,2.866,0,0,0-4.064,0" fill="#100f0d"/>
    <path id="path100" d="M372.074-399.671a8.005,8.005,0,0,0,2.572,4.644c2.576,2.432,6.543,3.663,11.8,3.663h0a2.858,2.858,0,0,0,2.037-.843,2.875,2.875,0,0,0,0-4.069,2.874,2.874,0,0,0-2.037-.843h0c-6.273,0-8.415-2.185-8.671-3.34.015.08.02.132.02.132h-.005a2.807,2.807,0,0,0-.821-1.7,2.868,2.868,0,0,0-4.072,0,2.852,2.852,0,0,0-.817,2.359h-.005" fill="#100f0d"/>
  </g>
</svg>