<?xml version="1.0" encoding="utf-8"?>
<!-- Uploaded to: SVG Repo, www.svgrepo.com, Generator: SVG Repo Mixer Tools -->
<svg width="800px" height="800px" viewBox="0 -21.64 138.143 138.143" xmlns="http://www.w3.org/2000/svg">
  <g id="birthday_cake" data-name="birthday cake" transform="translate(-101.356 204.042)">
    <path id="path44" d="M208.877-160.52h-8.768l-6.476,2.564-18.889-1.619-8.9-.945-7.015,2.833-12.548.271-15.109-.945-8.634,1.755-1.079,30.624,3.912,2.564,92.954-.809,1.888-32.378-11.332-3.913" fill="#92444d"/>
    <path id="path46" d="M220.209-112.537H121.455v-11.691h98.754v11.691" fill="#f3ac7c"/>
    <path id="path48" d="M217.106-181.16h-93.9l-1.754,26.036s9.308-3.911,9.848-4.047,11.872.407,11.872.407l11.872,2.832,14.3-3.913,18.351,3.913,16.053-3.777,15.111,3.777,1.348-15.109-3.1-10.119" fill="#eb6bbc"/>
    <path id="path50" d="M178.793-195.022l-5.4-6.656-6.476,2.159-4.136,7.719-2.52,7.395,4.68,2.484s6.652-.869,7.731-1.016,7.916-5.971,7.916-5.971l-1.8-6.113" fill="#ed395e"/>
    <path id="path52" d="M124.38-120.908h8.141l-5.754,5.756H124.38Zm41.447-57.563h50.647v18.777l-5.093-2.04a21.281,21.281,0,0,0-12.783-.38L192.25-160a17.382,17.382,0,0,1-9.107,0l-6.341-2.117a23.225,23.225,0,0,0-12.743,0L157.712-160a17.367,17.367,0,0,1-9.1,0l-6.345-2.117a21.29,21.29,0,0,0-12.786.38l-5.1,2.04V-178.47Zm-2.749-6.356c-.216-.271-.481-1.877.573-4.656a19.126,19.126,0,0,1,5.379-7.639,4.432,4.432,0,0,1,2.349-1.172c.252,0,1.011.127,2.317,1.3a2.876,2.876,0,0,0-.295,3.908,2.876,2.876,0,0,0,3.881.569,5.273,5.273,0,0,1,.775,2.107c.025.292.085,1.063-1.677,2.476a18.779,18.779,0,0,1-10.529,3.709h-.024a4.458,4.458,0,0,1-2.749-.6Zm45.091,69.674,5.759-5.756h2.547v5.756Zm-18.66-5.756h16.273l-5.751,5.756H183.75Zm-30.179,5.756,5.755-5.756h16.279l-5.757,5.756Zm-2.387-5.756-5.755,5.756H134.908l5.755-5.756ZM124.38-153.5l7.239-2.891a8.666,8.666,0,0,1,1.4-.421v4.24h0a2.879,2.879,0,0,0,.844,2.04,2.88,2.88,0,0,0,4.068,0,2.861,2.861,0,0,0,.843-2.04h0v-4.457a9.964,9.964,0,0,1,1.675.376l6.348,2.117a17.912,17.912,0,0,0,3.491.733v6.991h0a2.86,2.86,0,0,0,.844,2.031,2.873,2.873,0,0,0,4.068,0,2.842,2.842,0,0,0,.843-2.031h0V-153.8a17.913,17.913,0,0,0,3.495-.733l6.345-2.117a10.576,10.576,0,0,1,1.675-.391v13.107h0a2.871,2.871,0,0,0,.843,2.036,2.878,2.878,0,0,0,4.072,0,2.867,2.867,0,0,0,.839-2.036h0V-157.04a10.522,10.522,0,0,1,1.676.391l6.349,2.117a17.849,17.849,0,0,0,3.491.733v4.109h0a2.863,2.863,0,0,0,.844,2.037,2.883,2.883,0,0,0,4.072,0,2.893,2.893,0,0,0,.835-2.037V-153.8a17.893,17.893,0,0,0,3.5-.733l6.341-2.117a10,10,0,0,1,1.677-.376v4.457a2.851,2.851,0,0,0,.844,2.036,2.868,2.868,0,0,0,4.064,0,2.855,2.855,0,0,0,.843-2.036h0v-4.24a8.6,8.6,0,0,1,1.4.421l7.235,2.891v26.831H124.38Zm114.278,39.188a2.861,2.861,0,0,0-2.032-.844H222.233V-178.47a5.757,5.757,0,0,0-5.759-5.755H213.6a2.863,2.863,0,0,0-.844-2.036,2.875,2.875,0,0,0-4.064,0,2.861,2.861,0,0,0-.843,2.036h-5.76a2.861,2.861,0,0,0-.843-2.036,2.887,2.887,0,0,0-4.073,0,2.9,2.9,0,0,0-.841,2.036h-5.76a2.892,2.892,0,0,0-.835-2.036,2.885,2.885,0,0,0-4.072,0,2.863,2.863,0,0,0-.844,2.036h-3.937c3.2-3.011,3.507-6.2,2.243-9.388a3.042,3.042,0,0,0,.616-.372,2.88,2.88,0,0,0,.447-4.047,2.879,2.879,0,0,0-4.048-.445h0a2.884,2.884,0,0,0,.456-4.049,2.879,2.879,0,0,0-4.047-.445,2.815,2.815,0,0,0-.5.512,8.254,8.254,0,0,0-4.673-1.583,9.539,9.539,0,0,0-5.945,2.427c-4.94,3.947-9.165,11.923-8.161,17.391h-1.236a2.861,2.861,0,0,0-.843-2.036,2.88,2.88,0,0,0-4.068,0,2.879,2.879,0,0,0-.844,2.036h-5.759a2.874,2.874,0,0,0-.839-2.036,2.887,2.887,0,0,0-4.073,0,2.884,2.884,0,0,0-.843,2.036h-5.754a2.882,2.882,0,0,0-.843-2.036,2.886,2.886,0,0,0-4.073,0,2.877,2.877,0,0,0-.839,2.036h-2.88a5.754,5.754,0,0,0-5.755,5.755v63.318H104.233a2.869,2.869,0,0,0-2.032.844,2.87,2.87,0,0,0,0,4.066,2.851,2.851,0,0,0,2.032.844h73.3l.228.227.228-.227h58.635a2.843,2.843,0,0,0,2.032-.844,2.878,2.878,0,0,0,0-4.066" fill="#100f0d"/>
    <path id="path54" d="M137.926-170.678a2.875,2.875,0,0,0,0-4.069,2.873,2.873,0,0,0-4.068,0,2.873,2.873,0,0,0,0,4.069,2.873,2.873,0,0,0,4.068,0" fill="#100f0d"/>
    <path id="path56" d="M155.194-162.045a2.873,2.873,0,0,0,0-4.068,2.873,2.873,0,0,0-4.068,0,2.871,2.871,0,0,0,0,4.068,2.873,2.873,0,0,0,4.068,0" fill="#100f0d"/>
    <path id="path58" d="M172.509-170.678a2.882,2.882,0,0,0,0-4.069,2.878,2.878,0,0,0-4.072,0,2.879,2.879,0,0,0,0,4.069,2.878,2.878,0,0,0,4.072,0" fill="#100f0d"/>
    <path id="path60" d="M189.737-162.045a2.88,2.88,0,0,0,0-4.068,2.878,2.878,0,0,0-4.072,0,2.88,2.88,0,0,0,0,4.068,2.878,2.878,0,0,0,4.072,0" fill="#100f0d"/>
    <path id="path62" d="M207-170.678a2.882,2.882,0,0,0,0-4.069,2.878,2.878,0,0,0-4.072,0,2.882,2.882,0,0,0,0,4.069,2.878,2.878,0,0,0,4.072,0" fill="#100f0d"/>
  </g>
</svg>