<?xml version="1.0" encoding="UTF-8" standalone="no"?>
<!-- Uploaded to: SVG Repo, www.svgrepo.com, Generator: SVG Repo Mixer Tools -->

<svg
   version="1.1"
   id="Layer_1"
   viewBox="0 0 356.992 519.992"
   xml:space="preserve"
   sodipodi:docname="library-book-svgrepo-com.svg"
   width="356.992"
   height="519.992"
   inkscape:version="1.2.2 (b0a8486541, 2022-12-01)"
   xmlns:inkscape="http://www.inkscape.org/namespaces/inkscape"
   xmlns:sodipodi="http://sodipodi.sourceforge.net/DTD/sodipodi-0.dtd"
   xmlns="http://www.w3.org/2000/svg"
   xmlns:svg="http://www.w3.org/2000/svg"><defs
   id="defs117" /><sodipodi:namedview
   id="namedview115"
   pagecolor="#505050"
   bordercolor="#ffffff"
   borderopacity="1"
   inkscape:showpageshadow="0"
   inkscape:pageopacity="0"
   inkscape:pagecheckerboard="1"
   inkscape:deskcolor="#505050"
   showgrid="false"
   inkscape:zoom="0.9218894"
   inkscape:cx="291.79205"
   inkscape:cy="215.31867"
   inkscape:window-width="1534"
   inkscape:window-height="1031"
   inkscape:window-x="1496"
   inkscape:window-y="40"
   inkscape:window-maximized="0"
   inkscape:current-layer="Layer_1" />

<g
   id="g24"
   transform="translate(7.8450012,8.0000044)">
	
	
	
	
	
	<path
   style="fill:#7f4545"
   d="m 32,511.992 c -5.891,0 -10.672,-4.781 -10.672,-10.656 v -21.344 c 0,-5.891 4.781,-10.656 10.672,-10.656 5.891,0 10.656,4.766 10.656,10.656 v 21.344 c 0,5.875 -4.765,10.656 -10.656,10.656 z"
   id="path18" />
	<path
   style="fill:#7f4545"
   d="m 309.324,511.992 c -5.891,0 -10.672,-4.781 -10.672,-10.656 v -21.344 c 0,-5.891 4.781,-10.656 10.672,-10.656 5.891,0 10.672,4.765 10.672,10.656 v 21.344 c 0,5.875 -4.781,10.656 -10.672,10.656 z"
   id="path20" />
	<rect
   x="12.657"
   y="10.664"
   style="fill:#7f4545"
   width="319.98999"
   height="469.32999"
   id="rect22" />
</g>
<rect
   x="135.841"
   y="274.65601"
   style="fill:#48cfad"
   width="85.330002"
   height="42.68"
   id="rect26" />
<rect
   x="135.841"
   y="39.996006"
   style="fill:#ffce54"
   width="42.654999"
   height="85.330002"
   id="rect28" />
<path
   style="fill:#965353"
   d="M 338.496,8.0000044 H 18.502001 c -5.891,0 -10.6559998,4.7729996 -10.6559998,10.6639996 V 487.992 c 0,5.891 4.7659998,10.656 10.6559998,10.656 H 338.496 c 5.891,0 10.672,-4.766 10.672,-10.656 V 18.664004 c 0,-5.89 -4.781,-10.6639996 -10.672,-10.6639996 z M 29.173001,146.662 H 327.841 v 95.999 H 29.173001 Z m 0,117.334 H 327.841 v 95.998 H 29.173001 Z M 327.841,29.336004 V 125.334 H 29.173001 V 29.336004 Z M 29.173001,477.336 V 381.338 H 327.841 v 95.998 z"
   id="path30" />
<rect
   x="263.841"
   y="274.65601"
   style="fill:#48cfad"
   width="42.655998"
   height="85.330002"
   id="rect32" />
<g
   id="g38"
   transform="translate(7.8450012,8.0000044)">
	<rect
   x="213.326"
   y="266.65601"
   style="fill:#ed5564"
   width="42.671001"
   height="85.330002"
   id="rect34" />
	<rect
   x="85.325996"
   y="149.336"
   style="fill:#ed5564"
   width="42.671001"
   height="85.330002"
   id="rect36" />
</g>
<rect
   x="135.841"
   y="157.336"
   style="fill:#5d9cec"
   width="42.654999"
   height="85.330002"
   id="rect40" />
<rect
   x="178.50101"
   y="157.336"
   style="fill:#a0d468"
   width="42.671001"
   height="85.330002"
   id="rect42" />
<rect
   x="263.841"
   y="39.996006"
   style="fill:#ac92eb"
   width="42.655998"
   height="85.330002"
   id="rect44" />
<rect
   x="50.500999"
   y="82.666008"
   style="fill:#a0d468"
   width="85.339996"
   height="42.671001"
   id="rect46" />
<rect
   x="50.500999"
   y="40.735004"
   style="fill:#ed5564"
   width="85.339996"
   height="42.662998"
   id="rect48" />
<g
   id="g56"
   transform="translate(7.8450012,8.0000044)">
	<rect
   x="94.655998"
   y="149.336"
   style="fill:#e6e9ed"
   width="24"
   height="85.330002"
   id="rect50" />
	<rect
   x="265.32599"
   y="31.996"
   style="fill:#e6e9ed"
   width="24"
   height="85.330002"
   id="rect52" />
	<rect
   x="137.326"
   y="31.996"
   style="fill:#e6e9ed"
   width="24"
   height="85.330002"
   id="rect54" />
</g>
<rect
   x="50.500999"
   y="434.646"
   style="fill:#ed5564"
   width="85.339996"
   height="42.686001"
   id="rect58" />
<g
   id="g66"
   transform="translate(7.8450012,8.0000044)">
	<rect
   x="42.655998"
   y="435.996"
   style="fill:#e6e9ed"
   width="85.339996"
   height="23.997999"
   id="rect60" />
	<rect
   x="127.996"
   y="275.996"
   style="fill:#e6e9ed"
   width="85.330002"
   height="24"
   id="rect62" />
	<rect
   x="42.655998"
   y="83.996002"
   style="fill:#e6e9ed"
   width="85.339996"
   height="24"
   id="rect64" />
</g>
<rect
   x="221.17101"
   y="39.996006"
   style="fill:#5d9cec"
   width="42.671001"
   height="85.330002"
   id="rect68" />
<rect
   x="178.50101"
   y="39.996006"
   style="fill:#ed5564"
   width="42.671001"
   height="85.330002"
   id="rect70" />
<rect
   x="50.500999"
   y="157.336"
   style="fill:#48cfad"
   width="42.672001"
   height="85.330002"
   id="rect72" />
<rect
   x="221.17101"
   y="199.996"
   style="fill:#ffce54"
   width="85.330002"
   height="42.662998"
   id="rect74" />
<rect
   x="221.17101"
   y="157.336"
   style="fill:#ed5564"
   width="85.330002"
   height="42.664001"
   id="rect76" />
<rect
   x="50.500999"
   y="274.65601"
   style="fill:#ffce54"
   width="42.672001"
   height="85.330002"
   id="rect78" />
<rect
   x="93.170998"
   y="274.65601"
   style="fill:#ac92eb"
   width="42.671001"
   height="85.330002"
   id="rect80" />
<rect
   x="135.841"
   y="317.336"
   style="fill:#a0d468"
   width="85.330002"
   height="42.653999"
   id="rect82" />
<rect
   x="263.841"
   y="391.996"
   style="fill:#ffce54"
   width="42.655998"
   height="85.339996"
   id="rect84" />
<rect
   x="135.841"
   y="391.996"
   style="fill:#5d9cec"
   width="42.654999"
   height="85.339996"
   id="rect86" />
<rect
   x="178.50101"
   y="391.996"
   style="fill:#ac92eb"
   width="42.671001"
   height="85.339996"
   id="rect88" />
<rect
   x="221.17101"
   y="391.996"
   style="fill:#48cfad"
   width="42.671001"
   height="85.339996"
   id="rect90" />
<rect
   x="50.500999"
   y="391.996"
   style="fill:#a0d468"
   width="85.339996"
   height="42.655998"
   id="rect92" />

<g
   id="g112"
   transform="translate(7.8450012,8.0000044)">
	<rect
   x="213.326"
   y="158.666"
   style="fill:#e6e9ed"
   width="85.330002"
   height="24"
   id="rect100" />
	<rect
   x="127.996"
   y="318.65601"
   style="fill:#e6e9ed"
   width="85.330002"
   height="23.997999"
   id="rect102" />
	<rect
   x="51.995998"
   y="266.65601"
   style="fill:#e6e9ed"
   width="24"
   height="85.330002"
   id="rect104" />
	<rect
   x="179.996"
   y="383.996"
   style="fill:#e6e9ed"
   width="23.999001"
   height="85.339996"
   id="rect106" />
	<rect
   x="222.65601"
   y="383.996"
   style="fill:#e6e9ed"
   width="23.999001"
   height="85.339996"
   id="rect108" />
	<rect
   x="265.32599"
   y="383.996"
   style="fill:#e6e9ed"
   width="24"
   height="85.339996"
   id="rect110" />
</g>
</svg>
