<?xml version="1.0" encoding="utf-8"?>
<!-- Uploaded to: SVG Repo, www.svgrepo.com, Generator: SVG Repo Mixer Tools -->
<svg width="800px" height="800px" viewBox="0 0 1024 1024" class="icon"  version="1.1" xmlns="http://www.w3.org/2000/svg"><path d="M349.3 251.5c0-17.2-14-31.2-31.2-31.2H208.2c-17.2 0-31.2 14-31.2 31.2v369c0 17.2 14 31.2 31.2 31.2h109.9c17.2 0 31.2-14 31.2-31.2v-369z" fill="#FFB819" /><path d="M521.5 166.1c0-17.2-14-31.2-31.2-31.2H380.5c-17.2 0-31.2 14-31.2 31.2v369c0 17.2 14 31.2 31.2 31.2h109.9c17.2 0 31.2-14 31.2-31.2v-369z" fill="#0071CE" /><path d="M421.1 217.9h28.7v265.4h-28.7z" fill="#00B3E3" /><path d="M177 297h344.5v63.6H177z" fill="" /><path d="M635.6 157c-12.1-12.1-32-12.1-44.1 0l-60.8 60.8c-12.1 12.1-12.1 32 0 44.1l234 234.1c12.1 12.1 32 12.1 44.1 0l60.8-60.8c12.1-12.1 12.1-32 0-44.1L635.6 157z" fill="#00AD68" /><path d="M616.7 243m-14.3 0a14.3 14.3 0 1 0 28.6 0 14.3 14.3 0 1 0-28.6 0Z" fill="#FFFFFF" /><path d="M665.336 271.307L808.1 414.07l-20.294 20.294L645.043 291.6z" fill="#FFFFFF" /><path d="M775.6 297H565.7l63.6 63.5h209.9z" fill="" /><path d="M118.2 368.4h786.1v505.9H118.2z" fill="#D1D3D3" /><path d="M118.2 586.2H201v39.9h-82.8zM249 469.9h82.8v39.9H249zM504.3 457.3h82.8v39.9h-82.8zM376.5 393.3h82.8v39.9h-82.8zM821.4 514.2h82.8v39.9h-82.8zM807.7 759.2h82.8v39.9h-82.8zM633.6 796.5h82.8v39.9h-82.8zM486.5 683.8h82.8v39.9h-82.8zM152.4 792.6h82.8v39.9h-82.8z" fill="" /><path d="M118.2 368.4h786.1v74.7H118.2z" fill="" /><path d="M937.3 394.1c0 10.5-8.6 19.1-19.1 19.1h-814c-10.5 0-19.1-8.6-19.1-19.1v-45c0-10.5 8.6-19.1 19.1-19.1h813.9c10.5 0 19.1 8.6 19.1 19.1l0.1 45zM527.9 458.3h321.2v346.6H527.9z" fill="#333E48" /><path d="M664.6 602c0 5.7-4.7 10.4-10.4 10.4h-75.8c-5.7 0-10.4-4.7-10.4-10.4v-96c0-5.7 4.7-10.4 10.4-10.4h75.8c5.7 0 10.4 4.7 10.4 10.4v96z" fill="#00AD68" /><path d="M594.2 521.7h44.2v28.7h-44.2z" fill="#FFFFFF" /><path d="M809.1 602c0 5.7-4.7 10.4-10.4 10.4h-75.8c-5.7 0-10.4-4.7-10.4-10.4v-96c0-5.7 4.7-10.4 10.4-10.4h75.8c5.7 0 10.4 4.7 10.4 10.4v96z" fill="#0071CE" /><path d="M738.7 521.7h44.2v28.7h-44.2z" fill="#FFFFFF" /><path d="M664.6 757.2c0 5.7-4.7 10.4-10.4 10.4h-75.8c-5.7 0-10.4-4.7-10.4-10.4v-96.1c0-5.7 4.7-10.4 10.4-10.4h75.8c5.7 0 10.4 4.7 10.4 10.4v96.1z" fill="#00B3E3" /><path d="M594.2 676.9h44.2v28.7h-44.2z" fill="#FFFFFF" /><path d="M809.1 757.2c0 5.7-4.7 10.4-10.4 10.4h-75.8c-5.7 0-10.4-4.7-10.4-10.4v-96.1c0-5.7 4.7-10.4 10.4-10.4h75.8c5.7 0 10.4 4.7 10.4 10.4v96.1z" fill="#FFB819" /><path d="M738.7 676.9h44.2v28.7h-44.2z" fill="#FFFFFF" /><path d="M193.8 534.1h258.5v340.2H193.8z" fill="#D68231" /><path d="M239.4 583h167.3v120.2H239.4z" fill="#333E48" /><path d="M283.3 621.1h79.4v28.7h-79.4z" fill="#FFFFFF" /><path d="M253.7 759.3m-14.3 0a14.3 14.3 0 1 0 28.6 0 14.3 14.3 0 1 0-28.6 0Z" fill="#333E48" /><path d="M959.2 879.8c0 4.2-3.5 7.7-7.7 7.7H70.9c-4.2 0-7.7-3.5-7.7-7.7v-27.6c0-4.2 3.5-7.7 7.7-7.7h880.6c4.2 0 7.7 3.5 7.7 7.7v27.6z" fill="#A4A9AD" /></svg>