<?xml version="1.0" encoding="utf-8"?>
<!-- Uploaded to: SVG Repo, www.svgrepo.com, Generator: SVG Repo Mixer Tools -->
<svg width="800px" height="800px" viewBox="0 0 1024 1024" class="icon"  version="1.1" xmlns="http://www.w3.org/2000/svg"><path d="M168 667.2h196.2v292.9H168z" fill="#0071CE" /><path d="M168 667.2h196.2v200.6H168z" fill="" /><path d="M660.8 667.2H857v292.9H660.8z" fill="#0071CE" /><path d="M660.8 667.2H857v200.6H660.8z" fill="" /><path d="M857 812V208c0-80.9-66.2-147.1-147.1-147.1H315.2c-81 0-147.2 66.2-147.2 147.1v604h689z" fill="#0071CE" /><path d="M709.9 60.9H315.2c-81 0-147.2 66.2-147.2 147.1v188.4h689V208c0-80.9-66.2-147.1-147.1-147.1z" fill="#00B3E3" /><path d="M740.7 486.7c0-16.2-13.3-29.5-29.5-29.5H313.9c-16.2 0-29.5 13.3-29.5 29.5v223c0 16.2 13.3 29.5 29.5 29.5h397.3c16.2 0 29.5-13.3 29.5-29.5v-223zM705.4 175.6c0-16.2-13.3-29.5-29.5-29.5H349.1c-16.2 0-29.5 13.3-29.5 29.5v130c0 16.2 13.3 29.5 29.5 29.5h326.8c16.2 0 29.5-13.3 29.5-29.5v-130z" fill="" /><path d="M591.8 235.9H433.2c-8 0-14.6-6.5-14.6-14.6s6.5-14.6 14.6-14.6h158.6c8 0 14.6 6.5 14.6 14.6s-6.5 14.6-14.6 14.6z" fill="#0071CE" /><path d="M413.9 648.9v-88.1l90.3 62.8c2.5 1.7 5.4 2.6 8.3 2.6 2.9 0 5.8-0.9 8.3-2.6l90.3-62.8v88.1H413.9z m165.3-101.4l-66.7 46.4-66.7-46.4h133.4z m46.4-29.1H399.4c-8 0-14.6 6.5-14.6 14.6v130.5c0 8 6.5 14.6 14.6 14.6h226.2c8 0 14.6-6.5 14.6-14.6V532.9c0-8-6.5-14.5-14.6-14.5z" fill="#FFFFFF" /></svg>