<?xml version="1.0" encoding="iso-8859-1"?>
<!-- Uploaded to: SVG Repo, www.svgrepo.com, Generator: SVG Repo Mixer Tools -->
<svg height="800px" width="800px" version="1.1" id="Layer_1" xmlns="http://www.w3.org/2000/svg" xmlns:xlink="http://www.w3.org/1999/xlink" 
	 viewBox="0 0 512 512" xml:space="preserve">
<path style="fill:#FF5050;" d="M394.736,502.635L263.442,439.18c-4.701-2.273-10.184-2.273-14.885,0l-131.294,63.455
	c-11.273,4.746-23.74-3.531-23.74-15.762V25.12c0-9.446,7.657-17.103,17.103-17.103h290.745c9.446,0,17.103,7.657,17.103,17.103
	v461.753C418.475,499.105,406.008,507.382,394.736,502.635z"/>
<path d="M285.172,134.573c-49.944-14.726-103.655,17.639-119.731,72.153c-7.748,26.271-5.709,53.756,5.739,77.392
	c11.574,23.896,31.348,41.007,55.681,48.184c8.088,2.385,16.384,3.558,24.684,3.558c19.073,0,38.161-6.199,54.748-18.134
	c3.594-2.586,4.41-7.596,1.826-11.189c-2.587-3.595-7.596-4.41-11.189-1.826c-19.757,14.217-43.646,18.665-65.532,12.211
	c-19.946-5.881-36.207-20.014-45.786-39.794c-9.706-20.039-11.406-43.43-4.79-65.867c13.575-46.034,58.349-73.54,99.816-61.31
	c33.662,9.928,53.778,45.85,53.778,74.843c0,28.889-11.981,39.368-19.123,43.043c-8.481,4.364-16.974,2.962-21.632-0.366
	c-3.652-2.609-5.171-6.265-4.513-10.867l8.488-53.056c0.78-4.879-0.475-9.955-3.442-13.928c-2.977-3.984-7.307-6.527-12.196-7.162
	c-28.332-3.672-50.509,7.738-65.922,33.913c-8.867,15.059-11.308,30.605-6.873,43.777c3.412,10.134,10.518,17.859,20.01,21.75
	c9.534,3.908,21.656,2.501,33.261-3.863c4.563-2.502,8.768-5.587,12.501-9.101c1.879,4.53,5.045,8.496,9.366,11.582
	c10.518,7.513,25.547,8.132,38.289,1.576c17.681-9.099,27.821-29.983,27.821-57.3C350.448,184.336,322.385,145.549,285.172,134.573z
	 M281.804,201.019l-5.601,35.006c-1.99,10.934-10.401,21.902-21.44,27.956c-7.232,3.966-14.509,5.119-19.469,3.086
	c-5.122-2.099-8.992-6.372-10.897-12.031c-2.928-8.696-0.977-19.536,5.494-30.525c10.533-17.889,24.414-26.668,42.275-26.668
	c2.511,0,5.1,0.173,7.77,0.519c0.708,0.092,1.159,0.516,1.413,0.857C281.577,199.526,281.939,200.166,281.804,201.019z"/>
<path d="M401.373,0H110.627c-13.851,0-25.12,11.269-25.12,25.12v461.753c0,8.437,4.197,16.26,11.225,20.927
	c7.028,4.666,15.867,5.499,23.642,2.224c0.127-0.053,0.253-0.11,0.378-0.17L256,444.488l135.247,65.366
	c0.124,0.06,0.25,0.117,0.378,0.17c3.142,1.323,6.457,1.975,9.757,1.975c4.866,0,9.697-1.42,13.885-4.2
	c7.028-4.667,11.225-12.49,11.225-20.927V25.12C426.492,11.269,415.224,0,401.373,0z M410.458,486.873
	c0,3.097-1.479,5.857-4.06,7.57c-2.531,1.681-5.579,1.996-8.389,0.871l-138.521-66.948c-2.204-1.066-4.774-1.066-6.977,0
	l-138.521,66.948c-2.809,1.123-5.857,0.808-8.389-0.871c-2.58-1.713-4.06-4.472-4.06-7.57V25.12c0-5.01,4.076-9.086,9.086-9.086
	h9.086v445.203c0,4.427,3.589,8.017,8.017,8.017c4.427,0,8.017-3.589,8.017-8.017V16.034h240.506v445.203
	c0,4.427,3.589,8.017,8.017,8.017c4.427,0,8.017-3.589,8.017-8.017V16.034h9.086c5.01,0,9.086,4.076,9.086,9.086v461.753H410.458z"
	/>
</svg>