<?xml version="1.0" encoding="UTF-8" standalone="no"?>
<!-- Uploaded to: SVG Repo, www.svgrepo.com, Generator: SVG Repo Mixer Tools -->

<svg
   fill="#000000"
   version="1.1"
   id="Capa_1"
   width="800px"
   height="800px"
   viewBox="0 0 150.223 150.223"
   xml:space="preserve"
   sodipodi:docname="Math6.svg"
   inkscape:version="1.2.2 (b0a8486541, 2022-12-01)"
   xmlns:inkscape="http://www.inkscape.org/namespaces/inkscape"
   xmlns:sodipodi="http://sodipodi.sourceforge.net/DTD/sodipodi-0.dtd"
   xmlns="http://www.w3.org/2000/svg"
   xmlns:svg="http://www.w3.org/2000/svg"><defs
   id="defs12935" /><sodipodi:namedview
   id="namedview12933"
   pagecolor="#505050"
   bordercolor="#ffffff"
   borderopacity="1"
   inkscape:showpageshadow="0"
   inkscape:pageopacity="0"
   inkscape:pagecheckerboard="1"
   inkscape:deskcolor="#505050"
   showgrid="false"
   inkscape:zoom="0.295"
   inkscape:cx="-74.576271"
   inkscape:cy="406.77966"
   inkscape:window-width="1920"
   inkscape:window-height="1049"
   inkscape:window-x="0"
   inkscape:window-y="0"
   inkscape:window-maximized="1"
   inkscape:current-layer="Capa_1" />
<g
   id="g12930"
   transform="rotate(-45,75.111001,75.111)"
   style="fill:#e8f9f9;fill-opacity:1;stroke-width:4.64282959;stroke-dasharray:none;stroke:#000000;stroke-opacity:1">
	<g
   id="g12928"
   style="fill:#e8f9f9;fill-opacity:1;stroke-width:4.64282959;stroke-dasharray:none;stroke:#000000;stroke-opacity:1">
		<path
   d="m 115.885,38.631 c -21.312,0 -35.416,17.425 -47.859,32.802 -10.631,13.136 -20.67,25.54 -32.897,25.54 -12.709,0 -20.512,-13.062 -20.512,-22.426 0,-8.682 8.56,-21.299 21.976,-21.299 13.018,0 19.8,10.419 20.142,10.953 2.109,3.413 6.587,4.487 10.017,2.395 3.447,-2.1 4.539,-6.597 2.438,-10.044 C 68.744,55.822 58.023,38.632 36.593,38.632 15.029,38.632 0,57.562 0,74.548 c 0,17.521 14.427,37.043 35.128,37.043 19.199,0 31.94,-15.74 44.259,-30.963 11.396,-14.078 22.161,-27.379 36.498,-27.379 8.53,0 14.135,2.894 17.131,8.84 2.596,5.16 2.594,10.999 2.592,13.022 0,1.16 -0.613,6.978 -3.451,12.217 -3.236,5.968 -7.83,8.746 -14.469,8.746 -13.369,0 -20.592,-8.69 -23.312,-11.963 -0.707,-0.852 -1.216,-1.465 -1.896,-2.047 -3.062,-2.623 -7.678,-2.271 -10.306,0.795 -2.534,2.957 -2.29,7.353 0.478,10.014 0.132,0.15 0.291,0.347 0.48,0.576 3.545,4.266 14.324,17.24 34.553,17.24 24.586,0 32.537,-23.973 32.537,-35.678 0.002,-7.455 -1.394,-14.013 -4.154,-19.496 -3.875,-7.7 -12.259,-16.884 -30.183,-16.884 z"
   id="path12926"
   style="fill:#e8f9f9;fill-opacity:1;stroke-width:4.64282959;stroke-dasharray:none;stroke:#000000;stroke-opacity:1" />
	</g>
</g>
<g
   id="g13244"
   transform="matrix(0.2934043,0,0,0.2934043,-381.28634,-120.30571)"><g
     id="_x34_97_x2C__pen_x2C__calculator_x2C__scale_x2C__education">

<g
   id="g13172">

<path
   d="m 331,147 v 308 c 0,11.6 -9.4,21 -21,21 H 82 C 70.4,476 61,466.6 61,455 V 147 c 0,-11.6 9.4,-21 21,-21 h 228 c 11.6,0 21,9.4 21,21 z"
   style="fill:#57606f"
   id="path13054" />

<path
   d="m 73,468.75 v -308 c 0,-11.6 9.4,-21 21,-21 h 228 c 2.921,0 5.701,0.599 8.229,1.676 C 327.784,132.537 319.666,126 310,126 H 82 c -11.6,0 -21,9.4 -21,21 v 308 c 0,8.679 5.263,16.123 12.771,19.324 C 73.283,472.547 73,470.684 73,468.75 Z"
   style="fill:#414a56"
   id="path13056" />

<rect
   height="50"
   style="fill:#a28671"
   width="230"
   x="61"
   y="36"
   id="rect13058" />

<polygon
   points="291,36 61,36 61,86 69.667,86 69.667,45.667 291,45.667 "
   style="fill:#8e725d"
   id="polygon13060" />

<path
   d="m 416,36 c 13.81,0 25,11.19 25,25 0,6.9 -2.8,13.16 -7.32,17.68 C 429.16,83.2 422.9,86 416,86 H 291 V 36 Z"
   style="fill:#f6e58d"
   id="path13062" />

<path
   d="m 298.875,44.188 h 125 c 5.023,0 9.696,1.486 13.613,4.035 C 433.129,40.904 425.14,36 416,36 H 291 v 50 h 7.875 z"
   style="fill:#e5cf70"
   id="path13064" />

<polygon
   points="371,156 451,156 451,476 371,476 371,436 371,396 371,356 371,316 371,276 371,236 371,196 "
   style="fill:#f6e58d"
   id="polygon13066" />

<polygon
   points="381.167,366 381.167,326 381.167,286 381.167,246 381.167,206 381.167,166 451,166 451,156 371,156 371,196 371,236 371,276 371,316 371,356 371,396 371,436 371,476 381.167,476 381.167,446 381.167,406 "
   style="fill:#e5cf70"
   id="polygon13068" />

<path
   d="m 291,166 v 60 H 101 v -60 z m -20,40 v -20 h -20 v 20 z m -30,0 v -20 h -20 v 20 z m -30,0 v -20 h -20 v 20 z"
   style="fill:#e8f9f9"
   id="path13070" />

<g
   id="g13078">

<g
   id="g13076">

<g
   id="g13074">

<polygon
   points="291,166 101,166 101,226 109.167,226 109.167,174.5 291,174.5 "
   style="fill:#cce5e4"
   id="polygon13072" />

</g>

</g>

</g>

<rect
   height="100"
   style="fill:#febe76"
   width="30"
   x="261"
   y="336"
   id="rect13080" />

<polygon
   points="291,336 261,336 261,436 268.5,436 268.5,344.188 291,344.188 "
   style="fill:#e8a664"
   id="polygon13082" />

<rect
   height="20"
   width="20"
   x="251"
   y="186"
   id="rect13084" />

<rect
   height="20"
   width="20"
   x="221"
   y="186"
   id="rect13086" />

<rect
   height="20"
   width="20"
   x="191"
   y="186"
   id="rect13088" />

<path
   d="M 310,481 H 82 C 67.664,481 56,469.337 56,455 V 147 c 0,-14.336 11.664,-26 26,-26 h 228 c 14.337,0 26,11.664 26,26 v 308 c 0,14.337 -11.663,26 -26,26 z M 82,131 c -8.822,0 -16,7.178 -16,16 v 308 c 0,8.822 7.178,16 16,16 h 228 c 8.822,0 16,-7.178 16,-16 V 147 c 0,-8.822 -7.178,-16 -16,-16 z"
   id="path13090" />

<path
   d="M 291,231 H 101 c -2.761,0 -5,-2.239 -5,-5 v -60 c 0,-2.761 2.239,-5 5,-5 h 190 c 2.762,0 5,2.239 5,5 v 60 c 0,2.761 -2.238,5 -5,5 z M 106,221 H 286 V 171 H 106 Z"
   id="path13092" />

<path
   d="m 291,441 h -30 c -2.762,0 -5,-2.238 -5,-5 V 336 c 0,-2.762 2.238,-5 5,-5 h 30 c 2.762,0 5,2.238 5,5 v 100 c 0,2.762 -2.238,5 -5,5 z m -25,-10 h 20 v -90 h -20 z"
   id="path13094" />

<path
   d="m 451,481 h -80 c -2.762,0 -5,-2.238 -5,-5 V 156 c 0,-2.761 2.238,-5 5,-5 h 80 c 2.762,0 5,2.239 5,5 v 320 c 0,2.762 -2.238,5 -5,5 z m -75,-10 h 70 V 161 h -70 z"
   id="path13096" />

<path
   d="m 411,441 h -40 c -2.762,0 -5,-2.238 -5,-5 0,-2.762 2.238,-5 5,-5 h 40 c 2.762,0 5,2.238 5,5 0,2.762 -2.238,5 -5,5 z"
   id="path13098" />

<path
   d="m 411,401 h -40 c -2.762,0 -5,-2.238 -5,-5 0,-2.762 2.238,-5 5,-5 h 40 c 2.762,0 5,2.238 5,5 0,2.762 -2.238,5 -5,5 z"
   id="path13100" />

<path
   d="m 411,361 h -40 c -2.762,0 -5,-2.238 -5,-5 0,-2.762 2.238,-5 5,-5 h 40 c 2.762,0 5,2.238 5,5 0,2.762 -2.238,5 -5,5 z"
   id="path13102" />

<path
   d="m 411,321 h -40 c -2.762,0 -5,-2.238 -5,-5 0,-2.762 2.238,-5 5,-5 h 40 c 2.762,0 5,2.238 5,5 0,2.762 -2.238,5 -5,5 z"
   id="path13104" />

<path
   d="m 411,281 h -40 c -2.762,0 -5,-2.238 -5,-5 0,-2.762 2.238,-5 5,-5 h 40 c 2.762,0 5,2.238 5,5 0,2.762 -2.238,5 -5,5 z"
   id="path13106" />

<path
   d="m 411,241 h -40 c -2.762,0 -5,-2.239 -5,-5 0,-2.761 2.238,-5 5,-5 h 40 c 2.762,0 5,2.239 5,5 0,2.761 -2.238,5 -5,5 z"
   id="path13108" />

<path
   d="m 411,201 h -40 c -2.762,0 -5,-2.239 -5,-5 0,-2.761 2.238,-5 5,-5 h 40 c 2.762,0 5,2.239 5,5 0,2.761 -2.238,5 -5,5 z"
   id="path13110" />

<path
   d="M 416,91 H 61 c -2.761,0 -5,-2.239 -5,-5 V 36 c 0,-2.761 2.239,-5 5,-5 h 355 c 16.542,0 30,13.458 30,30 0,8.017 -3.12,15.551 -8.785,21.216 C 431.551,87.88 424.017,91 416,91 Z M 66,81 h 350 c 5.346,0 10.368,-2.08 14.144,-5.855 C 433.921,71.369 436,66.346 436,61 436,49.972 427.028,41 416,41 H 66 Z"
   id="path13112" />

<path
   d="m 291,91 c -2.762,0 -5,-2.239 -5,-5 V 36 c 0,-2.761 2.238,-5 5,-5 2.762,0 5,2.239 5,5 v 50 c 0,2.761 -2.238,5 -5,5 z"
   id="path13114" />

<g
   id="g13122">

<rect
   height="30"
   style="fill:#ff7979"
   width="30"
   x="181"
   y="266"
   id="rect13116" />

<polygon
   points="211,266 181,266 181,296 188.625,296 188.625,273.625 211,273.625 "
   style="fill:#d65b5b"
   id="polygon13118" />

<path
   d="m 211,301 h -30 c -2.761,0 -5,-2.238 -5,-5 v -30 c 0,-2.762 2.239,-5 5,-5 h 30 c 2.761,0 5,2.238 5,5 v 30 c 0,2.762 -2.239,5 -5,5 z m -25,-10 h 20 v -20 h -20 z"
   id="path13120" />

</g>

<g
   id="g13130">

<rect
   height="30"
   style="fill:#ff7979"
   width="30"
   x="261"
   y="266"
   id="rect13124" />

<polygon
   points="291,266 261,266 261,296 268.625,296 268.625,273.625 291,273.625 "
   style="fill:#d65b5b"
   id="polygon13126" />

<path
   d="m 291,301 h -30 c -2.762,0 -5,-2.238 -5,-5 v -30 c 0,-2.762 2.238,-5 5,-5 h 30 c 2.762,0 5,2.238 5,5 v 30 c 0,2.762 -2.238,5 -5,5 z m -25,-10 h 20 v -20 h -20 z"
   id="path13128" />

</g>

<g
   id="g13138">

<rect
   height="30"
   style="fill:#ff7979"
   width="30"
   x="101"
   y="266"
   id="rect13132" />

<polygon
   points="131,266 101,266 101,296 108.625,296 108.625,273.625 131,273.625 "
   style="fill:#d65b5b"
   id="polygon13134" />

<path
   d="m 131,301 h -30 c -2.761,0 -5,-2.238 -5,-5 v -30 c 0,-2.762 2.239,-5 5,-5 h 30 c 2.761,0 5,2.238 5,5 v 30 c 0,2.762 -2.239,5 -5,5 z m -25,-10 h 20 v -20 h -20 z"
   id="path13136" />

</g>

<g
   id="g13146">

<rect
   height="30"
   style="fill:#ff7979"
   width="30"
   x="181"
   y="336"
   id="rect13140" />

<polygon
   points="211,336 181,336 181,366 188.625,366 188.625,343.625 211,343.625 "
   style="fill:#d65b5b"
   id="polygon13142" />

<path
   d="m 211,371 h -30 c -2.761,0 -5,-2.238 -5,-5 v -30 c 0,-2.762 2.239,-5 5,-5 h 30 c 2.761,0 5,2.238 5,5 v 30 c 0,2.762 -2.239,5 -5,5 z m -25,-10 h 20 v -20 h -20 z"
   id="path13144" />

</g>

<g
   id="g13154">

<rect
   height="30"
   style="fill:#ff7979"
   width="30"
   x="101"
   y="336"
   id="rect13148" />

<polygon
   points="131,336 101,336 101,366 108.625,366 108.625,343.625 131,343.625 "
   style="fill:#d65b5b"
   id="polygon13150" />

<path
   d="m 131,371 h -30 c -2.761,0 -5,-2.238 -5,-5 v -30 c 0,-2.762 2.239,-5 5,-5 h 30 c 2.761,0 5,2.238 5,5 v 30 c 0,2.762 -2.239,5 -5,5 z m -25,-10 h 20 v -20 h -20 z"
   id="path13152" />

</g>

<g
   id="g13162">

<rect
   height="30"
   style="fill:#ff7979"
   width="30"
   x="181"
   y="406"
   id="rect13156" />

<polygon
   points="211,406 181,406 181,436 188.625,436 188.625,413.625 211,413.625 "
   style="fill:#d65b5b"
   id="polygon13158" />

<path
   d="m 211,441 h -30 c -2.761,0 -5,-2.238 -5,-5 v -30 c 0,-2.762 2.239,-5 5,-5 h 30 c 2.761,0 5,2.238 5,5 v 30 c 0,2.762 -2.239,5 -5,5 z m -25,-10 h 20 v -20 h -20 z"
   id="path13160" />

</g>

<g
   id="g13170">

<rect
   height="30"
   style="fill:#ff7979"
   width="30"
   x="101"
   y="406"
   id="rect13164" />

<polygon
   points="131,406 101,406 101,436 108.625,436 108.625,413.625 131,413.625 "
   style="fill:#d65b5b"
   id="polygon13166" />

<path
   d="m 131,441 h -30 c -2.761,0 -5,-2.238 -5,-5 v -30 c 0,-2.762 2.239,-5 5,-5 h 30 c 2.761,0 5,2.238 5,5 v 30 c 0,2.762 -2.239,5 -5,5 z m -25,-10 h 20 v -20 h -20 z"
   id="path13168" />

</g>

</g>

</g><g
     id="Layer_1" /></g></svg>
