<?xml version="1.0" encoding="iso-8859-1"?>
<!-- Uploaded to: SVG Repo, www.svgrepo.com, Generator: SVG Repo Mixer Tools -->
<svg height="800px" width="800px" version="1.1" id="Layer_1" xmlns="http://www.w3.org/2000/svg" xmlns:xlink="http://www.w3.org/1999/xlink" 
	 viewBox="0 0 456 456" xml:space="preserve">
<path style="fill:#FFF8EF;" d="M112,356V124c0-22.4,17.6-40,40-40h208.8c-10.4,10.4-16.8,24-16.8,40v240c0,22.4-17.6,40-40,40
	s-40-17.6-40-40c0-4-4-8-8-8H112z M128,244c0,40,32,72,72,72c31.2,0,57.6-20,68-48h36c4,0,8-4,8-8V148c0-4-4-8-8-8H192c-4,0-8,4-8,8
	v25.6C152,180.8,128,209.6,128,244z"/>
<path style="fill:#CC9966;" d="M400,84c19.2,0,35.2,13.6,39.2,32h-78.4C364.8,97.6,380.8,84,400,84z"/>
<path style="fill:#7AC943;" d="M296,156v96h-24.8c0-2.4,0.8-5.6,0.8-8c0-40-32-72-72-72v-16H296z"/>
<path style="fill:#CC9966;" d="M248.8,372c1.6,12.8,8,24,16,32H56c-19.2,0-35.2-13.6-39.2-32H248.8z"/>
<path style="fill:#FFC600;" d="M200,188c31.2,0,56,24.8,56,56c0,2.4,0,5.6-0.8,8H200V188z"/>
<path style="fill:#EE5656;" d="M200,300c-31.2,0-56-24.8-56-56c0-25.6,16.8-46.4,40-53.6V260c0,4,4,8,8,8h58.4
	C241.6,287.2,222.4,300,200,300z"/>
<path style="fill:#42210B;" d="M200,172c40,0,72,32,72,72c0,2.4,0,5.6-0.8,8H296v-96h-96V172z M256,244c0-31.2-24.8-56-56-56v64
	h55.2C256,249.6,256,246.4,256,244z M200,316c-40,0-72-32-72-72c0-34.4,24-63.2,56-70.4V148c0-4,4-8,8-8h112c4,0,8,4,8,8v112
	c0,4-4,8-8,8h-36C257.6,296,231.2,316,200,316z M144,244c0,31.2,24.8,56,56,56c22.4,0,41.6-12.8,50.4-32H192c-4,0-8-4-8-8v-69.6
	C160.8,197.6,144,218.4,144,244z"/>
<polygon style="fill:#FF9900;" points="56,92 56,298.4 48,314.4 40,298.4 40,92 "/>
<g>
	<path style="fill:#42210B;" d="M56,76V52H40v24H56z M40,298.4l8,16l8-16V92H40V298.4z M72,44v256c0,1.6,0,2.4-0.8,4l-16,32
		c-1.6,2.4-4,4-7.2,4s-5.6-1.6-7.2-4l-16-32c-0.8-1.6-0.8-2.4-0.8-4V44c0-4.8,3.2-8,8-8h32C68.8,36,72,39.2,72,44z"/>
	<path style="fill:#42210B;" d="M439.2,116c-4-18.4-20-32-39.2-32s-35.2,13.6-39.2,32H439.2z M248.8,372h-232c4,18.4,20,32,39.2,32
		h208.8C256,396,250.4,384.8,248.8,372z M96,124c0-31.2,24.8-56,56-56h248c31.2,0,56,24.8,56,56c0,4-4,8-8,8h-88v232
		c0,31.2-24.8,56-56,56H56c-31.2,0-56-24.8-56-56c0-4,3.2-8,8-8h88V124z M360.8,84H152c-22.4,0-40,17.6-40,40v232h144c4,0,8,4,8,8
		c0,22.4,17.6,40,40,40s40-17.6,40-40V124C344,108,350.4,94.4,360.8,84z"/>
</g>
<path style="fill:#D9CDC1;" d="M308,404c20.8-1.6,36-20.8,36-41.6V180l-7.2,173.6c0,8-4.8,16-12,20C299.2,387.2,264,364,264,364
	C264,387.2,284,406.4,308,404z"/>
</svg>