<?xml version="1.0" encoding="iso-8859-1"?>
<!-- Uploaded to: SVG Repo, www.svgrepo.com, Generator: SVG Repo Mixer Tools -->
<svg height="800px" width="800px" version="1.1" id="Layer_1" xmlns="http://www.w3.org/2000/svg" xmlns:xlink="http://www.w3.org/1999/xlink" 
	 viewBox="0 0 512 512" xml:space="preserve">
<path style="fill:#6A82A1;" d="M493.268,512H18.732C8.387,512,0,503.613,0,493.268V18.732C0,8.387,8.387,0,18.732,0h381.315
	c4.968,0,9.733,1.974,13.245,5.487l93.221,93.223c3.514,3.512,5.487,8.277,5.487,13.245v381.314
	C512,503.613,503.613,512,493.268,512z"/>
<path style="fill:#36495E;" d="M506.513,98.709L413.291,5.486C409.78,1.974,405.014,0,400.047,0H256v512h237.268
	c10.345,0,18.732-8.387,18.732-18.732V111.954C512,106.987,510.027,102.221,506.513,98.709z"/>
<path style="fill:#FFDA79;" d="M381.822,428.957H130.178c-10.345,0-18.732-8.387-18.732-18.732V263.094
	c0-10.345,8.387-18.732,18.732-18.732h251.644c10.345,0,18.732,8.387,18.732,18.732v147.131
	C400.554,420.572,392.167,428.957,381.822,428.957z"/>
<path style="fill:#FFD155;" d="M381.822,244.364H256v184.595h125.822c10.345,0,18.732-8.387,18.732-18.732V263.096
	C400.554,252.751,392.167,244.364,381.822,244.364z"/>
<path style="fill:#F1F2F2;" d="M151.196,201.065h209.598c10.345,0,18.732-8.387,18.732-18.732V0H132.464v182.333
	C132.464,192.678,140.851,201.065,151.196,201.065z"/>
<path style="fill:#E6E7E8;" d="M256,0v201.065h104.794c10.345,0,18.732-8.387,18.732-18.732V0H256z"/>
<path style="fill:#FFD155;" d="M318.414,355.393H193.586c-10.345,0-18.732-8.387-18.732-18.732c0-10.345,8.387-18.732,18.732-18.732
	h124.827c10.345,0,18.732,8.387,18.732,18.732C337.145,347.006,328.759,355.393,318.414,355.393z"/>
<path style="fill:#D1D3D4;" d="M294.078,136.062c-10.345,0-18.732-8.387-18.732-18.732V83.733c0-10.345,8.387-18.732,18.732-18.732
	s18.732,8.387,18.732,18.732v33.597C312.81,127.677,304.423,136.062,294.078,136.062z"/>
<path style="fill:#FFC72D;" d="M318.414,317.93H256v37.463h62.414c10.345,0,18.732-8.387,18.732-18.732
	C337.146,326.316,328.759,317.93,318.414,317.93z"/>
</svg>