<?xml version="1.0" encoding="iso-8859-1"?>
<!-- Uploaded to: SVG Repo, www.svgrepo.com, Generator: SVG Repo Mixer Tools -->
<svg height="800px" width="800px" version="1.1" id="Layer_1" xmlns="http://www.w3.org/2000/svg" xmlns:xlink="http://www.w3.org/1999/xlink" 
	 viewBox="0 0 512 512" xml:space="preserve">
<path style="fill:#ECF1F1;" d="M370.759,97.103c0-24.373,19.765-44.138,44.138-44.138H17.655C7.901,52.966,0,60.866,0,70.621
	v423.724C0,504.099,7.901,512,17.655,512h335.448c9.754,0,17.655-7.901,17.655-17.655V97.103z"/>
<g>
	<path style="fill:#CDCFCF;" d="M485.517,432.552c14.627,0,26.483-11.855,26.483-26.483V88.276V17.655
		C512,7.901,504.099,0,494.345,0H105.931c-9.754,0-17.655,7.901-17.655,17.655v35.31h326.621l0,0
		c24.373,0,44.138,19.756,44.138,44.138l0,0l0,0v308.966C459.034,420.696,470.89,432.552,485.517,432.552"/>
	<path style="fill:#CDCFCF;" d="M414.897,494.345c-4.882,0-8.828-3.955-8.828-8.828V97.103c0-4.873,3.946-8.828,8.828-8.828
		c4.882,0,8.828,3.955,8.828,8.828v388.414C423.724,490.39,419.778,494.345,414.897,494.345"/>
</g>
<polygon style="fill:#E64C3C;" points="44.138,308.966 132.414,308.966 132.414,97.103 44.138,97.103 "/>
<g>
	<path style="fill:#CDCFCF;" d="M326.621,123.586H185.379c-4.882,0-8.828-3.955-8.828-8.828s3.946-8.828,8.828-8.828h141.241
		c4.882,0,8.828,3.955,8.828,8.828S331.502,123.586,326.621,123.586"/>
	<path style="fill:#CDCFCF;" d="M326.621,167.724H185.379c-4.882,0-8.828-3.955-8.828-8.828c0-4.873,3.946-8.828,8.828-8.828
		h141.241c4.882,0,8.828,3.955,8.828,8.828C335.448,163.769,331.502,167.724,326.621,167.724"/>
	<path style="fill:#CDCFCF;" d="M326.621,211.862H185.379c-4.882,0-8.828-3.955-8.828-8.828c0-4.873,3.946-8.828,8.828-8.828
		h141.241c4.882,0,8.828,3.955,8.828,8.828C335.448,207.907,331.502,211.862,326.621,211.862"/>
	<path style="fill:#CDCFCF;" d="M326.621,256H185.379c-4.882,0-8.828-3.955-8.828-8.828c0-4.873,3.946-8.828,8.828-8.828h141.241
		c4.882,0,8.828,3.955,8.828,8.828C335.448,252.045,331.502,256,326.621,256"/>
	<path style="fill:#CDCFCF;" d="M326.621,300.138H185.379c-4.882,0-8.828-3.955-8.828-8.828c0-4.873,3.946-8.828,8.828-8.828
		h141.241c4.882,0,8.828,3.955,8.828,8.828C335.448,296.183,331.502,300.138,326.621,300.138"/>
</g>
<polygon style="fill:#8697CB;" points="238.345,467.862 326.621,467.862 326.621,344.276 238.345,344.276 "/>
<polygon style="fill:#F0C419;" points="44.138,388.414 97.103,388.414 97.103,353.103 44.138,353.103 "/>
<path style="fill:#CDCFCF;" d="M194.207,361.931h-52.966c-4.882,0-8.828-3.955-8.828-8.828c0-4.873,3.946-8.828,8.828-8.828h52.966
	c4.882,0,8.828,3.955,8.828,8.828C203.034,357.976,199.089,361.931,194.207,361.931"/>
<polygon style="fill:#4FBA6F;" points="44.138,467.862 97.103,467.862 97.103,432.552 44.138,432.552 "/>
<g>
	<path style="fill:#CDCFCF;" d="M194.207,441.379h-52.966c-4.882,0-8.828-3.955-8.828-8.828s3.946-8.828,8.828-8.828h52.966
		c4.882,0,8.828,3.955,8.828,8.828S199.089,441.379,194.207,441.379"/>
	<path style="fill:#CDCFCF;" d="M176.552,397.241h-35.31c-4.882,0-8.828-3.955-8.828-8.828s3.946-8.828,8.828-8.828h35.31
		c4.882,0,8.828,3.955,8.828,8.828S181.433,397.241,176.552,397.241"/>
	<path style="fill:#CDCFCF;" d="M176.552,476.69h-35.31c-4.882,0-8.828-3.955-8.828-8.828s3.946-8.828,8.828-8.828h35.31
		c4.882,0,8.828,3.955,8.828,8.828S181.433,476.69,176.552,476.69"/>
</g>
</svg>