<?xml version="1.0" encoding="iso-8859-1"?>
<!-- Uploaded to: SVG Repo, www.svgrepo.com, Generator: SVG Repo Mixer Tools -->
<svg height="800px" width="800px" version="1.1" id="Capa_1" xmlns="http://www.w3.org/2000/svg" xmlns:xlink="http://www.w3.org/1999/xlink" 
	 viewBox="0 0 470 470" xml:space="preserve">
<g>
	<path style="fill:#FF6E1D;" d="M167.5,257v-12.5H75v75h92.5V287c0-4.143,3.358-7.5,7.5-7.5v-15
		C170.858,264.5,167.5,261.143,167.5,257z"/>
	<polygon style="fill:#FFCC75;" points="326,111.5 384.394,111.5 326,53.106 	"/>
	<path style="fill:#FFFFFF;" d="M432.5,412.5h-30c-4.143,0-7.5-3.357-7.5-7.5V126.5h-76.5c-4.143,0-7.5-3.357-7.5-7.5V42.5H15V405
		c0,12.406,10.093,22.5,22.5,22.5h395c12.406,0,22.5-10.094,22.5-22.5h-15C440,409.143,436.643,412.5,432.5,412.5z M147.954,141.034
		l26.248-20c2.685-2.045,6.406-2.045,9.091,0l21.704,16.537l21.707-16.537c2.685-2.046,6.406-2.044,9.09,0l26.252,20
		c3.295,2.51,3.932,7.216,1.421,10.511c-1.476,1.938-3.711,2.955-5.972,2.955c-1.584,0.001-3.182-0.5-4.539-1.534l-21.707-16.537
		l-21.708,16.537c-2.685,2.045-6.405,2.045-9.09,0l-21.703-16.537l-21.701,16.537c-3.294,2.51-8,1.875-10.511-1.42
		S144.66,143.545,147.954,141.034z M175,379.5H67.5c-4.142,0-7.5-3.357-7.5-7.5s3.358-7.5,7.5-7.5H175c4.142,0,7.5,3.357,7.5,7.5
		S179.142,379.5,175,379.5z M182.5,257c0,4.143-3.358,7.5-7.5,7.5v15c4.142,0,7.5,3.357,7.5,7.5v40c0,4.143-3.358,7.5-7.5,7.5H67.5
		c-4.142,0-7.5-3.357-7.5-7.5v-90c0-4.143,3.358-7.5,7.5-7.5H175c4.142,0,7.5,3.357,7.5,7.5V257z M342.5,379.5H235
		c-4.142,0-7.5-3.357-7.5-7.5s3.358-7.5,7.5-7.5h107.5c4.143,0,7.5,3.357,7.5,7.5S346.643,379.5,342.5,379.5z M342.5,334.5H235
		c-4.142,0-7.5-3.357-7.5-7.5s3.358-7.5,7.5-7.5h107.5c4.143,0,7.5,3.357,7.5,7.5S346.643,334.5,342.5,334.5z M342.5,289.5H235
		c-4.142,0-7.5-3.357-7.5-7.5s3.358-7.5,7.5-7.5h107.5c4.143,0,7.5,3.357,7.5,7.5S346.643,289.5,342.5,289.5z M342.5,244.5H235
		c-4.142,0-7.5-3.357-7.5-7.5s3.358-7.5,7.5-7.5h107.5c4.143,0,7.5,3.357,7.5,7.5S346.643,244.5,342.5,244.5z M342.5,199.5h-275
		c-4.142,0-7.5-3.357-7.5-7.5s3.358-7.5,7.5-7.5h275c4.143,0,7.5,3.357,7.5,7.5S346.643,199.5,342.5,199.5z"/>
	<path style="fill:#F2EBD9;" d="M407.914,113.818c0.131,0.137,0.261,0.274,0.381,0.421c0.043,0.052,0.08,0.109,0.121,0.162
		c0.109,0.14,0.218,0.281,0.317,0.429c0.03,0.045,0.055,0.093,0.084,0.138c0.103,0.161,0.204,0.324,0.295,0.493
		c0.016,0.03,0.029,0.063,0.045,0.093c0.097,0.187,0.189,0.376,0.27,0.572c0.008,0.019,0.013,0.038,0.02,0.056
		c0.084,0.207,0.161,0.417,0.227,0.633c0.007,0.022,0.011,0.045,0.017,0.067c0.062,0.21,0.118,0.423,0.161,0.642
		c0.012,0.06,0.017,0.122,0.028,0.183c0.031,0.18,0.063,0.36,0.081,0.544c0.025,0.248,0.038,0.498,0.038,0.749v278.5h22.5
		c4.143,0,7.5,3.357,7.5,7.5h15V82.5h-54.072c-4.143,0-7.5-3.357-7.5-7.5h-24.32l38.696,38.696
		C407.843,113.735,407.876,113.778,407.914,113.818z"/>
	<path style="fill:#082947;" d="M157.046,152.966l21.701-16.537l21.703,16.537c2.685,2.045,6.405,2.045,9.09,0l21.708-16.537
		l21.707,16.537c1.357,1.034,2.955,1.535,4.539,1.534c2.261,0,4.496-1.018,5.972-2.955c2.511-3.295,1.874-8.001-1.421-10.511
		l-26.252-20c-2.684-2.044-6.405-2.046-9.09,0l-21.707,16.537l-21.704-16.537c-2.685-2.045-6.406-2.045-9.091,0l-26.248,20
		c-3.294,2.511-3.93,7.217-1.419,10.512S153.752,155.476,157.046,152.966z"/>
	<path style="fill:#082947;" d="M462.5,67.5h-61.572c-4.143,0-7.5,3.357-7.5,7.5s3.357,7.5,7.5,7.5H455V405
		c0,12.406-10.094,22.5-22.5,22.5h-395C25.093,427.5,15,417.406,15,405V42.5h296V119c0,4.143,3.357,7.5,7.5,7.5H395V405
		c0,4.143,3.357,7.5,7.5,7.5h30c4.143,0,7.5-3.357,7.5-7.5s-3.357-7.5-7.5-7.5H410V119c0-0.251-0.013-0.501-0.038-0.749
		c-0.018-0.184-0.05-0.364-0.081-0.544c-0.011-0.061-0.016-0.123-0.028-0.183c-0.043-0.218-0.099-0.431-0.161-0.642
		c-0.006-0.022-0.01-0.045-0.017-0.067c-0.066-0.216-0.143-0.426-0.227-0.633c-0.007-0.018-0.013-0.037-0.02-0.056
		c-0.081-0.195-0.173-0.385-0.27-0.572c-0.016-0.03-0.028-0.063-0.045-0.093c-0.091-0.169-0.192-0.332-0.295-0.493
		c-0.029-0.045-0.054-0.093-0.084-0.138c-0.099-0.148-0.208-0.289-0.317-0.429c-0.042-0.053-0.078-0.11-0.121-0.162
		c-0.12-0.146-0.25-0.284-0.381-0.421c-0.038-0.04-0.071-0.083-0.11-0.122l-84-84c-0.039-0.039-0.082-0.072-0.122-0.11
		c-0.137-0.131-0.275-0.261-0.421-0.381c-0.052-0.043-0.109-0.08-0.162-0.122c-0.14-0.109-0.281-0.218-0.428-0.317
		c-0.045-0.03-0.093-0.055-0.139-0.084c-0.161-0.104-0.324-0.204-0.493-0.295c-0.03-0.017-0.062-0.029-0.093-0.045
		c-0.187-0.097-0.376-0.189-0.572-0.27c-0.018-0.008-0.037-0.013-0.056-0.021c-0.207-0.084-0.417-0.161-0.633-0.227
		c-0.022-0.006-0.045-0.01-0.067-0.017c-0.211-0.062-0.424-0.118-0.642-0.161c-0.06-0.012-0.122-0.018-0.183-0.028
		c-0.18-0.031-0.36-0.063-0.544-0.082c-0.248-0.025-0.497-0.038-0.749-0.038H7.5C3.358,27.5,0,30.857,0,35v370
		c0,20.678,16.822,37.5,37.5,37.5h395c20.678,0,37.5-16.822,37.5-37.5V75C470,70.857,466.643,67.5,462.5,67.5z M326,111.5V53.106
		l58.394,58.394H326z"/>
	<path style="fill:#082947;" d="M175,364.5H67.5c-4.142,0-7.5,3.357-7.5,7.5s3.358,7.5,7.5,7.5H175c4.142,0,7.5-3.357,7.5-7.5
		S179.142,364.5,175,364.5z"/>
	<path style="fill:#082947;" d="M342.5,364.5H235c-4.142,0-7.5,3.357-7.5,7.5s3.358,7.5,7.5,7.5h107.5c4.143,0,7.5-3.357,7.5-7.5
		S346.643,364.5,342.5,364.5z"/>
	<path style="fill:#082947;" d="M342.5,319.5H235c-4.142,0-7.5,3.357-7.5,7.5s3.358,7.5,7.5,7.5h107.5c4.143,0,7.5-3.357,7.5-7.5
		S346.643,319.5,342.5,319.5z"/>
	<path style="fill:#082947;" d="M342.5,274.5H235c-4.142,0-7.5,3.357-7.5,7.5s3.358,7.5,7.5,7.5h107.5c4.143,0,7.5-3.357,7.5-7.5
		S346.643,274.5,342.5,274.5z"/>
	<path style="fill:#082947;" d="M175,229.5H67.5c-4.142,0-7.5,3.357-7.5,7.5v90c0,4.143,3.358,7.5,7.5,7.5H175
		c4.142,0,7.5-3.357,7.5-7.5v-40c0-4.143-3.358-7.5-7.5-7.5s-7.5,3.357-7.5,7.5v32.5H75v-75h92.5V257c0,4.143,3.358,7.5,7.5,7.5
		s7.5-3.357,7.5-7.5v-20C182.5,232.857,179.142,229.5,175,229.5z"/>
	<path style="fill:#082947;" d="M342.5,229.5H235c-4.142,0-7.5,3.357-7.5,7.5s3.358,7.5,7.5,7.5h107.5c4.143,0,7.5-3.357,7.5-7.5
		S346.643,229.5,342.5,229.5z"/>
	<path style="fill:#082947;" d="M342.5,184.5h-275c-4.142,0-7.5,3.357-7.5,7.5s3.358,7.5,7.5,7.5h275c4.143,0,7.5-3.357,7.5-7.5
		S346.643,184.5,342.5,184.5z"/>
</g>
</svg>