<?xml version="1.0" encoding="iso-8859-1"?>
<!-- Uploaded to: SVG Repo, www.svgrepo.com, Generator: SVG Repo Mixer Tools -->
<svg height="800px" width="800px" version="1.1" id="Layer_1" xmlns="http://www.w3.org/2000/svg" xmlns:xlink="http://www.w3.org/1999/xlink" 
	 viewBox="0 0 512 512" xml:space="preserve">
<g>
	<path style="fill:#2BA5F7;" d="M496.022,170.007c4.941,9.985,7.411,20.854,7.411,31.701c0,10.87-2.47,21.716-7.411,31.712h-36.458
		c4.941-9.996,7.411-20.843,7.411-31.712c0-10.847-2.47-21.716-7.411-31.701H496.022z"/>
	<path style="fill:#2BA5F7;" d="M427.392,460.222H237.819v-39.629V270.648l149.944,149.944L427.392,460.222z M269.991,428.05h79.729
		l-79.729-79.729V428.05L269.991,428.05z"/>
</g>
<path style="fill:#F95428;" d="M309.608,184.887c3.24,4.803,5.125,10.594,5.125,16.821c0,6.239-1.873,12.019-5.125,16.833
	l-25.106-16.833L309.608,184.887z"/>
<path style="fill:#F2F2F2;" d="M331.796,170.019c4.366,10.111,6.561,20.9,6.561,31.689c0,10.801-2.195,21.59-6.561,31.701v0.011
	l-22.187-14.88c3.252-4.814,5.125-10.594,5.125-16.833c0-6.228-1.884-12.019-5.125-16.821l22.187-14.88V170.019z"/>
<g>
	<path style="fill:#F95428;" d="M466.573,201.708h0.402c0,10.87-2.47,21.716-7.411,31.712h-19.108H331.795v-0.011
		c4.366-10.111,6.561-20.9,6.561-31.701L466.573,201.708L466.573,201.708z"/>
	<path style="fill:#F95428;" d="M338.356,201.708c0-10.789-2.195-21.578-6.561-31.689v-0.011h108.661h19.108
		c4.941,9.985,7.411,20.854,7.411,31.701h-0.402H338.356z"/>
</g>
<path style="fill:#F2F2F2;" d="M76.809,133.032v219.356H42.719c-18.832,0-34.102,15.27-34.102,34.102V98.93
	c0-4.699,0.954-9.192,2.677-13.271s4.228-7.756,7.308-10.847c6.17-6.17,14.696-9.985,24.118-9.985h34.091V133.032z"/>
<g>
	<polygon style="fill:#CCCCCC;" points="349.72,428.05 269.991,428.05 269.991,348.321 	"/>
	<path style="fill:#CCCCCC;" d="M440.456,233.421v187.172h-52.693L237.819,270.648v149.944H76.809H42.719
		c-9.422,0-17.947-3.815-24.118-9.985c-6.17-6.17-9.985-14.696-9.985-24.117c0-18.832,15.27-34.102,34.102-34.102h34.091V133.033
		h69.308v36.963v41.019v41.019v41.019v36.193h53.428V133.032h240.911v36.975H331.795l-22.187,14.88l-25.106,16.821l25.106,16.833
		l22.187,14.88L440.456,233.421L440.456,233.421z"/>
</g>
<polygon style="fill:#F7B239;" points="146.117,128.988 146.117,87.969 146.117,51.775 199.546,51.775 199.546,133.032 
	199.546,329.247 146.117,329.247 146.117,293.054 146.117,252.034 146.117,211.015 146.117,169.996 146.117,133.032 "/>
<g>
	<path style="fill:#333333;" d="M269.99,436.669h79.734c3.485,0,6.629-2.099,7.961-5.32c1.334-3.221,0.597-6.926-1.867-9.391
		l-79.734-79.734c-2.466-2.466-6.171-3.202-9.392-1.868c-3.221,1.334-5.32,4.477-5.32,7.961v79.734
		C261.372,432.811,265.229,436.669,269.99,436.669z M278.607,369.123l50.311,50.311h-50.311L278.607,369.123L278.607,369.123z"/>
	<path style="fill:#333333;" d="M503.749,166.189c-1.453-2.938-4.447-4.797-7.725-4.797h-46.949V133.03
		c0-4.759-3.857-8.618-8.617-8.618H208.16V51.776c0-4.759-3.857-8.617-8.618-8.617h-53.425c-4.76,0-8.617,3.858-8.617,8.617v72.637
		H85.428V64.827c0-4.759-3.857-8.617-8.617-8.617H42.72c-11.416,0-22.145,4.442-30.216,12.515C4.439,76.802,0,87.53,0.002,98.928
		v287.121C0.001,386.195,0,386.342,0,386.489c0,11.415,4.442,22.144,12.509,30.21c8.066,8.067,18.794,12.509,30.211,12.509H229.2
		v31.016c0,4.759,3.857,8.617,8.618,8.617h189.576c3.485,0,6.629-2.099,7.961-5.32c1.334-3.221,0.597-6.926-1.867-9.391
		l-24.923-24.923h31.893c4.76,0,8.618-3.858,8.618-8.617V242.033h46.949c3.278,0,6.271-1.859,7.725-4.797
		C514.751,214.992,514.751,188.433,503.749,166.189z M305.758,197.838c0.23,1.27,0.361,2.562,0.361,3.872
		c0,1.312-0.131,2.606-0.361,3.876l-5.778-3.874L305.758,197.838z M320.77,187.773l6.549-4.391c3.18,11.991,3.18,24.67,0,36.661
		l-6.549-4.391c1.701-4.413,2.583-9.124,2.583-13.941C323.354,196.897,322.47,192.188,320.77,187.773z M346.519,210.33H457.71
		c-0.674,4.933-1.931,9.792-3.771,14.468h-110.06C345.158,220.044,346.044,215.206,346.519,210.33z M457.71,193.095H346.519
		c-0.473-4.875-1.359-9.714-2.639-14.467h110.06C455.778,183.305,457.035,188.163,457.71,193.095z M190.925,60.394v260.235h-36.19
		v-18.957h12.063c4.76,0,8.617-3.858,8.617-8.617s-3.857-8.617-8.617-8.617h-12.063v-23.782h12.063c4.76,0,8.617-3.858,8.617-8.617
		s-3.857-8.617-8.617-8.617h-12.063v-23.782h12.063c4.76,0,8.617-3.858,8.617-8.617s-3.857-8.617-8.617-8.617h-12.063V178.62h12.063
		c4.76,0,8.617-3.858,8.617-8.618c0-4.759-3.857-8.617-8.617-8.617h-12.063v-23.782h12.063c4.76,0,8.617-3.858,8.617-8.617
		s-3.857-8.617-8.617-8.617h-12.063V96.585h12.063c4.76,0,8.617-3.858,8.617-8.618s-3.857-8.617-8.617-8.617h-12.063V60.394H190.925
		z M24.697,80.904c4.811-4.811,11.211-7.46,18.023-7.46h25.473v270.325H42.72c-9.542,0-18.363,3.145-25.483,8.452L17.235,98.928
		C17.235,92.126,19.887,85.722,24.697,80.904z M246.435,451.608V291.453L406.59,451.606H246.435V451.608z M431.84,411.973h-40.51
		L243.911,264.556c-2.466-2.465-6.172-3.203-9.392-1.868c-3.221,1.334-5.32,4.477-5.32,7.961v141.325H42.72
		c-6.812,0-13.212-2.65-18.023-7.46c-4.811-4.812-7.462-11.213-7.462-18.024c0,0,0,0,0-0.001l0.002-0.338
		c0.182-13.897,11.543-25.146,25.483-25.146h34.091c4.76,0,8.617-3.858,8.617-8.617V141.649H137.5v187.597
		c0,4.759,3.857,8.617,8.617,8.617h53.425c4.76,0,8.618-3.858,8.618-8.617V141.649h223.68v19.744H331.791
		c-1.709,0-3.379,0.508-4.799,1.46l-47.285,31.702c-2.386,1.601-3.818,4.285-3.818,7.157s1.432,5.558,3.818,7.157l47.285,31.703
		c1.419,0.951,3.09,1.46,4.799,1.46H431.84L431.84,411.973L431.84,411.973z M490.424,224.799h-18.256
		c4.486-15.019,4.486-31.153,0-46.17h18.256C496.228,193.396,496.228,210.029,490.424,224.799z"/>
</g>
</svg>