<?xml version="1.0" encoding="iso-8859-1"?>
<!-- Uploaded to: SVG Repo, www.svgrepo.com, Generator: SVG Repo Mixer Tools -->
<svg height="800px" width="800px" version="1.1" id="Layer_1" xmlns="http://www.w3.org/2000/svg" xmlns:xlink="http://www.w3.org/1999/xlink" 
	 viewBox="0 0 503.322 503.322" xml:space="preserve">
<path style="fill:#D4D0BA;" d="M433.898,104.136h-86.78c-9.546,0-17.356-7.81-17.356-17.356V0L433.898,104.136z"/>
<path style="fill:#EFEADD;" d="M433.898,104.136h-86.78c-9.546,0-17.356-7.81-17.356-17.356V0H86.78
	c-9.546,0-17.356,7.81-17.356,17.356v468.61c0,9.546,7.81,17.356,17.356,17.356h329.763c9.546,0,17.356-7.81,17.356-17.356V104.136z
	"/>
<g>
	<path style="fill:#D4D0BA;" d="M277.695,112.814H121.492c-5.207,0-8.678-3.471-8.678-8.678c0-5.207,3.471-8.678,8.678-8.678
		h156.203c5.207,0,8.678,3.471,8.678,8.678C286.373,109.342,282.902,112.814,277.695,112.814"/>
	<path style="fill:#D4D0BA;" d="M381.831,164.881H121.492c-5.207,0-8.678-3.471-8.678-8.678c0-5.207,3.471-8.678,8.678-8.678
		h260.339c5.207,0,8.678,3.471,8.678,8.678C390.508,161.41,387.037,164.881,381.831,164.881"/>
	<path style="fill:#D4D0BA;" d="M234.305,216.949H121.492c-5.207,0-8.678-3.471-8.678-8.678c0-5.207,3.471-8.678,8.678-8.678
		h112.814c5.207,0,8.678,3.471,8.678,8.678C242.983,213.478,239.512,216.949,234.305,216.949"/>
	<path style="fill:#D4D0BA;" d="M234.305,269.017H121.492c-5.207,0-8.678-3.471-8.678-8.678s3.471-8.678,8.678-8.678h112.814
		c5.207,0,8.678,3.471,8.678,8.678S239.512,269.017,234.305,269.017"/>
	<path style="fill:#D4D0BA;" d="M234.305,321.085H121.492c-5.207,0-8.678-3.471-8.678-8.678c0-5.207,3.471-8.678,8.678-8.678
		h112.814c5.207,0,8.678,3.471,8.678,8.678C242.983,317.614,239.512,321.085,234.305,321.085"/>
	<path style="fill:#D4D0BA;" d="M381.831,373.153H121.492c-5.207,0-8.678-3.471-8.678-8.678s3.471-8.678,8.678-8.678h260.339
		c5.207,0,8.678,3.471,8.678,8.678S387.037,373.153,381.831,373.153"/>
	<path style="fill:#D4D0BA;" d="M381.831,425.22H121.492c-5.207,0-8.678-3.471-8.678-8.678c0-5.207,3.471-8.678,8.678-8.678h260.339
		c5.207,0,8.678,3.471,8.678,8.678C390.508,421.749,387.037,425.22,381.831,425.22"/>
</g>
<polygon style="fill:#71C385;" points="277.695,312.407 381.831,312.407 381.831,208.271 277.695,208.271 "/>
</svg>