<?xml version="1.0" encoding="iso-8859-1"?>
<!-- Uploaded to: SVG Repo, www.svgrepo.com, Generator: SVG Repo Mixer Tools -->
<svg version="1.1" id="Layer_1" xmlns="http://www.w3.org/2000/svg" xmlns:xlink="http://www.w3.org/1999/xlink" 
	 viewBox="0 0 347.344 347.344" xml:space="preserve">
<g>
	<path style="fill:#C3C6C8;" d="M291.128,0l-29.364,25.445L232.398,0l-29.362,25.445L173.671,0l-29.364,25.445L114.943,0
		L85.579,25.445L56.215,0L26.851,25.445v294.71c0,14.954,12.235,27.189,27.189,27.189h239.263c14.954,0,27.189-12.235,27.189-27.189
		V25.445L291.128,0z"/>
	<rect x="52.952" y="88.405" style="fill:#7D868C;" width="118.544" height="125.735"/>
	<rect x="193.258" y="101.013" style="fill:#1E252B;" width="101.132" height="15.045"/>
	<g>
		<rect x="193.068" y="132.733" style="fill:#333E48;" width="101.133" height="5.438"/>
		<rect x="193.068" y="148.684" style="fill:#333E48;" width="101.133" height="5.438"/>
		<rect x="193.068" y="164.635" style="fill:#333E48;" width="101.133" height="5.438"/>
		<rect x="193.068" y="180.585" style="fill:#333E48;" width="101.133" height="5.438"/>
		<rect x="193.068" y="196.536" style="fill:#333E48;" width="101.133" height="5.438"/>
	</g>
	<g>
		<rect x="138.723" y="243.935" style="fill:#333E48;" width="69.896" height="5.438"/>
		<rect x="138.723" y="259.886" style="fill:#333E48;" width="69.896" height="5.438"/>
		<rect x="138.723" y="275.836" style="fill:#333E48;" width="69.896" height="5.438"/>
		<rect x="138.723" y="291.787" style="fill:#333E48;" width="69.896" height="5.438"/>
		<rect x="138.723" y="307.738" style="fill:#333E48;" width="69.896" height="5.438"/>
	</g>
	<g>
		<rect x="52.952" y="243.935" style="fill:#333E48;" width="69.896" height="5.438"/>
		<rect x="52.952" y="259.886" style="fill:#333E48;" width="69.896" height="5.438"/>
		<rect x="52.952" y="275.836" style="fill:#333E48;" width="69.896" height="5.438"/>
		<rect x="52.952" y="291.787" style="fill:#333E48;" width="69.896" height="5.438"/>
		<rect x="52.952" y="307.738" style="fill:#333E48;" width="69.896" height="5.438"/>
	</g>
	<rect x="224.495" y="246.654" style="fill:#005CB9;" width="69.896" height="63.803"/>
	<rect x="26.851" y="48.266" style="fill:#005CB9;" width="293.641" height="15.226"/>
</g>
</svg>