<?xml version="1.0" encoding="iso-8859-1"?>
<!-- Uploaded to: SVG Repo, www.svgrepo.com, Generator: SVG Repo Mixer Tools -->
<svg version="1.1" id="Layer_1" xmlns="http://www.w3.org/2000/svg" xmlns:xlink="http://www.w3.org/1999/xlink" 
	 viewBox="0 0 512 512" xml:space="preserve">
<path style="fill:#DCE8EF;" d="M442.418,30.519H70.811c-33.882,0-61.348,27.466-61.348,61.348v389.613H381.07V243.419"/>
<path style="fill:#A8B3BA;" d="M418.256,267.965h85.511V91.869c0-33.882-27.466-61.348-61.348-61.348l0,0
	c-33.882,0-61.348,27.466-61.348,61.348v176.096"/>
<rect x="51.904" y="102.306" style="fill:#4EBFED;" width="143.679" height="169.597"/>
<rect x="199.102" y="356.689" style="fill:#FF6F52;" width="143.679" height="84.796"/>
<path d="M441.803,21.672H70.196C31.489,21.672,0,53.162,0,91.869v323.414c0,4.886,3.96,8.848,8.848,8.848s8.848-3.962,8.848-8.848
	V91.869c0-28.949,23.552-52.501,52.5-52.501h325.082c-14.505,12.87-23.67,31.63-23.67,52.5v380.765H17.696v-27.857
	c0-4.886-3.96-8.848-8.848-8.848S0,439.889,0,444.776v36.705c0,4.886,3.96,8.848,8.848,8.848h371.607
	c4.888,0,8.848-3.962,8.848-8.848V91.869c0-28.949,23.552-52.5,52.5-52.5c28.949-0.001,52.501,23.551,52.501,52.5v167.248h-76.662
	c-4.888,0-8.848,3.962-8.848,8.848s3.96,8.848,8.848,8.848h85.51c4.888,0,8.848-3.962,8.848-8.848V91.869
	C512,53.162,480.51,21.672,441.803,21.672z"/>
<path d="M194.973,93.458H51.291c-4.888,0-8.848,3.962-8.848,8.848v169.592c0,4.886,3.96,8.848,8.848,8.848h143.682
	c4.888,0,8.848-3.962,8.848-8.848V169.901c0-4.886-3.96-8.848-8.848-8.848c-4.888,0-8.848,3.962-8.848,8.848v93.149H60.139V111.154
	h125.986v24.536c0,4.886,3.96,8.848,8.848,8.848c4.888,0,8.848-3.962,8.848-8.848v-33.384
	C203.821,97.419,199.859,93.458,194.973,93.458z"/>
<path d="M342.174,93.458H235.416c-4.888,0-8.848,3.962-8.848,8.848s3.96,8.848,8.848,8.848h106.758c4.888,0,8.848-3.962,8.848-8.848
	S347.06,93.458,342.174,93.458z"/>
<path d="M342.174,135.856h-59.63c-4.888,0-8.848,3.962-8.848,8.848c0,4.886,3.96,8.848,8.848,8.848h59.63
	c4.888,0,8.848-3.962,8.848-8.848C351.022,139.817,347.06,135.856,342.174,135.856z"/>
<path d="M235.416,153.552h17.635c4.888,0,8.848-3.962,8.848-8.848c0-4.886-3.96-8.848-8.848-8.848h-17.635
	c-4.888,0-8.848,3.962-8.848,8.848C226.568,149.59,230.529,153.552,235.416,153.552z"/>
<path d="M235.416,195.95h106.758c4.888,0,8.848-3.962,8.848-8.848s-3.96-8.848-8.848-8.848H235.416
	c-4.888,0-8.848,3.962-8.848,8.848S230.529,195.95,235.416,195.95z"/>
<path d="M235.416,280.745h106.758c4.888,0,8.848-3.961,8.848-8.848s-3.96-8.848-8.848-8.848H235.416
	c-4.888,0-8.848,3.962-8.848,8.848S230.529,280.745,235.416,280.745z"/>
<path d="M342.174,220.651h-26.599c-4.888,0-8.848,3.962-8.848,8.848s3.96,8.848,8.848,8.848h26.599c4.888,0,8.848-3.962,8.848-8.848
	S347.06,220.651,342.174,220.651z"/>
<path d="M235.416,238.347h50.666c4.888,0,8.848-3.962,8.848-8.848s-3.96-8.848-8.848-8.848h-50.666
	c-4.888,0-8.848,3.962-8.848,8.848S230.529,238.347,235.416,238.347z"/>
<path d="M417.642,149.618h42.334c4.888,0,8.848-3.962,8.848-8.848c0-4.886-3.96-8.848-8.848-8.848h-42.334
	c-4.888,0-8.848,3.962-8.848,8.848C408.794,145.657,412.755,149.618,417.642,149.618z"/>
<path d="M417.642,192.017h42.334c4.888,0,8.848-3.962,8.848-8.848s-3.96-8.848-8.848-8.848h-42.334
	c-4.888,0-8.848,3.962-8.848,8.848S412.755,192.017,417.642,192.017z"/>
<path d="M417.642,234.415h42.334c4.888,0,8.848-3.962,8.848-8.848c0-4.886-3.96-8.848-8.848-8.848h-42.334
	c-4.888,0-8.848,3.962-8.848,8.848C408.794,230.453,412.755,234.415,417.642,234.415z"/>
<path d="M342.174,347.845H198.492c-4.888,0-8.848,3.962-8.848,8.848v84.796c0,4.886,3.96,8.848,8.848,8.848h143.682
	c4.888,0,8.848-3.962,8.848-8.848v-84.796C351.022,351.807,347.06,347.845,342.174,347.845z M333.326,432.641H207.34v-67.1h125.986
	L333.326,432.641L333.326,432.641z"/>
<path d="M51.291,323.143h47.216c4.888,0,8.848-3.962,8.848-8.848s-3.96-8.848-8.848-8.848H51.291c-4.888,0-8.848,3.962-8.848,8.848
	S46.403,323.143,51.291,323.143z"/>
<path d="M117.972,314.295c0,4.886,3.96,8.848,8.848,8.848h215.354c4.888,0,8.848-3.962,8.848-8.848s-3.96-8.848-8.848-8.848H126.82
	C121.933,305.447,117.972,309.408,117.972,314.295z"/>
<path d="M51.291,365.541h106.758c4.888,0,8.848-3.962,8.848-8.848s-3.96-8.848-8.848-8.848H51.291c-4.888,0-8.848,3.962-8.848,8.848
	S46.403,365.541,51.291,365.541z"/>
<path d="M51.291,450.337h59.013c4.888,0,8.848-3.962,8.848-8.848s-3.96-8.848-8.848-8.848H51.291c-4.888,0-8.848,3.961-8.848,8.848
	S46.403,450.337,51.291,450.337z"/>
<path d="M158.049,432.641h-18.251c-4.888,0-8.848,3.961-8.848,8.848s3.96,8.848,8.848,8.848h18.251c4.888,0,8.848-3.962,8.848-8.848
	S162.935,432.641,158.049,432.641z"/>
<path d="M51.291,407.939h106.758c4.888,0,8.848-3.962,8.848-8.848s-3.96-8.848-8.848-8.848H51.291c-4.888,0-8.848,3.962-8.848,8.848
	S46.403,407.939,51.291,407.939z"/>
</svg>