<?xml version="1.0" encoding="iso-8859-1"?>
<!-- Uploaded to: SVG Repo, www.svgrepo.com, Generator: SVG Repo Mixer Tools -->
<svg version="1.1" id="Layer_1" xmlns="http://www.w3.org/2000/svg" xmlns:xlink="http://www.w3.org/1999/xlink" 
	 viewBox="0 0 512 512" xml:space="preserve">
<polygon style="fill:#88ACB5;" points="478.242,489.495 512,489.495 512,90.022 455.736,56.264 "/>
<polygon style="fill:#A7CBCF;" points="0,90.022 0,489.495 478.242,489.495 478.242,56.264 "/>
<polygon style="fill:#367596;" points="478.242,22.505 455.736,56.264 478.242,90.022 512,90.022 512,22.505 "/>
<rect y="22.505" style="fill:#5195AF;" width="478.242" height="67.516"/>
<polygon style="fill:#D0FBFD;" points="444.484,123.78 421.978,279.154 444.484,455.736 478.242,455.736 478.242,123.78 "/>
<rect x="33.758" y="123.78" style="fill:#FFFFFF;" width="410.725" height="331.956"/>
<g>
	<path style="fill:#88ACB5;" d="M137.846,236.308c-13.96,0-25.319-11.359-25.319-25.319v-22.505
		c0-13.96,11.359-25.319,25.319-25.319s25.319,11.359,25.319,25.319v22.505C163.165,224.949,151.806,236.308,137.846,236.308z
		 M137.846,180.044c-4.654,0-8.44,3.785-8.44,8.44v22.505c0,4.654,3.785,8.44,8.44,8.44s8.44-3.785,8.44-8.44v-22.505
		C146.286,183.829,142.5,180.044,137.846,180.044z"/>
	<path style="fill:#88ACB5;" d="M188.484,236.308c-4.662,0-8.44-3.778-8.44-8.44v-56.264c0-4.662,3.778-8.44,8.44-8.44
		s8.44,3.778,8.44,8.44v56.264C196.923,232.53,193.146,236.308,188.484,236.308z"/>
	<path style="fill:#88ACB5;" d="M239.121,236.308c-13.96,0-25.319-11.359-25.319-25.319v-22.505
		c0-13.96,11.359-25.319,25.319-25.319c13.96,0,25.319,11.359,25.319,25.319v22.505C264.44,224.949,253.081,236.308,239.121,236.308
		z M239.121,180.044c-4.654,0-8.44,3.785-8.44,8.44v22.505c0,4.654,3.785,8.44,8.44,8.44c4.654,0,8.44-3.785,8.44-8.44v-22.505
		C247.56,183.829,243.775,180.044,239.121,180.044z"/>
	<path style="fill:#88ACB5;" d="M289.758,236.308c-4.662,0-8.44-3.778-8.44-8.44v-56.264c0-4.662,3.778-8.44,8.44-8.44
		c4.662,0,8.44,3.778,8.44,8.44v56.264C298.198,232.53,294.42,236.308,289.758,236.308z"/>
	<path style="fill:#88ACB5;" d="M323.517,236.308c-4.662,0-8.44-3.778-8.44-8.44v-56.264c0-4.662,3.778-8.44,8.44-8.44
		s8.44,3.778,8.44,8.44v56.264C331.956,232.53,328.179,236.308,323.517,236.308z"/>
	<path style="fill:#88ACB5;" d="M374.154,236.308c-13.96,0-25.319-11.359-25.319-25.319v-22.505
		c0-13.96,11.359-25.319,25.319-25.319s25.319,11.359,25.319,25.319v22.505C399.473,224.949,388.114,236.308,374.154,236.308z
		 M374.154,180.044c-4.654,0-8.44,3.785-8.44,8.44v22.505c0,4.654,3.785,8.44,8.44,8.44s8.44-3.785,8.44-8.44v-22.505
		C382.593,183.829,378.808,180.044,374.154,180.044z"/>
	<path style="fill:#88ACB5;" d="M171.604,416.352c-13.96,0-25.319-11.358-25.319-25.319v-22.505
		c0-13.96,11.359-25.319,25.319-25.319c13.96,0,25.319,11.359,25.319,25.319v22.505
		C196.923,404.993,185.565,416.352,171.604,416.352z M171.604,360.088c-4.654,0-8.44,3.785-8.44,8.44v22.505
		c0,4.654,3.785,8.44,8.44,8.44c4.654,0,8.44-3.785,8.44-8.44v-22.505C180.044,363.873,176.259,360.088,171.604,360.088z"/>
	<path style="fill:#88ACB5;" d="M120.967,416.352c-4.662,0-8.44-3.778-8.44-8.44v-56.264c0-4.662,3.778-8.44,8.44-8.44
		s8.44,3.778,8.44,8.44v56.264C129.407,412.574,125.629,416.352,120.967,416.352z"/>
	<path style="fill:#88ACB5;" d="M239.121,416.352c-13.96,0-25.319-11.358-25.319-25.319v-22.505
		c0-13.96,11.359-25.319,25.319-25.319c13.96,0,25.319,11.359,25.319,25.319v22.505C264.44,404.993,253.081,416.352,239.121,416.352
		z M239.121,360.088c-4.654,0-8.44,3.785-8.44,8.44v22.505c0,4.654,3.785,8.44,8.44,8.44c4.654,0,8.44-3.785,8.44-8.44v-22.505
		C247.56,363.873,243.775,360.088,239.121,360.088z"/>
	<path style="fill:#88ACB5;" d="M289.758,416.352c-4.662,0-8.44-3.778-8.44-8.44v-56.264c0-4.662,3.778-8.44,8.44-8.44
		c4.662,0,8.44,3.778,8.44,8.44v56.264C298.198,412.574,294.42,416.352,289.758,416.352z"/>
	<path style="fill:#88ACB5;" d="M323.517,416.352c-4.662,0-8.44-3.778-8.44-8.44v-56.264c0-4.662,3.778-8.44,8.44-8.44
		s8.44,3.778,8.44,8.44v56.264C331.956,412.574,328.179,416.352,323.517,416.352z"/>
	<path style="fill:#88ACB5;" d="M374.154,416.352c-13.96,0-25.319-11.358-25.319-25.319v-22.505
		c0-13.96,11.359-25.319,25.319-25.319s25.319,11.359,25.319,25.319v22.505C399.473,404.993,388.114,416.352,374.154,416.352z
		 M374.154,360.088c-4.654,0-8.44,3.785-8.44,8.44v22.505c0,4.654,3.785,8.44,8.44,8.44s8.44-3.785,8.44-8.44v-22.505
		C382.593,363.873,378.808,360.088,374.154,360.088z"/>
	<path style="fill:#88ACB5;" d="M374.154,326.33c-13.96,0-25.319-11.359-25.319-25.319v-22.506c0-13.96,11.359-25.319,25.319-25.319
		s25.319,11.359,25.319,25.319v22.506C399.473,314.971,388.114,326.33,374.154,326.33z M374.154,270.066
		c-4.654,0-8.44,3.785-8.44,8.44v22.506c0,4.654,3.785,8.44,8.44,8.44s8.44-3.785,8.44-8.44v-22.506
		C382.593,273.851,378.808,270.066,374.154,270.066z"/>
	<path style="fill:#88ACB5;" d="M323.517,326.33c-4.662,0-8.44-3.778-8.44-8.44v-56.264c0-4.662,3.778-8.44,8.44-8.44
		s8.44,3.778,8.44,8.44v56.264C331.956,322.552,328.179,326.33,323.517,326.33z"/>
	<path style="fill:#88ACB5;" d="M272.879,326.33c-13.96,0-25.319-11.359-25.319-25.319v-22.506c0-13.96,11.359-25.319,25.319-25.319
		c13.96,0,25.319,11.359,25.319,25.319v22.506C298.198,314.971,286.839,326.33,272.879,326.33z M272.879,270.066
		c-4.654,0-8.44,3.785-8.44,8.44v22.506c0,4.654,3.785,8.44,8.44,8.44c4.654,0,8.44-3.785,8.44-8.44v-22.506
		C281.319,273.851,277.533,270.066,272.879,270.066z"/>
	<path style="fill:#88ACB5;" d="M222.242,326.33c-4.662,0-8.44-3.778-8.44-8.44v-56.264c0-4.662,3.778-8.44,8.44-8.44
		c4.662,0,8.44,3.778,8.44,8.44v56.264C230.681,322.552,226.904,326.33,222.242,326.33z"/>
	<path style="fill:#88ACB5;" d="M188.484,326.33c-4.662,0-8.44-3.778-8.44-8.44v-56.264c0-4.662,3.778-8.44,8.44-8.44
		s8.44,3.778,8.44,8.44v56.264C196.923,322.552,193.146,326.33,188.484,326.33z"/>
	<path style="fill:#88ACB5;" d="M137.846,326.33c-13.96,0-25.319-11.359-25.319-25.319v-22.506c0-13.96,11.359-25.319,25.319-25.319
		s25.319,11.359,25.319,25.319v22.506C163.165,314.971,151.806,326.33,137.846,326.33z M137.846,270.066
		c-4.654,0-8.44,3.785-8.44,8.44v22.506c0,4.654,3.785,8.44,8.44,8.44s8.44-3.785,8.44-8.44v-22.506
		C146.286,273.851,142.5,270.066,137.846,270.066z"/>
</g>
<g>
	<circle style="fill:#FFFFFF;" cx="436.044" cy="56.264" r="8.44"/>
	<circle style="fill:#FFFFFF;" cx="402.286" cy="56.264" r="8.44"/>
	<circle style="fill:#FFFFFF;" cx="469.802" cy="56.264" r="8.44"/>
</g>
</svg>