<?xml version="1.0" encoding="utf-8"?>
<!-- Uploaded to: SVG Repo, www.svgrepo.com, Generator: SVG Repo Mixer Tools -->
<svg version="1.1" id="Uploaded to svgrepo.com" xmlns="http://www.w3.org/2000/svg" xmlns:xlink="http://www.w3.org/1999/xlink" 
	 width="800px" height="800px" viewBox="0 0 32 32" xml:space="preserve">
<style type="text/css">
	.cubies_negentien{fill:#F2C99E;}
	.cubies_twintig{fill:#F9E0BD;}
	.cubies_drieentwintig{fill:#E69D8A;}
	.cubies_zevenentwintig{fill:#98D3BC;}
	.cubies_twee{fill:#67625D;}
	.cubies_twaalf{fill:#FFF2DF;}
	.st0{fill:#C9483A;}
	.st1{fill:#D97360;}
	.st2{fill:#CCE2CD;}
	.st3{fill:#65C3AB;}
	.st4{fill:#4C4842;}
	.st5{fill:#EDEAE5;}
	.st6{fill:#C9C6C0;}
	.st7{fill:#EDB57E;}
	.st8{fill:#2EB39A;}
	.st9{fill:#BCD269;}
	.st10{fill:#D1DE8B;}
	.st11{fill:#EC9B5A;}
	.st12{fill:#837F79;}
	.st13{fill:#A5A29C;}
	.st14{fill:#8E7866;}
	.st15{fill:#725A48;}
	.st16{fill:#F2C7B5;}
	.st17{fill:#A4C83F;}
	.st18{fill:#E3D4C0;}
</style>
<g>
	<path class="cubies_negentien" d="M29,32H3c-1.657,0-3-1.343-3-3V3c0-1.657,1.343-3,3-3h26c1.657,0,3,1.343,3,3v26
		C32,30.657,30.657,32,29,32z"/>
	<path class="cubies_twintig" d="M27,32H3c-1.657,0-3-1.343-3-3V3c0-1.657,1.343-3,3-3h24c1.657,0,3,1.343,3,3v26
		C30,30.657,28.657,32,27,32z"/>
	<path class="cubies_twee" d="M28,3v17c0,0.552-0.448,1-1,1H3c-0.552,0-1-0.448-1-1V3c0-0.552,0.448-1,1-1h24
		C27.552,2,28,2.448,28,3z M27,24H16c-0.552,0-1,0.448-1,1c0,0.552,0.448,1,1,1h11c0.552,0,1-0.448,1-1C28,24.448,27.552,24,27,24z
		 M13,24c-0.552,0-1,0.448-1,1s0.448,1,1,1s1-0.448,1-1S13.552,24,13,24z"/>
	<path class="cubies_drieentwintig" d="M9.5,8h-3C6.224,8,6,7.776,6,7.5S6.224,7,6.5,7h3C9.776,7,10,7.224,10,7.5S9.776,8,9.5,8z
		 M10,9.5C10,9.224,9.776,9,9.5,9h-3C6.224,9,6,9.224,6,9.5S6.224,10,6.5,10h3C9.776,10,10,9.776,10,9.5z M10,11.5
		c0-0.276-0.224-0.5-0.5-0.5h-3C6.224,11,6,11.224,6,11.5S6.224,12,6.5,12h3C9.776,12,10,11.776,10,11.5z M10,13.5
		c0-0.276-0.224-0.5-0.5-0.5h-3C6.224,13,6,13.224,6,13.5S6.224,14,6.5,14h3C9.776,14,10,13.776,10,13.5z"/>
	<path class="cubies_zevenentwintig" d="M24.5,16h-17C7.224,16,7,15.776,7,15.5S7.224,15,7.5,15h17c0.276,0,0.5,0.224,0.5,0.5
		S24.776,16,24.5,16z M23,13.5c0-0.276-0.224-0.5-0.5-0.5h-11c-0.276,0-0.5,0.224-0.5,0.5s0.224,0.5,0.5,0.5h11
		C22.776,14,23,13.776,23,13.5z"/>
	<path class="cubies_twaalf" d="M6.5,6h-1C5.224,6,5,5.776,5,5.5S5.224,5,5.5,5h1C6.776,5,7,5.224,7,5.5S6.776,6,6.5,6z M25,7.5
		C25,7.224,24.776,7,24.5,7h-13C11.224,7,11,7.224,11,7.5S11.224,8,11.5,8h13C24.776,8,25,7.776,25,7.5z M23,9.5
		C23,9.224,22.776,9,22.5,9h-11C11.224,9,11,9.224,11,9.5s0.224,0.5,0.5,0.5h11C22.776,10,23,9.776,23,9.5z M25,11.5
		c0-0.276-0.224-0.5-0.5-0.5h-13c-0.276,0-0.5,0.224-0.5,0.5s0.224,0.5,0.5,0.5h13C24.776,12,25,11.776,25,11.5z M7,17.5
		C7,17.224,6.776,17,6.5,17h-1C5.224,17,5,17.224,5,17.5S5.224,18,5.5,18h1C6.776,18,7,17.776,7,17.5z"/>
</g>
</svg>