<?xml version="1.0" encoding="iso-8859-1"?>
<!-- Uploaded to: SVG Repo, www.svgrepo.com, Generator: SVG Repo Mixer Tools -->
<svg version="1.1" id="Layer_1" xmlns="http://www.w3.org/2000/svg" xmlns:xlink="http://www.w3.org/1999/xlink" 
	 viewBox="0 0 512 512" xml:space="preserve">
<rect x="3.608" y="108.62" width="504.72" height="357.96"/>
<path style="fill:#6B6B6B;" d="M505.832,119.836v344.336H6.184V119.836H505.832 M512,113.66H0v356.72h512V113.66z"/>
<path style="fill:#DBDBDB;" d="M0,121.34V57.62c0.032-8.824,7.176-15.968,16-16h480c8.824,0.032,15.968,7.176,16,16v63.728H0V121.34
	z"/>
<polygon style="fill:#E21B1B;" points="471.64,103.484 171.536,103.484 200.248,59.484 471.64,59.484 "/>
<g>
	<circle style="fill:#333333;" cx="53.896" cy="80.876" r="13.608"/>
	<circle style="fill:#333333;" cx="89.976" cy="80.876" r="13.608"/>
	<circle style="fill:#333333;" cx="126.056" cy="80.876" r="13.608"/>
</g>
<g>
	<path style="fill:#FFFFFF;" d="M215.648,73.196l1.912,8.328c0.408,1.952,0.8,3.952,1.176,5.944h0.072c0.368-2,0.976-4,1.504-5.912
		l2.4-8.368h3.776l2.296,8.128c0.568,2.144,1.064,4.144,1.472,6.144h0.072c0.296-2,0.728-4,1.208-6.144l2.032-8.128h4.552
		l-5.776,18.336H228l-2.184-7.456c-0.576-1.928-1.04-3.888-1.392-5.872h-0.072c-0.344,1.984-0.808,3.944-1.392,5.872l-2.336,7.456
		h-4.328l-5.416-18.336L215.648,73.196z"/>
	<path style="fill:#FFFFFF;" d="M244.408,73.196l1.928,8.328c0.408,1.952,0.8,3.952,1.16,5.944h0.088c0.368-2,0.976-4,1.504-5.912
		l2.4-8.368h3.76l2.304,8.128c0.568,2.144,1.048,4.144,1.472,6.144h0.072c0.296-2,0.712-4,1.208-6.144l2.032-8.128h4.552
		l-5.76,18.336H256.8l-2.184-7.456c-0.568-1.928-1.032-3.888-1.392-5.872h-0.072c-0.344,1.984-0.8,3.944-1.384,5.872l-2.336,7.456
		h-4.344l-5.416-18.336L244.408,73.196z"/>
	<path style="fill:#FFFFFF;" d="M273.184,73.196l1.912,8.328c0.408,1.952,0.8,3.952,1.176,5.944h0.072c0.368-2,0.976-4,1.504-5.912
		l2.4-8.368H284l2.296,8.128c0.568,2.144,1.064,4.144,1.472,6.144h0.072c0.296-2,0.728-4,1.208-6.144l2.032-8.128h4.552
		l-5.76,18.336H285.6l-2.184-7.456c-0.576-1.928-1.04-3.888-1.392-5.872h-0.104c-0.344,1.984-0.808,3.944-1.392,5.872l-2.336,7.456
		h-4.328l-5.416-18.336L273.184,73.196z"/>
	<path style="fill:#FFFFFF;" d="M296.344,88.972c-0.088-1.56,1.112-2.888,2.664-2.976c0.064,0,0.12-0.008,0.184,0
		c1.64,0.088,2.904,1.488,2.816,3.128c-0.08,1.52-1.296,2.736-2.816,2.816c-1.552,0.024-2.824-1.216-2.856-2.76
		C296.336,89.108,296.344,89.036,296.344,88.972z"/>
</g>
<polygon style="fill:#E21B1B;" points="378.888,470.332 133.12,470.332 167.144,444.484 344.872,444.484 "/>
<g>
	<polygon style="fill:#FFFFFF;" points="440.376,94.476 437.512,91.692 447.408,81.524 436.92,71.308 439.704,68.444 
		453.056,81.444 	"/>
	<rect x="421.632" y="79.484" style="fill:#FFFFFF;" width="26.416" height="4"/>
</g>
<rect x="404.816" y="346.156" style="fill:#6B6B6B;" width="34.568" height="12"/>
<rect x="212.776" y="346.156" style="fill:#FFFFFF;" width="51.856" height="12"/>
<g>
	<rect x="91.768" y="346.156" style="fill:#C1C1C1;" width="69.152" height="12"/>
	<rect x="91.768" y="277.012" style="fill:#C1C1C1;" width="69.152" height="12"/>
</g>
<rect x="195.496" y="277.012" style="fill:#6B6B6B;" width="69.144" height="12"/>
<rect x="281.92" y="277.012" style="fill:#C1C1C1;" width="69.152" height="12"/>
<rect x="385.68" y="277.012" style="fill:#FFFFFF;" width="69.152" height="12"/>
<g>
	<rect x="333.792" y="311.588" style="fill:#C1C1C1;" width="34.576" height="12"/>
	<rect x="247.36" y="311.588" style="fill:#C1C1C1;" width="34.568" height="12"/>
</g>
<rect x="111.36" y="311.588" style="fill:#FFFFFF;" width="65" height="12"/>
<rect x="91.768" y="380.732" style="fill:#6B6B6B;" width="172.864" height="12"/>
<rect x="316.496" y="380.732" style="fill:#C1C1C1;" width="69.152" height="12"/>
<rect x="333.792" y="242.476" style="fill:#FFFFFF;" width="34.576" height="12"/>
<rect x="247.36" y="242.476" style="fill:#C1C1C1;" width="34.568" height="12"/>
<rect x="91.768" y="242.476" style="fill:#FFFFFF;" width="103.72" height="12"/>
<rect x="281.92" y="173.284" style="fill:#6B6B6B;" width="86.44" height="12"/>
<g>
	<rect x="212.776" y="173.284" style="fill:#FFFFFF;" width="34.584" height="12"/>
	<rect x="420.24" y="173.284" style="fill:#FFFFFF;" width="34.568" height="12"/>
</g>
<g>
	<rect x="74.48" y="173.284" style="fill:#C1C1C1;" width="103.72" height="12"/>
	<rect x="299.2" y="207.868" style="fill:#C1C1C1;" width="69.152" height="12"/>
	<rect x="230.056" y="207.868" style="fill:#C1C1C1;" width="34.576" height="12"/>
</g>
<rect x="57.2" y="207.868" style="fill:#6B6B6B;" width="103.712" height="12"/>
</svg>