<?xml version="1.0" encoding="UTF-8" standalone="no"?>
<!-- Uploaded to: SVG Repo, www.svgrepo.com, Generator: SVG Repo Mixer Tools -->

<svg
   height="800px"
   width="800px"
   version="1.1"
   id="Layer_1"
   viewBox="0 0 511.6 511.6"
   xml:space="preserve"
   sodipodi:docname="coding-html-svgrepo-com.svg"
   inkscape:version="1.2.2 (b0a8486541, 2022-12-01)"
   xmlns:inkscape="http://www.inkscape.org/namespaces/inkscape"
   xmlns:sodipodi="http://sodipodi.sourceforge.net/DTD/sodipodi-0.dtd"
   xmlns="http://www.w3.org/2000/svg"
   xmlns:svg="http://www.w3.org/2000/svg"><defs
   id="defs31" /><sodipodi:namedview
   id="namedview29"
   pagecolor="#505050"
   bordercolor="#ffffff"
   borderopacity="1"
   inkscape:showpageshadow="0"
   inkscape:pageopacity="0"
   inkscape:pagecheckerboard="1"
   inkscape:deskcolor="#505050"
   showgrid="false"
   inkscape:zoom="0.834386"
   inkscape:cx="463.21487"
   inkscape:cy="227.71235"
   inkscape:window-width="1920"
   inkscape:window-height="1040"
   inkscape:window-x="0"
   inkscape:window-y="0"
   inkscape:window-maximized="1"
   inkscape:current-layer="Layer_1" />
<path
   style="fill:#e6e9ed;stroke-width:1.04576"
   d="M 501.02705,133.68594 V 77.960564 c 0,-12.310679 -9.99223,-22.30291 -22.30187,-22.30291 H 32.885544 c -12.311725,0 -22.29559,9.992231 -22.29559,22.30291 v 55.725376 z"
   id="path2" />
<path
   id="polygon383"
   style="fill:#656d78"
   transform="matrix(1.0457594,0,0,1.0457594,10.589954,-0.06772547)"
   d="m 0,95.926 h 468.977 l -0.3451,288.681 c 0,31.06397 0.16616,31.069 -31.26252,31.069 -135.00023,0 -270.00045,0 -405.000676,0 C 0.06478696,415.676 0,415.46812 0,382.78133 Z"
   sodipodi:nodetypes="ccccccc" />
<path
   style="fill:#ed5564;stroke-width:1.04576"
   d="m 55.171722,77.960564 c 0,6.15534 -4.989318,11.135246 -11.143612,11.135246 -6.154294,0 -11.142566,-4.979906 -11.142566,-11.135246 0,-6.15534 4.988272,-11.151978 11.142566,-11.151978 6.154294,0 11.143612,4.997684 11.143612,11.151978 z"
   id="path6" />
<path
   style="fill:#ffce54;stroke-width:1.04576"
   d="m 88.609878,77.960564 c 0,6.15534 -4.988272,11.135246 -11.142566,11.135246 -6.156386,0 -11.143612,-4.979906 -11.143612,-11.135246 0,-6.15534 4.987226,-11.150932 11.142566,-11.150932 6.15534,0 11.143612,4.996638 11.143612,11.150932 z"
   id="path8" />
<path
   style="fill:#a0d468;stroke-width:1.04576"
   d="m 122.04699,77.960564 c 0,6.15534 -4.98827,11.135246 -11.14257,11.135246 -6.15429,0 -11.142564,-4.979906 -11.142564,-11.135246 0,-6.15534 4.988274,-11.151978 11.142564,-11.151978 6.1543,0 11.14257,4.997684 11.14257,11.151978 z"
   id="path10" />
<path
   style="fill:#fc6e51;stroke-width:1.04576"
   d="M 400.71258,144.83792 H 66.322654 c -6.15534,0 -11.150932,4.97991 -11.150932,11.1342 0,6.15534 4.995592,11.15198 11.150932,11.15198 H 400.71258 c 6.13861,0 11.1342,-4.99664 11.1342,-11.15198 0,-6.15534 -4.99559,-11.1342 -11.1342,-11.1342 z"
   id="path12" />
<path
   style="fill:#ac92eb;stroke-width:1.04576"
   d="M 66.322654,211.71319 H 244.65704 c 6.15534,0 11.14257,-4.9956 11.14257,-11.15198 0,-6.15534 -4.98827,-11.15093 -11.14257,-11.15093 H 66.322654 c -6.15534,0 -11.150932,4.99559 -11.150932,11.15093 0,6.15638 4.995592,11.15198 11.150932,11.15198 z"
   id="path14" />
<path
   style="fill:#48cfad;stroke-width:1.04576"
   d="M 311.5344,234.00041 H 66.322654 c -6.15534,0 -11.150932,4.99664 -11.150932,11.15198 0,6.15534 4.995592,11.13524 11.150932,11.13524 H 311.53336 c 6.15429,0 11.1342,-4.9799 11.1342,-11.13524 0,-6.15534 -4.97991,-11.15198 -11.13316,-11.15198 z"
   id="path16" />
<path
   style="fill:#5d9cec;stroke-width:1.04576"
   d="M 66.322654,300.87777 H 222.3625 c 6.15534,0 11.15093,-4.99664 11.15093,-11.15198 0,-6.15534 -4.99559,-11.13525 -11.15093,-11.13525 H 66.322654 c -6.15534,0 -11.150932,4.98096 -11.150932,11.13525 0,6.15429 4.995592,11.15198 11.150932,11.15198 z"
   id="path18" />
<path
   style="fill:#ffce54;stroke-width:1.04576"
   d="M 244.65704,323.1629 H 66.322654 c -6.15534,0 -11.150932,4.99559 -11.150932,11.15198 0,6.15534 4.995592,11.15093 11.150932,11.15093 H 244.65704 c 6.15534,0 11.14257,-4.99559 11.14257,-11.15093 0.001,-6.15743 -4.98723,-11.15198 -11.14257,-11.15198 z"
   id="path20" />
<path
   style="fill:#ed5564;stroke-width:1.04576"
   d="M 155.48619,367.75199 H 66.322654 c -6.15534,0 -11.150932,4.99559 -11.150932,11.15198 0,6.15534 4.995592,11.1342 11.150932,11.1342 h 89.163536 c 6.15534,0 11.15093,-4.97991 11.15093,-11.1342 0,-6.15534 -4.99559,-11.15198 -11.15093,-11.15198 z"
   id="path22" />


</svg>
