<?xml version="1.0" encoding="iso-8859-1"?>
<!-- Uploaded to: SVG Repo, www.svgrepo.com, Generator: SVG Repo Mixer Tools -->
<svg version="1.1" id="Layer_1" xmlns="http://www.w3.org/2000/svg" xmlns:xlink="http://www.w3.org/1999/xlink" 
	 viewBox="0 0 512 512" xml:space="preserve">
<path style="fill:#415E72;" d="M0,355.2v-324c0-5.6,4.8-10.4,10.4-10.4h491.2c5.6,0,10.4,4.8,10.4,10.4v324H0z"/>
<g>
	<path style="fill:#CFDCE5;" d="M512,355.2v41.6c0,5.6-4.8,10.4-10.4,10.4H10.4c-5.6,0-10.4-4.8-10.4-10.4v-41.6H512z"/>
	<rect x="146.4" y="480.8" style="fill:#CFDCE5;" width="219.2" height="10.4"/>
</g>
<polygon style="fill:#AEC4CE;" points="328.8,480.8 183.2,480.8 193.6,407.2 318.4,407.2 "/>
<rect x="20.8" y="41.6" style="fill:#FFFFFF;" width="470.4" height="292.8"/>
<polygon style="fill:#94A7AF;" points="318.4,407.2 193.6,407.2 187.792,448.28 320.272,420.424 "/>
<rect x="334.648" y="132.464" style="fill:#25B6D2;" width="29.656" height="8"/>
<rect x="260.504" y="132.464" style="fill:#AAC1CE;" width="29.656" height="8"/>
<g>
	<rect x="143.84" y="132.464" style="fill:#E04F5F;" width="55.76" height="8"/>
	<rect x="355.68" y="232.32" style="fill:#E04F5F;" width="29.664" height="8"/>
</g>
<rect x="281.52" y="232.32" style="fill:#25B6D2;" width="29.656" height="8"/>
<rect x="148.056" y="232.32" style="fill:#E04F5F;" width="88.976" height="8"/>
<rect x="311.184" y="165.744" style="fill:#415E72;" width="74.152" height="8"/>
<rect x="251.856" y="165.744" style="fill:#E04F5F;" width="29.672" height="8"/>
<rect x="156.264" y="165.744" style="fill:#AAC1CE;" width="65.936" height="8"/>
<rect x="326.016" y="199.04" style="fill:#25B6D2;" width="59.32" height="8"/>
<rect x="266.72" y="199.04" style="fill:#AAC1CE;" width="29.664" height="8"/>
<g>
	<rect x="136.24" y="199.04" style="fill:#415E72;" width="71.136" height="8"/>
	<path style="fill:#415E72;" d="M129.416,86.848l19.312-9.952v2.872l-16.272,8.16v0.088l16.272,8.16v2.872l-19.312-9.944V86.848z"/>
	<path style="fill:#415E72;" d="M154.496,69.488h3.664v12.568h0.08c0.584-1.04,1.504-1.952,2.624-2.576
		c1.088-0.624,2.376-1.04,3.752-1.04c2.704,0,7.032,1.664,7.032,8.608V99.04h-3.664V87.472c0-3.248-1.2-5.992-4.656-5.992
		c-2.376,0-4.248,1.664-4.912,3.656c-0.208,0.496-0.248,1.048-0.248,1.752v12.16h-3.664L154.496,69.488L154.496,69.488z"/>
	<path style="fill:#415E72;" d="M181.84,73.112v5.784h5.24v2.792h-5.24v10.864c0,2.496,0.704,3.912,2.744,3.912
		c0.96,0,1.672-0.128,2.128-0.248l0.168,2.744c-0.704,0.296-1.832,0.496-3.24,0.496c-1.712,0-3.08-0.536-3.952-1.536
		c-1.048-1.08-1.416-2.864-1.416-5.24V81.688h-3.128v-2.792h3.128v-4.832L181.84,73.112z"/>
	<path style="fill:#415E72;" d="M191.2,84.352c0-2.08-0.04-3.792-0.168-5.456h3.2l0.168,3.248h0.128
		c1.128-1.912,3-3.704,6.328-3.704c2.752,0,4.832,1.664,5.704,4.032h0.088c0.624-1.12,1.416-1.992,2.24-2.616
		c1.208-0.912,2.536-1.416,4.464-1.416c2.664,0,6.616,1.744,6.616,8.736V99.04h-3.584V87.632c0-3.864-1.416-6.2-4.368-6.2
		c-2.08,0-3.704,1.536-4.328,3.328c-0.168,0.496-0.288,1.168-0.288,1.832V99.04h-3.584V86.968c0-3.2-1.416-5.536-4.2-5.536
		c-2.288,0-3.952,1.832-4.536,3.664c-0.2,0.536-0.288,1.168-0.288,1.792v12.16H191.2V84.352z"/>
	<path style="fill:#415E72;" d="M225.904,69.488h3.664V99.04h-3.664V69.488z"/>
	<path style="fill:#415E72;" d="M254.752,89.136L235.44,99.04v-2.872l16.4-8.16V87.92l-16.4-8.16v-2.864l19.312,9.912V89.136z"/>
	<path style="fill:#415E72;" d="M129.416,291.512l19.312-9.952v2.872l-16.272,8.16v0.088l16.272,8.16v2.872l-19.312-9.944V291.512z"
		/>
	<path style="fill:#415E72;" d="M151.424,305.376l11.608-30.176h2.832l-11.656,30.176H151.424z"/>
	<path style="fill:#415E72;" d="M168.776,274.152h3.664v12.568h0.08c0.584-1.04,1.504-1.952,2.624-2.576
		c1.088-0.624,2.376-1.04,3.752-1.04c2.704,0,7.032,1.664,7.032,8.616v11.984h-3.664v-11.568c0-3.248-1.2-5.992-4.656-5.992
		c-2.376,0-4.248,1.664-4.912,3.656c-0.208,0.496-0.248,1.048-0.248,1.752v12.16h-3.664L168.776,274.152L168.776,274.152z"/>
	<path style="fill:#415E72;" d="M196.12,277.776v5.784h5.24v2.792h-5.24v10.864c0,2.496,0.704,3.912,2.744,3.912
		c0.96,0,1.672-0.128,2.128-0.248l0.168,2.744c-0.704,0.296-1.832,0.496-3.24,0.496c-1.712,0-3.08-0.536-3.952-1.536
		c-1.048-1.08-1.416-2.872-1.416-5.24v-10.992h-3.128v-2.792h3.128v-4.832L196.12,277.776z"/>
	<path style="fill:#415E72;" d="M205.48,289.016c0-2.08-0.04-3.792-0.168-5.456h3.2l0.168,3.248h0.128
		c1.128-1.912,3-3.704,6.328-3.704c2.752,0,4.832,1.664,5.704,4.032h0.088c0.624-1.12,1.416-1.992,2.24-2.616
		c1.208-0.912,2.536-1.416,4.464-1.416c2.664,0,6.616,1.744,6.616,8.736v11.864h-3.584v-11.408c0-3.864-1.416-6.2-4.368-6.2
		c-2.08,0-3.704,1.536-4.328,3.328c-0.168,0.496-0.288,1.168-0.288,1.832v12.448h-3.584v-12.072c0-3.2-1.416-5.536-4.2-5.536
		c-2.288,0-3.952,1.832-4.536,3.664c-0.2,0.536-0.288,1.168-0.288,1.792v12.16h-3.576v-14.696H205.48z"/>
	<path style="fill:#415E72;" d="M240.176,274.152h3.664v29.552h-3.664V274.152z"/>
	<path style="fill:#415E72;" d="M269.024,293.8l-19.312,9.904v-2.872l16.4-8.16v-0.088l-16.4-8.16v-2.872l19.312,9.912
		C269.024,291.464,269.024,293.8,269.024,293.8z"/>
</g>
</svg>