<?xml version="1.0" encoding="iso-8859-1"?>

<!DOCTYPE svg PUBLIC "-//W3C//DTD SVG 1.1//EN" "http://www.w3.org/Graphics/SVG/1.1/DTD/svg11.dtd">
<!-- Uploaded to: SVG Repo, www.svgrepo.com, Generator: SVG Repo Mixer Tools -->
<svg version="1.1" id="_x34_" xmlns="http://www.w3.org/2000/svg" xmlns:xlink="http://www.w3.org/1999/xlink" 
	 viewBox="0 0 512 512"  xml:space="preserve">
<g>
	<polygon style="fill:#3D4F59;" points="202.278,363.335 133.491,500.485 85.824,500.485 164.165,344.226 	"/>
	<polygon style="fill:#3D4F59;" points="426.16,500.485 378.457,500.485 309.706,363.335 347.819,344.226 	"/>
	<rect x="143.781" y="422.356" style="fill:#3D4F59;" width="223.294" height="21.154"/>
	<rect y="31.132" style="fill:#FFFFFF;" width="511.983" height="363.261"/>
	<polygon style="fill:#EDEDEC;" points="512,31.107 473.373,31.107 110.109,394.371 512,394.371 	"/>
	<g>
		<circle style="fill:#4E4F3A;" cx="398.953" cy="341.895" r="15.597"/>
		<circle style="fill:#C3465C;" cx="449.733" cy="341.895" r="15.597"/>
	</g>
	<rect y="39.931" style="fill:#A0A0A0;" width="511.983" height="44.16"/>
	<g>
		<g>
			
				<rect x="391.878" y="147.73" transform="matrix(0.7071 0.7071 -0.7071 0.7071 283.4494 -217.4556)" style="fill:#3D4F59;" width="24.677" height="171.392"/>
		</g>
		<g>
			<g>
				
					<rect x="63.336" y="235.665" transform="matrix(0.7071 0.7071 -0.7071 0.7071 223.8352 30.0251)" style="fill:#3D4F59;" width="24.677" height="99.079"/>
			</g>
			<g>
				
					<rect x="91.643" y="271.027" transform="matrix(0.713 0.7012 -0.7012 0.713 240.4256 -20.65)" style="fill:#3D4F59;" width="107.589" height="24.678"/>
			</g>
		</g>
		<g>
			<g>
				
					<rect x="256.938" y="239.253" transform="matrix(0.7014 0.7128 -0.7128 0.7014 274.1907 -151.2714)" style="fill:#3D4F59;" width="121.382" height="24.683"/>
			</g>
			<g>
				
					<rect x="214.495" y="184.593" transform="matrix(0.7264 0.6873 -0.6873 0.7264 239.3381 -85.3289)" style="fill:#3D4F59;" width="24.677" height="146.654"/>
			</g>
		</g>
		<g>
			<rect x="424.243" y="158.47" style="fill:#3D4F59;" width="55.821" height="20.771"/>
			<rect x="459.293" y="158.47" style="fill:#3D4F59;" width="20.771" height="55.821"/>
		</g>
		<g>
			<circle style="fill:#FFFFFF;" cx="109.603" cy="254.841" r="25.01"/>
			<path style="fill:#DD6774;" d="M109.638,220.799c-18.78,0-34.092,15.313-34.092,34.008c0,3.891,0.677,7.699,1.861,11.167
				c2.877,8.121,8.714,14.889,16.158,18.865c4.822,2.623,10.236,4.061,16.073,4.061c6.684,0,13.028-1.946,18.273-5.414
				c7.191-4.568,12.52-11.759,14.635-20.219c0.762-2.707,1.1-5.498,1.1-8.46C143.646,236.112,128.334,220.799,109.638,220.799z
				 M109.638,270.796c-0.676,0-1.269,0-1.861-0.169c-8.037-0.846-14.128-7.614-14.128-15.82c0-2.369,0.508-4.569,1.438-6.514
				c2.453-5.583,8.037-9.39,14.55-9.39c1.269,0,2.454,0.169,3.638,0.508c7.022,1.523,12.267,7.868,12.267,15.396
				c0,7.192-4.738,13.282-11.251,15.228C112.853,270.543,111.245,270.796,109.638,270.796z"/>
		</g>
		<g>
			<circle style="fill:#FFFFFF;" cx="273.232" cy="207.522" r="25.01"/>
			<path style="fill:#DD6774;" d="M305.989,198.551c-3.892-14.467-17.089-25.042-32.739-25.042
				c-18.781,0-34.093,15.227-34.093,34.008c0,5.584,1.354,10.828,3.722,15.481c3.892,7.529,10.49,13.452,18.527,16.328
				c0.931,0.422,1.861,0.761,2.876,0.93c2.876,0.846,5.837,1.269,8.967,1.269c4.991,0,9.728-1.1,14.043-3.13
				c7.783-3.384,14.043-9.814,17.258-17.682c1.776-4.061,2.707-8.544,2.707-13.197C307.258,204.388,306.834,201.426,305.989,198.551
				z M257.26,207.771v-0.253c0-8.799,7.191-15.989,15.989-15.989c7.868,0,14.466,5.837,15.735,13.367
				c0.169,0.845,0.254,1.691,0.254,2.622c0,7.614-5.33,14.044-12.521,15.566c-1.1,0.254-2.284,0.423-3.468,0.423
				c-0.254,0-0.423,0-0.677-0.085C264.197,223.168,257.43,216.23,257.26,207.771z"/>
		</g>
	</g>
	<rect y="29.356" style="fill:#3D4F59;" width="511.983" height="44.16"/>
	<rect x="198.634" style="fill:#3D4F59;" width="114.714" height="44.161"/>
	<rect x="64.012" y="158.571" style="fill:#E5E5E4;" width="74.921" height="17.126"/>
	<rect x="64.013" y="180.269" style="fill:#E5E5E4;" width="51.166" height="17.126"/>
	<rect x="234.785" y="121.11" style="fill:#E5E5E4;" width="74.921" height="17.126"/>
	<rect x="234.785" y="142.809" style="fill:#E5E5E4;" width="51.166" height="17.126"/>
	<rect x="198.634" y="1.269" style="fill:#49595F;" width="114.714" height="4.907"/>
	<rect x="170.891" y="423.484" style="fill:#49595F;" width="169.383" height="4.865"/>
	<rect y="31.132" style="fill:#49595F;" width="198.634" height="4.822"/>
	<rect x="313.39" y="31.108" style="fill:#49595F;" width="198.61" height="4.865"/>
</g>
</svg>