<?xml version="1.0" encoding="iso-8859-1"?>
<!-- Uploaded to: SVG Repo, www.svgrepo.com, Generator: SVG Repo Mixer Tools -->
<svg height="800px" width="800px" version="1.1" id="Layer_1" xmlns="http://www.w3.org/2000/svg" xmlns:xlink="http://www.w3.org/1999/xlink" 
	 viewBox="0 0 392.533 392.533" xml:space="preserve">
<path style="fill:#FFFFFF;" d="M185.341,196.267V22.174C108.089,26.958,44.218,82.295,26.634,155.475h32.711
	c6.012,0,10.925,4.848,10.925,10.925c0,6.012-4.848,10.925-10.925,10.925H22.885c-0.517,4.913-0.84,9.891-0.905,14.933h19.071
	c6.012,0,10.925,4.848,10.925,10.925c0,6.012-4.848,10.925-10.925,10.925l0,0H22.82c8.792,87.919,83.2,156.768,173.446,156.768
	c44.218,0,84.558-16.549,115.394-43.766L188.509,204.024C186.505,201.891,185.341,199.111,185.341,196.267z"/>
<path style="fill:#56ACE0;" d="M196.267,348.962c-84.17,0-152.695-68.461-152.695-152.695c0-72.921,51.459-134.141,119.919-149.139
	v165.689l113.196,113.196C252.832,340.945,225.099,348.962,196.267,348.962z"/>
<path style="fill:#FFFFFF;" d="M326.982,311.531c24.889-28.186,40.857-64.517,43.378-104.404H222.642L326.982,311.531z"/>
<path style="fill:#FFC10D;" d="M207.192,22.174v163.168H370.36C364.929,97.81,294.723,27.604,207.192,22.174z"/>
<path style="fill:#194F82;" d="M196.267,0C87.984,0,0,87.984,0,196.267s87.984,196.267,196.267,196.267
	s196.267-87.984,196.267-196.267S304.549,0,196.267,0z M207.192,22.174c87.531,5.43,157.802,75.636,163.168,163.168H207.192V22.174z
	 M196.267,370.747c-90.246,0-164.655-68.848-173.576-156.703h18.23l0,0c6.012,0,10.925-4.848,10.925-10.925
	c0-6.012-4.848-10.925-10.925-10.925H21.851c0.129-5.042,0.388-10.02,0.905-14.933h36.461c6.012,0,10.925-4.848,10.925-10.925
	c0-6.012-4.848-10.925-10.925-10.925H26.634C44.283,82.166,108.089,26.828,185.341,22.044v174.222c0,2.844,1.164,5.624,3.168,7.758
	l123.022,123.022C280.824,354.198,240.485,370.747,196.267,370.747z M326.982,311.531L222.642,207.192H370.36
	C367.903,247.143,352,283.345,326.982,311.531z"/>
</svg>