<?xml version="1.0" encoding="iso-8859-1"?>
<!-- Uploaded to: SVG Repo, www.svgrepo.com, Generator: SVG Repo Mixer Tools -->
<svg height="800px" width="800px" version="1.1" id="Layer_1" xmlns="http://www.w3.org/2000/svg" xmlns:xlink="http://www.w3.org/1999/xlink" 
	 viewBox="0 0 512 512" xml:space="preserve">
<circle style="fill:#4BB6AA;" cx="225.464" cy="252.024" r="211.565"/>
<path style="fill:#FF9E16;" d="M418.245,59.242L225.469,252.019h272.627C498.095,176.734,467.58,108.578,418.245,59.242z"/>
<path style="fill:#0055B8;" d="M477.392,356.37c-27.634,66.641-80.932,119.94-147.576,147.575L225.469,252.019L477.392,356.37z"/>
<path style="fill:#00A8E1;" d="M469.431,252.019c0,33.079-6.598,64.613-18.527,93.378l-225.436-93.378L469.431,252.019
	L469.431,252.019z"/>
<path style="fill:#0071CE;" d="M225.469,8.055c-67.369,0-128.361,27.308-172.509,71.454l172.509,172.51l172.507-172.51
	C353.828,35.363,292.836,8.055,225.469,8.055z"/>
<path style="fill:#1E252B;" d="M423.941,53.546c-1.511-1.511-3.559-2.36-5.697-2.36c-2.136,0-4.186,0.848-5.697,2.36l-14.671,14.671
	C350.993,24.171,290.092,0,225.469,0C158.152,0,94.864,26.214,47.263,73.814c-1.51,1.51-2.359,3.559-2.359,5.696
	c0,2.136,0.848,4.186,2.359,5.696l17.331,17.331C26.66,143.289,5.851,196.052,5.851,252.019
	c0,121.096,98.52,219.615,219.617,219.615c26.397,0,52.109-4.627,76.559-13.732l20.347,49.125c0.817,1.974,2.387,3.542,4.361,4.361
	c0.987,0.408,2.034,0.612,3.081,0.612c1.049,0,2.098-0.205,3.086-0.614c34.147-14.16,64.772-34.652,91.026-60.906
	c26.254-26.254,46.745-56.879,60.905-91.025c0.82-1.974,0.82-4.192,0.002-6.167c-0.817-1.974-2.387-3.543-4.361-4.362l-19.176-7.943
	c9.793-25.915,15.176-53.06,16.046-80.91h20.748c4.45,0,8.055-3.607,8.055-8.055C506.151,177.046,476.954,106.561,423.941,53.546z
	 M64.447,79.605c43.835-41.008,100.701-63.494,161.022-63.494c60.319,0,117.174,22.5,161.009,63.507l-161.009,161.01L64.447,79.605z
	 M225.469,455.524c-112.214,0-203.507-91.292-203.507-203.504c0-51.664,19.134-100.38,54.031-138.084L218.64,256.583l77.218,186.426
	C273.374,451.308,249.738,455.524,225.469,455.524z M466.748,360.68c-26.42,58.492-74.129,106.2-132.622,132.621l-93.774-226.398
	L466.748,360.68z M265.966,260.074h195.26c-0.858,25.722-5.829,50.793-14.819,74.741L265.966,260.074z M244.915,243.964
	L418.16,70.719c44.578,47.307,69.831,108.273,71.76,173.244L244.915,243.964L244.915,243.964z"/>
</svg>