<?xml version="1.0" encoding="utf-8"?>
<!-- Uploaded to: SVG Repo, www.svgrepo.com, Generator: SVG Repo Mixer Tools -->
<svg version="1.1" id="Uploaded to svgrepo.com" xmlns="http://www.w3.org/2000/svg" xmlns:xlink="http://www.w3.org/1999/xlink" 
	 width="800px" height="800px" viewBox="0 0 32 32" xml:space="preserve">
<style type="text/css">
	.cubies_veertien{fill:#BCD269;}
	.cubies_dertien{fill:#A4C83F;}
	.cubies_vijftien{fill:#D1DE8B;}
	.st0{fill:#2EB39A;}
	.st1{fill:#EC9B5A;}
	.st2{fill:#A5C64A;}
	.st3{fill:#65C3AB;}
	.st4{fill:#EDB57E;}
	.st5{fill:#F9E0BD;}
	.st6{fill:#98D3BC;}
	.st7{fill:#CCE2CD;}
	.st8{fill:#D97360;}
	.st9{fill:#E69D8A;}
	.st10{fill:#F2C99E;}
	.st11{fill:#4C4842;}
	.st12{fill:#67625D;}
	.st13{fill:#C9483A;}
	.st14{fill:#FFF2DF;}
	.st15{fill:#C9C6C0;}
	.st16{fill:#725A48;}
	.st17{fill:#8E7866;}
	.st18{fill:#EDEAE5;}
	.st19{fill:#837F79;}
	.st20{fill:#A5A29C;}
	.st21{fill:#E3D4C0;}
	.st22{fill:#A4C83F;}
	.st23{fill:#E8E8B5;}
	.st24{fill:#AB9784;}
</style>
<g>
	<path class="cubies_veertien" d="M29,32H3c-1.657,0-3-1.343-3-3V3c0-1.657,1.343-3,3-3h26c1.657,0,3,1.343,3,3v26
		C32,30.657,30.657,32,29,32z"/>
	<path class="cubies_vijftien" d="M27,32H3c-1.657,0-3-1.343-3-3V3c0-1.657,1.343-3,3-3h24c1.657,0,3,1.343,3,3v26
		C30,30.657,28.657,32,27,32z"/>
	<path class="cubies_dertien" d="M25,28H5c-0.552,0-1-0.448-1-1V5c0-0.552,0.448-1,1-1h20c0.552,0,1,0.448,1,1v22
		C26,27.552,25.552,28,25,28z"/>
	<path class="cubies_veertien" d="M5,27V5c0-0.552,0.448-1,1-1H5C4.448,4,4,4.448,4,5v22c0,0.552,0.448,1,1,1h1
		C5.448,28,5,27.552,5,27z"/>
	<path class="cubies_vijftien" d="M12.293,23.121l-5-5c-0.39-0.391-0.39-1.024,0-1.414l1.414-1.414c0.391-0.391,1.024-0.391,1.414,0
		L13,18.171l7.879-7.878c0.391-0.391,1.024-0.39,1.414,0l1.414,1.414c0.391,0.391,0.391,1.024,0,1.414l-10,10
		C13.317,23.512,12.683,23.512,12.293,23.121z"/>
</g>
</svg>