<?xml version="1.0" encoding="iso-8859-1"?>
<!-- Uploaded to: SVG Repo, www.svgrepo.com, Generator: SVG Repo Mixer Tools -->
<svg version="1.1" id="Layer_1" xmlns="http://www.w3.org/2000/svg" xmlns:xlink="http://www.w3.org/1999/xlink" 
	 viewBox="0 0 511.988 511.988" xml:space="preserve">
<path style="fill:#CCD1D9;" d="M303.964,84.39c-2.047,0-4.156-0.078-6.312-0.234c-5.875-0.438-10.281-5.562-9.859-11.438
	c0.438-5.875,5.562-10.281,11.438-9.843c12.625,0.938,22.578-1.906,27.312-7.828c2.438-3.031,2.484-5.609,2.359-6.25
	c-1.797-3.156-3.391-4.406-4.297-4.516c-2.016-0.234-5.891,2.469-7.312,4.016c-4,4.328-10.75,4.609-15.078,0.625
	c-4.328-4-4.609-10.734-0.625-15.078c1.172-1.266,11.828-12.343,25.5-10.75c5.797,0.672,14.046,3.906,20.515,15.421
	c4.219,7.531,3.344,18.062-2.219,26.828c-4.031,6.328-10.218,11.406-17.89,14.671C320.667,82.921,312.776,84.39,303.964,84.39z"/>
<path style="fill:#FFCE54;" d="M469.319,105.076H42.667c-5.891,0-10.671,4.766-10.671,10.656v42.671
	c0,5.89,4.781,10.656,10.671,10.656h426.652c5.89,0,10.655-4.766,10.655-10.656v-42.671
	C479.974,109.842,475.209,105.076,469.319,105.076z"/>
<path style="fill:#E6E9ED;" d="M490.645,233.057H21.331c-5.89,0-10.664,4.781-10.664,10.671v234.65
	c0,5.89,4.773,10.671,10.664,10.671h469.314c5.891,0,10.672-4.781,10.672-10.671v-234.65
	C501.317,237.838,496.536,233.057,490.645,233.057z"/>
<g>
	<rect x="42.667" y="307.724" style="fill:#4FC2E9;" width="127.99" height="106.65"/>
	<rect x="341.325" y="307.724" style="fill:#4FC2E9;" width="128" height="106.65"/>
</g>
<path style="fill:#FFCE54;" d="M298.651,297.056h-85.333c-5.891,0-10.664,4.78-10.664,10.671v170.652
	c0,5.89,4.773,10.671,10.664,10.671h85.333c5.891,0,10.672-4.781,10.672-10.671V307.726
	C309.323,301.836,304.542,297.056,298.651,297.056z"/>
<path style="fill:#DA4453;" d="M510.614,217.151l-31.765-63.514c-1.812-3.625-5.5-5.906-9.53-5.906H42.667
	c-4.039,0-7.734,2.281-9.539,5.906l-32,63.982c-1.656,3.312-1.476,7.234,0.461,10.391c1.945,3.14,5.383,5.046,9.078,5.046h490.649
	l0,0c5.891,0,10.672-4.765,10.672-10.656C511.989,220.495,511.489,218.698,510.614,217.151z"/>
<path style="fill:#434A54;" d="M245.317,393.053c0,5.891-4.773,10.672-10.664,10.672s-10.664-4.781-10.664-10.672
	s4.773-10.672,10.664-10.672C240.544,382.381,245.317,387.162,245.317,393.053z"/>
<path style="fill:#E6E9ED;" d="M309.448,30.407H202.779c-5.89,0-10.671,4.781-10.671,10.671c0,35.28,28.71,63.998,63.998,63.998
	c35.295,0,63.999-28.718,63.999-63.998C320.104,35.188,315.339,30.407,309.448,30.407z"/>
<g>
	<path style="fill:#DA4453;" d="M170.655,403.724H42.667c-5.891,0-10.671-4.781-10.671-10.672s4.781-10.672,10.671-10.672h127.988
		c5.891,0,10.672,4.781,10.672,10.672S176.546,403.724,170.655,403.724z"/>
	<path style="fill:#DA4453;" d="M469.319,403.724H341.322c-5.89,0-10.671-4.781-10.671-10.672s4.781-10.672,10.671-10.672h127.997
		c5.89,0,10.655,4.781,10.655,10.672S475.209,403.724,469.319,403.724z"/>
</g>
<path style="fill:#434A54;" d="M501.317,489.05H10.668c-5.891,0-10.664-4.781-10.664-10.671c0-5.891,4.773-10.656,10.664-10.656
	h490.649c5.875,0,10.656,4.766,10.656,10.656C511.974,484.268,507.192,489.05,501.317,489.05z"/>
<g>
	<path style="fill:#ED5564;" d="M501.317,211.729H10.668c-5.891,0-10.664,4.781-10.664,10.672v39.796
		c0,3.812,2.023,7.328,5.32,9.234c4.859,2.812,10.391,4.296,16.007,4.296c8.188,0,15.671-3.094,21.335-8.171
		c5.664,5.077,13.14,8.171,21.328,8.171c8.187,0,15.671-3.094,21.335-8.171c5.664,5.077,13.141,8.171,21.328,8.171
		c8.195,0,15.671-3.094,21.335-8.171c5.664,5.077,13.148,8.171,21.335,8.171s15.664-3.094,21.327-8.171
		c5.664,5.077,13.148,8.171,21.335,8.171c8.188,0,15.664-3.094,21.328-8.171c5.672,5.077,13.148,8.171,21.335,8.171
		s15.671-3.094,21.335-8.171c5.665,5.077,13.141,8.171,21.335,8.171c8.188,0,15.671-3.094,21.327-8.171
		c5.672,5.077,13.141,8.171,21.328,8.171s15.672-3.094,21.343-8.171c5.656,5.077,13.14,8.171,21.327,8.171
		s15.672-3.094,21.328-8.171c5.672,5.077,13.156,8.171,21.343,8.171c8.188,0,15.656-3.094,21.327-8.171
		c5.672,5.077,13.141,8.171,21.328,8.171s15.672-3.094,21.344-8.171c5.655,5.077,13.14,8.171,21.326,8.171
		c5.609,0,11.156-1.484,16-4.296c3.297-1.906,5.328-5.422,5.328-9.234v-39.796C511.974,216.511,507.192,211.729,501.317,211.729z"/>
	<path style="fill:#ED5564;" d="M170.655,425.052H42.667c-5.891,0-10.671-4.781-10.671-10.672V307.726
		c0-5.891,4.781-10.671,10.671-10.671h127.988c5.891,0,10.672,4.78,10.672,10.671v106.653
		C181.327,420.27,176.546,425.052,170.655,425.052z M53.33,403.724h106.661v-85.326H53.33V403.724z"/>
	<path style="fill:#ED5564;" d="M469.319,425.052H341.322c-5.89,0-10.671-4.781-10.671-10.672V307.726
		c0-5.891,4.781-10.671,10.671-10.671h127.997c5.89,0,10.655,4.78,10.655,10.671v106.653
		C479.974,420.27,475.209,425.052,469.319,425.052z M351.978,403.724h106.669v-85.326H351.978V403.724z"/>
</g>
</svg>