<?xml version="1.0" ?>
<!DOCTYPE svg  PUBLIC '-//W3C//DTD SVG 1.1//EN'  'http://www.w3.org/Graphics/SVG/1.1/DTD/svg11.dtd'>
<!-- Uploaded to: SVG Repo, www.svgrepo.com, Generator: SVG Repo Mixer Tools -->
<svg fill="#000000" width="800px" height="800px" viewBox="0 0 129 129" style="fill-rule:evenodd;clip-rule:evenodd;stroke-linejoin:round;stroke-miterlimit:2;" version="1.1" xml:space="preserve" xmlns="http://www.w3.org/2000/svg" xmlns:serif="http://www.serif.com/" xmlns:xlink="http://www.w3.org/1999/xlink">
<g transform="matrix(1,0,0,1,-630,-169)">
<g id="toolbox" transform="matrix(1,0,0,1,630.835,169.583)">
<rect height="128" style="fill:none;" width="128" x="0" y="0"/>
<g>
<g transform="matrix(1.7826,0,0,0.800182,-7248.03,-312.572)">
<path d="M4095.64,417.523L4095.64,399.816C4095.64,398.436 4096.14,397.317 4096.76,397.317C4096.76,397.317 4107,397.317 4107,397.317C4107.62,397.317 4108.13,398.436 4108.13,399.816C4108.13,401.455 4108.13,417.523 4108.13,417.523C4108.13,418.902 4108.63,420.022 4109.25,420.022C4109.87,420.022 4110.37,418.902 4110.37,417.523C4110.37,417.523 4110.37,401.455 4110.37,399.816C4110.37,395.675 4108.86,392.318 4107,392.318L4096.76,392.318C4094.9,392.318 4093.39,395.675 4093.39,399.816C4093.39,401.455 4093.39,417.523 4093.39,417.523C4093.39,418.902 4093.9,420.022 4094.52,420.022C4095.14,420.022 4095.64,418.902 4095.64,417.523Z" style="fill:rgb(51,51,51);"/>
</g>
<g transform="matrix(1.08182,0,0,1.08182,-4105.93,-426.035)">
<path d="M3896.9,459.349L3812.19,459.349L3804.19,472.666L3804.19,503.485C3804.19,504.956 3804.78,506.367 3805.82,507.407C3806.86,508.447 3808.27,509.032 3809.74,509.032C3827.33,509.032 3881.76,509.032 3899.35,509.032C3900.83,509.032 3902.24,508.447 3903.28,507.407C3904.32,506.367 3904.9,504.956 3904.9,503.485C3904.9,493.304 3904.9,472.666 3904.9,472.666L3896.9,459.349Z" style="fill:rgb(51,51,51);"/>
</g>
<g transform="matrix(1.08182,0,0,-1.08182,-4105.93,567.832)">
<path d="M3896.9,459.349L3812.19,459.349L3804.19,472.666L3804.19,503.485C3804.19,504.956 3804.78,506.367 3805.82,507.407C3806.86,508.447 3808.27,509.032 3809.74,509.032C3827.33,509.032 3881.76,509.032 3899.35,509.032C3900.83,509.032 3902.24,508.447 3903.28,507.407C3904.32,506.367 3904.9,504.956 3904.9,503.485L3904.9,472.666L3896.9,459.349Z" style="fill:rgb(51,51,51);"/>
</g>
<g transform="matrix(1,0,0,1,-7236.9,-8967.75)">
<path d="M7246.43,8998.25L7246.43,8990.9C7246.43,8989.31 7247.06,8987.78 7248.18,8986.65C7249.31,8985.53 7250.84,8984.9 7252.43,8984.9L7349.38,8984.9C7350.97,8984.9 7352.49,8985.53 7353.62,8986.65C7354.74,8987.78 7355.38,8989.31 7355.38,8990.9L7355.38,9024.24L7355.38,8998.25C7355.38,8996.66 7354.74,8995.13 7353.62,8994.01C7352.49,8992.88 7350.97,8992.25 7349.38,8992.25C7330.34,8992.25 7271.46,8992.25 7252.43,8992.25C7250.84,8992.25 7249.31,8992.88 7248.18,8994.01C7247.06,8995.13 7246.43,8996.66 7246.43,8998.25Z" style="fill:rgb(25,25,25);"/>
</g>
<g>
<g transform="matrix(1.08182,0,0,1.08182,-4102.93,-426.035)">
<path d="M3810.94,421.173L3817,421.173C3818.02,421.173 3818.85,420.345 3818.85,419.325C3818.85,418.304 3818.02,417.476 3817,417.476L3810.94,417.476C3808.9,417.476 3807.24,419.131 3807.24,421.173C3807.24,426.885 3807.24,443.868 3807.24,443.868C3807.24,444.888 3808.07,445.717 3809.09,445.717C3810.11,445.717 3810.94,444.888 3810.94,443.868L3810.94,421.173Z" style="fill:rgb(158,158,158);"/>
</g>
<g transform="matrix(1.08182,0,0,1.08182,-4094.59,-417.677)">
<path d="M3810.94,421.173C3813.28,421.173 3817,421.173 3817,421.173C3818.02,421.173 3818.85,420.345 3818.85,419.325C3818.85,418.304 3818.02,417.476 3817,417.476L3810.94,417.476C3809.96,417.476 3809.02,417.865 3808.33,418.559C3807.63,419.252 3807.24,420.193 3807.24,421.173C3807.24,425.543 3807.24,436.142 3807.24,436.142C3807.24,437.162 3808.07,437.99 3809.09,437.99C3810.11,437.99 3810.94,437.162 3810.94,436.142L3810.94,421.173Z" style="fill:rgb(158,158,158);"/>
</g>
<g transform="matrix(1.08182,0,0,1.08182,-4086.25,-408.129)">
<path d="M3810.94,421.173C3812.51,421.173 3814.51,421.173 3814.51,421.173C3815.53,421.173 3816.36,420.345 3816.36,419.325C3816.36,418.304 3815.53,417.476 3814.51,417.476C3814.51,417.476 3812.51,417.476 3810.94,417.476C3809.96,417.476 3809.02,417.865 3808.33,418.559C3807.63,419.252 3807.24,420.193 3807.24,421.173C3807.24,423.534 3807.24,427.316 3807.24,427.316C3807.24,428.336 3808.07,429.164 3809.09,429.164C3810.11,429.164 3810.94,428.336 3810.94,427.316L3810.94,421.173Z" style="fill:rgb(158,158,158);"/>
</g>
<g transform="matrix(1,0,0,1,-7236.9,-8967.75)">
<path d="M7254.92,9023.89L7254.92,8999.53C7254.92,8997.32 7256.71,8995.53 7258.92,8995.53L7265.29,8995.53C7265.29,8995.47 7265.3,8995.41 7265.3,8995.35C7265.3,8994.24 7264.4,8993.35 7263.3,8993.35L7256.74,8993.35C7254.53,8993.35 7252.74,8995.14 7252.74,8997.35C7252.74,9003.52 7252.74,9021.9 7252.74,9021.9C7252.74,9023 7253.63,9023.9 7254.74,9023.9C7254.8,9023.9 7254.86,9023.89 7254.92,9023.89Z" style="fill:rgb(182,182,182);"/>
</g>
<g transform="matrix(1,0,0,1,-7236.9,-8967.75)">
<path d="M7263.26,9023.89L7263.26,9007.89C7263.26,9006.83 7263.68,9005.81 7264.43,9005.06C7265.18,9004.31 7266.19,9003.89 7267.26,9003.89L7273.62,9003.89C7273.63,9003.83 7273.63,9003.77 7273.63,9003.7C7273.63,9002.6 7272.74,9001.7 7271.63,9001.7L7265.07,9001.7C7264.01,9001.7 7262.99,9002.13 7262.24,9002.88C7261.49,9003.63 7261.07,9004.64 7261.07,9005.7C7261.07,9010.43 7261.07,9021.9 7261.07,9021.9C7261.07,9023 7261.97,9023.9 7263.07,9023.9C7263.13,9023.9 7263.19,9023.89 7263.26,9023.89Z" style="fill:rgb(182,182,182);"/>
</g>
<g transform="matrix(1,0,0,1,-7236.9,-8967.75)">
<path d="M7271.59,9023.89L7271.59,9017.44C7271.59,9016.38 7272.01,9015.36 7272.76,9014.61C7273.51,9013.86 7274.53,9013.44 7275.59,9013.44L7279.26,9013.44C7279.27,9013.38 7279.27,9013.31 7279.27,9013.25C7279.27,9012.15 7278.38,9011.25 7277.27,9011.25C7277.27,9011.25 7275.11,9011.25 7273.41,9011.25C7272.35,9011.25 7271.33,9011.67 7270.58,9012.42C7269.83,9013.17 7269.41,9014.19 7269.41,9015.25C7269.41,9017.81 7269.41,9021.9 7269.41,9021.9C7269.41,9023 7270.3,9023.9 7271.41,9023.9C7271.47,9023.9 7271.53,9023.89 7271.59,9023.89Z" style="fill:rgb(182,182,182);"/>
</g>
</g>
<g>
<g transform="matrix(1.08182,0,0,1.08182,-4100.87,-426.035)">
<path d="M3846.87,419.235C3846.87,418.255 3846.48,417.314 3845.79,416.621C3845.09,415.927 3844.15,415.538 3843.17,415.538C3843.05,415.538 3842.93,415.538 3842.81,415.538C3841.83,415.538 3840.89,415.927 3840.2,416.621C3839.5,417.314 3839.11,418.255 3839.11,419.235C3839.11,424.607 3839.11,433.934 3839.11,433.934L3846.87,433.934L3846.87,419.235Z" style="fill:rgb(244,49,49);"/>
</g>
<g transform="matrix(1,0,0,1,-6345.33,-8976.79)">
<path d="M6401.88,9000.3L6401.7,9000.3C6400.64,9000.3 6399.62,9000.72 6398.87,9001.47C6398.12,9002.22 6397.7,9003.24 6397.7,9004.3C6397.7,9010.11 6397.7,9020.2 6397.7,9020.2L6401.88,9020.2L6401.88,9000.3Z" style="fill:rgb(247,101,101);"/>
</g>
<g transform="matrix(1.08182,0,0,1.10012,-4100.87,-434.329)">
<path d="M3841.13,434.255L3841.13,453.277C3841.13,454.281 3841.96,455.095 3842.98,455.095C3844,455.095 3844.83,454.281 3844.83,453.277L3844.83,434.255C3844.83,433.252 3844,432.437 3842.98,432.437C3841.96,432.437 3841.13,433.252 3841.13,434.255Z" style="fill:rgb(182,182,182);"/>
</g>
<g transform="matrix(1,0,0,1,-6345.33,-8976.79)">
<path d="M6401.88,9018.2C6400.78,9018.2 6399.88,9019.09 6399.88,9020.2L6399.88,9041.12C6399.88,9042.23 6400.78,9043.12 6401.88,9043.12C6401.88,9043.12 6401.88,9018.2 6401.88,9018.2Z" style="fill:rgb(200,200,200);"/>
</g>
<g transform="matrix(1,0,0,1,-3758.68,-8976.79)">
<path d="M3808.67,9022.2L3821.8,9022.2C3822.91,9022.2 3823.8,9021.3 3823.8,9020.2C3823.8,9019.09 3822.91,9018.2 3821.8,9018.2L3808.67,9018.2C3807.56,9018.2 3806.67,9019.09 3806.67,9020.2C3806.67,9021.3 3807.56,9022.2 3808.67,9022.2Z" style="fill:rgb(244,49,49);"/>
</g>
<g transform="matrix(1,0,0,1,-6345.33,-8976.79)">
<path d="M6393.31,9020.2L6410.45,9020.2C6410.45,9019.09 6409.55,9018.2 6408.45,9018.2L6395.31,9018.2C6394.21,9018.2 6393.31,9019.09 6393.31,9020.2Z" style="fill:rgb(247,101,101);"/>
</g>
</g>
<g>
<g transform="matrix(3.21916,0,0,0.380396,-12278,-104.426)">
<path d="M3846.87,424.734C3846.87,422.933 3846.81,421.254 3846.7,419.836C3846.51,417.253 3846.17,415.538 3845.78,415.538C3843.65,415.538 3839.11,415.538 3839.11,415.538L3839.11,433.934C3839.11,433.934 3843.65,433.934 3845.78,433.934C3846.38,433.934 3846.87,429.817 3846.87,424.738C3846.87,424.737 3846.87,424.735 3846.87,424.734Z" style="fill:rgb(182,182,182);"/>
</g>
<g transform="matrix(1,0,0,1,-6345.33,-8976.79)">
<path d="M6451.04,9033.94L6426.07,9033.94L6426.07,9037.43L6447.54,9037.43C6449.47,9037.43 6451.04,9035.87 6451.04,9033.94L6451.04,9033.94Z" style="fill:rgb(136,136,136);"/>
</g>
<g transform="matrix(1.08182,0,0,1.08182,-4107.48,-426.035)">
<path d="M3871.45,443.331C3871.45,441.509 3869.97,440.03 3868.15,440.03L3861.55,440.03C3859.73,440.03 3858.25,441.509 3858.25,443.331L3858.25,449.933C3858.25,451.755 3859.73,453.234 3861.55,453.234L3868.15,453.234C3869.97,453.234 3871.45,451.755 3871.45,449.933L3871.45,443.331Z" style="fill:rgb(182,182,182);"/>
</g>
<g transform="matrix(1,0,0,1,-6345.33,-8976.79)">
<path d="M6411.79,9032.82L6411.79,9037.51C6411.79,9039.48 6413.39,9041.08 6415.36,9041.08L6422.5,9041.08C6424.47,9041.08 6426.07,9039.48 6426.07,9037.51L6426.07,9032.82C6426.07,9034.79 6424.47,9036.39 6422.5,9036.39L6415.36,9036.39C6413.39,9036.39 6411.79,9034.79 6411.79,9032.82Z" style="fill:rgb(136,136,136);"/>
</g>
<g transform="matrix(1,0,0,1,-3758.68,-8976.79)">
<path d="M3830.37,9032.03C3829.56,9032.28 3828.97,9033.04 3828.97,9033.94C3828.97,9034.83 3829.56,9035.59 3830.37,9035.84C3830.63,9036.66 3831.39,9037.25 3832.28,9037.25C3833.18,9037.25 3833.94,9036.66 3834.19,9035.84C3835,9035.59 3835.59,9034.83 3835.59,9033.94C3835.59,9033.04 3835,9032.28 3834.19,9032.03C3833.94,9031.22 3833.18,9030.63 3832.28,9030.63C3831.39,9030.63 3830.63,9031.22 3830.37,9032.03Z" style="fill:rgb(118,118,118);"/>
</g>
</g>
<g>
<g transform="matrix(2.26523,0,0,2.26523,-8677.59,-980.899)">
<path d="M3863.94,443.873C3862.04,443.873 3860.5,445.413 3860.5,447.311C3860.5,449.208 3862.04,450.749 3863.94,450.749C3865.84,450.749 3867.38,449.208 3867.38,447.311C3867.38,445.413 3865.84,443.873 3863.94,443.873ZM3863.94,445.638C3864.86,445.638 3865.61,446.388 3865.61,447.311C3865.61,448.234 3864.86,448.984 3863.94,448.984C3863.01,448.984 3862.26,448.234 3862.26,447.311C3862.26,446.388 3863.01,445.638 3863.94,445.638Z" style="fill:rgb(182,182,182);"/>
</g>
<g transform="matrix(1.66786,0,0,1.66786,-6353.48,-712.164)">
<path d="M3863.94,443.556C3861.87,443.556 3860.18,445.239 3860.18,447.311C3860.18,449.383 3861.87,451.066 3863.94,451.066C3866.01,451.066 3867.7,449.383 3867.7,447.311C3867.7,445.239 3866.01,443.556 3863.94,443.556ZM3863.94,445.955C3864.69,445.955 3865.3,446.562 3865.3,447.311C3865.3,448.06 3864.69,448.667 3863.94,448.667C3863.19,448.667 3862.58,448.06 3862.58,447.311C3862.58,446.562 3863.19,445.955 3863.94,445.955Z" style="fill:rgb(182,182,182);"/>
</g>
<g transform="matrix(1.35883,0,0,1.35883,-5145.81,-573.142)">
<path d="M3863.94,443.284C3861.71,443.284 3859.91,445.089 3859.91,447.311C3859.91,449.533 3861.71,451.338 3863.94,451.338C3866.16,451.338 3867.97,449.533 3867.97,447.311C3867.97,445.089 3866.16,443.284 3863.94,443.284ZM3863.94,446.227C3864.54,446.227 3865.03,446.712 3865.03,447.311C3865.03,447.909 3864.54,448.395 3863.94,448.395C3863.34,448.395 3862.85,447.909 3862.85,447.311C3862.85,446.712 3863.34,446.227 3863.94,446.227Z" style="fill:rgb(182,182,182);"/>
</g>
<g transform="matrix(1,0,0,1,-6345.33,-8976.79)">
<path d="M6428.11,9007.71C6427.43,9011.32 6424.25,9014.05 6420.44,9014.05C6416.64,9014.05 6413.46,9011.32 6412.78,9007.71C6412.7,9008.18 6412.65,9008.66 6412.65,9009.16C6412.65,9013.46 6416.14,9016.95 6420.44,9016.95C6424.75,9016.95 6428.24,9013.46 6428.24,9009.16C6428.24,9008.66 6428.19,9008.18 6428.11,9007.71Z" style="fill:rgb(136,136,136);"/>
</g>
<g transform="matrix(1,0,0,1,-6345.33,-8976.79)">
<path d="M6430.14,9009.95C6430.11,9010.19 6430.1,9010.44 6430.1,9010.68C6430.1,9014.14 6432.91,9016.95 6436.37,9016.95C6439.83,9016.95 6442.63,9014.14 6442.63,9010.68C6442.63,9010.44 6442.62,9010.19 6442.59,9009.95C6442.23,9013.07 6439.58,9015.48 6436.37,9015.48C6433.15,9015.48 6430.51,9013.07 6430.14,9009.95Z" style="fill:rgb(136,136,136);"/>
</g>
<g transform="matrix(1,0,0,1,-6345.33,-8976.79)">
<path d="M6444.53,9010.8C6444.51,9011.02 6444.49,9011.25 6444.49,9011.47C6444.49,9014.49 6446.95,9016.95 6449.97,9016.95C6452.99,9016.95 6455.45,9014.49 6455.45,9011.47C6455.45,9011.25 6455.43,9011.02 6455.4,9010.8C6455.07,9013.5 6452.76,9015.6 6449.97,9015.6C6447.18,9015.6 6444.87,9013.5 6444.53,9010.8Z" style="fill:rgb(136,136,136);"/>
</g>
</g>
<g transform="matrix(1,0,0,1,-7236.9,-8967.75)">
<path d="M7346.72,9038.65L7339.98,9038.65L7348.63,9053.05C7348.63,9053.05 7348.63,9075.38 7348.63,9086.39C7348.63,9087.98 7348,9089.51 7346.88,9090.64C7345.75,9091.76 7344.22,9092.39 7342.63,9092.39L7349.38,9092.39C7350.97,9092.39 7352.49,9091.76 7353.62,9090.64C7354.74,9089.51 7355.38,9087.98 7355.38,9086.39C7355.38,9075.38 7355.38,9053.05 7355.38,9053.05L7346.72,9038.65Z" style="fill:rgb(25,25,25);"/>
</g>
<g transform="matrix(1,0,0,1,-7236.9,-8967.75)">
<path d="M7349.38,8984.9C7350.97,8984.9 7352.49,8985.53 7353.62,8986.65C7354.74,8987.78 7355.38,8989.31 7355.38,8990.9C7355.38,9001.91 7355.38,9024.24 7355.38,9024.24L7346.72,9038.65L7339.76,9038.65L7348.41,9024.24L7348.41,8990.9C7348.41,8989.31 7347.78,8987.78 7346.65,8986.65C7345.53,8985.53 7344,8984.9 7342.41,8984.9L7349.38,8984.9Z" style="fill:rgb(25,25,25);"/>
</g>
<g transform="matrix(1,0,0,1,-7236.9,-8967.75)">
<path d="M7246.43,9085.74L7246.43,9086.39C7246.43,9087.98 7247.06,9089.51 7248.18,9090.64C7249.31,9091.76 7250.84,9092.39 7252.43,9092.39C7271.46,9092.39 7330.34,9092.39 7349.38,9092.39C7350.97,9092.39 7352.49,9091.76 7353.62,9090.64C7354.74,9089.51 7355.38,9087.98 7355.38,9086.39L7355.38,9085.74L7246.43,9085.74Z" style="fill:rgb(25,25,25);"/>
</g>
<g>
<g transform="matrix(1,0,0,1,-3758.68,-8976.79)">
<path d="M3840.51,9062.27L3853.06,9062.27C3853.96,9065.24 3856.72,9067.39 3859.97,9067.37C3861.92,9067.36 3863.68,9066.56 3864.97,9065.29C3865.75,9064.51 3865.76,9063.25 3864.98,9062.46C3864.2,9061.68 3862.93,9061.67 3862.15,9062.45C3861.58,9063.01 3860.81,9063.36 3859.94,9063.37C3858.2,9063.38 3856.77,9061.97 3856.76,9060.23C3856.75,9058.48 3858.16,9057.05 3859.9,9057.04C3860.77,9057.03 3861.56,9057.38 3862.14,9057.93C3862.93,9058.69 3864.2,9058.66 3864.96,9057.86C3865.73,9057.07 3865.7,9055.8 3864.9,9055.04C3863.59,9053.79 3861.82,9053.03 3859.88,9053.04C3856.61,9053.06 3853.86,9055.27 3853.02,9058.27L3840.54,9058.27C3839.69,9054.98 3836.71,9052.54 3833.15,9052.51C3831.06,9052.5 3829.16,9053.32 3827.76,9054.66C3826.96,9055.42 3826.93,9056.69 3827.69,9057.49C3828.45,9058.28 3829.72,9058.32 3830.52,9057.55C3831.2,9056.91 3832.11,9056.51 3833.12,9056.51C3835.16,9056.53 3836.8,9058.19 3836.79,9060.23C3836.78,9062.26 3835.11,9063.91 3833.07,9063.89C3832.07,9063.89 3831.16,9063.48 3830.5,9062.82C3829.72,9062.05 3828.45,9062.05 3827.67,9062.83C3826.89,9063.62 3826.9,9064.89 3827.68,9065.66C3829.06,9067.03 3830.95,9067.88 3833.05,9067.89C3836.59,9067.92 3839.6,9065.53 3840.51,9062.27Z" style="fill:rgb(182,182,182);"/>
</g>
<g transform="matrix(1,0,0,1,-6345.33,-8976.79)">
<path d="M6420.92,9067.81C6419.27,9067.55 6417.8,9066.78 6416.67,9065.66C6415.89,9064.89 6415.89,9063.62 6416.66,9062.83C6416.74,9062.76 6416.82,9062.68 6416.91,9062.62C6416.13,9062.05 6415.02,9062.12 6414.32,9062.83C6413.54,9063.62 6413.55,9064.89 6414.33,9065.66C6415.71,9067.03 6417.6,9067.88 6419.69,9067.89C6420.11,9067.9 6420.52,9067.87 6420.92,9067.81ZM6442.05,9062.27L6439.71,9062.27C6440.6,9065.24 6443.36,9067.39 6446.62,9067.37C6447,9067.37 6447.38,9067.33 6447.74,9067.27C6445.03,9066.83 6442.83,9064.86 6442.05,9062.27ZM6420.92,9056.7C6422.39,9057.2 6423.44,9058.59 6423.43,9060.23C6423.42,9061.85 6422.37,9063.22 6420.92,9063.7C6421.28,9063.82 6421.66,9063.89 6422.07,9063.89C6424.1,9063.91 6425.77,9062.26 6425.78,9060.23C6425.79,9058.19 6424.15,9056.53 6422.11,9056.51C6421.69,9056.51 6421.29,9056.58 6420.92,9056.7ZM6447.74,9063.14C6448.11,9063.29 6448.51,9063.37 6448.94,9063.37C6449.8,9063.36 6450.57,9063.01 6451.14,9062.45C6451.22,9062.38 6451.3,9062.31 6451.38,9062.25C6450.6,9061.68 6449.5,9061.75 6448.8,9062.45C6448.5,9062.75 6448.14,9062.99 6447.74,9063.14ZM6447.74,9057.26C6448.13,9057.42 6448.48,9057.65 6448.78,9057.93C6449.49,9058.61 6450.57,9058.66 6451.34,9058.11C6451.26,9058.05 6451.19,9058 6451.13,9057.93C6450.55,9057.38 6449.76,9057.03 6448.89,9057.04C6448.49,9057.04 6448.1,9057.12 6447.74,9057.26ZM6439.67,9058.27L6442.01,9058.27C6442.76,9055.62 6444.98,9053.59 6447.74,9053.14C6447.35,9053.07 6446.94,9053.04 6446.52,9053.04C6443.25,9053.06 6440.51,9055.27 6439.67,9058.27ZM6416.96,9057.73C6416.86,9057.66 6416.77,9057.58 6416.68,9057.49C6415.92,9056.69 6415.95,9055.42 6416.75,9054.66C6417.87,9053.59 6419.31,9052.85 6420.92,9052.6C6420.55,9052.55 6420.18,9052.52 6419.79,9052.51C6417.71,9052.5 6415.81,9053.32 6414.4,9054.66C6413.61,9055.42 6413.57,9056.69 6414.34,9057.49C6415.04,9058.22 6416.16,9058.31 6416.96,9057.73Z" style="fill:rgb(219,219,219);"/>
</g>
<g transform="matrix(1,0,0,1,-3758.68,-8976.79)">
<path d="M3845.89,9078.44L3854.64,9078.44C3855.47,9080.7 3857.65,9082.3 3860.2,9082.28C3861.8,9082.27 3863.25,9081.62 3864.31,9080.57C3865.09,9079.8 3865.09,9078.53 3864.32,9077.75C3863.54,9076.96 3862.27,9076.96 3861.49,9077.73C3861.15,9078.07 3860.68,9078.28 3860.17,9078.28C3859.13,9078.29 3858.28,9077.45 3858.27,9076.4C3858.26,9075.36 3859.1,9074.51 3860.14,9074.5C3860.66,9074.5 3861.14,9074.7 3861.48,9075.04C3862.28,9075.8 3863.55,9075.77 3864.31,9074.97C3865.07,9074.17 3865.04,9072.91 3864.24,9072.14C3863.17,9071.12 3861.72,9070.49 3860.12,9070.5C3857.57,9070.52 3855.4,9072.16 3854.6,9074.44L3845.93,9074.44C3845.11,9071.94 3842.77,9070.12 3839.99,9070.11C3838.29,9070.09 3836.74,9070.76 3835.59,9071.86C3834.79,9072.62 3834.76,9073.89 3835.52,9074.68C3836.28,9075.48 3837.55,9075.51 3838.35,9074.75C3838.77,9074.35 3839.34,9074.1 3839.97,9074.11C3841.23,9074.11 3842.25,9075.15 3842.24,9076.41C3842.23,9077.67 3841.2,9078.69 3839.94,9078.68C3839.32,9078.67 3838.75,9078.42 3838.34,9078.01C3837.56,9077.24 3836.29,9077.24 3835.51,9078.03C3834.74,9078.81 3834.74,9080.08 3835.53,9080.85C3836.65,9081.97 3838.2,9082.67 3839.91,9082.68C3842.68,9082.7 3845.04,9080.92 3845.89,9078.44Z" style="fill:rgb(182,182,182);"/>
</g>
<g transform="matrix(1,0,0,1,-3758.68,-8976.79)">
<path d="M3848.33,9092.52L3855.19,9092.52C3855.99,9094.42 3857.88,9095.74 3860.06,9095.73C3861.49,9095.72 3862.79,9095.14 3863.73,9094.2C3864.51,9093.43 3864.52,9092.16 3863.74,9091.38C3862.96,9090.59 3861.7,9090.59 3860.91,9091.36C3860.69,9091.59 3860.38,9091.73 3860.04,9091.73C3859.35,9091.73 3858.78,9091.18 3858.78,9090.48C3858.77,9089.79 3859.33,9089.23 3860.02,9089.22C3860.37,9089.22 3860.68,9089.36 3860.91,9089.58C3861.71,9090.34 3862.98,9090.31 3863.74,9089.51C3864.5,9088.71 3864.47,9087.45 3863.67,9086.68C3862.72,9085.77 3861.42,9085.21 3859.99,9085.22C3857.8,9085.24 3855.93,9086.6 3855.15,9088.52L3848.36,9088.52C3847.57,9086.41 3845.55,9084.91 3843.17,9084.89C3841.65,9084.88 3840.27,9085.48 3839.26,9086.44C3838.46,9087.21 3838.43,9088.47 3839.19,9089.27C3839.95,9090.07 3841.22,9090.1 3842.02,9089.34C3842.31,9089.06 3842.7,9088.89 3843.14,9088.89C3844.01,9088.9 3844.72,9089.61 3844.72,9090.49C3844.71,9091.36 3843.99,9092.07 3843.12,9092.06C3842.69,9092.06 3842.3,9091.88 3842.01,9091.6C3841.23,9090.82 3839.96,9090.83 3839.19,9091.61C3838.41,9092.39 3838.41,9093.66 3839.2,9094.44C3840.2,9095.43 3841.57,9096.05 3843.09,9096.06C3845.47,9096.08 3847.51,9094.6 3848.33,9092.52Z" style="fill:rgb(182,182,182);"/>
</g>
<g transform="matrix(1,0,0,1,-6345.33,-8976.79)">
<path d="M6427.47,9082.62C6426.1,9082.43 6424.86,9081.79 6423.92,9080.85C6423.14,9080.08 6423.13,9078.81 6423.91,9078.03C6424.07,9077.86 6424.26,9077.73 6424.45,9077.64C6423.71,9077.27 6422.78,9077.4 6422.16,9078.03C6421.38,9078.81 6421.39,9080.08 6422.17,9080.85C6423.3,9081.97 6424.85,9082.67 6426.56,9082.68C6426.87,9082.68 6427.17,9082.66 6427.47,9082.62ZM6443.03,9078.44L6441.28,9078.44C6442.12,9080.7 6444.3,9082.3 6446.84,9082.28C6447.12,9082.28 6447.4,9082.26 6447.68,9082.22C6445.53,9081.9 6443.77,9080.42 6443.03,9078.44ZM6427.47,9074.28C6428.31,9074.62 6428.89,9075.45 6428.88,9076.41C6428.88,9077.35 6428.3,9078.16 6427.47,9078.5C6427.74,9078.61 6428.03,9078.68 6428.33,9078.68C6429.59,9078.69 6430.62,9077.67 6430.63,9076.41C6430.64,9075.15 6429.62,9074.11 6428.36,9074.11C6428.05,9074.1 6427.75,9074.17 6427.47,9074.28ZM6447.68,9078.07C6447.94,9078.21 6448.24,9078.28 6448.56,9078.28C6449.08,9078.28 6449.54,9078.07 6449.88,9077.73C6450.04,9077.57 6450.22,9077.45 6450.42,9077.35C6449.67,9076.99 6448.75,9077.12 6448.13,9077.73C6448,9077.87 6447.85,9077.98 6447.68,9078.07ZM6447.68,9074.72C6447.84,9074.8 6448,9074.91 6448.13,9075.04C6448.75,9075.63 6449.65,9075.74 6450.38,9075.39C6450.2,9075.3 6450.03,9075.18 6449.88,9075.04C6449.53,9074.7 6449.06,9074.5 6448.54,9074.5C6448.23,9074.5 6447.94,9074.58 6447.68,9074.72ZM6424.49,9075.1C6424.28,9075 6424.09,9074.86 6423.92,9074.68C6423.15,9073.89 6423.19,9072.62 6423.98,9071.86C6424.92,9070.96 6426.13,9070.35 6427.47,9070.17C6427.2,9070.13 6426.92,9070.11 6426.64,9070.11C6424.93,9070.09 6423.38,9070.76 6422.24,9071.86C6421.44,9072.62 6421.41,9073.89 6422.17,9074.68C6422.78,9075.33 6423.73,9075.47 6424.49,9075.1ZM6441.24,9074.44L6442.99,9074.44C6443.7,9072.42 6445.49,9070.89 6447.68,9070.57C6447.38,9070.52 6447.07,9070.5 6446.76,9070.5C6444.21,9070.52 6442.05,9072.16 6441.24,9074.44Z" style="fill:rgb(219,219,219);"/>
</g>
<g transform="matrix(1,0,0,1,-6345.33,-8976.79)">
<path d="M6430.59,9096C6429.38,9095.82 6428.3,9095.26 6427.47,9094.44C6426.69,9093.66 6426.68,9092.39 6427.46,9091.61C6427.64,9091.43 6427.85,9091.29 6428.07,9091.19C6427.33,9090.86 6426.43,9091 6425.83,9091.61C6425.05,9092.39 6425.06,9093.66 6425.84,9094.44C6426.84,9095.43 6428.22,9096.05 6429.74,9096.06C6430.03,9096.06 6430.31,9096.04 6430.59,9096ZM6443.46,9092.52L6441.83,9092.52C6442.64,9094.42 6444.52,9095.74 6446.71,9095.73C6446.98,9095.73 6447.24,9095.7 6447.49,9095.67C6445.67,9095.38 6444.16,9094.16 6443.46,9092.52ZM6430.59,9089.11C6431.05,9089.39 6431.36,9089.9 6431.36,9090.49C6431.36,9091.06 6431.05,9091.56 6430.59,9091.83C6430.82,9091.98 6431.1,9092.06 6431.39,9092.06C6432.27,9092.07 6432.98,9091.36 6432.99,9090.49C6432.99,9089.61 6432.29,9088.9 6431.41,9088.89C6431.11,9088.89 6430.83,9088.97 6430.59,9089.11ZM6447.49,9091.43C6447.71,9091.62 6448,9091.73 6448.31,9091.73C6448.65,9091.73 6448.96,9091.59 6449.19,9091.36C6449.36,9091.19 6449.56,9091.05 6449.78,9090.96C6449.05,9090.63 6448.16,9090.77 6447.56,9091.36C6447.53,9091.39 6447.51,9091.41 6447.49,9091.43ZM6447.49,9089.52C6447.52,9089.54 6447.54,9089.56 6447.56,9089.58C6448.16,9090.16 6449.03,9090.28 6449.75,9089.96C6449.55,9089.87 6449.36,9089.74 6449.19,9089.58C6448.95,9089.36 6448.64,9089.22 6448.3,9089.22C6447.99,9089.22 6447.71,9089.34 6447.49,9089.52ZM6428.1,9089.72C6427.86,9089.62 6427.65,9089.47 6427.46,9089.27C6426.7,9088.47 6426.73,9087.21 6427.53,9086.44C6428.35,9085.66 6429.41,9085.12 6430.59,9084.95C6430.34,9084.91 6430.08,9084.89 6429.81,9084.89C6428.3,9084.88 6426.92,9085.48 6425.9,9086.44C6425.1,9087.21 6425.07,9088.47 6425.83,9089.27C6426.43,9089.9 6427.34,9090.05 6428.1,9089.72ZM6441.8,9088.52L6443.43,9088.52C6444.11,9086.83 6445.64,9085.57 6447.49,9085.28C6447.21,9085.24 6446.93,9085.22 6446.64,9085.22C6444.44,9085.24 6442.57,9086.6 6441.8,9088.52Z" style="fill:rgb(219,219,219);"/>
</g>
</g>
<g>
<g transform="matrix(0.747845,0,0,0.747845,-2823.01,-267.769)">
<path d="M3853.25,475.046C3853.25,475.046 3845.58,480.616 3838.2,475.636C3833.94,472.765 3832.37,470.623 3830.87,469.229C3828.89,467.382 3827.08,466.352 3821.93,466.442C3820.45,466.467 3819.28,467.686 3819.3,469.162C3819.33,470.638 3820.55,471.815 3822.02,471.789C3823.91,471.757 3825.09,471.864 3825.98,472.256C3826.81,472.624 3827.35,473.241 3828.1,474.01C3829.55,475.507 3831.43,477.523 3835.21,480.07C3845.58,487.069 3856.37,479.392 3856.37,479.392C3857.57,478.531 3857.85,476.859 3856.99,475.66C3856.13,474.46 3854.45,474.185 3853.25,475.046Z" style="fill:rgb(182,182,182);"/>
</g>
<g transform="matrix(1,0,0,1,-7236.9,-8967.75)">
<path d="M7270.41,9049.81C7270.23,9050.11 7270.14,9050.46 7270.14,9050.84C7270.16,9051.94 7271.07,9052.82 7272.18,9052.8C7273.59,9052.78 7274.47,9052.86 7275.13,9053.15C7275.76,9053.43 7276.16,9053.89 7276.72,9054.46C7277.8,9055.58 7279.21,9057.09 7282.04,9059C7289.8,9064.23 7297.86,9058.49 7297.86,9058.49C7298.7,9057.88 7298.94,9056.75 7298.43,9055.87C7298.29,9056.11 7298.1,9056.32 7297.86,9056.49C7297.86,9056.49 7289.8,9062.24 7282.04,9057C7279.21,9055.1 7277.8,9053.59 7276.72,9052.47C7276.16,9051.89 7275.76,9051.43 7275.13,9051.16C7274.47,9050.86 7273.59,9050.78 7272.18,9050.81C7271.42,9050.82 7270.76,9050.42 7270.41,9049.81Z" style="fill:rgb(118,118,118);"/>
</g>
<g transform="matrix(1,0,0,1,-7236.9,-8967.75)">
<path d="M7297.86,9048.21C7297.86,9048.21 7289.8,9042.47 7282.04,9047.7C7279.21,9049.61 7277.8,9051.12 7276.72,9052.24C7276.16,9052.81 7275.76,9053.27 7275.13,9053.55C7274.47,9053.84 7273.59,9053.92 7272.18,9053.9C7271.07,9053.88 7270.16,9054.76 7270.14,9055.86C7270.12,9056.97 7271,9057.88 7272.11,9057.9C7275.96,9057.96 7277.31,9057.19 7278.8,9055.81C7279.91,9054.77 7281.09,9053.17 7284.27,9051.02C7289.79,9047.3 7295.53,9051.46 7295.53,9051.46C7296.43,9052.11 7297.68,9051.9 7298.32,9051C7298.97,9050.11 7298.76,9048.86 7297.86,9048.21Z" style="fill:rgb(182,182,182);"/>
</g>
<g transform="matrix(1,0,0,1,-7236.9,-8967.75)">
<path d="M7270.37,9056.82C7270.71,9056.17 7271.39,9055.73 7272.18,9055.75C7273.59,9055.77 7274.47,9055.69 7275.13,9055.4C7275.76,9055.12 7276.16,9054.66 7276.72,9054.09C7277.8,9052.97 7279.21,9051.46 7282.04,9049.55C7289.8,9044.32 7297.86,9050.06 7297.86,9050.06C7298.13,9050.25 7298.33,9050.49 7298.47,9050.76C7298.93,9049.89 7298.68,9048.8 7297.86,9048.21C7297.86,9048.21 7289.8,9042.47 7282.04,9047.7C7279.21,9049.61 7277.8,9051.12 7276.72,9052.24C7276.16,9052.81 7275.76,9053.27 7275.13,9053.55C7274.47,9053.84 7273.59,9053.92 7272.18,9053.9C7271.07,9053.88 7270.16,9054.76 7270.14,9055.86C7270.14,9056.21 7270.22,9056.53 7270.37,9056.82Z" style="fill:rgb(219,219,219);"/>
</g>
</g>
<g>
<g transform="matrix(0.857009,0,0,1.08182,-3247.43,-428.199)">
<rect height="7.453" style="fill:rgb(247,208,112);" width="40.934" x="3823.55" y="490.563"/>
</g>
<g transform="matrix(0.857009,0,0,0.531797,-3247.43,-154.277)">
<rect height="7.453" style="fill:rgb(185,156,84);" width="40.934" x="3823.55" y="490.563"/>
</g>
<g transform="matrix(0.282352,0,0,2.84021,-1061.76,-1297.35)">
<path d="M3864.48,490.563L3847.26,490.563C3834.17,490.563 3823.55,491.619 3823.55,492.921C3823.55,495.105 3823.55,498.017 3823.55,498.017L3864.48,498.017L3864.48,490.563Z" style="fill:rgb(158,158,158);"/>
</g>
<g transform="matrix(1,0,0,1,-7236.9,-8967.75)">
<path d="M7266.29,9068.29L7266.29,9063.7L7261.43,9063.7C7257.73,9063.7 7254.73,9066.69 7254.73,9070.39L7254.73,9084.87L7259.32,9084.87L7259.32,9074.99C7259.32,9071.29 7262.32,9068.29 7266.02,9068.29L7266.29,9068.29Z" style="fill:rgb(182,182,182);"/>
</g>
</g>
<g transform="matrix(1.08182,0,0,1.08182,-4105.93,-426.035)">
<path d="M3893.47,457.5L3814.3,457.5C3813.28,457.5 3812.45,458.328 3812.45,459.349C3812.45,460.369 3813.28,461.197 3814.3,461.197L3893.47,461.197C3894.49,461.197 3895.32,460.369 3895.32,459.349C3895.32,458.328 3894.49,457.5 3893.47,457.5Z" style="fill:rgb(25,25,25);"/>
</g>
</g>
</g>
</g>
</svg>