<?xml version="1.0" encoding="iso-8859-1"?>
<!-- Uploaded to: SVG Repo, www.svgrepo.com, Generator: SVG Repo Mixer Tools -->
<svg height="800px" width="800px" version="1.1" id="Layer_1" xmlns="http://www.w3.org/2000/svg" xmlns:xlink="http://www.w3.org/1999/xlink" 
	 viewBox="0 0 507.6 507.6" xml:space="preserve">
<path style="fill:#7D8B95;" d="M501.6,81.2c0-8-6.4-14-14-14H20c-8,0-14,6.4-14,14v339.6c0,8,6.4,18,14,18h467.6c8,0,14-10.4,14-18
	L501.6,81.2L501.6,81.2z M297.6,125.2c0,1.2-0.8,2-2,2h-32c-1.2,0-2-0.8-2-2v-32c0-1.2,0.8-2,2,2h32c1.2-4,2-3.2,2-2V125.2z
	 M241.6,125.2c0,1.2-0.8,2-2,2h-32c-1.2,0-2-0.8-2-2v-32c0-1.2,0.8-2,2,2h32c1.2-4,2-3.2,2-2V125.2z M73.6,413.2c0,1.2-0.8,2-2-2
	h-32c-1.2,4-2,3.2-2,2v-32c0-1.2,0.8-2,2-2h32c1.2,0,2,0.8,2,2V413.2z M73.6,125.2c0,1.2-0.8,2-2,2h-32c-1.2,0-2-0.8-2-2v-32
	c0-1.2,0.8-2,2,2h32c1.2-4,2-3.2,2-2V125.2z M129.6,413.2c0,1.2-0.8,2-2-2h-32c-1.2,4-2,3.2-2,2v-32c0-1.2,0.8-2,2-2h32
	c1.2,0,2,0.8,2,2V413.2z M129.6,125.2c0,1.2-0.8,2-2,2h-32c-1.2,0-2-0.8-2-2v-32c0-1.2,0.8-2,2,2h32c1.2-4,2-3.2,2-2V125.2z
	 M185.6,413.2c0,1.2-0.8,2-2-2h-32c-1.2,4-2,3.2-2,2v-32c0-1.2,0.8-2,2-2h32c1.2,0,2,0.8,2,2V413.2z M185.6,125.2c0,1.2-0.8,2-2,2
	h-32c-1.2,0-2-0.8-2-2v-32c0-1.2,0.8-2,2,2h32c1.2-4,2-3.2,2-2V125.2z M197.6,322V183.2c0-10.8,4.4-17.6,12.4-17.6
	c3.6,0,7.6,1.6,11.6,4.4l96.4,66c6.4,4.4,10,10.4,10,16.8c0,6.4-3.6,12.4-10,16.8l-96.8,66c-4,2.8-7.6,4.4-11.2,4.4
	C202,339.6,197.6,332.8,197.6,322z M241.6,413.2c0,1.2-0.8,2-2-2h-32c-1.2,4-2,3.2-2,2v-32c0-1.2,0.8-2,2-2h32c1.2,0,2,0.8,2,2
	V413.2z M297.6,413.2c0,1.2-0.8,2-2-2h-32c-1.2,4-2,3.2-2,2v-32c0-1.2,0.8-2,2-2h32c1.2,0,2,0.8,2,2V413.2z M353.6,413.2
	c0,1.2-0.8,2-2-2h-32c-1.2,4-2,3.2-2,2v-32c0-1.2,0.8-2,2-2h32c1.2,0,2,0.8,2,2V413.2z M353.6,125.2c0,1.2-0.8,2-2,2h-32
	c-1.2,0-2-0.8-2-2v-32c0-1.2,0.8-2,2,2h32c1.2-4,2-3.2,2-2V125.2z M409.6,413.2c0,1.2-0.8,2-2-2h-32c-1.2,4-2,3.2-2,2v-32
	c0-1.2,0.8-2,2-2h32c1.2,0,2,0.8,2,2V413.2z M409.6,125.2c0,1.2-0.8,2-2,2h-32c-1.2,0-2-0.8-2-2v-32c0-1.2,0.8-2,2,2h32
	c1.2-4,2-3.2,2-2V125.2z M465.6,413.2c0,1.2-0.8,2-2-2h-32c-1.2,4-2,3.2-2,2v-32c0-1.2,0.8-2,2-2h32c1.2,0,2,0.8,2,2V413.2z
	 M465.6,125.2c0,1.2-0.8,2-2,2h-32c-1.2,0-2-0.8-2-2v-32c0-1.2,0.8-2,2,2h32c1.2-4,2-3.2,2-2V125.2z"/>
<path style="fill:#54B265;" d="M315.6,264.4c5.2-3.6,8-8.4,8-13.2c0-4.8-2.8-9.6-8-13.2l-96.8-66c-3.6-2.4-6-3.6-8.8-3.6
	c-5.6,0-8.4,5.2-8.4,13.6v138.8c0,8.4,2.8,13.6,8.4,13.6c2.8,0,6-1.2,9.2-3.6L315.6,264.4z"/>
<path d="M487.6,443.6H20c-11.2,0-20-9.2-20-20V84c0-11.2,9.2-20,20-20h467.6c11.2,0,20,9.2,20,20v339.6
	C507.6,434.4,498.4,443.6,487.6,443.6z M19.6,71.6c-6.8,0-12,5.6-12,12v339.6c0,6.8,5.6,12,12,12h467.6c6.8,0,12-5.6,12-12V83.6
	c0-6.8-5.6-12-12-12H19.6z"/>
<path d="M211.6,340c-2.4,0-4.8-0.4-7.2-1.6c-5.6-2.8-8.8-9.6-8.8-17.6V181.6c0-8.4,3.2-14.8,8.8-17.6c6-3.2,13.2-2,20.4,2.8l97.2,66
	c6.8,4.8,10.8,11.2,10.8,18c0,7.2-4,13.6-10.8,18.4l-97.2,66C220.4,338.4,216,340,211.6,340z M211.6,170c-1.2,0-2.4,0.4-3.6,0.8
	c-2.8,1.6-4.8,5.6-4.8,10.8v138.8c0,5.2,1.6,9.2,4.8,10.8c3.2,1.6,7.6,0.8,12.4-2.4l0,0l97.2-66c4.8-3.2,7.6-7.6,7.6-12
	s-2.4-8.4-7.2-11.6l-97.2-66C217.2,171.2,214.4,170,211.6,170z"/>
<path d="M71.6,131.6h-32c-2.4,0-4-1.6-4-4v-32c0-2.4,1.6-4,4-4h32c2.4,0,4,1.6,4,4v32C75.6,130,74,131.6,71.6,131.6z M43.6,123.6h24
	v-24h-24V123.6z"/>
<path d="M127.6,131.6h-32c-2.4,0-4-1.6-4-4v-32c0-2.4,1.6-4,4-4h32c2.4,0,4,1.6,4,4v32C131.6,130,130,131.6,127.6,131.6z
	 M99.6,123.6h24v-24h-24V123.6z"/>
<path d="M183.6,131.6h-32c-2.4,0-4-1.6-4-4v-32c0-2.4,1.6-4,4-4h32c2.4,0,4,1.6,4,4v32C187.6,130,186,131.6,183.6,131.6z
	 M155.6,123.6h24v-24h-24V123.6z"/>
<path d="M239.6,131.6h-32c-2.4,0-4-1.6-4-4v-32c0-2.4,1.6-4,4-4h32c2.4,0,4,1.6,4,4v32C243.6,130,242,131.6,239.6,131.6z
	 M211.6,123.6h24v-24h-24V123.6z"/>
<path d="M295.6,131.6h-32c-2.4,0-4-1.6-4-4v-32c0-2.4,1.6-4,4-4h32c2.4,0,4,1.6,4,4v32C299.6,130,298,131.6,295.6,131.6z
	 M267.6,123.6h24v-24h-24V123.6z"/>
<path d="M351.6,131.6h-32c-2.4,0-4-1.6-4-4v-32c0-2.4,1.6-4,4-4h32c2.4,0,4,1.6,4,4v32C355.6,130,354,131.6,351.6,131.6z
	 M323.6,123.6h24v-24h-24V123.6z"/>
<path d="M407.6,131.6h-32c-2.4,0-4-1.6-4-4v-32c0-2.4,1.6-4,4-4h32c2.4,0,4,1.6,4,4v32C411.6,130,410,131.6,407.6,131.6z
	 M379.6,123.6h24v-24h-24V123.6z"/>
<path d="M463.6,131.6h-32c-2.4,0-4-1.6-4-4v-32c0-2.4,1.6-4,4-4h32c2.4,0,4,1.6,4,4v32C467.6,130,466,131.6,463.6,131.6z
	 M435.6,123.6h24v-24h-24V123.6z"/>
<path d="M71.6,415.6h-32c-2.4,0-4-1.6-4-4v-32c0-2.4,1.6-4,4-4h32c2.4,0,4,1.6,4,4v32C75.6,414,74,415.6,71.6,415.6z M43.6,407.6h24
	v-24h-24V407.6z"/>
<path d="M127.6,415.6h-32c-2.4,0-4-1.6-4-4v-32c0-2.4,1.6-4,4-4h32c2.4,0,4,1.6,4,4v32C131.6,414,130,415.6,127.6,415.6z
	 M99.6,407.6h24v-24h-24V407.6z"/>
<path d="M183.6,415.6h-32c-2.4,0-4-1.6-4-4v-32c0-2.4,1.6-4,4-4h32c2.4,0,4,1.6,4,4v32C187.6,414,186,415.6,183.6,415.6z
	 M155.6,407.6h24v-24h-24V407.6z"/>
<path d="M239.6,415.6h-32c-2.4,0-4-1.6-4-4v-32c0-2.4,1.6-4,4-4h32c2.4,0,4,1.6,4,4v32C243.6,414,242,415.6,239.6,415.6z
	 M211.6,407.6h24v-24h-24V407.6z"/>
<path d="M295.6,415.6h-32c-2.4,0-4-1.6-4-4v-32c0-2.4,1.6-4,4-4h32c2.4,0,4,1.6,4,4v32C299.6,414,298,415.6,295.6,415.6z
	 M267.6,407.6h24v-24h-24V407.6z"/>
<path d="M351.6,415.6h-32c-2.4,0-4-1.6-4-4v-32c0-2.4,1.6-4,4-4h32c2.4,0,4,1.6,4,4v32C355.6,414,354,415.6,351.6,415.6z
	 M323.6,407.6h24v-24h-24V407.6z"/>
<path d="M407.6,415.6h-32c-2.4,0-4-1.6-4-4v-32c0-2.4,1.6-4,4-4h32c2.4,0,4,1.6,4,4v32C411.6,414,410,415.6,407.6,415.6z
	 M379.6,407.6h24v-24h-24V407.6z"/>
<path d="M463.6,415.6h-32c-2.4,0-4-1.6-4-4v-32c0-2.4,1.6-4,4-4h32c2.4,0,4,1.6,4,4v32C467.6,414,466,415.6,463.6,415.6z
	 M435.6,407.6h24v-24h-24V407.6z"/>
</svg>