<?xml version="1.0" encoding="iso-8859-1"?>
<!-- Generator: Adobe Illustrator 19.0.0, SVG Export Plug-In . SVG Version: 6.00 Build 0)  -->
<svg version="1.1" id="Layer_1" xmlns="http://www.w3.org/2000/svg" xmlns:xlink="http://www.w3.org/1999/xlink" x="0px" y="0px"
	 viewBox="0 0 489.5 489.5" style="enable-background:new 0 0 489.5 489.5;" xml:space="preserve">
<g>
	<g>
		<path id="XMLID_324_" style="fill:#94A4A4;" d="M480.3,448.45v-17.5c0-3.7-1.6-7.2-4.5-9.5c-15.8-13-32.8-21.6-36.3-23.3
			c-0.4-0.2-0.6-0.6-0.6-1v-24.6c3.1-2.1,5.1-5.6,5.1-9.6v-25.5c0-12.7-10.3-23-23-23h-2.7h-2.7c-12.7,0-23,10.3-23,23v25.5
			c0,4,2,7.5,5.1,9.6v24.6c0,0.4-0.2,0.8-0.6,1c-3.5,1.7-20.5,10.3-36.3,23.3c-2.9,2.3-4.5,5.9-4.5,9.5v17.5"/>
		<path id="XMLID_323_" style="fill:#E64C3D;" d="M306.5,448.45v-17.5c0-3.7-1.6-7.2-4.5-9.5c-15.8-13-32.8-21.6-36.3-23.3
			c-0.4-0.2-0.6-0.6-0.6-1v-24.6c3.1-2.1,5.1-5.6,5.1-9.6v-25.5c0-12.7-10.3-23-23-23h-2.7h-2.8c-12.7,0-23,10.3-23,23v25.5
			c0,4,2,7.5,5.1,9.6v24.6c0,0.4-0.2,0.8-0.6,1c-3.5,1.7-20.5,10.3-36.3,23.3c-2.9,2.3-4.5,5.9-4.5,9.5v17.5"/>
		<path id="XMLID_322_" style="fill:#94A4A4;" d="M131.7,446.85v-17.3c0-3.6-1.6-7.1-4.4-9.4c-15.6-12.8-32.4-21.3-35.9-23
			c-0.4-0.2-0.6-0.6-0.6-1v-24.3c3.1-2,5.1-5.5,5.1-9.5v-25.2c0-12.5-10.2-22.7-22.7-22.7h-2.7h-2.8c-12.5,0-22.7,10.2-22.7,22.7
			v25.2c0,3.9,2,7.4,5.1,9.5v24.3c0,0.4-0.2,0.8-0.6,1c-3.4,1.7-20.3,10.2-35.9,23c-2.8,2.3-4.4,5.8-4.4,9.4v17.3"/>
		<path style="fill:#2C2F33;" d="M315.5,202.55c5,0,9.1-4.1,9.1-9.1v-19.9c0-7-3.1-13.5-8.4-17.9c-14.9-12.2-30.8-21.2-38.7-25.4
			v-19.1c3.7-4,5.8-9.4,5.8-15v-29c0-19.4-15.8-35.2-35.2-35.2h-6.2c-19.4,0-35.2,15.8-35.2,35.2v29c0,5.6,2.1,10.9,5.8,15v19.1
			c-7.9,4.1-23.8,13.1-38.7,25.4c-5.3,4.4-8.4,10.9-8.4,17.9v19.9c0,5,4.1,9.1,9.1,9.1s9.1-4.1,9.1-9.1v-19.9c0-1.5,0.7-2.9,1.8-3.9
			c17.2-14.2,35.9-23.6,39.5-25.3c3.5-1.7,5.8-5.4,5.8-9.3v-28c0-3-1.5-5.9-4-7.5c-1.1-0.8-1.8-2-1.8-3.3v-29c0-9.4,7.6-17,17-17
			h6.2c9.4,0,17,7.6,17,17v29c0,1.3-0.7,2.6-1.8,3.3c-2.5,1.7-4,4.5-4,7.5v28c0,3.9,2.3,7.6,5.8,9.3c3.6,1.7,22.3,11.2,39.5,25.3
			c1.1,0.9,1.8,2.3,1.8,3.9v19.9C306.5,198.55,310.5,202.55,315.5,202.55z"/>
		<path style="fill:#2C2F33;" d="M236,282.05c0,5,4.1,9.1,9.1,9.1s9.1-4.1,9.1-9.1v-27.8h155.1v27.8c0,5,4.1,9.1,9.1,9.1
			s9.1-4.1,9.1-9.1v-36.9c0-5-4.1-9.1-9.1-9.1H254.1v-27.8c0-5-4.1-9.1-9.1-9.1s-9.1,4.1-9.1,9.1v27.8H71.1c-5,0-9.1,4.1-9.1,9.1
			v36.9c0,5,4.1,9.1,9.1,9.1s9.1-4.1,9.1-9.1v-27.8H236V282.05z"/>
		<path style="fill:#2C2F33;" d="M453,362.95v-25.5c0-17.7-14.4-32-32-32h-5.5c-17.7,0-32,14.4-32,32v25.5c0,5.1,1.9,9.9,5.1,13.6
			v15.7c-7.1,3.8-20.8,11.6-33.6,22.1c-5,4.1-7.8,10.1-7.8,16.6v17.5c0,5,4.1,9.1,9.1,9.1s9.1-4.1,9.1-9.1v-17.5
			c0-1,0.4-1.9,1.2-2.5c15.1-12.4,31.4-20.6,34.5-22.1c3.5-1.7,5.7-5.3,5.7-9.2v-24.6c0-3-1.5-5.9-4-7.5c-0.3-0.2-1.1-0.9-1.1-2
			v-25.5c0-7.7,6.2-13.9,13.9-13.9h5.5c7.7,0,13.9,6.2,13.9,13.9v25.5c0,1.2-0.8,1.8-1.1,2c-2.5,1.7-4,4.5-4,7.5v24.6
			c0,3.9,2.2,7.5,5.7,9.2c3.1,1.5,19.5,9.8,34.5,22.1c0.8,0.6,1.2,1.5,1.2,2.5v17.5c0,5,4.1,9.1,9.1,9.1s9.1-4.1,9.1-9.1v-17.5
			c0-6.4-2.8-12.5-7.8-16.6c-12.8-10.5-26.5-18.4-33.6-22.1v-15.7C451.2,372.85,453,368.05,453,362.95z"/>
		<path style="fill:#2C2F33;" d="M306.5,457.55c5,0,9.1-4.1,9.1-9.1v-17.5c0-6.4-2.8-12.5-7.8-16.6c-12.8-10.5-26.5-18.4-33.6-22.1
			v-15.7c3.3-3.7,5.1-8.5,5.1-13.6v-25.5c0-17.7-14.4-32-32-32h-5.6c-17.7,0-32,14.4-32,32v25.5c0,5.1,1.9,9.9,5.1,13.6v15.7
			c-7.1,3.8-20.8,11.6-33.6,22.1c-5,4.1-7.8,10.1-7.8,16.6v17.5c0,5,4.1,9.1,9.1,9.1s9.1-4.1,9.1-9.1v-17.5c0-1,0.4-1.9,1.2-2.5
			c15.1-12.4,31.4-20.6,34.5-22.1c3.5-1.7,5.7-5.3,5.7-9.2v-24.6c0-3-1.5-5.9-4-7.5c-0.3-0.2-1.1-0.9-1.1-2v-25.5
			c0-7.7,6.2-13.9,13.9-13.9h5.5c7.7,0,13.9,6.2,13.9,13.9v25.5c0,1.2-0.8,1.8-1.1,2c-2.5,1.7-4,4.5-4,7.5v24.6
			c0,3.9,2.2,7.5,5.7,9.2c3.1,1.5,19.5,9.8,34.5,22.1c0.8,0.6,1.2,1.5,1.2,2.5v17.5C297.4,453.45,301.5,457.55,306.5,457.55z"/>
		<path style="fill:#2C2F33;" d="M131.7,455.95c5,0,9.1-4.1,9.1-9.1v-17.3c0-6.4-2.8-12.4-7.8-16.4c-12.6-10.4-26.1-18.1-33.2-21.9
			v-15.4c3.2-3.7,5.1-8.4,5.1-13.5v-25.2c0-17.5-14.2-31.8-31.8-31.8h-5.4c-17.5,0-31.8,14.2-31.8,31.8v25.2c0,5,1.8,9.8,5.1,13.5
			v15.4c-7.1,3.8-20.5,11.5-33.2,21.9c-4.9,4-7.8,10-7.8,16.4v17.3c0,5,4.1,9.1,9.1,9.1s9.1-4.1,9.1-9.1v-17.3c0-1,0.4-1.8,1.1-2.4
			c14.9-12.2,31-20.4,34.1-21.9c3.5-1.7,5.7-5.3,5.7-9.1v-24.3c0-3-1.5-5.9-4-7.5c-0.3-0.2-1-0.8-1-1.9v-25.2
			c0-7.5,6.1-13.6,13.6-13.6h5.4c7.5,0,13.6,6.1,13.6,13.6v25.2c0,1.1-0.7,1.7-1,1.9c-2.5,1.7-4,4.5-4,7.5v24.3
			c0,3.9,2.2,7.5,5.7,9.2c3.1,1.5,19.2,9.7,34.1,21.9c0.7,0.6,1.1,1.5,1.1,2.4v17.2C122.6,451.95,126.7,455.95,131.7,455.95z"/>
	</g>
</g>
<g>
</g>
<g>
</g>
<g>
</g>
<g>
</g>
<g>
</g>
<g>
</g>
<g>
</g>
<g>
</g>
<g>
</g>
<g>
</g>
<g>
</g>
<g>
</g>
<g>
</g>
<g>
</g>
<g>
</g>
</svg>
