<?xml version="1.0" encoding="iso-8859-1"?>
<!-- Generator: Adobe Illustrator 19.0.0, SVG Export Plug-In . SVG Version: 6.00 Build 0)  -->
<svg version="1.1" id="Capa_1" xmlns="http://www.w3.org/2000/svg" xmlns:xlink="http://www.w3.org/1999/xlink" x="0px" y="0px"
	 viewBox="0 0 270 270" style="enable-background:new 0 0 270 270;" xml:space="preserve">
<g id="XMLID_452_">
	<rect id="XMLID_453_" x="0" y="0.001" style="fill:#FFDA44;" width="270" height="270"/>
	<rect id="XMLID_454_" x="0" y="240" style="fill:#0052B4;" width="270" height="30"/>
	<rect id="XMLID_455_" x="60" y="180" style="fill:#0052B4;" width="90" height="30"/>
	<rect id="XMLID_458_" x="60" y="60" style="fill:#0052B4;" width="90" height="30"/>
	<rect id="XMLID_459_" x="0" y="150" style="fill:#FFFFFF;" width="30" height="30"/>
	<rect id="XMLID_460_" x="0" y="30" style="fill:#FFDA44;" width="270" height="30"/>
	<rect id="XMLID_461_" x="0" style="fill:#0052B4;" width="270" height="30"/>
	<rect id="XMLID_42_" x="240" style="fill:#0052B4;" width="30" height="270"/>
	<rect id="XMLID_41_" x="0" style="fill:#0052B4;" width="30" height="270"/>
	<rect id="XMLID_462_" x="120" y="120" style="fill:#0052B4;" width="130" height="30"/>
	<rect id="XMLID_463_" x="180" y="210" style="fill:#FFFFFF;" width="60" height="30"/>
	<rect id="XMLID_464_" x="30" y="30" style="fill:#FFFFFF;" width="90" height="30"/>
	<rect id="XMLID_37_" x="120" y="30.001" style="fill:#0052B4;" width="30" height="60"/>
	<rect id="XMLID_36_" x="180" y="59.999" style="fill:#0052B4;" width="30" height="150"/>
	<rect id="XMLID_35_" x="60" y="59.999" style="fill:#0052B4;" width="30" height="150"/>
	<rect id="XMLID_34_" x="30" y="30" style="fill:#FFFFFF;" width="30" height="90"/>
	<rect id="XMLID_33_" x="210" y="150" style="fill:#FFFFFF;" width="30" height="90"/>
	<rect id="XMLID_466_" x="0" y="120.001" style="fill:#FFDA44;" width="40" height="30"/>
	<rect id="XMLID_467_" x="230" y="90" style="fill:#FFDA44;" width="40" height="30"/>
</g>
<g>
</g>
<g>
</g>
<g>
</g>
<g>
</g>
<g>
</g>
<g>
</g>
<g>
</g>
<g>
</g>
<g>
</g>
<g>
</g>
<g>
</g>
<g>
</g>
<g>
</g>
<g>
</g>
<g>
</g>
</svg>
