<?xml version="1.0" encoding="UTF-8" standalone="no"?>
<!-- Generator: Adobe Illustrator 18.0.0, SVG Export Plug-In . SVG Version: 6.00 Build 0)  -->

<svg
   version="1.1"
   id="Capa_1"
   x="0px"
   y="0px"
   viewBox="0 0 425.365 425.365"
   style="enable-background:new 0 0 425.365 425.365;"
   xml:space="preserve"
   sodipodi:docname="men-couple-svgrepo-com.svg"
   inkscape:version="1.2.1 (9c6d41e410, 2022-07-14, custom)"
   xmlns:inkscape="http://www.inkscape.org/namespaces/inkscape"
   xmlns:sodipodi="http://sodipodi.sourceforge.net/DTD/sodipodi-0.dtd"
   xmlns="http://www.w3.org/2000/svg"
   xmlns:svg="http://www.w3.org/2000/svg"><defs
   id="defs37" /><sodipodi:namedview
   id="namedview35"
   pagecolor="#505050"
   bordercolor="#ffffff"
   borderopacity="1"
   inkscape:showpageshadow="0"
   inkscape:pageopacity="0"
   inkscape:pagecheckerboard="1"
   inkscape:deskcolor="#505050"
   showgrid="false"
   inkscape:zoom="0.55481764"
   inkscape:cx="42.35626"
   inkscape:cy="212.6825"
   inkscape:window-width="1366"
   inkscape:window-height="742"
   inkscape:window-x="0"
   inkscape:window-y="26"
   inkscape:window-maximized="1"
   inkscape:current-layer="Capa_1" />

<g
   id="g4">
</g>
<g
   id="g6">
</g>
<g
   id="g8">
</g>
<g
   id="g10">
</g>
<g
   id="g12">
</g>
<g
   id="g14">
</g>
<g
   id="g16">
</g>
<g
   id="g18">
</g>
<g
   id="g20">
</g>
<g
   id="g22">
</g>
<g
   id="g24">
</g>
<g
   id="g26">
</g>
<g
   id="g28">
</g>
<g
   id="g30">
</g>
<g
   id="g32">
</g>
<path
   style="fill:#3c80fd;stroke:#e1e0e0;stroke-width:18.0239;stroke-linecap:round;stroke-linejoin:round;stroke-dashoffset:34.1688;paint-order:markers stroke fill;fill-opacity:1;stroke-opacity:1"
   d="m 46.062596,402.12361 c -1.220913,-2.28129 -1.903942,-23.83865 -1.903942,-60.09097 0,-59.55809 -0.175907,-60.85917 -8.228184,-60.85917 -2.14634,0 -6.087915,-1.7191 -8.759053,-3.82022 l -4.856616,-3.82021 0.55816,-47.09742 0.558161,-47.09741 5.127934,-10.44929 c 6.593443,-13.43558 19.851887,-26.63286 33.087418,-32.93476 31.289308,-14.89795 75.592466,-1.29846 96.352786,29.57685 13.62413,20.2622 21.78987,25.22127 44.12548,26.79751 13.63588,0.9623 15.66313,1.56925 18.2065,5.45092 3.74421,5.71439 1.28102,13.12882 -5.4302,16.34542 -3.74503,1.79495 -7.88531,1.93924 -17.48261,0.60926 -15.5104,-2.14941 -28.90425,-8.12691 -40.26917,-17.97162 -8.90032,-7.70978 -16.4076,-9.64868 -20.70803,-5.34825 -1.63224,1.63223 -2.16288,27.66777 -2.16288,106.12055 0,87.09107 -0.41092,104.29871 -2.53273,106.05967 -1.58943,1.3191 -7.79884,1.90477 -16.67214,1.57248 l -14.13941,-0.52949 -0.9012,-51.96641 c -0.846155,-48.79242 -1.114889,-52.12251 -4.39988,-54.52241 -4.43736,-3.24179 -8.391449,-3.24185 -12.828972,-2.1e-4 -3.284998,2.39972 -3.553722,5.7297 -4.399878,54.52242 l -0.901197,51.96661 -14.768202,0.52185 c -13.157972,0.46496 -14.975796,0.13391 -16.672145,-3.0357 z"
   id="path335" /><path
   style="fill:#085efd;fill-opacity:1;stroke:#e1e0e0;stroke-width:18.024;stroke-linecap:round;stroke-linejoin:round;stroke-dashoffset:34.1688;paint-order:markers stroke fill;stroke-opacity:1;stroke-dasharray:none"
   d="M 74.62541,106.19885 C 65.752565,103.62388 53.252714,91.373522 48.700331,80.791222 35.79857,50.80027 61.50232,16.591569 94.051819,20.433668 c 27.567581,3.25404 45.071541,30.001628 37.491541,57.290371 -2.411,8.679852 -15.17496,22.920161 -24.23115,27.033851 -7.800551,3.54334 -23.115932,4.2185 -32.6868,1.44096 z"
   id="path960" /><path
   style="fill:#085efd;fill-opacity:1;stroke:#e1e0e0;stroke-width:18.0239;stroke-linecap:round;stroke-linejoin:round;stroke-dashoffset:34.1688;paint-order:markers stroke fill;stroke-opacity:1"
   d="m 318.12255,104.77134 c -9.4352,-4.30973 -21.75428,-17.873514 -24.18545,-26.62909 -7.69627,-27.717285 9.60508,-54.430531 37.37607,-57.708582 32.5495,-3.842099 58.25325,30.366602 45.35149,60.357554 -4.75287,11.048338 -17.12335,22.836538 -26.77912,25.518618 -10.00406,2.77883 -23.77104,2.112 -31.76299,-1.5385 z"
   id="path1790" /><path
   style="fill:#3c80fd;fill-opacity:1;stroke:#e1e0e0;stroke-width:18.0239;stroke-linecap:round;stroke-linejoin:round;stroke-dashoffset:34.1688;paint-order:markers stroke fill;stroke-opacity:1"
   d="m 293.18943,404.33705 c -0.66088,-0.66086 -1.2016,-47.52289 -1.2016,-104.1378 0,-90.24819 -0.34584,-103.42998 -2.80579,-106.94205 -3.58233,-5.11449 -11.71454,-5.2683 -16.20491,-0.30649 -4.57319,5.05332 -24.0752,17.92939 -27.15573,17.92939 -1.71971,0 -2.49821,-2.28359 -2.49821,-7.32807 0,-4.03043 -0.83961,-8.8969 -1.86581,-10.81436 -1.42726,-2.66686 -1.279,-3.4863 0.63077,-3.4863 4.66028,0 16.86438,-10.38832 21.50319,-18.30385 5.62077,-9.59113 20.9877,-24.39032 32.04572,-30.86179 29.39525,-17.20294 66.98445,-12.33963 89.07897,11.52509 16.46231,17.78125 17.88389,23.49671 18.55236,74.58963 0.63527,48.5546 0.16632,50.95113 -10.57093,54.02205 -13.02047,3.72393 -12.39232,0.48516 -12.39232,63.89497 0,42.00437 -0.57168,57.66712 -2.16287,59.25831 -1.80054,1.80054 -29.28844,3.3356 -30.6613,1.71228 -0.20959,-0.24783 -0.8179,-23.94171 -1.35179,-52.65305 l -0.97072,-52.20245 -4.7489,-2.66335 c -4.25913,-2.38867 -5.23501,-2.34483 -9.46256,0.42517 l -4.71368,3.08852 v 50.065 c 0,36.53626 -0.58446,50.64947 -2.16287,52.22788 -2.28772,2.28773 -28.73143,3.11086 -30.88102,0.96127 z"
   id="path1984" /></svg>
