<?xml version="1.0" encoding="UTF-8" standalone="no"?>
<!-- Created with Inkscape (http://www.inkscape.org/) -->

<svg
   width="89.953003"
   height="66.953003"
   viewBox="0 0 23.800069 17.71466"
   version="1.1"
   id="svg5"
   inkscape:version="1.2.1 (9c6d41e410, 2022-07-14)"
   sodipodi:docname="blueprint icon.svg"
   xmlns:inkscape="http://www.inkscape.org/namespaces/inkscape"
   xmlns:sodipodi="http://sodipodi.sourceforge.net/DTD/sodipodi-0.dtd"
   xmlns="http://www.w3.org/2000/svg"
   xmlns:svg="http://www.w3.org/2000/svg">
  <sodipodi:namedview
     id="namedview7"
     pagecolor="#505050"
     bordercolor="#ffffff"
     borderopacity="1"
     inkscape:showpageshadow="0"
     inkscape:pageopacity="0"
     inkscape:pagecheckerboard="1"
     inkscape:deskcolor="#505050"
     inkscape:document-units="mm"
     showgrid="false"
     inkscape:zoom="9.5144352"
     inkscape:cx="27.274346"
     inkscape:cy="26.013105"
     inkscape:window-width="1920"
     inkscape:window-height="1054"
     inkscape:window-x="0"
     inkscape:window-y="0"
     inkscape:window-maximized="1"
     inkscape:current-layer="g1055" />
  <defs
     id="defs2" />
  <g
     inkscape:label="Layer 1"
     inkscape:groupmode="layer"
     id="layer1">
    <g
       id="g1055">
      <rect
         style="fill:#5d79e4;fill-opacity:1;stroke:#000000;stroke-width:1.32292;stroke-linecap:square;stroke-linejoin:round;stroke-dasharray:none;stroke-dashoffset:34.1688;paint-order:markers stroke fill"
         id="rect1061"
         width="19.726215"
         height="12.191472"
         x="2.1827662"
         y="3.9189522"
         ry="0.66856462" />
      <path
         style="fill:none;stroke:#000000;stroke-width:0.264583px;stroke-linecap:butt;stroke-linejoin:miter;stroke-opacity:1"
         d="m 12.634006,14.823347 c 0.625694,0 0.625694,0 0.625694,0"
         id="path8012-3" />
      <path
         style="fill:none;stroke:#000000;stroke-width:0.260575px;stroke-linecap:butt;stroke-linejoin:miter;stroke-opacity:1"
         d="m 21.412638,15.296093 c -7.929938,0 -7.929938,0 -7.929938,0"
         id="path8008" />
      <path
         style="fill:none;stroke:#000000;stroke-width:0.264583px;stroke-linecap:butt;stroke-linejoin:miter;stroke-opacity:1"
         d="M -4.5505099,17.070062 -4.6617444,4.3337129 C -6.071507,1.7205456 -8.0615414,3.6039942 -8.0543962,4.1946698 c 0.010476,0.8660313 0,12.9866262 0,12.9866262 0,0 -4.341e-4,1.004195 2.4111102,1.001256"
         id="path1843"
         sodipodi:nodetypes="ccscc" />
      <path
         style="fill:none;stroke:#000000;stroke-width:0.264583px;stroke-linecap:butt;stroke-linejoin:miter;stroke-opacity:1"
         d="m -4.5574622,17.014445 c -1.0452562,-1.868738 -2.3983577,-0.457229 -2.4235673,0.01106 -0.027614,0.512948 0.073516,1.170262 1.3242483,1.159288"
         id="path1894"
         sodipodi:nodetypes="csc" />
      <path
         id="path1894-6"
         style="fill:#5d5d5d;fill-opacity:1;stroke:#000000;stroke-width:0.264583px;stroke-linecap:round;stroke-linejoin:miter;stroke-opacity:1"
         d="m -21.904974,21.024226 c -1.045256,-1.868738 -2.398358,-0.457229 -2.423567,0.01106 -0.02761,0.512948 0.07352,1.170262 1.324248,1.159288 m 1.106271,-1.114731 -0.111234,-12.736349 c -1.409763,-2.6131673 -3.399797,-0.7297187 -3.392652,-0.1390431 0.01048,0.8660313 0,12.9866261 0,12.9866261 0,0 -4.34e-4,1.004195 2.41111,1.001256" />
      <path
         style="fill:none;stroke:#cfcfcf;stroke-width:1.05833;stroke-linecap:butt;stroke-linejoin:miter;stroke-dasharray:none;stroke-opacity:1"
         d="m 3.3416804,8.2327036 c 8.4538216,0 8.4538216,0 8.4538216,0"
         id="path5951" />
      <path
         style="fill:none;stroke:#cfcfcf;stroke-width:1.05833;stroke-linecap:butt;stroke-linejoin:miter;stroke-dasharray:none;stroke-opacity:1"
         d="m 3.2814169,10.928939 c 8.4538211,0 8.4538211,0 8.4538211,0"
         id="path5951-56" />
      <path
         style="fill:none;stroke:#cfcfcf;stroke-width:1.05833;stroke-linecap:butt;stroke-linejoin:miter;stroke-dasharray:none;stroke-opacity:1"
         d="m 3.281417,5.5364675 c 8.453821,0 8.453821,0 8.453821,0"
         id="path5951-5" />
      <path
         style="fill:#9494ff;fill-opacity:1;stroke:#000000;stroke-width:1.16416667;stroke-linecap:round;stroke-linejoin:round;stroke-dasharray:none;stroke-dashoffset:34.1688;stroke-opacity:1;paint-order:markers stroke fill"
         d="m 2.2942118,16.022237 c -0.357707,-0.115781 -0.657027,-0.332167 -0.75442,-0.545388 -0.04874,-0.106704 -0.05083,-0.37674 -0.05142,-6.6305286 l -6.08e-4,-6.5192938 0.06018,-0.1269664 c 0.08989,-0.1896417 0.496048,-0.5790401 0.732367,-0.7021401 0.472749,-0.2462583 0.906867,-0.2528613 1.352378,-0.020571 0.239092,0.1246637 0.631823,0.523067 0.821408,0.8332713 l 0.143756,0.2352188 0.04336,5.3670642 c 0.02385,2.9518846 0.04944,5.6862056 0.05686,6.0762696 l 0.0135,0.709206 -0.186714,-0.181733 c -0.220323,-0.214446 -0.386337,-0.316791 -0.607171,-0.37431 -0.309395,-0.08059 -0.58383,-0.04168 -0.901954,0.127881 -0.346613,0.184742 -0.6182147,0.646681 -0.6850857,0.945491 -0.04929,0.220244 -0.037927,0.484675 0.072139,0.699126 0.04513,0.08794 0.07358,0.159226 0.06321,0.158403 -0.01036,-8.2e-4 -0.08767,-0.02377 -0.17179,-0.051 z"
         id="path2014"
         sodipodi:nodetypes="cscccsssccccsccscscc" />
      <ellipse
         style="fill:none;fill-opacity:1;stroke:#cfcfcf;stroke-width:0.608542;stroke-linecap:round;stroke-linejoin:round;stroke-dasharray:none;stroke-dashoffset:34.1688;stroke-opacity:1;paint-order:markers stroke fill"
         id="path6059"
         cx="17.499004"
         cy="10.736679"
         rx="2.5935831"
         ry="2.5305846" />
      <rect
         style="fill:none;fill-opacity:1;stroke:#cfcfcf;stroke-width:0.79375;stroke-linecap:round;stroke-linejoin:round;stroke-dasharray:none;stroke-dashoffset:34.1688;stroke-opacity:1;paint-order:markers stroke fill"
         id="rect7954"
         width="7.1468158"
         height="7.1468158"
         x="13.925596"
         y="7.1632714"
         ry="0.66856462" />
      <path
         style="fill:none;stroke:#000000;stroke-width:0.264583px;stroke-linecap:butt;stroke-linejoin:miter;stroke-opacity:1"
         d="m 12.946853,14.823347 c 0,-8.2591608 0,-8.2591608 0,-8.2591608"
         id="path8010" />
      <g
         id="g1059"
         transform="matrix(0.65251531,0.65599309,-0.44435981,0.44200402,2.0410689,0.19447221)"
         style="fill:#ffba0c;fill-opacity:1">
        <rect
           style="fill:#ffba0c;fill-opacity:1;stroke:#000000;stroke-width:0.529167;stroke-linecap:square;stroke-linejoin:round;stroke-dasharray:none;stroke-dashoffset:34.1688;paint-order:markers stroke fill"
           id="rect788"
           width="1.3371292"
           height="12.034163"
           x="12.977481"
           y="-15.535734"
           ry="0"
           rx="0" />
        <path
           sodipodi:type="star"
           style="fill:#cfcfcf;fill-opacity:1;stroke:#000000;stroke-width:0.529167;stroke-linecap:square;stroke-linejoin:round;stroke-dasharray:none;stroke-dashoffset:34.1688;paint-order:markers stroke fill"
           id="path1051"
           inkscape:flatsided="true"
           sodipodi:sides="3"
           sodipodi:cx="12.819774"
           sodipodi:cy="-3.2814176"
           sodipodi:r1="1.2794989"
           sodipodi:r2="1.2794989"
           sodipodi:arg1="1.5707963"
           sodipodi:arg2="3.1415926"
           inkscape:rounded="0"
           inkscape:randomized="0"
           d="m 12.819774,-2.0019187 -1.108079,-1.9192483 2.216157,-10e-8 z"
           transform="matrix(0.67154741,0,0,0.67154741,5.0355552,-0.78041011)" />
      </g>
      <path
         style="fill:none;stroke:#000000;stroke-width:0.264583px;stroke-linecap:butt;stroke-linejoin:miter;stroke-opacity:1"
         d="m 13.4827,14.976294 c 0,0.625694 0,0.625694 0,0.625694"
         id="path8012" />
      <path
         style="fill:none;stroke:#000000;stroke-width:0.264583px;stroke-linecap:butt;stroke-linejoin:miter;stroke-opacity:1"
         d="m 21.412638,15.601988 c -0.0139,-0.625694 -0.0139,-0.625694 -0.0139,-0.625694"
         id="path8014" />
      <circle
         style="fill:none;fill-opacity:1;stroke:#cfcfcf;stroke-width:0.608542;stroke-linecap:round;stroke-linejoin:round;stroke-dasharray:none;stroke-dashoffset:34.1688;stroke-opacity:1;paint-order:markers stroke fill"
         id="path8138"
         cx="6.4098873"
         cy="12.974073"
         r="0.62569398" />
      <circle
         style="fill:none;fill-opacity:1;stroke:#cfcfcf;stroke-width:0.608542;stroke-linecap:round;stroke-linejoin:round;stroke-dasharray:none;stroke-dashoffset:34.1688;stroke-opacity:1;paint-order:markers stroke fill"
         id="path8138-2"
         cx="9.9912176"
         cy="12.974073"
         r="0.62569398" />
      <rect
         style="fill:#cf3030;fill-opacity:1;stroke:none;stroke-width:0.48839;stroke-linecap:round;stroke-linejoin:round;stroke-dasharray:none;stroke-dashoffset:34.1688;stroke-opacity:1;paint-order:markers stroke fill"
         id="rect9331"
         width="1.7043717"
         height="1.4834347"
         x="-15.083248"
         y="11.000473"
         ry="0.20179139"
         transform="rotate(-135)"
         rx="0.41846278" />
    </g>
  </g>
</svg>
