<?xml version="1.0" encoding="UTF-8" standalone="no"?>
<!-- Generator: Adobe Illustrator 19.0.0, SVG Export Plug-In . SVG Version: 6.00 Build 0)  -->

<svg
   version="1.1"
   id="Layer_1"
   x="0px"
   y="0px"
   viewBox="0 0 70.95849 99.604997"
   xml:space="preserve"
   sodipodi:docname="activitiesicon.svg"
   width="28.383396"
   height="39.841999"
   inkscape:version="1.2.1 (9c6d41e410, 2022-07-14, custom)"
   xmlns:inkscape="http://www.inkscape.org/namespaces/inkscape"
   xmlns:sodipodi="http://sodipodi.sourceforge.net/DTD/sodipodi-0.dtd"
   xmlns="http://www.w3.org/2000/svg"
   xmlns:svg="http://www.w3.org/2000/svg"><defs
   id="defs51" /><sodipodi:namedview
   id="namedview49"
   pagecolor="#505050"
   bordercolor="#ffffff"
   borderopacity="1"
   inkscape:showpageshadow="0"
   inkscape:pageopacity="0"
   inkscape:pagecheckerboard="1"
   inkscape:deskcolor="#505050"
   showgrid="false"
   inkscape:zoom="5.2871984"
   inkscape:cx="-44.163276"
   inkscape:cy="20.048425"
   inkscape:window-width="1920"
   inkscape:window-height="1054"
   inkscape:window-x="1366"
   inkscape:window-y="26"
   inkscape:window-maximized="1"
   inkscape:current-layer="Layer_1" />

<path
   style="fill:#324a5e;stroke-width:0.268477"
   d="M 69.6698,99.604993 H 1.2618422 C 0.56380185,99.604993 0,99.041191 0,98.343151 V 11.651904 c 0,-0.69804 0.56380185,-1.261842 1.2618422,-1.261842 H 69.696648 c 0.698041,0 1.261843,0.563802 1.261843,1.261842 v 86.718094 c -0.02685,0.671193 -0.590651,1.234995 -1.288691,1.234995 z"
   id="path4" />
<polygon
   style="fill:#ffffff"
   points="358.6,342.7 358.6,116.8 146.4,116.8 146.4,379.6 321.6,379.6 321.6,342.7 "
   id="polygon6"
   transform="matrix(0.26847707,0,0,0.26847707,-32.324638,-15.866995)" />
<polygon
   style="fill:#e6e9ee"
   points="358.6,342.7 321.6,342.7 321.6,379.6 "
   id="polygon8"
   transform="matrix(0.26847707,0,0,0.26847707,-32.324638,-15.866995)" />
<path
   style="fill:#ff7058;stroke-width:0.268477"
   d="M 41.050144,7.5442057 V 5.5843231 C 41.050144,2.4968368 38.553308,0 35.465822,0 32.378336,0 29.881499,2.4968368 29.881499,5.5843231 v 1.9598826 h -9.85311 V 18.981329 H 50.930101 V 7.5442057 Z"
   id="path10" />
<circle
   style="fill:#90dfaa;stroke-width:0.268477"
   cx="35.465816"
   cy="5.5843234"
   r="2.7921615"
   id="circle12" />
<path
   style="fill:#e6e9ee;stroke-width:0.268477"
   d="M 46.902945,67.119268 H 15.088411 V 35.304734 H 46.902945 Z M 18.229592,64.004933 H 43.788611 V 38.445916 H 18.229592 Z"
   id="path14" />
<polygon
   style="fill:#54c0eb"
   points="307.8,180.4 328.4,201 243.9,285.4 200.3,241.8 220.9,221.2 243.9,244.2 "
   id="polygon16"
   transform="matrix(0.26847707,0,0,0.26847707,-32.324638,-15.866995)" />
<g
   id="g18"
   transform="translate(0,-0.39500682)">
</g>
<g
   id="g20"
   transform="translate(0,-0.39500682)">
</g>
<g
   id="g22"
   transform="translate(0,-0.39500682)">
</g>
<g
   id="g24"
   transform="translate(0,-0.39500682)">
</g>
<g
   id="g26"
   transform="translate(0,-0.39500682)">
</g>
<g
   id="g28"
   transform="translate(0,-0.39500682)">
</g>
<g
   id="g30"
   transform="translate(0,-0.39500682)">
</g>
<g
   id="g32"
   transform="translate(0,-0.39500682)">
</g>
<g
   id="g34"
   transform="translate(0,-0.39500682)">
</g>
<g
   id="g36"
   transform="translate(0,-0.39500682)">
</g>
<g
   id="g38"
   transform="translate(0,-0.39500682)">
</g>
<g
   id="g40"
   transform="translate(0,-0.39500682)">
</g>
<g
   id="g42"
   transform="translate(0,-0.39500682)">
</g>
<g
   id="g44"
   transform="translate(0,-0.39500682)">
</g>
<g
   id="g46"
   transform="translate(0,-0.39500682)">
</g>
</svg>
