<?xml version="1.0" encoding="iso-8859-1"?>
<!-- Uploaded to: SVG Repo, www.svgrepo.com, Generator: SVG Repo Mixer Tools -->
<svg version="1.1" id="Capa_1" xmlns="http://www.w3.org/2000/svg" xmlns:xlink="http://www.w3.org/1999/xlink" 
	 viewBox="0 0 370 370" xml:space="preserve">
<g id="XMLID_2123_">
	<rect id="XMLID_2124_" x="20" y="260" style="fill:#5A8BB0;" width="30" height="30"/>
	<rect id="XMLID_2125_" x="20" y="165" style="fill:#5A8BB0;" width="30" height="30"/>
	<rect id="XMLID_2126_" x="20" y="70" style="fill:#5A8BB0;" width="30" height="30"/>
	<polygon id="XMLID_2127_" style="fill:#78B9EB;" points="90,290 90,70 200,70 200,0 130,0 130,40 110,30 90,40 90,0 50,0 50,70 
		50,100 50,165 50,195 50,260 50,290 50,370 200,370 200,290 	"/>
	<polygon id="XMLID_2128_" style="fill:#5A8BB0;" points="200,0 200,70 310,70 310,290 200,290 200,370 350,370 350,0 	"/>
	<polygon id="XMLID_2129_" style="fill:#FFFFFF;" points="90,290 200,290 200,247.691 115.385,247.691 115.385,209.615 
		115.385,175.769 115.385,137.691 115.385,103.846 200,103.846 200,70 90,70 	"/>
	<polygon id="XMLID_2130_" style="fill:#EEEEEF;" points="284.615,103.846 284.615,137.691 284.615,175.769 284.615,209.615 
		284.615,247.691 200,247.691 200,290 310,290 310,70 200,70 200,103.846 	"/>
	<polygon id="XMLID_2131_" style="fill:#78B9EB;" points="284.615,209.615 284.615,175.769 242.309,175.769 157.692,175.769 
		115.385,175.769 115.385,209.615 	"/>
	<polygon id="XMLID_2132_" style="fill:#5A8BB0;" points="284.615,247.691 284.615,209.615 115.385,209.615 115.385,247.691 
		200,247.691 	"/>
	<path id="XMLID_2133_" style="fill:#FF5023;" d="M200,133.461c6.618,0,12.88,1.521,18.458,4.23h66.157v-33.846H200h-84.615v33.846
		h66.157C187.121,134.982,193.382,133.461,200,133.461z"/>
	<path id="XMLID_2134_" style="fill:#FF9811;" d="M181.542,137.691h-66.157v38.077h42.308
		C157.692,159.019,167.425,144.547,181.542,137.691z"/>
	<path id="XMLID_2135_" style="fill:#FF9811;" d="M218.458,137.691c14.118,6.855,23.851,21.327,23.851,38.077h42.307v-38.077
		H218.458z"/>
	<path id="XMLID_2136_" style="fill:#FFDA44;" d="M218.458,137.691c-5.578-2.709-11.84-4.23-18.458-4.23s-12.879,1.521-18.458,4.23
		c-14.117,6.855-23.85,21.327-23.85,38.077h84.616C242.309,159.019,232.576,144.547,218.458,137.691z"/>
	<polygon id="XMLID_2137_" style="fill:#FF5023;" points="110,30 130,40 130,0 90,0 90,40 	"/>
</g>
</svg>