<?xml version="1.0" encoding="iso-8859-1"?>
<!-- Uploaded to: SVG Repo, www.svgrepo.com, Generator: SVG Repo Mixer Tools -->
<svg version="1.1" id="Layer_1" xmlns="http://www.w3.org/2000/svg" xmlns:xlink="http://www.w3.org/1999/xlink" 
	 viewBox="0 0 512 512" xml:space="preserve">
<path style="fill:#1E0478;" d="M512,264.941v155.401c0,19.161-15.589,34.749-34.749,34.749H34.749
	C15.589,455.091,0,439.503,0,420.342V264.941c0-6.582,1.841-12.733,5.027-17.981l-0.154-0.077L79.277,99.772
	c6.008-11.884,18.025-19.271,31.343-19.271h14.144v-13.67c0-5.49,4.432-9.922,9.922-9.922h242.627c5.49,0,9.922,4.432,9.922,9.922
	v13.67h14.144c13.318,0,25.334,7.386,31.343,19.271l74.404,147.111l-0.154,0.077C510.159,252.208,512,258.359,512,264.941z
	 M489.951,420.342V264.941c0-7.001-5.7-12.7-12.7-12.7H360.347c-0.331,0-0.628,0.187-0.761,0.496l-14.299,31.706
	c-3.693,8.191-11.884,13.483-20.858,13.483H187.571c-8.974,0-17.165-5.292-20.858-13.483l-14.299-31.706
	c-0.132-0.309-0.43-0.496-0.761-0.496H34.749c-7.001,0-12.7,5.7-12.7,12.7v155.401c0,7.012,5.7,12.7,12.7,12.7h442.502
	C484.251,433.042,489.951,427.354,489.951,420.342z M473.976,230.192l-60.921-120.465c-2.238-4.432-6.714-7.177-11.675-7.177
	h-14.144v17.507h13.196c5.479,0,9.922,4.432,9.922,9.922v53.226h12.27c5.49,0,9.922,4.443,9.922,9.922v37.064L473.976,230.192
	L473.976,230.192z M412.702,230.192v-27.142H99.298v27.142h52.355c8.985,0,17.176,5.292,20.858,13.483l14.299,31.706
	c0.132,0.298,0.441,0.496,0.761,0.496h136.858c0.32,0,0.628-0.198,0.761-0.496l14.299-31.706
	c3.682-8.191,11.873-13.483,20.858-13.483H412.702z M390.51,183.205v-43.304H121.49v43.304H390.51z M367.392,120.057V76.753H144.608
	v43.304H367.392z M124.764,120.057V102.55H110.62c-4.961,0-9.437,2.745-11.675,7.177L38.024,230.192h41.43v-37.064
	c0-5.479,4.432-9.922,9.922-9.922h12.27v-53.226c0-5.49,4.443-9.922,9.922-9.922H124.764z"/>
<path style="fill:#9B8CCC;" d="M489.951,264.941v155.401c0,7.012-5.7,12.7-12.7,12.7H34.749c-7.001,0-12.7-5.689-12.7-12.7V264.941
	c0-7.001,5.7-12.7,12.7-12.7h116.904c0.331,0,0.628,0.187,0.761,0.496l14.299,31.706c3.693,8.191,11.884,13.483,20.858,13.483
	h136.858c8.974,0,17.165-5.292,20.858-13.483l14.299-31.706c0.132-0.309,0.43-0.496,0.761-0.496h116.904
	C484.251,252.241,489.951,257.94,489.951,264.941z M327.891,382.804v-34.639c0-8.511-6.923-15.434-15.434-15.434H199.544
	c-8.511,0-15.434,6.923-15.434,15.434v34.639c0,8.511,6.923,15.434,15.434,15.434h112.913
	C320.967,398.238,327.891,391.315,327.891,382.804z"/>
<path style="fill:#94E7EF;" d="M413.055,109.727l60.921,120.465h-41.43v-37.064c0-5.479-4.432-9.922-9.922-9.922h-12.27v-53.226
	c0-5.49-4.443-9.922-9.922-9.922h-13.196V102.55h14.144C406.341,102.55,410.817,105.295,413.055,109.727z"/>
<g>
	<path style="fill:#FFFFFF;" d="M412.702,203.049v27.142h-52.355c-8.985,0-17.176,5.292-20.858,13.483l-14.299,31.706
		c-0.132,0.298-0.441,0.496-0.761,0.496H187.571c-0.32,0-0.628-0.198-0.761-0.496l-14.299-31.706
		c-3.682-8.191-11.873-13.483-20.858-13.483H99.298v-27.142H412.702z"/>
	<rect x="121.49" y="139.901" style="fill:#FFFFFF;" width="269.02" height="43.304"/>
	<rect x="144.608" y="76.753" style="fill:#FFFFFF;" width="222.783" height="43.304"/>
</g>
<path style="fill:#1E0478;" d="M327.891,348.165v34.639c0,8.511-6.923,15.434-15.434,15.434H199.544
	c-8.511,0-15.434-6.923-15.434-15.434v-34.639c0-8.511,6.923-15.434,15.434-15.434h112.913
	C320.967,332.731,327.891,339.654,327.891,348.165z M308.047,378.394v-25.819H203.953v25.819H308.047z"/>
<g>
	<rect x="203.953" y="352.575" style="fill:#94E7EF;" width="104.093" height="25.819"/>
	<path style="fill:#94E7EF;" d="M124.764,102.55v17.507h-13.196c-5.479,0-9.922,4.432-9.922,9.922v53.226h-12.27
		c-5.49,0-9.922,4.443-9.922,9.922v37.064h-41.43l60.921-120.465c2.238-4.432,6.714-7.177,11.675-7.177H124.764z"/>
</g>
</svg>