<?xml version="1.0" encoding="iso-8859-1"?>
<!-- Uploaded to: SVG Repo, www.svgrepo.com, Generator: SVG Repo Mixer Tools -->
<svg version="1.1" id="Layer_1" xmlns="http://www.w3.org/2000/svg" xmlns:xlink="http://www.w3.org/1999/xlink" 
	 viewBox="0 0 511.6 511.6" xml:space="preserve">
<polygon style="fill:#F6BB42;" points="468.977,305.088 42.639,305.088 42.639,63.948 63.95,63.948 63.95,31.973 191.85,31.973 
	213.169,63.948 468.977,63.948 "/>
<polygon style="fill:#FFCE54;" points="490.289,337.063 21.32,337.063 21.32,95.923 42.639,95.923 42.639,63.948 170.538,63.948 
	191.85,95.923 490.289,95.923 "/>
<rect y="138.548" style="fill:#656D78;" width="511.6" height="341.08"/>
<path style="fill:#F5F7FA;" d="M330.413,277.11c-11.757,0-21.312,9.57-21.312,21.312v10.663H202.514v-10.663
	c0-11.741-9.563-21.312-21.319-21.312c-11.749,0-21.319,9.57-21.319,21.312v31.975c0,11.757,9.57,21.327,21.319,21.327h149.219
	c11.757,0,21.312-9.57,21.312-21.327v-31.975C351.725,286.68,342.17,277.11,330.413,277.11z"/>
</svg>