<?xml version="1.0" encoding="iso-8859-1"?>
<!-- Uploaded to: SVG Repo, www.svgrepo.com, Generator: SVG Repo Mixer Tools -->
<svg version="1.1" id="Layer_1" xmlns="http://www.w3.org/2000/svg" xmlns:xlink="http://www.w3.org/1999/xlink" 
	 viewBox="0 0 496 496" xml:space="preserve">
<path style="fill:#6D6D6D;" d="M484.8,47.974H287.2c-6.4,0-12,0-18.4,9.6l-10.4,14.4H24.8c-13.6,0-24.8,12.8-24.8,26.4v314.4
	c0,13.6,11.2,27.2,24.8,27.2h446.4c13.6,0,24.8-13.6,24.8-27.2v-243.2v-70.4v-41.6C496,51.974,491.2,47.974,484.8,47.974z"/>
<path style="fill:#565656;" d="M485.6,371.174c6.4-4.8,10.4-12,10.4-20v-181.6v-70.4v-41.6c0-5.6-4.8-9.6-11.2-9.6H287.2
	c-6.4,0-12,0-18.4,9.6l-10.4,14.4H24.8c-12.8,0-23.2,10.4-24.8,22.4L485.6,371.174z"/>
<path style="fill:#262523;" d="M16.8,103.974l468.8,265.6c6.4-4.8,10.4-10.4,10.4-18.4v-181.6v-44.8l-30.4-20.8H16.8z"/>
<rect x="40" y="103.974" style="fill:#FFFFFF;" width="416" height="304"/>
<g>
	<rect x="256" y="103.974" style="fill:#EFEFEF;" width="200" height="304"/>
	<path style="fill:#EFEFEF;" d="M392,207.974H104c-6.4,0-12-5.6-12-12s5.6-12,12-12h288c6.4,0,12,5.6,12,12
		S398.4,207.974,392,207.974z"/>
	<path style="fill:#EFEFEF;" d="M392,271.974H104c-6.4,0-12-5.6-12-12s5.6-12,12-12h288c6.4,0,12,5.6,12,12
		S398.4,271.974,392,271.974z"/>
</g>
<g>
	<path style="fill:#B1BAB9;" d="M392,191.974H104c-6.4,0-12-5.6-12-12s5.6-12,12-12h288c6.4,0,12,5.6,12,12
		S398.4,191.974,392,191.974z"/>
	<path style="fill:#B1BAB9;" d="M392,255.974H104c-6.4,0-12-5.6-12-12s5.6-12,12-12h288c6.4,0,12,5.6,12,12
		S398.4,255.974,392,255.974z"/>
</g>
<path style="fill:#A5A5A5;" d="M496,423.974c0,13.6-11.2,24-24.8,24H24.8c-13.6,0-24.8-10.4-24.8-24l8-96c0-13.6,11.2-24,24.8-24
	H464c13.6,0,24.8,10.4,24.8,24L496,423.974z"/>
<path style="fill:#B7B7B7;" d="M492,437.574l-236-133.6H32.8c-13.6,0-24.8,10.4-24.8,24l-8,96c0,13.6,11.2,24,24.8,24h446.4
	C481.6,448.774,490.4,439.974,492,437.574z"/>
</svg>