<?xml version="1.0" encoding="iso-8859-1"?>
<!-- Uploaded to: SVG Repo, www.svgrepo.com, Generator: SVG Repo Mixer Tools -->
<svg height="800px" width="800px" version="1.1" id="Layer_1" xmlns="http://www.w3.org/2000/svg" xmlns:xlink="http://www.w3.org/1999/xlink" 
	 viewBox="0 0 503.467 503.467" xml:space="preserve">
<g transform="translate(1 1)">
	<path style="fill:#FF7474;" d="M498.2,105.667v358.4c0,18.773-15.36,34.133-34.133,34.133H37.4
		c-18.773,0-34.133-15.36-34.133-34.133v-358.4c0-18.773,15.36-34.133,34.133-34.133h34.133v34.133H54.467
		c-17.067,0-17.067,17.067-17.067,17.067v187.733c0,9.387,7.68,17.067,17.067,17.067h17.067h85.333v51.2
		c0,9.387,7.68,17.067,17.067,17.067h153.6c9.387,0,17.067-7.68,17.067-17.067v-51.2h85.333H447c9.387,0,17.067-7.68,17.067-17.067
		V122.733c0,0,0-17.067-17.067-17.067h-17.067V71.533h34.133C482.84,71.533,498.2,86.893,498.2,105.667"/>
	<path style="fill:#F2EDDA;" d="M71.533,37.4V20.333c0-9.387,7.68-17.067,17.067-17.067h324.267c9.387,0,17.067,7.68,17.067,17.067
		v51.2v34.133v221.867H344.6v51.2c0,9.387-7.68,17.067-17.067,17.067h-153.6c-9.387,0-17.067-7.68-17.067-17.067v-51.2H71.533
		V105.667V71.533V37.4z"/>
	<path style="fill:#AAB1BA;" d="M71.533,105.667v221.867H54.467c-9.387,0-17.067-7.68-17.067-17.067V122.733
		c0,0,0-17.067,17.067-17.067H71.533z M447,105.667c17.067,0,17.067,17.067,17.067,17.067v187.733
		c0,9.387-7.68,17.067-17.067,17.067h-17.067V105.667H447z"/>
</g>
<path style="fill:#51565F;" d="M465.067,503.467H38.4c-21.333,0-38.4-17.067-38.4-38.4v-358.4c0-21.333,17.067-38.4,38.4-38.4
	c2.56,0,4.267,1.707,4.267,4.267c0,2.56-1.707,4.267-4.267,4.267c-16.213,0-29.867,13.653-29.867,29.867v358.4
	c0,16.213,13.653,29.867,29.867,29.867h426.667c16.213,0,29.867-13.653,29.867-29.867v-358.4c0-16.213-13.653-29.867-29.867-29.867
	c-2.56,0-4.267-1.707-4.267-4.267c0-2.56,1.707-4.267,4.267-4.267c21.333,0,38.4,17.067,38.4,38.4v358.4
	C503.467,486.4,486.4,503.467,465.067,503.467z M328.533,401.067h-153.6c-11.947,0-21.333-9.387-21.333-21.333V332.8H55.467
	c-11.947,0-21.333-9.387-21.333-21.333V123.733c0-2.56,1.707-4.267,4.267-4.267s4.267,1.707,4.267,4.267v187.733
	c0,6.827,5.973,12.8,12.8,12.8h102.4c2.56,0,4.267,1.707,4.267,4.267v51.2c0,6.827,5.973,12.8,12.8,12.8h153.6
	c6.827,0,12.8-5.973,12.8-12.8v-51.2c0-2.56,1.707-4.267,4.267-4.267H448c6.827,0,12.8-5.973,12.8-12.8V123.733
	c0-2.56,1.707-4.267,4.267-4.267s4.267,1.707,4.267,4.267v187.733c0,11.947-9.387,21.333-21.333,21.333h-98.133v46.933
	C349.867,391.68,340.48,401.067,328.533,401.067z M311.467,349.867h-51.2c-2.56,0-4.267-1.707-4.267-4.267
	c0-2.56,1.707-4.267,4.267-4.267h51.2c2.56,0,4.267,1.707,4.267,4.267C315.733,348.16,314.027,349.867,311.467,349.867z
	 M226.133,349.867H192c-2.56,0-4.267-1.707-4.267-4.267c0-2.56,1.707-4.267,4.267-4.267h34.133c2.56,0,4.267,1.707,4.267,4.267
	C230.4,348.16,228.693,349.867,226.133,349.867z M430.933,298.667c-2.56,0-4.267-1.707-4.267-4.267V21.333
	c0-6.827-5.973-12.8-12.8-12.8H89.6c-6.827,0-12.8,5.973-12.8,12.8v12.8h320c2.56,0,4.267,1.707,4.267,4.267
	s-1.707,4.267-4.267,4.267h-320v25.6h320c2.56,0,4.267,1.707,4.267,4.267c0,2.56-1.707,4.267-4.267,4.267h-320v217.6
	c0,2.56-1.707,4.267-4.267,4.267c-2.56,0-4.267-1.707-4.267-4.267V21.333C68.267,10.24,78.507,0,89.6,0h324.267
	C425.813,0,435.2,9.387,435.2,21.333V294.4C435.2,296.96,433.493,298.667,430.933,298.667z M362.667,298.667h-34.133
	c-2.56,0-4.267-1.707-4.267-4.267c0-2.56,1.707-4.267,4.267-4.267h34.133c2.56,0,4.267,1.707,4.267,4.267
	C366.933,296.96,365.227,298.667,362.667,298.667z M294.4,298.667h-51.2c-2.56,0-4.267-1.707-4.267-4.267
	c0-2.56,1.707-4.267,4.267-4.267h51.2c2.56,0,4.267,1.707,4.267,4.267C298.667,296.96,296.96,298.667,294.4,298.667z
	 M209.067,298.667H140.8c-2.56,0-4.267-1.707-4.267-4.267c0-2.56,1.707-4.267,4.267-4.267h68.267c2.56,0,4.267,1.707,4.267,4.267
	C213.333,296.96,211.627,298.667,209.067,298.667z M345.6,247.467h-68.267c-2.56,0-4.267-1.707-4.267-4.267s1.707-4.267,4.267-4.267
	H345.6c2.56,0,4.267,1.707,4.267,4.267S348.16,247.467,345.6,247.467z M243.2,247.467H140.8c-2.56,0-4.267-1.707-4.267-4.267
	s1.707-4.267,4.267-4.267h102.4c2.56,0,4.267,1.707,4.267,4.267S245.76,247.467,243.2,247.467z M243.2,179.2H140.8
	c-2.56,0-4.267-1.707-4.267-4.267c0-2.56,1.707-4.267,4.267-4.267h102.4c2.56,0,4.267,1.707,4.267,4.267
	C247.467,177.493,245.76,179.2,243.2,179.2z"/>
</svg>