<?xml version="1.0" encoding="iso-8859-1"?>
<!-- Uploaded to: SVG Repo, www.svgrepo.com, Generator: SVG Repo Mixer Tools -->
<svg version="1.1" id="Layer_1" xmlns="http://www.w3.org/2000/svg" xmlns:xlink="http://www.w3.org/1999/xlink" 
	 viewBox="0 0 512.001 512.001" xml:space="preserve">
<g>
	<rect x="210.987" y="154.731" style="fill:#AFB6BB;" width="90.012" height="39.383"/>
	<rect x="210.987" y="402.281" style="fill:#AFB6BB;" width="90.012" height="39.383"/>
	<path style="fill:#AFB6BB;" d="M109.723,340.391h292.555v163.156H109.723V340.391z M210.992,402.278v39.383h90.017v-39.383H210.992
		z"/>
	<path style="fill:#AFB6BB;" d="M109.723,92.844h292.555V256H109.723V92.844z M210.992,154.731v39.383h90.017v-39.383H210.992z"/>
</g>
<g>
	<polygon style="fill:#595E62;" points="441.66,301.009 441.66,503.547 402.279,503.547 402.279,340.391 109.723,340.391 
		109.723,503.547 70.341,503.547 70.341,301.009 	"/>
	<polygon style="fill:#595E62;" points="441.66,53.462 441.66,256 402.279,256 402.279,92.844 109.723,92.844 109.723,256 
		70.341,256 70.341,53.462 	"/>
</g>
<g>
	<polygon style="fill:#7E8488;" points="458.539,256 458.539,301.009 441.66,301.009 70.341,301.009 53.462,301.009 53.462,256 
		70.341,256 109.723,256 402.279,256 441.66,256 	"/>
	<polygon style="fill:#7E8488;" points="458.539,8.453 458.539,53.462 441.66,53.462 70.341,53.462 53.462,53.462 53.462,8.453 	"/>
</g>
<g>
	<rect x="109.726" y="340.391" style="fill:#9DA4A9;" width="146.278" height="163.151"/>
	<rect x="109.726" y="92.841" style="fill:#9DA4A9;" width="146.278" height="163.151"/>
</g>
<g>
	<polygon style="fill:#42474A;" points="256.001,340.391 256.001,301.009 70.341,301.009 70.341,503.547 109.723,503.547 
		109.723,340.391 	"/>
	<polygon style="fill:#42474A;" points="109.723,92.844 256.001,92.844 256.001,53.462 70.341,53.462 70.341,256 109.723,256 	"/>
</g>
<g>
	<polygon style="fill:#6B7073;" points="256.001,256 109.723,256 70.341,256 53.462,256 53.462,301.009 70.341,301.009 
		256.001,301.009 	"/>
	<polygon style="fill:#6B7073;" points="256.001,8.453 53.462,8.453 53.462,53.462 70.341,53.462 256.001,53.462 	"/>
</g>
<path d="M466.992,61.916V0H45.009v61.916h16.879v185.632H45.009v61.915h16.879v202.538h388.226V309.463h16.879v-61.915h-16.879
	V61.916H466.992z M61.916,16.907h388.17v28.103H61.916V16.907z M61.916,292.556v-28.101h388.17v28.101H61.916z M393.825,247.547
	H118.176V101.298h275.649V247.547z M393.825,495.093H118.176V348.844h275.649V495.093z M433.207,495.093h-22.475V331.938H101.269
	v163.156H78.794v-185.63h354.412V495.093z M410.732,247.547V84.391H101.269v163.156H78.794V61.916h354.412v185.632h-22.475V247.547z
	"/>
<path d="M202.539,202.568h106.923v-39.383h19.677v-16.907H182.862v16.907h19.677L202.539,202.568L202.539,202.568z M292.555,185.661
	h-73.11v-22.476h73.11V185.661z"/>
<path d="M202.539,450.114h106.923v-39.383h19.677v-16.907H182.862v16.907h19.677L202.539,450.114L202.539,450.114z M292.555,433.207
	h-73.11v-22.476h73.11V433.207z"/>
<g>
	<polygon style="fill:#FFFFFF;" points="151.933,165.983 135.026,165.983 135.026,118.147 165.983,118.147 165.983,135.054 
		151.933,135.054 	"/>
	<polygon style="fill:#FFFFFF;" points="151.933,413.53 135.026,413.53 135.026,365.694 165.983,365.694 165.983,382.601 
		151.933,382.601 	"/>
</g>
</svg>