<?xml version="1.0" encoding="iso-8859-1"?>
<!-- Uploaded to: SVG Repo, www.svgrepo.com, Generator: SVG Repo Mixer Tools -->
<!DOCTYPE svg PUBLIC "-//W3C//DTD SVG 1.1//EN" "http://www.w3.org/Graphics/SVG/1.1/DTD/svg11.dtd">
<svg height="800px" width="800px" version="1.1" id="Capa_1" xmlns="http://www.w3.org/2000/svg" xmlns:xlink="http://www.w3.org/1999/xlink" 
	 viewBox="0 0 56 56" xml:space="preserve">
<g>
	<path style="fill:#1081E0;" d="M53.616,56H2.384C1.067,56,0,54.933,0,53.616V2.384C0,1.067,1.067,0,2.384,0h51.231
		C54.933,0,56,1.067,56,2.384v51.231C56,54.933,54.933,56,53.616,56z"/>
	<polygon style="fill:#F2ECBF;" points="51,4 5,4 5,37 17,37 17,44 39,44 39,37 51,37 	"/>
	<g>
		<path style="fill:#BAB395;" d="M12,15h18c0.552,0,1-0.448,1-1s-0.448-1-1-1H12c-0.552,0-1,0.448-1,1S11.448,15,12,15z"/>
		<path style="fill:#BAB395;" d="M44,27H33c-0.552,0-1,0.448-1,1s0.448,1,1,1h11c0.552,0,1-0.448,1-1S44.552,27,44,27z"/>
		<path style="fill:#BAB395;" d="M12,22h6c0.552,0,1-0.448,1-1s-0.448-1-1-1h-6c-0.552,0-1,0.448-1,1S11.448,22,12,22z"/>
		<path style="fill:#BAB395;" d="M27,21c0,0.552,0.448,1,1,1h11c0.552,0,1-0.448,1-1s-0.448-1-1-1H28C27.448,20,27,20.448,27,21z"/>
		<path style="fill:#BAB395;" d="M22.29,20.29C22.11,20.48,22,20.74,22,21c0,0.26,0.11,0.52,0.29,0.71C22.48,21.89,22.74,22,23,22
			c0.27,0,0.52-0.11,0.71-0.29C23.89,21.52,24,21.26,24,21c0-0.26-0.11-0.52-0.29-0.71C23.34,19.92,22.67,19.92,22.29,20.29z"/>
		<path style="fill:#BAB395;" d="M28,27H17c-0.552,0-1,0.448-1,1s0.448,1,1,1h11c0.552,0,1-0.448,1-1S28.552,27,28,27z"/>
		<path style="fill:#BAB395;" d="M11.29,27.29C11.11,27.48,11,27.74,11,28c0,0.26,0.11,0.52,0.29,0.71C11.48,28.89,11.74,29,12,29
			c0.26,0,0.52-0.11,0.71-0.29C12.89,28.52,13,28.26,13,28c0-0.26-0.11-0.52-0.29-0.71C12.33,26.92,11.66,26.92,11.29,27.29z"/>
		<path style="fill:#BAB395;" d="M44,22c0.26,0,0.52-0.11,0.71-0.29C44.89,21.52,45,21.26,45,21c0-0.26-0.11-0.52-0.29-0.71
			c-0.37-0.37-1.05-0.37-1.42,0C43.11,20.48,43,20.74,43,21c0,0.26,0.11,0.52,0.29,0.71C43.48,21.89,43.73,22,44,22z"/>
	</g>
</g>
</svg>