<?xml version="1.0" encoding="iso-8859-1"?>
<!-- Uploaded to: SVG Repo, www.svgrepo.com, Generator: SVG Repo Mixer Tools -->
<!DOCTYPE svg PUBLIC "-//W3C//DTD SVG 1.1//EN" "http://www.w3.org/Graphics/SVG/1.1/DTD/svg11.dtd">
<svg height="800px" width="800px" version="1.1" id="Capa_1" xmlns="http://www.w3.org/2000/svg" xmlns:xlink="http://www.w3.org/1999/xlink" 
	 viewBox="0 0 57 57" xml:space="preserve">
<g>
	<path style="fill:#546A79;" d="M39.5,39.486v4.028c0,0.821-0.665,1.486-1.486,1.486H18.986c-0.821,0-1.486-0.665-1.486-1.486
		v-4.028c0-0.821-0.665-1.486-1.486-1.486H1.732C1.604,38,1.5,38.104,1.5,38.232v16.143C1.5,55.824,2.676,57,4.126,57h48.749
		c1.45,0,2.626-1.176,2.626-2.626V38.232c0-0.128-0.104-0.232-0.232-0.232H40.986C40.165,38,39.5,38.665,39.5,39.486z"/>
	<path style="fill:#F2ECBF;" d="M16.014,38c0.821,0,1.486,0.665,1.486,1.486v4.028c0,0.821,0.665,1.486,1.486,1.486h19.028
		c0.821,0,1.486-0.665,1.486-1.486v-4.028c0-0.821,0.665-1.486,1.486-1.486H48.5V8l-8-8h-32v38H16.014z"/>
	<path style="fill:#BAB395;" d="M48.402,8H41.17C40.8,8,40.5,7.7,40.5,7.33V0.098c0-0.036,0.044-0.054,0.069-0.029l7.861,7.861
		C48.456,7.956,48.438,8,48.402,8z"/>
	<g>
		<path style="fill:#38454F;" d="M1.58,37.848C1.544,37.917,1.594,38,1.672,38H8.5V24.7L1.58,37.848z"/>
		<path style="fill:#38454F;" d="M17.47,39.187c-0.059-0.29-0.203-0.55-0.405-0.751C17.266,38.637,17.41,38.896,17.47,39.187z"/>
		<path style="fill:#38454F;" d="M39.935,38.435c-0.202,0.202-0.346,0.461-0.405,0.751C39.59,38.896,39.734,38.637,39.935,38.435z"
			/>
		<path style="fill:#38454F;" d="M48.5,24.7V38h6.828c0.078,0,0.128-0.083,0.092-0.152L48.5,24.7z"/>
	</g>
	<g>
		<path style="fill:#BAB395;" d="M14.5,13h18c0.552,0,1-0.448,1-1s-0.448-1-1-1h-18c-0.552,0-1,0.448-1,1S13.948,13,14.5,13z"/>
		<path style="fill:#BAB395;" d="M32.5,31h-18c-0.552,0-1,0.448-1,1s0.448,1,1,1h18c0.552,0,1-0.448,1-1S33.052,31,32.5,31z"/>
		<path style="fill:#BAB395;" d="M42.5,25h-7c-0.552,0-1,0.448-1,1s0.448,1,1,1h7c0.552,0,1-0.448,1-1S43.052,25,42.5,25z"/>
		<path style="fill:#BAB395;" d="M14.5,20h6c0.552,0,1-0.448,1-1s-0.448-1-1-1h-6c-0.552,0-1,0.448-1,1S13.948,20,14.5,20z"/>
		<path style="fill:#BAB395;" d="M29.5,19c0,0.552,0.448,1,1,1h7c0.552,0,1-0.448,1-1s-0.448-1-1-1h-7
			C29.948,18,29.5,18.448,29.5,19z"/>
		<path style="fill:#BAB395;" d="M26.21,19.71c0.18-0.19,0.29-0.45,0.29-0.71c0-0.26-0.11-0.52-0.29-0.71
			c-0.38-0.37-1.04-0.37-1.42,0c-0.18,0.19-0.29,0.45-0.29,0.71c0,0.26,0.11,0.52,0.29,0.71C24.98,19.89,25.24,20,25.5,20
			C25.76,20,26.02,19.89,26.21,19.71z"/>
		<path style="fill:#BAB395;" d="M18.5,26c0,0.552,0.448,1,1,1h11c0.552,0,1-0.448,1-1s-0.448-1-1-1h-11
			C18.948,25,18.5,25.448,18.5,26z"/>
		<path style="fill:#BAB395;" d="M14.5,27c0.26,0,0.52-0.11,0.71-0.29c0.18-0.19,0.29-0.45,0.29-0.71c0-0.26-0.11-0.52-0.29-0.71
			c-0.37-0.37-1.05-0.37-1.42,0c-0.18,0.19-0.29,0.45-0.29,0.71c0,0.26,0.11,0.52,0.29,0.71C13.98,26.89,14.24,27,14.5,27z"/>
		<path style="fill:#BAB395;" d="M42.5,20c0.26,0,0.52-0.11,0.71-0.29c0.18-0.19,0.29-0.45,0.29-0.71c0-0.26-0.11-0.52-0.29-0.71
			c-0.37-0.37-1.05-0.37-1.42,0c-0.18,0.19-0.29,0.45-0.29,0.71c0,0.26,0.11,0.52,0.29,0.71C41.98,19.89,42.24,20,42.5,20z"/>
		<path style="fill:#BAB395;" d="M36.79,31.29c-0.18,0.19-0.29,0.45-0.29,0.71c0,0.26,0.11,0.52,0.29,0.71
			C36.98,32.89,37.24,33,37.5,33c0.26,0,0.52-0.11,0.71-0.29c0.18-0.19,0.29-0.45,0.29-0.71c0-0.26-0.11-0.52-0.29-0.71
			C37.84,30.92,37.17,30.92,36.79,31.29z"/>
		<path style="fill:#BAB395;" d="M41.79,31.29c-0.18,0.19-0.29,0.45-0.29,0.71c0,0.26,0.11,0.52,0.29,0.71
			C41.98,32.89,42.24,33,42.5,33c0.26,0,0.52-0.11,0.71-0.29c0.18-0.19,0.29-0.45,0.29-0.71c0-0.26-0.11-0.52-0.29-0.71
			C42.84,30.92,42.16,30.92,41.79,31.29z"/>
	</g>
</g>
</svg>