<?xml version="1.0" ?>
<!DOCTYPE svg  PUBLIC '-//W3C//DTD SVG 1.1//EN'  'http://www.w3.org/Graphics/SVG/1.1/DTD/svg11.dtd'>
<!-- Uploaded to: SVG Repo, www.svgrepo.com, Generator: SVG Repo Mixer Tools -->
<svg width="800px" height="800px" viewBox="0 0 64 64" id="Layer_1" version="1.1" xml:space="preserve" xmlns="http://www.w3.org/2000/svg" xmlns:xlink="http://www.w3.org/1999/xlink">
<g id="Body_20_">
<g>
<path d="M36,0H4C1.791,0,0,1.79,0,4v55.999C0,62.209,1.791,64,4,64h32    h4v-4.001V4V0H36z" style="fill-rule:evenodd;clip-rule:evenodd;fill:#666666;"/>
</g>
</g>
<g id="Shape_33_">
<g>
<circle cx="20" cy="40" r="16" style="fill:#CCCCCC;"/>
</g>
</g>
<g id="Shape_34_">
<g>
<circle cx="20" cy="39.999" r="10" style="fill:#FFFBF2;"/>
</g>
</g>
<g id="Hole_2_">
<g>
<circle cx="20" cy="40" r="2" style="fill:#666666;"/>
</g>
</g>
<g id="Body_21_">
<g>
<path d="M60,0H48h-4h-4v4v55.999V64h4h4h12c2.209,0,4-1.791,4-4.001V4    C64,1.79,62.209,0,60,0z" style="fill-rule:evenodd;clip-rule:evenodd;fill:#CCCCCC;"/>
</g>
</g>
<g id="Slides">
<g>
<path d="M58,52H46c-1.104,0-2,0.896-2,2s0.896,2,2,2h12    c1.104,0,2-0.896,2-2S59.104,52,58,52z M46,44h12c1.104,0,2-0.896,2-2s-0.896-2-2-2H46c-1.104,0-2,0.896-2,2S44.896,44,46,44z" style="fill-rule:evenodd;clip-rule:evenodd;fill:#999999;"/>
</g>
</g>
<g id="Controllers">
<g>
<path d="M52,40c0-1.104-0.896-2-2-2s-2,0.896-2,2v4    c0,1.104,0.896,2,2,2s2-0.896,2-2V40z M54,50c-1.104,0-2,0.896-2,2v4c0,1.104,0.896,2,2,2s2-0.896,2-2v-4    C56,50.896,55.104,50,54,50z" style="fill-rule:evenodd;clip-rule:evenodd;fill:#808080;"/>
</g>
</g>
<g id="Btns_11_">
<g>
<path d="M10,6C8.896,6,8,6.896,8,7.999C8,9.104,8.896,10,10,10    s2-0.896,2-2.001C12,6.896,11.104,6,10,6z M18,6c-1.104,0-2,0.896-2,1.999C16,9.104,16.896,10,18,10s2-0.896,2-2.001    C20,6.896,19.104,6,18,6z M18,14c-1.104,0-2,0.895-2,2c0,1.104,0.896,2,2,2s2-0.896,2-2C20,14.895,19.104,14,18,14z M10,14    c-1.104,0-2,0.895-2,2c0,1.104,0.896,2,2,2s2-0.896,2-2C12,14.895,11.104,14,10,14z M28,7.999c-2.209,0-4,1.791-4,4.001    c0,2.209,1.791,4,4,4s4-1.791,4-4C32,9.79,30.209,7.999,28,7.999z M56,10c1.104,0,2-0.896,2-2.001C58,6.896,57.104,6,56,6    s-2,0.896-2,1.999C54,9.104,54.896,10,56,10z M48,6c-1.104,0-2,0.896-2,1.999C46,9.104,46.896,10,48,10s2-0.896,2-2.001    C50,6.896,49.104,6,48,6z M57.118,14.341C56.799,14.126,56.414,14,56,14s-0.799,0.126-1.118,0.341C54.35,14.7,54,15.309,54,15.999    v0v0c0,0.966,0.686,1.773,1.597,1.959C55.727,17.986,55.862,18,56,18s0.273-0.014,0.403-0.041C57.314,17.773,58,16.966,58,16v0v0    C58,15.309,57.65,14.7,57.118,14.341z M56,21.999c-1.104,0-2,0.896-2,2.001c0,1.104,0.896,2,2,2s2-0.896,2-2    C58,22.895,57.104,21.999,56,21.999z M48,21.999c-1.104,0-2,0.896-2,2.001c0,1.104,0.896,2,2,2s2-0.896,2-2    C50,22.895,49.104,21.999,48,21.999z M49.118,14.341C48.799,14.126,48.414,14,48,14s-0.799,0.126-1.118,0.341    C46.35,14.7,46,15.309,46,15.999v0v0c0,0.966,0.686,1.773,1.597,1.959C47.727,17.986,47.862,18,48,18s0.273-0.014,0.403-0.041    C49.314,17.773,50,16.966,50,16v0v0C50,15.309,49.65,14.7,49.118,14.341z" style="fill-rule:evenodd;clip-rule:evenodd;fill:#999999;"/>
</g>
</g>
<g/>
<g/>
<g/>
<g/>
<g/>
<g/>
<g/>
<g/>
<g/>
<g/>
<g/>
<g/>
<g/>
<g/>
<g/>
</svg>