<?xml version="1.0" encoding="iso-8859-1"?>
<!-- Uploaded to: SVG Repo, www.svgrepo.com, Generator: SVG Repo Mixer Tools -->
<svg height="800px" width="800px" version="1.1" id="Layer_1" xmlns="http://www.w3.org/2000/svg" xmlns:xlink="http://www.w3.org/1999/xlink" 
	 viewBox="0 0 512 512" xml:space="preserve">
<path style="fill:#E6563A;" d="M495.304,445.217H150.261c-9.223,0-16.696-7.473-16.696-16.696V83.478
	c0-9.223,7.473-16.696,16.696-16.696h345.043c9.217,0,16.696,7.473,16.696,16.696v345.043
	C512,437.744,504.521,445.217,495.304,445.217z"/>
<path style="fill:#D9472B;" d="M495.304,66.783H289.391v378.435h205.913c9.217,0,16.696-7.473,16.696-16.696V83.478
	C512,74.256,504.521,66.783,495.304,66.783z"/>
<g>
	<path style="fill:#736056;" d="M116.87,100.174H50.087c-9.223,0-16.696-7.473-16.696-16.696V50.087
		C33.391,22.468,55.859,0,83.478,0s50.087,22.468,50.087,50.087v33.391C133.565,92.701,126.092,100.174,116.87,100.174z"/>
	<path style="fill:#736056;" d="M83.478,512c-27.619,0-50.087-22.468-50.087-50.087v-33.391c0-9.223,7.473-16.696,16.696-16.696
		h66.783c9.223,0,16.696,7.473,16.696,16.696v33.391C133.565,489.532,111.097,512,83.478,512z"/>
</g>
<path style="fill:#FFE0B2;" d="M428.522,378.435H150.261c-9.223,0-16.696-7.473-16.696-16.696V150.261
	c0-9.223,7.473-16.696,16.696-16.696h278.261c9.223,0,16.696,7.473,16.696,16.696v211.478
	C445.217,370.962,437.744,378.435,428.522,378.435z"/>
<path style="fill:#A6673A;" d="M250.435,311.652h-33.391c-9.223,0-16.696-7.473-16.696-16.696s7.473-16.696,16.696-16.696h33.391
	c9.223,0,16.696,7.473,16.696,16.696S259.657,311.652,250.435,311.652z"/>
<g>
	<path style="fill:#665247;" d="M116.87,411.826H83.478V512c27.619,0,50.087-22.468,50.087-50.087v-33.391
		C133.565,419.299,126.092,411.826,116.87,411.826z"/>
	<path style="fill:#665247;" d="M116.87,100.174c9.223,0,16.696-7.473,16.696-16.696V50.087C133.565,22.468,111.097,0,83.478,0
		v100.174H116.87z"/>
</g>
<path style="fill:#FDCD99;" d="M428.522,133.565h-139.13v244.87h139.13c9.223,0,16.696-7.473,16.696-16.696V150.261
	C445.217,141.038,437.744,133.565,428.522,133.565z"/>
<path style="fill:#A6673A;" d="M361.739,233.739H217.043c-9.223,0-16.696-7.473-16.696-16.696s7.473-16.696,16.696-16.696h144.696
	c9.223,0,16.696,7.473,16.696,16.696S370.962,233.739,361.739,233.739z"/>
<path style="fill:#99522E;" d="M361.739,200.348h-72.348v33.391h72.348c9.223,0,16.696-7.473,16.696-16.696
	S370.962,200.348,361.739,200.348z"/>
<path style="fill:#E6563A;" d="M150.261,445.217H16.696C7.473,445.217,0,437.744,0,428.522V83.478
	c0-9.223,7.473-16.696,16.696-16.696h133.565c9.223,0,16.696,7.473,16.696,16.696v345.043
	C166.957,437.744,159.484,445.217,150.261,445.217z"/>
<path style="fill:#D9472B;" d="M150.261,66.783H83.478v378.435h66.783c9.223,0,16.696-7.473,16.696-16.696V83.478
	C166.957,74.256,159.484,66.783,150.261,66.783z"/>
<path style="fill:#99522E;" d="M361.739,311.652h-33.391c-9.223,0-16.696-7.473-16.696-16.696s7.473-16.696,16.696-16.696h33.391
	c9.223,0,16.696,7.473,16.696,16.696S370.962,311.652,361.739,311.652z"/>
</svg>