<?xml version="1.0" encoding="iso-8859-1"?>
<!-- Uploaded to: SVG Repo, www.svgrepo.com, Generator: SVG Repo Mixer Tools -->
<svg height="800px" width="800px" version="1.1" id="Layer_1" xmlns="http://www.w3.org/2000/svg" xmlns:xlink="http://www.w3.org/1999/xlink" 
	 viewBox="0 0 512 512" xml:space="preserve">
<path style="fill:#E65A5B;" d="M63.686,80.423v393.418c0,16.389,13.286,29.675,29.676,29.675h42.263V80.423H63.686z"/>
<path style="fill:#FF6465;" d="M135.625,80.423v423.093h261.998c16.39,0,29.676-13.286,29.676-29.675V80.423H135.625z"/>
<path style="opacity:0.1;enable-background:new    ;" d="M427.298,176.952h-52.397l-69.984,103.414
	c-14.026,20.726-14.026,47.51,0,68.239l69.984,103.414h52.397V176.952z"/>
<path style="fill:#FF8080;" d="M392.912,210.887l-59.889,88.497c-6.172,9.121-6.172,21.08,0,30.201l59.889,88.497h55.402V210.887
	H392.912z"/>
<g>
	<polygon style="fill:#FFFFFF;" points="427.298,112.77 127.025,129.579 86.275,80.422 127.025,31.266 427.298,48.076 	"/>
	<path style="fill:#FFFFFF;" d="M135.625,112.769c-17.836,0-32.347-14.51-32.347-32.346s14.511-32.347,32.347-32.347h291.674v64.693
		H135.625z"/>
</g>
<path style="fill:#FF8080;" d="M135.625,48.076h291.674V8.484H135.625c-39.731,0-71.938,32.208-71.938,71.938v0.001
	c0,39.73,32.208,71.938,71.938,71.938h291.674V112.77H135.625c-17.837,0-32.347-14.51-32.347-32.347S117.788,48.076,135.625,48.076z
	"/>
<circle cx="377.038" cy="314.483" r="14.244"/>
<path d="M448.314,202.403h-12.531V8.484c0-4.687-3.799-8.484-8.484-8.484H200.909c-4.685,0-8.484,3.797-8.484,8.484
	s3.799,8.484,8.484,8.484h217.905v22.624h-283.19c-22.514,0-40.83,18.316-40.83,40.832c0,22.513,18.316,40.83,40.83,40.83h193.82
	c4.685,0,8.484-3.797,8.484-8.484c0-4.687-3.799-8.484-8.484-8.484h-193.82c-13.158,0-23.863-10.704-23.863-23.863
	s10.704-23.864,23.863-23.864h283.19v47.725H363.38c-4.685,0-8.484,3.797-8.484,8.484c0,4.687,3.799,8.484,8.484,8.484h55.434
	v22.624h-283.19c-10.518,0-20.981-2.646-30.221-7.669c-19.779-10.758-33.233-31.73-33.233-55.785
	c0-34.989,28.465-63.454,63.454-63.454h31.362c4.685,0,8.484-3.797,8.484-8.484S171.672,0,166.987,0h-31.362
	C91.279,0,55.202,36.078,55.202,80.423v393.418c0,21.041,17.118,38.159,38.16,38.159h42.263h261.998
	c21.041,0,38.16-17.118,38.16-38.159v-47.275h12.531c4.685,0,8.484-3.797,8.484-8.484V210.887
	C456.798,206.201,452.999,202.403,448.314,202.403z M418.814,473.841c0,11.685-9.507,21.191-21.192,21.191H144.108v-42.957
	c0-4.687-3.799-8.484-8.484-8.484s-8.484,3.797-8.484,8.484v42.957H93.362c-11.685,0-21.192-9.505-21.192-21.191V129.781
	c0.223,0.286,0.463,0.558,0.689,0.84c12.98,16.195,32.13,27.021,52.743,29.577c0.514,0.064,1.021,0.148,1.538,0.202V418.14
	c0,4.687,3.799,8.484,8.484,8.484s8.484-3.797,8.484-8.484V160.845h274.706v41.558h-25.902c-2.816,0-5.448,1.397-7.026,3.73
	l-59.889,88.497c-8.162,12.061-8.162,27.648,0,39.709l59.889,88.497c1.578,2.333,4.21,3.73,7.026,3.73h25.902V473.841z
	 M439.83,409.599h-12.531h-29.884l-57.365-84.768c-4.252-6.286-4.253-14.407,0-20.692l57.365-84.768h29.884h12.531V409.599z"/>
</svg>