<?xml version="1.0" encoding="iso-8859-1"?>
<!-- Uploaded to: SVG Repo, www.svgrepo.com, Generator: SVG Repo Mixer Tools -->
<svg height="800px" width="800px" version="1.1" id="Layer_1" xmlns="http://www.w3.org/2000/svg" xmlns:xlink="http://www.w3.org/1999/xlink" 
	 viewBox="0 0 503.467 503.467" xml:space="preserve">
<g transform="translate(1 1)">
	<g>
		<polygon style="fill:#FFD0A1;" points="242.2,259.267 276.333,259.267 276.333,139.8 242.2,139.8 		"/>
		<path style="fill:#FFD0A1;" d="M310.467,71.533V498.2H395.8V122.733v-51.2V37.4c0-9.387-7.68-17.067-17.067-17.067h-51.2
			c-9.387,0-17.067,7.68-17.067,17.067V71.533z"/>
	</g>
	<g>
		<path style="fill:#80D6FA;" d="M498.2,122.733v358.4c0,9.387-7.68,17.067-17.067,17.067H395.8V122.733H498.2z M498.2,88.6v34.133
			H395.8v-51.2h85.333C490.52,71.533,498.2,79.213,498.2,88.6z"/>
		<path style="fill:#80D6FA;" d="M122.733,259.267h51.2V139.8h-51.2V259.267z M208.067,54.467V498.2H88.6V105.667v-51.2H208.067z
			 M208.067,54.467H88.6V20.333c0-9.387,7.68-17.067,17.067-17.067H191c9.387,0,17.067,7.68,17.067,17.067V37.4V54.467z"/>
	</g>
	<path style="fill:#FF7474;" d="M88.6,105.667V498.2H20.333c-9.387,0-17.067-7.68-17.067-17.067v-409.6
		c0-9.387,7.68-17.067,17.067-17.067H88.6V105.667z"/>
	<polygon style="fill:#AAB1BA;" points="122.733,259.267 173.933,259.267 173.933,139.8 122.733,139.8 	"/>
	<path style="fill:#F2EDDA;" d="M242.2,259.267h34.133V139.8H242.2V259.267z M310.467,71.533V498.2h-102.4V54.467V37.4h102.4V71.533
		z"/>
</g>
<path style="fill:#51565F;" d="M482.133,503.467h-460.8C9.387,503.467,0,494.08,0,482.133v-409.6C0,60.587,9.387,51.2,21.333,51.2
	h34.133c2.56,0,4.267,1.707,4.267,4.267c0,2.56-1.707,4.267-4.267,4.267H21.333c-6.827,0-12.8,5.973-12.8,12.8v409.6
	c0,6.827,5.973,12.8,12.8,12.8h64v-384H38.4c-2.56,0-4.267-1.707-4.267-4.267S35.84,102.4,38.4,102.4h46.933V21.333
	C85.333,9.387,94.72,0,106.667,0H192c11.947,0,21.333,9.387,21.333,21.333v12.8h64c2.56,0,4.267,1.707,4.267,4.267
	s-1.707,4.267-4.267,4.267h-64v452.267H307.2V38.4c0-11.947,9.387-21.333,21.333-21.333h51.2c11.947,0,21.333,9.387,21.333,21.333
	v81.067h55.467c2.56,0,4.267,1.707,4.267,4.267c0,2.56-1.707,4.267-4.267,4.267h-55.467v366.933h81.067
	c6.827,0,12.8-5.973,12.8-12.8V89.6c0-6.827-5.973-12.8-12.8-12.8h-51.2c-2.56,0-4.267-1.707-4.267-4.267
	c0-2.56,1.707-4.267,4.267-4.267h51.2c11.947,0,21.333,9.387,21.333,21.333v392.533C503.467,494.08,494.08,503.467,482.133,503.467z
	 M315.733,494.933h76.8V38.4c0-7.68-5.12-12.8-12.8-12.8h-51.2c-6.827,0-12.8,5.973-12.8,12.8v29.867h46.933
	c2.56,0,4.267,1.707,4.267,4.267c0,2.56-1.707,4.267-4.267,4.267h-46.933V494.933z M93.867,494.933H204.8v-473.6
	c0-7.68-5.12-12.8-12.8-12.8h-85.333c-6.827,0-12.8,5.973-12.8,12.8V51.2h81.067c2.56,0,4.267,1.707,4.267,4.267
	c0,2.56-1.707,4.267-4.267,4.267H93.867V494.933z M465.067,452.267h-34.133c-2.56,0-4.267-1.707-4.267-4.267
	c0-2.56,1.707-4.267,4.267-4.267h34.133c2.56,0,4.267,1.707,4.267,4.267C469.333,450.56,467.627,452.267,465.067,452.267z
	 M362.667,452.267H345.6c-2.56,0-4.267-1.707-4.267-4.267c0-2.56,1.707-4.267,4.267-4.267h17.067c2.56,0,4.267,1.707,4.267,4.267
	C366.933,450.56,365.227,452.267,362.667,452.267z M277.333,452.267H243.2c-2.56,0-4.267-1.707-4.267-4.267
	c0-2.56,1.707-4.267,4.267-4.267h34.133c2.56,0,4.267,1.707,4.267,4.267C281.6,450.56,279.893,452.267,277.333,452.267z
	 M174.933,452.267h-51.2c-2.56,0-4.267-1.707-4.267-4.267c0-2.56,1.707-4.267,4.267-4.267h51.2c2.56,0,4.267,1.707,4.267,4.267
	C179.2,450.56,177.493,452.267,174.933,452.267z M55.467,452.267H38.4c-2.56,0-4.267-1.707-4.267-4.267
	c0-2.56,1.707-4.267,4.267-4.267h17.067c2.56,0,4.267,1.707,4.267,4.267C59.733,450.56,58.027,452.267,55.467,452.267z
	 M465.067,418.133h-34.133c-2.56,0-4.267-1.707-4.267-4.267c0-2.56,1.707-4.267,4.267-4.267h34.133c2.56,0,4.267,1.707,4.267,4.267
	C469.333,416.427,467.627,418.133,465.067,418.133z M362.667,418.133H345.6c-2.56,0-4.267-1.707-4.267-4.267
	c0-2.56,1.707-4.267,4.267-4.267h17.067c2.56,0,4.267,1.707,4.267,4.267C366.933,416.427,365.227,418.133,362.667,418.133z
	 M277.333,418.133H243.2c-2.56,0-4.267-1.707-4.267-4.267c0-2.56,1.707-4.267,4.267-4.267h34.133c2.56,0,4.267,1.707,4.267,4.267
	C281.6,416.427,279.893,418.133,277.333,418.133z M174.933,418.133h-51.2c-2.56,0-4.267-1.707-4.267-4.267
	c0-2.56,1.707-4.267,4.267-4.267h51.2c2.56,0,4.267,1.707,4.267,4.267C179.2,416.427,177.493,418.133,174.933,418.133z
	 M55.467,418.133H38.4c-2.56,0-4.267-1.707-4.267-4.267c0-2.56,1.707-4.267,4.267-4.267h17.067c2.56,0,4.267,1.707,4.267,4.267
	C59.733,416.427,58.027,418.133,55.467,418.133z M465.067,298.667c-2.56,0-4.267-1.707-4.267-4.267v-85.333
	c0-2.56,1.707-4.267,4.267-4.267s4.267,1.707,4.267,4.267V294.4C469.333,296.96,467.627,298.667,465.067,298.667z M430.933,298.667
	c-2.56,0-4.267-1.707-4.267-4.267v-85.333c0-2.56,1.707-4.267,4.267-4.267s4.267,1.707,4.267,4.267V294.4
	C435.2,296.96,433.493,298.667,430.933,298.667z M277.333,264.533H243.2c-2.56,0-4.267-1.707-4.267-4.267V140.8
	c0-2.56,1.707-4.267,4.267-4.267h34.133c2.56,0,4.267,1.707,4.267,4.267v119.467C281.6,262.827,279.893,264.533,277.333,264.533z
	 M247.467,256h25.6V145.067h-25.6V256z M174.933,264.533h-51.2c-2.56,0-4.267-1.707-4.267-4.267V140.8
	c0-2.56,1.707-4.267,4.267-4.267h51.2c2.56,0,4.267,1.707,4.267,4.267v119.467C179.2,262.827,177.493,264.533,174.933,264.533z
	 M128,256h42.667V145.067H128V256z M55.467,247.467H38.4c-2.56,0-4.267-1.707-4.267-4.267s1.707-4.267,4.267-4.267h17.067
	c2.56,0,4.267,1.707,4.267,4.267S58.027,247.467,55.467,247.467z M362.667,213.333H345.6c-2.56,0-4.267-1.707-4.267-4.267
	c0-2.56,1.707-4.267,4.267-4.267h17.067c2.56,0,4.267,1.707,4.267,4.267C366.933,211.627,365.227,213.333,362.667,213.333z
	 M55.467,213.333H38.4c-2.56,0-4.267-1.707-4.267-4.267c0-2.56,1.707-4.267,4.267-4.267h17.067c2.56,0,4.267,1.707,4.267,4.267
	C59.733,211.627,58.027,213.333,55.467,213.333z M362.667,179.2H345.6c-2.56,0-4.267-1.707-4.267-4.267
	c0-2.56,1.707-4.267,4.267-4.267h17.067c2.56,0,4.267,1.707,4.267,4.267C366.933,177.493,365.227,179.2,362.667,179.2z
	 M362.667,145.067H345.6c-2.56,0-4.267-1.707-4.267-4.267c0-2.56,1.707-4.267,4.267-4.267h17.067c2.56,0,4.267,1.707,4.267,4.267
	C366.933,143.36,365.227,145.067,362.667,145.067z"/>
</svg>