<?xml version="1.0" encoding="utf-8"?>
<!-- Uploaded to: SVG Repo, www.svgrepo.com, Generator: SVG Repo Mixer Tools -->
<svg width="800px" height="800px" viewBox="0 0 1024 1024" class="icon"  version="1.1" xmlns="http://www.w3.org/2000/svg"><path d="M514.9 197.1c0-10.5-8.6-19.1-19.1-19.1h-236c-10.5 0-19.1 8.6-19.1 19.1v68.1c0 10.5 8.6 19.1 19.1 19.1h236c10.5 0 19.1-8.6 19.1-19.1v-68.1z" fill="#A4A9AD" /><path d="M240.7 226h274.1v17H240.7z" fill="" /><path d="M143.6 284.3h492.3v577.8H143.6z" fill="#FFB819" /><path d="M143.6 549h100.6v48.4H143.6zM494.7 673h100.6v48.4H494.7zM369.5 325.6h100.6V374H369.5zM444.4 491.9H545v48.4H444.4zM185.3 362.7h100.6v48.4H185.3zM179.5 778.3h100.6v48.4H179.5zM246.9 638.5h100.6v48.4H246.9z" fill="" /><path d="M464.3 648.4c0-47.8-38.7-86.5-86.5-86.5s-86.5 38.7-86.5 86.5v149.9h173V648.4z" fill="#333E48" /><path d="M267.2 840.6v-32.7c0-5.2 4.3-9.5 9.5-9.5h202.1c5.2 0 9.5 4.3 9.5 9.5v32.7H267.2z" fill="#F2D383" /><path d="M419.8 648.4c0-23.2-18.8-42-42-42s-42 18.8-42 42h84zM543.4 428c0-5.2-4.3-9.5-9.5-9.5H221.7c-5.2 0-9.5 4.3-9.5 9.5v61.7c0 5.2 4.3 9.5 9.5 9.5h312.1c5.2 0 9.5-4.3 9.5-9.5l0.1-61.7z" fill="#FFFFFF" /><path d="M533.9 418.5H221.7c-5.2 0-9.5 4.3-9.5 9.5v27.9c0-5.2 4.3-9.5 9.5-9.5h312.1c5.2 0 9.5 4.3 9.5 9.5V428c0.1-5.2-4.2-9.5-9.4-9.5z" fill="" /><path d="M363.5 418.5h28.6v80.8h-28.6z" fill="#333E48" /><path d="M226.5 485h302.6v-52.2H226.5V485z m307.4 28.6H221.7c-13.1 0-23.8-10.7-23.8-23.8V428c0-13.1 10.7-23.8 23.8-23.8h312.1c13.1 0 23.8 10.7 23.8 23.8v61.7c0.1 13.2-10.6 23.9-23.7 23.9z" fill="#D68231" /><path d="M143.6 284.3h492.3v68.8H143.6z" fill="" /><path d="M635.9 262.1c0-10.5-8.6-19.1-19.1-19.1h-478c-10.5 0-19.1 8.6-19.1 19.1v44.5c0 10.5 8.6 19.1 19.1 19.1h478c10.5 0 19.1-8.6 19.1-19.1v-44.5z" fill="#D68231" /><path d="M567.6 243h68.2v619.1h-68.2z" fill="" /><path d="M595.3 210.4h292.5V862H595.3z" fill="#F2D383" /><path d="M595.3 548.4h100.6v48.4H595.3zM765 754.1h100.6v48.4H765zM787.3 414.6h100.6V463H787.3zM616.9 317h100.6v48.4H616.9zM756.1 226h100.6v48.4H756.1z" fill="" /><path d="M595.3 210.4h292.5v43.8H595.3z" fill="" /><path d="M803.4 347.9c0-34.1-27.7-61.8-61.8-61.8-34.1 0-61.8 27.7-61.8 61.8v139.8h123.7l-0.1-139.8z" fill="#FFFFFF" /><path d="M741.6 286.1c-34.1 0-61.8 27.7-61.8 61.8v26.4c0-34.1 27.7-61.8 61.8-61.8 34.1 0 61.8 27.7 61.8 61.8v-26.4c0-34.1-27.7-61.8-61.8-61.8z" fill="" /><path d="M679.8 347.9h123.7v30.8H679.8z" fill="" /><path d="M679.8 403.5h123.7v28.6H679.8z" fill="#333E48" /><path d="M789.1 473.4H694V362.2h95.1v111.2z m-47.5-173c21.2 0 39.2 14 45.3 33.2h-90.7c6.2-19.2 24.2-33.2 45.4-33.2z m0-28.6c-42 0-76.1 34.2-76.1 76.1v139.8c0 7.9 6.4 14.3 14.3 14.3h123.7c7.9 0 14.3-6.4 14.3-14.3V347.9c-0.1-42-34.2-76.1-76.2-76.1z" fill="#D68231" /><path d="M803.4 623.7c0-34.1-27.7-61.8-61.8-61.8-34.1 0-61.8 27.7-61.8 61.8v139.8h123.7l-0.1-139.8z" fill="#FFFFFF" /><path d="M741.6 561.9c-34.1 0-61.8 27.7-61.8 61.8v26.4c0-34.1 27.7-61.8 61.8-61.8 34.1 0 61.8 27.7 61.8 61.8v-26.4c0-34.1-27.7-61.8-61.8-61.8z" fill="" /><path d="M679.8 623.7h123.7v30.8H679.8z" fill="" /><path d="M679.8 679.3h123.7v28.6H679.8z" fill="#333E48" /><path d="M789.1 749.2H694V638h95.1v111.2z m-47.5-173c21.2 0 39.2 14 45.3 33.2h-90.7c6.2-19.2 24.2-33.2 45.4-33.2z m0-28.6c-42 0-76.1 34.1-76.1 76.1v139.8c0 7.9 6.4 14.3 14.3 14.3h123.7c7.9 0 14.3-6.4 14.3-14.3V623.7c-0.1-41.9-34.2-76.1-76.2-76.1z" fill="#D68231" /><path d="M958.8 875.8c0 4.2-3.5 7.7-7.7 7.7H72.8c-4.2 0-7.7-3.5-7.7-7.7v-27.6c0-4.2 3.5-7.7 7.7-7.7h878.3c4.2 0 7.7 3.5 7.7 7.7v27.6z" fill="#A4A9AD" /><path d="M909.8 162.4c0-10.5-8.6-19.1-19.1-19.1H592.4c-10.5 0-19.1 8.6-19.1 19.1v44.5c0 10.5 8.6 19.1 19.1 19.1h298.3c10.5 0 19.1-8.6 19.1-19.1v-44.5z" fill="#D68231" /><path d="M951.1 840.6H553.9v43h397.2c4.2 0 7.7-3.5 7.7-7.7v-27.6c0-4.3-3.5-7.7-7.7-7.7z" fill="#D1D3D3" /></svg>