<?xml version="1.0" ?>
<!-- Uploaded to: SVG Repo, www.svgrepo.com, Generator: SVG Repo Mixer Tools -->
<svg width="800px" height="800px" viewBox="0 0 64 64" xmlns="http://www.w3.org/2000/svg">
<defs>
<style>.cls-1{fill:#7bd1e0;}.cls-2{fill:#6dc1d5;}.cls-3{fill:#f0f4f7;}.cls-4{fill:#e0e9ee;}.cls-5{fill:#94d8e5;}.cls-6{fill:#252b48;}</style>
</defs>
<g data-name="Sofa Chair" id="Sofa_Chair-2">
<path class="cls-1" d="M56,34.35V20.46a3.82,3.82,0,0,0-3.82-3.83H11.82A3.82,3.82,0,0,0,8,20.46V34.35l7.2,8.86h33Z" id="rect125298-2-1"/>
<path class="cls-2" d="M49.35,16.63a3.82,3.82,0,0,1,3.82,3.83V34.35l-7.83,8.86h2.83L56,34.35V20.46a3.82,3.82,0,0,0-3.82-3.83Z" id="path30777-8"/>
<path class="cls-3" d="M47.25,37.6A3.26,3.26,0,0,0,44,34.35H20a3.26,3.26,0,0,0-3.26,3.25l-3.24,1.61.83,3.42,36.73.78-.42-3.2Z" id="path81114-0-6-7"/>
<path class="cls-4" d="M42.93,34.35v6.51h-29l.44,1.77,36.72.78-.42-3.2L47.24,37.6A3.25,3.25,0,0,0,44,34.35Z" id="path22069-9"/>
<path class="cls-5" d="M12.38,30A4.37,4.37,0,0,0,8,34.35V45.74a1.63,1.63,0,0,0,1.63,1.63H54.37A1.63,1.63,0,0,0,56,45.74V34.35a4.38,4.38,0,1,0-8.75,0v6.51H16.75V34.35A4.36,4.36,0,0,0,12.38,30Z" id="rect78566-9-3-2"/>
<path class="cls-2" d="M12.38,32.8a1.54,1.54,0,0,1,1.55,1.55v2.79a1.55,1.55,0,0,1-3.1,0V34.35A1.54,1.54,0,0,1,12.38,32.8Z" id="rect79843-3-6-0"/>
<path class="cls-2" d="M51.62,32.8a1.54,1.54,0,0,1,1.55,1.55v2.79a1.55,1.55,0,1,1-3.1,0V34.35A1.54,1.54,0,0,1,51.62,32.8Z" id="path80646-9-0-2"/>
<path class="cls-1" d="M51.62,30a4.15,4.15,0,0,0-1.32.21,4.37,4.37,0,0,1,3.05,4.17V45.74a1.63,1.63,0,0,1-1.63,1.63h2.65A1.63,1.63,0,0,0,56,45.74V34.35A4.37,4.37,0,0,0,51.62,30Z" id="path28344-3"/>
<path class="cls-6" d="M14.93,34.35a2.55,2.55,0,0,0-5.1,0v2.79a2.55,2.55,0,0,0,5.1,0Zm-2,2.79a.55.55,0,0,1-1.1,0V34.35a.55.55,0,1,1,1.1,0Z"/>
<path class="cls-6" d="M51.62,31.8a2.55,2.55,0,0,0-2.55,2.55v2.79a2.55,2.55,0,1,0,5.1,0V34.35A2.55,2.55,0,0,0,51.62,31.8Zm.55,5.34a.55.55,0,0,1-1.1,0V34.35a.55.55,0,1,1,1.1,0Z"/>
<path class="cls-6" d="M52.18,15.63H11.82A4.83,4.83,0,0,0,7,20.46V45.74a2.63,2.63,0,0,0,2.63,2.63H54.37A2.63,2.63,0,0,0,57,45.74V20.46A4.83,4.83,0,0,0,52.18,15.63ZM55,20.46v9.71A5.37,5.37,0,0,0,46.26,34,4.2,4.2,0,0,0,44,33.35H33V17.63H52.18A2.83,2.83,0,0,1,55,20.46ZM17.75,37.6A2.26,2.26,0,0,1,20,35.35H44a2.26,2.26,0,0,1,2.26,2.25v2.26H17.75Zm-5.93-20H31V33.35H20a4.2,4.2,0,0,0-2.27.67A5.37,5.37,0,0,0,9,30.17V20.46A2.83,2.83,0,0,1,11.82,17.63ZM55,45.74a.63.63,0,0,1-.63.63H9.63A.63.63,0,0,1,9,45.74V34.35a3.38,3.38,0,1,1,6.75,0v5.51h-.46a1,1,0,0,0,0,2H48.71a1,1,0,0,0,0-2h-.46V34.35a3.38,3.38,0,1,1,6.75,0Z"/>
<path class="cls-6" d="M43.91,22.14a1.25,1.25,0,0,0,1.25-1.25h0a1.25,1.25,0,0,0-1.25-1.25h0a1.25,1.25,0,0,0,0,2.5Z"/>
<path class="cls-6" d="M50.48,22.14a1.24,1.24,0,0,0,1.25-1.25h0a1.24,1.24,0,0,0-1.25-1.25h0a1.25,1.25,0,0,0,0,2.5Z"/>
<path class="cls-6" d="M13.52,22.14a1.25,1.25,0,0,0,1.25-1.25h0a1.25,1.25,0,0,0-1.25-1.25h0a1.25,1.25,0,1,0,0,2.5Z"/>
<path class="cls-6" d="M20.09,22.14a1.25,1.25,0,0,0,1.25-1.25h0a1.25,1.25,0,0,0-1.25-1.25h0a1.25,1.25,0,0,0,0,2.5Z"/>
<path class="cls-6" d="M26.67,22.14a1.25,1.25,0,0,0,1.25-1.25h0a1.25,1.25,0,0,0-1.25-1.25h0a1.25,1.25,0,0,0,0,2.5Z"/>
<path class="cls-6" d="M37.33,22.14a1.25,1.25,0,0,0,1.25-1.25h0a1.25,1.25,0,0,0-1.25-1.25h0a1.25,1.25,0,0,0,0,2.5Z"/>
<path class="cls-6" d="M43.91,27.45a1.25,1.25,0,0,0,1.25-1.25h0A1.25,1.25,0,0,0,43.91,25h0a1.25,1.25,0,0,0,0,2.5Z"/>
<path class="cls-6" d="M50.48,27.45a1.24,1.24,0,0,0,1.25-1.25h0A1.24,1.24,0,0,0,50.48,25h0a1.25,1.25,0,0,0,0,2.5Z"/>
<path class="cls-6" d="M13.52,27.45a1.25,1.25,0,0,0,1.25-1.25h0A1.25,1.25,0,0,0,13.52,25h0a1.25,1.25,0,0,0,0,2.5Z"/>
<path class="cls-6" d="M20.09,27.45a1.25,1.25,0,0,0,1.25-1.25h0A1.25,1.25,0,0,0,20.09,25h0a1.25,1.25,0,0,0,0,2.5Z"/>
<path class="cls-6" d="M26.67,27.17a1.25,1.25,0,1,0-1.25-1.25A1.25,1.25,0,0,0,26.67,27.17Z"/>
<path class="cls-6" d="M37.33,27.31a1.25,1.25,0,0,0,1.25-1.25h0a1.25,1.25,0,0,0-1.25-1.25h0a1.25,1.25,0,0,0,0,2.5Z"/>
<path class="cls-6" d="M26.67,32.47a1.25,1.25,0,1,0-1.25-1.25A1.25,1.25,0,0,0,26.67,32.47Z"/>
<path class="cls-6" d="M37.33,30a1.25,1.25,0,1,0,1.25,1.25A1.25,1.25,0,0,0,37.33,30Z"/>
<path class="cls-6" d="M43.91,32.47a1.25,1.25,0,1,0-1.25-1.25A1.25,1.25,0,0,0,43.91,32.47Z"/>
<path class="cls-6" d="M20.09,32.47a1.25,1.25,0,1,0-1.25-1.25A1.25,1.25,0,0,0,20.09,32.47Z"/>
</g>
</svg>