<?xml version="1.0" encoding="utf-8"?><!-- Uploaded to: SVG Repo, www.svgrepo.com, Generator: SVG Repo Mixer Tools -->
<svg width="800px" height="800px" viewBox="-12.66 0 156.313 156.313" xmlns="http://www.w3.org/2000/svg">
  <path id="movie_film" data-name="movie film" d="M354.338,697.239a9.554,9.554,0,0,0-1.9-1.466,21.028,21.028,0,0,1-3.2-35.409c.1-.091.2-.176.3-.271a9.571,9.571,0,0,0,0-13.533c-.1-.1-.2-.191-.3-.285l.005-.008L320.3,617.322a3.842,3.842,0,0,0-5.416,0L227.256,704.95a3.846,3.846,0,0,0,0,5.418L288.292,771.4a3.842,3.842,0,0,0,5.416,0l60.7-60.7,0,0A9.565,9.565,0,0,0,354.338,697.239Zm-48.4-62.469,8.939-8.944a3.245,3.245,0,0,1,4.585,0l8.71,8.711a3.244,3.244,0,0,1,0,4.586l-8.939,8.94a3.245,3.245,0,0,1-4.586,0l-8.709-8.711A3.238,3.238,0,0,1,305.935,634.77Zm-23.641,23.636,8.941-8.939a3.244,3.244,0,0,1,4.586,0l8.709,8.712a3.239,3.239,0,0,1,0,4.584l-8.938,8.939a3.245,3.245,0,0,1-4.587,0l-8.709-8.71A3.242,3.242,0,0,1,282.294,658.406Zm-25.041,51.635-8.941,8.939a3.242,3.242,0,0,1-4.583,0l-8.71-8.71a3.239,3.239,0,0,1,0-4.584l8.94-8.941a3.239,3.239,0,0,1,4.584,0l8.712,8.709A3.247,3.247,0,0,1,257.253,710.041Zm10.115-14.7-8.711-8.71a3.241,3.241,0,0,1,0-4.584l8.94-8.94a3.24,3.24,0,0,1,4.583,0l8.712,8.709a3.242,3.242,0,0,1,0,4.586l-8.94,8.939A3.24,3.24,0,0,1,267.368,695.34ZM301.913,754.7l-8.939,8.939a3.242,3.242,0,0,1-4.585,0l-8.71-8.71a3.245,3.245,0,0,1,0-4.586l8.939-8.94a3.247,3.247,0,0,1,4.586,0l8.709,8.71A3.243,3.243,0,0,1,301.913,754.7Zm23.64-23.64-8.94,8.94a3.239,3.239,0,0,1-4.585,0l-8.71-8.711a3.238,3.238,0,0,1,0-4.583l8.939-8.94a3.239,3.239,0,0,1,4.585,0l8.711,8.71A3.241,3.241,0,0,1,325.553,731.062Zm23.639-23.638-8.94,8.938a3.24,3.24,0,0,1-4.585,0l-8.71-8.711a3.24,3.24,0,0,1,0-4.584l8.94-8.939a3.242,3.242,0,0,1,4.585,0l8.711,8.709A3.245,3.245,0,0,1,349.192,707.424Z" transform="translate(-226.14 -616.205)" fill="#483b44"/>
</svg>