<?xml version="1.0" encoding="utf-8"?>
<!-- Uploaded to: SVG Repo, www.svgrepo.com, Generator: SVG Repo Mixer Tools -->
<svg version="1.1" id="Uploaded to svgrepo.com" xmlns="http://www.w3.org/2000/svg" xmlns:xlink="http://www.w3.org/1999/xlink" 
	 width="800px" height="800px" viewBox="0 0 32 32" xml:space="preserve">
<style type="text/css">
	.cubies_tweeentwintig{fill:#D97360;}
	.cubies_drieentwintig{fill:#E69D8A;}
	.cubies_zevenentwintig{fill:#98D3BC;}
	.cubies_achtentwintig{fill:#CCE2CD;}
	.cubies_veertien{fill:#BCD269;}
	.cubies_een{fill:#4C4842;}
	.cubies_twee{fill:#67625D;}
	.cubies_vijftien{fill:#D1DE8B;}
	.st0{fill:#C9483A;}
	.st1{fill:#F9E0BD;}
	.st2{fill:#F2C99E;}
	.st3{fill:#65C3AB;}
	.st4{fill:#EDEAE5;}
	.st5{fill:#C9C6C0;}
	.st6{fill:#EDB57E;}
	.st7{fill:#2EB39A;}
	.st8{fill:#FFF2DF;}
	.st9{fill:#EC9B5A;}
	.st10{fill:#837F79;}
	.st11{fill:#A5A29C;}
	.st12{fill:#8E7866;}
	.st13{fill:#725A48;}
	.st14{fill:#F2C7B5;}
	.st15{fill:#A4C83F;}
	.st16{fill:#E3D4C0;}
</style>
<g>
	<path class="cubies_een" d="M29,32H3c-1.657,0-3-1.343-3-3V3c0-1.657,1.343-3,3-3h26c1.657,0,3,1.343,3,3v26
		C32,30.657,30.657,32,29,32z"/>
	<path class="cubies_twee" d="M27,32H3c-1.657,0-3-1.343-3-3V3c0-1.657,1.343-3,3-3h24c1.657,0,3,1.343,3,3v26
		C30,30.657,28.657,32,27,32z"/>
	<path class="cubies_veertien" d="M9,8H5C4.448,8,4,7.552,4,7V5c0-0.552,0.448-1,1-1h4c0.552,0,1,0.448,1,1v2C10,7.552,9.552,8,9,8z
		"/>
	<path class="cubies_vijftien" d="M8,8H5C4.448,8,4,7.552,4,7V5c0-0.552,0.448-1,1-1h3c0.552,0,1,0.448,1,1v2C9,7.552,8.552,8,8,8z"
		/>
	<path class="cubies_tweeentwintig" d="M25,8h-4c-0.552,0-1-0.448-1-1V5c0-0.552,0.448-1,1-1h4c0.552,0,1,0.448,1,1v2
		C26,7.552,25.552,8,25,8z"/>
	<path class="cubies_drieentwintig" d="M24,8h-3c-0.552,0-1-0.448-1-1V5c0-0.552,0.448-1,1-1h3c0.552,0,1,0.448,1,1v2
		C25,7.552,24.552,8,24,8z"/>
	<path class="cubies_zevenentwintig" d="M9,16H5c-0.552,0-1-0.448-1-1v-2c0-0.552,0.448-1,1-1h4c0.552,0,1,0.448,1,1v2
		C10,15.552,9.552,16,9,16z M18,15v-2c0-0.552-0.448-1-1-1h-4c-0.552,0-1,0.448-1,1v2c0,0.552,0.448,1,1,1h4
		C17.552,16,18,15.552,18,15z M26,15v-2c0-0.552-0.448-1-1-1h-4c-0.552,0-1,0.448-1,1v2c0,0.552,0.448,1,1,1h4
		C25.552,16,26,15.552,26,15z M10,21v-2c0-0.552-0.448-1-1-1H5c-0.552,0-1,0.448-1,1v2c0,0.552,0.448,1,1,1h4
		C9.552,22,10,21.552,10,21z M18,21v-2c0-0.552-0.448-1-1-1h-4c-0.552,0-1,0.448-1,1v2c0,0.552,0.448,1,1,1h4
		C17.552,22,18,21.552,18,21z M26,21v-2c0-0.552-0.448-1-1-1h-4c-0.552,0-1,0.448-1,1v2c0,0.552,0.448,1,1,1h4
		C25.552,22,26,21.552,26,21z M10,27v-2c0-0.552-0.448-1-1-1H5c-0.552,0-1,0.448-1,1v2c0,0.552,0.448,1,1,1h4
		C9.552,28,10,27.552,10,27z M18,27v-2c0-0.552-0.448-1-1-1h-4c-0.552,0-1,0.448-1,1v2c0,0.552,0.448,1,1,1h4
		C17.552,28,18,27.552,18,27z M26,27v-2c0-0.552-0.448-1-1-1h-4c-0.552,0-1,0.448-1,1v2c0,0.552,0.448,1,1,1h4
		C25.552,28,26,27.552,26,27z"/>
	<path class="cubies_achtentwintig" d="M8,16H5c-0.552,0-1-0.448-1-1v-2c0-0.552,0.448-1,1-1h3c0.552,0,1,0.448,1,1v2
		C9,15.552,8.552,16,8,16z M17,15v-2c0-0.552-0.448-1-1-1h-3c-0.552,0-1,0.448-1,1v2c0,0.552,0.448,1,1,1h3
		C16.552,16,17,15.552,17,15z M25,15v-2c0-0.552-0.448-1-1-1h-3c-0.552,0-1,0.448-1,1v2c0,0.552,0.448,1,1,1h3
		C24.552,16,25,15.552,25,15z M9,21v-2c0-0.552-0.448-1-1-1H5c-0.552,0-1,0.448-1,1v2c0,0.552,0.448,1,1,1h3C8.552,22,9,21.552,9,21
		z M17,21v-2c0-0.552-0.448-1-1-1h-3c-0.552,0-1,0.448-1,1v2c0,0.552,0.448,1,1,1h3C16.552,22,17,21.552,17,21z M25,21v-2
		c0-0.552-0.448-1-1-1h-3c-0.552,0-1,0.448-1,1v2c0,0.552,0.448,1,1,1h3C24.552,22,25,21.552,25,21z M9,27v-2c0-0.552-0.448-1-1-1H5
		c-0.552,0-1,0.448-1,1v2c0,0.552,0.448,1,1,1h3C8.552,28,9,27.552,9,27z M17,27v-2c0-0.552-0.448-1-1-1h-3c-0.552,0-1,0.448-1,1v2
		c0,0.552,0.448,1,1,1h3C16.552,28,17,27.552,17,27z M25,27v-2c0-0.552-0.448-1-1-1h-3c-0.552,0-1,0.448-1,1v2c0,0.552,0.448,1,1,1
		h3C24.552,28,25,27.552,25,27z"/>
</g>
</svg>