<?xml version="1.0" encoding="iso-8859-1"?>
<!-- Uploaded to: SVG Repo, www.svgrepo.com, Generator: SVG Repo Mixer Tools -->
<svg xmlns="http://www.w3.org/2000/svg" xmlns:xlink="http://www.w3.org/1999/xlink" version="1.1" id="Capa_1"  viewBox="0 0 460 460" xml:space="preserve" width="512" height="512">
<g id="XMLID_1326_">
	<path id="XMLID_1324_" style="fill:#CBB57A;" d="M285,295h50l-90,120h-10L285,295z"/>
	<path id="XMLID_1325_" style="fill:#9E8E60;" d="M385,415h-10l-90-120h50L385,415z"/>
	<path id="XMLID_1298_" style="fill:#4D4337;" d="M410,285L410,285c0,11.046-8.954,20-20,20H230c-11.046,0-20-8.954-20-20v0   c0-11.046,8.954-20,20-20h0.87l13.933-160.226C247.743,70.956,276.054,45,310,45h0c33.946,0,62.257,25.956,65.198,59.774   L389.13,265H390C401.046,265,410,273.954,410,285z"/>
	<path id="XMLID_1295_" style="fill:#635547;" d="M370,270c0,2.761-2.239,5-5,5H255c-2.761,0-5-2.239-5-5s2.239-5,5-5h10   l8.326-95.752c1.654-19.023,17.579-33.623,36.674-33.623h0c19.095,0,35.02,14.6,36.674,33.623L355,265h10   C367.761,265,370,267.239,370,270z"/>
	<path id="XMLID_1136_" style="fill:#9E8E60;" d="M120,415H0V225h120V415z M460,225h-20v190h20V225z"/>
	<path id="XMLID_338_" style="fill:#766A54;" d="M100,315H20v-60h80V315z M100,335H20v60h80V335z"/>
	<path id="XMLID_337_" style="fill:#D6CFBA;" d="M100,255v60H20v-60h20v10c0,5.523,4.477,10,10,10h20c5.523,0,10-4.477,10-10v-10   H100z M80,335v10c0,5.523-4.477,10-10,10H50c-5.523,0-10-4.477-10-10v-10H20v60h80v-60H80z"/>
	<path id="XMLID_307_" style="fill:#833428;" d="M60,137v66c0,1.105-0.895,2-2,2H42c-1.105,0-2-0.895-2-2v-66c0-1.105,0.895-2,2-2   h16C59.105,135,60,135.895,60,137z"/>
	<path id="XMLID_334_" style="fill:#374145;" d="M79.308,135.522l18.132,63.461c0.303,1.062-0.312,2.169-1.374,2.472l-15.384,4.396   c-1.062,0.303-2.169-0.312-2.472-1.374l-18.132-63.461c-0.303-1.062,0.312-2.169,1.374-2.472l15.384-4.396   C77.898,133.845,79.004,134.46,79.308,135.522z"/>
	<path id="XMLID_308_" style="fill:#64757C;" d="M89.747,172.06l-19.23,5.494l-8.242-28.846l19.23-5.494L89.747,172.06z"/>
	<path id="XMLID_245_" style="fill:#AC8428;" d="M60,155H40v-10h20V155z"/>
	<path id="XMLID_1276_" style="fill:#374145;" d="M128.243,207.095c-1.617,0.359-3.22-0.661-3.579-2.278l-15.185-68.333   c-0.359-1.617,0.66-3.22,2.278-3.579c1.617-0.359,3.22,0.661,3.579,2.278l15.185,68.333   C130.881,205.133,129.861,206.736,128.243,207.095z"/>
	<path id="XMLID_1297_" style="fill:#DDA333;" d="M141.114,128.651l-15.185,68.333c-0.359,1.617-1.962,2.637-3.579,2.278   c-1.617-0.359-2.637-1.962-2.278-3.579l15.185-68.333c0.359-1.617,1.962-2.637,3.579-2.278S141.474,127.034,141.114,128.651z"/>
	<path id="XMLID_1817_" style="fill:#E0CFA6;" d="M130,187v36c0,1.105-0.895,2-2,2H32c-1.105,0-2-0.895-2-2v-36c0-1.105,0.895-2,2-2   h96C129.105,185,130,185.895,130,187z"/>
	<path id="XMLID_1816_" style="fill:#D66A40;" d="M140,167v56c0,1.105-0.895,2-2,2h-26c-1.105,0-2-0.895-2-2v-56   c0-1.105,0.895-2,2-2h26C139.105,165,140,165.895,140,167z"/>
	<path id="XMLID_1808_" style="fill:#CBB175;" d="M250,210v10h-40h-40v-10c0-5.523,4.477-10,10-10h20c5.523,0,10,4.477,10,10   c0-5.523,4.477-10,10-10h20C245.523,200,250,204.477,250,210z"/>
	<path id="XMLID_1813_" style="fill:#E9CC85;" d="M250,210v10h-40v-10c0-5.523,4.477-10,10-10h20C245.523,200,250,204.477,250,210z"/>
	<path id="XMLID_1807_" style="fill:#833428;" d="M254.833,211v6c0,1.105-0.895,2-2,2h-85.667c-1.105,0-2-0.895-2-2v-6   c0-1.105,0.895-2,2-2h85.667C253.938,209,254.833,209.895,254.833,211z"/>
	<path id="XMLID_1805_" style="fill:#3F0900;" d="M216,215v2c0,1.105-0.895,2-2,2h-8c-1.105,0-2-0.895-2-2v-2c0-3.314,2.686-6,6-6   l0,0C213.314,209,216,211.686,216,215z"/>
	<path id="XMLID_1747_" style="fill:#CBB57A;" d="M460,235H0v-20h460V235z"/>
</g>















</svg>