<?xml version="1.0" encoding="utf-8"?>
<!-- Uploaded to: SVG Repo, www.svgrepo.com, Generator: SVG Repo Mixer Tools -->
<svg width="800px" height="800px" viewBox="0 0 1024 1024" class="icon"  version="1.1" xmlns="http://www.w3.org/2000/svg"><path d="M784.1792 333.921948c0-26.935652-16.392904-58.270052-36.59687-69.934748L297.939478 4.389843C277.735513-7.274852 261.333704 5.12 261.333704 32.055652v639.857531c0 26.935652 16.401809 58.270052 36.605774 69.934747l449.642852 259.597357c20.203965 11.664696 36.59687-0.730157 36.59687-27.665809V333.921948z" fill="#6D8ACA" /><path d="M249.214887 13.018157L277.958122 0.765774l9.696835 5.084383-26.321253 13.552417-12.118817-6.384417zM740.725983 1016.315548l26.989078-11.290713 1.798678-11.522226-33.017322 7.381704 4.229566 15.431235z" fill="#6D8ACA" /><path d="M758.810713 344.803061c0-26.935652-16.401809-58.270052-36.59687-69.925844L272.562087 15.270957C252.367026 3.606261 235.965217 16.010017 235.965217 42.936765v639.866435c0 26.926748 16.401809 58.261148 36.59687 69.925843l449.651756 259.606261c20.195061 11.664696 36.59687-0.739061 36.59687-27.665808v-639.866435z" fill="#4762AF" /><path d="M735.748452 357.064348c0-24.442435-14.88807-52.874017-33.213217-63.452383L294.546922 58.056348c-18.334052-10.578365-33.213217 0.667826-33.213218 25.101356v593.278887c0 24.442435 14.879165 52.874017 33.213218 63.452383l407.988313 235.555617c18.325148 10.578365 33.213217-0.667826 33.213217-25.110261V357.064348z" fill="#FFFFFF" /><path d="M451.370296 748.998122c11.646887 6.731687 21.103304 23.106783 21.103304 36.552348 0 13.445565-9.456417 18.90393-21.103304 12.181147-11.646887-6.722783-21.0944-23.097878-21.0944-36.543443 0-13.45447 9.447513-18.912835 21.0944-12.190052z" fill="#4762AF" /><path d="M451.370296 755.738713c8.423513 4.861774 15.270957 16.713461 15.270956 26.437009 0 9.732452-6.847443 13.685983-15.270956 8.815304-8.423513-4.861774-15.262052-16.713461-15.262053-26.437009 0-9.732452 6.838539-13.677078 15.262053-8.815304z" fill="#6D8ACA" /><path d="M645.805635 595.460452L314.670748 404.284104v-1.549356L645.805635 593.92v1.540452zM374.525774 340.680348l-26.997983-15.591513v-1.549357l26.997983 15.591513v1.549357zM510.878052 623.580383l-70.771756-40.862053v-1.540452l70.771756 40.853148v1.549357z"  /><path d="M348.827826 324.287443l-1.300035-0.747965v98.161531l1.300035 0.747965V324.287443zM542.45287 436.08153l-1.291131-0.747965v98.161531l1.291131 0.747965V436.08153zM429.768348 469.187896l-1.300035-0.747966v98.161531l1.300035 0.747965V469.187896z"  /><path d="M304.88487 381.497878c7.452939 4.3008 13.498991 14.772313 13.498991 23.382818 0 8.6016-6.046052 12.092104-13.498991 7.791304-7.452939-4.3008-13.498991-14.781217-13.498992-23.382817s6.046052-12.092104 13.498992-7.791305zM395.148243 433.606122c7.452939 4.3008 13.498991 14.781217 13.498992 23.382817s-6.046052 12.092104-13.498992 7.791304c-7.452939-4.3008-13.498991-14.772313-13.498991-23.373913s6.046052-12.101009 13.498991-7.800208z" fill="#7058FF" /><path d="M388.024765 331.339687c7.452939 4.3008 13.498991 14.772313 13.498992 23.373913s-6.046052 12.101009-13.498992 7.791304c-7.452939-4.3008-13.498991-14.772313-13.498991-23.373913s6.046052-12.092104 13.498991-7.791304z" fill="#E7E7E7" /><path d="M428.468313 558.872487c7.452939 4.3008 13.498991 14.781217 13.498991 23.382817s-6.046052 12.092104-13.498991 7.791305c-7.444035-4.3008-13.498991-14.781217-13.498991-23.382818s6.054957-12.092104 13.498991-7.791304z"  /><path d="M522.248904 613.010922c7.444035 4.3008 13.498991 14.781217 13.498992 23.382817s-6.054957 12.092104-13.498992 7.791304c-7.452939-4.3008-13.498991-14.772313-13.498991-23.373913 0-8.610504 6.046052-12.101009 13.498991-7.800208zM541.161739 422.137322c7.452939 4.3008 13.498991 14.772313 13.498991 23.382817 0 8.6016-6.046052 12.092104-13.498991 7.791304-7.452939-4.3008-13.498991-14.781217-13.498991-23.382817s6.046052-12.092104 13.498991-7.791304z" fill="#E7E7E7" /><path d="M485.046539 485.509565c7.444035 4.3008 13.490087 14.781217 13.490087 23.382818s-6.046052 12.092104-13.490087 7.791304c-7.452939-4.3008-13.498991-14.781217-13.498991-23.382817s6.046052-12.092104 13.498991-7.791305zM575.301009 537.626713c7.452939 4.3008 13.498991 14.772313 13.498991 23.373913s-6.046052 12.101009-13.498991 7.800209c-7.444035-4.3008-13.490087-14.781217-13.490087-23.382818s6.046052-12.092104 13.490087-7.791304zM657.461426 585.05127c7.444035 4.3008 13.498991 14.781217 13.498991 23.382817s-6.054957 12.092104-13.498991 7.791304c-7.452939-4.3008-13.498991-14.772313-13.498991-23.373913s6.046052-12.101009 13.498991-7.800208z" fill="#7058FF" /></svg>