<?xml version="1.0" encoding="utf-8"?>
<!-- Uploaded to: SVG Repo, www.svgrepo.com, Generator: SVG Repo Mixer Tools -->
<svg width="800px" height="800px" viewBox="0 0 1024 1024" class="icon"  version="1.1" xmlns="http://www.w3.org/2000/svg"><path d="M725.719319 260.364622c0-28.813231-17.549235-62.336861-39.159159-74.815533L373.308075 4.689565C351.69109-7.782044 334.148917 5.480517 334.148917 34.293748v705.020226c0 28.813231 17.542173 62.336861 39.159158 74.815533l313.252085 180.852462c21.609924 12.478672 39.159159-0.783889 39.159159-29.597121V260.364622z" fill="#6D8ACA" /><path d="M349.021629 1.935359L305.229754 27.231682l58.459787 19.335938 31.998223-28.954473L349.021629 1.935359zM668.68607 1021.930815l43.777751-25.063275-27.817481-15.932022-15.96027 40.995297z" fill="#6D8ACA" /><path d="M684.64634 284.079041c0-28.813231-17.549235-62.336861-39.159158-74.815532L332.235096 28.403985C310.618111 15.932375 293.075938 29.194936 293.075938 58.008168v705.013163c0 28.820294 17.542173 62.343923 39.159158 74.815533l313.252086 180.859524c21.609924 12.478672 39.159159-0.783889 39.159158-29.604183V284.079041z" fill="#4762AF" /><path d="M668.68607 288.521081c0-26.398005-16.073263-57.117994-35.875298-68.55148L345.773078 54.251148c-19.802035-11.433486-35.875298 0.720331-35.875298 27.125398v675.161808c0 26.398005 16.073263 57.117994 35.875298 68.55148L632.810772 990.808287c19.802035 11.433486 35.875298-0.720331 35.875298-27.125397V288.521081z" fill="#FFFFFF" /><path d="M710.140401 358.393167c0-4.427916-2.697709-9.583224-6.016881-11.497044-3.319171-1.920882-6.016881 0.120055-6.016881 4.547971v151.036417c0 4.427916 2.697709 9.583224 6.016881 11.497044 3.319171 1.920882 6.016881-0.120055 6.016881-4.547971V358.393167zM710.140401 546.809102c0-4.427916-2.697709-9.576162-6.016881-11.497044-3.319171-1.91382-6.016881 0.127117-6.016881 4.555033v49.046052c0 4.427916 2.697709 9.576162 6.016881 11.497044 3.319171 1.91382 6.016881-0.120055 6.016881-4.54797v-49.053115z" fill="#4762AF" /><path d="M710.140401 433.907845l-12.033762-6.942012v11.560603l12.033762 6.949074v-11.567665z" fill="#6D8ACA" /><path d="M544.527878 210.322819c0-10.056383-6.122812-21.758227-13.665098-26.10846l-84.497626-48.784756c-7.542287-4.357295-13.672161 0.275421-13.672161 10.331803 0 10.056383 6.129874 21.758227 13.672161 26.10846l84.497626 48.784756c7.542287 4.357295 13.665099-0.268359 13.665098-10.331803z"  /><path d="M366.96634 367.55973c0-1.186427-0.720331-2.570592-1.610152-3.079061l-39.674689-22.909344c-0.88982-0.515531-1.610151 0.03531-1.610151 1.221737v17.196132c0 1.186427 0.720331 2.56353 1.610151 3.079061l39.674689 22.902282c0.88982 0.515531 1.610151-0.028248 1.610152-1.214675v-17.196132zM591.307007 497.07803c0-1.186427-0.720331-2.56353-1.610151-3.079061l-65.726653-37.944484c-0.88982-0.515531-1.610151 0.028248-1.610151 1.214676v17.196132c0 1.186427 0.720331 2.570592 1.610151 3.086123l65.726653 37.944483c0.88982 0.515531 1.610151-0.03531 1.610151-1.221737v-17.196132z" fill="#F2F2F2" /><path d="M510.298042 450.305963c0-1.186427-0.720331-2.56353-1.610151-3.079061l-23.142392-13.354367c-0.88982-0.515531-1.610151 0.028248-1.610151 1.214675v17.196132c0 1.186427 0.720331 2.570592 1.610151 3.079061l23.142392 13.36143c0.88982 0.515531 1.610151-0.03531 1.610151-1.221738v-17.196132z" fill="#7058FF" /><path d="M470.390304 427.269502c0-1.186427-0.720331-2.56353-1.610151-3.079061L378.569315 372.100639c-0.88982-0.508469-1.617213 0.03531-1.617213 1.221737v17.196132c0 1.186427 0.727393 2.570592 1.617213 3.079061L468.780153 445.687372c0.88982 0.508469 1.610151-0.03531 1.610151-1.221738v-17.196132z" fill="#F2F2F2" /><path d="M354.982013 444.988227c5.141184 2.966068 9.307804 10.190562 9.307803 16.122698 0 5.932136-4.166619 8.340301-9.307803 5.374233-5.134122-2.966068-9.307804-10.190562-9.307804-16.122698 0-5.932136 4.173681-8.340301 9.307804-5.374233z" fill="#7058FF" /><path d="M416.00533 482.367745c0-1.186427-0.727393-2.570592-1.617214-3.086123l-39.674689-22.902281c-0.88982-0.515531-1.610151 0.028248-1.610152 1.214675v17.203194c0 1.186427 0.720331 2.56353 1.610152 3.079061l39.674689 22.902282c0.88982 0.515531 1.617213-0.028248 1.617214-1.214676v-17.196132zM595.530123 586.017696c0-1.186427-0.720331-2.570592-1.610151-3.079061l-22.45031-12.965954c-0.88982-0.508469-1.610151 0.03531-1.610151 1.221737v17.196132c0 1.186427 0.720331 2.570592 1.610151 3.079061l22.45031 12.958892c0.88982 0.515531 1.610151-0.028248 1.610151-1.214675v-17.196132zM654.512503 620.070981c0-1.186427-0.720331-2.570592-1.610152-3.079061l-42.690192-24.646613c-0.88982-0.515531-1.610151 0.028248-1.610151 1.214676v17.196132c0 1.186427 0.720331 2.570592 1.610151 3.086123l42.690192 24.646612c0.88982 0.508469 1.610151-0.03531 1.610152-1.221737v-17.196132z" fill="#F2F2F2" /><path d="M556.208536 563.313152c0-1.186427-0.720331-2.56353-1.610151-3.079061l-23.13533-13.36143c-0.88982-0.508469-1.617213 0.03531-1.617213 1.221738v17.196132c0 1.186427 0.727393 2.56353 1.617213 3.079061l23.13533 13.361429c0.88982 0.508469 1.610151-0.03531 1.610151-1.221737v-17.196132z" fill="#7058FF" /><path d="M517.112936 540.742787c0-1.186427-0.720331-2.570592-1.610151-3.079061l-90.2179-52.089802c-0.88982-0.515531-1.610151 0.03531-1.610151 1.221737v17.196132c0 1.186427 0.720331 2.56353 1.610151 3.079061l90.2179 52.082741c0.88982 0.515531 1.610151-0.028248 1.610151-1.214676V540.742787z" fill="#F2F2F2" /><path d="M354.982013 482.840904c5.141184 2.966068 9.307804 10.190562 9.307803 16.115636 0 5.932136-4.166619 8.340301-9.307803 5.374232-5.134122-2.966068-9.307804-10.1835-9.307804-16.115636 0-5.932136 4.173681-8.340301 9.307804-5.374232z" fill="#7058FF" /><path d="M416.00533 520.220422c0-1.186427-0.727393-2.570592-1.617214-3.086123l-39.674689-22.902282c-0.88982-0.515531-1.610151 0.028248-1.610152 1.214676v17.196132c0 1.186427 0.720331 2.570592 1.610152 3.086123l39.674689 22.902281c0.88982 0.515531 1.617213-0.028248 1.617214-1.214675v-17.196132zM595.530123 623.870372c0-1.186427-0.720331-2.570592-1.610151-3.079061l-22.45031-12.965954c-0.88982-0.508469-1.610151 0.03531-1.610151 1.221738v17.196132c0 1.186427 0.720331 2.56353 1.610151 3.079061l22.45031 12.958892c0.88982 0.515531 1.610151-0.028248 1.610151-1.214676v-17.196132zM654.512503 657.923657c0-1.186427-0.720331-2.570592-1.610152-3.079061l-42.690192-24.646612c-0.88982-0.515531-1.610151 0.028248-1.610151 1.214676v17.196132c0 1.186427 0.720331 2.570592 1.610151 3.079061l42.690192 24.646612c0.88982 0.515531 1.610151-0.028248 1.610152-1.214676v-17.196132z" fill="#F2F2F2" /><path d="M556.208536 601.165829c0-1.186427-0.720331-2.570592-1.610151-3.079061l-23.13533-13.36143c-0.88982-0.515531-1.617213 0.03531-1.617213 1.221737v17.196132c0 1.186427 0.727393 2.56353 1.617213 3.079061l23.13533 13.36143c0.88982 0.508469 1.610151-0.03531 1.610151-1.221737v-17.196132z" fill="#7058FF" /><path d="M517.112936 578.595464c0-1.186427-0.720331-2.570592-1.610151-3.086123l-90.2179-52.082741c-0.88982-0.515531-1.610151 0.03531-1.610151 1.221738v17.196132c0 1.186427 0.720331 2.56353 1.610151 3.079061l90.2179 52.08274c0.88982 0.515531 1.610151-0.028248 1.610151-1.214675V578.595464z" fill="#F2F2F2" /><path d="M366.96634 407.898254c0-1.186427-0.720331-2.56353-1.610152-3.079061L325.681499 381.916911c-0.88982-0.515531-1.610151 0.028248-1.610151 1.214676v17.196132c0 1.186427 0.720331 2.570592 1.610151 3.086123l39.674689 22.902281c0.88982 0.515531 1.610151-0.03531 1.610152-1.221737v-17.196132zM591.307007 537.423616c0-1.186427-0.720331-2.56353-1.610151-3.079061l-65.726653-37.951545c-0.88982-0.508469-1.610151 0.03531-1.610151 1.221737v17.196132c0 1.186427 0.720331 2.570592 1.610151 3.079061l65.726653 37.951546c0.88982 0.515531 1.610151-0.03531 1.610151-1.221738V537.423616z" fill="#F2F2F2" /><path d="M510.298042 490.651549c0-1.186427-0.720331-2.56353-1.610151-3.079061l-23.142392-13.361429c-0.88982-0.508469-1.610151 0.03531-1.610151 1.221737v17.196132c0 1.186427 0.720331 2.56353 1.610151 3.079061l23.142392 13.36143c0.88982 0.508469 1.610151-0.03531 1.610151-1.221738v-17.196132z" fill="#7058FF" /><path d="M470.390304 467.615088c0-1.186427-0.720331-2.570592-1.610151-3.079061l-90.210838-52.089802c-0.88982-0.515531-1.617213 0.03531-1.617213 1.221737v17.196132c0 1.186427 0.727393 2.56353 1.617213 3.079061l90.210838 52.082741c0.88982 0.515531 1.610151-0.028248 1.610151-1.214676v-17.196132z" fill="#F2F2F2" /><path d="M364.727665 619.611946c0-1.186427-0.720331-2.56353-1.610152-3.079061l-37.436014-21.609923c-0.88982-0.515531-1.610151 0.028248-1.610151 1.214675v17.196132c0 1.186427 0.720331 2.570592 1.610151 3.079061l37.436014 21.616986c0.88982 0.515531 1.610151-0.03531 1.610152-1.221738v-17.196132z" fill="#7058FF" /><path d="M418.625356 650.734474c0-1.186427-0.720331-2.570592-1.610151-3.086124l-37.436015-21.609923c-0.88982-0.515531-1.610151 0.028248-1.610151 1.214675v17.203194c0 1.179365 0.720331 2.56353 1.610151 3.079061l37.436015 21.609924c0.88982 0.515531 1.610151-0.028248 1.610151-1.214675v-17.196132zM536.011026 718.502064c0-1.186427-0.720331-2.56353-1.610151-3.079061L444.182975 663.340262c-0.88982-0.515531-1.610151 0.028248-1.610151 1.214676v17.196132c0 1.186427 0.720331 2.570592 1.610151 3.079061l90.2179 52.089802c0.88982 0.515531 1.610151-0.03531 1.610151-1.221737v-17.196132z" fill="#F2F2F2" /><path d="M473.864841 604.527372c0-1.186427-0.720331-2.570592-1.610151-3.086123l-42.548951-24.561867c-0.88982-0.515531-1.610151 0.028248-1.610151 1.214675v17.196132c0 1.186427 0.720331 2.570592 1.610151 3.086123l42.548951 24.561868c0.88982 0.515531 1.610151-0.028248 1.610151-1.214676v-17.196132zM531.222945 637.641402c0-1.186427-0.720331-2.570592-1.610151-3.079061l-42.548951-24.568929c-0.88982-0.515531-1.610151 0.03531-1.610151 1.221737v17.196132c0 1.186427 0.720331 2.56353 1.610151 3.079061l42.548951 24.56893c0.88982 0.508469 1.610151-0.03531 1.610151-1.221738v-17.196132z" fill="#7058FF" /><path d="M417.50955 571.98537c0-1.186427-0.720331-2.56353-1.610151-3.079061L325.681499 516.823568c-0.88982-0.515531-1.610151 0.028248-1.610151 1.214675v17.196132c0 1.186427 0.720331 2.570592 1.610151 3.079061l90.2179 52.089803c0.88982 0.508469 1.610151-0.03531 1.610151-1.221737v-17.196132zM619.858942 688.813136c0-1.186427-0.720331-2.56353-1.610151-3.079061l-72.047203-41.595572c-0.88982-0.515531-1.610151 0.028248-1.610151 1.214676v17.203194c0 1.186427 0.720331 2.56353 1.610151 3.079061l72.047203 41.595572c0.88982 0.508469 1.610151-0.03531 1.610151-1.221738v-17.196132z" fill="#F2F2F2" /><path d="M473.864841 645.4238c0-1.186427-0.720331-2.56353-1.610151-3.079061l-42.548951-24.561868c-0.88982-0.515531-1.610151 0.028248-1.610151 1.214676v17.196132c0 1.186427 0.720331 2.570592 1.610151 3.086123l42.548951 24.561867c0.88982 0.515531 1.610151-0.028248 1.610151-1.214675v-17.203194zM531.222945 678.544892c0-1.186427-0.720331-2.570592-1.610151-3.079061l-42.548951-24.56893c-0.88982-0.515531-1.610151 0.03531-1.610151 1.221738v17.196132c0 1.186427 0.720331 2.56353 1.610151 3.079061l42.548951 24.561867c0.88982 0.515531 1.610151-0.028248 1.610151-1.214675v-17.196132z" fill="#7058FF" /><path d="M417.50955 612.888859c0-1.186427-0.720331-2.56353-1.610151-3.079061L325.681499 557.719995c-0.88982-0.508469-1.610151 0.03531-1.610151 1.221738v17.196132c0 1.186427 0.720331 2.570592 1.610151 3.079061l90.2179 52.089803c0.88982 0.508469 1.610151-0.03531 1.610151-1.221738v-17.196132zM619.858942 729.716626c0-1.186427-0.720331-2.570592-1.610151-3.079061l-72.047203-41.595572c-0.88982-0.515531-1.610151 0.028248-1.610151 1.214675v17.196132c0 1.186427 0.720331 2.570592 1.610151 3.086123l72.047203 41.595572c0.88982 0.508469 1.610151-0.03531 1.610151-1.221737v-17.196132z" fill="#F2F2F2" /></svg>