<?xml version="1.0" encoding="iso-8859-1"?>
<!-- Uploaded to: SVG Repo, www.svgrepo.com, Generator: SVG Repo Mixer Tools -->
<svg height="800px" width="800px" version="1.1" id="Layer_1" xmlns="http://www.w3.org/2000/svg" xmlns:xlink="http://www.w3.org/1999/xlink" 
	 viewBox="0 0 512.001 512.001" xml:space="preserve">
<g>
	<path style="fill:#5A5D6F;" d="M393.686,69.583c6.929,0,12.553-5.624,12.553-12.553s-5.624-12.553-12.553-12.553
		c-6.955,0-12.553,5.624-12.553,12.553S386.731,69.583,393.686,69.583z M434.258,34.057V309.98H310.922l-0.238-0.515
		c45.694-20.788,77.454-66.847,77.454-120.311c0-72.973-59.151-132.124-132.137-132.124c-72.96,0-132.112,59.151-132.112,132.124
		c0,25.057,6.98,48.494,19.094,68.453l-0.176,0.1H77.743V34.057c0-11.875,9.616-21.504,21.516-21.504h313.508
		C424.642,12.553,434.258,22.182,434.258,34.057z M123.889,69.583c6.929,0,12.553-5.624,12.553-12.553s-5.624-12.553-12.553-12.553
		c-6.955,0-12.553,5.624-12.553,12.553S116.935,69.583,123.889,69.583z"/>
	<path style="fill:#5A5D6F;" d="M376.362,399.109c7.181,0,13.03,5.825,13.03,13.018v27.517c0,7.193-5.85,13.03-13.03,13.03h-55.009
		c-7.181,0-13.03-5.837-13.03-13.03v-27.517c0-7.193,5.85-13.018,13.03-13.018H376.362z"/>
</g>
<path style="fill:#E1EAF6;" d="M256.001,220.851c17.512,0,31.71-14.185,31.71-31.697c0-17.499-14.198-31.697-31.71-31.697
	c-17.499,0-31.685,14.198-31.685,31.697C224.316,206.666,238.501,220.851,256.001,220.851z M256.001,57.03
	c72.985,0,132.137,59.151,132.137,132.124c0,53.465-31.76,99.523-77.454,120.311c-16.658,7.582-35.174,11.813-54.682,11.813
	c-5.122,0-10.156-0.289-15.127-0.854l16.784-62.717l-44.313,56.528c-29.576-10.08-54.419-30.354-70.362-56.628
	c-12.114-19.96-19.094-43.397-19.094-68.453C123.889,116.181,183.041,57.03,256.001,57.03z"/>
<path style="fill:#9DA6BA;" d="M256.001,157.457c17.512,0,31.71,14.198,31.71,31.697c0,17.512-14.198,31.697-31.71,31.697
	c-17.499,0-31.685-14.185-31.685-31.697C224.316,171.655,238.501,157.457,256.001,157.457z"/>
<path style="fill:#5A5D6F;" d="M141.991,322.056l34.271,39.455l-7.959,10.181c-4.293,5.473-6.327,11.888-6.327,18.227
	c0,10.758,5.85,21.278,16.395,26.55c16.294,8.147,35.878-0.251,41.401-17.361h36.756c5.95,0,10.771,4.82,10.771,10.771v32.011
	c0,5.95-4.82,10.783-10.771,10.783H134.66c-5.95,0-10.771-4.833-10.771-10.783V328.823
	C123.889,319.27,135.739,314.838,141.991,322.056z"/>
<path style="fill:#9DA6BA;" d="M308.323,439.644c0,7.193,5.85,13.03,13.03,13.03h55.009c7.181,0,13.03-5.837,13.03-13.03v-27.517
	c0-7.193-5.85-13.018-13.03-13.018h-55.009c-7.181,0-13.03,5.825-13.03,13.018V439.644L308.323,439.644z M142.983,257.607
	c15.943,26.274,40.786,46.548,70.362,56.628l-37.083,47.276l-34.271-39.455c-6.252-7.218-18.102-2.787-18.102,6.766v113.068
	c0,5.95,4.82,10.783,10.771,10.783h121.868c5.95,0,10.771-4.833,10.771-10.783V409.88c0-5.95-4.82-10.771-10.771-10.771h-36.756
	c0.176-0.49,0.301-0.979,0.452-1.481l20.65-77.203c4.971,0.565,10.005,0.854,15.127,0.854c19.508,0,38.024-4.23,54.682-11.813
	l0.239,0.515h123.337v167.964c0,11.875-9.616,21.504-21.491,21.504H99.259c-11.901,0-21.516-9.628-21.516-21.504V257.708h65.064
	L142.983,257.607z"/>
<path style="fill:#E1EAF6;" d="M219.772,399.109c-5.523,17.11-25.107,25.508-41.401,17.361
	c-10.545-5.272-16.395-15.792-16.395-26.55c0-6.339,2.034-12.754,6.327-18.227l7.959-10.181l37.083-47.276l44.313-56.528
	l-16.784,62.717l-20.65,77.203C220.073,398.13,219.947,398.619,219.772,399.109z"/>
<path d="M393.686,69.583c6.929,0,12.553-5.624,12.553-12.553s-5.624-12.553-12.553-12.553c-6.955,0-12.553,5.624-12.553,12.553
	S386.731,69.583,393.686,69.583z"/>
<path d="M123.889,69.583c6.929,0,12.553-5.624,12.553-12.553s-5.624-12.553-12.553-12.553c-6.955,0-12.553,5.624-12.553,12.553
	S116.935,69.583,123.889,69.583z"/>
<path d="M446.812,477.943V34.057C446.812,15.277,431.539,0,412.767,0H99.259C80.472,0,65.19,15.277,65.19,34.057v443.887
	c0,18.78,15.284,34.057,34.07,34.057h313.508C431.539,512,446.812,496.723,446.812,477.943z M99.259,25.107h313.508
	c4.928,0,8.938,4.015,8.938,8.951v263.369h-69.784c30.458-27.059,48.77-66.318,48.77-108.273
	c0-79.775-64.907-144.677-144.69-144.677c-79.768,0-144.665,64.902-144.665,144.677c0,19.338,3.87,38.364,11.27,56.001h-32.31
	V34.057C90.296,29.121,94.317,25.107,99.259,25.107z M229.66,313.77l-21.53,80.488l-0.2,0.68c-0.036,0.104-0.072,0.208-0.105,0.313
	c-1.521,4.716-5.034,8.529-9.635,10.459c-4.651,1.952-9.695,1.785-14.205-0.469c-5.832-2.916-9.455-8.787-9.455-15.323
	c0-3.811,1.262-7.434,3.663-10.496L229.66,313.77z M172.757,427.698c5.925,2.963,12.375,4.453,18.839,4.453
	c5.536,0,11.081-1.093,16.312-3.289c8.374-3.516,15.286-9.574,19.856-17.199h26.982v28.458H136.442v-105.31L160,361.932
	l-1.573,2.012c-5.89,7.507-9.003,16.49-9.003,25.974C149.423,406.025,158.363,420.502,172.757,427.698z M263.265,246.478
	c-5.335-2.664-11.808-1.205-15.488,3.485l-38.594,49.219c-22.93-9.77-42.422-26.585-55.47-48.088
	c-11.299-18.618-17.272-40.036-17.272-61.941c0-65.931,53.634-119.571,119.558-119.571c65.938,0,119.583,53.639,119.583,119.571
	c0,46.773-27.516,89.513-70.1,108.885c-15.274,6.952-31.578,10.535-48.476,10.672l12.777-47.758
	C271.326,255.192,268.6,249.141,263.265,246.478z M412.767,486.893H99.259c-4.942,0-8.963-4.015-8.963-8.951V270.261h45.918
	c14.376,21.2,34.112,38.194,57.03,49.248l-17.477,22.289l-24.287-27.96c-6.312-7.287-16.225-9.82-25.262-6.454
	c-9.041,3.372-14.883,11.786-14.883,21.437v113.068c0,12.868,10.463,23.337,23.324,23.337h121.868
	c12.861,0,23.324-10.468,23.324-23.337v-32.011c0-12.861-10.463-23.324-23.324-23.324h-20.348l14.139-52.848
	c1.896,0.074,3.791,0.124,5.682,0.124c19.493,0,38.356-3.801,56.13-11.298h109.575v155.411
	C421.705,482.879,417.695,486.893,412.767,486.893z"/>
<path d="M300.263,189.154c0-24.4-19.856-44.251-44.263-44.251c-24.394,0-44.238,19.851-44.238,44.251s19.846,44.251,44.238,44.251
	C280.407,233.405,300.263,213.553,300.263,189.154z M256.001,208.298c-10.549,0-19.131-8.588-19.131-19.144
	c0-10.556,8.583-19.144,19.131-19.144c10.562,0,19.156,8.588,19.156,19.144C275.157,199.71,266.563,208.298,256.001,208.298z"/>
<path d="M376.362,386.556h-55.009c-14.106,0-25.584,11.471-25.584,25.571v27.517c0,14.106,11.478,25.584,25.584,25.584h55.009
	c14.106,0,25.584-11.478,25.584-25.584v-27.517C401.945,398.026,390.468,386.556,376.362,386.556z M376.838,439.644
	c0,0.254-0.223,0.477-0.477,0.477h-55.009c-0.254,0-0.477-0.223-0.477-0.477v-27.517c0-0.251,0.218-0.464,0.477-0.464h55.009
	c0.259,0,0.477,0.213,0.477,0.464V439.644z"/>
<path d="M308.323,370.65h20.261c6.933,0,12.553-5.621,12.553-12.553s-5.62-12.553-12.553-12.553h-20.261
	c-6.933,0-12.553,5.621-12.553,12.553S301.39,370.65,308.323,370.65z"/>
<path d="M389.391,345.544H369.13c-6.933,0-12.553,5.621-12.553,12.553s5.62,12.553,12.553,12.553h20.261
	c6.933,0,12.553-5.621,12.553-12.553S396.325,345.544,389.391,345.544z"/>
</svg>