<?xml version="1.0" ?>
<!DOCTYPE svg  PUBLIC '-//W3C//DTD SVG 1.1//EN'  'http://www.w3.org/Graphics/SVG/1.1/DTD/svg11.dtd'>
<!-- Uploaded to: SVG Repo, www.svgrepo.com, Generator: SVG Repo Mixer Tools -->
<svg width="800px" height="800px" viewBox="0 0 64 64" id="Layer_1" version="1.1" xml:space="preserve" xmlns="http://www.w3.org/2000/svg" xmlns:xlink="http://www.w3.org/1999/xlink">
<g id="Body_16_">
<g>
<path d="M60,0H4C1.791,0,0,1.79,0,4v55.999C0,62.209,1.791,64,4,64h56c2.209,0,4-1.791,4-4.001V4    C64,1.79,62.209,0,60,0z" style="fill:#4D4D4D;"/>
</g>
</g>
<g id="Shape_16_">
<g>
<rect height="44" style="fill:#B3B3B3;" width="56" x="4" y="4"/>
</g>
</g>
<g id="Container">
<g>
<path d="M50,10H14c-2.209,0-4,1.79-4,4v24c0,2.209,1.791,4,4,4h36c2.209,0,4-1.791,4-4V14    C54,11.79,52.209,10,50,10z" style="fill:#666666;"/>
</g>
</g>
<g id="Body_17_">
<g>
<path d="M48,18H16c-1.104,0-2,0.895-2,2v22h36V20    C50,18.895,49.104,18,48,18z" style="fill-rule:evenodd;clip-rule:evenodd;fill:#808080;"/>
</g>
</g>
<g id="Holes_1_">
<g>
<path d="M22,30c-1.104,0-2,0.895-2,2c0,1.104,0.896,2,2,2s2-0.896,2-2    C24,30.895,23.104,30,22,30z M42,30c-1.104,0-2,0.895-2,2c0,1.104,0.896,2,2,2s2-0.896,2-2C44,30.895,43.104,30,42,30z" style="fill-rule:evenodd;clip-rule:evenodd;fill:#4D4D4D;"/>
</g>
</g>
<g id="label">
<g>
<rect height="4" style="fill:#CCCCCC;" width="8" x="28" y="30"/>
</g>
</g>
<g id="Rec">
<g>
<path d="M10,51.999H6c-1.104,0-2,0.896-2,2.001v4c0,1.104,0.896,1.999,2,1.999h4c1.104,0,2-0.896,2-1.999    v-4C12,52.896,11.104,51.999,10,51.999z" style="fill:#ED7161;"/>
</g>
</g>
<g id="Btns_1_">
<g>
<path d="M22,51.999h-4c-1.104,0-2,0.896-2,2.001v4    c0,1.104,0.896,1.999,2,1.999h4c1.104,0,2-0.896,2-1.999v-4C24,52.896,23.104,51.999,22,51.999z M34,51.999h-4    c-1.104,0-2,0.896-2,2.001v4c0,1.104,0.896,1.999,2,1.999h4c1.104,0,2-0.896,2-1.999v-4C36,52.896,35.104,51.999,34,51.999z     M46,51.999h-4c-1.104,0-2,0.896-2,2.001v4c0,1.104,0.896,1.999,2,1.999h4c1.104,0,2-0.896,2-1.999v-4    C48,52.896,47.104,51.999,46,51.999z M58,51.999h-4c-1.104,0-2,0.896-2,2.001v4c0,1.104,0.896,1.999,2,1.999h4    c1.104,0,2-0.896,2-1.999v-4C60,52.896,59.104,51.999,58,51.999z" style="fill-rule:evenodd;clip-rule:evenodd;fill:#808080;"/>
</g>
</g>
<g/>
<g/>
<g/>
<g/>
<g/>
<g/>
<g/>
<g/>
<g/>
<g/>
<g/>
<g/>
<g/>
<g/>
<g/>
</svg>