<?xml version="1.0" ?>
<!DOCTYPE svg  PUBLIC '-//W3C//DTD SVG 1.1//EN'  'http://www.w3.org/Graphics/SVG/1.1/DTD/svg11.dtd'>
<!-- Uploaded to: SVG Repo, www.svgrepo.com, Generator: SVG Repo Mixer Tools -->
<svg width="800px" height="800px" viewBox="0 -0.57 65.131 65.131" id="Layer_1" version="1.1" xml:space="preserve" xmlns="http://www.w3.org/2000/svg" xmlns:xlink="http://www.w3.org/1999/xlink">
<g id="Case_4_">
<g>
<path d="M60,0H4C1.79,0,0,1.791,0,4v56c0,2.209,1.79,4,4,4h56c2.209,0,4-1.791,4-4V4    C64,1.791,62.209,0,60,0z" style="fill:#666666;"/>
</g>
</g>
<g id="Case_Side">
<g>
<path d="M4,0C1.79,0,0,1.791,0,4v56c0,2.209,1.79,4,4,4h4V0H4z" style="fill-rule:evenodd;clip-rule:evenodd;fill:#4D4B4B;"/>
</g>
</g>
<g id="Base_24_">
<g>
<path d="M35.999,10C23.85,10,14,19.85,14,32s9.85,22,21.999,22    C48.149,54,58,44.15,58,32S48.149,10,35.999,10z M35.999,34C34.895,34,34,33.104,34,32s0.895-2,1.999-2C37.104,30,38,30.896,38,32    S37.104,34,35.999,34z" style="fill-rule:evenodd;clip-rule:evenodd;fill:#CCCCCC;"/>
</g>
</g>
<g id="Reflection_2_">
<g>
<path d="M26.496,33.457l-9.562,1.067    c0.605,4.606,2.834,8.69,6.1,11.675l6.514-7.072C27.945,37.675,26.837,35.695,26.496,33.457z M48.966,17.802l-6.513,7.071    c1.603,1.452,2.709,3.433,3.05,5.67l9.563-1.068C54.46,24.869,52.231,20.785,48.966,17.802z" style="fill-rule:evenodd;clip-rule:evenodd;fill:#E6E6E6;"/>
</g>
</g>
<g id="Base_25_">
<g>
<path d="M35.999,24c-4.418,0-8,3.582-8,8s3.582,8,8,8    c4.419,0,8-3.582,8-8S40.418,24,35.999,24z M35.999,36.016c-2.218,0-4.016-1.799-4.016-4.017c0-2.217,1.798-4.016,4.016-4.016    s4.016,1.799,4.016,4.016C40.015,34.217,38.217,36.016,35.999,36.016z" style="fill-rule:evenodd;clip-rule:evenodd;fill:#666666;"/>
</g>
</g>
<g/>
<g/>
<g/>
<g/>
<g/>
<g/>
<g/>
<g/>
<g/>
<g/>
<g/>
<g/>
<g/>
<g/>
<g/>
</svg>