<?xml version="1.0" encoding="utf-8"?>
<!-- Uploaded to: SVG Repo, www.svgrepo.com, Generator: SVG Repo Mixer Tools -->
<svg version="1.1" id="Uploaded to svgrepo.com" xmlns="http://www.w3.org/2000/svg" xmlns:xlink="http://www.w3.org/1999/xlink" 
	 width="800px" height="800px" viewBox="0 0 32 32" xml:space="preserve">
<style type="text/css">
	.cubies_twintig{fill:#F9E0BD;}
	.cubies_zesentwintig{fill:#65C3AB;}
	.cubies_zevenentwintig{fill:#98D3BC;}
	.cubies_een{fill:#4C4842;}
	.cubies_twee{fill:#67625D;}
	.cubies_twaalf{fill:#FFF2DF;}
	.st0{fill:#2EB39A;}
	.st1{fill:#CCE2CD;}
	.st2{fill:#A4C83F;}
	.st3{fill:#BCD269;}
	.st4{fill:#E8E8B5;}
	.st5{fill:#D1DE8B;}
	.st6{fill:#F2C99E;}
	.st7{fill:#C9483A;}
	.st8{fill:#D97360;}
	.st9{fill:#837F79;}
	.st10{fill:#67625D;}
	.st11{fill:#C9C6C0;}
	.st12{fill:#EDEAE5;}
	.st13{fill:#EC9B5A;}
	.st14{fill:#EDB57E;}
	.st15{fill:#4C4842;}
	.st16{fill:#E3D4C0;}
	.st17{fill:#E69D8A;}
	.st18{fill:#AB9784;}
	.st19{fill:#C6B5A2;}
	.st20{fill:#F9E0BD;}
	.st21{fill:#F2C7B5;}
	.st22{fill:#8E7866;}
	.st23{fill:#725A48;}
</style>
<g>
	<path class="cubies_zesentwintig" d="M29,32H3c-1.657,0-3-1.343-3-3V3c0-1.657,1.343-3,3-3h26c1.657,0,3,1.343,3,3v26
		C32,30.657,30.657,32,29,32z"/>
	<path class="cubies_zevenentwintig" d="M27,32H3c-1.657,0-3-1.343-3-3V3c0-1.657,1.343-3,3-3h24c1.657,0,3,1.343,3,3v26
		C30,30.657,28.657,32,27,32z"/>
	<circle class="cubies_zesentwintig" cx="15" cy="16" r="12"/>
	<circle class="cubies_twee" cx="15" cy="16" r="11"/>
	<circle class="cubies_een" cx="15" cy="16" r="3"/>
	<circle class="cubies_twintig" cx="15" cy="16" r="2"/>
	<path class="cubies_twaalf" d="M21,20c-0.553,0-1-0.447-1-1v-2c0-0.167,0.042-0.332,0.122-0.479L26,5.745V4c0-0.553,0.447-1,1-1
		s1,0.447,1,1v2c0,0.167-0.042,0.332-0.122,0.479L22,17.255V19C22,19.553,21.553,20,21,20z"/>
</g>
</svg>