<?xml version="1.0" encoding="iso-8859-1"?>
<!-- Uploaded to: SVG Repo, www.svgrepo.com, Generator: SVG Repo Mixer Tools -->
<svg version="1.1" id="Layer_1" xmlns="http://www.w3.org/2000/svg" xmlns:xlink="http://www.w3.org/1999/xlink" 
	 viewBox="0 0 340 340" xml:space="preserve">
<g id="XMLID_478_">
	<polygon id="XMLID_479_" style="fill:#1E2E3B;" points="170,120 150,90 10,90 10,160 170,170 330,160 330,120 	"/>
	<g id="XMLID_481_">
		<polygon id="XMLID_67_" style="fill:#ACABB1;" points="50,320 50,0 250,0 310,60 310,320 		"/>
		<polygon id="XMLID_482_" style="fill:#818085;" points="250,0 310,60 250,60 		"/>
	</g>
	<g id="XMLID_483_">
		<polygon id="XMLID_64_" style="fill:#EEEEEF;" points="30,310 30,40 230,40 290,100 290,310 		"/>
		<polygon id="XMLID_484_" style="fill:#DEDDE0;" points="230,40 160,40 160,310 290,310 290,100 		"/>
		<rect id="XMLID_486_" x="90" y="120" style="fill:#5A8BB0;" width="140" height="20"/>
		<rect id="XMLID_487_" x="160" y="120" style="fill:#1E2E3B;" width="70" height="20"/>
		<polygon id="XMLID_488_" style="fill:#1E2E3B;" points="230,40 290,100 230,100 		"/>
	</g>
	<rect id="XMLID_489_" x="10" y="160" style="fill:#78B9EB;" width="320" height="180"/>
	<polygon id="XMLID_490_" style="fill:#5A8BB0;" points="330,340 10,340 330,160 	"/>
</g>
</svg>