<?xml version="1.0" encoding="iso-8859-1"?>
<!-- Uploaded to: SVG Repo, www.svgrepo.com, Generator: SVG Repo Mixer Tools -->
<svg version="1.1" id="Layer_1" xmlns="http://www.w3.org/2000/svg" xmlns:xlink="http://www.w3.org/1999/xlink" 
	 viewBox="0 0 512 512" xml:space="preserve">
<rect x="158.839" y="0.339" style="fill:#F95428;" width="151.075" height="81.757"/>
<g>
	<path style="fill:#E54728;" d="M408.249,346.062v0.013l-66.309,28.867l28.867-60.253c2.211,0.515,4.498,0.792,6.848,0.792
		C394.554,315.48,408.249,329.175,408.249,346.062z"/>
	<polygon style="fill:#E54728;" points="274.966,0 103.751,0 103.751,20.999 274.966,20.999 274.966,102.215 297.959,102.215 
		334.044,102.215 347.073,102.215 347.073,20.999 347.073,0 	"/>
</g>
<polygon style="fill:#F7B239;" points="370.807,327.877 370.807,361.042 286.307,361.042 286.307,82.096 316.254,82.096 
	370.807,82.096 "/>
<g>
	<path style="fill:#E09B2D;" d="M297.959,82.096v263.978l-88.023,96.218c0-16.899-19.969-61.147-36.855-61.147
		c-8.456,0-28.801-53.943-34.342-59.471c-5.541-5.528,6.701-26.737,6.701-35.18l48.348-204.398h81.179L297.959,82.096
		L297.959,82.096z"/>
	<rect x="308.72" y="82.096" style="fill:#E09B2D;" width="13.463" height="278.943"/>
	<rect x="333.032" y="82.096" style="fill:#E09B2D;" width="13.463" height="278.943"/>
	<rect x="357.345" y="82.096" style="fill:#E09B2D;" width="13.463" height="278.943"/>
</g>
<polygon style="fill:#F95428;" points="408.249,346.074 408.249,512 222.535,512 219.988,512 219.988,346.074 272.794,346.074 
	317.112,346.074 362.265,346.074 "/>
<path style="fill:#E54728;" d="M254.963,346.074V512H103.751V0h90.037v82.096v202.802c0,8.443,3.418,16.095,8.958,21.623
	c5.541,5.528,13.18,8.958,21.636,8.958C241.268,315.48,254.963,329.175,254.963,346.074z"/>
</svg>