<?xml version="1.0" encoding="iso-8859-1"?>
<!-- Uploaded to: SVG Repo, www.svgrepo.com, Generator: SVG Repo Mixer Tools -->
<svg version="1.1" id="Layer_1" xmlns="http://www.w3.org/2000/svg" xmlns:xlink="http://www.w3.org/1999/xlink" 
	 viewBox="0 0 390.76 390.76" xml:space="preserve">
<g>
	<rect x="196.8" y="263.26" style="fill:#3E81C8;" width="179.5" height="52"/>
	<path style="fill:#F5C525;" d="M56.3,382.76V201.92h123.73c8.42,0,15.27-6.846,15.27-15.261v-6.639
		c0-8.415,6.846-15.261,15.26-15.261H376.3v98.5H196.8v52h179.5v67.5h-320V382.76z"/>
	<rect x="14.46" y="140.67" style="fill:#EFEFEF;" width="41.84" height="180.83"/>
	<path style="fill:#EFEFEF;" d="M93.63,201.92v-70.66H340.8v33.5H210.56c-8.415,0-15.26,6.846-15.26,15.261v6.639
		c0,8.415-6.85,15.261-15.27,15.261h-86.4V201.92z"/>
	<path style="fill:#EB7830;" d="M56.3,201.92V69.26h123.73c8.42,0,15.27,6.846,15.27,15.261v0.31c0,8.414,6.846,15.26,15.26,15.26
		H376.3v64.67h-35.5v-33.5H93.63v70.66H56.3V201.92z"/>
	<path style="fill:#EFEFEF;" d="M14.46,140.67V8H138.2c8.414,0,15.26,6.851,15.26,15.271v0.31c0,8.414,6.85,15.26,15.27,15.26
		h165.73v61.25h-123.9c-8.415,0-15.26-6.846-15.26-15.26v-0.31c0-8.415-6.85-15.261-15.27-15.261H56.3v71.41L14.46,140.67
		L14.46,140.67z"/>
	<g>
		<path style="fill:#231F20;" d="M376.3,92.09h-33.84V38.84c0-4.42-3.58-8-8-8H168.73c-4.01,0-7.27-3.26-7.27-7.26v-0.31
			C161.46,10.44,151.03,0,138.2,0H14.46c-4.41,0-8,3.59-8,8v313.5c0,4.42,3.59,8,8,8H48.3v53.26c0,4.41,3.58,8,8,8h320
			c4.41,0,8-3.59,8-8V100.09C384.3,95.67,380.71,92.09,376.3,92.09z M48.3,313.5H22.46V148.67H48.3V313.5z M48.3,69.26v63.41H22.46
			V16H138.2c4.01,0,7.26,3.26,7.26,7.27v0.31c0,12.82,10.44,23.26,23.27,23.26h157.73v45.25h-115.9c-4.01,0-7.26-3.26-7.26-7.26
			v-0.31c0-12.83-10.44-23.26-23.27-23.26H56.3C51.88,61.26,48.3,64.84,48.3,69.26z M368.3,307.26H204.8v-36h163.5V307.26z
			 M368.3,255.26H196.8c-4.42,0-8,3.58-8,8v52c0,4.41,3.58,8,8,8h171.5v51.5h-304V209.92h115.73c12.83,0,23.27-10.43,23.27-23.26
			v-6.64c0-4.01,3.25-7.26,7.26-7.26H368.3V255.26z M101.63,193.92v-54.66H332.8v17.5H210.56c-12.83,0-23.26,10.43-23.26,23.26v6.64
			c0,4-3.26,7.26-7.27,7.26L101.63,193.92L101.63,193.92z M368.3,156.76h-19.5v-25.5c0-4.42-3.59-8-8-8H93.63c-4.42,0-8,3.58-8,8
			v62.66H64.3V77.26h115.73c4.01,0,7.27,3.25,7.27,7.26v0.31c0,12.82,10.43,23.26,23.26,23.26H368.3V156.76z"/>
	</g>
</g>
</svg>