<?xml version="1.0" encoding="iso-8859-1"?>
<!-- Uploaded to: SVG Repo, www.svgrepo.com, Generator: SVG Repo Mixer Tools -->
<svg height="800px" width="800px" version="1.1" id="Capa_1" xmlns="http://www.w3.org/2000/svg" xmlns:xlink="http://www.w3.org/1999/xlink" 
	 viewBox="0 0 464.98 464.98" xml:space="preserve">
<g id="XMLID_4_">
	<g>
		<polygon style="fill:#3A75AA;" points="415.795,273.63 415.795,334.14 389.855,307.64 389.855,247.13 		"/>
		<polygon style="fill:#3A75AA;" points="156.745,9 188.975,41.93 87.355,41.93 87.355,73.37 49.185,73.37 49.185,9 		"/>
		<polygon style="fill:#4489D3;" points="415.795,436.01 415.795,455.98 49.185,455.98 49.185,82.37 156.735,82.37 415.795,347 		
			"/>
		<polygon style="fill:#FFCC73;" points="380.855,50.93 380.855,298.44 292.465,208.16 343.435,208.16 343.435,199.16 
			283.655,199.16 248.005,162.73 343.435,162.73 343.435,153.73 239.185,153.73 203.545,117.32 343.435,117.32 343.435,108.32 
			194.735,108.32 160.525,73.37 96.355,73.37 96.355,50.93 		"/>
		<path d="M424.795,343.34v121.64H40.185V0h120.34l41.05,41.93h188.28v192.33l34.94,35.7v73.37V343.34z M415.795,455.98v-19.97V347
			L156.735,82.37H49.185v373.61H415.795z M415.795,334.14v-60.51l-25.94-26.5v60.51L415.795,334.14z M380.855,298.44V50.93h-284.5
			v22.44h64.17l34.21,34.95h148.7v9h-139.89l35.64,36.41h104.25v9h-95.43l35.65,36.43h59.78v9h-50.97L380.855,298.44z
			 M188.975,41.93L156.745,9H49.185v64.37h38.17V41.93H188.975z"/>
	</g>
</g>
</svg>