<?xml version="1.0" encoding="utf-8"?>
<!-- Uploaded to: SVG Repo, www.svgrepo.com, Generator: SVG Repo Mixer Tools -->
<svg width="800px" height="800px" viewBox="-34.54 0 138.146 138.146" xmlns="http://www.w3.org/2000/svg">
  <g id="chocolate_bar" data-name="chocolate bar" transform="translate(-375.747 227.164)">
    <path id="path64" d="M437.4-107.232l-56.8.675V-94.28l60.576-.676L437.4-107.232" fill="#5982cb"/>
    <path id="path66" d="M382.222-182.374v73.929l57.473,1.213v-58.954l-57.473-16.188" fill="#6d97d6"/>
    <path id="path68" d="M396.7-179.138l.629,57.291h26.805l1.8-48.567L396.7-179.138" fill="#f8fafc"/>
    <path id="path70" d="M385.6-223.522v42.1l50.457,12.543v-53.695l-50.457-.944" fill="#92444d"/>
    <path id="path72" d="M395.894-204.138h28.784a2.856,2.856,0,0,0,2.032-.841,2.884,2.884,0,0,0,0-4.073,2.871,2.871,0,0,0-2.032-.843H395.9a2.881,2.881,0,0,0-2.041.843,2.887,2.887,0,0,0,0,4.073,2.877,2.877,0,0,0,2.036.841" fill="#100f0d"/>
    <path id="path74" d="M382.543-97.653l.96-5.755h53.561l.961,5.755Zm4.717-123.753h46.052v49.448L387.26-184.517Zm20.148,83.462a2.857,2.857,0,0,0,.843,2.036,2.885,2.885,0,0,0,4.072,0,2.855,2.855,0,0,0,.835-2.087v-33.491l8.637,2.356v45.575l-23.029.008.008-51.865,8.635,2.355v35.113ZM384.38-109.161v-70.174l8.635,2.357v59.186l34.539-.005V-167.56l8.635,2.352v56.046Zm57.565,0V-169.6l-2.883-.784v-51.021a5.754,5.754,0,0,0-5.751-5.757H387.26a5.757,5.757,0,0,0-5.755,5.757v35.321l-2.88-.784v77.708l-2.879,17.268h2.879a2.867,2.867,0,0,0,.844,2.032,2.875,2.875,0,0,0,4.068,0,2.849,2.849,0,0,0,.843-2.032h5.759a2.85,2.85,0,0,0,.844,2.032,2.88,2.88,0,0,0,4.072,0,2.884,2.884,0,0,0,.839-2.032h5.755a2.867,2.867,0,0,0,.844,2.032,2.88,2.88,0,0,0,4.072,0,2.867,2.867,0,0,0,.844-2.032h5.755a2.866,2.866,0,0,0,.843,2.032,2.879,2.879,0,0,0,4.071,0,2.855,2.855,0,0,0,.843-2.032h5.759a2.85,2.85,0,0,0,.844,2.032,2.88,2.88,0,0,0,4.072,0,2.88,2.88,0,0,0,.835-2.032h5.76a2.853,2.853,0,0,0,.841,2.032,2.882,2.882,0,0,0,4.073,0,2.882,2.882,0,0,0,.843-2.032h2.876l-2.876-17.268" fill="#100f0d"/>
    <path id="path76" d="M424.678-192.628H395.894a2.878,2.878,0,0,0-2.036.843,2.887,2.887,0,0,0,0,4.073,2.881,2.881,0,0,0,2.041.843h28.779a2.871,2.871,0,0,0,2.032-.843,2.884,2.884,0,0,0,0-4.073,2.857,2.857,0,0,0-2.032-.843" fill="#100f0d"/>
  </g>
</svg>