<!DOCTYPE svg PUBLIC "-//W3C//DTD SVG 1.1//EN" "http://www.w3.org/Graphics/SVG/1.1/DTD/svg11.dtd">
<!-- Uploaded to: SVG Repo, www.svgrepo.com, Transformed by: SVG Repo Mixer Tools -->
<svg width="159px" height="159px" viewBox="-102.4 -102.4 1228.80 1228.80" class="icon" version="1.1" xmlns="http://www.w3.org/2000/svg" fill="#ffffff" stroke="#ffffff">
<g id="SVGRepo_bgCarrier" stroke-width="0"/>
<g id="SVGRepo_tracerCarrier" stroke-linecap="round" stroke-linejoin="round"/>
<g id="SVGRepo_iconCarrier">
<path d="M653.683121 433.686605s-1.504577 21.319498-32.021818 29.272955c30.481968 7.958322 32.021818 29.27782 32.021818 29.27782 4.260737-27.354833 32.019385-29.27782 32.019385-29.27782s-27.758648-1.918122-32.019385-29.272955z" fill="#FFFFFF"/>
<path d="M893.26718 301.697409c-5.754367 34.482415-11.629149 71.073912-38.44029 92.364219-10.718132 8.514176-23.844559 13.548487-34.593099 22.048068-32.723629 25.863635-34.48728 73.659789-36.263093 115.30141-1.773381 41.641621-11.50995 90.830451-49.839557 107.147261-46.616332 19.930471-111.139194-21.180838-146.761292 14.904674-33.618834 34.053057 0.347865 98.382525-27.891225 137.030805-9.375325 12.815052-24.143772 20.380506-38.356365 27.48741-23.873751 11.93201-49.987946 23.827531-76.206744 30.788479a398.357638 398.357638 0 0 0 84.497119 9.099222c219.325185 0 397.115785-177.791816 397.115785-397.112136a395.658644 395.658644 0 0 0-33.261239-159.059412z" fill="#EA5251"/>
<path d="M529.428446 63.727394c-219.325185 0-397.117001 177.7906-397.117001 397.117001 0 190.31617 133.912183 349.278276 312.629612 388.01413 26.220014-6.995004 52.315965-18.896606 76.209177-30.792127 14.201646-7.142178 28.967661-14.70155 38.339337-27.525116 28.243956-38.636116-5.727608-102.975315 27.898523-137.027155 35.6148-36.085512 100.126715 5.023364 146.753994-14.904674 38.32839-16.37641 48.092934-65.554293 49.845638-107.148478 1.746622-41.588103 3.530951-89.501023 36.255796-115.300194 10.750972-8.474038 23.882265-13.544838 34.593099-22.043203 26.811142-21.297604 32.688356-57.889102 38.44029-92.3703-61.373833-140.120234-201.131606-238.019884-363.848465-238.019884z m134.296538 403.249641c-2.281799 50.537719-32.762551 95.507166-78.858302 116.347437-46.0994 20.845137-99.995353 14.020416-139.445182-17.648671-42.152471-23.816584-68.214365-68.485603-68.208284-116.902075-0.030408-51.706593 29.613522-98.833776 76.229854-121.196869 46.617549-22.358227 101.928071-15.975028 142.232967 16.414116 44.026806 24.907615 70.333179 72.445911 68.048947 122.986062z" fill="#5C1612"/>
<path d="M395.022441 460.844395c-0.064464-47.847239 25.339405-92.116091 66.687895-116.194182 41.342408-24.078091 92.381247-24.328651 133.965701-0.65924-39.452261-31.670304-93.351863-38.493808-139.446398-17.649888-46.093319 20.839055-76.576503 65.809719-78.861951 116.348654-2.280583 50.537719 24.020924 98.077231 68.053812 122.986062a134.073953 134.073953 0 0 1-50.399059-104.831406zM893.26718 301.697409c-2.466679 15.059145-5.152293 30.455209-9.433707 44.863629a384.928349 384.928349 0 0 1 13.827023 102.221202c-0.064464 212.540603-172.313552 384.851722-384.873616 384.851722-7.858585 0-15.650273-0.310159-23.396957-0.773574a321.155951 321.155951 0 0 1-44.464678 16.007868 398.531571 398.531571 0 0 0 84.503201 9.102871c219.321536 0 397.112136-177.795465 397.112136-397.117001a395.658644 395.658644 0 0 0-33.273402-159.156717z" fill="#A64342"/>
<path d="M883.833473 346.562254c4.293578-14.409635 6.928107-29.804483 9.433707-44.863628-61.364102-140.071582-201.121876-237.971231-363.838734-237.971232-3.990716 0-7.931564 0.186096-11.900386 0.308943 175.058765 2.113948 321.913713 121.061858 366.305413 282.525917zM148.063888 571.588288C188.337159 710.450857 302.3359 817.908278 444.877809 848.868256a321.151086 321.151086 0 0 0 44.459813-16.007868c-159.268617-9.557771-292.381684-116.02998-341.273734-261.2721z" fill="#A64342"/>
<path d="M693.646232 575.909841a7.155557 7.155557 0 0 1-1.230906-10.010239l23.215726-29.673121a7.155557 7.155557 0 0 1 10.013888-1.22969 7.154341 7.154341 0 0 1 1.22969 10.013887l-23.226673 29.66704a7.155557 7.155557 0 0 1-10.001725 1.232123z" fill="#F1E289"/>
<path d="M486.445235 724.135571a7.165288 7.165288 0 0 1-7.133664-7.133663v-37.736047a7.153125 7.153125 0 0 1 7.133664-7.126365 7.155557 7.155557 0 0 1 7.132447 7.126365v37.67888a7.170153 7.170153 0 0 1-2.076243 5.0708 7.187181 7.187181 0 0 1-5.056204 2.12003z" fill="#BBDBA0"/>
<path d="M698.994351 294.749841a7.14461 7.14461 0 0 1-7.587347 6.62403l-37.591305-2.548172a7.150692 7.150692 0 0 1-6.621597-7.601943 7.137312 7.137312 0 0 1 7.584915-6.621597l37.588873 2.545739a7.145827 7.145827 0 0 1 6.626461 7.601943z" fill="#F1E289"/>
<path d="M568.146055 199.006711a7.14461 7.14461 0 0 1-9.184363-4.13789l-13.350229-35.249906a7.151908 7.151908 0 0 1 4.133024-9.189229 7.147043 7.147043 0 0 1 9.189229 4.139106l13.340499 35.234094a7.164071 7.164071 0 0 1-4.12816 9.203825zM754.326768 403.720353a7.13488 7.13488 0 0 1-5.64125 8.347542l-36.943012 7.170153a7.156773 7.156773 0 0 1-8.352407-5.64125 7.142178 7.142178 0 0 1 5.64125-8.347542l36.949093-7.170153a7.138529 7.138529 0 0 1 8.346326 5.64125z" fill="#BC66A5"/>
<path d="M804.266062 304.43046a7.15799 7.15799 0 0 1-10.061324-0.516932l-25.234803-27.973935a7.14461 7.14461 0 0 1 0.518148-10.061324 7.143394 7.143394 0 0 1 10.061324 0.521798l25.236019 27.903388a7.13488 7.13488 0 0 1 1.842711 5.171754 7.151908 7.151908 0 0 1-2.362075 4.955251z" fill="#A2C7E8"/>
<path d="M266.704071 408.658575a7.145827 7.145827 0 0 1-7.133663-7.132447v-37.674014a7.151908 7.151908 0 0 1 7.133663-7.132448 7.162855 7.162855 0 0 1 7.132448 7.132448v37.674014a7.15799 7.15799 0 0 1-7.132448 7.132447z" fill="#F1E289"/>
<path d="M264.104815 516.533191a7.139745 7.139745 0 0 1-7.586131 6.627678l-37.587657-2.548171a7.145827 7.145827 0 0 1-6.627678-7.600727 7.14461 7.14461 0 0 1 7.586131-6.627679l37.58644 2.551821a7.143394 7.143394 0 0 1 6.628895 7.597078z" fill="#BBDBA0"/>
<path d="M346.029437 289.270361a7.160422 7.160422 0 0 1 10.078352 0l26.689511 26.639641a7.148259 7.148259 0 0 1 0 10.083218 7.161639 7.161639 0 0 1-10.079569 0l-26.687078-26.640858a7.143394 7.143394 0 0 1-0.001216-10.082001z" fill="#A2C7E8"/>
<path d="M362.334085 204.239281a7.154341 7.154341 0 0 1 2.616284-9.742651l32.622676-18.830925a7.154341 7.154341 0 0 1 9.741434 2.616284 7.151908 7.151908 0 0 1-2.610203 9.737786l-32.628757 18.847954a7.164071 7.164071 0 0 1-9.741434-2.628448z" fill="#BBDBA0"/>
<path d="M300.130728 605.553771a7.154341 7.154341 0 0 1 3.493245-9.444655l34.241585-15.725683a7.150692 7.150692 0 0 1 9.445871 3.493244 7.15799 7.15799 0 0 1-3.499327 9.461683l-34.23672 15.725684a7.154341 7.154341 0 0 1-9.444654-3.510273z" fill="#B94C97"/>
<path d="M509.760699 871.050118c-227.344323 0-412.302643-184.957104-412.302643-412.30021 0-55.657171 10.901795-109.654078 32.402523-160.488577a7.803851 7.803851 0 0 1 10.229174-4.150053 7.808716 7.808716 0 0 1 4.150053 10.230391c-20.682151 48.900564-31.1704 100.851636-31.1704 154.408239 0 218.735274 177.954802 396.68886 396.691293 396.68886 218.735274 0 396.68886-177.953585 396.688859-396.68886 0-218.736491-177.953585-396.691292-396.688859-396.691292-92.285158 0-182.159589 32.385495-253.068083 91.191695a7.805067 7.805067 0 0 1-9.965235-12.015936c73.70236-61.123273 167.116255-94.785894 263.032101-94.785894 227.343107 0 412.30021 184.95832 412.300211 412.302643 0.001216 227.340674-184.955887 412.298994-412.298994 412.298994z" fill=""/>
<path d="M163.114519 257.967383a7.805067 7.805067 0 0 1-6.67633-11.838354 414.431187 414.431187 0 0 1 50.72503-67.433494 7.801418 7.801418 0 0 1 11.029508-0.424492 7.802635 7.802635 0 0 1 0.424492 11.029507 398.963361 398.963361 0 0 0-48.810557 64.890188 7.801418 7.801418 0 0 1-6.692143 3.776645z" fill=""/>
<path d="M247.18593 260.122686a7.762496 7.762496 0 0 1-4.727801-1.600665 7.802635 7.802635 0 0 1-1.469303-10.939501c29.613522-38.810049 65.478882-71.783022 106.599921-98.001819a7.803851 7.803851 0 1 1 8.391329 13.160484c-39.569027 25.23237-74.083065 56.962273-102.582446 94.310316a7.791688 7.791688 0 0 1-6.2117 3.071185zM618.33226 601.822129a7.797769 7.797769 0 0 1-5.99398-2.798732 7.809932 7.809932 0 0 1 0.981563-10.996667c25.504824-21.323147 46.964197-46.595655 63.784561-75.109632a7.806283 7.806283 0 0 1 13.446317 7.931564c-17.726515 30.05261-40.343817 56.684954-67.215774 79.155082a7.775876 7.775876 0 0 1-5.002687 1.818385z" fill="#FFFFFF"/>
</g>
</svg>