<?xml version="1.0" encoding="iso-8859-1"?>
<!-- Uploaded to: SVG Repo, www.svgrepo.com, Generator: SVG Repo Mixer Tools -->
<svg version="1.1" id="Layer_1" xmlns="http://www.w3.org/2000/svg" xmlns:xlink="http://www.w3.org/1999/xlink" 
	 viewBox="0 0 512 512" xml:space="preserve">
<polygon style="fill:#FFE777;" points="256,23.65 62.638,178.329 62.638,241.969 416.681,503.83 449.362,503.83 449.362,178.329 "/>
<polygon style="fill:#FFF1B1;" points="416.681,215.824 416.681,503.83 326.809,503.83 256,455.636 185.191,503.83 62.638,503.83 
	62.638,241.969 256,87.291 "/>
<polygon style="fill:#FE5F1A;" points="326.809,287.047 326.809,503.83 294.128,503.83 239.66,395.438 294.128,287.047 "/>
<rect x="185.191" y="287.047" style="fill:#FE834D;" width="108.936" height="216.783"/>
<path style="fill:#FE5F1A;" d="M497.684,196.944L266.194,11.752C263.398,9.516,259.859,8.17,256,8.17l-10.894,21.243L256,45.436
	l221.295,177.025c2.795,2.236,6.336,3.582,10.194,3.582c9.024,0,16.34-7.316,16.34-16.34
	C503.83,204.536,501.426,199.937,497.684,196.944z"/>
<path style="fill:#FE834D;" d="M245.806,11.752L14.316,196.944c-3.742,2.994-6.146,7.593-6.146,12.759
	c0,9.024,7.316,16.34,16.34,16.34c3.859,0,7.398-1.345,10.194-3.582L256,45.437V8.17C252.141,8.17,248.602,9.516,245.806,11.752z"/>
<path style="fill:#02ACAB;" d="M256,127.02v108.936c30.077,0,54.468-24.38,54.468-54.468C310.468,151.41,286.077,127.02,256,127.02z
	"/>
<path style="fill:#42C8C6;" d="M256,127.02c12.037,0,21.787,24.391,21.787,54.468c0,30.088-9.75,54.468-21.787,54.468
	c-30.077,0-54.468-24.38-54.468-54.468C201.532,151.41,225.923,127.02,256,127.02z"/>
<circle cx="256" cy="341.515" r="8.17"/>
<path d="M502.787,190.563L271.297,5.372C266.966,1.907,261.534,0,256,0c-5.534,0-10.965,1.907-15.298,5.372L9.213,190.563
	C3.357,195.248,0,202.224,0,209.702c0,13.516,10.996,24.511,24.511,24.511c5.534,0,10.966-1.907,15.297-5.372l14.661-11.728V503.83
	c0,4.512,3.657,8.17,8.17,8.17h386.723c4.513,0,8.17-3.658,8.17-8.17V217.114l14.661,11.728c4.331,3.464,9.763,5.372,15.297,5.372
	c13.515,0,24.511-10.995,24.511-24.511C512,202.224,508.643,195.248,502.787,190.563z M318.638,295.217V495.66H193.362V295.217
	H318.638z M487.489,217.872c-2.356,0-4.068-0.975-5.091-1.792l-97.889-78.305c-3.523-2.818-8.664-2.247-11.483,1.277
	c-2.819,3.523-2.247,8.665,1.277,11.484l66.888,53.507V495.66H334.979V295.217h2.723c4.513,0,8.17-3.658,8.17-8.17
	c0-4.512-3.657-8.17-8.17-8.17H174.298c-4.513,0-8.17,3.658-8.17,8.17c0,4.512,3.657,8.17,8.17,8.17h2.723V495.66H70.809V204.042
	L256,55.899l92.785,74.223c3.522,2.816,8.665,2.247,11.483-1.277c2.819-3.523,2.247-8.665-1.277-11.484l-97.888-78.305
	c-2.983-2.386-7.224-2.386-10.206,0L29.601,216.08c-1.022,0.817-2.734,1.792-5.091,1.792c-4.506,0-8.17-3.665-8.17-8.17
	c0-2.488,1.123-4.813,3.081-6.379L250.909,18.131c1.023-0.816,2.734-1.791,5.091-1.791s4.068,0.975,5.089,1.791l231.489,185.191
	c1.958,1.567,3.081,3.892,3.081,6.379C495.66,214.208,491.995,217.872,487.489,217.872z"/>
<path d="M294.128,414.502c4.513,0,8.17-3.658,8.17-8.17v-21.787c0-4.512-3.657-8.17-8.17-8.17c-4.513,0-8.17,3.658-8.17,8.17v21.787
	C285.957,410.844,289.614,414.502,294.128,414.502z"/>
<path d="M256,118.855c-34.539,0-62.638,28.099-62.638,62.638s28.099,62.638,62.638,62.638s62.638-28.099,62.638-62.638
	S290.539,118.855,256,118.855z M256,227.791c-25.529,0-46.298-20.769-46.298-46.298s20.769-46.298,46.298-46.298
	s46.298,20.769,46.298,46.298S281.529,227.791,256,227.791z"/>
</svg>