<?xml version="1.0" encoding="utf-8"?>
<!-- Uploaded to: SVG Repo, www.svgrepo.com, Generator: SVG Repo Mixer Tools -->
<svg width="800px" height="800px" viewBox="0 0 1024 1024" class="icon"  version="1.1" xmlns="http://www.w3.org/2000/svg"><path d="M358.1 394.7c0 11.1-9.1 20.1-20.1 20.1H194c-11.1 0-20.1-9.1-20.1-20.1v-208c0-11.1 9.1-20.1 20.1-20.1h144c11.1 0 20.1 9.1 20.1 20.1v208z" fill="#D68231" /><path d="M173.9 201.1h106.2v51.1H173.9zM251.9 280h106.2v51.1H251.9z" fill="" /><path d="M136.9 408.4v417.1h747.3V408.4L510.6 175.2z" fill="#D1D3D3" /><path d="M510.6 175.2L136.9 408.4V493l373.7-233.2L884.2 493v-84.6z" fill="" /><path d="M778 489.3h106.2v51.1H778zM632.6 721.3h106.2v51.1H632.6zM501.5 488.4h106.2v51.1H501.5zM136.9 613.2h106.2v51.1H136.9zM220.4 430.1h106.2v51.1H220.4z" fill="" /><path d="M419.3 574.5h182.5v251H419.3z" fill="#D68231" /><path d="M510.6 664.5m-35.7 0a35.7 35.7 0 1 0 71.4 0 35.7 35.7 0 1 0-71.4 0Z" fill="#FFFFFF" /><path d="M510.6 362.1m-76 0a76 76 0 1 0 152 0 76 76 0 1 0-152 0Z" fill="#FFFFFF" /><path d="M510.6 286.1c-42 0-76 34-76 76 0 4.6 0.4 9.1 1.2 13.4 6.3-35.6 37.4-62.6 74.8-62.6s68.5 27 74.8 62.6c0.8-4.4 1.2-8.8 1.2-13.4 0-42-34.1-76-76-76z" fill="" /><path d="M586.6 347h-60.9v-60.9h-30.2V347h-60.9v30.2h60.9v60.9h30.2v-60.9h60.9z" fill="#D68231" /><path d="M510.6 301.2c-33.6 0-60.9 27.3-60.9 60.9S477 423 510.6 423s60.9-27.3 60.9-60.9-27.3-60.9-60.9-60.9z m0 152c-50.2 0-91.1-40.9-91.1-91.1 0-50.2 40.9-91.1 91.1-91.1 50.2 0 91.1 40.9 91.1 91.1 0 50.2-40.9 91.1-91.1 91.1z" fill="#FFB819" /><path d="M419.3 574.5h182.5v31.7H419.3z" fill="" /><path d="M687.8 514.5h130.6v147.6H687.8z" fill="#FFFFFF" /><path d="M687.8 514.5h130.6V547H687.8z" fill="" /><path d="M687.8 573.2h130.6v30.2H687.8z" fill="#D68231" /><path d="M702.9 647h100.4V529.6H702.9V647z m115.5 30.2H687.8c-8.3 0-15.1-6.8-15.1-15.1V514.5c0-8.3 6.8-15.1 15.1-15.1h130.6c8.3 0 15.1 6.8 15.1 15.1v147.6c0 8.3-6.8 15.1-15.1 15.1z" fill="#FFB819" /><path d="M958.7 871c0 5.5-4.5 9.9-9.9 9.9H72.3c-5.5 0-9.9-4.5-9.9-9.9v-35.5c0-5.5 4.5-9.9 9.9-9.9h876.5c5.5 0 9.9 4.5 9.9 9.9V871z" fill="#00AD68" /><path d="M361.8 825.5h297.4v55.4H361.8z" fill="#333E48" /><path d="M919.7 462.3c-5.8 0-11.7-1.6-17-4.9L510.6 213.2 118.4 457.5c-15.1 9.4-35 4.8-44.4-10.3-9.4-15.1-4.8-35 10.3-44.4l409.2-254.9c10.4-6.5 23.6-6.5 34.1 0l409.2 254.9c15.1 9.4 19.7 29.3 10.3 44.4-6.1 9.7-16.6 15.1-27.4 15.1z" fill="#FFB819" /><path d="M927.8 825.5c0-66.1-53.6-119.6-119.6-119.6-66.1 0-119.6 53.6-119.6 119.6h239.2zM93.3 825.5c0-66.1 53.6-119.6 119.6-119.6s119.6 53.6 119.6 119.6H93.3z" fill="#218649" /><path d="M209.8 512.5h130.6v147.6H209.8z" fill="#FFFFFF" /><path d="M209.8 512.5h130.6V545H209.8z" fill="" /><path d="M209.8 571.2h130.6v30.2H209.8z" fill="#D68231" /><path d="M224.9 645h100.4V527.6H224.9V645z m115.5 30.2H209.8c-8.3 0-15.1-6.8-15.1-15.1V512.5c0-8.3 6.8-15.1 15.1-15.1h130.6c8.3 0 15.1 6.8 15.1 15.1v147.6c0 8.3-6.8 15.1-15.1 15.1z" fill="#FFB819" /></svg>