<?xml version="1.0" encoding="iso-8859-1"?>
<!-- Uploaded to: SVG Repo, www.svgrepo.com, Generator: SVG Repo Mixer Tools -->
<!DOCTYPE svg PUBLIC "-//W3C//DTD SVG 1.1//EN" "http://www.w3.org/Graphics/SVG/1.1/DTD/svg11.dtd">
<svg version="1.1" id="Capa_1" xmlns="http://www.w3.org/2000/svg" xmlns:xlink="http://www.w3.org/1999/xlink" 
	 viewBox="0 0 58 58" xml:space="preserve">
<rect x="9" y="1" style="fill:#553323;stroke:#774836;stroke-width:2;stroke-linejoin:round;stroke-miterlimit:10;" width="40" height="54"/>
<rect x="11" y="55" style="fill:#382016;" width="7" height="3"/>
<rect x="40" y="55" style="fill:#382016;" width="7" height="3"/>
<rect x="9" y="36" style="fill:#875A48;stroke:#774836;stroke-width:2;stroke-linejoin:round;stroke-miterlimit:10;" width="20" height="19"/>
<rect x="29" y="36" style="fill:#875A48;stroke:#774836;stroke-width:2;stroke-linejoin:round;stroke-miterlimit:10;" width="20" height="19"/>
<rect x="9" y="13" style="fill:#553323;stroke:#774836;stroke-width:2;stroke-linejoin:round;stroke-miterlimit:10;" width="40" height="12"/>
<path style="fill:#F0D64E;" d="M34,45c-0.552,0-1-0.447-1-1v-3c0-0.553,0.448-1,1-1s1,0.447,1,1v3C35,44.553,34.552,45,34,45z"/>
<path style="fill:#F0D64E;" d="M24,45c-0.552,0-1-0.447-1-1v-3c0-0.553,0.448-1,1-1s1,0.447,1,1v3C25,44.553,24.552,45,24,45z"/>
<rect x="43" y="3" style="fill:#61B872;" width="3" height="9"/>
<rect x="40" y="3" style="fill:#3D6F44;" width="3" height="9"/>
<rect x="37" y="3" style="fill:#26B99A;" width="3" height="9"/>
<rect x="34" y="3" style="fill:#1A9172;" width="3" height="9"/>
<rect x="45" y="15" style="fill:#ED8A19;" width="3" height="9"/>
<rect x="42" y="15" style="fill:#EBBA16;" width="3" height="9"/>
<rect x="39" y="15" style="fill:#EFCE4A;" width="3" height="9"/>
<rect x="36" y="15" style="fill:#88C057;" width="3" height="9"/>
<rect x="33" y="15" style="fill:#A4D873;" width="3" height="9"/>
<rect x="30" y="15" style="fill:#F2ECBF;" width="3" height="9"/>
<rect x="13" y="21" style="fill:#B02721;" width="9" height="3"/>
<rect x="13" y="18" style="fill:#DD352E;" width="9" height="3"/>
<rect x="37" y="32" style="fill:#75348B;" width="9" height="3"/>
<rect x="37" y="29" style="fill:#814494;" width="9" height="3"/>
<polygon style="fill:#88C057;" points="31,12 28,12 31,4 34,4 "/>
</svg>