<?xml version="1.0" encoding="UTF-8" standalone="no"?>
<!-- Uploaded to: SVG Repo, www.svgrepo.com, Generator: SVG Repo Mixer Tools -->

<svg
   fill="#000000"
   version="1.1"
   id="Capa_1"
   width="800px"
   height="800px"
   viewBox="0 0 142.514 142.514"
   xml:space="preserve"
   sodipodi:docname="Math2.svg"
   inkscape:version="1.2.2 (b0a8486541, 2022-12-01)"
   xmlns:inkscape="http://www.inkscape.org/namespaces/inkscape"
   xmlns:sodipodi="http://sodipodi.sourceforge.net/DTD/sodipodi-0.dtd"
   xmlns="http://www.w3.org/2000/svg"
   xmlns:svg="http://www.w3.org/2000/svg"><defs
   id="defs15190" /><sodipodi:namedview
   id="namedview15188"
   pagecolor="#505050"
   bordercolor="#ffffff"
   borderopacity="1"
   inkscape:showpageshadow="0"
   inkscape:pageopacity="0"
   inkscape:pagecheckerboard="1"
   inkscape:deskcolor="#505050"
   showgrid="false"
   inkscape:zoom="0.295"
   inkscape:cx="-71.186441"
   inkscape:cy="400"
   inkscape:window-width="1920"
   inkscape:window-height="1049"
   inkscape:window-x="0"
   inkscape:window-y="0"
   inkscape:window-maximized="1"
   inkscape:current-layer="Capa_1" />
<g
   id="g15185"
   style="fill:#2ca9bc;fill-opacity:1;stroke:#000000;stroke-opacity:1;stroke-width:1.1246136;stroke-dasharray:none">
	<g
   id="g15183"
   style="fill:#2ca9bc;fill-opacity:1;stroke:#000000;stroke-opacity:1;stroke-width:1.1246136;stroke-dasharray:none">
		<path
   d="M34.367,142.514c11.645,0,17.827-10.4,19.645-16.544c0.029-0.097,0.056-0.196,0.081-0.297    c4.236-17.545,10.984-45.353,15.983-65.58h17.886c3.363,0,6.09-2.726,6.09-6.09c0-3.364-2.727-6.09-6.09-6.09H73.103    c1.6-6.373,2.771-10.912,3.232-12.461l0.512-1.734c1.888-6.443,6.309-21.535,13.146-21.535c6.34,0,7.285,9.764,7.328,10.236    c0.27,3.343,3.186,5.868,6.537,5.579c3.354-0.256,5.864-3.187,5.605-6.539C108.894,14.036,104.087,0,89.991,0    C74.03,0,68.038,20.458,65.159,30.292l-0.49,1.659c-0.585,1.946-2.12,7.942-4.122,15.962H39.239c-3.364,0-6.09,2.726-6.09,6.09    c0,3.364,2.726,6.09,6.09,6.09H57.53c-6.253,25.362-14.334,58.815-15.223,62.498c-0.332,0.965-2.829,7.742-7.937,7.742    c-7.8,0-11.177-10.948-11.204-11.03c-0.936-3.229-4.305-5.098-7.544-4.156c-3.23,0.937-5.092,4.314-4.156,7.545    C13.597,130.053,20.816,142.514,34.367,142.514z"
   id="path15179"
   style="fill:#2ca9bc;fill-opacity:1;stroke:#000000;stroke-opacity:1;stroke-width:1.1246136;stroke-dasharray:none" />
		<path
   d="M124.685,126.809c3.589,0,6.605-2.549,6.605-6.607c0-1.885-0.754-3.586-2.359-5.474l-12.646-14.534l12.271-14.346    c1.132-1.416,1.98-2.926,1.98-4.908c0-3.59-2.927-6.231-6.703-6.231c-2.547,0-4.527,1.604-6.229,3.684l-9.531,12.454L98.73,78.391    c-1.89-2.357-3.869-3.682-6.7-3.682c-3.59,0-6.607,2.551-6.607,6.609c0,1.885,0.756,3.586,2.357,5.471l11.799,13.592    L86.647,115.67c-1.227,1.416-1.98,2.926-1.98,4.908c0,3.589,2.926,6.229,6.699,6.229c2.549,0,4.53-1.604,6.229-3.682l10.19-13.4    l10.193,13.4C119.872,125.488,121.854,126.809,124.685,126.809z"
   id="path15181"
   style="fill:#2ca9bc;fill-opacity:1;stroke:#000000;stroke-opacity:1;stroke-width:1.1246136;stroke-dasharray:none" />
	</g>
</g>
<g
   style="fill:#000000"
   id="g15318"
   transform="matrix(5.9380833,0,0,5.9380833,-284.42413,-130.43654)"><rect
     id="primary"
     x="2"
     y="2"
     width="20"
     height="20"
     rx="2"
     style="fill:#000000" /><path
     id="secondary"
     d="M 17,16 A 1,1 0 0 1 16,15 V 8.75 a 4.46,4.46 0 0 0 1.71,-1 1.0040916,1.0040916 0 1 0 -1.42,-1.42 2.37,2.37 0 0 1 -1.7,0.71 H 9.41 a 4.4,4.4 0 0 0 -3.12,1.25 1,1 0 0 0 0,1.42 1,1 0 0 0 1.42,0 A 2.31,2.31 0 0 1 9,9 v 5.28 a 2.81,2.81 0 0 1 -0.82,2 1,1 0 0 0 0,1.42 1,1 0 0 0 1.42,0 4.83,4.83 0 0 0 1.4,-3.38 V 9 h 3 v 6 a 3,3 0 0 0 3,3 1,1 0 0 0 0,-2 z"
     style="fill:#2ca9bc" /></g></svg>
