<?xml version="1.0" encoding="utf-8"?><!-- Uploaded to: SVG Repo, www.svgrepo.com, Generator: SVG Repo Mixer Tools -->
<svg fill="#000000" width="800px" height="800px" viewBox="0 0 24 24" id="pi-square" data-name="Flat Color" xmlns="http://www.w3.org/2000/svg" class="icon flat-color"><rect id="primary" x="2" y="2" width="20" height="20" rx="2" style="fill: rgb(0, 0, 0);"></rect><path id="secondary" d="M17,16a1,1,0,0,1-1-1V8.75a4.46,4.46,0,0,0,1.71-1,1,1,0,1,0-1.42-1.42,2.37,2.37,0,0,1-1.7.71H9.41A4.4,4.4,0,0,0,6.29,8.29a1,1,0,0,0,0,1.42,1,1,0,0,0,1.42,0A2.31,2.31,0,0,1,9,9v5.28a2.81,2.81,0,0,1-.82,2,1,1,0,0,0,0,1.42,1,1,0,0,0,1.42,0A4.83,4.83,0,0,0,11,14.32V9h3v6a3,3,0,0,0,3,3,1,1,0,0,0,0-2Z" style="fill: rgb(44, 169, 188);"></path></svg>