<?xml version="1.0" encoding="iso-8859-1"?>
<!-- Uploaded to: SVG Repo, www.svgrepo.com, Generator: SVG Repo Mixer Tools -->
<!DOCTYPE svg PUBLIC "-//W3C//DTD SVG 1.1//EN" "http://www.w3.org/Graphics/SVG/1.1/DTD/svg11.dtd">
<svg version="1.1" id="Capa_1" xmlns="http://www.w3.org/2000/svg" xmlns:xlink="http://www.w3.org/1999/xlink" 
	 viewBox="0 0 60 60" xml:space="preserve">
<g>
	<polygon style="fill:#556080;" points="31.01,33 27.511,51.944 34.225,45 43.511,47.656 	"/>
	<path style="fill:#7383BF;" d="M32.121,28.879c-0.256,0-0.512-0.098-0.707-0.293c-0.391-0.391-0.391-1.023,0-1.414L52.293,6.293
		c0.391-0.391,1.023-0.391,1.414,0s0.391,1.023,0,1.414L32.828,28.586C32.632,28.781,32.376,28.879,32.121,28.879z"/>
	<path style="fill:#7383BF;" d="M7,54c-0.256,0-0.512-0.098-0.707-0.293c-0.391-0.391-0.391-1.023,0-1.414l20.88-20.88
		c0.391-0.391,1.023-0.391,1.414,0s0.391,1.023,0,1.414l-20.88,20.88C7.512,53.902,7.256,54,7,54z"/>
	<path style="fill:#26B99A;" d="M30,28c-0.552,0-1-0.447-1-1C29,14.869,19.131,5,7,5C6.448,5,6,4.553,6,4s0.448-1,1-1
		c13.233,0,24,10.767,24,24C31,27.553,30.552,28,30,28z"/>
	<path style="fill:#26B99A;" d="M53,57c-7.923,0-15.328-3.901-19.808-10.437c-0.313-0.455-0.196-1.078,0.259-1.391
		c0.457-0.311,1.078-0.194,1.39,0.26C38.949,51.424,45.737,55,53,55c0.553,0,1,0.447,1,1S53.553,57,53,57z"/>
	<g>
		<rect x="1" y="53" style="fill:#434C6D;" width="6" height="6"/>
		<path style="fill:#434C6D;" d="M8,60H0v-8h8V60z M2,58h4v-4H2V58z"/>
	</g>
	<g>
		<rect x="53" y="1" style="fill:#434C6D;" width="6" height="6"/>
		<path style="fill:#434C6D;" d="M60,8h-8V0h8V8z M54,6h4V2h-4V6z"/>
	</g>
	<g>
		<circle style="fill:#26B99A;" cx="30" cy="30" r="3"/>
		<path style="fill:#26B99A;" d="M30,34c-2.206,0-4-1.794-4-4s1.794-4,4-4s4,1.794,4,4S32.206,34,30,34z M30,28
			c-1.103,0-2,0.897-2,2s0.897,2,2,2s2-0.897,2-2S31.103,28,30,28z"/>
	</g>
	<g>
		<circle style="fill:#26B99A;" cx="56" cy="56" r="3"/>
		<path style="fill:#26B99A;" d="M56,60c-2.206,0-4-1.794-4-4s1.794-4,4-4s4,1.794,4,4S58.206,60,56,60z M56,54
			c-1.103,0-2,0.897-2,2s0.897,2,2,2s2-0.897,2-2S57.103,54,56,54z"/>
	</g>
	<g>
		<circle style="fill:#26B99A;" cx="4" cy="4" r="3"/>
		<path style="fill:#26B99A;" d="M4,8C1.794,8,0,6.206,0,4s1.794-4,4-4s4,1.794,4,4S6.206,8,4,8z M4,2C2.897,2,2,2.897,2,4
			s0.897,2,2,2s2-0.897,2-2S5.103,2,4,2z"/>
	</g>
</g>
</svg>