<?xml version="1.0" encoding="iso-8859-1"?>
<!-- Uploaded to: SVG Repo, www.svgrepo.com, Generator: SVG Repo Mixer Tools -->
<svg version="1.1" id="Layer_1" xmlns="http://www.w3.org/2000/svg" xmlns:xlink="http://www.w3.org/1999/xlink" 
	 viewBox="0 0 512 512" xml:space="preserve">
<rect x="110.49" y="17.828" style="fill:#B8E6FF;" width="291.034" height="348.524"/>
<rect x="110.49" y="366.345" style="fill:#4D4D4D;" width="291.034" height="127.821"/>
<rect x="169.765" y="308.855" style="fill:#CCCCCC;" width="172.46" height="57.488"/>
<path style="fill:#808080;" d="M342.232,375.329H169.768c-4.962,0-8.983-4.022-8.983-8.983v-57.488c0-4.961,4.021-8.983,8.983-8.983
	h172.463c4.962,0,8.983,4.022,8.983,8.983v57.488C351.215,371.307,347.194,375.329,342.232,375.329z M178.751,357.364h154.497
	v-39.522H178.751V357.364z"/>
<rect x="190.03" y="403.163" style="fill:#F7B239;" width="131.941" height="57.488"/>
<g>
	
		<rect x="247.558" y="72.616" transform="matrix(-0.7071 -0.7071 0.7071 -0.7071 518.8682 378.1208)" style="fill:#F2F2F2;" width="180.375" height="17.966"/>
	
		<rect x="320.496" y="42.158" transform="matrix(-0.7071 -0.7071 0.7071 -0.7071 591.3843 347.2419)" style="fill:#F2F2F2;" width="94.224" height="17.966"/>
	
		<rect x="97.716" y="324.048" transform="matrix(-0.7071 -0.7071 0.7071 -0.7071 11.7484 670.9286)" style="fill:#F2F2F2;" width="94.224" height="17.966"/>
</g>
<g>
	<path style="fill:#333333;" d="M321.972,394.178H190.028c-4.962,0-8.983,4.022-8.983,8.983v57.488c0,4.961,4.021,8.983,8.983,8.983
		h131.944c4.962,0,8.983-4.022,8.983-8.983v-57.488C330.955,398.2,326.934,394.178,321.972,394.178z M312.989,451.666H199.011
		v-39.522h113.979V451.666z"/>
	<path style="fill:#333333;" d="M503.017,485.188h-92.519V366.347V17.828c0-4.961-4.021-8.983-8.983-8.983h-291.03
		c-4.962,0-8.983,4.022-8.983,8.983v348.52v118.841H8.983c-4.962,0-8.983,4.022-8.983,8.983c0,4.961,4.021,8.983,8.983,8.983
		h494.034c4.962,0,8.983-4.022,8.983-8.983C512,489.211,507.979,485.188,503.017,485.188z M119.468,26.811h273.065v330.554H119.468
		V26.811z M119.468,375.329h273.065v109.858H119.468V375.329z"/>
</g>
<rect x="177.251" y="159.308" style="fill:#666666;" width="157.5" height="120.97"/>
<circle style="fill:#B8E6FF;" cx="256.001" cy="218.619" r="27.489"/>
<rect x="221.267" y="81.456" style="fill:#F7B239;" width="69.468" height="34.719"/>
<g>
	<path style="fill:#4D4D4D;" d="M177.251,289.259h157.5c4.962,0,8.983-4.022,8.983-8.983v-120.97c0-4.961-4.021-8.983-8.983-8.983
		h-35.033V81.455c0-4.961-4.021-8.983-8.983-8.983h-69.468c-4.961,0-8.983,4.022-8.983,8.983v68.869h-35.033
		c-4.961,0-8.983,4.022-8.983,8.983v120.97C168.268,285.237,172.29,289.259,177.251,289.259z M281.752,90.437v16.754H230.25V90.437
		H281.752z M230.25,125.157h51.502v25.166H230.25V125.157z M186.233,168.289h35.033h69.468h35.033v103.004H186.233L186.233,168.289
		L186.233,168.289z"/>
	<path style="fill:#4D4D4D;" d="M256.001,182.142c-20.111,0-36.472,16.361-36.472,36.471s16.361,36.472,36.472,36.472
		c20.11,0,36.471-16.361,36.471-36.472S276.11,182.142,256.001,182.142z M256.001,237.119c-10.205,0-18.506-8.301-18.506-18.506
		c0-10.203,8.301-18.505,18.506-18.505c10.205,0,18.505,8.301,18.505,18.505C274.505,228.817,266.205,237.119,256.001,237.119z"/>
</g>
<path style="fill:#B8E6FF;" d="M312.346,175.476H294.38c-4.962,0-8.983,4.022-8.983,8.983s4.021,8.983,8.983,8.983h17.966
	c4.962,0,8.983-4.022,8.983-8.983S317.308,175.476,312.346,175.476z"/>
<circle style="fill:#4D4D4D;" cx="214.679" cy="256.922" r="8.983"/>
</svg>