<?xml version="1.0" encoding="iso-8859-1"?>
<!-- Uploaded to: SVG Repo, www.svgrepo.com, Generator: SVG Repo Mixer Tools -->
<svg version="1.1" id="Layer_1" xmlns="http://www.w3.org/2000/svg" xmlns:xlink="http://www.w3.org/1999/xlink" 
	 viewBox="0 0 512.001 512.001" xml:space="preserve">
<rect x="222.955" y="316.701" style="fill:#B4BBCC;" width="66.084" height="186.902"/>
<rect x="222.955" y="316.701" style="opacity:0.1;enable-background:new    ;" width="29.128" height="186.902"/>
<path style="fill:#C7CFE2;" d="M256.002,449.879c-88.872,0-161.175-72.303-161.175-161.175v-24.166
	c0-10.828,8.778-19.605,19.605-19.605h283.139c10.828,0,19.605,8.778,19.605,19.605v24.166
	C417.177,377.576,344.874,449.879,256.002,449.879z M134.036,284.143v4.561c0,67.251,54.713,121.964,121.964,121.964
	s121.964-54.713,121.964-121.964v-4.561H134.036z"/>
<g style="opacity:0.1;">
	<path d="M118.352,288.704v-24.166c0-10.828,8.778-19.605,19.605-19.605h-23.527c-10.828,0-19.605,8.778-19.605,19.605v24.166
		c0,88.872,72.303,161.175,161.175,161.175c3.956,0,7.878-0.15,11.763-0.431C184.363,443.402,118.352,373.62,118.352,288.704z"/>
</g>
<path style="fill:#C7CFE2;" d="M256.002,8.402L256.002,8.402c-47.25,0-85.554,38.304-85.554,85.554v47.347l87.193,83.915
	l83.915-83.915V93.956C341.555,46.706,303.251,8.402,256.002,8.402z"/>
<path style="fill:#515262;" d="M170.447,141.303v147.401c0,47.25,38.304,85.554,85.554,85.554l0,0
	c47.25,0,85.554-38.303,85.554-85.554V141.303H170.447z"/>
<path style="opacity:0.1;enable-background:new    ;" d="M204.056,288.704V93.956c0-41.498,29.547-76.085,68.749-83.894
	c-5.435-1.083-11.052-1.66-16.805-1.66l0,0c-47.25,0-85.554,38.304-85.554,85.554v194.747c0,47.25,38.304,85.554,85.554,85.554l0,0
	c5.753,0,11.37-0.577,16.805-1.66C233.604,364.789,204.056,330.201,204.056,288.704z"/>
<path d="M397.571,236.53h-47.613v-23.66c0-4.64-3.761-8.402-8.402-8.402c-4.641,0-8.402,3.762-8.402,8.402v32.062v39.211
	c0,0,0,4.56,0,4.561c0,41.541-35.423,77.151-77.151,77.151c-41.809,0-77.151-35.06-77.151-77.151v-4.561v-39.211v-95.227h154.303
	v29.555c0,4.64,3.761,8.402,8.402,8.402c4.641,0,8.402-3.762,8.402-8.402v-37.957V93.956C349.958,42.148,307.809,0,256.002,0
	c-20.73,0-40.395,6.631-56.868,19.178c-3.693,2.812-4.406,8.083-1.594,11.776c2.81,3.691,8.083,4.405,11.776,1.594
	c13.522-10.299,29.666-15.743,46.687-15.743c42.542,0,77.151,34.61,77.151,77.151v38.944H178.849V93.956
	c0-13.559,3.587-26.913,10.373-38.621c2.328-4.014,0.959-9.155-3.055-11.483c-4.014-2.327-9.156-0.959-11.483,3.056
	c-8.269,14.264-12.639,30.533-12.639,47.048v47.347v95.227h-47.613c-15.444,0-28.008,12.564-28.008,28.008v24.166
	c0,45.347,17.741,87.994,49.956,120.085c3.287,3.274,8.607,3.266,11.882-0.024c3.275-3.288,3.265-8.607-0.024-11.882
	c-29.025-28.915-45.011-67.334-45.011-108.18v-24.166c0-6.177,5.026-11.203,11.203-11.203h47.613v22.406h-28.008
	c-4.641,0-8.402,3.762-8.402,8.402v4.561c0,23.156,6.24,46.121,18.014,66.065c11.47,19.428,27.988,35.763,47.545,47.014
	c23.188,13.34,50.227,19.139,76.862,16.708c44.438-4.057,84.535-31.656,104.536-71.494c9.057-18.037,13.775-38.113,13.775-58.293
	v-4.561c0-4.64-3.761-8.402-8.402-8.402h-28.008v-22.406h47.613c6.177,0,11.203,5.026,11.203,11.203v24.166
	c0,73.516-52.199,135.065-121.478,149.545c-19.107,3.992-38.982,4.236-58.199,0.844c-0.134-0.023-0.27-0.044-0.404-0.068
	c-19.639-3.564-38.429-10.965-55.368-21.911c-3.896-2.518-9.099-1.4-11.617,2.497c-2.518,3.898-1.402,9.099,2.497,11.618
	c15.585,10.071,32.581,17.431,50.352,21.912v50.459c0,4.64,3.761,8.402,8.402,8.402h66.084c4.641,0,8.402-3.762,8.402-8.402v-50.448
	c73.537-18.541,128.134-85.233,128.134-164.446v-24.166C425.579,249.094,413.015,236.53,397.571,236.53z M214.556,394.431
	c-41.052-16.148-70.507-55.54-72.052-101.886h19.638c1.428,35.306,22.421,65.646,52.414,80.453V394.431z M280.641,399.569
	c-0.105,0.023-0.212,0.045-0.318,0.068c-15.911,3.499-32.699,3.489-48.609,0.008c-0.118-0.026-0.235-0.049-0.353-0.075v-20.176
	c0.374,0.102,0.752,0.189,1.127,0.286c0.047,0.012,0.094,0.024,0.14,0.036c7.619,1.961,15.504,2.944,23.373,2.944
	c7.862,0,15.743-0.987,23.359-2.941c0.055-0.015,0.11-0.028,0.165-0.041c0.372-0.096,0.745-0.183,1.116-0.283v20.175H280.641z
	 M369.498,292.545c-1.546,46.346-31.001,85.739-72.053,101.886v-21.433c29.993-14.807,50.987-45.148,52.415-80.453H369.498z
	 M280.641,495.195h-49.279v-38.707c0.047,0.007,0.094,0.011,0.141,0.018c8.11,1.179,16.304,1.775,24.499,1.775
	c8.166,0,16.341-0.595,24.422-1.766c0.072-0.01,0.146-0.017,0.217-0.028V495.195z"/>
</svg>