<?xml version="1.0" encoding="iso-8859-1"?>
<!-- Uploaded to: SVG Repo, www.svgrepo.com, Generator: SVG Repo Mixer Tools -->
<svg version="1.1" id="Layer_1" xmlns="http://www.w3.org/2000/svg" xmlns:xlink="http://www.w3.org/1999/xlink" 
	 viewBox="0 0 512 512" xml:space="preserve">
<polygon style="fill:#ACAAB1;" points="235.825,336.098 235.825,378.652 235.825,429.103 235.825,471.426 277.382,471.426 
	277.382,336.098 "/>
<g>
	<rect x="194.073" y="461.885" style="fill:#3E3B43;" width="124.066" height="42.511"/>
	<path style="fill:#3E3B43;" d="M342.78,215.958v82.585c0,25.48-20.848,46.328-46.328,46.328h-80.697
		c-25.48,0-46.328-20.848-46.328-46.328v-82.585H342.78z"/>
</g>
<path style="opacity:0.47;fill:#2F2D30;enable-background:new    ;" d="M306.721,215.958v82.585
	c0,25.48-20.848,46.328-46.328,46.328h36.059c25.48,0,46.328-20.848,46.328-46.328v-82.585H306.721z"/>
<path style="fill:#ACAAB1;" d="M169.426,186.725v-79.759V53.932c0-25.48,20.848-46.328,46.328-46.328h80.697
	c25.48,0,46.328,20.848,46.328,46.328v132.793"/>
<path style="opacity:0.41;fill:#3E3B43;enable-background:new    ;" d="M295.837,7.604h-41.311c25.48,0,46.328,20.848,46.328,46.328
	v132.793h41.311V53.932C342.166,28.452,321.318,7.604,295.837,7.604z"/>
<rect x="235.206" y="242.282" style="fill:#FFD422;" width="41.791" height="62.614"/>
<g style="opacity:0.23;">
	<rect x="235.206" y="273.591" style="fill:#CCA400;" width="41.791" height="31.307"/>
</g>
<rect x="135.016" y="186.723" style="fill:#FFD422;" width="241.978" height="29.234"/>
<rect x="235.206" y="336.095" style="opacity:0.23;fill:#2F2D30;enable-background:new    ;" width="43.09" height="39.179"/>
<path d="M376.987,179.121h-26.603V53.932C350.384,24.194,326.191,0,296.452,0h-80.697c-29.739,0-53.932,24.194-53.932,53.932
	c0,4.199,3.404,7.604,7.604,7.604c4.2,0,7.604-3.405,7.604-7.604c0-21.353,17.373-38.724,38.724-38.724h80.697
	c21.353,0,38.724,17.372,38.724,38.724v125.189h-21.623V57.981c0-4.199-3.404-7.604-7.604-7.604s-7.604,3.405-7.604,7.604v121.14
	h-34.639V45.457c0-4.199-3.404-7.604-7.604-7.604c-4.2,0-7.604,3.405-7.604,7.604V179.12h-34.64V60.958
	c0-4.199-3.404-7.604-7.604-7.604c-4.2,0-7.604,3.405-7.604,7.604v118.163H177.03v-72.156c0-4.199-3.404-7.604-7.604-7.604
	c-4.2,0-7.604,3.405-7.604,7.604v72.156h-26.81c-4.2,0-7.604,3.405-7.604,7.604v29.234c0,4.199,3.404,7.604,7.604,7.604h26.81
	v74.981c0,29.739,24.194,53.932,53.932,53.932h12.466v28.74c0,4.199,3.404,7.604,7.604,7.604c4.2,0,7.604-3.405,7.604-7.604v-28.74
	h26.349v101.805h-26.349v-29.976c0-4.199-3.404-7.604-7.604-7.604c-4.2,0-7.604,3.405-7.604,7.604v29.976h-34.15
	c-4.2,0-7.604,3.405-7.604,7.604v42.511c0,4.199,3.404,7.604,7.604,7.604h124.062c4.2,0,7.604-3.405,7.604-7.604v-42.511
	c0-4.199-3.404-7.604-7.604-7.604h-33.147V352.475h11.466c29.739,0,53.932-24.194,53.932-53.932v-74.981h26.603
	c4.2,0,7.604-3.405,7.604-7.604v-29.234C384.591,182.525,381.188,179.121,376.987,179.121z M310.531,496.792H201.675v-27.303H310.53
	v27.303H310.531z M335.176,298.543c0,21.353-17.373,38.724-38.724,38.724h-80.697c-21.353,0-38.724-17.371-38.724-38.724v-74.981
	h158.146V298.543z M369.383,208.355h-26.593c-0.003,0-0.006,0-0.01,0s-0.006,0-0.01,0H169.437c-0.003,0-0.006,0-0.01,0
	c-0.004,0-0.006,0-0.01,0h-26.8v-14.026h226.767V208.355z"/>
<path d="M235.209,312.499h41.79c4.2,0,7.604-3.405,7.604-7.604v-62.614c0-4.199-3.404-7.604-7.604-7.604h-41.79
	c-4.2,0-7.604,3.405-7.604,7.604v62.614C227.605,309.095,231.008,312.499,235.209,312.499z M242.813,297.292v-16.099h26.582v16.099
	H242.813z M269.394,249.884v16.099h-26.582v-16.099L269.394,249.884L269.394,249.884z"/>
</svg>