<?xml version="1.0" encoding="iso-8859-1"?>
<!-- Uploaded to: SVG Repo, www.svgrepo.com, Generator: SVG Repo Mixer Tools -->
<svg height="800px" width="800px" version="1.1" id="Layer_1" xmlns="http://www.w3.org/2000/svg" xmlns:xlink="http://www.w3.org/1999/xlink" 
	 viewBox="0 0 482.4 482.4" xml:space="preserve">
<path style="fill:#999999;" d="M242,330.4c42.4,0,80-34.4,80-77.6V77.6C322,35.2,284.4,0,242,0s-80,34.4-80,77.6v175.2
	C162,295.2,199.6,330.4,242,330.4z"/>
<path style="fill:#686868;" d="M258,410.4c80-9.6,142.4-76.8,142.4-158.4c0-10.4-8-19.2-18.4-19.2s-18.4,8.8-18.4,19.2
	c0,67.2-54.4,121.6-121.6,121.6s-121.6-55.2-121.6-122.4c0-10.4-8.8-19.2-19.2-19.2S82,240.8,82,251.2c0,81.6,64,149.6,144,158.4
	V444c0,1.6-3.2-1.6-2.4,6.4h-24c-10.4,0-19.2,5.6-19.2,16s8.8,16,19.2,16h84.8c10.4,0,19.2-5.6,19.2-16s-8.8-16-19.2-16h-24
	c0-8-2.4-5.6-2.4-6.4L258,410.4L258,410.4z"/>
<path style="fill:#8C8B8B;" d="M322,205.6v-128C322,35.2,286,0,243.6,0c-34.4,0-67.2,23.2-77.6,54.4L322,205.6z"/>
<g>
	<path style="fill:#4F4F4F;" d="M284.4,451.2h-20l31.2,29.6c5.6-2.4,8-8,8-13.6C303.6,456.8,294.8,451.2,284.4,451.2z"/>
	<path style="fill:#4F4F4F;" d="M400.4,251.2c0-10.4-8-19.2-18.4-19.2s-18.4,8.8-18.4,19.2c0,67.2-54.4,121.6-121.6,121.6
		s-121.6-54.4-121.6-121.6c0-10.4-8.8-19.2-19.2-19.2S82,240.8,82,251.2c0,4.8,0,10.4,0.8,15.2L258,443.2v1.6v-34.4
		C338,400.8,400.4,333.6,400.4,251.2z"/>
</g>
<g>
	<circle style="fill:#C6C6C6;" cx="186" cy="139.2" r="4.8"/>
	<circle style="fill:#C6C6C6;" cx="186" cy="171.2" r="4.8"/>
	<circle style="fill:#C6C6C6;" cx="186" cy="203.2" r="4.8"/>
	<circle style="fill:#C6C6C6;" cx="214" cy="139.2" r="4.8"/>
	<circle style="fill:#C6C6C6;" cx="214" cy="171.2" r="4.8"/>
	<circle style="fill:#C6C6C6;" cx="214" cy="203.2" r="4.8"/>
	<circle style="fill:#C6C6C6;" cx="242" cy="139.2" r="4.8"/>
	<circle style="fill:#C6C6C6;" cx="242" cy="171.2" r="4.8"/>
	<circle style="fill:#C6C6C6;" cx="242" cy="203.2" r="4.8"/>
	<circle style="fill:#C6C6C6;" cx="270" cy="139.2" r="4.8"/>
	<circle style="fill:#C6C6C6;" cx="270" cy="171.2" r="4.8"/>
	<circle style="fill:#C6C6C6;" cx="270" cy="203.2" r="4.8"/>
	<circle style="fill:#C6C6C6;" cx="298" cy="139.2" r="4.8"/>
	<circle style="fill:#C6C6C6;" cx="298" cy="171.2" r="4.8"/>
	<circle style="fill:#C6C6C6;" cx="298" cy="203.2" r="4.8"/>
</g>
<circle style="fill:#EF358A;" cx="242" cy="55.2" r="13.6"/>
<path style="fill:#DD2A73;" d="M232.4,45.6c5.6-5.6,13.6-5.6,19.2,0s5.6,13.6,0,19.2"/>
</svg>