<?xml version="1.0" encoding="iso-8859-1"?>
<!-- Uploaded to: SVG Repo, www.svgrepo.com, Generator: SVG Repo Mixer Tools -->
<svg height="800px" width="800px" version="1.1" id="Layer_1" xmlns="http://www.w3.org/2000/svg" xmlns:xlink="http://www.w3.org/1999/xlink" 
	 viewBox="0 0 371.457 371.457" xml:space="preserve">
<g>
	<g>
		<path style="fill:#333E48;" d="M171.755,351.382V258.86c0-7.717,6.257-13.974,13.974-13.974s13.974,6.256,13.974,13.974v92.522
			H171.755z"/>
		<path style="fill:#7D868C;" d="M266.775,185.267c0,44.76-36.286,81.046-81.047,81.046s-81.047-36.286-81.047-81.046v-96.72
			c0-44.761,36.286-81.046,81.047-81.046s81.047,36.286,81.047,81.046V185.267z"/>
		<path style="opacity:0.1;fill:#FFFFFF;enable-background:new    ;" d="M250.252,39.505l-145.57,145.57v0.192
			c0,35.489,22.813,65.647,54.573,76.619l107.521-107.52v-65.82C266.775,70.113,260.617,53.121,250.252,39.505z"/>
		<path style="fill:#333E48;" d="M139.564,128.666h-34.883v16.481h34.883c4.551,0,8.24-3.69,8.24-8.241
			C147.805,132.356,144.115,128.666,139.564,128.666z M147.805,96.911c0-4.55-3.689-8.239-8.24-8.239h-34.883v16.48h34.883
			C144.115,105.151,147.805,101.462,147.805,96.911z M139.564,168.662h-34.883v16.479h34.883c4.551,0,8.24-3.689,8.24-8.24
			C147.805,172.351,144.115,168.662,139.564,168.662z"/>
		<path style="fill:#333E48;" d="M223.652,136.906c0,4.551,3.689,8.241,8.24,8.241h34.883v-16.481h-34.883
			C227.342,128.666,223.652,132.356,223.652,136.906z M231.893,105.151h34.883v-16.48h-34.883c-4.551,0-8.24,3.689-8.24,8.239
			C223.652,101.462,227.342,105.151,231.893,105.151z M223.652,176.901c0,4.551,3.689,8.24,8.24,8.24h34.883v-16.479h-34.883
			C227.342,168.662,223.652,172.351,223.652,176.901z"/>
		<path style="fill:#1E252B;" d="M251.131,363.958c0-13.891-11.261-25.152-25.151-25.152h-80.502
			c-13.891,0-25.151,11.261-25.151,25.152H251.131z"/>
	</g>
	<path style="fill:#071C2C;" d="M297.281,185.266c0-4.142-3.357-7.5-7.5-7.5s-7.5,3.358-7.5,7.5
		c0,45.861-32.141,84.353-75.079,94.143v-8.234c38.482-9.622,67.073-44.486,67.073-85.907v-96.72
		C274.275,39.722,234.554,0,185.729,0S97.182,39.722,97.182,88.546v96.72c0,41.421,28.591,76.285,67.073,85.907v8.234
		c-42.938-9.79-75.079-48.282-75.079-94.143c0-4.142-3.357-7.5-7.5-7.5c-4.143,0-7.5,3.358-7.5,7.5
		c0,54.166,38.809,99.432,90.079,109.471v36.57h-18.777c-18.004,0-32.651,14.647-32.651,32.652c0,4.142,3.357,7.5,7.5,7.5h130.805
		c4.143,0,7.5-3.358,7.5-7.5c0-18.004-14.647-32.652-32.651-32.652h-18.777v-36.57C258.473,284.697,297.281,239.432,297.281,185.266
		z M259.275,177.641h-27.383c-0.408,0-0.74-0.332-0.74-0.74s0.332-0.739,0.74-0.739h27.383V177.641z M259.275,137.647h-27.383
		c-0.408,0-0.74-0.333-0.74-0.741s0.332-0.74,0.74-0.74h27.383V137.647z M259.275,97.651h-27.383c-0.408,0-0.74-0.332-0.74-0.741
		c0-0.408,0.332-0.739,0.74-0.739h27.383V97.651z M112.182,96.171h27.383c0.408,0,0.74,0.332,0.74,0.739
		c0,0.409-0.332,0.741-0.74,0.741h-27.383C112.182,97.651,112.182,96.171,112.182,96.171z M112.182,136.166h27.383
		c0.408,0,0.74,0.332,0.74,0.74s-0.332,0.741-0.74,0.741h-27.383C112.182,137.647,112.182,136.166,112.182,136.166z
		 M112.182,176.162h27.383c0.408,0,0.74,0.332,0.74,0.739c0,0.408-0.332,0.74-0.74,0.74h-27.383
		C112.182,177.641,112.182,176.162,112.182,176.162z M225.979,346.306c7.053,0,13.153,4.158,15.978,10.152H129.5
		c2.824-5.994,8.925-10.152,15.978-10.152H225.979z M185.729,296.818c2.174,0,4.33-0.069,6.474-0.192v34.68h-12.947v-34.68
		C181.398,296.749,183.555,296.818,185.729,296.818z M179.255,281.596v-8.021c2.139,0.155,4.296,0.238,6.474,0.238
		s4.335-0.083,6.474-0.238v8.021c-2.141,0.143-4.298,0.222-6.474,0.222S181.396,281.739,179.255,281.596z M185.729,258.813
		c-38.064,0-69.465-29.068-73.177-66.171h27.013c8.679,0,15.74-7.061,15.74-15.74s-7.062-15.739-15.74-15.739h-27.383v-8.515h27.383
		c8.679,0,15.74-7.061,15.74-15.741c0-8.679-7.062-15.74-15.74-15.74h-27.383v-8.515h27.383c8.679,0,15.74-7.061,15.74-15.741
		c0-8.679-7.062-15.739-15.74-15.739h-27.013C116.264,44.068,147.664,15,185.729,15s69.465,29.068,73.177,66.171h-27.013
		c-8.679,0-15.74,7.061-15.74,15.739c0,8.68,7.062,15.741,15.74,15.741h27.383v8.515h-27.383c-8.679,0-15.74,7.061-15.74,15.74
		c0,8.68,7.062,15.741,15.74,15.741h27.383v8.515h-27.383c-8.679,0-15.74,7.061-15.74,15.739c0,8.679,7.062,15.74,15.74,15.74
		h27.013C255.193,229.745,223.793,258.813,185.729,258.813z"/>
</g>
</svg>