<?xml version="1.0" encoding="iso-8859-1"?>
<!-- Uploaded to: SVG Repo, www.svgrepo.com, Generator: SVG Repo Mixer Tools -->
<svg height="800px" width="800px" version="1.1" id="Layer_1" xmlns="http://www.w3.org/2000/svg" xmlns:xlink="http://www.w3.org/1999/xlink" 
	 viewBox="0 0 512 512" xml:space="preserve">
<path style="fill:#F1F2F2;" d="M439.28,512H72.72c-10.345,0-18.732-8.387-18.732-18.732V126.314
	c0-10.345,8.387-18.732,18.732-18.732h366.558c10.345,0,18.732,8.387,18.732,18.732v366.954C458.011,503.613,449.625,512,439.28,512
	z"/>
<path style="fill:#E6E7E8;" d="M439.28,107.582H256V512h183.28c10.345,0,18.732-8.387,18.732-18.732V126.314
	C458.011,115.969,449.625,107.582,439.28,107.582z"/>
<g>
	<path style="fill:#6A82A1;" d="M328.353,231.779H183.647c-10.345,0-18.732-8.387-18.732-18.732s8.387-18.732,18.732-18.732h144.705
		c10.345,0,18.732,8.387,18.732,18.732C347.085,223.392,338.698,231.779,328.353,231.779z"/>
	<path style="fill:#6A82A1;" d="M365.577,308.763H146.423c-10.345,0-18.732-8.387-18.732-18.732
		c0-10.345,8.387-18.732,18.732-18.732h219.153c10.345,0,18.732,8.387,18.732,18.732
		C384.308,300.377,375.922,308.763,365.577,308.763z"/>
	<path style="fill:#6A82A1;" d="M365.577,385.746H146.423c-10.345,0-18.732-8.387-18.732-18.732
		c0-10.345,8.387-18.732,18.732-18.732h219.153c10.345,0,18.732,8.387,18.732,18.732
		C384.308,377.36,375.922,385.746,365.577,385.746z"/>
	<path style="fill:#6A82A1;" d="M365.577,462.731H146.423c-10.345,0-18.732-8.387-18.732-18.732
		c0-10.345,8.387-18.732,18.732-18.732h219.153c10.345,0,18.732,8.387,18.732,18.732
		C384.308,454.344,375.922,462.731,365.577,462.731z"/>
</g>
<path style="fill:#FFAFAE;" d="M458.011,145.046H53.989V53.338c0-10.345,8.387-18.732,18.732-18.732h366.558
	c10.345,0,18.732,8.387,18.732,18.732v91.708H458.011z"/>
<g>
	<path style="fill:#FF9392;" d="M458.011,53.338c0-10.345-8.387-18.732-18.732-18.732H256v110.44h202.011V53.338z"/>
	<path style="fill:#FF9392;" d="M255.996,89.556c-10.345,0-18.732-8.387-18.732-18.732V18.732C237.265,8.387,245.651,0,255.996,0
		c10.345,0,18.732,8.387,18.732,18.732v52.093C274.728,81.169,266.341,89.556,255.996,89.556z"/>
	<path style="fill:#FF9392;" d="M161.842,89.556c-10.345,0-18.732-8.387-18.732-18.732V18.732C143.11,8.387,151.497,0,161.842,0
		s18.732,8.387,18.732,18.732v52.093C180.574,81.169,172.187,89.556,161.842,89.556z"/>
</g>
<g>
	<path style="fill:#36495E;" d="M328.353,194.315H256v37.463h72.353c10.345,0,18.732-8.387,18.732-18.732
		S338.698,194.315,328.353,194.315z"/>
	<path style="fill:#36495E;" d="M365.577,271.3H256v37.463h109.577c10.345,0,18.732-8.387,18.732-18.732
		C384.308,279.686,375.922,271.3,365.577,271.3z"/>
	<path style="fill:#36495E;" d="M365.577,348.282H256v37.463h109.577c10.345,0,18.732-8.387,18.732-18.732
		C384.308,356.669,375.922,348.282,365.577,348.282z"/>
	<path style="fill:#36495E;" d="M365.577,425.267H256v37.463h109.577c10.345,0,18.732-8.387,18.732-18.732
		C384.308,433.654,375.922,425.267,365.577,425.267z"/>
</g>
<g>
	<path style="fill:#FF7876;" d="M256,0v89.556c10.344-0.002,18.728-8.388,18.728-18.732V18.732C274.728,8.388,266.344,0.002,256,0z"
		/>
	<path style="fill:#FF7876;" d="M350.151,89.556c-10.345,0-18.732-8.387-18.732-18.732V18.732C331.419,8.387,339.806,0,350.151,0
		c10.345,0,18.732,8.387,18.732,18.732v52.093C368.882,81.169,360.495,89.556,350.151,89.556z"/>
</g>
</svg>