<?xml version="1.0" encoding="utf-8"?>
<!-- Uploaded to: SVG Repo, www.svgrepo.com, Generator: SVG Repo Mixer Tools -->
<svg version="1.1" id="Uploaded to svgrepo.com" xmlns="http://www.w3.org/2000/svg" xmlns:xlink="http://www.w3.org/1999/xlink" 
	 width="800px" height="800px" viewBox="0 0 32 32" xml:space="preserve">
<style type="text/css">
	.cubies_zevenentwintig{fill:#98D3BC;}
	.cubies_tien{fill:#C6B5A2;}
	.cubies_elf{fill:#E3D4C0;}
	.cubies_twaalf{fill:#FFF2DF;}
	.st0{fill:#2EB39A;}
	.st1{fill:#65C3AB;}
	.st2{fill:#CCE2CD;}
	.st3{fill:#A4C83F;}
	.st4{fill:#BCD269;}
	.st5{fill:#E8E8B5;}
	.st6{fill:#D1DE8B;}
	.st7{fill:#F2C99E;}
	.st8{fill:#C9483A;}
	.st9{fill:#D97360;}
	.st10{fill:#F9E0BD;}
	.st11{fill:#4C4842;}
	.st12{fill:#67625D;}
	.st13{fill:#837F79;}
	.st14{fill:#C9C6C0;}
	.st15{fill:#EDEAE5;}
	.st16{fill:#EC9B5A;}
	.st17{fill:#EDB57E;}
	.st18{fill:#E69D8A;}
	.st19{fill:#AB9784;}
	.st20{fill:#F2C7B5;}
	.st21{fill:#8E7866;}
	.st22{fill:#725A48;}
</style>
<g>
	<path class="cubies_elf" d="M29,32H3c-1.657,0-3-1.343-3-3V3c0-1.657,1.343-3,3-3h26c1.657,0,3,1.343,3,3v26
		C32,30.657,30.657,32,29,32z"/>
	<path class="cubies_twaalf" d="M27,32H3c-1.657,0-3-1.343-3-3V3c0-1.657,1.343-3,3-3h24c1.657,0,3,1.343,3,3v26
		C30,30.657,28.657,32,27,32z"/>
	<path class="cubies_zevenentwintig" d="M25,19H5c-0.552,0-1-0.448-1-1v-6c0-0.552,0.448-1,1-1h20c0.552,0,1,0.448,1,1v6
		C26,18.552,25.552,19,25,19z"/>
	<rect y="8" class="cubies_elf" width="30" height="1"/>
	<rect x="30" y="8" class="cubies_tien" width="2" height="1"/>
	<path class="cubies_tien" d="M13.5,22h-9C4.224,22,4,21.776,4,21.5S4.224,21,4.5,21h9c0.276,0,0.5,0.224,0.5,0.5S13.776,22,13.5,22
		z M14,23.5c0-0.276-0.224-0.5-0.5-0.5h-9C4.224,23,4,23.224,4,23.5S4.224,24,4.5,24h9C13.776,24,14,23.776,14,23.5z M14,27.5
		c0-0.276-0.224-0.5-0.5-0.5h-9C4.224,27,4,27.224,4,27.5S4.224,28,4.5,28h9C13.776,28,14,27.776,14,27.5z M26,21.5
		c0-0.276-0.224-0.5-0.5-0.5h-9c-0.276,0-0.5,0.224-0.5,0.5s0.224,0.5,0.5,0.5h9C25.776,22,26,21.776,26,21.5z M26,23.5
		c0-0.276-0.224-0.5-0.5-0.5h-9c-0.276,0-0.5,0.224-0.5,0.5s0.224,0.5,0.5,0.5h9C25.776,24,26,23.776,26,23.5z M14,25.5
		c0-0.276-0.224-0.5-0.5-0.5h-9C4.224,25,4,25.224,4,25.5S4.224,26,4.5,26h9C13.776,26,14,25.776,14,25.5z M26,25.5
		c0-0.276-0.224-0.5-0.5-0.5h-9c-0.276,0-0.5,0.224-0.5,0.5s0.224,0.5,0.5,0.5h9C25.776,26,26,25.776,26,25.5z M26,27.5
		c0-0.276-0.224-0.5-0.5-0.5h-9c-0.276,0-0.5,0.224-0.5,0.5s0.224,0.5,0.5,0.5h9C25.776,28,26,27.776,26,27.5z M22,4.5
		C22,4.224,21.776,4,21.5,4h-13C8.224,4,8,4.224,8,4.5S8.224,5,8.5,5h13C21.776,5,22,4.776,22,4.5z"/>
</g>
</svg>