<?xml version="1.0" encoding="iso-8859-1"?>
<!-- Uploaded to: SVG Repo, www.svgrepo.com, Generator: SVG Repo Mixer Tools -->
<svg version="1.1" id="Capa_1" xmlns="http://www.w3.org/2000/svg" xmlns:xlink="http://www.w3.org/1999/xlink" 
	 viewBox="0 0 52 52" xml:space="preserve">
<rect x="3" y="46" style="fill:#839594;" width="6" height="2"/>
<rect x="43" y="46" style="fill:#839594;" width="6" height="2"/>
<rect y="32" style="fill:#283238;" width="52" height="14"/>
<circle style="fill:#E7ECED;" cx="8" cy="39" r="3"/>
<g>
	<path style="fill:#38454F;" d="M47,35c-0.553,0-1,0.447-1,1v6c0,0.553,0.447,1,1,1s1-0.447,1-1v-6C48,35.447,47.553,35,47,35z"/>
	<path style="fill:#38454F;" d="M43,35c-0.553,0-1,0.447-1,1v6c0,0.553,0.447,1,1,1s1-0.447,1-1v-6C44,35.447,43.553,35,43,35z"/>
	<path style="fill:#38454F;" d="M39,35c-0.553,0-1,0.447-1,1v6c0,0.553,0.447,1,1,1s1-0.447,1-1v-6C40,35.447,39.553,35,39,35z"/>
	<path style="fill:#38454F;" d="M35,35c-0.553,0-1,0.447-1,1v6c0,0.553,0.447,1,1,1s1-0.447,1-1v-6C36,35.447,35.553,35,35,35z"/>
	<path style="fill:#38454F;" d="M31,35c-0.553,0-1,0.447-1,1v6c0,0.553,0.447,1,1,1s1-0.447,1-1v-6C32,35.447,31.553,35,31,35z"/>
	<path style="fill:#38454F;" d="M27,35c-0.553,0-1,0.447-1,1v6c0,0.553,0.447,1,1,1s1-0.447,1-1v-6C28,35.447,27.553,35,27,35z"/>
</g>
<rect y="18" style="fill:#38454F;" width="52" height="14"/>
<circle style="fill:#E7ECED;" cx="8" cy="25" r="3"/>
<g>
	<path style="fill:#283238;" d="M47,21c-0.553,0-1,0.447-1,1v6c0,0.553,0.447,1,1,1s1-0.447,1-1v-6C48,21.447,47.553,21,47,21z"/>
	<path style="fill:#283238;" d="M43,21c-0.553,0-1,0.447-1,1v6c0,0.553,0.447,1,1,1s1-0.447,1-1v-6C44,21.447,43.553,21,43,21z"/>
	<path style="fill:#283238;" d="M39,21c-0.553,0-1,0.447-1,1v6c0,0.553,0.447,1,1,1s1-0.447,1-1v-6C40,21.447,39.553,21,39,21z"/>
	<path style="fill:#283238;" d="M35,21c-0.553,0-1,0.447-1,1v6c0,0.553,0.447,1,1,1s1-0.447,1-1v-6C36,21.447,35.553,21,35,21z"/>
	<path style="fill:#283238;" d="M31,21c-0.553,0-1,0.447-1,1v6c0,0.553,0.447,1,1,1s1-0.447,1-1v-6C32,21.447,31.553,21,31,21z"/>
	<path style="fill:#283238;" d="M27,21c-0.553,0-1,0.447-1,1v6c0,0.553,0.447,1,1,1s1-0.447,1-1v-6C28,21.447,27.553,21,27,21z"/>
</g>
<rect y="4" style="fill:#283238;" width="52" height="14"/>
<circle style="fill:#E7ECED;" cx="8" cy="11" r="3"/>
<g>
	<path style="fill:#38454F;" d="M47,7c-0.553,0-1,0.447-1,1v6c0,0.553,0.447,1,1,1s1-0.447,1-1V8C48,7.447,47.553,7,47,7z"/>
	<path style="fill:#38454F;" d="M43,7c-0.553,0-1,0.447-1,1v6c0,0.553,0.447,1,1,1s1-0.447,1-1V8C44,7.447,43.553,7,43,7z"/>
	<path style="fill:#38454F;" d="M39,7c-0.553,0-1,0.447-1,1v6c0,0.553,0.447,1,1,1s1-0.447,1-1V8C40,7.447,39.553,7,39,7z"/>
	<path style="fill:#38454F;" d="M35,7c-0.553,0-1,0.447-1,1v6c0,0.553,0.447,1,1,1s1-0.447,1-1V8C36,7.447,35.553,7,35,7z"/>
	<path style="fill:#38454F;" d="M31,7c-0.553,0-1,0.447-1,1v6c0,0.553,0.447,1,1,1s1-0.447,1-1V8C32,7.447,31.553,7,31,7z"/>
	<path style="fill:#38454F;" d="M27,7c-0.553,0-1,0.447-1,1v6c0,0.553,0.447,1,1,1s1-0.447,1-1V8C28,7.447,27.553,7,27,7z"/>
</g>
<circle style="fill:#21C6F7;" cx="15" cy="39" r="2"/>
<circle style="fill:#21C6F7;" cx="15" cy="25" r="2"/>
<circle style="fill:#81EA1C;" cx="15" cy="11" r="2"/>
</svg>