<?xml version="1.0" encoding="iso-8859-1"?>

<!DOCTYPE svg PUBLIC "-//W3C//DTD SVG 1.1//EN" "http://www.w3.org/Graphics/SVG/1.1/DTD/svg11.dtd">
<!-- Uploaded to: SVG Repo, www.svgrepo.com, Generator: SVG Repo Mixer Tools -->
<svg version="1.1" id="_x36_" xmlns="http://www.w3.org/2000/svg" xmlns:xlink="http://www.w3.org/1999/xlink" 
	 viewBox="0 0 512 512"  xml:space="preserve">
<g>
	<g>
		<rect style="fill:#B5B5B5;" width="435.568" height="512"/>
		<rect x="26.286" y="7.752" style="fill:#26272B;" width="384.284" height="493.643"/>
		<g>
			<rect x="42.536" y="53.052" style="fill:#545469;" width="350.496" height="112.659"/>
			<g>
				<g>
					<rect x="73.204" y="70.89" style="fill:#CBDE80;" width="43.812" height="28.791"/>
					<rect x="134.541" y="70.89" style="fill:#CBDE80;" width="43.812" height="28.791"/>
					<rect x="195.878" y="70.89" style="fill:#649AA1;" width="43.812" height="28.791"/>
					<rect x="257.215" y="70.89" style="fill:#649AA1;" width="43.812" height="28.791"/>
					<rect x="318.551" y="70.89" style="fill:#CBDE80;" width="43.812" height="28.791"/>
				</g>
				<g>
					<rect x="73.204" y="119.083" style="fill:#649AA1;" width="43.812" height="28.791"/>
					<rect x="134.541" y="119.083" style="fill:#649AA1;" width="43.812" height="28.791"/>
					<rect x="195.878" y="119.083" style="fill:#CBDE80;" width="43.812" height="28.791"/>
					<rect x="257.215" y="119.083" style="fill:#649AA1;" width="43.812" height="28.791"/>
					<rect x="318.551" y="119.083" style="fill:#649AA1;" width="43.812" height="28.791"/>
				</g>
			</g>
		</g>
		<g>
			<rect x="42.536" y="203.264" style="fill:#545469;" width="350.496" height="112.659"/>
			<g>
				<g>
					<rect x="318.551" y="221.102" style="fill:#CBDE80;" width="43.812" height="28.791"/>
					<rect x="257.215" y="221.102" style="fill:#CBDE80;" width="43.812" height="28.791"/>
					<rect x="195.878" y="221.102" style="fill:#649AA1;" width="43.812" height="28.791"/>
					<rect x="134.541" y="221.102" style="fill:#649AA1;" width="43.812" height="28.791"/>
					<rect x="73.204" y="221.102" style="fill:#CBDE80;" width="43.812" height="28.791"/>
				</g>
				<g>
					<rect x="318.551" y="269.295" style="fill:#649AA1;" width="43.812" height="28.791"/>
					<rect x="257.215" y="269.295" style="fill:#649AA1;" width="43.812" height="28.791"/>
					<rect x="195.878" y="269.295" style="fill:#CBDE80;" width="43.812" height="28.791"/>
					<rect x="134.541" y="269.295" style="fill:#649AA1;" width="43.812" height="28.791"/>
					<rect x="73.204" y="269.295" style="fill:#649AA1;" width="43.812" height="28.791"/>
				</g>
			</g>
		</g>
		<g>
			<rect x="42.536" y="343.463" style="fill:#545469;" width="350.496" height="112.659"/>
			<g>
				<g>
					<rect x="73.204" y="409.493" style="fill:#CBDE80;" width="43.812" height="28.791"/>
					<rect x="134.541" y="409.493" style="fill:#CBDE80;" width="43.812" height="28.791"/>
					<rect x="195.878" y="409.493" style="fill:#649AA1;" width="43.812" height="28.791"/>
					<rect x="257.215" y="409.493" style="fill:#649AA1;" width="43.812" height="28.791"/>
					<rect x="318.551" y="409.493" style="fill:#CBDE80;" width="43.812" height="28.791"/>
				</g>
				<g>
					<rect x="73.204" y="361.3" style="fill:#649AA1;" width="43.812" height="28.791"/>
					<rect x="134.541" y="361.3" style="fill:#649AA1;" width="43.812" height="28.791"/>
					<rect x="195.878" y="361.3" style="fill:#CBDE80;" width="43.812" height="28.791"/>
					<rect x="257.215" y="361.3" style="fill:#649AA1;" width="43.812" height="28.791"/>
					<rect x="318.551" y="361.3" style="fill:#649AA1;" width="43.812" height="28.791"/>
				</g>
			</g>
		</g>
		<g>
			<rect x="13.745" y="80.121" style="fill:#26272B;" width="18.777" height="45.064"/>
			<rect x="401.168" y="80.121" style="fill:#26272B;" width="18.776" height="45.064"/>
		</g>
		<g>
			<rect x="13.745" y="237.062" style="fill:#26272B;" width="18.777" height="45.064"/>
			<rect x="401.168" y="237.062" style="fill:#26272B;" width="18.776" height="45.064"/>
		</g>
		<g>
			<rect x="13.745" y="378.825" style="fill:#26272B;" width="18.777" height="45.064"/>
			<rect x="401.168" y="378.825" style="fill:#26272B;" width="18.776" height="45.064"/>
		</g>
	</g>
	<polygon style="opacity:0.2;fill:#040000;" points="410.556,0.008 217.784,0.008 217.784,511.982 410.556,511.982 435.592,511.982 
		435.592,0.008 	"/>
</g>
</svg>