<?xml version="1.0" encoding="iso-8859-1"?>
<!-- Uploaded to: SVG Repo, www.svgrepo.com, Generator: SVG Repo Mixer Tools -->
<svg version="1.1" id="Layer_1" xmlns="http://www.w3.org/2000/svg" xmlns:xlink="http://www.w3.org/1999/xlink" 
	 viewBox="0 0 440 440" xml:space="preserve">
<g>
	<g id="XMLID_44_">
		<g>
			<rect x="60" y="390" style="fill:#E7ECED;" width="320" height="40"/>
			<rect x="60" y="250" style="fill:#E7ECED;" width="320" height="40"/>
			<rect x="60" y="110" style="fill:#E7ECED;" width="320" height="40"/>
			<polygon style="fill:#AFB6BB;" points="60,290 380,290 420,290 420,390 380,390 60,390 20,390 20,290 			"/>
			<polygon style="fill:#AFB6BB;" points="20,250 20,180 20,150 60,150 380,150 420,150 420,250 380,250 60,250 			"/>
			<polygon style="fill:#AFB6BB;" points="20,10 420,10 420,110 380,110 60,110 20,110 			"/>
		</g>
		<g>
			<path style="fill:#231F20;" d="M420,120c5.522,0,10-4.478,10-10V10c0-5.523-4.478-10-10-10H20c-5.523,0-10,4.477-10,10v100
				c0,5.522,4.477,10,10,10h30v20H20c-5.523,0-10,4.477-10,10v100c0,5.523,4.477,10,10,10h30v20H20c-5.523,0-10,4.478-10,10v100
				c0,5.522,4.477,10,10,10h30v30c0,5.522,4.478,10,10,10h320c5.522,0,10-4.478,10-10v-30h30c5.522,0,10-4.478,10-10V290
				c0-5.522-4.478-10-10-10h-30v-20h30c5.522,0,10-4.477,10-10V150c0-5.523-4.478-10-10-10h-30v-20H420z M30,20h380v80H30V20z
				 M370,420H70v-20h300V420z M410,380H30v-80h380V380z M370,280H70v-20h300V280z M410,240H30v-50h345v-20H30v-10h380V240z M370,140
				H70v-20h300V140z"/>
			<rect x="50" y="35" style="fill:#231F20;" width="160" height="20"/>
			<rect x="50" y="65" style="fill:#231F20;" width="160" height="20"/>
			<rect x="240" y="35" style="fill:#231F20;" width="20" height="50"/>
			<rect x="280" y="35" style="fill:#231F20;" width="20" height="50"/>
			<rect x="320" y="35" style="fill:#231F20;" width="20" height="50"/>
			<rect x="360" y="35" style="fill:#231F20;" width="20" height="50"/>
			<rect x="50" y="315" style="fill:#231F20;" width="160" height="20"/>
			<rect x="50" y="345" style="fill:#231F20;" width="160" height="20"/>
			<rect x="240" y="315" style="fill:#231F20;" width="20" height="50"/>
			<rect x="280" y="315" style="fill:#231F20;" width="20" height="50"/>
			<rect x="320" y="315" style="fill:#231F20;" width="20" height="50"/>
			<rect x="360" y="315" style="fill:#231F20;" width="20" height="50"/>
			<rect x="45" y="205" style="fill:#231F20;" width="25" height="20"/>
			<rect x="85" y="205" style="fill:#231F20;" width="25" height="20"/>
			<rect x="125" y="205" style="fill:#231F20;" width="25" height="20"/>
			<rect x="165" y="205" style="fill:#231F20;" width="25" height="20"/>
			<rect x="205" y="205" style="fill:#231F20;" width="25" height="20"/>
			<rect x="245" y="205" style="fill:#231F20;" width="25" height="20"/>
			<rect x="315" y="205" style="fill:#231F20;" width="80" height="20"/>
		</g>
	</g>
</g>
</svg>