<?xml version="1.0" encoding="iso-8859-1"?>
<!-- Uploaded to: SVG Repo, www.svgrepo.com, Generator: SVG Repo Mixer Tools -->
<svg height="800px" width="800px" version="1.1" id="Layer_1" xmlns="http://www.w3.org/2000/svg" xmlns:xlink="http://www.w3.org/1999/xlink" 
	 viewBox="0 0 512 512" xml:space="preserve">
<path style="fill:#919CB0;" d="M12.8,499.2v-128h486.4v128H12.8z"/>
<path style="fill:#BDC4D0;" d="M12.8,320V192h486.4v128H12.8z"/>
<path style="fill:#919CB0;" d="M12.8,140.8v-128h486.4v128H12.8z"/>
<g>
	<path style="fill:#573A32;" d="M486.4,358.4H25.6C11.46,358.4,0,369.86,0,384v102.4C0,500.54,11.46,512,25.6,512h460.8
		c14.14,0,25.6-11.46,25.6-25.6V384C512,369.86,500.54,358.4,486.4,358.4z M486.4,486.4H25.6V384h460.8V486.4z"/>
	<circle style="fill:#573A32;" cx="448" cy="422.4" r="12.8"/>
	<circle style="fill:#573A32;" cx="396.8" cy="422.4" r="12.8"/>
	<path style="fill:#573A32;" d="M64,460.8c7.074,0,12.8-5.726,12.8-12.8v-25.6c0-7.074-5.726-12.8-12.8-12.8
		c-7.074,0-12.8,5.726-12.8,12.8V448C51.2,455.074,56.926,460.8,64,460.8z"/>
	<path style="fill:#573A32;" d="M115.2,460.8c7.074,0,12.8-5.726,12.8-12.8v-25.6c0-7.074-5.726-12.8-12.8-12.8
		c-7.074,0-12.8,5.726-12.8,12.8V448C102.4,455.074,108.126,460.8,115.2,460.8z"/>
	<path style="fill:#573A32;" d="M166.4,460.8c7.074,0,12.8-5.726,12.8-12.8v-25.6c0-7.074-5.726-12.8-12.8-12.8
		s-12.8,5.726-12.8,12.8V448C153.6,455.074,159.326,460.8,166.4,460.8z"/>
	<path style="fill:#573A32;" d="M486.4,179.2H25.6C11.46,179.2,0,190.66,0,204.8v102.4c0,14.14,11.46,25.6,25.6,25.6h460.8
		c14.14,0,25.6-11.46,25.6-25.6V204.8C512,190.66,500.54,179.2,486.4,179.2z M486.4,307.2H25.6V204.8h460.8V307.2z"/>
	<circle style="fill:#573A32;" cx="448" cy="243.2" r="12.8"/>
	<circle style="fill:#573A32;" cx="396.8" cy="243.2" r="12.8"/>
	<path style="fill:#573A32;" d="M64,281.6c7.074,0,12.8-5.726,12.8-12.8v-25.6c0-7.074-5.726-12.8-12.8-12.8
		c-7.074,0-12.8,5.726-12.8,12.8v25.6C51.2,275.874,56.926,281.6,64,281.6z"/>
	<path style="fill:#573A32;" d="M115.2,281.6c7.074,0,12.8-5.726,12.8-12.8v-25.6c0-7.074-5.726-12.8-12.8-12.8
		c-7.074,0-12.8,5.726-12.8,12.8v25.6C102.4,275.874,108.126,281.6,115.2,281.6z"/>
	<path style="fill:#573A32;" d="M166.4,281.6c7.074,0,12.8-5.726,12.8-12.8v-25.6c0-7.074-5.726-12.8-12.8-12.8
		s-12.8,5.726-12.8,12.8v25.6C153.6,275.874,159.326,281.6,166.4,281.6z"/>
	<path style="fill:#573A32;" d="M486.4,0H25.6C11.46,0,0,11.46,0,25.6V128c0,14.14,11.46,25.6,25.6,25.6h460.8
		c14.14,0,25.6-11.46,25.6-25.6V25.6C512,11.46,500.54,0,486.4,0z M486.4,128H25.6V25.6h460.8V128z"/>
	<circle style="fill:#573A32;" cx="448" cy="64" r="12.8"/>
	<circle style="fill:#573A32;" cx="396.8" cy="64" r="12.8"/>
	<path style="fill:#573A32;" d="M64,102.4c7.074,0,12.8-5.726,12.8-12.8V64c0-7.074-5.726-12.8-12.8-12.8
		c-7.074,0-12.8,5.726-12.8,12.8v25.6C51.2,96.674,56.926,102.4,64,102.4z"/>
	<path style="fill:#573A32;" d="M115.2,102.4c7.074,0,12.8-5.726,12.8-12.8V64c0-7.074-5.726-12.8-12.8-12.8
		c-7.074,0-12.8,5.726-12.8,12.8v25.6C102.4,96.674,108.126,102.4,115.2,102.4z"/>
	<path style="fill:#573A32;" d="M166.4,102.4c7.074,0,12.8-5.726,12.8-12.8V64c0-7.074-5.726-12.8-12.8-12.8s-12.8,5.726-12.8,12.8
		v25.6C153.6,96.674,159.326,102.4,166.4,102.4z"/>
</g>
</svg>