<?xml version="1.0" encoding="iso-8859-1"?>
<!-- Uploaded to: SVG Repo, www.svgrepo.com, Generator: SVG Repo Mixer Tools -->
<svg height="800px" width="800px" version="1.1" id="Layer_1" xmlns="http://www.w3.org/2000/svg" xmlns:xlink="http://www.w3.org/1999/xlink" 
	 viewBox="0 0 512 512" xml:space="preserve">
<g>
	<path style="fill:#546A79;" d="M494.345,141.241H17.655C7.945,141.241,0,133.297,0,123.586V17.655C0,7.945,7.945,0,17.655,0h476.69
		C504.055,0,512,7.945,512,17.655v105.931C512,133.297,504.055,141.241,494.345,141.241"/>
	<path style="fill:#546A79;" d="M494.345,512H17.655C7.945,512,0,504.055,0,494.345V388.414c0-9.71,7.945-17.655,17.655-17.655
		h476.69c9.71,0,17.655,7.945,17.655,17.655v105.931C512,504.055,504.055,512,494.345,512"/>
	<path style="fill:#546A79;" d="M494.345,326.621H17.655C7.945,326.621,0,318.676,0,308.966V203.034
		c0-9.71,7.945-17.655,17.655-17.655h476.69c9.71,0,17.655,7.945,17.655,17.655v105.931
		C512,318.676,504.055,326.621,494.345,326.621"/>
</g>
<path style="fill:#ECBA16;" d="M370.759,282.483c0,5.297-3.531,8.828-8.828,8.828s-8.828-3.531-8.828-8.828
	c0-5.297,3.531-8.828,8.828-8.828S370.759,277.186,370.759,282.483"/>
<g>
	<path style="fill:#42B05C;" d="M406.069,282.483c0,5.297-3.531,8.828-8.828,8.828c-5.297,0-8.828-3.531-8.828-8.828
		c0-5.297,3.531-8.828,8.828-8.828C402.538,273.655,406.069,277.186,406.069,282.483"/>
	<path style="fill:#42B05C;" d="M300.138,282.483c0,5.297-3.531,8.828-8.828,8.828s-8.828-3.531-8.828-8.828
		c0-5.297,3.531-8.828,8.828-8.828S300.138,277.186,300.138,282.483"/>
</g>
<g>
	<path style="fill:#ECBA16;" d="M335.448,282.483c0,5.297-3.531,8.828-8.828,8.828s-8.828-3.531-8.828-8.828
		c0-5.297,3.531-8.828,8.828-8.828S335.448,277.186,335.448,282.483"/>
	<path style="fill:#ECBA16;" d="M229.517,282.483c0,5.297-3.531,8.828-8.828,8.828s-8.828-3.531-8.828-8.828
		c0-5.297,3.531-8.828,8.828-8.828S229.517,277.186,229.517,282.483"/>
	<path style="fill:#ECBA16;" d="M264.828,282.483c0,5.297-3.531,8.828-8.828,8.828c-5.297,0-8.828-3.531-8.828-8.828
		c0-5.297,3.531-8.828,8.828-8.828C261.297,273.655,264.828,277.186,264.828,282.483"/>
</g>
<path style="fill:#42B05C;" d="M194.207,282.483c0,5.297-3.531,8.828-8.828,8.828s-8.828-3.531-8.828-8.828
	c0-5.297,3.531-8.828,8.828-8.828S194.207,277.186,194.207,282.483"/>
<g>
	<path style="fill:#ECBA16;" d="M441.379,282.483c0,5.297-3.531,8.828-8.828,8.828s-8.828-3.531-8.828-8.828
		c0-5.297,3.531-8.828,8.828-8.828S441.379,277.186,441.379,282.483"/>
	<path style="fill:#ECBA16;" d="M476.69,282.483c0,5.297-3.531,8.828-8.828,8.828s-8.828-3.531-8.828-8.828
		c0-5.297,3.531-8.828,8.828-8.828S476.69,277.186,476.69,282.483"/>
	<path style="fill:#ECBA16;" d="M388.414,256c0,5.297-3.531,8.828-8.828,8.828s-8.828-3.531-8.828-8.828
		c0-5.297,3.531-8.828,8.828-8.828S388.414,250.703,388.414,256"/>
	<path style="fill:#ECBA16;" d="M423.724,256c0,5.297-3.531,8.828-8.828,8.828s-8.828-3.531-8.828-8.828
		c0-5.297,3.531-8.828,8.828-8.828S423.724,250.703,423.724,256"/>
	<path style="fill:#ECBA16;" d="M317.793,256c0,5.297-3.531,8.828-8.828,8.828s-8.828-3.531-8.828-8.828
		c0-5.297,3.531-8.828,8.828-8.828S317.793,250.703,317.793,256"/>
</g>
<g>
	<path style="fill:#42B05C;" d="M353.103,256c0,5.297-3.531,8.828-8.828,8.828s-8.828-3.531-8.828-8.828
		c0-5.297,3.531-8.828,8.828-8.828S353.103,250.703,353.103,256"/>
	<path style="fill:#42B05C;" d="M247.172,256c0,5.297-3.531,8.828-8.828,8.828s-8.828-3.531-8.828-8.828
		c0-5.297,3.531-8.828,8.828-8.828S247.172,250.703,247.172,256"/>
</g>
<g>
	<path style="fill:#ECBA16;" d="M282.483,256c0,5.297-3.531,8.828-8.828,8.828c-5.297,0-8.828-3.531-8.828-8.828
		c0-5.297,3.531-8.828,8.828-8.828C278.952,247.172,282.483,250.703,282.483,256"/>
	<path style="fill:#ECBA16;" d="M211.862,256c0,5.297-3.531,8.828-8.828,8.828s-8.828-3.531-8.828-8.828
		c0-5.297,3.531-8.828,8.828-8.828S211.862,250.703,211.862,256"/>
</g>
<path style="fill:#42B05C;" d="M459.034,256c0,5.297-3.531,8.828-8.828,8.828c-5.297,0-8.828-3.531-8.828-8.828
	c0-5.297,3.531-8.828,8.828-8.828C455.503,247.172,459.034,250.703,459.034,256"/>
<path style="fill:#DD342E;" d="M476.69,238.345H176.552c-5.297,0-8.828-3.531-8.828-8.828s3.531-8.828,8.828-8.828H476.69
	c5.297,0,8.828,3.531,8.828,8.828S481.986,238.345,476.69,238.345"/>
<path style="fill:#ECBA16;" d="M35.31,282.483h105.931v-52.966H35.31V282.483z"/>
<g>
	<path style="fill:#38454F;" d="M26.483,185.379h459.034v-44.138H26.483V185.379z"/>
	<path style="fill:#38454F;" d="M26.483,370.759h459.034v-44.138H26.483V370.759z"/>
</g>
</svg>