<?xml version="1.0" encoding="iso-8859-1"?>
<!-- Uploaded to: SVG Repo, www.svgrepo.com, Generator: SVG Repo Mixer Tools -->
<svg version="1.1" id="Layer_1" xmlns="http://www.w3.org/2000/svg" xmlns:xlink="http://www.w3.org/1999/xlink" 
	 viewBox="0 0 512 512" xml:space="preserve">
<rect x="50.637" y="125.659" style="fill:#B9B9B9;" width="410.723" height="260.68"/>
<path style="fill:#4D4D4D;" d="M461.363,181.917h-33.758v148.164h33.758c12.378,0,22.505-10.127,22.505-22.505V204.422
	C483.868,192.044,473.741,181.917,461.363,181.917z"/>
<path style="fill:#737373;" d="M450.11,204.422v103.153c0,12.378-10.127,22.505-22.505,22.505H50.639
	c-12.378,0-22.505-10.127-22.505-22.505V204.422c0-12.378,10.127-22.505,22.505-22.505h376.965
	C439.983,181.917,450.11,192.044,450.11,204.422z"/>
<rect x="95.648" y="239.12" style="fill:#B9B9B9;" width="208.175" height="33.758"/>
<circle style="fill:#FFE777;" cx="399.471" cy="255.999" r="16.879"/>
<g>
	<path style="fill:#4D4D4D;" d="M343.212,281.317c-4.662,0-8.44-3.778-8.44-8.44V239.12c0-4.662,3.778-8.44,8.44-8.44
		c4.662,0,8.44,3.778,8.44,8.44v33.758C351.651,277.54,347.873,281.317,343.212,281.317z"/>
	<path style="fill:#4D4D4D;" d="M461.363,363.836h-33.758V512h33.758c12.378,0,22.505-10.127,22.505-22.505V386.341
		C483.868,373.963,473.741,363.836,461.363,363.836z"/>
</g>
<path style="fill:#737373;" d="M450.11,386.341v103.154c0,12.378-10.127,22.505-22.505,22.505H50.639
	c-12.378,0-22.505-10.127-22.505-22.505V386.341c0-12.378,10.127-22.505,22.505-22.505h376.965
	C439.983,363.836,450.11,373.963,450.11,386.341z"/>
<rect x="95.648" y="421.042" style="fill:#B9B9B9;" width="208.175" height="33.758"/>
<circle style="fill:#FFE777;" cx="399.471" cy="437.921" r="16.879"/>
<g>
	<path style="fill:#4D4D4D;" d="M343.212,463.235c-4.662,0-8.44-3.778-8.44-8.44v-33.758c0-4.662,3.778-8.44,8.44-8.44
		c4.662,0,8.44,3.778,8.44,8.44v33.758C351.651,459.458,347.873,463.235,343.212,463.235z"/>
	<path style="fill:#4D4D4D;" d="M461.361,0h-33.758v148.164h33.758c12.378,0,22.505-10.127,22.505-22.505V22.505
		C483.866,10.127,473.739,0,461.361,0z"/>
</g>
<path style="fill:#737373;" d="M450.108,22.505v103.153c0,12.378-10.127,22.505-22.505,22.505H50.637
	c-12.378,0-22.505-10.127-22.505-22.505V22.505C28.132,10.127,38.259,0,50.637,0h376.965C439.98,0,450.108,10.127,450.108,22.505z"
	/>
<rect x="95.648" y="57.203" style="fill:#B9B9B9;" width="208.175" height="33.758"/>
<circle style="fill:#FFE777;" cx="399.471" cy="74.082" r="16.879"/>
<path style="fill:#4D4D4D;" d="M343.21,99.401c-4.662,0-8.44-3.778-8.44-8.44V57.203c0-4.662,3.778-8.44,8.44-8.44
	c4.662,0,8.44,3.778,8.44,8.44v33.758C351.649,95.623,347.87,99.401,343.21,99.401z"/>
</svg>