<?xml version="1.0" encoding="iso-8859-1"?>
<!-- Uploaded to: SVG Repo, www.svgrepo.com, Generator: SVG Repo Mixer Tools -->
<svg version="1.1" id="Layer_1" xmlns="http://www.w3.org/2000/svg" xmlns:xlink="http://www.w3.org/1999/xlink" 
	 viewBox="0 0 512 512" xml:space="preserve">
<rect x="57.191" y="129.819" style="fill:#B9B9B9;" width="397.615" height="252.36"/>
<path style="fill:#4D4D4D;" d="M454.809,184.281h-32.681v143.436h32.681c11.983,0,21.787-9.804,21.787-21.787v-99.861
	C476.596,194.085,466.792,184.281,454.809,184.281z"/>
<path style="fill:#737373;" d="M443.915,206.068v99.861c0,11.983-9.804,21.787-21.787,21.787H57.193
	c-11.983,0-21.787-9.804-21.787-21.787v-99.861c0-11.983,9.804-21.787,21.787-21.787h364.935
	C434.111,184.281,443.915,194.085,443.915,206.068z"/>
<rect x="100.766" y="239.659" style="fill:#B9B9B9;" width="201.531" height="32.681"/>
<circle style="fill:#FFE777;" cx="394.892" cy="255.999" r="16.34"/>
<path style="fill:#4D4D4D;" d="M454.809,360.394h-32.681V503.83h32.681c11.983,0,21.787-9.804,21.787-21.787v-99.861
	C476.596,370.198,466.792,360.394,454.809,360.394z"/>
<path style="fill:#737373;" d="M443.915,382.181v99.861c0,11.983-9.804,21.787-21.787,21.787H57.193
	c-11.983,0-21.787-9.804-21.787-21.787v-99.861c0-11.983,9.804-21.787,21.787-21.787h364.935
	C434.111,360.394,443.915,370.198,443.915,382.181z"/>
<rect x="100.766" y="415.775" style="fill:#B9B9B9;" width="201.531" height="32.681"/>
<circle style="fill:#FFE777;" cx="394.892" cy="432.115" r="16.34"/>
<path style="fill:#4D4D4D;" d="M454.807,8.17h-32.681v143.436h32.681c11.983,0,21.787-9.804,21.787-21.787V29.957
	C476.594,17.974,466.789,8.17,454.807,8.17z"/>
<path style="fill:#737373;" d="M443.913,29.957v99.861c0,11.983-9.804,21.787-21.787,21.787H57.191
	c-11.983,0-21.787-9.804-21.787-21.787V29.957c0-11.983,9.804-21.787,21.787-21.787h364.935
	C434.109,8.17,443.913,17.974,443.913,29.957z"/>
<rect x="100.766" y="63.553" style="fill:#B9B9B9;" width="201.531" height="32.681"/>
<circle style="fill:#FFE777;" cx="394.892" cy="79.883" r="16.34"/>
<path d="M454.809,335.887h-321.36c-4.513,0-8.17-3.657-8.17-8.17s3.657-8.17,8.17-8.17h321.36c7.509,0,13.617-6.108,13.617-13.617
	v-99.861c0-7.509-6.108-13.617-13.617-13.617H57.193c-7.509,0-13.617,6.108-13.617,13.617v99.861
	c0,7.509,6.108,13.617,13.617,13.617h43.574c4.513,0,8.17,3.657,8.17,8.17s-3.657,8.17-8.17,8.17H57.193
	c-16.518,0-29.957-13.439-29.957-29.957v-99.861c0-16.518,13.439-29.957,29.957-29.957h397.615
	c16.518,0,29.957,13.439,29.957,29.957v99.861C484.766,322.447,471.327,335.887,454.809,335.887z"/>
<path d="M302.299,280.509c-4.513,0-8.17-3.657-8.17-8.17v-24.511H108.936v24.511c0,4.513-3.657,8.17-8.17,8.17
	c-4.513,0-8.17-3.657-8.17-8.17v-32.681c0-4.513,3.657-8.17,8.17-8.17h201.533c4.513,0,8.17,3.657,8.17,8.17v32.681
	C310.469,276.852,306.812,280.509,302.299,280.509z"/>
<path d="M394.896,280.509c-13.515,0-24.511-10.996-24.511-24.511c0-13.515,10.996-24.511,24.511-24.511
	c13.515,0,24.511,10.996,24.511,24.511C419.407,269.513,408.411,280.509,394.896,280.509z M394.896,247.829
	c-4.506,0-8.17,3.665-8.17,8.17s3.665,8.17,8.17,8.17s8.17-3.665,8.17-8.17S399.402,247.829,394.896,247.829z"/>
<path d="M340.428,280.509c-4.513,0-8.17-3.657-8.17-8.17v-32.681c0-4.513,3.657-8.17,8.17-8.17s8.17,3.657,8.17,8.17v32.681
	C348.599,276.852,344.941,280.509,340.428,280.509z"/>
<path d="M454.809,512H57.193c-16.518,0-29.957-13.439-29.957-29.957v-99.861c0-16.518,13.439-29.957,29.957-29.957h397.615
	c16.518,0,29.957,13.439,29.957,29.957v99.861C484.766,498.561,471.327,512,454.809,512z M57.193,368.564
	c-7.509,0-13.617,6.108-13.617,13.617v99.861c0,7.509,6.108,13.617,13.617,13.617h397.615c7.509,0,13.617-6.108,13.617-13.617
	v-99.861c0-7.509-6.108-13.617-13.617-13.617L57.193,368.564L57.193,368.564z"/>
<path d="M302.299,456.621c-4.513,0-8.17-3.657-8.17-8.17v-24.511H108.936v24.511c0,4.513-3.657,8.17-8.17,8.17
	c-4.513,0-8.17-3.657-8.17-8.17v-32.681c0-4.513,3.657-8.17,8.17-8.17h201.533c4.513,0,8.17,3.657,8.17,8.17v32.681
	C310.469,452.964,306.812,456.621,302.299,456.621z"/>
<path d="M394.896,456.621c-13.515,0-24.511-10.996-24.511-24.511c0-13.515,10.996-24.511,24.511-24.511
	c13.515,0,24.511,10.996,24.511,24.511C419.407,445.625,408.411,456.621,394.896,456.621z M394.896,423.941
	c-4.506,0-8.17,3.665-8.17,8.17c0,4.506,3.665,8.17,8.17,8.17s8.17-3.665,8.17-8.17
	C403.066,427.605,399.402,423.941,394.896,423.941z"/>
<path d="M340.428,456.621c-4.513,0-8.17-3.657-8.17-8.17v-32.681c0-4.513,3.657-8.17,8.17-8.17s8.17,3.657,8.17,8.17v32.681
	C348.599,452.964,344.941,456.621,340.428,456.621z"/>
<path d="M454.807,159.776H57.191c-16.518,0-29.957-13.439-29.957-29.957V29.957C27.234,13.439,40.673,0,57.191,0h397.615
	c16.518,0,29.957,13.439,29.957,29.957v99.861C484.764,146.337,471.324,159.776,454.807,159.776z M57.191,16.34
	c-7.509,0-13.617,6.108-13.617,13.617v99.861c0,7.509,6.108,13.617,13.617,13.617h397.615c7.509,0,13.617-6.108,13.617-13.617
	V29.957c0-7.509-6.108-13.617-13.617-13.617H57.191z"/>
<path d="M302.299,104.399c-4.513,0-8.17-3.657-8.17-8.17V71.718H108.936v24.511c0,4.513-3.657,8.17-8.17,8.17
	c-4.513,0-8.17-3.657-8.17-8.17V63.548c0-4.513,3.657-8.17,8.17-8.17h201.533c4.513,0,8.17,3.657,8.17,8.17v32.681
	C310.469,100.742,306.812,104.399,302.299,104.399z"/>
<path d="M394.894,104.399c-13.515,0-24.511-10.996-24.511-24.511s10.996-24.511,24.511-24.511c13.515,0,24.511,10.996,24.511,24.511
	S408.409,104.399,394.894,104.399z M394.894,71.718c-4.506,0-8.17,3.665-8.17,8.17c0,4.506,3.665,8.17,8.17,8.17
	c4.506,0,8.17-3.665,8.17-8.17C403.064,75.382,399.4,71.718,394.894,71.718z"/>
<path d="M340.426,104.399c-4.513,0-8.17-3.657-8.17-8.17V63.548c0-4.513,3.657-8.17,8.17-8.17s8.17,3.657,8.17,8.17v32.681
	C348.596,100.742,344.939,104.399,340.426,104.399z"/>
</svg>