<?xml version="1.0" encoding="iso-8859-1"?>
<!-- Uploaded to: SVG Repo, www.svgrepo.com, Generator: SVG Repo Mixer Tools -->
<svg height="800px" width="800px" version="1.1" id="Layer_1" xmlns="http://www.w3.org/2000/svg" xmlns:xlink="http://www.w3.org/1999/xlink" 
	 viewBox="0 0 512.001 512.001" xml:space="preserve">
<path style="fill:#384949;" d="M439.453,22.652L404.661,3.73c-1.141-0.621-2.422-0.947-3.722-0.947H112.173
	c-1.3,0-2.58,0.326-3.723,0.947l-34.79,18.922c-3.131,1.703-4.707,5.311-3.828,8.765c0.878,3.454,3.987,5.87,7.55,5.87h358.35
	c3.563,0,6.672-2.418,7.55-5.87C444.16,27.964,442.584,24.354,439.453,22.652z"/>
<g style="opacity:0.15;">
	<path style="fill:#231F20;" d="M88.196,36.148c-0.878-3.454,0.698-7.062,3.828-8.765l34.79-18.922
		c3.808-2.188,7.236-4.065,10.311-5.678h-24.953c-1.3,0-2.58,0.326-3.723,0.947l-34.79,18.922c-3.131,1.703-4.707,5.311-3.828,8.765
		c0.878,3.454,3.987,5.87,7.55,5.87H88.59C88.435,36.921,88.297,36.543,88.196,36.148z"/>
</g>
<g>
	<path style="fill:#384949;" d="M48.544,466.018v29.843c0,7.376,5.979,13.357,13.357,13.357h51.944
		c7.377,0,13.357-5.98,13.357-13.357v-29.844H48.544V466.018z"/>
	<path style="fill:#384949;" d="M385.911,466.018v29.843c0,7.376,5.979,13.357,13.357,13.357h51.944
		c7.377,0,13.357-5.98,13.357-13.357v-29.844h-78.657V466.018z"/>
</g>
<g>
	<path style="opacity:0.15;fill:#231F20;enable-background:new    ;" d="M66.353,495.861v-29.844H48.544v29.844
		c0,7.376,5.979,13.357,13.357,13.357h17.809C72.332,509.218,66.353,503.238,66.353,495.861z"/>
	<path style="opacity:0.15;fill:#231F20;enable-background:new    ;" d="M403.72,495.861v-29.844h-17.809v29.844
		c0,7.376,5.979,13.357,13.357,13.357h17.809C409.699,509.218,403.72,503.238,403.72,495.861z"/>
</g>
<path style="fill:#8AACAD;" d="M487.27,179.827H24.73C11.073,179.827,0,190.899,0,204.556v95.307c0,13.658,11.073,24.73,24.73,24.73
	H487.27c13.657,0,24.73-11.071,24.73-24.73v-95.307C512,190.899,500.927,179.827,487.27,179.827z"/>
<g>
	<circle style="fill:#547475;" cx="98.404" cy="252.205" r="39.324"/>
	<path style="fill:#547475;" d="M487.27,35.061H24.73C11.073,35.061,0,46.133,0,59.791v95.307c0,13.658,11.073,24.73,24.73,24.73
		H487.27c13.657,0,24.73-11.071,24.73-24.73V59.791C512,46.133,500.927,35.061,487.27,35.061z"/>
	<path style="fill:#547475;" d="M196.847,469.358h290.424c13.657,0,24.73-11.071,24.73-24.73v-95.307
		c0-13.658-11.073-24.73-24.73-24.73H24.73c-13.657,0-24.73,11.071-24.73,24.73v95.307c0,13.658,11.073,24.73,24.73,24.73h144.849"
		/>
</g>
<g>
	<path style="opacity:0.15;fill:#231F20;enable-background:new    ;" d="M17.809,299.862v-95.307c0-13.658,11.073-24.73,24.73-24.73
		H24.73C11.073,179.827,0,190.899,0,204.556v95.307c0,13.658,11.073,24.73,24.73,24.73h17.809
		C28.881,324.592,17.809,313.52,17.809,299.862z"/>
	<path style="opacity:0.15;fill:#231F20;enable-background:new    ;" d="M17.809,155.098V59.791c0-13.658,11.073-24.73,24.73-24.73
		H24.73C11.073,35.061,0,46.133,0,59.791v95.307c0,13.658,11.073,24.73,24.73,24.73h17.809
		C28.881,179.827,17.809,168.755,17.809,155.098z"/>
	<path style="opacity:0.15;fill:#231F20;enable-background:new    ;" d="M17.809,444.628v-95.307c0-13.658,11.073-24.73,24.73-24.73
		H24.73c-13.657,0-24.73,11.071-24.73,24.73v95.307c0,13.658,11.073,24.73,24.73,24.73h17.809
		C28.881,469.358,17.809,458.285,17.809,444.628z"/>
</g>
<g>
	<circle style="fill:#8AACAD;" cx="98.404" cy="107.443" r="39.324"/>
	<circle style="fill:#8AACAD;" cx="98.404" cy="396.979" r="39.324"/>
</g>
<g>
	<circle style="fill:#53CAF9;" cx="98.404" cy="107.443" r="15.212"/>
	<circle style="fill:#53CAF9;" cx="98.404" cy="252.205" r="15.212"/>
	<circle style="fill:#53CAF9;" cx="98.404" cy="396.979" r="15.212"/>
</g>
<g>
	<path style="fill:#DBDDDD;" d="M463.455,86.839H294.033c-4.61,0-8.348-3.738-8.348-8.348c0-4.61,3.738-8.348,8.348-8.348h169.422
		c4.61,0,8.348,3.738,8.348,8.348C471.802,83.102,468.064,86.839,463.455,86.839z"/>
	<path style="fill:#DBDDDD;" d="M463.455,115.792H294.033c-4.61,0-8.348-3.738-8.348-8.348c0-4.61,3.738-8.348,8.348-8.348h169.422
		c4.61,0,8.348,3.738,8.348,8.348C471.802,112.054,468.064,115.792,463.455,115.792z"/>
	<path style="fill:#DBDDDD;" d="M463.455,144.745H294.033c-4.61,0-8.348-3.738-8.348-8.348c0-4.61,3.738-8.348,8.348-8.348h169.422
		c4.61,0,8.348,3.738,8.348,8.348C471.802,141.008,468.064,144.745,463.455,144.745z"/>
	<path style="fill:#DBDDDD;" d="M463.455,231.604H294.033c-4.61,0-8.348-3.738-8.348-8.348c0-4.61,3.738-8.348,8.348-8.348h169.422
		c4.61,0,8.348,3.738,8.348,8.348C471.802,227.867,468.064,231.604,463.455,231.604z"/>
	<path style="fill:#DBDDDD;" d="M463.455,260.557H294.033c-4.61,0-8.348-3.738-8.348-8.348c0-4.61,3.738-8.348,8.348-8.348h169.422
		c4.61,0,8.348,3.738,8.348,8.348C471.802,256.82,468.064,260.557,463.455,260.557z"/>
	<path style="fill:#DBDDDD;" d="M463.455,289.51H294.033c-4.61,0-8.348-3.738-8.348-8.348s3.738-8.348,8.348-8.348h169.422
		c4.61,0,8.348,3.738,8.348,8.348S468.064,289.51,463.455,289.51z"/>
	<path style="fill:#DBDDDD;" d="M463.455,376.37H294.033c-4.61,0-8.348-3.738-8.348-8.348s3.738-8.348,8.348-8.348h169.422
		c4.61,0,8.348,3.738,8.348,8.348S468.064,376.37,463.455,376.37z"/>
	<path style="fill:#DBDDDD;" d="M463.455,405.322H294.033c-4.61,0-8.348-3.738-8.348-8.348s3.738-8.348,8.348-8.348h169.422
		c4.61,0,8.348,3.738,8.348,8.348S468.064,405.322,463.455,405.322z"/>
	<path style="fill:#DBDDDD;" d="M463.455,434.276H294.033c-4.61,0-8.348-3.738-8.348-8.348c0-4.61,3.738-8.348,8.348-8.348h169.422
		c4.61,0,8.348,3.738,8.348,8.348C471.802,430.538,468.064,434.276,463.455,434.276z"/>
</g>
<path style="fill:#8AACAD;" d="M155.666,115.792h-17.939c-4.611,0-8.348-3.738-8.348-8.348c0-4.61,3.736-8.348,8.348-8.348h17.939
	c4.611,0,8.348,3.738,8.348,8.348C164.014,112.054,160.277,115.792,155.666,115.792z"/>
<path style="fill:#547475;" d="M155.666,260.557h-17.939c-4.611,0-8.348-3.738-8.348-8.348c0-4.61,3.736-8.348,8.348-8.348h17.939
	c4.611,0,8.348,3.738,8.348,8.348C164.014,256.82,160.277,260.557,155.666,260.557z"/>
<g>
	<path style="fill:#8AACAD;" d="M155.666,405.322h-17.939c-4.611,0-8.348-3.738-8.348-8.348s3.736-8.348,8.348-8.348h17.939
		c4.611,0,8.348,3.738,8.348,8.348S160.277,405.322,155.666,405.322z"/>
	<path style="fill:#8AACAD;" d="M59.07,115.792H41.131c-4.611,0-8.348-3.738-8.348-8.348c0-4.61,3.736-8.348,8.348-8.348H59.07
		c4.611,0,8.348,3.738,8.348,8.348C67.418,112.054,63.682,115.792,59.07,115.792z"/>
</g>
<path style="fill:#547475;" d="M59.07,260.557H41.131c-4.611,0-8.348-3.738-8.348-8.348c0-4.61,3.736-8.348,8.348-8.348H59.07
	c4.611,0,8.348,3.738,8.348,8.348C67.418,256.82,63.682,260.557,59.07,260.557z"/>
<path style="fill:#8AACAD;" d="M59.07,405.322H41.131c-4.611,0-8.348-3.738-8.348-8.348s3.736-8.348,8.348-8.348H59.07
	c4.611,0,8.348,3.738,8.348,8.348S63.682,405.322,59.07,405.322z"/>
</svg>