<svg class="svg-icon" style="width: 1.1923828125em;height: 1em;vertical-align: middle;fill: currentColor;overflow: hidden;" viewBox="0 0 1221 1024" version="1.1" xmlns="http://www.w3.org/2000/svg"><path d="M20.166114 20.166114h1181.381399v983.667772H20.166114z" fill="#8FDFC9" /><path d="M268.864721 837.705435c0 13.864204-11.343439 25.207643-25.207643 25.207643H165.568841c-13.864204 0-25.207643-11.343439-25.207643-25.207643v-85.766485c0-13.864204 11.343439-25.207643 25.207643-25.207643H243.657078c13.864204 0 25.207643 11.343439 25.207643 25.207643v85.766485zM514.719905 837.705435c0 13.864204-11.343439 25.207643-25.207643 25.207643H411.424025c-13.864204 0-25.207643-11.343439-25.207643-25.207643v-85.766485c0-13.864204 11.343439-25.207643 25.207643-25.207643h78.083195c13.864204 0 25.207643 11.343439 25.207643 25.207643l0.005042 85.766485zM536.065737 579.508589c0 13.864204-11.343439 25.207643-25.207643 25.207643H150.444255c-13.864204 0-25.207643-11.343439-25.207643-25.207643V493.747146c0-13.864204 11.343439-25.207643 25.207643-25.207643h360.408797c13.864204 0 25.207643 11.343439 25.207643 25.207643l0.005042 85.761443z" fill="#6E6E96" opacity=".15" /><path d="M145.624554 136.912792h369.397842v411.217323H145.624554z" fill="#E3E3FC" /><path d="M515.022396 568.296229H145.624554a20.166114 20.166114 0 0 1-20.166115-20.166114V136.912792a20.166114 20.166114 0 0 1 20.166115-20.166114h369.397842a20.166114 20.166114 0 0 1 20.166115 20.166114v411.217323a20.166114 20.166114 0 0 1-20.166115 20.166114z m-349.231728-40.332229h329.065614V157.078907H165.790668v370.885093zM113.101653 671.834102h182.841118v40.332229H113.101653zM113.101653 745.521084h183.027654v40.332229H113.101653z" fill="#6E6E96" /><path d="M160.643268 651.587323H250.967294v162.347305H160.643268z" fill="#B7B7E0" /><path d="M160.643268 651.587323H250.967294v40.412894H160.643268z" fill="#D0D0FF" /><path d="M160.643268 765.687199H250.967294v48.247429H160.643268z" fill="#6E6E96" opacity=".25" /><path d="M250.967294 834.100742H160.643268a20.166114 20.166114 0 0 1-20.166115-20.166114v-162.347305a20.166114 20.166114 0 0 1 20.166115-20.166114H250.967294a20.166114 20.166114 0 0 1 20.166114 20.166114v162.347305a20.166114 20.166114 0 0 1-20.166114 20.166114z m-70.157912-40.332229h49.991798v-122.015075h-49.991798v122.015075z" fill="#6E6E96" /><path d="M1100.716941 848.206939c0 13.864204-11.343439 25.207643-25.207643 25.207643h-397.196832c-13.864204 0-25.207643-11.343439-25.207643-25.207643v-85.766485c0-13.864204 11.343439-25.207643 25.207643-25.207643h397.196832c13.864204 0 25.207643 11.343439 25.207643 25.207643v85.766485z" fill="#6E6E96" opacity=".15" /><path d="M358.785425 671.834102h182.846159v40.332229H358.785425zM358.785425 745.516043h183.027654v40.332229H358.785425z" fill="#6E6E96" /><path d="M406.32704 651.587323h90.329068v162.352346H406.32704z" fill="#B7B7E0" /><path d="M406.32704 651.587323h90.329068v40.412894H406.32704z" fill="#D0D0FF" /><path d="M406.32704 765.682157h90.329068v48.257512H406.32704z" fill="#6E6E96" opacity=".25" /><path d="M496.656108 834.105783H406.32704a20.166114 20.166114 0 0 1-20.166115-20.166114v-162.352346a20.166114 20.166114 0 0 1 20.166115-20.166114h90.329068a20.166114 20.166114 0 0 1 20.166114 20.166114v162.352346a20.166114 20.166114 0 0 1-20.166114 20.166114z m-70.162954-40.332228h49.996839v-122.020117h-49.996839v122.020117z" fill="#6E6E96" /><path d="M1018.413986 462.504793c0 17.181529-14.055782 31.237311-31.232269 31.237311h-229.626504c-17.181529 0-31.23227-14.055782-31.23227-31.237311V232.893414c0-17.181529 14.060823-31.242353 31.23227-31.242353h229.626504c17.176488 0 31.227228 14.065865 31.227228 31.242353l0.005041 229.611379z" fill="#E3E3FC" /><path d="M1018.413986 462.504793c0 17.181529-14.055782 31.237311-31.232269 31.237311h-229.626504c-17.181529 0-31.23227-14.055782-31.23227-31.237311V232.893414c0-17.181529 14.060823-31.242353 31.23227-31.242353h229.626504c17.176488 0 31.227228 14.065865 31.227228 31.242353l0.005041 229.611379z" fill="#E3E3FC" /><path d="M760.1516 489.996248V260.379828c0-22.812917 8.429436-31.242353 31.23227-31.242353h229.626504c1.673787 0 3.317326 0.176454 4.935656 0.433572-3.428239-13.546587-15.704362-23.654852-30.264296-23.654853h-229.626504c-17.181529 0-31.23227 14.060823-31.232269 31.247395v229.61642c0 15.5027 11.449311 28.424138 26.306696 30.808781a30.723075 30.723075 0 0 1-0.978057-7.592542z" fill="#FFFFFF" opacity=".25" /><path d="M987.181717 509.693501h-229.626504c-28.343474 0-51.398384-23.064993-51.398384-51.408468V228.668613c0-28.343474 23.05491-51.403426 51.398384-51.403426h229.626504c28.338432 0 51.393343 23.059952 51.393342 51.403426l0.005042 229.61642c0 28.348515-23.05491 51.408467-51.398384 51.408468z m-229.626504-292.096085c-5.999419 0-11.066155 5.071778-11.066155 11.071197v229.61642c0 6.004461 5.066736 11.076238 11.066155 11.076239h229.626504c5.999419 0 11.066155-5.071778 11.066155-11.076239l-0.005042-229.61642c0-5.999419-5.066736-11.071197-11.061113-11.071197h-229.626504z" fill="#6E6E96" /><path d="M987.181717 509.693501h-229.626504c-28.343474 0-51.398384-23.064993-51.398384-51.408468V228.668613c0-28.343474 23.05491-51.403426 51.398384-51.403426h229.626504c28.338432 0 51.393343 23.059952 51.393342 51.403426l0.005042 229.61642c0 28.348515-23.05491 51.408467-51.398384 51.408468z m-229.626504-292.096085c-5.999419 0-11.066155 5.071778-11.066155 11.071197v229.61642c0 6.004461 5.066736 11.076238 11.066155 11.076239h229.626504c5.999419 0 11.066155-5.071778 11.066155-11.076239l-0.005042-229.61642c0-5.999419-5.066736-11.071197-11.061113-11.071197h-229.626504z" fill="#6E6E96" /><path d="M982.402347 185.114847c0.826811 2.813173 1.295673 5.77255 1.295673 8.842842v229.61642c0 26.281489-4.960864 31.227228-31.237311 31.227228h-229.621462a30.884404 30.884404 0 0 1-8.832758-1.300714c3.846686 12.916396 15.8304 22.409595 29.936597 22.409594h229.61642c17.191613 0 31.252436-14.055782 31.252436-31.242352V215.056486c-0.005042-14.121322-9.508323-26.105035-22.409595-29.941639z" fill="#6E6E96" opacity=".15" /><path d="M814.227036 287.593999h112.698331v112.698331h-112.698331z" fill="#B7B7E0" /><path d="M926.925367 420.458444h-112.698331a20.166114 20.166114 0 0 1-20.166114-20.166114V287.593999a20.166114 20.166114 0 0 1 20.166114-20.166114h112.698331a20.166114 20.166114 0 0 1 20.166114 20.166114v112.698331a20.166114 20.166114 0 0 1-20.166114 20.166114z m-92.532216-40.332229h72.366101V307.760114h-72.366101v72.366101z" fill="#6E6E96" /><path d="M670.966959 653.603935h411.212281v172.193409h-411.212281z" fill="#E3E3FC" /><path d="M1082.17924 845.9685h-411.212281a20.166114 20.166114 0 0 1-20.166114-20.166114v-172.19341a20.166114 20.166114 0 0 1 20.166114-20.166114h411.212281a20.166114 20.166114 0 0 1 20.166115 20.166114V825.802386a20.166114 20.166114 0 0 1-20.166115 20.166114z m-391.046166-40.332229h370.880052v-131.86118h-370.880052V805.636271z" fill="#6E6E96" /><path d="M146.234579 915.581927h253.785508v88.251959H146.234579z" fill="#EBB5FF" /><path d="M400.020087 1024H146.234579a20.166114 20.166114 0 0 1-20.166115-20.166114v-88.251959a20.166114 20.166114 0 0 1 20.166115-20.166114h253.785508a20.166114 20.166114 0 0 1 20.166115 20.166114v88.251959a20.166114 20.166114 0 0 1-20.166115 20.166114z m-233.619394-40.332229h213.45328v-47.919729H166.400693v47.919729z" fill="#6E6E96" /><path d="M519.922762 915.581927h184.706484v88.251959h-184.706484z" fill="#FFE5B0" /><path d="M704.629246 1024h-184.706484a20.166114 20.166114 0 0 1-20.166114-20.166114v-88.251959a20.166114 20.166114 0 0 1 20.166114-20.166114h184.706484a20.166114 20.166114 0 0 1 20.166114 20.166114v88.251959a20.166114 20.166114 0 0 1-20.166114 20.166114z m-164.540369-40.332229h144.374254v-47.919729h-144.374254v47.919729zM515.022396 254.64761H145.624554a20.166114 20.166114 0 0 1 0-40.332229h369.397842a20.166114 20.166114 0 0 1 0 40.332229zM966.31483 845.9685a20.166114 20.166114 0 0 1-20.166115-20.166114v-172.19341a20.166114 20.166114 0 0 1 40.332229 0V825.802386a20.166114 20.166114 0 0 1-20.166114 20.166114z" fill="#6E6E96" /><path d="M1082.17924 757.403967h-411.212281a20.166114 20.166114 0 0 1 0-40.332229h411.212281a20.166114 20.166114 0 0 1 0 40.332229z" fill="#6E6E96" /><path d="M20.166114 20.166114h1181.381399v57.498634H20.166114z" fill="#FFFFFF" opacity=".25" /><path d="M422.671675 568.296229a20.166114 20.166114 0 0 1-20.166114-20.166114V136.912792a20.166114 20.166114 0 0 1 40.332229 0v411.217323a20.166114 20.166114 0 0 1-20.166115 20.166114z" fill="#6E6E96" /><path d="M20.166114 944.590883h1181.381399v45.303176H20.166114z" fill="#6E6E96" opacity=".15" /><path d="M326.8423 568.296229a20.166114 20.166114 0 0 1-20.166115-20.166114V136.912792a20.166114 20.166114 0 0 1 40.332229 0v411.217323a20.166114 20.166114 0 0 1-20.166114 20.166114zM232.74721 568.296229a20.166114 20.166114 0 0 1-20.166115-20.166114V136.912792a20.166114 20.166114 0 0 1 40.332229 0v411.217323a20.166114 20.166114 0 0 1-20.166114 20.166114z" fill="#6E6E96" /><path d="M145.624554 481.914678h369.397842v66.215437H145.624554z" fill="#6E6E96" opacity=".15" /><path d="M670.966959 784.285398h411.212281v27.86957h-411.212281z" fill="#6E6E96" opacity=".15" /><path d="M670.966959 700.65148h411.212281v36.591414h-411.212281z" fill="#6E6E96" opacity=".15" /><path d="M77.286634 193.83165H20.166114a20.166114 20.166114 0 0 1 0-40.332228h57.12052a20.166114 20.166114 0 0 1 0 40.332228zM77.286634 274.496108H20.166114a20.166114 20.166114 0 0 1 0-40.332229h57.12052a20.166114 20.166114 0 0 1 0 40.332229zM77.286634 355.160566H20.166114a20.166114 20.166114 0 0 1 0-40.332229h57.12052a20.166114 20.166114 0 0 1 0 40.332229zM77.286634 442.550423H20.166114a20.166114 20.166114 0 0 1 0-40.332229h57.12052a20.166114 20.166114 0 0 1 0 40.332229z" fill="#FFED4F" /><path d="M80.644292 691.264153H23.523772a20.166114 20.166114 0 0 1 0-40.332228h57.12052a20.166114 20.166114 0 0 1 0 40.332228zM80.644292 771.928611H23.523772a20.166114 20.166114 0 0 1 0-40.332229h57.12052a20.166114 20.166114 0 0 1 0 40.332229zM80.644292 859.318468H23.523772a20.166114 20.166114 0 0 1 0-40.332229h57.12052a20.166114 20.166114 0 0 1 0 40.332229z" fill="#FFED4F" /><path d="M1100.716941 1004.242249a20.166114 20.166114 0 0 1-20.166115-20.166114v-57.125561a20.166114 20.166114 0 0 1 40.332229 0v57.125561a20.166114 20.166114 0 0 1-20.166114 20.166114zM1006.697474 1004.242249a20.166114 20.166114 0 0 1-20.166115-20.166114v-57.125561a20.166114 20.166114 0 0 1 40.332229 0v57.125561a20.166114 20.166114 0 0 1-20.166114 20.166114zM912.68809 1004.242249a20.166114 20.166114 0 0 1-20.166115-20.166114v-57.125561a20.166114 20.166114 0 0 1 40.332229 0v57.125561a20.166114 20.166114 0 0 1-20.166114 20.166114zM810.829046 1004.242249a20.166114 20.166114 0 0 1-20.166115-20.166114v-57.125561a20.166114 20.166114 0 0 1 40.332229 0v57.125561a20.166114 20.166114 0 0 1-20.166114 20.166114z" fill="#FFED4F" /><path d="M336.688405 915.581927h63.336724v88.251959H336.688405z" fill="#6E6E96" opacity=".15" /><path d="M656.401983 915.581927h48.222221v88.251959h-48.222221z" fill="#6E6E96" opacity=".15" /><path d="M1151.132227 1024H70.581401c-38.920601 0-70.581401-31.6608-70.581401-70.581401V70.581401C0 31.6608 31.6608 0 70.581401 0h1080.550826c38.920601 0 70.581401 31.6608 70.5814 70.581401v882.837198c0 38.920601-31.6608 70.581401-70.5814 70.581401zM70.581401 40.332229c-16.682418 0-30.249172 13.566753-30.249172 30.249172v882.837198c0 16.682418 13.566753 30.249172 30.249172 30.249172h1080.550826c16.682418 0 30.249172-13.566753 30.249172-30.249172V70.581401c0-16.682418-13.566753-30.249172-30.249172-30.249172H70.581401z" fill="#6E6E96" /><path d="M145.624554 234.481496h369.397842v50.097669H145.624554z" fill="#6E6E96" opacity=".15" /><path d="M672.187009 201.393943h-40.332229v-83.185222h81.970214v40.332229h-41.637985zM1120.883055 201.393943h-40.332229v-42.852993h-41.648067v-40.332229h81.980296z" fill="#6E6E96" /><path d="M1120.883055 569.425532h-81.980296v-40.332229h41.648067v-42.852993h40.332229zM713.824994 569.425532H631.85478v-83.185222h40.332229v42.852993h41.637985z" fill="#6E6E96" /></svg>