<?xml version="1.0" ?><!DOCTYPE svg  PUBLIC '-//W3C//DTD SVG 1.1//EN'  'http://www.w3.org/Graphics/SVG/1.1/DTD/svg11.dtd'><svg width="256px" height="256px" viewBox="0 0 256 256" style="fill-rule:evenodd;clip-rule:evenodd;stroke-linejoin:round;stroke-miterlimit:1.41421;" version="1.1" xml:space="preserve" xmlns="http://www.w3.org/2000/svg" xmlns:serif="http://www.serif.com/" xmlns:xlink="http://www.w3.org/1999/xlink"><path d="M194.47,16.735c18.578,0.173 35.596,16.365 35.776,35.775c0.155,50.327 0.155,100.653 0,150.98c-0.172,18.552 -16.064,35.59 -35.776,35.775c-44.313,0.137 -88.627,0.137 -132.94,0c-18.568,-0.174 -35.595,-16.365 -35.776,-35.775c-0.156,-50.327 -0.156,-100.653 0,-150.98c0.173,-18.554 16.062,-35.592 35.776,-35.775c44.313,-0.138 88.627,-0.138 132.94,0Zm-132.707,11.999c-12.423,0.039 -23.887,10.708 -24.009,23.851c-0.156,50.326 -0.467,100.655 0.001,150.979c0.19,12.257 10.726,23.5 23.7,23.7c44.361,0.416 88.729,0.416 133.09,0c12.262,-0.189 23.498,-10.768 23.7,-23.7c0.467,-50.374 0.467,-100.754 0,-151.128c-0.191,-12.255 -10.767,-23.499 -23.7,-23.7c-44.259,-0.412 -88.522,-0.002 -132.782,-0.002Z" style="fill:#1d61e1;fill-rule:nonzero;"/><path d="M127.629,146.853c-20.743,0.136 -41.413,6.07 -60.255,16.735c-3.765,2.131 -6.721,6.141 -6.811,11.082c-0.066,6.013 -0.078,12.014 -0.047,18.018c0.094,6.018 4.354,11.435 9.505,11.554c38.651,0.298 77.305,0.298 115.957,0c4.967,-0.115 9.407,-5.293 9.505,-11.554c0.031,-6.017 0.065,-12.036 -0.001,-18.053c-0.148,-8.074 -8.027,-12.095 -15.631,-15.718c-16.294,-7.766 -33.738,-11.951 -51.239,-12.064c-0.328,-0.001 -0.656,-0.001 -0.983,0Z" style="fill:#1d61e1;fill-opacity:0.709804;"/><path d="M128.615,141.516c20.911,0.111 41.781,4.965 60.739,13.745c7.768,3.597 13.583,10.823 13.7,19.585c0.031,7.026 0.976,14.372 -1.104,20.519c-2.758,8.149 -10.818,14.097 -19.626,14.264c-36.132,0.229 -72.265,0.002 -108.397,0.002c-10.904,-0.069 -20.765,-9.405 -20.98,-20.73c-0.06,-9.483 -1,-19.595 4.372,-26.598c3.773,-4.918 9.872,-7.363 15.818,-9.795c17.541,-7.174 36.341,-11.025 55.478,-10.992Zm-0.961,12c-19.382,0.105 -38.694,4.666 -56.3,12.864c-3.518,1.638 -6.279,4.72 -6.364,8.519c-0.061,4.622 -0.073,9.235 -0.043,13.85c0.087,4.625 4.068,8.79 8.881,8.881c36.114,0.229 72.23,0.229 108.344,0c4.641,-0.088 8.79,-4.069 8.881,-8.881c0.03,-4.626 0.061,-9.252 0,-13.877c-0.138,-6.207 -7.501,-9.297 -14.605,-12.083c-15.224,-5.968 -31.523,-9.186 -47.876,-9.273c-0.306,0 -0.612,0 -0.918,0Z" style="fill:#1d61e1;"/><path d="M128.235,55.274c16.635,0.158 32.396,13.005 35.573,29.566c3.966,20.675 -12.859,43.209 -35.573,43.354c-17.349,0.11 -33.759,-13.741 -36.309,-31.143c-2.89,-19.723 12.958,-40.385 33.739,-41.704c0.855,-0.054 1.712,-0.076 2.57,-0.073Zm-0.394,12c-11.038,0.105 -21.466,8.466 -23.773,19.38c-2.326,11.002 4.014,23.216 14.419,27.62c11.413,4.83 26.114,-0.643 31.563,-11.945c6.939,-14.393 -3.787,-34.656 -21.574,-35.051c-0.212,-0.003 -0.423,-0.005 -0.635,-0.004Z" style="fill:#1d61e1;fill-rule:nonzero;"/></svg>