<?xml version="1.0" encoding="iso-8859-1"?>
<!-- Uploaded to: SVG Repo, www.svgrepo.com, Generator: SVG Repo Mixer Tools -->
<svg version="1.1" id="Layer_1" xmlns="http://www.w3.org/2000/svg" xmlns:xlink="http://www.w3.org/1999/xlink" 
	 viewBox="0 0 512 512" xml:space="preserve">
<path style="fill:#B3B3B3;" d="M273.258,379.305c-43.924,43.924-117.794,25.954-117.794,25.954s-9.238-37.988,1.737-75.688
	c4.326-14.864,11.792-29.681,24.217-42.106c8.467-8.467,23.262-22.664,42.072-39.978c11.907-10.952,25.436-23.17,40.001-35.951
	c81.612-71.741,195.621-161.89,239.372-153.676C514.851,121.746,317.182,335.381,273.258,379.305z"/>
<path style="fill:#4D4D4D;" d="M72.288,329.571c-35.146,0-63.654-28.519-63.654-63.665v-18.419H223.49
	c-18.81,17.314-33.604,31.511-42.072,39.978c-12.425,12.425-19.891,27.242-24.217,42.106H72.288z"/>
<path style="fill:#2BA5F7;" d="M232.797,84.976v11.09c0,10.734-8.697,19.419-19.419,19.419h-11.102H72.288h-11.09
	c-10.734,0-19.419-8.686-19.419-19.419v-11.09c0-10.722,8.686-19.419,19.419-19.419h152.18
	C224.1,65.557,232.797,74.254,232.797,84.976z"/>
<path style="fill:#2197D8;" d="M95.27,96.067v-11.09c0-10.722,8.686-19.419,19.419-19.419H61.198
	c-10.734,0-19.419,8.697-19.419,19.419v11.09c0,10.734,8.686,19.419,19.419,19.419h11.09h42.403
	C103.956,115.486,95.27,106.801,95.27,96.067z"/>
<rect x="72.288" y="115.481" style="fill:#2BA5F7;" width="129.988" height="49.929"/>
<rect x="72.288" y="115.481" style="fill:#2197D8;" width="51.666" height="49.929"/>
<path style="fill:#2BA5F7;" d="M263.48,211.525l0.012,0.012c-14.565,12.781-28.094,24.999-40.001,35.951H8.634V229.08
	c0-35.169,28.508-63.665,63.654-63.665h129.988h0.012C231.359,165.415,255.864,184.904,263.48,211.525z"/>
<path style="fill:#333333;" d="M135.953,329.571H72.288c-35.146,0-63.654-28.519-63.654-63.665v-18.419h63.665v18.419
	C72.299,301.052,100.807,329.571,135.953,329.571z"/>
<path style="fill:#2197D8;" d="M135.953,165.415c-35.146,0-63.654,28.496-63.654,63.665v18.407H8.634V229.08
	c0-35.169,28.508-63.665,63.654-63.665H135.953z"/>
<path style="fill:#FFFFFF;" d="M232.197,237.709c-4.765,0-8.628-3.863-8.628-8.628c0-14.489-11.782-26.276-26.265-26.276
	c-4.765,0-8.628-3.863-8.628-8.628c0-4.765,3.863-8.628,8.628-8.628c23.997,0,43.521,19.529,43.521,43.533
	C240.825,233.846,236.962,237.709,232.197,237.709z"/>
<path style="fill:#CCCCCC;" d="M502.863,57.862L155.465,405.26c0,0-9.238-37.988,1.737-75.688
	c4.326-14.864,11.792-29.681,24.217-42.106c8.467-8.467,23.262-22.664,42.072-39.978c11.907-10.952,25.436-23.17,40.001-35.951
	C345.103,139.795,459.112,49.646,502.863,57.862z"/>
<g>
	<circle style="fill:#FFFFFF;" cx="176.742" cy="140.446" r="8.628"/>
	<circle style="fill:#FFFFFF;" cx="208.954" cy="92.127" r="8.628"/>
</g>
<path style="fill:#333333;" d="M511.348,56.267c-0.655-3.498-3.392-6.234-6.89-6.89c-30.229-5.668-87.542,25.593-175.184,95.576
	c-21.104,16.852-42.336,34.723-62.237,52.026c-10.768-21.636-31.957-36.734-56.128-39.667v-33.195h2.47
	c15.465,0,28.048-12.582,28.048-28.048V84.982c0-15.465-12.582-28.048-28.048-28.048H61.194c-15.465,0-28.048,12.582-28.048,28.048
	V96.07c0,15.465,12.582,28.048,28.048,28.048h2.469v33.202C27.857,161.6,0,192.139,0,229.079v36.823
	c0,36.941,27.857,67.479,63.663,71.76v14.899c0,4.765,3.863,8.628,8.628,8.628c4.765,0,8.628-3.863,8.628-8.628v-14.367h65.314
	c-1.561,7.711-2.531,15.819-2.884,24.279c-0.742,17.803,1.386,32.659,2.73,39.97l-46.102,46.102c-3.37,3.37-3.37,8.833,0,12.202
	c1.684,1.684,3.893,2.528,6.101,2.528s4.417-0.842,6.101-2.528l46.102-46.102c6.272,1.153,18.095,2.883,32.574,2.883
	c2.396,0,4.868-0.048,7.396-0.153c33.548-1.398,61.596-12.452,81.113-31.97c25.855-25.855,85.751-90.516,136.407-153.954
	C485.755,143.81,517.018,86.506,511.348,56.267z M50.403,96.07V84.982c0-5.95,4.841-10.791,10.791-10.791h152.185
	c5.95,0,10.791,4.841,10.791,10.791V96.07c0,5.95-4.841,10.791-10.791,10.791H61.194C55.244,106.861,50.403,102.02,50.403,96.07z
	 M193.652,124.118v32.668H80.921v-32.668C80.921,124.118,193.652,124.118,193.652,124.118z M72.278,174.043
	c0.005,0,0.009,0.001,0.015,0.001h129.988c0.006,0,0.012-0.001,0.017-0.001c22.64,0.006,42.967,14.087,51.167,34.826
	c-11.875,10.484-23.097,20.601-33.34,29.991H17.257v-9.781C17.257,198.736,41.937,174.051,72.278,174.043z M72.425,320.94
	c-0.045-0.001-0.089-0.007-0.133-0.007c-0.03,0-0.059,0.005-0.089,0.005c-30.306-0.049-54.946-24.717-54.946-55.035v-9.786h184.261
	c-10.758,10.104-19.704,18.75-26.199,25.245c-10.764,10.764-18.937,24.133-24.353,39.577H72.425z M402.287,220.685
	c-50.218,62.89-109.533,126.928-135.126,152.52c-16.546,16.547-39.818,25.6-69.17,26.91c-9.246,0.413-17.678-0.052-24.432-0.744
	l275.808-275.808c3.37-3.37,3.37-8.832,0-12.202c-3.371-3.37-8.833-3.37-12.203,0L161.357,387.167
	c-0.693-6.755-1.157-15.186-0.745-24.432c1.309-29.352,10.363-52.625,26.91-69.171c25.593-25.592,89.63-84.907,152.52-135.125
	c94.312-75.309,136.304-91.315,154.666-92.421C493.601,84.38,477.595,126.373,402.287,220.685z"/>
</svg>