<?xml version="1.0" encoding="iso-8859-1"?>
<!-- Uploaded to: SVG Repo, www.svgrepo.com, Generator: SVG Repo Mixer Tools -->
<svg version="1.1" id="Layer_1" xmlns="http://www.w3.org/2000/svg" xmlns:xlink="http://www.w3.org/1999/xlink" 
	 viewBox="0 0 504 504" xml:space="preserve">
<path style="fill:#FF7D00;" d="M412,232v32c0,8.8-7.2,16-16,16H108.8c-8.8,0-16.8-7.2-16.8-16v-32c0-8.8,7.2-16,16.8-16h7.2h80h24
	h80h24h72C404.8,216,412,223.2,412,232z"/>
<polygon style="fill:#6CD3D8;" points="388,16 388,32 372,32 372,48 388,48 388,77.6 372,77.6 372,93.6 388,93.6 388,122.4 
	372,122.4 372,138.4 388,138.4 388,168 372,168 372,184 388,184 388,200 332,200 332,16 "/>
<g>
	<rect x="364" y="384" style="fill:#42210B;" width="16" height="16"/>
	<rect x="364" y="320" style="fill:#42210B;" width="16" height="16"/>
	<rect x="364" y="448" style="fill:#42210B;" width="16" height="16"/>
	<rect x="348" y="416" style="fill:#42210B;" width="16" height="16"/>
	<rect x="348" y="352" style="fill:#42210B;" width="16" height="16"/>
	<rect x="316" y="384" style="fill:#42210B;" width="16" height="16"/>
	<rect x="316" y="320" style="fill:#42210B;" width="16" height="16"/>
	<rect x="316" y="448" style="fill:#42210B;" width="16" height="16"/>
	<rect x="292" y="416" style="fill:#42210B;" width="16" height="16"/>
	<rect x="292" y="352" style="fill:#42210B;" width="16" height="16"/>
</g>
<rect x="228" y="152" style="fill:#FF7D00;" width="64" height="48"/>
<rect x="228" y="128" style="fill:#FFF8EF;" width="64" height="8"/>
<g>
	<rect x="268" y="384" style="fill:#42210B;" width="16" height="16"/>
	<rect x="268" y="320" style="fill:#42210B;" width="16" height="16"/>
	<rect x="268" y="448" style="fill:#42210B;" width="16" height="16"/>
	<rect x="244" y="352" style="fill:#42210B;" width="16" height="16"/>
	<rect x="244" y="416" style="fill:#42210B;" width="16" height="16"/>
</g>
<path style="fill:#FFF8EF;" d="M291.2,75.2l-5.6,36.8h-50.4l-6.4-36.8L252,56.8v17.6c-4.8,3.2-8,8-8,13.6c0,8.8,7.2,16,16,16
	c8.8,0,16-7.2,16-16c0-5.6-3.2-11.2-8-13.6V56.8L291.2,75.2z"/>
<g>
	<rect x="220" y="320" style="fill:#42210B;" width="16" height="16"/>
	<rect x="220" y="384" style="fill:#42210B;" width="16" height="16"/>
	<rect x="220" y="448" style="fill:#42210B;" width="16" height="16"/>
	<rect x="196" y="416" style="fill:#42210B;" width="16" height="16"/>
	<rect x="196" y="352" style="fill:#42210B;" width="16" height="16"/>
	<rect x="172" y="448" style="fill:#42210B;" width="16" height="16"/>
	<rect x="172" y="384" style="fill:#42210B;" width="16" height="16"/>
</g>
<polygon style="fill:#EE5656;" points="188,113.6 188,200 164,200 164,118.4 "/>
<rect x="172" y="320" style="fill:#42210B;" width="16" height="16"/>
<polygon style="fill:#CC9966;" points="156,61.6 182.4,98.4 156,104 129.6,98.4 "/>
<g>
	<rect x="140" y="416" style="fill:#42210B;" width="16" height="16"/>
	<rect x="140" y="352" style="fill:#42210B;" width="16" height="16"/>
</g>
<polygon style="fill:#FF9900;" points="148,118.4 148,200 124,200 124,113.6 "/>
<g>
	<rect x="124" y="448" style="fill:#42210B;" width="16" height="16"/>
	<rect x="124" y="384" style="fill:#42210B;" width="16" height="16"/>
	<rect x="124" y="320" style="fill:#42210B;" width="16" height="16"/>
</g>
<path style="fill:#FF9900;" d="M396,296H108l0,0v40v152h160h128V296L396,296z M348,352h16v16h-16V352z M244,352h16v16h-16V352z
	 M220,320h16v16h-16V320z M124,320h16v16h-16V320z M140,384v16h-16v-16H140z M140,464h-16v-16h16V464z M156,432h-16v-16h16V432z
	 M156,368h-16v-16h16V368z M188,464h-16v-16h16V464z M188,400h-16v-16h16V400z M172,336v-16h16v16H172z M212,432h-16v-16h16V432z
	 M196,368v-16h16v16H196z M236,464h-16v-16h16V464z M220,400v-16h16v16H220z M244,432v-16h16v16H244z M284,464h-16v-16h16V464z
	 M284,400h-16v-16h16V400z M284,336h-16v-16h16V336z M308,432h-16v-16h16V432z M308,368h-16v-16h16V368z M332,464h-16v-16h16V464z
	 M332,400h-16v-16h16V400z M332,336h-16v-16h16V336z M348,416h16v16h-16V416z M380,464h-16v-16h16V464z M380,400h-16v-16h16V400z
	 M380,336h-16v-16h16V336z"/>
<path style="fill:#42210B;" d="M188,113.6l-24,4.8V200h24V113.6z M292,200v-48h-64v48H292z M292,128h-64v8h64V128z M285.6,112
	l6.4-36.8l-24-18.4v17.6c4.8,3.2,8,8,8,13.6c0,8.8-7.2,16-16,16c-8.8,0-16-7.2-16-16c0-5.6,3.2-11.2,8-13.6V56.8l-23.2,18.4
	l6.4,36.8H285.6z M148,118.4l-24-4.8V200h24V118.4z M129.6,98.4L156,104l26.4-5.6L156,61.6L129.6,98.4z M388,200v-16h-16v-16h16
	v-29.6h-16v-16h16V92.8h-16v-16h16V48h-16V32h16V16h-56v184H388z M396,488V296l0,0H108.8H108v40v152h160H396z M412,264v-32
	c0-8.8-7.2-16-16-16h-72h-24h-80h-24h-80h-7.2c-8.8,0-16.8,7.2-16.8,16v32c0,8.8,7.2,16,16.8,16H396C404.8,280,412,272.8,412,264z
	 M428,264c0,12-6.4,22.4-16,28v204c0,4-4,8-8,8H100c-4.8,0-8-4-8-8V291.2c-9.6-5.6-16-16-16-28V232c0-17.6,14.4-32,32-32v-96
	c0-1.6,0.8-3.2,1.6-4.8l0,0l40-56c3.2-4,10.4-4,12.8,0l40,56l0,0c0.8,1.6,1.6,3.2,1.6,4.8v96h8v-56v-24c0-4,3.2-7.2,6.4-8L212,73.6
	c-0.8-2.4,0.8-5.6,3.2-7.2l40-32c3.2-2.4,7.2-2.4,9.6,0l40,32c2.4,1.6,3.2,4.8,3.2,7.2l-6.4,38.4c4,0.8,6.4,4,6.4,8v24v56h8V8
	c0-4,4-8,8-8h72c4,0,8,4,8,8v193.6c13.6,4,24,16,24,31.2V264z"/>
<path style="fill:#FF6600;" d="M236,200v-40.8c0-4,3.2-7.2,7.2-7.2H276c4,0,7.2,3.2,7.2,7.2V200H236z"/>
<path style="fill:#FF7D00;" d="M126.4,412l-0.8-12H124v-16l0,0l-8-88h-8l0,0v40v152h160h32l-108-10.4
	C157.6,474.4,129.6,446.4,126.4,412z M140,464h-16v-16h16V464z"/>
</svg>