<?xml version="1.0" encoding="iso-8859-1"?>
<!-- Uploaded to: SVG Repo, www.svgrepo.com, Generator: SVG Repo Mixer Tools -->
<svg height="800px" width="800px" version="1.1" id="Layer_1" xmlns="http://www.w3.org/2000/svg" xmlns:xlink="http://www.w3.org/1999/xlink" 
	 viewBox="0 0 512 512" xml:space="preserve">
<g>
	<g>
		<path style="fill:#434C6D;" d="M421.36,83.741c-0.759,0-1.527-0.097-2.295-0.3l-25.582-6.859c-4.705-1.254-7.503-6.1-6.241-10.805
			c1.254-4.705,6.118-7.503,10.805-6.241l25.591,6.85c4.705,1.262,7.495,6.109,6.241,10.814
			C428.828,81.137,425.253,83.741,421.36,83.741"/>
		<path style="fill:#434C6D;" d="M329.955,512H135.748c-14.627,0-26.483-11.855-26.483-26.483V282.483h247.172v203.034
			C356.438,500.145,344.582,512,329.955,512"/>
	</g>
	<path style="fill:#2C3651;" d="M356.438,282.483H109.265c-14.627,0-26.483-11.855-26.483-26.483
		c0-14.627,11.855-26.483,26.483-26.483h247.172c14.627,0,26.483,11.855,26.483,26.483
		C382.92,270.627,371.065,282.483,356.438,282.483"/>
	<polygon style="fill:#A31C09;" points="197.541,229.517 268.162,229.517 268.162,79.448 197.541,79.448 	"/>
	<path style="fill:#6C4126;" d="M232.852,0l-13.25,16.569c-14.283,17.841-22.06,40.024-22.06,62.879h70.621
		c0-22.855-7.777-45.038-22.06-62.879L232.852,0z"/>
	<polygon style="fill:#CE3929;" points="224.024,229.517 241.679,229.517 241.679,79.448 224.024,79.448 	"/>
	<g>
		<polygon style="fill:#2C3651;" points="368.352,170.38 300.142,152.098 327.551,49.778 395.771,68.06 		"/>
		<path style="fill:#2C3651;" d="M415.556,164.75l-8.527-2.286c-4.705-1.262-7.503-6.1-6.241-10.814l25.132-93.793
			c1.262-4.705,6.1-7.503,10.814-6.241l8.527,2.286c4.705,1.262,7.503,6.1,6.241,10.814l-25.132,93.793
			C425.108,163.214,420.261,166.012,415.556,164.75"/>
	</g>
	<path style="fill:#434C6D;" d="M395.769,68.058l-68.211-18.282l6.85-25.574c1.262-4.714,6.1-7.503,10.814-6.241l51.156,13.709
		c4.714,1.254,7.503,6.1,6.241,10.805L395.769,68.058z"/>
	<path style="fill:#CC4B4C;" d="M134.191,69.717L65.98,87.999l-4.573-17.055c-5.049-18.838,6.135-38.206,24.964-43.246
		c18.838-5.049,38.206,6.126,43.246,24.964L134.191,69.717z"/>
	<path style="fill:#E39700;" d="M109.265,229.517h67.743L134.194,69.72l-68.22,18.273l38.065,142.053
		C105.725,229.703,107.473,229.517,109.265,229.517"/>
	<polygon style="fill:#434C6D;" points="343.367,229.517 359.821,168.095 308.665,154.386 288.53,229.517 	"/>
	<polygon style="fill:#ECE8D8;" points="197.541,450.207 356.438,450.207 356.438,344.276 197.541,344.276 	"/>
	<g>
		<polygon style="fill:#C9B693;" points="232.852,388.414 356.438,388.414 356.438,370.759 232.852,370.759 		"/>
		<polygon style="fill:#C9B693;" points="250.507,423.724 356.438,423.724 356.438,406.069 250.507,406.069 		"/>
	</g>
</g>
</svg>