<?xml version="1.0" encoding="utf-8"?>
<!-- Uploaded to: SVG Repo, www.svgrepo.com, Generator: SVG Repo Mixer Tools -->
<svg width="800px" height="800px" viewBox="0 0 1024 1024" class="icon"  version="1.1" xmlns="http://www.w3.org/2000/svg"><path d="M466.2 102.9c38.8 0 74.2 14.7 100.8 38.9 14.2-5.9 29.7-9.1 46-9.1 61.7 0 112.5 46.5 119.3 106.4 0.5 4.5 1.5 13.7-11.4 13.7H328.4c-7.8 0-11.9-9.9-11.4-14.8 7.5-75.8 71.4-135.1 149.2-135.1z" fill="#00B3E3" /><path d="M379.6 227.7c1.1-10.4-6.7-19-17.2-19H147.7c-10.5 0-18.2 8.5-17.2 19l8.5 84.5c1.1 10.4 10.5 19 21 19h190.1c10.5 0 19.9-8.5 21-19l8.5-84.5z" fill="#0071CE" /><path d="M131 233.1l2.9 28.6h242.3l2.9-28.6z" fill="" /><path d="M135.2 274.4l3.8 37.8c1.1 10.4 10.5 19 21 19h190.1c10.5 0 19.9-8.5 21-19l3.8-37.8H135.2z" fill="" /><path d="M173.3 433.8h163.6v465.9H173.3z" fill="#A4A9AD" /><path d="M173.3 433.8h163.6v87.8H173.3z" fill="" /><path d="M959.7 913.5c0 4.2-3.5 7.7-7.7 7.7H73.1c-4.2 0-7.7-3.5-7.7-7.7v-27.6c0-4.2 3.5-7.7 7.7-7.7H952c4.2 0 7.7 3.5 7.7 7.7v27.6z" fill="#333E48" /><path d="M403.5 308.7c1.3-10.4-6.2-18.9-16.7-18.9H123.2c-10.5 0-18 8.5-16.7 18.9l18.8 147.4c1.3 10.4 11 18.9 21.5 18.9h216.5c10.5 0 20.2-8.5 21.5-18.9l18.7-147.4z" fill="#A4A9AD" /><path d="M193.1 289.8h123.8v79.1H193.1z" fill="#D1D3D3" /><path d="M111.3 345.6l9.3 73.6h268.9l9.3-73.6z" fill="#0071CE" /><path d="M240.7 345.6h28.6v73.6h-28.6zM152.9 345.6h28.6v73.6h-28.6zM328.6 345.6h28.6v73.6h-28.6z" fill="" /><path d="M173.3 587.7h163.6v127.8H173.3zM285.5 230.2c0 16.8-13.6 30.4-30.4 30.4-16.8 0-30.4-13.6-30.4-30.4v-21.5c0-16.8 13.6-30.4 30.4-30.4s30.4 13.6 30.4 30.4v21.5z" fill="#D1D3D3" /><path d="M952 878.2H406v43h546c4.2 0 7.7-3.5 7.7-7.7v-27.6c0-4.3-3.5-7.7-7.7-7.7z" fill="#A4A9AD" /><path d="M824.4 668.2H562l-57.4-57.4c-6.8-6.4-15.9-10.3-26-10.3-20.8 0-37.8 16.9-37.8 37.7v105.5c0 41.7 33.8 75.5 75.5 75.5h308c41.7 0 75.5-33.8 75.5-75.5 0.1-41.7-33.7-75.5-75.4-75.5z" fill="#D1D3D3" /><path d="M720.1 788.6h-144c-7.9 0-14.3-6.4-14.3-14.3s6.4-14.3 14.3-14.3h144c7.9 0 14.3 6.4 14.3 14.3s-6.4 14.3-14.3 14.3z" fill="#A4A9AD" /><path d="M878.3 690.9h-77.1c-14.6 0-26.5 11.8-26.5 26.5 0 14.6 11.8 26.5 26.5 26.5h98.7v-0.1c0-20.7-8.3-39.3-21.6-52.9z" fill="#0071CE" /><path d="M794.2 848.7m-29.5 0a29.5 29.5 0 1 0 59 0 29.5 29.5 0 1 0-59 0Z" fill="#333E48" /><path d="M595.6 848.7m-29.5 0a29.5 29.5 0 1 0 59 0 29.5 29.5 0 1 0-59 0Z" fill="#333E48" /><path d="M562 668.2l-57.4-57.4c-6.8-6.4-15.9-10.3-26-10.3-20.8 0-37.8 16.9-37.8 37.7v105.5c0 26.1 13.3 49.2 33.5 62.7 14.2-46.7 59.8-138.2 187.1-138.2H562z" fill="#0071CE" /><path d="M523.1 629.4c-33.4 12-61.7 32-82.3 51.4v42.5c16.1-20.8 54.1-57.5 105-71.1l-22.7-22.8z" fill="#00B3E3" /><path d="M774.7 428m-90.8 0a90.8 90.8 0 1 0 181.6 0 90.8 90.8 0 1 0-181.6 0Z" fill="#FFB819" /></svg>