<?xml version="1.0" encoding="iso-8859-1"?>
<!-- Uploaded to: SVG Repo, www.svgrepo.com, Generator: SVG Repo Mixer Tools -->
<svg version="1.1" id="Layer_1" xmlns="http://www.w3.org/2000/svg" xmlns:xlink="http://www.w3.org/1999/xlink" 
	 viewBox="0 0 512 512" xml:space="preserve">
<rect x="84.426" y="239.66" style="fill:#F56E92;" width="85.33" height="231.489"/>
<rect x="169.755" y="316.819" style="fill:#F23E6D;" width="80.798" height="154.33"/>
<rect x="294.128" y="85.33" style="fill:#F56E92;" width="80.798" height="385.819"/>
<rect x="374.926" y="162.5" style="fill:#F23E6D;" width="85.33" height="308.649"/>
<path style="fill:#BD0D38;" d="M503.83,462.979H49.021V8.17c0-4.512-3.657-8.17-8.17-8.17s-8.17,3.658-8.17,8.17v68.993H8.17
	c-4.513,0-8.17,3.658-8.17,8.17c0,4.512,3.657,8.17,8.17,8.17h24.511v60.822H8.17c-4.513,0-8.17,3.658-8.17,8.17
	c0,4.512,3.657,8.17,8.17,8.17h24.511v60.823H8.17c-4.513,0-8.17,3.658-8.17,8.17c0,4.512,3.657,8.17,8.17,8.17h24.511v60.822H8.17
	c-4.513,0-8.17,3.658-8.17,8.17c0,4.512,3.657,8.17,8.17,8.17h24.511v60.822H8.17c-4.513,0-8.17,3.658-8.17,8.17
	c0,4.512,3.657,8.17,8.17,8.17h24.511v68.994c0,4.512,3.657,8.17,8.17,8.17h120.737v24.511c0,4.512,3.657,8.17,8.17,8.17
	c4.513,0,8.17-3.658,8.17-8.17v-24.511h188.823v24.511c0,4.512,3.657,8.17,8.17,8.17c4.513,0,8.17-3.658,8.17-8.17v-24.511H503.83
	c4.513,0,8.17-3.658,8.17-8.17C512,466.637,508.343,462.979,503.83,462.979z"/>
</svg>