<?xml version="1.0" encoding="utf-8"?>
<!-- Uploaded to: SVG Repo, www.svgrepo.com, Generator: SVG Repo Mixer Tools -->
<svg width="800px" height="800px" viewBox="0 0 1024 1024" class="icon"  version="1.1" xmlns="http://www.w3.org/2000/svg"><path d="M703.5 284.2h-73.7v-28.6h73.7c12.6 0 22.9-10.3 22.9-22.9 0-12.6-10.3-22.9-22.9-22.9h-22.3v-28.6h22.3c28.4 0 51.5 23.1 51.5 51.5s-23.1 51.5-51.5 51.5z" fill="#D68231" /><path d="M667 143.4c27.4 0 31.3 21.7 29.5 32.1-15.2 87.3-91.3 153.6-182.9 153.6s-167.7-66.3-182.9-153.6c-1.8-10.4 2.1-32.1 29.5-32.1H667zM121.7 358.1h783.6v513.8H121.7z" fill="#FFB819" /><path d="M121.7 584.7h82.6v39.7h-82.6zM252.2 468.8h82.6v39.7h-82.6zM506.6 456.3h82.6V496h-82.6z" fill="" /><path d="M822.8 513h82.6v39.7h-82.6zM809.2 757.1h82.6v39.7h-82.6z" fill="" /><path d="M488.9 682.1h82.6v39.7h-82.6zM155.9 790.5h82.6v39.7h-82.6z" fill="" /><path d="M103.8 378.1v25.4c0 32.3 26.2 58.5 58.5 58.5s58.5-26.2 58.5-58.5v-25.4h-117z" fill="#00B3E3" /><path d="M220.9 378.1v25.4c0 32.3 26.2 58.5 58.5 58.5s58.5-26.2 58.5-58.5v-25.4h-117z" fill="#FFFFFF" /><path d="M338 378.1v25.4c0 32.3 26.2 58.5 58.5 58.5s58.5-26.2 58.5-58.5v-25.4H338z" fill="#00B3E3" /><path d="M455 378.1v25.4c0 32.3 26.2 58.5 58.5 58.5s58.5-26.2 58.5-58.5v-25.4H455z" fill="#FFFFFF" /><path d="M572.1 378.1v25.4c0 32.3 26.2 58.5 58.5 58.5s58.5-26.2 58.5-58.5v-25.4h-117z" fill="#00B3E3" /><path d="M689.2 378.1v25.4c0 32.3 26.2 58.5 58.5 58.5s58.5-26.2 58.5-58.5v-25.4h-117z" fill="#FFFFFF" /><path d="M806.2 378.1v25.4c0 32.3 26.2 58.5 58.5 58.5s58.5-26.2 58.5-58.5v-25.4h-117z" fill="#00B3E3" /><path d="M938.3 383.7c0 10.5-8.6 19.1-19.1 19.1H107.9c-10.5 0-19.1-8.6-19.1-19.1v-44.8c0-10.5 8.6-19.1 19.1-19.1h811.4c10.5 0 19.1 8.6 19.1 19.1l-0.1 44.8z" fill="#333E48" /><path d="M551.2 532.8h257.7v339.1H551.2z" fill="#FFFFFF" /><path d="M596.6 581.5h166.8v119.8H596.6z" fill="#00B3E3" /><path d="M640.5 619.5h79.1v28.6h-79.1z" fill="#FFFFFF" /><path d="M610.9 757.3m-14.2 0a14.2 14.2 0 1 0 28.4 0 14.2 14.2 0 1 0-28.4 0Z" fill="#333E48" /><path d="M960.2 877.4c0 4.2-3.5 7.7-7.7 7.7H74.6c-4.2 0-7.7-3.5-7.7-7.7v-27.6c0-4.2 3.5-7.7 7.7-7.7h877.9c4.2 0 7.7 3.5 7.7 7.7v27.6z" fill="#333E48" /><path d="M515 842.1h330V885H515z" fill="#A4A9AD" /><path d="M184.4 532.8h304.2V743H184.4z" fill="#333E48" /><path d="M376.3 584h-79.7l-17.5 60.6h114.7z" fill="#00B3E3" /><path d="M322.2 532.8h28.6v51.1h-28.6z" fill="#FFFFFF" /><path d="M226.7 743v-41.7c0-7.9 6.4-14.3 14.3-14.3s14.3 6.4 14.3 14.3V743h-28.6zM417.6 743v-41.7c0-7.9 6.4-14.3 14.3-14.3s14.3 6.4 14.3 14.3V743h-28.6z" fill="#00B3E3" /></svg>