<?xml version="1.0" encoding="iso-8859-1"?>
<!-- Uploaded to: SVG Repo, www.svgrepo.com, Generator: SVG Repo Mixer Tools -->
<svg height="800px" width="800px" version="1.1" id="Layer_1" xmlns="http://www.w3.org/2000/svg" xmlns:xlink="http://www.w3.org/1999/xlink" 
	 viewBox="0 0 512 512" xml:space="preserve">
<path style="fill:#274B6D;" d="M168.486,476.529c-0.94,7.111-3.707,13.655-7.827,19.13H204.8v-16.513c0-4.513,3.658-8.17,8.17-8.17
	c0.003,0,0.003-20.132,0.003-20.132L168.486,476.529z"/>
<path style="fill:#185F8D;" d="M212.973,450.844v20.132c4.511,0.002,8.167,3.658,8.167,8.17v16.513h69.719v-66.198
	c0-4.513,3.658-8.17,8.17-8.17c0.003,0,0.003-20.134,0.003-20.134L212.973,450.844z"/>
<path style="fill:#6DA8D6;" d="M299.033,401.157v20.134c4.511,0.002,8.167,3.658,8.167,8.17v66.198h69.719V379.774
	c0-4.513,3.658-8.17,8.17-8.17c0.003,0,0.003-20.134,0.003-20.134L299.033,401.157z"/>
<path style="fill:#A7CBE6;" d="M385.093,371.604c4.511,0.002,8.167,3.658,8.167,8.17V495.66h69.719v-136.17h-28.602
	c-4.512,0-8.17-3.657-8.17-8.17c0-0.004-40.843-0.004-40.843-0.004l-0.27,0.156V371.604z"/>
<path style="fill:#BD1515;" d="M168.851,450.196v7.253l53.865-31.099l-8.255-14.298c-2.256-3.908-0.917-8.903,2.989-11.161
	l-10.067-17.435L168.851,450.196z"/>
<path style="fill:#F2484B;" d="M221.815,358.46c-0.004,0.008-14.432,24.998-14.432,24.998l10.067,17.435
	c3.909-2.255,8.906-0.918,11.162,2.99l8.255,14.298l60.379-34.86l-33.097-57.327c-2.256-3.906-0.918-8.901,2.987-11.158
	L257.069,297.4L221.815,358.46z"/>
<path style="fill:#FF6E1D;" d="M264.845,283.932c-0.003,0.005-7.776,13.468-7.776,13.468l10.067,17.436
	c3.911-2.257,8.908-0.921,11.164,2.988l33.098,57.327l60.379-34.86l-57.944-100.363c-2.256-3.908-0.917-8.904,2.99-11.161
	l-10.065-17.432L264.845,283.932z"/>
<g>
	<path style="fill:#FF9D49;" d="M316.822,228.768c3.908-2.255,8.903-0.917,11.161,2.99l57.944,100.363l60.379-34.86l-68.085-117.928
		l-24.771,14.302c-3.908,2.255-8.904,0.918-11.16-2.99c-0.001-0.001-35.375,20.421-35.375,20.421l-0.157,0.269L316.822,228.768z"/>
	<path style="fill:#FF9D49;" d="M168.851,417.516l34.726-60.146l-14.298-8.255c-3.908-2.256-5.246-7.253-2.99-11.161
		c0.002-0.004-17.436-10.073-17.436-10.073v89.635H168.851z"/>
</g>
<path style="fill:#FFCC75;" d="M168.851,327.882l17.44,10.069c2.257-3.905,7.251-5.241,11.158-2.987l14.298,8.255l34.86-60.379
	l-57.327-33.098c-3.908-2.256-5.246-7.253-2.99-11.16c0.001-0.002-17.438-10.072-17.438-10.072V327.882z"/>
<path style="fill:#F2EBD9;" d="M168.851,228.51l17.44,10.07c2.257-3.908,7.252-5.243,11.159-2.988l57.327,33.098l34.86-60.379
	l-100.363-57.944c-3.908-2.256-5.246-7.253-2.99-11.161c0.002-0.003-17.431-10.069-17.431-10.069v99.373H168.851z"/>
<path style="fill:#FFFFFF;" d="M186.284,139.202c2.257-3.906,7.252-5.243,11.158-2.987l100.363,57.944l34.86-60.379L214.738,65.695
	l-14.301,24.77c-2.256,3.905-7.25,5.243-11.156,2.992l-20.43,35.385v0.295L186.284,139.202z"/>
<g>
	<path style="fill:#C1E8E6;" d="M479.319,360.895v133.36c9.509-3.373,16.34-12.455,16.34-23.105V384
		C495.66,373.349,488.828,364.267,479.319,360.895z"/>
	<path style="fill:#C1E8E6;" d="M393.089,172.408l66.649,115.44c2.327-2.738,4.062-5.972,5.024-9.565
		c1.702-6.348,0.845-12.95-2.41-18.588l-43.574-75.473c-3.256-5.64-8.545-9.681-14.894-11.383
		C400.291,171.876,396.624,171.762,393.089,172.408z"/>
	<path style="fill:#C1E8E6;" d="M327.779,93.222l-75.473-43.574c-5.639-3.256-12.24-4.109-18.589-2.411
		c-3.593,0.963-6.827,2.698-9.565,5.025l115.467,66.665C341.453,109.005,337.004,98.548,327.779,93.222z"/>
</g>
<path style="fill:#98D9D5;" d="M128,495.66c13.516,0,24.511-10.996,24.511-24.511V40.851c0-13.515-10.995-24.511-24.511-24.511
	H40.851c-13.516,0-24.511,10.996-24.511,24.511v430.298c0,13.515,10.995,24.511,24.511,24.511H128z M84.422,457.536
	c-16.519,0-29.957-13.439-29.957-29.957c0-16.518,13.438-29.957,29.957-29.957s29.957,13.439,29.957,29.957
	C114.38,444.097,100.94,457.536,84.422,457.536z"/>
<path style="fill:#082947;" d="M471.149,343.149h-36.773c-4.511,0-8.168,3.655-8.17,8.166c0,4.518,3.658,8.175,8.17,8.175h28.602
	v136.17H393.26V379.774c0-4.512-3.656-8.168-8.167-8.17c-4.515,0-8.173,3.657-8.173,8.17V495.66H307.2v-66.198
	c0-4.512-3.656-8.168-8.167-8.17c-4.515,0-8.173,3.657-8.173,8.17v66.198H221.14v-16.513c0-4.512-3.656-8.168-8.167-8.17
	c-4.515,0-8.173,3.657-8.173,8.17v16.513h-44.141c4.12-5.475,6.887-12.019,7.827-19.13l44.487-25.685l172.119-99.374l0.27-0.156
	l76.188-43.987c9.419-5.437,16.164-14.251,18.995-24.815c2.831-10.565,1.396-21.57-4.043-30.988l-43.574-75.473
	c-5.438-9.419-14.251-16.165-24.816-18.996c-10.564-2.831-21.569-1.395-30.988,4.043l-31.846,18.387
	c-3.908,2.256-5.246,7.252-2.991,11.159c2.257,3.91,7.253,5.247,11.162,2.991l24.771-14.302l68.085,117.928l-60.379,34.86
	l-57.944-100.363c-2.256-3.909-7.252-5.245-11.161-2.99c-3.909,2.257-5.247,7.253-2.991,11.161l57.944,100.363l-60.379,34.86
	l-33.098-57.327c-2.256-3.909-7.253-5.245-11.16-2.99c-3.909,2.259-5.246,7.254-2.99,11.161l33.097,57.327l-60.379,34.86
	l-8.255-14.298c-2.256-3.909-7.253-5.244-11.161-2.99c-3.909,2.257-5.246,7.254-2.99,11.161l8.255,14.298l-53.862,31.099v-7.253
	l38.532-66.739l14.428-24.99c0.004-0.008,35.258-61.069,35.258-61.069l7.773-13.462c0.003-0.005,41.916-72.602,41.916-72.602
	l0.156-0.269l0.959-1.66c0.001-0.002,43.031-74.531,43.031-74.531c11.263-19.508,4.555-44.542-14.953-55.805l-75.473-43.574
	c-9.419-5.437-20.423-6.875-30.989-4.043c-10.565,2.831-19.378,9.577-24.815,18.996l-18.386,31.845
	c-2.256,3.908-0.917,8.904,2.99,11.161c3.911,2.253,8.904,0.915,11.161-2.99l14.301-24.77l117.927,68.085l-34.86,60.379
	l-100.363-57.944c-3.906-2.256-8.902-0.918-11.158,2.987c-2.258,3.911-0.919,8.908,2.988,11.164l100.363,57.944l-34.86,60.379
	l-57.327-33.098c-3.908-2.255-8.902-0.918-11.159,2.988c-2.257,3.91-0.918,8.907,2.989,11.163l57.327,33.098l-34.86,60.379
	l-14.298-8.255c-3.908-2.255-8.901-0.919-11.158,2.987c-2.259,3.911-0.921,8.908,2.988,11.165l14.298,8.255l-34.726,60.145V40.851
	C168.851,18.325,150.526,0,128,0H40.851C18.325,0,0,18.325,0,40.851v430.298C0,493.675,18.325,512,40.851,512h430.298
	C493.675,512,512,493.675,512,471.149V384C512,361.474,493.675,343.149,471.149,343.149z M495.66,471.149
	c0,10.651-6.831,19.733-16.34,23.105v-133.36c9.509,3.373,16.34,12.455,16.34,23.105V471.149z M16.34,471.149V40.851
	c0-13.515,10.995-24.511,24.511-24.511H128c13.516,0,24.511,10.996,24.511,24.511v430.298c0,13.515-10.995,24.511-24.511,24.511
	H40.851C27.335,495.66,16.34,484.664,16.34,471.149z M418.778,184.221l43.574,75.473c3.255,5.639,4.111,12.24,2.41,18.588
	c-0.963,3.593-2.697,6.827-5.024,9.565l-66.649-115.44c3.534-0.646,7.203-0.532,10.796,0.43
	C410.233,174.541,415.522,178.582,418.778,184.221z M233.717,47.237c6.349-1.699,12.95-0.845,18.589,2.411l75.473,43.574
	c9.225,5.326,13.674,15.783,11.839,25.705L224.152,52.262C226.89,49.935,230.124,48.201,233.717,47.237z"/>
<path style="fill:#C1E8E6;" d="M84.422,413.962c-7.509,0-13.617,6.108-13.617,13.617c0,7.509,6.108,13.617,13.617,13.617
	c7.509,0,13.617-6.108,13.617-13.617C98.039,420.07,91.93,413.962,84.422,413.962z"/>
<path style="fill:#082947;" d="M84.422,397.621c-16.519,0-29.957,13.439-29.957,29.957c0,16.518,13.438,29.957,29.957,29.957
	s29.957-13.439,29.957-29.957C114.38,411.061,100.94,397.621,84.422,397.621z M84.422,441.196c-7.509,0-13.617-6.108-13.617-13.617
	c0-7.509,6.108-13.617,13.617-13.617c7.509,0,13.617,6.108,13.617,13.617C98.039,435.088,91.93,441.196,84.422,441.196z"/>
</svg>