<?xml version="1.0" encoding="iso-8859-1"?>
<!-- Uploaded to: SVG Repo, www.svgrepo.com, Generator: SVG Repo Mixer Tools -->
<svg version="1.1" id="Layer_1" xmlns="http://www.w3.org/2000/svg" xmlns:xlink="http://www.w3.org/1999/xlink" 
	 viewBox="0 0 511.999 511.999" xml:space="preserve">
<path style="fill:#F95428;" d="M116.085,404.732c8.515,0,15.421,6.906,15.421,15.421c0,8.515-6.906,15.421-15.421,15.421
	c-8.529,0-15.435-6.906-15.435-15.421C100.651,411.638,107.556,404.732,116.085,404.732z"/>
<path style="fill:#CCCCCC;" d="M219.645,367.273v37.432c0,18.489-5.172,35.767-14.155,50.473l-32.383,32.369
	c-14.706,8.969-31.97,14.142-50.445,14.142H111.67h-2.174c-53.554,0-96.97-43.429-96.97-96.984v-37.432H219.645z M131.507,420.153
	c0-8.515-6.906-15.421-15.421-15.421c-8.529,0-15.435,6.906-15.435,15.421s6.906,15.421,15.435,15.421
	C124.601,435.574,131.507,428.668,131.507,420.153z"/>
<path style="fill:#CC321D;" d="M257.104,403.549v98.139h-98.139l14.142-14.142c13.193-8.048,24.322-19.163,32.383-32.369
	L257.104,403.549z"/>
<polygon style="fill:#E54728;" points="378.286,294.556 378.286,501.688 257.104,501.688 257.104,403.549 288.95,371.702 
	366.111,294.556 "/>
<rect x="378.291" y="294.556" style="fill:#F95428;" width="121.195" height="207.133"/>
<path style="fill:#168BBF;" d="M288.95,371.702l-31.846,31.846l-51.615,51.628c8.983-14.706,14.155-31.984,14.155-50.473v-37.432
	v-64.876L288.95,371.702z"/>
<polygon style="fill:#2BA5F7;" points="313.96,53.788 460.412,200.254 374.654,286.013 228.201,139.56 "/>
<polygon style="fill:#B27214;" points="219.645,302.397 219.645,367.273 12.526,367.273 12.526,246.091 219.645,246.091 "/>
<polygon style="fill:#E09B2D;" points="219.645,148.103 219.645,246.091 12.526,246.091 12.526,124.896 219.645,124.896 "/>
<polygon style="fill:#2197D8;" points="366.111,294.556 288.95,371.702 219.645,302.397 219.645,246.091 219.645,148.103 
	228.201,139.56 374.654,286.013 "/>
<rect x="12.526" y="10.317" style="fill:#F7B239;" width="207.119" height="114.578"/>
<g>
	<path style="fill:#333333;" d="M499.478,284.242H391.008l76.7-76.7c4.029-4.029,4.029-10.562,0-14.59L321.249,46.494
		c-1.936-1.936-4.559-3.022-7.297-3.022c-2.738,0-5.36,1.087-7.296,3.022l-76.698,76.7V10.317C229.958,4.619,225.34,0,219.641,0
		H12.521C6.821,0,2.203,4.619,2.203,10.317v394.386c0,59.163,48.133,107.296,107.296,107.296h2.175h10.99h376.814
		c5.699,0,10.317-4.619,10.317-10.317V294.56C509.796,288.862,505.177,284.242,499.478,284.242z M288.955,357.113l-58.995-58.996
		V155.911L360.058,286.01L288.955,357.113z M209.325,235.767H22.838V135.213h186.488v100.554H209.325z M209.325,256.402v100.554
		H22.838V256.402H209.325L209.325,256.402z M229.96,404.703v-77.404l44.403,44.405l-45.106,45.106
		C229.706,412.833,229.96,408.798,229.96,404.703z M367.971,307.279v184.085H267.421v-83.535L367.971,307.279z M313.954,68.381
		l131.866,131.866l-71.171,71.171L242.783,139.552L313.954,68.381z M209.325,20.635v93.944H22.838V20.635H209.325z M109.499,491.365
		c-47.785,0-86.661-38.876-86.661-86.661V377.59h186.488v27.113c0,47.785-38.876,86.661-86.661,86.661h-13.166V491.365z
		 M213.421,461.83l33.367-33.367v62.901h-60.964C196.779,483.357,206.157,473.329,213.421,461.83z M489.161,491.365H388.606V304.877
		h100.555V491.365z"/>
	<path style="fill:#333333;" d="M141.823,420.156c0-14.194-11.549-25.741-25.741-25.741c-14.193,0-25.741,11.549-25.741,25.741
		c0,14.193,11.549,25.741,25.741,25.741C130.274,445.897,141.823,434.35,141.823,420.156z M116.081,425.262
		c-2.816,0-5.106-2.29-5.106-5.106c0-2.816,2.29-5.106,5.106-5.106s5.106,2.292,5.106,5.106
		C121.188,422.97,118.897,425.262,116.081,425.262z"/>
</g>
</svg>