<?xml version="1.0" ?>
<!DOCTYPE svg  PUBLIC '-//W3C//DTD SVG 1.1//EN'  'http://www.w3.org/Graphics/SVG/1.1/DTD/svg11.dtd'>
<!-- Uploaded to: SVG Repo, www.svgrepo.com, Generator: SVG Repo Mixer Tools -->
<svg fill="#000000" width="800px" height="800px" viewBox="0 0 129 129" style="fill-rule:evenodd;clip-rule:evenodd;stroke-linejoin:round;stroke-miterlimit:2;" version="1.1" xml:space="preserve" xmlns="http://www.w3.org/2000/svg" xmlns:serif="http://www.serif.com/" xmlns:xlink="http://www.w3.org/1999/xlink">
<g transform="matrix(1,0,0,1,-473,-678)">
<g id="waterpass-ruler" transform="matrix(1,0,0,1,473.126,678.333)">
<rect height="128" style="fill:none;" width="128" x="0" y="0"/>
<g>
<g transform="matrix(0.613058,0.613058,-0.613058,0.613058,-9525.71,-10028.7)">
<rect height="145.508" style="fill:rgb(244,187,49);" width="11.901" x="16067.3" y="337.518"/>
</g>
<g transform="matrix(1,0,0,1,-6187.62,-3300)">
<path d="M6275.72,3307.33C6275.98,3307.42 6276.22,3307.57 6276.43,3307.78L6298.67,3330.02C6299.45,3330.8 6299.45,3332.07 6298.67,3332.85C6297.89,3333.63 6296.62,3333.63 6295.84,3332.85L6273.6,3310.61C6273.4,3310.4 6273.24,3310.16 6273.15,3309.9L6268.78,3314.27C6269.04,3314.36 6269.29,3314.51 6269.5,3314.72L6276.49,3321.71C6277.27,3322.49 6277.27,3323.76 6276.49,3324.54C6275.7,3325.32 6274.44,3325.32 6273.66,3324.54L6266.67,3317.55C6266.46,3317.34 6266.31,3317.1 6266.22,3316.83L6262.35,3320.7C6262.62,3320.78 6262.86,3320.94 6263.07,3321.15L6267.1,3325.18C6267.88,3325.96 6267.88,3327.23 6267.1,3328.01C6266.32,3328.79 6265.05,3328.79 6264.27,3328.01L6260.24,3323.97C6260.03,3323.77 6259.88,3323.52 6259.79,3323.26L6256.27,3326.78C6256.53,3326.87 6256.77,3327.02 6256.98,3327.23L6263.97,3334.22C6264.75,3335 6264.75,3336.27 6263.97,3337.05C6263.19,3337.83 6261.92,3337.83 6261.14,3337.05L6254.15,3330.06C6253.94,3329.85 6253.79,3329.61 6253.7,3329.35L6216.81,3366.24C6217.08,3366.33 6217.32,3366.48 6217.53,3366.69L6221.56,3370.72C6222.34,3371.5 6222.34,3372.77 6221.56,3373.55C6220.78,3374.33 6219.51,3374.33 6218.73,3373.55L6214.7,3369.51C6214.49,3369.31 6214.34,3369.06 6214.25,3368.8L6209.88,3373.17C6210.14,3373.26 6210.38,3373.41 6210.59,3373.62L6217.58,3380.61C6218.36,3381.39 6218.36,3382.66 6217.58,3383.44C6216.8,3384.22 6215.53,3384.22 6214.75,3383.44L6207.76,3376.45C6207.55,3376.24 6207.4,3376 6207.31,3375.74L6203.45,3379.6C6203.71,3379.69 6203.95,3379.84 6204.16,3380.05L6208.2,3384.08C6208.98,3384.86 6208.98,3386.13 6208.2,3386.91C6207.42,3387.69 6206.15,3387.69 6205.37,3386.91L6201.34,3382.88C6201.13,3382.67 6200.97,3382.43 6200.89,3382.16L6197.36,3385.69C6197.62,3385.78 6197.87,3385.93 6198.08,3386.14L6221.04,3409.1C6221.82,3409.88 6221.82,3411.15 6221.04,3411.93C6220.26,3412.71 6218.99,3412.71 6218.21,3411.93L6195.25,3388.97C6195.04,3388.76 6194.89,3388.51 6194.8,3388.25L6190.73,3392.32L6223.3,3424.89L6312.51,3335.69L6279.93,3303.12L6275.72,3307.33Z" style="fill:rgb(244,187,49);"/>
</g>
<g transform="matrix(0.13078,0.13078,-0.613058,0.613058,-1796.66,-2299.7)">
<rect height="145.508" style="fill:rgb(247,204,101);" width="53.13" x="16026.1" y="337.518"/>
</g>
<g transform="matrix(1,0,0,1,-6187.62,-3300)">
<path d="M6312.51,3335.69L6303.89,3327.08L6214.69,3416.28L6223.3,3424.89L6312.51,3335.69Z" style="fill:rgb(51,51,51);"/>
</g>
<g transform="matrix(1,0,0,1,-6187.62,-3300)">
<path d="M6307.95,3331.14L6303.89,3327.08L6214.69,3416.28L6218.75,3420.34L6307.95,3331.14Z" style="fill:rgb(102,102,102);"/>
</g>
<g transform="matrix(1,0,0,1,-6187.62,-3300)">
<path d="M6297.98,3321.16C6297.98,3321.16 6208.78,3410.37 6208.78,3410.37L6216.01,3417.6C6216.01,3417.6 6305.21,3328.39 6305.21,3328.39C6305.21,3328.39 6297.98,3321.16 6297.98,3321.16Z" style="fill:rgb(183,140,37);"/>
</g>
<g transform="matrix(1,0,0,1,-6187.62,-3300)">
<path d="M6255.3,3346.69C6256.15,3345.84 6256.62,3344.69 6256.62,3343.48C6256.62,3342.28 6256.15,3341.13 6255.3,3340.28C6252.55,3337.53 6249.03,3334.02 6249.03,3334.02L6221.63,3361.42C6221.63,3361.42 6225.14,3364.94 6227.89,3367.68C6228.74,3368.53 6229.89,3369.01 6231.1,3369.01C6232.3,3369.01 6233.45,3368.53 6234.3,3367.68C6239.58,3362.41 6250.02,3351.96 6255.3,3346.69Z" style="fill:rgb(74,155,245);"/>
</g>
<g transform="matrix(1,0,0,1,-6187.62,-3300)">
<path d="M6253.73,3338.71L6249.03,3334.02L6221.63,3361.42C6221.63,3361.42 6225.14,3364.94 6227.89,3367.68C6227.89,3367.68 6226.32,3366.12 6226.32,3366.12L6253.73,3338.71Z" style="fill:rgb(119,180,248);"/>
</g>
<g transform="matrix(1,0,0,1,-6187.62,-3300)">
<path d="M6197.36,3385.69L6194.8,3388.25C6194.89,3388.51 6195.04,3388.76 6195.25,3388.97L6218.21,3411.93C6218.99,3412.71 6220.26,3412.71 6221.04,3411.93C6221.82,3411.15 6221.82,3409.88 6221.04,3409.1L6198.08,3386.14C6197.87,3385.93 6197.62,3385.78 6197.36,3385.69Z" style="fill:rgb(137,105,28);"/>
</g>
<g transform="matrix(1,0,0,1,-6187.62,-3300)">
<path d="M6203.45,3379.6L6200.89,3382.16C6200.97,3382.43 6201.13,3382.67 6201.34,3382.88L6205.37,3386.91C6206.15,3387.69 6207.42,3387.69 6208.2,3386.91C6208.98,3386.13 6208.98,3384.86 6208.2,3384.08L6204.16,3380.05C6203.95,3379.84 6203.71,3379.69 6203.45,3379.6Z" style="fill:rgb(137,105,28);"/>
</g>
<g transform="matrix(1,0,0,1,-6187.62,-3300)">
<path d="M6209.88,3373.17L6207.31,3375.74C6207.4,3376 6207.55,3376.24 6207.76,3376.45L6214.75,3383.44C6215.53,3384.22 6216.8,3384.22 6217.58,3383.44C6218.36,3382.66 6218.36,3381.39 6217.58,3380.61L6210.59,3373.62C6210.38,3373.41 6210.14,3373.26 6209.88,3373.17Z" style="fill:rgb(137,105,28);"/>
</g>
<g transform="matrix(1,0,0,1,-6187.62,-3300)">
<path d="M6216.81,3366.24L6214.25,3368.8C6214.34,3369.06 6214.49,3369.31 6214.7,3369.51L6218.73,3373.55C6219.51,3374.33 6220.78,3374.33 6221.56,3373.55C6222.34,3372.77 6222.34,3371.5 6221.56,3370.72L6217.53,3366.69C6217.32,3366.48 6217.08,3366.33 6216.81,3366.24Z" style="fill:rgb(137,105,28);"/>
</g>
<g transform="matrix(1,0,0,1,-6187.62,-3300)">
<path d="M6256.27,3326.78L6253.7,3329.35C6253.79,3329.61 6253.94,3329.85 6254.15,3330.06L6261.14,3337.05C6261.92,3337.83 6263.19,3337.83 6263.97,3337.05C6264.75,3336.27 6264.75,3335 6263.97,3334.22L6256.98,3327.23C6256.77,3327.02 6256.53,3326.87 6256.27,3326.78Z" style="fill:rgb(137,105,28);"/>
</g>
<g transform="matrix(1,0,0,1,-6187.62,-3300)">
<path d="M6275.72,3307.33L6273.15,3309.9C6273.24,3310.16 6273.4,3310.4 6273.6,3310.61L6295.84,3332.85C6296.62,3333.63 6297.89,3333.63 6298.67,3332.85C6299.45,3332.07 6299.45,3330.8 6298.67,3330.02L6276.43,3307.78C6276.22,3307.57 6275.98,3307.42 6275.72,3307.33Z" style="fill:rgb(137,105,28);"/>
</g>
<g transform="matrix(1,0,0,1,-6187.62,-3300)">
<path d="M6262.35,3320.7L6259.79,3323.26C6259.88,3323.52 6260.03,3323.77 6260.24,3323.97L6264.27,3328.01C6265.05,3328.79 6266.32,3328.79 6267.1,3328.01C6267.88,3327.23 6267.88,3325.96 6267.1,3325.18L6263.07,3321.15C6262.86,3320.94 6262.62,3320.78 6262.35,3320.7Z" style="fill:rgb(137,105,28);"/>
</g>
<g transform="matrix(1,0,0,1,-6187.62,-3300)">
<path d="M6268.78,3314.27L6266.22,3316.83C6266.31,3317.1 6266.46,3317.34 6266.67,3317.55L6273.66,3324.54C6274.44,3325.32 6275.7,3325.32 6276.49,3324.54C6277.27,3323.76 6277.27,3322.49 6276.49,3321.71L6269.5,3314.72C6269.29,3314.51 6269.04,3314.36 6268.78,3314.27Z" style="fill:rgb(137,105,28);"/>
</g>
<g transform="matrix(1,0,0,1,-6187.62,-3300)">
<path d="M6231.85,3351.2L6229.03,3354.03C6229.03,3354.03 6237.71,3362.71 6237.71,3362.71C6238.01,3363.01 6238.37,3363.19 6238.76,3363.23L6241.06,3360.93C6241.02,3360.54 6240.84,3360.18 6240.54,3359.89L6231.85,3351.2Z" style="fill:rgb(55,116,184);"/>
</g>
<g transform="matrix(1,0,0,1,-6187.62,-3300)">
<path d="M6241.64,3341.41L6238.81,3344.24L6248.09,3353.52L6248.32,3353.67L6251.07,3350.92L6250.92,3350.69L6241.64,3341.41Z" style="fill:rgb(55,116,184);"/>
</g>
<g transform="matrix(2.08678,0,0,2.08678,-27714.6,-5222.82)">
<circle cx="13310.7" cy="2523.46" r="1.294" style="fill:rgb(187,218,252);"/>
</g>
</g>
</g>
</g>
</svg>