<?xml version="1.0" ?>
<!DOCTYPE svg  PUBLIC '-//W3C//DTD SVG 1.1//EN'  'http://www.w3.org/Graphics/SVG/1.1/DTD/svg11.dtd'>
<!-- Uploaded to: SVG Repo, www.svgrepo.com, Generator: SVG Repo Mixer Tools -->
<svg fill="#000000" width="800px" height="800px" viewBox="0 -0.5 129 129" style="fill-rule:evenodd;clip-rule:evenodd;stroke-linejoin:round;stroke-miterlimit:2;" version="1.1" xml:space="preserve" xmlns="http://www.w3.org/2000/svg" xmlns:serif="http://www.serif.com/" xmlns:xlink="http://www.w3.org/1999/xlink">
<g transform="matrix(1,0,0,1,-315,0)">
<g id="wrench-tools-" transform="matrix(1,0,0,1,315.418,0)">
<rect height="128" style="fill:none;" width="128" x="0" y="0"/>
<g>
<g transform="matrix(1,0,0,1,-2503.43,-2621.67)">
<path d="M2602.18,2669.06L2553.59,2717.45L2536.41,2700.32L2585.48,2651.45L2602.18,2669.06Z" style="fill:rgb(158,158,158);"/>
</g>
<g transform="matrix(1,0,0,1,-2503.43,-2621.67)">
<path d="M2594.2,2661.08L2602.18,2669.06L2553.59,2717.45L2545.61,2709.47L2594.2,2661.08Z" style="fill:rgb(118,118,118);"/>
</g>
<g transform="matrix(1,0,0,1,-2508.44,-2616.66)">
<path d="M2581.54,2655.36L2590.49,2646.44L2607.19,2664.05L2599.64,2671.57C2595.13,2670.72 2590.83,2668.54 2587.35,2665.04C2584.56,2662.24 2582.61,2658.91 2581.54,2655.36Z" style="fill:rgb(118,118,118);"/>
</g>
<g transform="matrix(1,0,0,1,-2503.43,-2621.67)">
<path d="M2605.16,2628.03C2605.67,2627.45 2605.8,2626.61 2605.48,2625.9C2605.16,2625.19 2604.45,2624.72 2603.67,2624.72C2597.78,2624.86 2591.92,2627.15 2587.42,2631.63C2578.18,2640.83 2578.15,2655.8 2587.35,2665.04C2596.55,2674.28 2611.52,2674.32 2620.76,2665.12C2625.26,2660.64 2627.58,2654.79 2627.71,2648.9C2627.7,2648.13 2627.25,2647.44 2626.55,2647.13C2625.86,2646.81 2625.04,2646.93 2624.47,2647.43C2619.83,2651.4 2611.55,2658.58 2611.55,2658.58L2600.38,2652.42L2593.92,2640.87C2593.92,2640.87 2601.14,2632.62 2605.16,2628.03Z" style="fill:rgb(158,158,158);"/>
</g>
<g transform="matrix(1,0,0,1,-2503.43,-2621.67)">
<path d="M2602.03,2624.81C2596.7,2625.31 2591.51,2627.57 2587.42,2631.63C2578.18,2640.83 2578.15,2655.8 2587.35,2665.04C2594.14,2671.86 2604.07,2673.67 2612.52,2670.45C2605.76,2671.06 2598.79,2668.78 2593.63,2663.59C2584.43,2654.35 2584.47,2639.38 2593.7,2630.18C2596.15,2627.75 2599,2625.96 2602.03,2624.81Z" style="fill:rgb(182,182,182);"/>
</g>
<g transform="matrix(1,0,0,1,-2503.43,-2621.67)">
<path d="M2510.53,2722.94C2509.95,2723.45 2509.12,2723.57 2508.41,2723.26C2507.7,2722.94 2507.24,2722.24 2507.22,2721.46C2507.34,2715.2 2509.77,2708.98 2514.55,2704.22C2524.24,2694.57 2539.95,2694.6 2549.6,2704.3C2559.24,2713.99 2559.21,2729.69 2549.52,2739.34C2544.74,2744.1 2538.5,2746.5 2532.25,2746.55C2531.48,2746.54 2530.8,2746.08 2530.49,2745.38C2530.18,2744.69 2530.31,2743.87 2530.81,2743.3C2534.96,2738.5 2542.71,2729.65 2542.71,2729.65L2536.3,2717.9L2524.21,2711.07C2524.21,2711.07 2515.33,2718.78 2510.53,2722.94Z" style="fill:rgb(158,158,158);"/>
</g>
<g transform="matrix(1,0,0,1,-2503.43,-2621.67)">
<path d="M2507.77,2722.8C2507.43,2722.44 2507.23,2721.97 2507.22,2721.46C2507.34,2715.2 2509.77,2708.98 2514.55,2704.22C2524.24,2694.57 2539.95,2694.6 2549.6,2704.3C2555.18,2709.91 2557.52,2717.53 2556.62,2724.83C2555.97,2719.55 2553.63,2714.44 2549.6,2710.39C2539.95,2700.7 2524.24,2700.66 2514.55,2710.31C2510.99,2713.86 2508.74,2718.22 2507.77,2722.8Z" style="fill:rgb(182,182,182);"/>
</g>
</g>
</g>
</g>
</svg>