<?xml version="1.0" ?>
<!DOCTYPE svg  PUBLIC '-//W3C//DTD SVG 1.1//EN'  'http://www.w3.org/Graphics/SVG/1.1/DTD/svg11.dtd'>
<!-- Uploaded to: SVG Repo, www.svgrepo.com, Generator: SVG Repo Mixer Tools -->
<svg fill="#000000" width="800px" height="800px" viewBox="0 0 128 128" style="fill-rule:evenodd;clip-rule:evenodd;stroke-linejoin:round;stroke-miterlimit:2;" version="1.1" xml:space="preserve" xmlns="http://www.w3.org/2000/svg" xmlns:serif="http://www.serif.com/" xmlns:xlink="http://www.w3.org/1999/xlink">
<rect height="128" id="toolbox-" style="fill:none;" width="128" x="0" y="0"/>
<g id="toolbox-1">
<g transform="matrix(1,0,0,1,0,-1.21491)">
<g transform="matrix(1,0,0,1,-2188.01,-2621.67)">
<path d="M2240.62,2667.38L2240.62,2651.93C2240.62,2650.82 2241.06,2649.76 2241.85,2648.98C2242.63,2648.19 2243.69,2647.75 2244.8,2647.75L2259.23,2647.75C2261.53,2647.75 2263.41,2649.62 2263.41,2651.93L2263.41,2667.38L2272.46,2667.38L2272.46,2651.4C2272.46,2645.74 2267.87,2641.16 2262.21,2641.16C2255.98,2641.16 2248.05,2641.16 2241.82,2641.16C2236.16,2641.16 2231.57,2645.74 2231.57,2651.4L2231.57,2667.38L2240.62,2667.38Z" style="fill:rgb(51,51,51);"/>
</g>
<g transform="matrix(1.15425,8.16504e-17,-7.71993e-17,-0.460949,-1759.58,277.085)">
<path d="M1632.42,473.963L1527.34,473.963C1527.34,473.963 1529.52,492.376 1531.17,506.383C1532.26,515.595 1535.64,521.915 1539.48,521.915L1620.28,521.915C1624.12,521.915 1627.5,515.595 1628.59,506.383C1630.25,492.376 1632.42,473.963 1632.42,473.963Z" style="fill:rgb(244,187,49);"/>
</g>
<g transform="matrix(1,0,0,1,-2188.01,-2621.67)">
<path d="M2193.27,2680.28L2191.37,2680.28C2191.37,2680.28 2193.88,2671.8 2195.79,2665.34C2197.05,2661.09 2200.95,2658.18 2205.38,2658.18L2298.65,2658.18C2303.08,2658.18 2306.98,2661.09 2308.24,2665.34C2310.15,2671.8 2312.66,2680.28 2312.66,2680.28L2310.76,2680.28L2308.24,2671.76C2306.98,2667.52 2303.08,2664.6 2298.65,2664.6L2205.38,2664.6C2200.95,2664.6 2197.05,2667.52 2195.79,2671.76L2193.27,2680.28Z" style="fill:rgb(247,204,101);"/>
</g>
<g transform="matrix(1.15425,0,0,1.09133,-1759.58,-458.638)">
<path d="M1632.42,473.963L1527.34,473.963C1527.34,473.963 1530.45,500.239 1532.06,513.889C1532.6,518.474 1536.29,521.915 1540.66,521.915C1558.26,521.915 1601.5,521.915 1619.1,521.915C1623.47,521.915 1627.16,518.474 1627.7,513.889C1629.32,500.239 1632.42,473.963 1632.42,473.963Z" style="fill:rgb(51,51,51);"/>
</g>
<g transform="matrix(1,0,0,1,-2188.01,-2621.67)">
<path d="M2311.99,2685.66L2312.66,2680.28L2191.37,2680.28L2192.04,2685.66L2311.99,2685.66Z" style="fill:rgb(38,38,38);"/>
</g>
<g transform="matrix(1,0,0,1,-2188.01,-2621.67)">
<path d="M2311.98,2680.28L2307.21,2718.38C2306.58,2723.38 2302.33,2727.14 2297.29,2727.14C2276.97,2727.14 2227.06,2727.14 2206.74,2727.14C2201.7,2727.14 2197.45,2723.38 2196.82,2718.38L2192.05,2680.28L2191.37,2680.28C2191.37,2680.28 2194.95,2708.96 2196.82,2723.86C2197.45,2728.86 2201.7,2732.61 2206.74,2732.61C2227.06,2732.61 2276.97,2732.61 2297.29,2732.61C2302.33,2732.61 2306.58,2728.86 2307.21,2723.86C2309.07,2708.96 2312.66,2680.28 2312.66,2680.28L2311.98,2680.28Z" style="fill:rgb(38,38,38);"/>
</g>
<g transform="matrix(1.09133,0,0,1.08179,-1656.09,-453.819)">
<rect height="48.374" style="fill:rgb(244,187,49);" width="19.854" x="1537.56" y="473.687"/>
</g>
<g transform="matrix(1.09133,0,0,1.08179,-1593.54,-453.819)">
<rect height="48.374" style="fill:rgb(244,187,49);" width="19.854" x="1537.56" y="473.687"/>
</g>
<g transform="matrix(1.09133,0,0,0.112485,-1656.09,52.2185)">
<rect height="48.374" style="fill:rgb(183,140,37);" width="19.854" x="1537.56" y="473.687"/>
</g>
<g transform="matrix(1.09133,0,0,0.112485,-1593.54,52.2185)">
<rect height="48.374" style="fill:rgb(183,140,37);" width="19.854" x="1537.56" y="473.687"/>
</g>
<g transform="matrix(1.09133,0,0,0.112485,-1656.09,5.32883)">
<rect height="48.374" style="fill:rgb(183,140,37);" width="19.854" x="1537.56" y="473.687"/>
</g>
<g transform="matrix(1.09133,0,0,0.112485,-1593.54,5.32883)">
<rect height="48.374" style="fill:rgb(183,140,37);" width="19.854" x="1537.56" y="473.687"/>
</g>
<g transform="matrix(0.793081,0,0,0.793081,-1250.05,-305.803)">
<path d="M1612.22,477.673L1612.22,466.269C1612.22,463.419 1614.53,461.109 1617.38,461.109C1617.43,461.109 1617.48,461.109 1617.53,461.109C1620.38,461.109 1622.69,463.419 1622.69,466.269L1622.69,477.673C1622.69,480.523 1620.38,482.833 1617.53,482.833C1617.48,482.833 1617.43,482.833 1617.38,482.833C1614.53,482.833 1612.22,480.523 1612.22,477.673Z" style="fill:rgb(183,140,37);"/>
</g>
<g transform="matrix(0.793081,0,0,0.793081,-1187.5,-305.803)">
<path d="M1612.22,477.673L1612.22,466.269C1612.22,463.419 1614.53,461.109 1617.38,461.109C1617.43,461.109 1617.48,461.109 1617.53,461.109C1620.38,461.109 1622.69,463.419 1622.69,466.269L1622.69,477.673C1622.69,480.523 1620.38,482.833 1617.53,482.833C1617.48,482.833 1617.43,482.833 1617.38,482.833C1614.53,482.833 1612.22,480.523 1612.22,477.673Z" style="fill:rgb(183,140,37);"/>
</g>
<g transform="matrix(0.793081,0,0,0.793081,-1250.05,-309.813)">
<path d="M1612.22,477.673L1612.22,466.269C1612.22,463.419 1614.53,461.109 1617.38,461.109C1617.43,461.109 1617.48,461.109 1617.53,461.109C1620.38,461.109 1622.69,463.419 1622.69,466.269L1622.69,477.673C1622.69,480.523 1620.38,482.833 1617.53,482.833C1617.48,482.833 1617.43,482.833 1617.38,482.833C1614.53,482.833 1612.22,480.523 1612.22,477.673Z" style="fill:rgb(128,128,128);"/>
</g>
<g transform="matrix(0.793081,0,0,0.793081,-1187.5,-309.813)">
<path d="M1612.22,477.673L1612.22,466.269C1612.22,463.419 1614.53,461.109 1617.38,461.109C1617.43,461.109 1617.48,461.109 1617.53,461.109C1620.38,461.109 1622.69,463.419 1622.69,466.269L1622.69,477.673C1622.69,480.523 1620.38,482.833 1617.53,482.833C1617.48,482.833 1617.43,482.833 1617.38,482.833C1614.53,482.833 1612.22,480.523 1612.22,477.673Z" style="fill:rgb(128,128,128);"/>
</g>
<g transform="matrix(0.793081,0,0,0.793081,-1250.05,-309.813)">
<path d="M1622.69,472.077L1612.22,472.077L1612.22,466.269C1612.22,463.419 1614.53,461.109 1617.38,461.109C1617.43,461.109 1617.48,461.109 1617.53,461.109C1620.38,461.109 1622.69,463.419 1622.69,466.269L1622.69,472.077Z" style="fill:rgb(160,160,160);"/>
</g>
<g transform="matrix(0.793081,0,0,0.793081,-1187.5,-309.813)">
<path d="M1622.69,472.077L1612.22,472.077L1612.22,466.269C1612.22,463.419 1614.53,461.109 1617.38,461.109C1617.43,461.109 1617.48,461.109 1617.53,461.109C1620.38,461.109 1622.69,463.419 1622.69,466.269L1622.69,472.077Z" style="fill:rgb(160,160,160);"/>
</g>
</g>
</g>
</svg>