<?xml version="1.0" ?>
<!DOCTYPE svg  PUBLIC '-//W3C//DTD SVG 1.1//EN'  'http://www.w3.org/Graphics/SVG/1.1/DTD/svg11.dtd'>
<!-- Uploaded to: SVG Repo, www.svgrepo.com, Generator: SVG Repo Mixer Tools -->
<svg fill="#000000" width="800px" height="800px" viewBox="0 0 129 129" style="fill-rule:evenodd;clip-rule:evenodd;stroke-linejoin:round;stroke-miterlimit:2;" version="1.1" xml:space="preserve" xmlns="http://www.w3.org/2000/svg" xmlns:serif="http://www.serif.com/" xmlns:xlink="http://www.w3.org/1999/xlink">
<g transform="matrix(1,0,0,1,-157,-508)">
<g id="ruler" transform="matrix(1,0,0,1,157.709,508.75)">
<rect height="128" style="fill:none;" width="128" x="0" y="0"/>
<g>
<g transform="matrix(1,0,0,1,-5872.2,-3130.42)">
<path d="M5980.76,3145.3L5968.56,3133.1L5890.81,3210.85L5920.44,3205.62L5980.76,3145.3Z" style="fill:rgb(182,182,182);"/>
</g>
<g transform="matrix(1,0,0,1,-5872.2,-3130.42)">
<path d="M5968.56,3133.1L5975.42,3139.96L5902.97,3212.4L5920.44,3205.62L5980.76,3145.3L5968.56,3133.1Z" style="fill:rgb(136,136,136);"/>
</g>
<g>
<g transform="matrix(0.626408,0.626408,-0.626408,0.626408,-4168.1,-6853.09)">
<path d="M8895.67,2083.71L8895.67,2079.2L8885.93,2079.2C8884.68,2079.2 8883.67,2080.21 8883.67,2081.45C8883.67,2082.7 8884.68,2083.71 8885.93,2083.71L8895.67,2083.71Z" style="fill:rgb(102,102,102);"/>
</g>
<g transform="matrix(0.626408,0.626408,-0.626408,0.626408,-4182.64,-6838.55)">
<path d="M8895.67,2083.71L8895.67,2079.2L8885.93,2079.2C8884.68,2079.2 8883.67,2080.21 8883.67,2081.45C8883.67,2082.7 8884.68,2083.71 8885.93,2083.71L8895.67,2083.71Z" style="fill:rgb(102,102,102);"/>
</g>
<g transform="matrix(0.626408,0.626408,-0.626408,0.626408,-4197.18,-6824.01)">
<path d="M8895.67,2083.71L8895.67,2079.2L8885.93,2079.2C8884.68,2079.2 8883.67,2080.21 8883.67,2081.45C8883.67,2082.7 8884.68,2083.71 8885.93,2083.71L8895.67,2083.71Z" style="fill:rgb(102,102,102);"/>
</g>
<g transform="matrix(0.626408,0.626408,-0.626408,0.626408,-4211.73,-6809.47)">
<path d="M8895.67,2083.71L8895.67,2079.2L8885.93,2079.2C8884.68,2079.2 8883.67,2080.21 8883.67,2081.45C8883.67,2082.7 8884.68,2083.71 8885.93,2083.71L8895.67,2083.71Z" style="fill:rgb(102,102,102);"/>
</g>
<g transform="matrix(0.313204,0.313204,-0.626408,0.626408,-1389.21,-4059.66)">
<path d="M8895.67,2083.71L8895.67,2079.2L8885.93,2079.2C8883.44,2079.2 8881.41,2080.21 8881.41,2081.45C8881.41,2082.7 8883.44,2083.71 8885.93,2083.71L8895.67,2083.71Z" style="fill:rgb(102,102,102);"/>
</g>
<g transform="matrix(0.313204,0.313204,-0.626408,0.626408,-1403.75,-4045.12)">
<path d="M8895.67,2083.71L8895.67,2079.2L8885.93,2079.2C8883.44,2079.2 8881.41,2080.21 8881.41,2081.45C8881.41,2082.7 8883.44,2083.71 8885.93,2083.71L8895.67,2083.71Z" style="fill:rgb(102,102,102);"/>
</g>
<g transform="matrix(0.313204,0.313204,-0.626408,0.626408,-1418.3,-4030.58)">
<path d="M8895.67,2083.71L8895.67,2079.2L8885.93,2079.2C8883.44,2079.2 8881.41,2080.21 8881.41,2081.45C8881.41,2082.7 8883.44,2083.71 8885.93,2083.71L8895.67,2083.71Z" style="fill:rgb(102,102,102);"/>
</g>
<g transform="matrix(0.313204,0.313204,-0.626408,0.626408,-1432.84,-4016.04)">
<path d="M8895.27,2083.71L8895.67,2083.43L8895.67,2079.2L8885.93,2079.2C8883.44,2079.2 8881.41,2080.21 8881.41,2081.45C8881.41,2082.7 8883.44,2083.71 8885.93,2083.71L8895.27,2083.71Z" style="fill:rgb(102,102,102);"/>
</g>
</g>
<g transform="matrix(0.856926,0.856926,-0.559089,0.559089,-6378.9,-8769.65)">
<path d="M8952.34,2170.92C8952.34,2168.61 8951.74,2166.38 8950.67,2164.74C8949.6,2163.1 8948.15,2162.18 8946.64,2162.18C8935.27,2162.18 8910.91,2162.18 8910.91,2162.18L8896.68,2193.35L8946.64,2193.35C8949.79,2193.35 8952.34,2189.43 8952.34,2184.61C8952.34,2180.33 8952.34,2175.2 8952.34,2170.92Z" style="fill:rgb(51,51,51);"/>
</g>
<g>
<g transform="matrix(1,0,0,1,-5872.2,-3130.42)">
<path d="M5895.39,3210.04L5890.81,3210.85C5890.81,3210.85 5921.46,3241.5 5933.62,3253.66C5936.33,3256.36 5940.7,3256.36 5943.4,3253.66C5945.8,3251.27 5948.66,3248.4 5951.05,3246.01C5952.35,3244.72 5953.08,3242.96 5953.08,3241.12C5953.08,3239.75 5952.67,3238.42 5951.93,3237.3C5951.58,3238.26 5951.03,3239.14 5950.3,3239.87C5947.91,3242.26 5945.04,3245.13 5942.65,3247.52C5939.95,3250.22 5935.57,3250.22 5932.87,3247.52L5895.39,3210.04Z" style="fill:rgb(38,38,38);"/>
</g>
<g transform="matrix(1,0,0,1,-5872.2,-3130.42)">
<path d="M5926.21,3211.39L5920.44,3205.62L5890.81,3210.85L5926.21,3211.39Z" style="fill:rgb(38,38,38);"/>
</g>
</g>
<g transform="matrix(0.658365,0.658365,-0.266432,0.266432,-5243.52,-6359.59)">
<path d="M8952.34,2170.39C8952.34,2168.22 8951.99,2166.12 8951.37,2164.58C8950.74,2163.04 8949.9,2162.18 8949.02,2162.18C8939.18,2162.18 8910.91,2162.18 8910.91,2162.18L8910.91,2193.35C8910.91,2193.35 8939.18,2193.35 8949.02,2193.35C8949.9,2193.35 8950.74,2192.49 8951.37,2190.95C8951.99,2189.4 8952.34,2187.31 8952.34,2185.14C8952.34,2180.58 8952.34,2174.94 8952.34,2170.39Z" style="fill:rgb(244,187,49);"/>
</g>
<g transform="matrix(1,0,0,1,-5872.2,-3130.42)">
<path d="M5914.18,3218.6L5910.93,3221.84C5910.93,3221.84 5929.54,3240.45 5936.02,3246.93C5936.6,3247.51 5937.39,3247.84 5938.21,3247.84C5939.03,3247.84 5939.82,3247.51 5940.4,3246.93C5941.61,3245.72 5943.11,3244.22 5944.32,3243C5944.9,3242.42 5945.23,3241.63 5945.23,3240.81C5945.23,3239.99 5944.9,3239.2 5944.32,3238.62L5942.78,3237.08L5939.91,3239.95C5939.33,3240.53 5938.54,3240.86 5937.72,3240.86C5936.9,3240.86 5936.11,3240.53 5935.53,3239.95L5914.18,3218.6Z" style="fill:rgb(183,140,37);"/>
</g>
</g>
</g>
</g>
</svg>