<?xml version="1.0" ?><!-- Uploaded to: SVG Repo, www.svgrepo.com, Generator: SVG Repo Mixer Tools -->
<svg width="800px" height="800px" viewBox="0 0 96 96" xmlns="http://www.w3.org/2000/svg"><title/><path d="M82.06,42.6h0a9.52,9.52,0,0,0-7.61,1.1A26.76,26.76,0,0,0,49,25h-.21l6.93-7h0A34.48,34.48,0,0,1,82.06,42.6Z" style="fill:#eaeaea"/><path d="M82,61.07A34.3,34.3,0,0,1,14.63,52h7.63a26.7,26.7,0,0,0,52.17,8,9.45,9.45,0,0,0,5,1.45A9.35,9.35,0,0,0,82,61.07Z" style="fill:#eaeaea"/><path d="M17,87H79a7,7,0,0,1,7,7v0a0,0,0,0,1,0,0H10a0,0,0,0,1,0,0v0A7,7,0,0,1,17,87Z" style="fill:#575072"/><path d="M17,87H79a7,7,0,0,1,7,7v0a0,0,0,0,1,0,0H10a0,0,0,0,1,0,0v0A7,7,0,0,1,17,87Z" style="fill:none;stroke:#281a3b;stroke-linecap:round;stroke-linejoin:round;stroke-width:4px"/><path d="M82.06,42.6h0a9.52,9.52,0,0,0-7.61,1.1A26.76,26.76,0,0,0,49,25h-.21l6.93-7h0A34.48,34.48,0,0,1,82.06,42.6Z" style="fill:#eaeaea"/><path d="M82.06,42.6h0a9.52,9.52,0,0,0-7.61,1.1A26.76,26.76,0,0,0,49,25h-.21l6.93-7h0A34.48,34.48,0,0,1,82.06,42.6Z" style="fill:none;stroke:#281a3b;stroke-linecap:round;stroke-linejoin:round;stroke-width:4px"/><rect height="7" style="fill:#575072" width="26" x="7" y="45"/><rect height="7" style="fill:none;stroke:#281a3b;stroke-linecap:round;stroke-linejoin:round;stroke-width:4px" width="26" x="7" y="45"/><polygon points="57.94 15.69 41.16 32.67 33.7 25.12 50.48 8.14 57.94 15.69" style="fill:#575072"/><polygon points="57.94 15.69 41.16 32.67 33.7 25.12 50.48 8.14 57.94 15.69" style="fill:none;stroke:#281a3b;stroke-linecap:round;stroke-linejoin:round;stroke-width:4px"/><line style="fill:none;stroke:#281a3b;stroke-linecap:round;stroke-linejoin:round;stroke-width:4px" x1="41.16" x2="48.62" y1="17.57" y2="25.12"/><polygon points="56.77 14.51 51.86 9.53 59.31 2 64.21 6.96 56.77 14.51" style="fill:#eaeaea"/><polygon points="56.77 14.51 51.86 9.53 59.31 2 64.21 6.96 56.77 14.51" style="fill:none;stroke:#281a3b;stroke-linecap:round;stroke-linejoin:round;stroke-width:4px"/><path d="M82,61.07A34.3,34.3,0,0,1,14.63,52h7.63a26.7,26.7,0,0,0,52.17,8,9.45,9.45,0,0,0,5,1.45A9.35,9.35,0,0,0,82,61.07Z" style="fill:none;stroke:#281a3b;stroke-linecap:round;stroke-linejoin:round;stroke-width:4px"/><ellipse cx="79.47" cy="51.83" rx="9.53" ry="9.58" style="fill:#575072"/><ellipse cx="79.47" cy="51.83" rx="9.53" ry="9.58" style="fill:none;stroke:#281a3b;stroke-linecap:round;stroke-linejoin:round;stroke-width:4px"/><ellipse cx="79.47" cy="51.83" rx="3.81" ry="3.83" style="fill:#eaeaea"/><ellipse cx="79.47" cy="51.83" rx="3.81" ry="3.83" style="fill:none;stroke:#281a3b;stroke-linecap:round;stroke-linejoin:round;stroke-width:4px"/></svg>