<?xml version="1.0" encoding="utf-8"?><!-- Uploaded to: SVG Repo, www.svgrepo.com, Generator: SVG Repo Mixer Tools -->
<svg width="800px" height="800px" viewBox="0 0 64 64" fill="none" xmlns="http://www.w3.org/2000/svg">
<path fill-rule="evenodd" clip-rule="evenodd" d="M31.391 26.7759L29.1331 43.0821L35.5557 48.134L43.5588 44.7827L44.3616 37.0298L31.391 26.7759Z" fill="#2A2941"/>
<path d="M37.1111 43.2821C38.7921 43.2821 40.1719 41.9066 40.1719 40.2059C40.1719 38.5053 38.8171 37.1298 37.1111 37.1298C35.4302 37.1298 34.0504 38.5053 34.0504 40.2059C34.0504 41.9066 35.4302 43.2821 37.1111 43.2821Z" fill="#2A2941"/>
<path fill-rule="evenodd" clip-rule="evenodd" d="M37.1111 37.1548C37.7133 37.1548 38.3154 37.3048 38.8422 37.655C39.3691 37.9801 39.7705 38.4553 39.9963 39.0305C40.2472 39.5807 40.2973 40.2059 40.197 40.8062C40.0715 41.4064 39.7956 41.9566 39.3691 42.4068C38.9426 42.8319 38.3906 43.1321 37.7885 43.2571C37.1864 43.3822 36.5592 43.3321 36.0073 43.082C35.4302 42.857 34.9536 42.4568 34.6023 41.9566C34.2511 41.4564 34.0755 40.8562 34.0755 40.231C34.0755 39.4307 34.4016 38.6554 34.9536 38.0551C35.5306 37.4799 36.3083 37.1548 37.1111 37.1548ZM37.1111 38.9305C37.362 38.9055 37.638 38.9805 37.8638 39.1055C38.0896 39.2306 38.2652 39.4307 38.3906 39.6807C38.491 39.9308 38.5412 40.1809 38.491 40.456C38.4408 40.7061 38.3405 40.9562 38.1398 41.1563C37.9641 41.3564 37.7133 41.4814 37.4624 41.5314C37.2115 41.5815 36.9355 41.5565 36.6846 41.4814C36.4338 41.3814 36.2331 41.2063 36.0825 41.0062C35.932 40.7812 35.8567 40.5311 35.8567 40.281C35.8567 40.1059 35.8818 39.9559 35.932 39.7808C35.9822 39.6307 36.0825 39.4807 36.208 39.3556C36.3334 39.2306 36.4589 39.1305 36.6094 39.0805C36.785 38.9555 36.9355 38.9305 37.1111 38.9305Z" fill="#2A2941"/>
<path d="M36.2331 38.0301L34.5271 33.8785" stroke="#2A2941" stroke-width="3.1051" stroke-miterlimit="10" stroke-linecap="square"/>
<path fill-rule="evenodd" clip-rule="evenodd" d="M32.4698 47.7839L45.6161 42.1567L47.5478 46.8335L34.3515 52.4607L32.4698 47.7839Z" fill="#2A2941"/>
<path fill-rule="evenodd" clip-rule="evenodd" d="M17.0657 27.301L40.3977 17.2722L39.7203 15.6466L16.3883 25.6754L17.0657 27.301Z" fill="#2A2941"/>
<path fill-rule="evenodd" clip-rule="evenodd" d="M23.137 34.6789C22.6854 29.3518 23.137 24.6 29.108 21.999C35.3801 19.248 39.5698 22.3492 43.032 26.3757L43.609 27.051L44.9387 25.9005L44.3867 25.2253C40.4228 20.6235 35.5808 17.2222 28.4055 20.3984C21.6317 23.3746 20.8791 28.7016 21.4059 34.8289L21.4812 35.7042L23.2374 35.5542L23.137 34.6789Z" fill="#2A2941"/>
<path d="M40.5232 19.198C42.0034 19.198 43.2076 17.9976 43.2076 16.547C43.2076 15.0714 42.0034 13.896 40.5232 13.896C39.0429 13.896 37.8387 15.0965 37.8387 16.547C37.8387 17.9976 39.0429 19.198 40.5232 19.198Z" fill="#2A2941"/>
<path fill-rule="evenodd" clip-rule="evenodd" d="M40.5231 13.871C41.05 13.871 41.5768 14.021 42.0033 14.3211C42.4549 14.6213 42.7811 15.0214 42.9818 15.5216C43.1825 16.0218 43.2327 16.547 43.1323 17.0722C43.032 17.5974 42.7811 18.0726 42.4048 18.4477C42.0284 18.8229 41.5518 19.0729 41.0249 19.173C40.4981 19.273 39.9712 19.223 39.4694 19.0229C38.9677 18.8229 38.5663 18.4727 38.2652 18.0226C37.9641 17.5724 37.8136 17.0722 37.8136 16.522C37.8136 15.8217 38.0896 15.1465 38.5913 14.6463C39.1433 14.1461 39.8207 13.871 40.5231 13.871ZM40.5231 15.6466C40.6988 15.6466 40.8744 15.6967 41.0249 15.7967C41.1754 15.8967 41.2758 16.0468 41.3511 16.1969C41.4263 16.3719 41.4263 16.547 41.4012 16.7221C41.3761 16.8971 41.2758 17.0472 41.1503 17.1722C41.0249 17.2973 40.8493 17.3723 40.6737 17.4223C40.4981 17.4473 40.3224 17.4223 40.1468 17.3723C39.9712 17.2973 39.8458 17.1722 39.7454 17.0222C39.6451 16.8721 39.5949 16.697 39.5949 16.522C39.5949 16.2719 39.6952 16.0468 39.8708 15.8967C40.0716 15.7217 40.2973 15.6466 40.5231 15.6466Z" fill="#2A2941"/>
<path d="M17.2413 29.0518C18.7215 29.0518 19.9257 27.8513 19.9257 26.4008C19.9257 24.9252 18.7215 23.7498 17.2413 23.7498C15.7611 23.7498 14.5569 24.9252 14.5569 26.4008C14.5569 27.8513 15.7611 29.0518 17.2413 29.0518Z" fill="#2A2941"/>
<path fill-rule="evenodd" clip-rule="evenodd" d="M17.2413 23.7247C17.7681 23.7247 18.295 23.8748 18.7215 24.1499C19.1731 24.45 19.5243 24.8502 19.725 25.3503C19.9257 25.8255 20.001 26.3757 19.9006 26.9009C19.8003 27.4261 19.5494 27.9013 19.1731 28.2765C18.7968 28.6516 18.3201 28.9017 17.8183 29.0267C17.2915 29.1268 16.7646 29.1018 16.2628 28.9017C15.7611 28.7016 15.3597 28.3765 15.0586 27.9263C14.7576 27.5012 14.5819 26.976 14.5819 26.4508C14.5819 25.7505 14.8579 25.0502 15.3597 24.55C15.8614 24.0248 16.5388 23.7497 17.2413 23.7247ZM17.2413 25.5004C17.4169 25.5004 17.5925 25.5504 17.7431 25.6505C17.8936 25.7505 17.9939 25.9006 18.0692 26.0506C18.1445 26.2257 18.1445 26.4007 18.1194 26.5758C18.0943 26.7509 17.9939 26.9009 17.8685 27.026C17.7431 27.151 17.5674 27.2261 17.4169 27.2761C17.2413 27.3011 17.0657 27.3011 16.8901 27.2261C16.7144 27.151 16.589 27.051 16.4886 26.9009C16.3883 26.7509 16.3381 26.5758 16.3381 26.4007C16.3381 26.2757 16.3632 26.1507 16.4134 26.0506C16.4636 25.9506 16.5388 25.8505 16.6141 25.7505C16.6893 25.6755 16.7897 25.6004 16.9151 25.5504C17.0155 25.5254 17.1158 25.5004 17.2413 25.5004Z" fill="#2A2941"/>
<path fill-rule="evenodd" clip-rule="evenodd" d="M26.5239 19.8732L29.1833 18.6978L31.667 20.3734L30.0112 23.7497L26.1727 22.6743L26.5992 19.8732H26.5239Z" fill="#2A2941"/>
<path fill-rule="evenodd" clip-rule="evenodd" d="M20.9794 34.2537L23.6388 33.0782L26.1225 34.7539L24.2158 38.2302L20.6031 37.0548L21.0296 34.2537H20.9794Z" fill="#2A2941"/>
<path fill-rule="evenodd" clip-rule="evenodd" d="M41.4765 25.4503L44.1358 24.2749L46.6196 25.9255L44.9136 29.3268L41.1002 28.2264L41.4765 25.4503Z" fill="#2A2941"/>
<path fill-rule="evenodd" clip-rule="evenodd" d="M33.3228 24.45L31.0649 40.7561L37.5126 45.8081L45.5157 42.4318L46.2934 34.6788L33.3228 24.45Z" fill="#32EDBB"/>
<path fill-rule="evenodd" clip-rule="evenodd" d="M33.3228 24.45L31.0649 40.7561L37.5126 45.8081L45.5157 42.4318L46.2934 34.6788L33.3228 24.45ZM34.6525 27.7512L44.4369 35.5042L43.8599 41.2563L37.7885 43.7823L32.9716 40.0809L34.6525 27.7512Z" fill="#2A2941"/>
<path d="M39.068 40.9562C40.7489 40.9562 42.1288 39.5806 42.1288 37.88C42.1288 36.1794 40.774 34.8038 39.068 34.8038C37.3871 34.8038 36.0073 36.1794 36.0073 37.88C36.0073 39.5806 37.362 40.9562 39.068 40.9562Z" fill="#FEC34E"/>
<path fill-rule="evenodd" clip-rule="evenodd" d="M39.068 34.829C39.6701 34.829 40.2723 35.004 40.7991 35.3292C41.3009 35.6543 41.7023 36.1545 41.9532 36.7047C42.204 37.2799 42.2542 37.8801 42.1539 38.4804C42.0535 39.0806 41.7525 39.6308 41.3009 40.056C40.8744 40.4811 40.3224 40.7812 39.7203 40.9063C39.1182 41.0313 38.491 40.9563 37.939 40.7312C37.362 40.5061 36.8853 40.106 36.5592 39.5808C36.208 39.0806 36.0323 38.4804 36.0323 37.8551C36.0323 37.455 36.1076 37.0548 36.2581 36.6797C36.4087 36.3045 36.6345 35.9794 36.9104 35.6793C37.1864 35.4042 37.5376 35.1791 37.914 35.004C38.2652 34.904 38.6415 34.829 39.068 34.829ZM39.068 36.5796C39.3189 36.5546 39.5949 36.6297 39.8207 36.7547C40.0465 36.8798 40.2221 37.0798 40.3475 37.3299C40.4479 37.58 40.498 37.8301 40.4479 38.1052C40.3977 38.3553 40.2973 38.6054 40.0966 38.8055C39.921 39.0056 39.6701 39.1306 39.4193 39.1806C39.1684 39.2307 38.8924 39.2056 38.6415 39.1306C38.3906 39.0306 38.1899 38.8555 38.0394 38.6554C37.8889 38.4303 37.8136 38.1803 37.8136 37.9302C37.8136 37.7551 37.8387 37.605 37.8889 37.43C37.9391 37.2799 38.0394 37.1299 38.1648 37.0048C38.2903 36.8798 38.4157 36.7797 38.5663 36.7297C38.7168 36.6047 38.8924 36.5796 39.068 36.5796Z" fill="#2A2941"/>
<path fill-rule="evenodd" clip-rule="evenodd" d="M39.3189 36.1794L36.9355 30.4022L35.3048 31.0775L37.6882 36.8547L39.3189 36.1794Z" fill="#2A2941"/>
<path fill-rule="evenodd" clip-rule="evenodd" d="M34.4518 45.4579L47.6231 39.8058L49.58 44.4826L36.3334 50.1347L34.4518 45.4579Z" fill="#FEC34E"/>
<path fill-rule="evenodd" clip-rule="evenodd" d="M34.4518 45.4579L47.6231 39.8058L49.58 44.4826L36.3334 50.1347L34.4518 45.4579ZM36.7097 46.3833L46.6447 42.1317L47.2217 43.5322L37.2868 47.8088L36.7097 46.3833Z" fill="#2A2941"/>
<path fill-rule="evenodd" clip-rule="evenodd" d="M19.0226 24.9502L42.3546 14.9214L41.6521 13.2958L18.3201 23.3246L19.0226 24.9502Z" fill="#2A2941"/>
<path fill-rule="evenodd" clip-rule="evenodd" d="M25.0939 32.3529C24.6423 27.0259 25.0939 22.2741 31.0398 19.6731C37.2366 16.8971 41.5267 20.0232 44.9638 24.0498L45.5408 24.725L46.8705 23.5746L46.2934 22.8993C42.3546 18.2976 37.4875 14.8963 30.3122 18.0725C23.5635 21.0486 22.8611 26.4007 23.3126 32.503L23.3879 33.3783L25.1441 33.2283L25.0939 32.3529Z" fill="#2A2941"/>
<path d="M42.48 16.8471C43.9602 16.8471 45.1645 15.6466 45.1645 14.1961C45.1645 12.7455 43.9602 11.545 42.48 11.545C40.9998 11.545 39.7956 12.7455 39.7956 14.1961C39.7956 15.6466 40.9998 16.8471 42.48 16.8471Z" fill="white"/>
<path fill-rule="evenodd" clip-rule="evenodd" d="M42.48 11.5951C43.0069 11.5951 43.5086 11.7702 43.9602 12.0453C44.3867 12.3454 44.738 12.7455 44.9387 13.2457C45.1394 13.7459 45.1896 14.2711 45.0892 14.7713C44.9888 15.2965 44.738 15.7467 44.3616 16.1218C43.9853 16.497 43.5086 16.7471 43.0069 16.8471C42.48 16.9471 41.9532 16.8971 41.4765 16.697C40.9998 16.497 40.5733 16.1468 40.2723 15.7217C39.9712 15.2965 39.8207 14.7713 39.8207 14.2461C39.8207 13.896 39.8959 13.5458 40.0214 13.2207C40.1468 12.8956 40.3475 12.5955 40.5984 12.3454C40.8493 12.0953 41.1504 11.8952 41.4765 11.7702C41.7776 11.6701 42.1288 11.5951 42.48 11.5951ZM42.48 13.3708C42.6556 13.3708 42.8313 13.4208 42.9818 13.5208C43.1323 13.6209 43.2327 13.7709 43.3079 13.921C43.3832 14.096 43.3832 14.2711 43.3581 14.4462C43.333 14.6212 43.2327 14.7713 43.1072 14.8963C42.9818 15.0214 42.8062 15.0964 42.6306 15.1464C42.4549 15.1715 42.2793 15.1715 42.1037 15.0964C41.9281 15.0214 41.8026 14.9214 41.7023 14.7713C41.6019 14.6212 41.5518 14.4462 41.5518 14.2711C41.5518 14.1461 41.5518 14.021 41.6019 13.896C41.6521 13.7709 41.7023 13.6709 41.8026 13.5708C41.8779 13.4708 42.0034 13.4208 42.1037 13.3708C42.2291 13.3207 42.3546 13.2957 42.4549 13.2957V13.3708H42.48Z" fill="#2A2941"/>
<path d="M19.1731 26.7258C20.6533 26.7258 21.8575 25.5254 21.8575 24.0748C21.8575 22.5993 20.6533 21.4238 19.1731 21.4238C17.6929 21.4238 16.4886 22.6243 16.4886 24.0748C16.4886 25.5254 17.6929 26.7258 19.1731 26.7258Z" fill="white"/>
<path fill-rule="evenodd" clip-rule="evenodd" d="M19.1731 21.3988C19.6999 21.3988 20.2268 21.5489 20.6533 21.849C21.1049 22.1491 21.431 22.5492 21.6317 23.0494C21.8324 23.5496 21.8826 24.0748 21.7823 24.6C21.6819 25.1252 21.431 25.6004 21.0547 25.9755C20.6784 26.3507 20.2017 26.6008 19.6748 26.7008C19.148 26.8009 18.6462 26.7508 18.1445 26.5508C17.6427 26.3507 17.2413 26.0006 16.9402 25.5504C16.6392 25.1002 16.4886 24.6 16.4886 24.0498C16.4886 23.3495 16.7646 22.6743 17.2664 22.1741C17.7932 21.6989 18.4706 21.3988 19.1731 21.3988ZM19.1731 23.1745C19.2985 23.1745 19.3989 23.1995 19.5243 23.2495C19.6498 23.2995 19.725 23.3495 19.8254 23.4496C19.9006 23.5246 19.9759 23.6247 20.0261 23.7497C20.0763 23.8497 20.1013 23.9748 20.1013 24.0998C20.1013 24.2249 20.0763 24.3249 20.0261 24.45C19.9759 24.55 19.9257 24.65 19.8254 24.7501C19.7501 24.8251 19.6498 24.9001 19.5243 24.9502C19.424 25.0002 19.2985 25.0252 19.1731 25.0252C19.0476 25.0252 18.9473 25.0002 18.8218 24.9502C18.7215 24.9001 18.6211 24.8501 18.5208 24.7501C18.4455 24.675 18.3703 24.575 18.3201 24.45C18.2699 24.3499 18.2448 24.2249 18.2448 24.0998C18.2448 23.9748 18.2699 23.8747 18.3201 23.7497C18.3703 23.6497 18.4204 23.5496 18.5208 23.4496C18.5961 23.3746 18.6964 23.2995 18.8218 23.2495C18.9473 23.1995 19.0727 23.1745 19.1731 23.1745Z" fill="#2A2941"/>
<path fill-rule="evenodd" clip-rule="evenodd" d="M28.4557 17.5473L31.1151 16.3718L33.5988 18.0475L31.943 21.4237L28.1045 20.3483L28.4557 17.5473Z" fill="#A694FE"/>
<path fill-rule="evenodd" clip-rule="evenodd" d="M31.2154 15.3965L27.678 16.9471L27.0508 20.9736L32.3444 22.4492L34.6776 17.7474L31.2154 15.3965ZM29.2585 18.1475L31.0398 17.3722L32.4447 18.3476L31.4412 20.3984L29.0327 19.7231L29.2585 18.1475Z" fill="#2A2941"/>
<path fill-rule="evenodd" clip-rule="evenodd" d="M22.9112 31.9278L25.5706 30.7523L28.0543 32.428L26.1727 35.9043L22.5349 34.7288L22.9614 31.9278H22.9112Z" fill="#A694FE"/>
<path fill-rule="evenodd" clip-rule="evenodd" d="M25.6709 29.752L22.1335 31.3025L21.5063 35.3041L26.4737 36.9297L29.0829 32.1529L25.6709 29.752ZM23.689 32.528L25.4702 31.7527L26.8501 32.7031L25.6709 34.8539L23.4381 34.1286L23.689 32.528Z" fill="#2A2941"/>
<path fill-rule="evenodd" clip-rule="evenodd" d="M43.4083 23.1244L46.0676 21.949L48.5514 23.6246L46.8705 27.0259L43.032 25.9005L43.4083 23.1244Z" fill="#A694FE"/>
<path fill-rule="evenodd" clip-rule="evenodd" d="M46.168 20.9486L42.6055 22.4992L42.0034 26.5257L47.2468 28.0513L49.6051 23.3245L46.168 20.9486ZM44.186 23.6997L45.9673 22.9244L47.3722 23.8997L46.3436 26.0005L43.9351 25.3003L44.186 23.6997Z" fill="#2A2941"/>
</svg>