<?xml version="1.0" encoding="iso-8859-1"?>
<!-- Uploaded to: SVG Repo, www.svgrepo.com, Generator: SVG Repo Mixer Tools -->
<svg height="800px" width="800px" version="1.1" id="Layer_1" xmlns="http://www.w3.org/2000/svg" xmlns:xlink="http://www.w3.org/1999/xlink" 
	 viewBox="0 0 511.999 511.999" xml:space="preserve">
<path style="fill:#787878;" d="M438.594,272.786H73.408c-9.271,0-16.787-7.516-16.787-16.787c0-9.271,7.516-16.787,16.787-16.787
	h365.186c9.271,0,16.787,7.516,16.787,16.787C455.381,265.27,447.864,272.786,438.594,272.786z"/>
<path style="fill:#A6A8AB;" d="M256.001,272.786H73.408c-9.271,0-16.787-7.516-16.787-16.787c0-9.271,7.516-16.787,16.787-16.787
	h182.593V272.786z"/>
<path style="fill:#F22F0A;" d="M117.389,437.864c-9.271,0-16.787-7.516-16.787-16.787v-25.295
	c0-85.687,69.712-155.398,155.398-155.398c67.174,0,121.824-54.65,121.824-121.824V90.922c0-9.271,7.516-16.787,16.787-16.787
	c9.271,0,16.787,7.516,16.787,16.787v27.638c0,85.687-69.711,155.398-155.398,155.398c-67.174,0-121.824,54.651-121.824,121.824
	v25.295C134.176,430.348,126.66,437.864,117.389,437.864z"/>
<path style="fill:#FF7F28;" d="M117.389,437.864c-9.271,0-16.787-7.516-16.787-16.787v-25.295
	c0-85.687,69.712-155.398,155.398-155.398v33.574c-67.174,0-121.824,54.651-121.824,121.824v25.295
	C134.176,430.348,126.66,437.864,117.389,437.864z"/>
<path style="fill:#0B2A96;" d="M281.323,309.674h-50.645c-15.633,0-28.351-12.719-28.351-28.351v-50.647
	c0-15.633,12.719-28.351,28.351-28.351h50.645c15.633,0,28.352,12.719,28.352,28.351v50.645
	C309.674,296.955,296.955,309.674,281.323,309.674z"/>
<path style="fill:#044FC7;" d="M256.001,309.674h-25.323c-15.633,0-28.351-12.719-28.351-28.351v-50.647
	c0-15.633,12.719-28.351,28.351-28.351h25.323V309.674z"/>
<path style="fill:#0B2A96;" d="M53.675,202.325C24.078,202.325,0,226.403,0,255.999s24.078,53.674,53.675,53.674
	c29.596,0,53.674-24.078,53.674-53.674S83.271,202.325,53.675,202.325z"/>
<path style="fill:#044FC7;" d="M53.675,202.325C24.078,202.325,0,226.403,0,255.999s24.078,53.674,53.675,53.674V202.325z"/>
<path style="fill:#0B2A96;" d="M458.325,202.325c-29.597,0-53.675,24.078-53.675,53.674s24.078,53.674,53.675,53.674
	c29.596,0,53.674-24.078,53.674-53.674S487.922,202.325,458.325,202.325z"/>
<path style="fill:#044FC7;" d="M458.325,202.325c-29.597,0-53.675,24.078-53.675,53.674s24.078,53.674,53.675,53.674V202.325z"/>
<path style="fill:#C6D7E4;" d="M270.176,281.739h-28.351c-6.387,0-11.565-5.178-11.565-11.565v-28.351
	c0-6.387,5.178-11.565,11.565-11.565h28.351c6.387,0,11.565,5.178,11.565,11.565v28.351
	C281.741,276.562,276.562,281.739,270.176,281.739z"/>
<path style="fill:#EBEFFA;" d="M256.001,281.739h-14.175c-6.387,0-11.565-5.178-11.565-11.565v-28.351
	c0-6.387,5.178-11.565,11.565-11.565h14.175V281.739z"/>
</svg>