<?xml version="1.0" encoding="iso-8859-1"?>
<!-- Uploaded to: SVG Repo, www.svgrepo.com, Generator: SVG Repo Mixer Tools -->
<svg version="1.1" id="Layer_1" xmlns="http://www.w3.org/2000/svg" xmlns:xlink="http://www.w3.org/1999/xlink" 
	 viewBox="0 0 392.598 392.598" xml:space="preserve">
<path style="fill:#FFC10D;" d="M21.851,91.022h261.818c6.012,0,10.925,4.848,10.925,10.925v193.228
	c0,6.012-4.848,10.925-10.925,10.925H21.851v64.582h348.962v-64.582h-38.077c-6.012,0-10.925-4.849-10.925-10.925V102.012
	c0-6.012,4.849-10.925,10.925-10.925h38.077V21.786H21.851V91.022z"/>
<rect x="343.596" y="112.873" style="fill:#56ACE0;" width="27.216" height="171.442"/>
<rect x="21.851" y="112.873" style="fill:#FFFFFF;" width="250.893" height="171.442"/>
<path style="fill:#194F82;" d="M381.737,0H10.925C4.913,0,0,4.848,0,10.925v370.747c0,6.012,4.848,10.925,10.925,10.925h370.747
	c6.012,0,10.925-4.848,10.925-10.925V10.861C392.598,4.848,387.749,0,381.737,0z M370.812,284.25h-27.216V112.873h27.216V284.25z
	 M370.812,91.022h-38.077c-6.012,0-10.925,4.848-10.925,10.925v193.228c0,6.012,4.849,10.925,10.925,10.925h38.077v64.582H21.851
	v-64.582h261.818c6.012,0,10.925-4.849,10.925-10.925V102.012c0-6.012-4.848-10.925-10.925-10.925H21.851V21.786h348.962V91.022
	L370.812,91.022z M21.851,112.873h250.893v171.442H21.851V112.873z"/>
<path style="fill:#56ACE0;" d="M193.422,176.808c0-11.766-10.214-21.269-22.174-20.04c-6.271,0.646-11.83,4.461-15.321,9.762
	c-4.073,6.206-13.188,6.206-17.261,0c-3.491-5.236-8.986-9.115-15.321-9.762c-11.96-1.164-22.174,8.275-22.174,20.04
	c0,13.834,24.954,41.503,46.028,60.186C168.339,217.988,193.422,190.19,193.422,176.808z"/>
<g>
	<path style="fill:#194F82;" d="M173.253,134.853c-9.568,0-18.618,3.232-25.988,8.986c-7.24-5.818-16.356-8.986-25.988-8.986
		c-23.079,0-41.956,18.747-41.956,41.956c0,30.966,50.747,74.667,60.897,83.071l0.388,0.323c3.879,3.168,9.438,3.168,13.188-0.065
		l0.388-0.323c10.214-8.598,60.897-52.752,60.897-83.006C215.208,153.665,196.396,134.853,173.253,134.853z M101.236,176.808
		c0-11.766,10.149-21.269,22.174-20.04c6.271,0.646,11.83,4.461,15.321,9.762c4.073,6.206,13.188,6.206,17.261,0
		c3.491-5.236,8.986-9.115,15.321-9.762c11.96-1.164,22.174,8.275,22.174,20.04c0,13.382-25.018,41.244-46.158,60.186
		C126.255,218.311,101.236,190.642,101.236,176.808z"/>
	<path style="fill:#194F82;" d="M48.42,64.194h8.21c6.012,0,10.925-4.848,10.925-10.925c0-6.012-4.848-10.925-10.925-10.925h-8.21
		c-6.012,0-10.925,4.848-10.925,10.925S42.408,64.194,48.42,64.194z"/>
	<path style="fill:#194F82;" d="M105.891,64.194h8.21c6.012,0,10.925-4.848,10.925-10.925c0-6.012-4.848-10.925-10.925-10.925h-8.21
		c-6.012,0-10.925,4.848-10.925,10.925S99.879,64.194,105.891,64.194z"/>
	<path style="fill:#194F82;" d="M163.491,64.194h8.21c6.012,0,10.925-4.848,10.925-10.925c0-6.012-4.848-10.925-10.925-10.925h-8.21
		c-6.012,0-10.925,4.848-10.925,10.925C152.501,59.345,157.479,64.194,163.491,64.194z"/>
	<path style="fill:#194F82;" d="M220.962,64.194h8.21c6.012,0,10.925-4.848,10.925-10.925c0-6.012-4.848-10.925-10.925-10.925h-8.21
		c-6.012,0-10.925,4.848-10.925,10.925S214.949,64.194,220.962,64.194z"/>
	<path style="fill:#194F82;" d="M278.562,64.194h8.21c6.012,0,10.925-4.848,10.925-10.925c0-6.012-4.848-10.925-10.925-10.925h-8.21
		c-6.012,0-10.925,4.848-10.925,10.925C267.572,59.345,272.549,64.194,278.562,64.194z"/>
	<path style="fill:#194F82;" d="M336.032,64.194h8.21c6.012,0,10.925-4.848,10.925-10.925c0-6.012-4.848-10.925-10.925-10.925h-8.21
		c-6.012,0-10.925,4.848-10.925,10.925C325.172,59.345,330.02,64.194,336.032,64.194z"/>
	<path style="fill:#194F82;" d="M56.63,328.339h-8.21c-6.012,0-10.925,4.848-10.925,10.925c0,6.012,4.848,10.925,10.925,10.925h8.21
		c6.012,0,10.925-4.849,10.925-10.925C67.491,333.188,62.642,328.339,56.63,328.339z"/>
	<path style="fill:#194F82;" d="M114.101,328.339h-8.21c-6.012,0-10.925,4.848-10.925,10.925c0,6.012,4.848,10.925,10.925,10.925
		h8.21c6.012,0,10.925-4.849,10.925-10.925C125.091,333.188,120.113,328.339,114.101,328.339z"/>
	<path style="fill:#194F82;" d="M171.701,328.339h-8.21c-6.012,0-10.925,4.848-10.925,10.925c0,6.012,4.848,10.925,10.925,10.925
		h8.21c6.012,0,10.925-4.849,10.925-10.925C182.562,333.188,177.713,328.339,171.701,328.339z"/>
	<path style="fill:#194F82;" d="M229.172,328.339h-8.21c-6.012,0-10.925,4.848-10.925,10.925c0,6.012,4.848,10.925,10.925,10.925
		h8.21c6.012,0,10.925-4.849,10.925-10.925C240.162,333.188,235.184,328.339,229.172,328.339z"/>
	<path style="fill:#194F82;" d="M286.772,328.339h-8.21c-6.012,0-10.925,4.848-10.925,10.925c0,6.012,4.848,10.925,10.925,10.925
		h8.21c6.012,0,10.925-4.849,10.925-10.925C297.632,333.188,292.784,328.339,286.772,328.339z"/>
	<path style="fill:#194F82;" d="M336.032,350.125h8.21c6.012,0,10.925-4.848,10.925-10.925c0-6.012-4.848-10.925-10.925-10.925
		h-8.21c-6.012,0-10.925,4.848-10.925,10.925C325.172,345.277,330.02,350.125,336.032,350.125z"/>
</g>
</svg>