<?xml version="1.0" encoding="iso-8859-1"?>
<!-- Uploaded to: SVG Repo, www.svgrepo.com, Generator: SVG Repo Mixer Tools -->
<svg height="800px" width="800px" version="1.1" id="Layer_1" xmlns="http://www.w3.org/2000/svg" xmlns:xlink="http://www.w3.org/1999/xlink" 
	 viewBox="0 0 512 512" xml:space="preserve">
<path style="fill:#E22539;" d="M476.69,423.724H35.31c-19.5,0-35.31-15.81-35.31-35.31V158.897c0-19.5,15.81-35.31,35.31-35.31
	H476.69c19.5,0,35.31,15.81,35.31,35.31v229.517C512,407.914,496.19,423.724,476.69,423.724"/>
<path style="fill:#B9223A;" d="M406.069,423.724H35.31c-19.5,0-35.31-15.81-35.31-35.31V194.207h370.759
	c19.5,0,35.31,15.81,35.31,35.31V423.724z"/>
<path style="fill:#8697CB;" d="M114.759,123.586H44.138v-17.655c0-9.754,7.901-17.655,17.655-17.655h35.31
	c9.754,0,17.655,7.901,17.655,17.655V123.586z"/>
<path style="fill:#F0C419;" d="M220.69,123.586h-70.621v-17.655c0-9.754,7.901-17.655,17.655-17.655h35.31
	c9.754,0,17.655,7.901,17.655,17.655V123.586z"/>
<path style="fill:#4FBA6F;" d="M326.621,123.586H256v-17.655c0-9.754,7.901-17.655,17.655-17.655h35.31
	c9.754,0,17.655,7.901,17.655,17.655V123.586z"/>
<path style="fill:#8697CB;" d="M326.621,379.586H79.448c-19.5,0-35.31-15.81-35.31-35.31v-70.621c0-19.5,15.81-35.31,35.31-35.31
	h247.172c19.5,0,35.31,15.81,35.31,35.31v70.621C361.931,363.776,346.121,379.586,326.621,379.586"/>
<g>
	<path style="fill:#FFFFFF;" d="M132.414,308.966c0,14.627-11.855,26.483-26.483,26.483s-26.483-11.855-26.483-26.483
		s11.855-26.483,26.483-26.483S132.414,294.338,132.414,308.966"/>
	<path style="fill:#FFFFFF;" d="M326.621,308.966c0,14.627-11.855,26.483-26.483,26.483s-26.483-11.855-26.483-26.483
		s11.855-26.483,26.483-26.483S326.621,294.338,326.621,308.966"/>
	<polygon style="fill:#FFFFFF;" points="176.552,335.448 229.517,335.448 229.517,282.483 176.552,282.483 	"/>
</g>
<g>
	<path style="fill:#B9223A;" d="M476.69,388.414c-4.882,0-8.828-3.955-8.828-8.828v-52.966c0-4.873,3.946-8.828,8.828-8.828
		c4.882,0,8.828,3.955,8.828,8.828v52.966C485.517,384.459,481.571,388.414,476.69,388.414"/>
	<path style="fill:#B9223A;" d="M441.379,344.276c-4.882,0-8.828-3.955-8.828-8.828v-52.966c0-4.873,3.946-8.828,8.828-8.828
		c4.882,0,8.828,3.955,8.828,8.828v52.966C450.207,340.321,446.261,344.276,441.379,344.276"/>
	<path style="fill:#B9223A;" d="M476.69,300.138c-4.882,0-8.828-3.955-8.828-8.828v-52.965c0-4.873,3.946-8.828,8.828-8.828
		c4.882,0,8.828,3.955,8.828,8.828v52.965C485.517,296.183,481.571,300.138,476.69,300.138"/>
	<path style="fill:#B9223A;" d="M441.379,256c-4.882,0-8.828-3.955-8.828-8.828v-52.966c0-4.873,3.946-8.828,8.828-8.828
		c4.882,0,8.828,3.955,8.828,8.828v52.966C450.207,252.045,446.261,256,441.379,256"/>
</g>
</svg>