<?xml version="1.0" encoding="iso-8859-1"?>
<!-- Uploaded to: SVG Repo, www.svgrepo.com, Generator: SVG Repo Mixer Tools -->
<svg height="800px" width="800px" version="1.1" id="Layer_1" xmlns="http://www.w3.org/2000/svg" xmlns:xlink="http://www.w3.org/1999/xlink" 
	 viewBox="0 0 503.467 503.467" xml:space="preserve">
<g transform="translate(1 9)">
	<path style="fill:#FF7474;" d="M447,234.2c0-37.547-30.72-68.267-68.267-68.267h-256c-37.547,0-68.267,30.72-68.267,68.267
		s30.72,68.267,68.267,68.267h256C416.28,302.467,447,271.747,447,234.2 M498.2,387.8c0,18.773-15.36,34.133-34.133,34.133h-51.2
		H88.6H37.4c-18.773,0-34.133-15.36-34.133-34.133V97.667c0-18.773,15.36-34.133,34.133-34.133h426.667
		c18.773,0,34.133,15.36,34.133,34.133V387.8z"/>
	<path style="fill:#AAB1BA;" d="M122.733,165.933c37.547,0,68.267,30.72,68.267,68.267s-30.72,68.267-68.267,68.267
		s-68.267-30.72-68.267-68.267S85.187,165.933,122.733,165.933z M378.733,165.933c37.547,0,68.267,30.72,68.267,68.267
		s-30.72,68.267-68.267,68.267s-68.267-30.72-68.267-68.267S341.187,165.933,378.733,165.933z"/>
	<path style="fill:#ECF4F7;" d="M395.8,264.067c-5.12,2.56-11.093,4.267-17.067,4.267c-5.973,0-11.947-1.707-17.067-4.267
		C351.427,258.093,344.6,247,344.6,234.2s6.827-23.893,17.067-29.867c5.12-2.56,11.093-4.267,17.067-4.267
		c5.973,0,11.947,1.707,17.067,4.267c10.24,5.973,17.067,17.067,17.067,29.867S406.04,258.093,395.8,264.067z M105.667,264.067
		C95.427,258.093,88.6,247,88.6,234.2s6.827-23.893,17.067-29.867c5.12-2.56,11.093-4.267,17.067-4.267s11.947,1.707,17.067,4.267
		c10.24,5.973,17.067,17.067,17.067,29.867s-6.827,23.893-17.067,29.867c-5.12,2.56-11.093,4.267-17.067,4.267
		S110.787,266.627,105.667,264.067z"/>
	<path style="fill:#AAB1BA;" d="M395.8,345.133l17.067,76.8H88.6l17.067-76.8c0-4.267,4.267-8.533,8.533-8.533h273.067
		C392.387,336.6,395.8,340.867,395.8,345.133"/>
</g>
<path style="fill:#51565F;" d="M465.067,435.2H448c-2.56,0-4.267-1.707-4.267-4.267c0-2.56,1.707-4.267,4.267-4.267h17.067
	c16.213,0,29.867-13.653,29.867-29.867V106.667c0-16.213-13.653-29.867-29.867-29.867H38.4c-16.213,0-29.867,13.653-29.867,29.867
	V396.8c0,16.213,13.653,29.867,29.867,29.867h17.067c2.56,0,4.267,1.707,4.267,4.267c0,2.56-1.707,4.267-4.267,4.267H38.4
	C17.067,435.2,0,418.133,0,396.8V106.667c0-21.333,17.067-38.4,38.4-38.4h426.667c21.333,0,38.4,17.067,38.4,38.4V396.8
	C503.467,418.133,486.4,435.2,465.067,435.2z M413.867,435.2H89.6c-1.707,0-2.56-0.853-3.413-1.707s-0.853-2.56-0.853-3.413
	l17.067-76.8c0-6.827,5.973-11.947,12.8-11.947h273.067c6.827,0,12.8,5.12,12.8,11.947l17.067,76.8c0,0.853,0,2.56-0.853,3.413
	C416.427,434.347,415.573,435.2,413.867,435.2z M94.72,426.667h314.027l-16.213-71.68v-0.853c0-2.56-1.707-4.267-4.267-4.267H115.2
	c-2.56,0-4.267,1.707-4.267,4.267v0.853L94.72,426.667z M460.8,401.067c-5.12,0-8.533-3.413-8.533-8.533S455.68,384,460.8,384
	s8.533,3.413,8.533,8.533S465.92,401.067,460.8,401.067z M42.667,401.067c-5.12,0-8.533-3.413-8.533-8.533S37.547,384,42.667,384
	s8.533,3.413,8.533,8.533S47.787,401.067,42.667,401.067z M379.733,315.733h-256c-40.107,0-72.533-32.427-72.533-72.533
	s32.427-72.533,72.533-72.533h256c40.107,0,72.533,32.427,72.533,72.533S419.84,315.733,379.733,315.733z M123.733,179.2
	c-34.987,0-64,29.013-64,64s29.013,64,64,64h256c34.987,0,64-29.013,64-64s-29.013-64-64-64H123.733z M182.613,281.6
	c-0.853,0-1.707,0-2.56-0.853c-1.707-0.853-2.56-3.413-1.707-5.973c5.973-9.387,8.533-20.48,8.533-31.573
	c0-11.093-2.56-22.187-8.533-31.573c-0.853-1.707-0.853-4.267,1.707-5.973c1.707-0.853,4.267-0.853,5.973,1.707
	c6.827,11.093,9.387,23.893,9.387,36.693c0,12.8-3.413,25.6-9.387,36.693C186.027,280.747,184.32,281.6,182.613,281.6z
	 M320.853,281.6c-1.707,0-2.56-0.853-3.413-1.707c-6.827-11.093-9.387-23.893-9.387-36.693c0-12.8,3.413-25.6,9.387-36.693
	c0.853-1.707,3.413-2.56,5.973-1.707c1.707,0.853,2.56,3.413,1.707,5.973c-5.973,9.387-8.533,20.48-8.533,31.573
	c0,11.093,2.56,22.187,8.533,31.573c0.853,1.707,0.853,4.267-1.707,5.973C322.56,281.6,321.707,281.6,320.853,281.6z M379.733,281.6
	c-6.827,0-13.653-1.707-18.773-5.12l0,0l0,0c-11.093-6.827-18.773-18.773-18.773-33.28c0-14.507,7.68-26.453,18.773-33.28l0,0l0,0
	c11.093-6.827,26.453-6.827,38.4,0l0,0l0,0c11.093,6.827,18.773,18.773,18.773,33.28l0,0l0,0l0,0c0,14.507-7.68,26.453-18.773,33.28
	l0,0l0,0C393.387,279.893,386.56,281.6,379.733,281.6z M368.64,271.36c6.827,2.56,15.36,2.56,22.187,0l-1.707-3.413
	c0-0.853-0.853-1.707-0.853-2.56c0-1.707,0.853-2.56,2.56-3.413s4.267-0.853,5.973,1.707l1.707,3.413
	c5.973-4.267,10.24-11.093,11.093-18.773h-4.267l0,0c-2.56,0-4.267-1.707-4.267-4.267c0-2.56,1.707-4.267,4.267-4.267h4.267
	c-0.853-7.68-5.12-14.507-11.093-18.773l-1.707,3.413c-0.853,1.707-3.413,2.56-5.973,1.707c-1.707-0.853-2.56-2.56-2.56-3.413
	c0-0.853,0-1.707,0.853-2.56l1.707-3.413c-6.827-2.56-15.36-2.56-22.187,0l1.707,3.413c0,0.853,0.853,1.707,0.853,2.56
	c0,1.707-0.853,2.56-2.56,3.413c-1.707,0.853-4.267,0.853-5.973-1.707l-1.707-3.413c-5.973,4.267-10.24,11.093-11.093,18.773h4.267
	c2.56,0,4.267,1.707,4.267,4.267c0,2.56-1.707,4.267-4.267,4.267h-4.267c0.853,7.68,5.12,14.507,11.093,18.773l1.707-3.413
	c0.853-1.707,3.413-2.56,5.973-1.707c1.707,0.853,2.56,2.56,2.56,3.413c0,0.853,0,1.707-0.853,2.56L368.64,271.36z M123.733,281.6
	c-6.827,0-13.653-1.707-18.773-5.12l0,0l0,0c-11.093-6.827-18.773-18.773-18.773-33.28c0-14.507,7.68-26.453,18.773-33.28l0,0l0,0
	c11.093-6.827,26.453-6.827,38.4,0l0,0l0,0c11.093,6.827,18.773,18.773,18.773,33.28l0,0l0,0l0,0c0,14.507-7.68,26.453-18.773,33.28
	l0,0l0,0C137.387,279.893,130.56,281.6,123.733,281.6z M112.64,271.36c6.827,2.56,15.36,2.56,22.187,0l-1.707-3.413
	c0-0.853-0.853-1.707-0.853-2.56c0-1.707,0.853-2.56,2.56-3.413c1.707-0.853,4.267-0.853,5.973,1.707l1.707,3.413
	c5.973-4.267,10.24-11.093,11.093-18.773h-4.267l0,0c-2.56,0-4.267-1.707-4.267-4.267c0-2.56,1.707-4.267,4.267-4.267h4.267
	c-0.853-7.68-5.12-14.507-11.093-18.773l-1.707,3.413c-0.853,1.707-3.413,2.56-5.973,1.707c-1.707-0.853-2.56-2.56-2.56-3.413
	c0-0.853,0-1.707,0.853-2.56l1.707-3.413c-6.827-2.56-15.36-2.56-22.187,0l1.707,3.413c0,0.853,0.853,1.707,0.853,2.56
	c0,1.707-0.853,2.56-1.707,3.413c-1.707,0.853-4.267,0.853-5.973-1.707l-1.707-3.413c-5.973,4.267-10.24,11.093-11.093,18.773h4.267
	c2.56,0,4.267,1.707,4.267,4.267c0,2.56-1.707,4.267-4.267,4.267H94.72c0.853,7.68,5.12,14.507,11.093,18.773l1.707-3.413
	c0.853-1.707,3.413-2.56,5.973-1.707c1.707,0.853,2.56,2.56,2.56,3.413c0,0.853,0,1.707-0.853,2.56L112.64,271.36z M362.667,128
	H140.8c-2.56,0-4.267-1.707-4.267-4.267c0-2.56,1.707-4.267,4.267-4.267h221.867c2.56,0,4.267,1.707,4.267,4.267
	C366.933,126.293,365.227,128,362.667,128z M460.8,119.467c-5.12,0-8.533-3.413-8.533-8.533c0-5.12,3.413-8.533,8.533-8.533
	s8.533,3.413,8.533,8.533C469.333,116.053,465.92,119.467,460.8,119.467z M42.667,119.467c-5.12,0-8.533-3.413-8.533-8.533
	c0-5.12,3.413-8.533,8.533-8.533s8.533,3.413,8.533,8.533C51.2,116.053,47.787,119.467,42.667,119.467z"/>
</svg>