<?xml version="1.0" encoding="iso-8859-1"?>
<!-- Uploaded to: SVG Repo, www.svgrepo.com, Generator: SVG Repo Mixer Tools -->
<svg height="800px" width="800px" version="1.1" id="Layer_1" xmlns="http://www.w3.org/2000/svg" xmlns:xlink="http://www.w3.org/1999/xlink" 
	 viewBox="0 0 503.467 503.467" xml:space="preserve">
<g transform="translate(1 1)">
	<path style="fill:#80D6FA;" d="M447,447V293.4V105.667H310.467H139.8V293.4V447h170.667H395.8H447z M498.2,88.6v375.467
		c0,18.773-15.36,34.133-34.133,34.133H88.6H45.933c-23.893,0-42.667-18.773-42.667-42.667s18.773-42.667,42.667-42.667
		S88.6,431.64,88.6,455.533V54.467h375.467C482.84,54.467,498.2,69.827,498.2,88.6L498.2,88.6z"/>
	<path style="fill:#ECF4F7;" d="M88.6,54.467v401.067c0-23.893-18.773-42.667-42.667-42.667S3.267,431.64,3.267,455.533v-409.6
		c0-23.893,18.773-42.667,42.667-42.667S88.6,22.04,88.6,45.933V54.467z"/>
	<path style="fill:#F2EDDA;" d="M395.8,361.667V447h-85.333C310.467,400.067,348.867,361.667,395.8,361.667"/>
	<path style="fill:#FFD0A1;" d="M310.467,105.667H447V293.4V447h-51.2v-85.333c-46.933,0-85.333,38.4-85.333,85.333H139.8V293.4
		V105.667H310.467z"/>
</g>
<path style="fill:#51565F;" d="M465.067,503.467H46.933C21.333,503.467,0,482.133,0,456.533v-409.6C0,21.333,21.333,0,46.933,0
	s46.933,21.333,46.933,46.933v409.6c0,2.56-1.707,4.267-4.267,4.267c-2.56,0-4.267-1.707-4.267-4.267
	c0-21.333-17.067-38.4-38.4-38.4s-38.4,17.067-38.4,38.4s17.067,38.4,38.4,38.4h418.133c17.067,0,29.867-12.8,29.867-29.867V89.6
	c0-16.213-13.653-29.867-29.867-29.867H123.733c-2.56,0-4.267-1.707-4.267-4.267c0-2.56,1.707-4.267,4.267-4.267h341.333
	c21.333,0,38.4,17.067,38.4,38.4v375.467C503.467,486.4,486.4,503.467,465.067,503.467z M46.933,8.533
	c-21.333,0-38.4,17.067-38.4,38.4v382.293c8.533-11.947,22.187-19.627,38.4-19.627s29.867,7.68,38.4,19.627V46.933
	C85.333,25.6,68.267,8.533,46.933,8.533z M448,452.267H345.6c-2.56,0-4.267-1.707-4.267-4.267c0-2.56,1.707-4.267,4.267-4.267
	h98.133V298.667H396.8c-2.56,0-4.267-1.707-4.267-4.267c0-2.56,1.707-4.267,4.267-4.267h46.933v-179.2h-128v64
	c0,2.56-1.707,4.267-4.267,4.267s-4.267-1.707-4.267-4.267v-64H145.067v179.2H307.2v-29.867c0-2.56,1.707-4.267,4.267-4.267
	s4.267,1.707,4.267,4.267V294.4c0,2.56-1.707,4.267-4.267,4.267h-166.4v145.067H307.2c2.56-47.787,41.813-85.333,89.6-85.333
	c2.56,0,4.267,1.707,4.267,4.267v51.2c0,2.56-1.707,4.267-4.267,4.267s-4.267-1.707-4.267-4.267v-46.933
	c-42.667,2.56-76.8,37.547-76.8,81.067c0,2.56-1.707,4.267-4.267,4.267H140.8c-2.56,0-4.267-1.707-4.267-4.267V106.667
	c0-2.56,1.707-4.267,4.267-4.267H448c2.56,0,4.267,1.707,4.267,4.267V448C452.267,450.56,450.56,452.267,448,452.267z"/>
</svg>