<?xml version="1.0" encoding="iso-8859-1"?>
<!-- Uploaded to: SVG Repo, www.svgrepo.com, Generator: SVG Repo Mixer Tools -->
<svg height="800px" width="800px" version="1.1" id="Layer_1" xmlns="http://www.w3.org/2000/svg" xmlns:xlink="http://www.w3.org/1999/xlink" 
	 viewBox="0 0 491.52 491.52" xml:space="preserve">
<path style="fill:#3A556A;" d="M21.134,0C9.461,0,0,9.462,0,21.133v449.255c0,11.672,9.461,21.133,21.134,21.133h72.488V0H21.134z"
	/>
<path style="fill:#FCD462;" d="M480.812,160.3h-40.785V40.961h40.785c5.914,0,10.708,4.794,10.708,10.708v97.923
	C491.52,155.506,486.726,160.3,480.812,160.3z"/>
<path style="fill:#44C4A1;" d="M480.812,279.639h-40.784V160.3h40.785c5.914,0,10.708,4.794,10.708,10.708v97.923
	C491.52,274.845,486.726,279.639,480.812,279.639z"/>
<path style="fill:#FFFFFF;" d="M480.812,398.977h-40.785V279.639h40.785c5.914,0,10.708,4.794,10.708,10.708v97.922
	C491.52,394.183,486.726,398.977,480.812,398.977z"/>
<path style="fill:#27A2DB;" d="M418.894,0H93.622v491.52L433.808,6.165C429.986,2.357,424.717,0,418.894,0z"/>
<path style="fill:#2D93BA;" d="M433.808,6.165L93.622,491.52h325.272c11.671,0,21.133-9.46,21.133-21.133V21.133
	C440.027,15.284,437.648,9.993,433.808,6.165z"/>
<g>
	<path style="fill:#FFFFFF;" d="M347.532,294.096c-5.081,3.741-10.384,7.546-15.361,10.934c-0.19,0.129-0.351,0.234-0.536,0.36
		l53.6,78.767c6.449-5.271,12.12-10.19,15.848-13.495c2.714-2.406,3.198-6.442,1.159-9.439l-44.485-65.372
		C355.457,292.472,350.824,291.672,347.532,294.096z"/>
	<path style="fill:#FFFFFF;" d="M317.426,313.209c-21.515,2.874-45.802-8.456-64.261-30.303
		c-24.461-28.949-33.29-69.16-21.925-96.352l-55.552-81.636c-13.81,8.396-26.372,17.713-27.658,24.48
		c-15.923,83.743,106.87,274.904,191.826,281.897c6.799,0.559,19.898-7.634,32.641-17.158L317.426,313.209z"/>
	<path style="fill:#FFFFFF;" d="M208.339,87.232c-4.485,2.198-11.242,5.606-18.61,9.621l53.484,78.598
		c0.043-0.029,0.079-0.055,0.122-0.084c5.081-3.458,10.73-7.072,16.23-10.483c3.485-2.163,4.456-6.783,2.148-10.174l-44.262-65.045
		C215.432,86.7,211.562,85.655,208.339,87.232z"/>
</g>
</svg>