<?xml version="1.0" encoding="iso-8859-1"?>
<!-- Uploaded to: SVG Repo, www.svgrepo.com, Generator: SVG Repo Mixer Tools -->
<svg version="1.1" id="Layer_1" xmlns="http://www.w3.org/2000/svg" xmlns:xlink="http://www.w3.org/1999/xlink" 
	 viewBox="0 0 511.992 511.992" xml:space="preserve">
<path style="fill:#656D78;" d="M96.01,0C72.48,0,53.34,19.141,53.34,42.671v383.995c0,5.891,4.765,10.656,10.671,10.656h53.327V0
	H96.01z"/>
<path style="fill:#E6E9ED;" d="M96.01,394.666c-17.687,0-31.999,14.328-31.999,32s14.312,31.998,31.999,31.998h351.986v-63.998
	H96.01z"/>
<path style="fill:#5D9CEC;" d="M458.652,10.672C458.652,4.781,453.871,0,447.996,0H117.339v21.336l0,0v362.658l0,0v21.328h119.264
	h211.394c5.875,0,10.656-4.766,10.656-10.656l0,0V10.672L458.652,10.672z"/>
<g>
	<path style="fill:#CCD1D9;" d="M192.01,437.322h-85.343c-5.875,0-10.656-4.766-10.656-10.656s4.781-10.672,10.656-10.672h85.343
		c5.891,0,10.656,4.781,10.656,10.672S197.9,437.322,192.01,437.322z"/>
	<path style="fill:#CCD1D9;" d="M362.654,415.994c-5.875,0-10.656,4.781-10.656,10.672s4.781,10.656,10.656,10.656h85.342v-21.328
		H362.654z"/>
</g>
<rect x="160.007" y="74.666" style="fill:#E6E9ED;" width="245.33" height="128"/>
<g>
	<path style="fill:#434A54;" d="M64.011,85.335c5.891,0,10.656-4.773,10.656-10.664s-4.766-10.672-10.656-10.672H53.339v21.336
		H64.011z"/>
	<path style="fill:#434A54;" d="M64.011,149.334c5.891,0,10.656-4.773,10.656-10.664c0-5.89-4.766-10.671-10.656-10.671H53.339
		v21.335L64.011,149.334L64.011,149.334z"/>
	<path style="fill:#434A54;" d="M64.011,213.332c5.891,0,10.656-4.773,10.656-10.664c0-5.89-4.766-10.671-10.656-10.671H53.339
		v21.335H64.011z"/>
	<path style="fill:#434A54;" d="M64.011,277.324c5.891,0,10.656-4.766,10.656-10.656s-4.766-10.672-10.656-10.672H53.339v21.328
		H64.011z"/>
	<path style="fill:#434A54;" d="M64.011,341.324c5.891,0,10.656-4.766,10.656-10.656s-4.766-10.672-10.656-10.672H53.339v21.328
		H64.011z"/>
	<path style="fill:#434A54;" d="M362.654,149.334h-159.99c-5.875,0-10.656-4.773-10.656-10.664c0-5.89,4.781-10.671,10.656-10.671
		h159.99c5.906,0,10.688,4.781,10.688,10.671C373.342,144.56,368.56,149.334,362.654,149.334z"/>
</g>
<path style="fill:#5D9CEC;" d="M458.652,458.664c0-5.891-4.781-10.672-10.656-10.672H236.602H117.339v21.328h330.658
	C453.871,469.32,458.652,464.555,458.652,458.664z"/>
<path style="fill:#656D78;" d="M117.339,447.992H96.01c-11.765,0-21.343-9.576-21.343-21.326c0-11.766,9.578-21.344,21.343-21.344
	h21.328v-21.328H96.01c-23.53,0-42.67,19.141-42.67,42.672c0,23.514,19.14,42.654,42.67,42.654h21.328
	C117.338,469.32,117.338,447.992,117.339,447.992z"/>
<path style="fill:#ED5564;" d="M181.338,426.666h-10.671h-42.656h-10.672h-10.672v74.654c0,3.438,1.656,6.656,4.438,8.656
	s6.359,2.547,9.609,1.469l28.625-9.547l28.625,9.547c1.109,0.359,2.234,0.547,3.375,0.547c2.203,0,4.391-0.688,6.234-2.016
	c2.781-2,4.438-5.219,4.438-8.656v-74.654H181.338z"/>
</svg>