<?xml version="1.0" encoding="iso-8859-1"?>
<!-- Uploaded to: SVG Repo, www.svgrepo.com, Generator: SVG Repo Mixer Tools -->
<svg version="1.1" id="Layer_1" xmlns="http://www.w3.org/2000/svg" xmlns:xlink="http://www.w3.org/1999/xlink" 
	 viewBox="0 0 512.001 512.001" xml:space="preserve">
<path style="fill:#E6E6E6;" d="M261.824,114.457v36.204c-9.927-4.906-20.686-7.359-31.469-7.359
	c-10.794,0-21.576,2.453-31.492,7.359v-36.204c9.915-4.906,20.698-7.359,31.48-7.359
	C241.126,107.097,251.897,109.55,261.824,114.457z"/>
<path style="fill:#F7B239;" d="M247.059,299.573l-16.716,24.931l-16.716-24.931c4.769-3.206,10.52-5.089,16.716-5.089
	c6.184,0,11.924,1.871,16.704,5.089H247.059z"/>
<path style="fill:#E6E6E6;" d="M230.343,271.025c10.725,0,21.428,2.179,31.469,6.527h0.011l-14.765,22.021h-0.011
	c-4.781-3.218-10.52-5.089-16.704-5.089c-6.196,0-11.946,1.883-16.716,5.089l-14.765-22.021
	C208.904,273.205,219.629,271.025,230.343,271.025z"/>
<path style="fill:#F7B239;" d="M230.355,143.301l-0.011,0.411v127.313c-10.714,0-21.439,2.179-31.48,6.527V150.661
	C208.778,145.754,219.561,143.301,230.355,143.301z"/>
<path style="fill:#E09B2D;" d="M261.824,150.661v126.891h-0.011c-10.041-4.347-20.743-6.527-31.469-6.527V143.712l0.011-0.411
	C241.137,143.301,251.897,145.754,261.824,150.661z"/>
<polygon style="fill:#2BA5F7;" points="391.111,263.289 391.111,355.003 350.092,355.003 350.092,263.289 350.092,108.489 
	391.111,108.489 "/>
<polygon style="fill:#F95428;" points="220.2,476.657 220.2,503.437 136.496,503.437 136.496,444.96 136.496,419.733 
	163.697,419.733 163.697,476.657 "/>
<g>
	<polygon style="fill:#F7B239;" points="247.413,444.96 247.413,476.657 220.2,476.657 163.697,476.657 163.697,419.733 
		163.709,419.733 220.2,419.733 247.413,419.733 	"/>
	<polygon style="fill:#F7B239;" points="420.172,263.289 420.172,381.749 350.092,381.749 350.092,355.003 391.111,355.003 
		391.111,263.289 391.122,263.289 	"/>
</g>
<path style="fill:#E6E6E6;" d="M247.413,419.733H220.2h-56.491h-0.011h-27.202v25.228h-19.431c-6.972,0-13.27-2.83-17.834-7.394
	c-4.564-4.564-7.394-10.862-7.394-17.834c0-13.932,11.296-25.228,25.228-25.228h233.028v50.455H247.413L247.413,419.733
	L247.413,419.733z"/>
<path style="fill:#F95428;" d="M117.064,44.467h85.735h92.227h55.065v64.022v154.8v91.714v26.745v12.756H117.064
	c-13.932,0-25.228,11.296-25.228,25.228V69.695C91.837,55.763,103.133,44.467,117.064,44.467z M261.824,277.552V150.661v-36.204
	c-9.927-4.906-20.698-7.359-31.48-7.359s-21.565,2.453-31.48,7.359v36.204v126.891l14.765,22.021l16.716,24.931l16.716-24.931
	L261.824,277.552z"/>
<rect x="202.803" y="8.56" style="fill:#F7B239;" width="92.227" height="35.907"/>
<g>
	<path style="fill:#333333;" d="M223.231,329.275c1.589,2.37,4.255,3.792,7.107,3.792c2.853,0,5.519-1.422,7.107-3.792
		l31.483-46.957c0.945-1.409,1.45-3.068,1.45-4.766V114.461c0-3.255-1.846-6.228-4.764-7.671c-22.089-10.925-48.464-10.925-70.553,0
		c-2.918,1.443-4.764,4.416-4.764,7.671v163.091c0,1.697,0.504,3.356,1.45,4.766L223.231,329.275z M253.264,265.549
		c-4.72-1.271-9.526-2.151-14.368-2.621V152.51c4.898,0.67,9.724,1.918,14.368,3.744V265.549z M248.542,281.992l-4.361,6.505
		c-4.383-1.689-9.061-2.565-13.844-2.565c-4.78,0-9.457,0.876-13.84,2.565l-4.361-6.505
		C224.044,278.833,236.635,278.833,248.542,281.992z M221.781,262.928c-4.841,0.47-9.647,1.35-14.368,2.621V156.254
		c4.644-1.826,9.469-3.074,14.368-3.744V262.928z M226.492,303.405c1.26-0.228,2.543-0.358,3.845-0.358
		c1.303,0,2.588,0.13,3.849,0.358l-3.846,5.737L226.492,303.405z M253.264,120.022v18.129c-14.914-4.453-30.936-4.453-45.85,0
		v-18.129C222.08,114.259,238.599,114.259,253.264,120.022z"/>
	<path style="fill:#333333;" d="M420.169,254.734h-20.497v-146.24c0-4.726-3.83-8.558-8.558-8.558h-32.463V44.465
		c0-4.726-3.83-8.558-8.558-8.558h-46.505V8.558c0-4.726-3.83-8.558-8.558-8.558h-92.234c-4.726,0-8.558,3.831-8.558,8.558v27.35
		h-77.178c-18.63,0-33.787,15.157-33.787,33.787v350.04l0,0v0.001c0,9.018,3.517,17.501,9.901,23.885
		c6.384,6.384,14.867,9.901,23.886,9.901h10.873v49.922c0,4.726,3.832,8.558,8.558,8.558h83.711c4.726,0,8.558-3.832,8.558-8.558
		v-18.228h18.654c4.726,0,8.558-3.832,8.558-8.558v-23.137h94.117c4.727,0,8.558-3.832,8.558-8.558v-50.455c0-0.001,0-0.001,0-0.001
		l0.006-0.001v-4.197h61.517c4.727,0,8.558-3.831,8.558-8.558V263.293C428.727,258.566,424.895,254.734,420.169,254.734z
		 M382.557,117.051v229.395h-23.905V117.051H382.557z M211.355,17.115h75.119v18.792h-75.119V17.115z M108.505,55.413v90.798
		c0,4.726,3.831,8.558,8.558,8.558s8.558-3.831,8.558-8.558V53.023h215.916V385.95H117.061c-6.06,0-11.748,1.612-16.67,4.417V69.695
		C100.39,63.633,103.653,58.332,108.505,55.413z M211.645,494.885h-66.596v-66.596h10.096v48.368c0,4.726,3.831,8.558,8.558,8.558
		h47.943L211.645,494.885L211.645,494.885z M238.856,468.1h-66.597v-39.807h66.597V468.1z M341.531,436.405h-85.559v-8.114h35.637
		c4.727,0,8.558-3.832,8.558-8.558s-3.83-8.558-8.558-8.558l-155.117-0.002c-4.726,0-8.558,3.832-8.558,8.558v16.674h-10.873
		c-4.447,0-8.632-1.735-11.783-4.887c-3.151-3.151-4.887-7.337-4.887-11.783c0-9.192,7.478-16.67,16.67-16.67h224.47V436.405z
		 M411.611,373.193h-52.96v-9.632h32.463c4.727,0,8.558-3.832,8.558-8.558v-83.154h11.939L411.611,373.193L411.611,373.193z"/>
	<path style="fill:#333333;" d="M117.062,337.892c4.726,0,8.558-3.832,8.558-8.558V195.842c0-4.726-3.831-8.558-8.558-8.558
		s-8.558,3.831-8.558,8.558v133.491C108.505,334.06,112.336,337.892,117.062,337.892z"/>
</g>
</svg>