<?xml version="1.0" encoding="iso-8859-1"?>
<!-- Uploaded to: SVG Repo, www.svgrepo.com, Generator: SVG Repo Mixer Tools -->
<svg height="800px" width="800px" version="1.1" id="Layer_1" xmlns="http://www.w3.org/2000/svg" xmlns:xlink="http://www.w3.org/1999/xlink" 
	 viewBox="0 0 512 512" xml:space="preserve">
<path style="fill:#FFD782;" d="M407.663,23.503l24.023-0.045c17.614-0.033,32.052,14.351,32.085,31.965l0.783,416.323
	c0.033,17.614-14.351,32.052-31.965,32.085l-352.273,0.663c-17.614,0.033-32.052-14.351-32.085-31.965L47.447,56.206
	c-0.033-17.614,14.351-32.052,31.965-32.085l280.214-0.526"/>
<path style="fill:#FFFFFF;" d="M416.079,239.657c0.033,17.614-14.351,32.052-31.965,32.085l-224.175,0.421
	c-17.614,0.033-32.052-14.351-32.085-31.965l-0.06-32.025c-0.033-17.614,14.351-32.052,31.965-32.085l224.175-0.421
	c17.614-0.033,32.052,14.351,32.085,31.965L416.079,239.657z"/>
<path style="fill:#FF6464;" d="M407.652,15.497l0.195,104.081l-24.034-7.961l-24.004,8.051l-0.18-96.073l-0.015-8.008
	c-0.008-4.421,3.57-8.013,7.991-8.021l32.025-0.06C404.052,7.498,407.644,11.076,407.652,15.497z"/>
<path d="M471.276,55.409c-0.02-10.523-4.16-20.433-11.658-27.903c-7.481-7.453-17.376-11.553-27.871-11.553
	c-0.025,0-0.051,0-0.076,0l-16.513,0.031l-0.001-0.5C415.142,6.945,408.183,0,399.616,0l-32.025,0.06
	c-4.143,0.008-8.036,1.628-10.961,4.565c-2.924,2.935-4.531,6.833-4.523,10.977l0.001,0.5L79.397,16.614
	c-10.524,0.02-20.433,4.16-27.903,11.658c-7.47,7.499-11.573,17.424-11.553,27.948l0.783,416.324
	c0.02,10.523,4.16,20.433,11.658,27.903C59.863,507.899,69.756,512,80.253,512c0.025,0,0.051,0,0.076,0l352.274-0.663
	c10.523-0.02,20.433-4.16,27.903-11.658c7.47-7.498,11.573-17.424,11.553-27.947L471.276,55.409z M367.266,15.219
	c0.146-0.146,0.302-0.147,0.353-0.147l32.026-0.06c0.275,0,0.5,0.224,0.5,0.499l0.015,7.921c0,0.029-0.004,0.056-0.004,0.085
	s0.004,0.056,0.004,0.085l0.161,85.576l-14.148-4.687c-1.542-0.51-3.207-0.507-4.748,0.009l-14.13,4.74l-0.176-93.667
	C367.12,15.522,367.119,15.366,367.266,15.219z M449.871,489.085c-4.64,4.658-10.782,7.229-17.296,7.241L80.3,496.988
	c-6.498,0.052-12.666-2.536-17.323-7.177c-4.658-4.64-7.23-10.782-7.242-17.296L54.952,56.191
	c-0.012-6.514,2.536-12.666,7.177-17.323c4.64-4.658,10.782-7.23,17.296-7.242l272.712-0.512l0.166,88.569
	c0.004,2.413,1.168,4.676,3.128,6.084c1.293,0.928,2.827,1.408,4.378,1.408c0.802,0,1.607-0.128,2.387-0.389l21.631-7.256
	l21.659,7.175c2.291,0.76,4.806,0.369,6.76-1.044c1.955-1.415,3.109-3.683,3.105-6.095l-0.166-88.569l16.513-0.031
	c0.016,0,0.031,0,0.047,0c6.496,0,12.631,2.547,17.277,7.177c4.658,4.64,7.229,10.782,7.241,17.296l0.783,416.323
	C457.059,478.275,454.511,484.427,449.871,489.085z"/>
<path d="M79.562,96.677c-0.004,0-0.01,0-0.014,0c-4.145,0.008-7.5,3.375-7.492,7.52l0.692,368.286
	c0.008,4.141,3.367,7.492,7.506,7.492c0.004,0,0.01,0,0.014,0c4.145-0.008,7.5-3.375,7.492-7.52l-0.692-368.287
	C87.06,100.028,83.701,96.677,79.562,96.677z"/>
<path d="M79.501,79.664c0.005,0,0.01,0,0.015,0c4.145-0.008,7.5-3.375,7.492-7.52l-0.03-16.012c-0.008-4.14-3.367-7.492-7.506-7.492
	c-0.005,0-0.01,0-0.015,0c-4.145,0.008-7.5,3.375-7.492,7.52l0.03,16.012C72.003,76.312,75.362,79.664,79.501,79.664z"/>
<path d="M383.92,168.161l-224.175,0.421c-21.797,0.041-39.497,17.808-39.456,39.606l0.06,32.025
	c0.041,21.756,17.774,39.457,39.53,39.457c0.005,0,0.07,0,0.075,0l224.175-0.421c10.524-0.02,20.433-4.16,27.903-11.658
	c7.47-7.498,11.573-17.424,11.553-27.947l-0.06-32.025C423.484,185.861,405.751,168.161,383.92,168.161z M401.397,256.994
	c-4.64,4.658-10.782,7.23-17.296,7.242l-224.175,0.421l-0.047,7.506v-7.506c-13.494,0-24.493-10.979-24.518-24.473l-0.06-32.025
	c-0.025-13.52,10.953-24.54,24.473-24.565l224.222-0.421c13.494,0,24.493,10.979,24.518,24.473l0.06,32.025
	C408.585,246.185,406.037,252.337,401.397,256.994z"/>
<path d="M368.042,232.241c-0.004,0-0.01,0-0.014,0l-192.15,0.361c-4.145,0.008-7.5,3.375-7.492,7.52
	c0.008,4.14,3.367,7.492,7.506,7.492c0.005,0,0.01,0,0.015,0l192.15-0.361c4.145-0.008,7.5-3.375,7.492-7.52
	C375.54,235.592,372.181,232.241,368.042,232.241z"/>
<path d="M215.862,215.514c0.005,0,0.01,0,0.015,0l112.087-0.21c4.145-0.008,7.5-3.375,7.492-7.52
	c-0.008-4.141-3.367-7.492-7.506-7.492c-0.005,0-0.01,0-0.015,0l-112.087,0.21c-4.145,0.008-7.5,3.375-7.492,7.52
	C208.365,212.162,211.724,215.514,215.862,215.514z"/>
</svg>