<?xml version="1.0" encoding="iso-8859-1"?>
<!-- Uploaded to: SVG Repo, www.svgrepo.com, Generator: SVG Repo Mixer Tools -->
<svg height="800px" width="800px" version="1.1" id="Layer_1" xmlns="http://www.w3.org/2000/svg" xmlns:xlink="http://www.w3.org/1999/xlink" 
	 viewBox="0 0 512 512" xml:space="preserve">
<path style="fill:#9AD7FF;" d="M89.036,456.296v43.137c1.253,0.454,2.597,0.715,4.001,0.715h325.926v-43.852l-164.964-11.852
	L89.036,456.296z"/>
<path style="fill:#C2E7FF;" d="M418.963,412.444H93.037c-1.404,0-2.748,0.261-4.002,0.715v43.137h329.928V412.444z"/>
<path style="fill:#4EB9FF;" d="M125.037,456.296c0-21.537-15.531-39.436-36.002-43.137c-4.562,1.652-7.849,6.024-7.849,11.137v64
	c0,5.113,3.288,9.485,7.849,11.137C109.506,495.731,125.037,477.833,125.037,456.296z"/>
<path style="fill:#FFC0D5;" d="M87.111,0c-9.818,0-17.778,7.96-17.778,17.778v406.519l82.963-11.852l47.407-206.222L152.296,0
	H87.111z"/>
<polygon style="fill:#FF755C;" points="418.963,23.704 352.593,0 152.296,0 152.296,412.444 407.111,412.444 442.667,310.516 
	442.667,90.075 "/>
<g>
	<path style="fill:#FFC0D5;" d="M349.63,212.373H245.333c-6.545,0-11.852-5.307-11.852-11.852s5.307-11.852,11.852-11.852H349.63
		c6.545,0,11.852,5.307,11.852,11.852S356.174,212.373,349.63,212.373z"/>
	<path style="fill:#FFC0D5;" d="M368.593,164.966H226.37c-6.545,0-11.852-5.307-11.852-11.852c0-6.545,5.307-11.852,11.852-11.852
		h142.222c6.545,0,11.852,5.307,11.852,11.852C380.444,159.659,375.137,164.966,368.593,164.966z"/>
</g>
<g>
	<polygon style="fill:#FFCE47;" points="442.667,412.444 352.593,400.593 442.667,310.519 	"/>
	<polygon style="fill:#FFCE47;" points="442.667,0 442.667,90.074 352.593,0 	"/>
</g>
<path style="fill:#FF4181;" d="M430.815,488.296H93.037v-64h337.778c6.545,0,11.852-5.307,11.852-11.852
	c0-6.545-5.307-11.852-11.852-11.852H93.037c-13.07,0-23.704,10.633-23.704,23.704v64c0,13.07,10.633,23.704,23.704,23.704h337.778
	c6.545,0,11.852-5.307,11.852-11.852C442.667,493.604,437.359,488.296,430.815,488.296z"/>
</svg>