<?xml version="1.0" encoding="iso-8859-1"?>
<!-- Uploaded to: SVG Repo, www.svgrepo.com, Generator: SVG Repo Mixer Tools -->
<svg version="1.1" id="Layer_1" xmlns="http://www.w3.org/2000/svg" xmlns:xlink="http://www.w3.org/1999/xlink" 
	 viewBox="0 0 512 512" xml:space="preserve">
<path style="fill:#66371E;" d="M489.393,439.254c0,6.226-5.047,11.276-11.276,11.276H11.273C5.047,450.53,0,445.48,0,439.254V86.556
	c0-6.226,5.047-11.273,11.273-11.273H478.12c6.229,0,11.276,5.047,11.276,11.273v352.698H489.393z"/>
<path style="fill:#CD4E38;" d="M512,130.73c0,11.302-9.16,20.462-20.462,20.462h-82.324c-11.302,0-20.462-9.16-20.462-20.462l0,0
	c0-11.302,9.16-20.462,20.462-20.462h82.324C502.836,110.271,512,119.432,512,130.73L512,130.73z"/>
<path style="fill:#589BC7;" d="M512,183.399c0,11.302-9.16,20.462-20.462,20.462h-82.324c-11.302,0-20.462-9.16-20.462-20.462l0,0
	c0-11.302,9.16-20.462,20.462-20.462h82.324C502.836,162.94,512,172.1,512,183.399L512,183.399z"/>
<path style="fill:#6CBB48;" d="M512,236.071c0,11.302-9.16,20.462-20.462,20.462h-82.324c-11.302,0-20.462-9.16-20.462-20.462l0,0
	c0-11.302,9.16-20.462,20.462-20.462h82.324C502.836,215.612,512,224.772,512,236.071L512,236.071z"/>
<path style="fill:#DFBC2C;" d="M512,288.739c0,11.302-9.16,20.462-20.462,20.462h-82.324c-11.302,0-20.462-9.16-20.462-20.462l0,0
	c0-11.302,9.16-20.462,20.462-20.462h82.324C502.836,268.28,512,277.44,512,288.739L512,288.739z"/>
<rect x="20.095" y="397.806" style="fill:#BDB7A0;" width="449.216" height="37.701"/>
<path style="fill:#E1DABE;" d="M383.994,61.47h-20.271h-51.378c-37.363,0-67.649,30.289-67.649,67.649
	c0-37.36-30.286-67.649-67.646-67.649h-51.378h-20.271H20.095v355.98h224.601h224.605V61.47H383.994z"/>
<g style="opacity:0.6;">
	<path style="opacity:0.2;enable-background:new    ;" d="M205.458,145.444c0,1.764-1.427,3.191-3.191,3.191h-91.686
		c-1.761,0-3.191-1.427-3.191-3.191l0,0c0-1.761,1.43-3.191,3.191-3.191h91.682C204.029,142.25,205.458,143.683,205.458,145.444
		L205.458,145.444z"/>
	<path style="opacity:0.2;enable-background:new    ;" d="M205.458,129.678c0,1.764-1.427,3.191-3.191,3.191h-91.686
		c-1.761,0-3.191-1.427-3.191-3.191l0,0c0-1.761,1.43-3.191,3.191-3.191h91.682C204.029,126.487,205.458,127.916,205.458,129.678
		L205.458,129.678z"/>
	<path style="opacity:0.2;enable-background:new    ;" d="M205.458,113.914c0,1.764-1.427,3.191-3.191,3.191h-91.686
		c-1.761,0-3.191-1.427-3.191-3.191l0,0c0-1.761,1.43-3.191,3.191-3.191h91.682C204.029,110.72,205.458,112.153,205.458,113.914
		L205.458,113.914z"/>
</g>
<g style="opacity:0.28;">
	<path d="M94.932,160.122v-15.127c0-11.796-9.56-21.356-21.356-21.356S52.22,133.2,52.22,144.996v15.127H94.932z"/>
	<circle cx="73.576" cy="105.439" r="13.512"/>
</g>
<path style="fill:#BDB7A0;" d="M244.697,129.119c0-8.826-1.739-17.229-4.809-24.96v313.288h4.809h4.813V104.159
	C246.438,111.893,244.697,120.296,244.697,129.119z"/>
<g style="opacity:0.4;">
	<rect x="20.095" y="181.358" style="fill:#BDB7A0;" width="219.799" height="6.437"/>
</g>
<g style="opacity:0.6;">
	<path style="opacity:0.2;enable-background:new    ;" d="M205.458,262.489c0,1.761-1.427,3.188-3.191,3.188h-91.686
		c-1.761,0-3.191-1.427-3.191-3.188l0,0c0-1.764,1.43-3.191,3.191-3.191h91.682C204.029,259.298,205.458,260.725,205.458,262.489
		L205.458,262.489z"/>
	<path style="opacity:0.2;enable-background:new    ;" d="M205.458,246.726c0,1.761-1.427,3.188-3.191,3.188h-91.686
		c-1.761,0-3.191-1.427-3.191-3.188l0,0c0-1.764,1.43-3.191,3.191-3.191h91.682C204.029,243.532,205.458,244.961,205.458,246.726
		L205.458,246.726z"/>
	<path style="opacity:0.2;enable-background:new    ;" d="M205.458,230.959c0,1.761-1.427,3.191-3.191,3.191h-91.686
		c-1.761,0-3.191-1.43-3.191-3.191l0,0c0-1.764,1.43-3.191,3.191-3.191h91.682C204.029,227.768,205.458,229.195,205.458,230.959
		L205.458,230.959z"/>
</g>
<g style="opacity:0.28;">
	<path d="M94.932,277.167v-15.123c0-11.796-9.56-21.356-21.356-21.356s-21.356,9.56-21.356,21.356v15.123H94.932z"/>
	<circle cx="73.576" cy="222.494" r="13.512"/>
</g>
<g style="opacity:0.6;">
	<path style="opacity:0.2;enable-background:new    ;" d="M205.458,379.889c0,1.764-1.427,3.191-3.191,3.191h-91.686
		c-1.761,0-3.191-1.427-3.191-3.191l0,0c0-1.761,1.43-3.191,3.191-3.191h91.682C204.029,376.697,205.458,378.127,205.458,379.889
		L205.458,379.889z"/>
	<path style="opacity:0.2;enable-background:new    ;" d="M205.458,364.125c0,1.764-1.427,3.191-3.191,3.191h-91.686
		c-1.761,0-3.191-1.427-3.191-3.191l0,0c0-1.761,1.43-3.191,3.191-3.191h91.682C204.029,360.931,205.458,362.364,205.458,364.125
		L205.458,364.125z"/>
	<path style="opacity:0.2;enable-background:new    ;" d="M205.458,348.358c0,1.764-1.427,3.191-3.191,3.191h-91.686
		c-1.761,0-3.191-1.427-3.191-3.191l0,0c0-1.761,1.43-3.191,3.191-3.191h91.682C204.029,345.167,205.458,346.597,205.458,348.358
		L205.458,348.358z"/>
</g>
<g style="opacity:0.28;">
	<path d="M94.932,394.57v-15.127c0-11.796-9.56-21.356-21.356-21.356s-21.356,9.56-21.356,21.356v15.127H94.932z"/>
	<circle cx="73.576" cy="339.867" r="13.512"/>
</g>
<g style="opacity:0.4;">
	<rect x="20.095" y="301.653" style="fill:#BDB7A0;" width="219.799" height="6.437"/>
</g>
<g style="opacity:0.6;">
	<path style="opacity:0.2;enable-background:new    ;" d="M434.872,145.444c0,1.764-1.427,3.191-3.191,3.191h-91.682
		c-1.761,0-3.191-1.427-3.191-3.191l0,0c0-1.761,1.43-3.191,3.191-3.191h91.682C433.446,142.25,434.872,143.683,434.872,145.444
		L434.872,145.444z"/>
	<path style="opacity:0.2;enable-background:new    ;" d="M434.872,129.678c0,1.764-1.427,3.191-3.191,3.191h-91.682
		c-1.761,0-3.191-1.427-3.191-3.191l0,0c0-1.761,1.43-3.191,3.191-3.191h91.682C433.446,126.487,434.872,127.916,434.872,129.678
		L434.872,129.678z"/>
	<path style="opacity:0.2;enable-background:new    ;" d="M434.872,113.914c0,1.764-1.427,3.191-3.191,3.191h-91.682
		c-1.761,0-3.191-1.427-3.191-3.191l0,0c0-1.761,1.43-3.191,3.191-3.191h91.682C433.446,110.72,434.872,112.153,434.872,113.914
		L434.872,113.914z"/>
</g>
<g style="opacity:0.28;">
	<path d="M324.346,160.122v-15.127c0-11.796-9.56-21.356-21.356-21.356c-11.796,0-21.356,9.56-21.356,21.356v15.127H324.346z"/>
	<circle cx="302.987" cy="105.439" r="13.512"/>
</g>
<g style="opacity:0.4;">
	<rect x="249.499" y="181.358" style="fill:#BDB7A0;" width="219.799" height="6.437"/>
</g>
<g style="opacity:0.6;">
	<path style="opacity:0.2;enable-background:new    ;" d="M434.872,262.489c0,1.761-1.427,3.188-3.191,3.188h-91.682
		c-1.761,0-3.191-1.427-3.191-3.188l0,0c0-1.764,1.43-3.191,3.191-3.191h91.682C433.446,259.298,434.872,260.725,434.872,262.489
		L434.872,262.489z"/>
	<path style="opacity:0.2;enable-background:new    ;" d="M434.872,246.726c0,1.761-1.427,3.188-3.191,3.188h-91.682
		c-1.761,0-3.191-1.427-3.191-3.188l0,0c0-1.764,1.43-3.191,3.191-3.191h91.682C433.446,243.532,434.872,244.961,434.872,246.726
		L434.872,246.726z"/>
	<path style="opacity:0.2;enable-background:new    ;" d="M434.872,230.959c0,1.761-1.427,3.191-3.191,3.191h-91.682
		c-1.761,0-3.191-1.43-3.191-3.191l0,0c0-1.764,1.43-3.191,3.191-3.191h91.682C433.446,227.768,434.872,229.195,434.872,230.959
		L434.872,230.959z"/>
</g>
<g style="opacity:0.28;">
	<path d="M324.346,277.167v-15.123c0-11.796-9.56-21.356-21.356-21.356c-11.796,0-21.356,9.56-21.356,21.356v15.123H324.346z"/>
	<circle cx="302.987" cy="222.494" r="13.512"/>
</g>
<g style="opacity:0.6;">
	<path style="opacity:0.2;enable-background:new    ;" d="M434.872,379.889c0,1.764-1.427,3.191-3.191,3.191h-91.682
		c-1.761,0-3.191-1.427-3.191-3.191l0,0c0-1.761,1.43-3.191,3.191-3.191h91.682C433.446,376.697,434.872,378.127,434.872,379.889
		L434.872,379.889z"/>
	<path style="opacity:0.2;enable-background:new    ;" d="M434.872,364.125c0,1.764-1.427,3.191-3.191,3.191h-91.682
		c-1.761,0-3.191-1.427-3.191-3.191l0,0c0-1.761,1.43-3.191,3.191-3.191h91.682C433.446,360.931,434.872,362.364,434.872,364.125
		L434.872,364.125z"/>
	<path style="opacity:0.2;enable-background:new    ;" d="M434.872,348.358c0,1.764-1.427,3.191-3.191,3.191h-91.682
		c-1.761,0-3.191-1.427-3.191-3.191l0,0c0-1.761,1.43-3.191,3.191-3.191h91.682C433.446,345.167,434.872,346.597,434.872,348.358
		L434.872,348.358z"/>
</g>
<g style="opacity:0.28;">
	<path d="M324.346,394.57v-15.127c0-11.796-9.56-21.356-21.356-21.356c-11.796,0-21.356,9.56-21.356,21.356v15.127H324.346z"/>
	<circle cx="302.987" cy="339.867" r="13.512"/>
</g>
<g style="opacity:0.4;">
	<rect x="249.499" y="301.653" style="fill:#BDB7A0;" width="219.799" height="6.437"/>
</g>
</svg>