<?xml version="1.0" encoding="iso-8859-1"?>
<!-- Uploaded to: SVG Repo, www.svgrepo.com, Generator: SVG Repo Mixer Tools -->
<svg version="1.1" id="Layer_1" xmlns="http://www.w3.org/2000/svg" xmlns:xlink="http://www.w3.org/1999/xlink" 
	 viewBox="0 0 512 512" xml:space="preserve">
<path style="fill:#65B4BB;" d="M60.057,422.208V59.448l0,0c0-28.064,22.751-50.815,50.815-50.815h343.006v362.76"/>
<path style="fill:#57A3A7;" d="M131.521,473.028H110.87c-14.029,0-26.726-5.689-35.931-14.882
	c-9.193-9.205-14.882-21.914-14.882-35.942c0-28.058,22.756-50.813,50.813-50.813h304.902h38.104v101.638H204.339"/>
<path style="fill:#E4E4E4;" d="M415.771,371.389v66.549H88.913c-6.587-20.176,0-66.549,0-66.549H415.771z"/>
<polygon style="fill:#F64B4A;" points="204.339,503.566 167.93,480.81 131.521,503.566 131.521,404.579 204.339,404.579 "/>
<rect x="161.951" y="56.161" style="fill:#82DCC7;" width="236.658" height="261.689"/>
<path d="M452.911,48.494c4.714,0,8.533-3.821,8.533-8.533V8.533c0-4.713-3.82-8.533-8.533-8.533H109.905
	C77.181,0,50.557,26.624,50.557,59.349v362.689c0,0.022-0.001,0.043-0.001,0.066c0,6.277,0.98,12.462,2.909,18.372
	c2.876,8.851,7.88,17.012,14.476,23.608c11.22,11.206,26.122,17.377,41.961,17.377h12.117v22.006c0,3.103,1.683,5.96,4.396,7.464
	c2.711,1.503,6.027,1.418,8.66-0.228l31.886-19.929l31.886,19.929c1.381,0.864,2.95,1.297,4.523,1.297
	c1.422,0,2.848-0.356,4.137-1.069c2.714-1.504,4.396-4.361,4.396-7.464v-22.006h241.004c4.714,0,8.533-3.821,8.533-8.533
	l0.003-404.523c0-4.713-3.82-8.533-8.533-8.533s-8.533,3.821-8.533,8.533v294.352H118.439v-62.242c0-4.713-3.821-8.533-8.533-8.533
	c-4.713,0-8.533,3.821-8.533,8.533v62.863c-13.121,1.898-24.864,8.1-33.749,17.13V59.349c0-20.392,14.511-37.458,33.749-41.416
	v32.106c0,4.713,3.821,8.533,8.533,8.533c4.713,0,8.533-3.821,8.533-8.533V17.067h325.939v22.894
	C444.378,44.674,448.198,48.494,452.911,48.494z M171.484,473.475c-1.384-0.865-2.954-1.297-4.523-1.297
	c-1.569,0-3.139,0.432-4.523,1.297l-23.353,14.595v-75.057h55.751v75.057L171.484,473.475z M444.375,464.394H211.904v-18.021
	h202.901c4.714,0,8.533-3.821,8.533-8.533v-58.016h21.036V464.394z M109.902,379.823h296.369v16.123H272.776
	c-4.714,0-8.533,3.821-8.533,8.533s3.82,8.533,8.533,8.533h133.495v16.293H211.904v-16.293h8.533c4.713,0,8.533-3.821,8.533-8.533
	s-3.821-8.533-8.533-8.533H110.073c-4.713,0-8.533,3.821-8.533,8.533s3.821,8.533,8.533,8.533h11.947v16.293H98.695
	c-4.713,0-8.533,3.821-8.533,8.533s3.821,8.533,8.533,8.533h23.324v18.021h-12.117c-11.284,0-21.903-4.399-29.897-12.382
	c-4.696-4.697-8.261-10.51-10.312-16.822c-1.374-4.209-2.071-8.611-2.071-13.087C67.621,398.79,86.588,379.823,109.902,379.823z"/>
<path d="M109.905,70.542c-4.713,0-8.533,3.821-8.533,8.533v190.588c0,4.713,3.821,8.533,8.533,8.533
	c4.713,0,8.533-3.821,8.533-8.533V79.076C118.439,74.363,114.618,70.542,109.905,70.542z"/>
<path d="M251.22,144.137h70.39c4.714,0,8.533-3.821,8.533-8.533c0-4.713-3.819-8.533-8.533-8.533h-33.765v-20.78
	c0-4.713-3.82-8.533-8.533-8.533c-4.714,0-8.533,3.821-8.533,8.533v20.779H251.22c-12.539,0-22.74,10.201-22.74,22.74v22.885
	c0,12.539,10.201,22.74,22.74,22.74h56.182c3.128,0,5.673,2.545,5.673,5.673v22.885c0,3.129-2.545,5.673-5.673,5.673h-70.39
	c-4.713,0-8.533,3.821-8.533,8.533c0,4.713,3.821,8.533,8.533,8.533h33.765v20.779c0,4.713,3.82,8.533,8.533,8.533
	s8.533-3.821,8.533-8.533v-20.779h19.557c12.539,0,22.74-10.201,22.74-22.74v-22.885c0-12.539-10.201-22.74-22.74-22.74h-56.182
	c-3.129,0-5.673-2.545-5.673-5.673v-22.885C245.546,146.681,248.091,144.137,251.22,144.137z"/>
<path d="M397.64,232.982c4.714,0,8.533-3.821,8.533-8.533V56.057c0-4.713-3.82-8.533-8.533-8.533H160.983
	c-4.713,0-8.533,3.821-8.533,8.533v261.689c0,4.713,3.821,8.533,8.533,8.533H397.64c4.714,0,8.533-3.821,8.533-8.533v-54.613
	c0-4.713-3.82-8.533-8.533-8.533c-4.714,0-8.533,3.821-8.533,8.533v46.08H169.516V64.59h219.591v159.858
	C389.107,229.161,392.927,232.982,397.64,232.982z"/>
</svg>