<?xml version="1.0" encoding="iso-8859-1"?>
<!-- Uploaded to: SVG Repo, www.svgrepo.com, Generator: SVG Repo Mixer Tools -->
<svg version="1.1" id="Layer_1" xmlns="http://www.w3.org/2000/svg" xmlns:xlink="http://www.w3.org/1999/xlink" 
	 viewBox="0 0 512 512" xml:space="preserve">
<g>
	<polygon style="fill:#EAC36E;" points="118.613,233.699 34.362,262.985 34.362,453.628 118.613,453.628 	"/>
	<polygon style="fill:#EAC36E;" points="393.615,233.699 477.866,262.985 477.866,453.628 393.615,453.628 	"/>
</g>
<polygon style="fill:#FCD577;" points="393.615,137.931 393.615,453.626 118.615,453.626 118.615,136.941 255.265,57.722 "/>
<g>
	<rect x="34.362" y="320.351" style="fill:#4EBFED;" width="34.764" height="74.233"/>
	<rect x="443.1" y="320.351" style="fill:#4EBFED;" width="34.764" height="74.233"/>
</g>
<rect x="219.84" y="320.351" style="fill:#EAC36E;" width="72.549" height="133.276"/>
<g>
	<rect x="151.936" y="320.351" style="fill:#4EBFED;" width="35.429" height="74.233"/>
	<rect x="324.862" y="320.351" style="fill:#4EBFED;" width="35.429" height="74.233"/>
	<rect x="151.936" y="196.321" style="fill:#4EBFED;" width="35.429" height="74.233"/>
	<rect x="238.399" y="196.321" style="fill:#4EBFED;" width="35.429" height="74.233"/>
	<rect x="324.862" y="196.321" style="fill:#4EBFED;" width="35.429" height="74.233"/>
	<circle style="fill:#4EBFED;" cx="255.271" cy="130.824" r="25.307"/>
</g>
<path d="M187.25,312.236h-35.429c-4.66,0-8.436,3.777-8.436,8.436v74.233c0,4.659,3.776,8.436,8.436,8.436h35.429
	c4.66,0,8.436-3.777,8.436-8.436v-74.233C195.686,316.013,191.909,312.236,187.25,312.236z M178.814,386.469h-18.557v-57.361h18.557
	V386.469z"/>
<path d="M360.181,312.236h-35.43c-4.66,0-8.436,3.777-8.436,8.436v74.233c0,4.659,3.776,8.436,8.436,8.436h35.43
	c4.66,0,8.436-3.777,8.436-8.436v-74.233C368.617,316.013,364.84,312.236,360.181,312.236z M351.745,386.469h-18.558v-57.361h18.558
	V386.469z"/>
<path d="M195.686,196.648c0-4.659-3.776-8.436-8.436-8.436h-35.429c-4.66,0-8.436,3.777-8.436,8.436v74.233
	c0,4.659,3.776,8.436,8.436,8.436h35.429c4.66,0,8.436-3.777,8.436-8.436V196.648z M178.814,262.445h-18.557v-57.361h18.557V262.445
	z"/>
<path d="M238.287,188.212c-4.66,0-8.436,3.777-8.436,8.436v74.233c0,4.659,3.776,8.436,8.436,8.436h35.429
	c4.66,0,8.436-3.777,8.436-8.436v-74.233c0-4.659-3.776-8.436-8.436-8.436H238.287z M265.279,262.445h-18.557v-57.361h18.557
	V262.445z"/>
<path d="M368.617,196.648c0-4.659-3.776-8.436-8.436-8.436h-35.43c-4.66,0-8.436,3.777-8.436,8.436v74.233
	c0,4.659,3.776,8.436,8.436,8.436h35.43c4.66,0,8.436-3.777,8.436-8.436V196.648z M351.745,262.445h-18.558v-57.361h18.558V262.445z
	"/>
<path d="M506.332,264.316l-104.395-36.29v-75.136l25.545,14.809c1.333,0.772,2.787,1.139,4.224,1.139
	c2.91,0,5.741-1.508,7.306-4.207c2.337-4.03,0.963-9.193-3.067-11.529L347.07,101.58c-4.03-2.333-9.193-0.963-11.529,3.067
	c-2.337,4.03-0.963,9.193,3.067,11.529l46.457,26.932v302.407H300.71v-71.417c0-4.659-3.776-8.436-8.436-8.436
	c-4.66,0-8.436,3.777-8.436,8.436v71.417h-55.674V329.108h55.674v16.871c0,4.659,3.776,8.436,8.436,8.436
	c4.66,0,8.436-3.777,8.436-8.436v-25.307c0-4.659-3.776-8.436-8.436-8.436h-72.546c-4.66,0-8.436,3.777-8.436,8.436v124.844h-84.357
	v-93.351c0-4.659-3.776-8.436-8.436-8.436s-8.436,3.777-8.436,8.436v93.353H42.685v-42.177h26.327c4.66,0,8.436-3.777,8.436-8.436
	v-74.233c0-4.659-3.776-8.436-8.436-8.436H42.685v-42.928l67.378-23.422v75.912c0,4.659,3.776,8.436,8.436,8.436
	s8.436-3.777,8.436-8.436l0.001-179.672l128.218-74.33l57.931,33.584c4.031,2.336,9.193,0.965,11.529-3.067
	c2.337-4.03,0.963-9.193-3.067-11.529l-62.163-36.036c-2.616-1.518-5.846-1.516-8.462,0L74.364,153.103
	c-4.03,2.336-5.405,7.498-3.067,11.529c1.565,2.698,4.396,4.207,7.306,4.207c1.435,0,2.891-0.368,4.224-1.139l27.237-15.79v76.116
	L5.668,264.316c-4.4,1.53-6.727,6.337-5.198,10.737c1.21,3.485,4.476,5.669,7.968,5.669c0.918,0,1.853-0.151,2.77-0.47l14.604-5.077
	v178.779c0,4.659,3.776,8.436,8.436,8.436h443.504c4.66,0,8.436-3.777,8.436-8.436V275.175l14.603,5.076
	c0.917,0.319,1.851,0.47,2.77,0.47c3.491,0,6.758-2.184,7.968-5.669C513.061,270.653,510.732,265.845,506.332,264.316z
	 M60.575,329.108v57.361H42.685v-57.361H60.575z M469.316,386.469h-17.892v-57.361h17.892V386.469z M469.316,312.236h-26.328
	c-4.66,0-8.436,3.777-8.436,8.436v74.233c0,4.659,3.776,8.436,8.436,8.436h26.328v42.177h-67.379V245.887l67.379,23.423V312.236z"/>
<path d="M255.155,97.412c-18.606,0-33.743,15.137-33.743,33.743s15.136,33.743,33.743,33.743s33.743-15.137,33.743-33.743
	S273.761,97.412,255.155,97.412z M255.155,148.026c-9.303,0-16.871-7.569-16.871-16.871c0-9.302,7.569-16.871,16.871-16.871
	s16.871,7.569,16.871,16.871C272.026,140.457,264.457,148.026,255.155,148.026z"/>
<circle cx="241.661" cy="387.31" r="8.436"/>
</svg>