<?xml version="1.0" encoding="iso-8859-1"?>
<!-- Uploaded to: SVG Repo, www.svgrepo.com, Generator: SVG Repo Mixer Tools -->
<svg version="1.1" id="Layer_1" xmlns="http://www.w3.org/2000/svg" xmlns:xlink="http://www.w3.org/1999/xlink" 
	 viewBox="0 0 491.52 491.52" xml:space="preserve">
<path style="fill:#64798A;" d="M481.734,102.922H9.785c-5.404,0-9.785,4.381-9.785,9.786v332.637c0,5.405,4.381,9.786,9.785,9.786
	h471.949c5.405,0,9.786-4.381,9.786-9.786V112.708C491.52,107.303,487.139,102.922,481.734,102.922z"/>
<rect x="23.112" y="160.051" style="fill:#E1E6E9;" width="445.297" height="271.974"/>
<rect x="28.032" y="164.966" style="fill:#FFFFFF;" width="435.456" height="262.144"/>
<path style="fill:#3A556A;" d="M310.235,138.951h-128.95c-2.096,0-3.795-1.699-3.795-3.795v-6.983c0-2.096,1.699-3.795,3.795-3.795
	h128.95c2.096,0,3.795,1.699,3.795,3.795v6.983C314.03,137.252,312.331,138.951,310.235,138.951z"/>
<path style="fill:#EBF0F3;" d="M294.468,36.389h-97.416c-2.567,0-4.648,2.08-4.648,4.647v97.914h106.712V41.037
	C299.116,38.47,297.034,36.389,294.468,36.389z"/>
<rect x="192.404" y="117.965" style="fill:#E1E6E9;" width="106.711" height="21.012"/>
<circle style="fill:#64798A;" cx="245.76" cy="74.127" r="22.559"/>
<path style="fill:#3A556A;" d="M245.76,57.179c-0.224,0-0.432,0.058-0.655,0.066c8.327,0.35,14.985,7.16,14.985,15.574
	c0,8.638-7.002,15.64-15.639,15.64c-8.413,0-15.223-6.659-15.574-14.986c-0.008,0.222-0.065,0.43-0.065,0.655
	c0,9.361,7.588,16.949,16.949,16.949c9.36,0,16.949-7.588,16.949-16.949S255.12,57.179,245.76,57.179z"/>
<rect x="49.92" y="199.163" style="fill:#27A2DB;" width="130.58" height="158.874"/>
<g>
	<circle style="fill:#FFFFFF;" cx="115.21" cy="252.723" r="27.356"/>
	<path style="fill:#FFFFFF;" d="M115.211,292.818c-36.009,0-65.198,29.189-65.198,65.196h130.394
		C180.407,322.007,151.218,292.818,115.211,292.818z"/>
</g>
<rect x="224.369" y="218.849" style="fill:#E56353;" width="211.917" height="14.746"/>
<g>
	<rect x="224.369" y="267.776" style="fill:#64798A;" width="211.917" height="9.83"/>
	<rect x="224.369" y="314.317" style="fill:#64798A;" width="211.917" height="9.83"/>
	<rect x="224.369" y="360.806" style="fill:#64798A;" width="211.917" height="9.83"/>
	<rect x="65.014" y="393.011" style="fill:#64798A;" width="96.579" height="9.83"/>
</g>
</svg>