<?xml version="1.0" encoding="iso-8859-1"?>
<!-- Uploaded to: SVG Repo, www.svgrepo.com, Generator: SVG Repo Mixer Tools -->
<svg version="1.1" id="Layer_1" xmlns="http://www.w3.org/2000/svg" xmlns:xlink="http://www.w3.org/1999/xlink" 
	 viewBox="0 0 512 512" xml:space="preserve">
<path style="fill:#F6F6F7;" d="M84.977,8.017v495.967h290.739c28.336,0,51.307-22.971,51.307-51.307V8.017H84.977z"/>
<g>
	<path style="fill:#D9DCDF;" d="M324.409,452.676v-34.205H8.017v34.205c0,28.336,22.971,51.307,51.307,51.307h316.393
		C347.38,503.983,324.409,481.013,324.409,452.676z"/>
	<rect x="127.733" y="67.875" style="fill:#D9DCDF;" width="136.818" height="162.472"/>
</g>
<g>
	<circle style="fill:#FF8C78;" cx="196.142" cy="119.182" r="25.653"/>
	<path style="fill:#FF8C78;" d="M213.244,161.937H179.04c-9.445,0-17.102,7.658-17.102,17.102v51.307h68.409V179.04
		C230.347,169.595,222.689,161.937,213.244,161.937z"/>
</g>
<circle style="fill:#FFC44F;" cx="427.023" cy="341.511" r="76.96"/>
<path d="M84.977,298.222c4.428,0,8.017-3.588,8.017-8.017V16.033H332.96c4.428,0,8.017-3.588,8.017-8.017S337.389,0,332.96,0H84.977
	c-4.428,0-8.017,3.588-8.017,8.017v282.189C76.96,294.634,80.549,298.222,84.977,298.222z"/>
<path d="M264.551,238.363c4.428,0,8.017-3.588,8.017-8.017V67.875c0-4.428-3.588-8.017-8.017-8.017H127.733
	c-4.428,0-8.017,3.588-8.017,8.017v162.472c0,4.428,3.588,8.017,8.017,8.017H264.551z M135.749,75.891h120.785V222.33h-18.171
	v-43.29c0-13.851-11.268-25.119-25.119-25.119H179.04c-13.851,0-25.119,11.268-25.119,25.119v43.29h-18.171V75.891z M169.954,222.33
	v-43.29c0-5.01,4.076-9.086,9.086-9.086h34.205c5.01,0,9.086,4.076,9.086,9.086v43.29H169.954z"/>
<path d="M196.142,152.852c18.566,0,33.67-15.105,33.67-33.67s-15.105-33.67-33.67-33.67s-33.67,15.105-33.67,33.67
	S177.576,152.852,196.142,152.852z M196.142,101.545c9.725,0,17.637,7.912,17.637,17.637s-7.912,17.637-17.637,17.637
	s-17.637-7.912-17.637-17.637S186.417,101.545,196.142,101.545z"/>
<path d="M384.267,76.96h-85.512c-4.428,0-8.017,3.588-8.017,8.017c0,4.428,3.588,8.017,8.017,8.017h85.512
	c4.428,0,8.017-3.588,8.017-8.017C392.284,80.549,388.696,76.96,384.267,76.96z"/>
<path d="M384.267,119.716h-85.512c-4.428,0-8.017,3.588-8.017,8.017c0,4.428,3.588,8.017,8.017,8.017h85.512
	c4.428,0,8.017-3.588,8.017-8.017C392.284,123.304,388.696,119.716,384.267,119.716z"/>
<path d="M384.267,162.472h-85.512c-4.428,0-8.017,3.588-8.017,8.017c0,4.428,3.588,8.017,8.017,8.017h85.512
	c4.428,0,8.017-3.588,8.017-8.017C392.284,166.06,388.696,162.472,384.267,162.472z"/>
<path d="M392.284,213.244c0-4.428-3.588-8.017-8.017-8.017h-85.512c-4.428,0-8.017,3.588-8.017,8.017s3.588,8.017,8.017,8.017
	h85.512C388.696,221.261,392.284,217.673,392.284,213.244z"/>
<path d="M161.937,273.637h-8.551c-4.428,0-8.017,3.588-8.017,8.017s3.588,8.017,8.017,8.017h8.551c4.428,0,8.017-3.588,8.017-8.017
	S166.366,273.637,161.937,273.637z"/>
<path d="M315.858,273.637H196.142c-4.428,0-8.017,3.588-8.017,8.017s3.588,8.017,8.017,8.017h119.716
	c4.428,0,8.017-3.588,8.017-8.017S320.286,273.637,315.858,273.637z"/>
<path d="M161.937,316.392h-8.551c-4.428,0-8.017,3.588-8.017,8.017c0,4.428,3.588,8.017,8.017,8.017h8.551
	c4.428,0,8.017-3.588,8.017-8.017C169.954,319.981,166.366,316.392,161.937,316.392z"/>
<path d="M315.858,316.392H196.142c-4.428,0-8.017,3.588-8.017,8.017c0,4.428,3.588,8.017,8.017,8.017h119.716
	c4.428,0,8.017-3.588,8.017-8.017C323.875,319.981,320.286,316.392,315.858,316.392z"/>
<path d="M161.937,359.148h-8.551c-4.428,0-8.017,3.588-8.017,8.017c0,4.428,3.588,8.017,8.017,8.017h8.551
	c4.428,0,8.017-3.588,8.017-8.017C169.954,362.737,166.366,359.148,161.937,359.148z"/>
<path d="M315.858,359.148H196.142c-4.428,0-8.017,3.588-8.017,8.017c0,4.428,3.588,8.017,8.017,8.017h119.716
	c4.428,0,8.017-3.588,8.017-8.017C323.875,362.737,320.286,359.148,315.858,359.148z"/>
<path d="M512,341.511c0-44.153-33.851-80.534-76.96-84.588V8.017c0-4.428-3.588-8.017-8.017-8.017h-51.307
	c-4.428,0-8.017,3.588-8.017,8.017s3.588,8.017,8.017,8.017h43.29v240.89c-43.11,4.054-76.96,40.435-76.96,84.588
	s33.851,80.534,76.96,84.588v26.577c0,23.871-19.42,43.29-43.29,43.29c-23.871,0-43.29-19.42-43.29-43.29v-34.205
	c0-4.428-3.588-8.017-8.017-8.017H92.994v-77.493c0-4.428-3.588-8.017-8.017-8.017c-4.428,0-8.017,3.588-8.017,8.017v77.493H8.017
	c-4.428,0-8.017,3.588-8.017,8.017v34.205C0,485.388,26.612,512,59.324,512h316.393c32.711,0,59.324-26.612,59.324-59.324v-26.577
	C478.149,422.045,512,385.664,512,341.511z M59.324,495.967c-23.871,0-43.29-19.42-43.29-43.29v-26.188h300.359v26.188
	c0,17.058,7.237,32.458,18.802,43.29H59.324z M427.023,410.455c-38.015,0-68.944-30.928-68.944-68.944
	c0-38.002,30.906-68.92,68.902-68.943c0.014,0,0.027,0.002,0.042,0.002c0.015,0,0.028-0.002,0.042-0.002
	c37.996,0.022,68.902,30.94,68.902,68.943C495.967,379.527,465.038,410.455,427.023,410.455z"/>
<path d="M427.023,315.324h17.102c4.428,0,8.017-3.588,8.017-8.017c0-4.428-3.588-8.017-8.017-8.017h-9.086v-9.086
	c0-4.428-3.588-8.017-8.017-8.017s-8.017,3.588-8.017,8.017v10.405c-9.93,3.354-17.102,12.752-17.102,23.8
	c0,13.851,11.268,25.119,25.119,25.119c5.01,0,9.086,4.076,9.086,9.086s-4.076,9.086-9.086,9.086h-17.102
	c-4.428,0-8.017,3.588-8.017,8.017c0,4.428,3.588,8.017,8.017,8.017h9.086v9.086c0,4.428,3.588,8.017,8.017,8.017
	s8.017-3.588,8.017-8.017v-10.405c9.93-3.354,17.102-12.752,17.102-23.8c0-13.851-11.268-25.119-25.119-25.119
	c-5.01,0-9.086-4.076-9.086-9.086S422.013,315.324,427.023,315.324z"/>
</svg>