<?xml version="1.0" encoding="iso-8859-1"?>
<!-- Uploaded to: SVG Repo, www.svgrepo.com, Generator: SVG Repo Mixer Tools -->
<svg version="1.1" id="Layer_1" xmlns="http://www.w3.org/2000/svg" xmlns:xlink="http://www.w3.org/1999/xlink" 
	 viewBox="0 0 512 512" xml:space="preserve">
<path style="fill:#C9D5DD;" d="M496,288.044H16c-8.84,0-16,7.16-16,16v160c0,8.84,7.16,16,16,16h480c8.84,0,16-7.16,16-16v-160
	C512,295.212,504.84,288.044,496,288.044z"/>
<g>
	<path style="fill:#35495C;" d="M384,472.044h40c4.416,0,8,3.584,8,8v8c0,4.416-3.584,8-8,8h-40c-4.416,0-8-3.584-8-8v-8
		C376,475.628,379.584,472.044,384,472.044z"/>
	<path style="fill:#35495C;" d="M88,472.044h40c4.416,0,8,3.584,8,8v8c0,4.416-3.584,8-8,8H88c-4.416,0-8-3.584-8-8v-8
		C80,475.628,83.584,472.044,88,472.044z"/>
	<path style="fill:#35495C;" d="M40,336.044h432c4.416,0,8,3.584,8,8v80c0,4.416-3.584,8-8,8H40c-4.416,0-8-3.584-8-8v-80
		C32,339.628,35.584,336.044,40,336.044z"/>
</g>
<circle style="fill:#F7B84E;" cx="72" cy="384.084" r="16"/>
<circle style="fill:#DE333F;" cx="120" cy="384.084" r="16"/>
<circle style="fill:#3CB54A;" cx="168" cy="384.084" r="16"/>
<g>
	<circle style="fill:#123247;" cx="392" cy="384.084" r="16"/>
	<circle style="fill:#123247;" cx="440" cy="384.084" r="16"/>
</g>
<path style="fill:#B2C4D0;" d="M496,320.044v144H32c-8.84,0-16,7.16-16,16h480c8.84,0,16-7.16,16-16v-160
	C503.16,304.044,496,311.212,496,320.044z"/>
<g>
	<rect x="376" y="480.084" style="fill:#123247;" width="56" height="8"/>
	<rect x="80" y="480.084" style="fill:#123247;" width="56" height="8"/>
</g>
<path style="fill:#35495C;" d="M273.68,240.044h-35.36c-2.088-0.016-4.096,0.792-5.6,2.24c-5.552,5.888-8.672,13.664-8.72,21.76v24
	h64v-24c-0.048-8.096-3.168-15.872-8.72-21.76C277.776,240.836,275.768,240.036,273.68,240.044z"/>
<path style="fill:#123247;" d="M279.28,242.284c-0.944-1.096-2.2-1.88-3.6-2.24c2.856,4.848,4.352,10.376,4.32,16v24h-48
	c-4.416,0-8,3.584-8,8h64v-24C287.952,255.948,284.832,248.18,279.28,242.284z"/>
<path style="fill:#B2C4D0;" d="M272,240.044v-144c0-8.84-7.16-16-16-16s-16,7.16-16,16v144H272z"/>
<path style="fill:#8FAEBF;" d="M256,240.044h16v-136c0-4.416-3.584-8-8-8l0,0c-4.416,0-8,3.584-8,8V240.044z"/>
<g>
	<path style="fill:#C9D5DD;" d="M211.68,131.644c-2.128,0.016-4.168-0.824-5.68-2.32c-18.4-17.896-18.808-47.328-0.912-65.728
		c0.304-0.312,0.608-0.616,0.912-0.912c3.12-3.104,8.16-3.104,11.28,0c3,3.104,3,8.016,0,11.12
		c-12.264,11.92-12.536,31.52-0.624,43.776c0.2,0.208,0.408,0.416,0.624,0.624c3,3.104,3,8.016,0,11.12
		C215.792,130.804,213.776,131.636,211.68,131.644z"/>
	<path style="fill:#C9D5DD;" d="M300.32,131.644c-2.128,0.016-4.168-0.824-5.68-2.32c-3-3.104-3-8.016,0-11.12
		c12.264-11.92,12.536-31.52,0.624-43.776c-0.2-0.208-0.408-0.416-0.624-0.624c-3-3.104-3-8.016,0-11.12
		c3.12-3.104,8.16-3.104,11.28,0c18.4,17.896,18.808,47.328,0.912,65.728c-0.304,0.312-0.608,0.616-0.912,0.912
		C304.432,130.804,302.416,131.636,300.32,131.644z"/>
	<path style="fill:#C9D5DD;" d="M189.12,153.804c-2.128,0.016-4.168-0.824-5.68-2.32C152.8,121.58,152.2,72.5,182.104,41.86
		c0.44-0.448,0.888-0.896,1.336-1.336c3.12-3.104,8.16-3.104,11.28,0c3,3.104,3,8.016,0,11.12
		c-24.52,23.896-25.024,63.152-1.128,87.672c0.368,0.384,0.744,0.752,1.128,1.128c3,3.104,3,8.016,0,11.12
		C193.216,153.012,191.208,153.82,189.12,153.804z"/>
	<path style="fill:#C9D5DD;" d="M322.88,153.804c-2.128,0.016-4.168-0.824-5.68-2.32c-3-3.104-3-8.016,0-11.12
		c24.52-23.896,25.024-63.152,1.128-87.672c-0.368-0.384-0.744-0.752-1.128-1.128c-3-3.104-3-8.016,0-11.12
		c3.12-3.104,8.16-3.104,11.28,0c30.64,29.904,31.24,78.984,1.336,109.624c-0.44,0.448-0.888,0.896-1.336,1.336
		C327,152.916,324.992,153.78,322.88,153.804z"/>
	<path style="fill:#C9D5DD;" d="M166.48,176.044c-2.128,0.016-4.168-0.824-5.68-2.32c-42.92-41.736-43.888-110.36-2.152-153.288
		c0.712-0.728,1.424-1.448,2.152-2.152c3.12-3.104,8.16-3.104,11.28,0c3,3.104,3,8.016,0,11.12
		c-36.784,35.816-37.568,94.672-1.744,131.456c0.576,0.592,1.16,1.168,1.744,1.744c3,3.104,3,8.016,0,11.12
		C170.592,175.204,168.576,176.036,166.48,176.044z"/>
	<path style="fill:#C9D5DD;" d="M345.52,176.044c-2.128,0.016-4.168-0.824-5.68-2.32c-3-3.104-3-8.016,0-11.12
		c36.784-35.816,37.56-94.672,1.744-131.456c-0.576-0.592-1.16-1.168-1.744-1.744c-3-3.104-3-8.016,0-11.12
		c3.12-3.104,8.16-3.104,11.28,0c42.92,41.736,43.888,110.36,2.152,153.288c-0.712,0.728-1.424,1.448-2.152,2.152
		C349.632,175.204,347.616,176.036,345.52,176.044z"/>
</g>
</svg>