<?xml version="1.0" encoding="iso-8859-1"?>
<!-- Uploaded to: SVG Repo, www.svgrepo.com, Generator: SVG Repo Mixer Tools -->
<svg height="800px" width="800px" version="1.1" id="Layer_1" xmlns="http://www.w3.org/2000/svg" xmlns:xlink="http://www.w3.org/1999/xlink" 
	 viewBox="0 0 512 512" xml:space="preserve">
<path style="fill:#F95428;" d="M419.877,402.982c22.748,22.748,22.748,59.647,0,82.395c-22.761,22.761-59.66,22.761-82.408,0
	c-22.761-22.748-22.761-59.647,0-82.395C360.217,380.221,397.116,380.221,419.877,402.982z"/>
<circle style="fill:#CCCCCC;" cx="440.913" cy="254.254" r="20.94"/>
<path style="fill:#F95428;" d="M484.746,294.374c-10.674,12.202-26.353,19.895-43.828,19.895c-17.488,0-33.167-7.693-43.84-19.895
	c10.903-11.794,26.506-19.182,43.84-19.182C458.241,275.193,473.856,282.58,484.746,294.374z"/>
<path style="fill:#F7B239;" d="M499.177,255.998c0,14.698-5.439,28.123-14.431,38.376c-10.89-11.794-26.506-19.182-43.828-19.182
	c11.565,0,20.939-9.374,20.939-20.939c0-11.565-9.374-20.94-20.939-20.94s-20.94,9.374-20.94,20.94
	c0,11.565,9.374,20.939,20.94,20.939c-17.335,0-32.938,7.387-43.84,19.182c-8.992-10.253-14.431-23.678-14.431-38.376
	c0-32.173,26.085-58.271,58.271-58.271C473.092,197.727,499.177,223.825,499.177,255.998z"/>
<path style="fill:#2BA5F7;" d="M419.877,26.619c22.748,22.761,22.748,59.647,0,82.408c-22.761,22.748-59.66,22.748-82.408,0
	c-22.761-22.761-22.761-59.647,0-82.408C360.217,3.858,397.116,3.858,419.877,26.619z"/>
<path style="fill:#4D4D4D;" d="M80.565,327.618c0,13.794,11.17,24.964,24.964,24.977H92.691H75.815
	c-13.794,0-24.977-11.183-24.977-24.977V184.378c0-13.794,11.183-24.977,24.977-24.977h16.876h12.839
	c-13.794,0.013-24.964,11.183-24.964,24.977C80.565,184.378,80.565,327.618,80.565,327.618z"/>
<path style="fill:#666666;" d="M273.759,184.378v143.239c0,13.794-11.183,24.977-24.977,24.977h-23.818h-5.91H105.543h-0.013
	c-13.794-0.013-24.964-11.183-24.964-24.977V184.378c0-13.794,11.17-24.964,24.964-24.977h0.013h113.511h5.91h23.818
	C262.576,159.401,273.759,170.584,273.759,184.378z"/>
<path style="fill:#808080;" d="M244.907,177.481h-135.49c-5.949,0-10.772,4.822-10.772,10.772v135.49
	c0,5.949,4.822,10.772,10.772,10.772h135.49c5.949,0,10.772-4.822,10.772-10.772v-135.49
	C255.679,182.305,250.856,177.481,244.907,177.481z"/>
<g>
	<path style="fill:#F7B239;" d="M224.964,352.595v56.654c0,22.06-17.883,39.943-39.943,39.943H52.761
		c22.048,0,39.93-17.883,39.93-39.943v-56.654h12.839h0.013h113.511H224.964z"/>
	<path style="fill:#F7B239;" d="M224.964,102.747v56.654h-5.91H105.543h-0.013H92.691v-56.654c0-11.03-4.471-21.016-11.692-28.238
		c-7.222-7.235-17.22-11.705-28.238-11.705h132.26C207.081,62.804,224.964,80.687,224.964,102.747z"/>
</g>
<path style="fill:#B27214;" d="M92.691,352.595v56.654c0,22.06-17.883,39.943-39.93,39.943c-22.06,0-39.943-17.883-39.943-39.943
	V102.747c0-22.06,17.883-39.943,39.943-39.943c11.017,0,21.016,4.471,28.238,11.705c7.222,7.222,11.692,17.208,11.692,28.238v56.654
	H75.815c-13.794,0-24.977,11.183-24.977,24.977v143.239c0,13.794,11.183,24.977,24.977,24.977L92.691,352.595L92.691,352.595z"/>
<path style="fill:#333333;" d="M248.777,149.85h-14.264v-47.105c0-27.29-22.202-49.492-49.492-49.492H52.884
	c-0.043,0-0.085-0.003-0.127-0.003c-27.289,0-49.491,22.202-49.491,49.491V409.25c0,27.289,22.202,49.491,49.491,49.491
	c0.003,0,0.005,0,0.006,0l-0.005,0.004h132.263c27.29,0,49.492-22.202,49.492-49.491v-47.105h14.264
	c19.039,0,34.53-15.489,34.53-34.529V184.38C283.307,165.341,267.816,149.85,248.777,149.85z M215.407,102.745v47.105l-113.16,0.001
	v-47.109c0-11.159-3.678-21.741-10.434-30.383h93.208C201.776,72.36,215.407,85.991,215.407,102.745z M74.626,342.985
	c-7.952-0.609-14.24-7.259-14.24-15.365V184.382c0-8.105,6.287-14.754,14.239-15.365c-2.31,4.63-3.619,9.844-3.619,15.362V327.62
	C71.008,333.138,72.315,338.354,74.626,342.985z M22.37,409.251V102.742c0-16.754,13.631-30.385,30.385-30.385
	c8.12,0,15.748,3.16,21.487,8.908c5.738,5.73,8.899,13.358,8.899,21.478v47.11h-7.33c-19.04,0-34.53,15.491-34.53,34.53V327.62
	c0,19.04,15.491,34.53,34.53,34.53h7.33v47.1c0,16.754-13.631,30.385-30.385,30.385S22.37,426.005,22.37,409.251z M185.021,439.64
	H91.775c6.553-8.395,10.472-18.94,10.472-30.389v-47.1h113.16v47.104C215.407,426.009,201.776,439.64,185.021,439.64z
	 M264.201,327.62c0,8.504-6.92,15.423-15.424,15.423H105.536c-8.504,0-15.423-6.919-15.423-15.423V184.38
	c0-8.492,6.9-15.401,15.386-15.422h113.56v-0.001h29.718c8.504,0,15.424,6.919,15.424,15.423L264.201,327.62L264.201,327.62z"/>
<path style="fill:#FFFFFF;" d="M112.167,181.692c-5.276,0-9.553,4.277-9.553,9.553v64.956c0,5.276,4.277,9.553,9.553,9.553
	c5.276,0,9.553-4.277,9.553-9.553v-64.956C121.72,185.969,117.443,181.692,112.167,181.692z"/>
<g>
	<path style="fill:#333333;" d="M337.952,389.952l-32.647-32.647c-3.731-3.731-9.779-3.731-13.509,0
		c-3.731,3.731-3.731,9.779,0,13.509l32.647,32.647c-19.961,26.549-17.88,64.524,6.269,88.674
		c12.81,12.81,29.84,19.865,47.956,19.865c18.116,0,35.148-7.055,47.957-19.865c26.443-26.443,26.443-69.47,0-95.914
		C402.476,372.072,364.502,369.991,337.952,389.952z M413.116,478.625c-9.201,9.201-21.435,14.269-34.447,14.269
		c-13.012,0-25.246-5.068-34.447-14.269c-18.995-18.995-18.995-49.901,0-68.895c9.498-9.497,21.971-14.245,34.447-14.245
		c12.476,0,24.95,4.748,34.447,14.245C432.111,428.726,432.111,459.631,413.116,478.625z"/>
	<path style="fill:#333333;" d="M440.912,188.179c-34.153,0-62.477,25.381-67.135,58.269h-40.004c-5.276,0-9.553,4.277-9.553,9.553
		c0,5.276,4.277,9.553,9.553,9.553h40.004c4.658,32.888,32.982,58.269,67.135,58.269c37.397,0,67.822-30.425,67.822-67.822
		S478.309,188.179,440.912,188.179z M440.912,207.284c26.862,0,48.716,21.854,48.716,48.716c0,8.76-2.336,16.981-6.4,24.092
		c-5.083-3.927-10.661-7.122-16.585-9.493c3.015-4.728,4.77-10.333,4.77-16.344c0-16.813-13.678-30.491-30.491-30.491
		s-30.491,13.678-30.491,30.491c0,6.008,1.754,11.611,4.766,16.338c-5.929,2.372-11.512,5.57-16.599,9.499
		c-4.064-7.111-6.402-15.331-6.402-24.092C392.197,229.137,414.051,207.284,440.912,207.284z M440.912,265.635
		c-0.025,0-0.05,0.003-0.074,0.003c-6.24-0.046-11.303-5.132-11.303-11.382c0-6.278,5.108-11.386,11.386-11.386
		s11.386,5.107,11.386,11.386c0,6.253-5.067,11.34-11.309,11.382C440.969,265.637,440.941,265.635,440.912,265.635z
		 M411.159,294.532c8.517-6.281,18.871-9.765,29.64-9.79c0.041,0,0.082,0.003,0.124,0.003c0.038,0,0.076-0.003,0.115-0.003
		c10.767,0.027,21.118,3.51,29.631,9.79c-8.237,6.375-18.556,10.182-29.755,10.182C429.715,304.714,419.396,300.908,411.159,294.532
		z"/>
	<path style="fill:#333333;" d="M301.245,158.754l36.699-36.699c11.682,8.811,25.834,13.586,40.725,13.586
		c18.116,0,35.148-7.055,47.957-19.865c12.81-12.81,19.865-29.841,19.865-47.957s-7.055-35.148-19.865-47.956
		C413.817,7.055,396.785,0,378.669,0c-18.116,0-35.148,7.055-47.956,19.865c-12.81,12.81-19.864,29.84-19.864,47.956
		c0,14.891,4.775,29.043,13.586,40.726l-36.699,36.699c-3.731,3.731-3.731,9.779,0,13.509c1.865,1.866,4.31,2.798,6.754,2.798
		C296.934,161.553,299.379,160.619,301.245,158.754z M344.222,33.375c9.201-9.201,21.434-14.269,34.447-14.269
		c13.013,0,25.246,5.068,34.447,14.269c9.201,9.201,14.269,21.435,14.269,34.447s-5.068,25.246-14.269,34.447
		c-9.201,9.201-21.435,14.269-34.447,14.269c-13.012,0-25.246-5.068-34.447-14.269c-9.201-9.201-14.269-21.435-14.269-34.447
		S335.021,42.576,344.222,33.375z"/>
	<path style="fill:#333333;" d="M378.669,104.717c5.276,0,9.553-4.277,9.553-9.553v-29.85c0-5.276-4.277-9.553-9.553-9.553
		c-5.276,0-9.553,4.277-9.553,9.553v29.85C369.117,100.44,373.394,104.717,378.669,104.717z"/>
	<path style="fill:#333333;" d="M397.236,410.214h-37.134c-5.276,0-9.553,4.277-9.553,9.553s4.277,9.553,9.553,9.553h37.134
		c5.276,0,9.553-4.277,9.553-9.553S402.513,410.214,397.236,410.214z"/>
	<path style="fill:#333333;" d="M397.236,434.626h-37.134c-5.276,0-9.553,4.277-9.553,9.553c0,5.276,4.277,9.553,9.553,9.553h37.134
		c5.276,0,9.553-4.277,9.553-9.553C406.789,438.903,402.513,434.626,397.236,434.626z"/>
	<path style="fill:#333333;" d="M397.236,459.037h-37.134c-5.276,0-9.553,4.277-9.553,9.553c0,5.276,4.277,9.553,9.553,9.553h37.134
		c5.276,0,9.553-4.277,9.553-9.553C406.789,463.314,402.513,459.037,397.236,459.037z"/>
</g>
<circle style="fill:#FFFFFF;" cx="112.161" cy="282.989" r="9.553"/>
<circle style="fill:#333333;" cx="378.668" cy="40.477" r="9.553"/>
</svg>