<?xml version="1.0" encoding="iso-8859-1"?>
<!-- Uploaded to: SVG Repo, www.svgrepo.com, Generator: SVG Repo Mixer Tools -->
<svg version="1.1" id="Layer_1" xmlns="http://www.w3.org/2000/svg" xmlns:xlink="http://www.w3.org/1999/xlink" 
	 viewBox="0 0 511.996 511.996" xml:space="preserve">
<path style="fill:#40576F;" d="M66.705,145.496v342.069c0,15.29,9.14,24.43,20.417,24.43h337.751c11.277,0,20.417-9.14,20.417-24.43
	V145.496H66.705z"/>
<path style="fill:#8099B4;" d="M424.873,0H87.122C75.845,0,66.705,9.145,66.705,20.422v133.923h378.586V20.422
	C445.291,9.145,436.151,0,424.873,0z"/>
<rect x="100.266" y="29.597" style="fill:#4C6884;" width="311.459" height="100.268"/>
<rect x="117.733" y="43.427" style="fill:#95CF80;" width="276.508" height="72.613"/>
<g>
	<path style="fill:#8099B4;" d="M173.043,240.845c0,4.433-3.597,8.025-8.025,8.025h-47.055c-4.433,0-8.025-3.597-8.025-8.025
		v-47.051c0-4.433,3.597-8.025,8.025-8.025h47.055c4.433,0,8.025,3.597,8.025,8.025V240.845z"/>
	<path style="fill:#8099B4;" d="M250.244,240.845c0,4.433-3.597,8.025-8.025,8.025h-47.059c-4.433,0-8.025-3.597-8.025-8.025
		v-47.051c0-4.433,3.597-8.025,8.025-8.025h47.055c4.433,0,8.025,3.597,8.025,8.025v47.051H250.244z"/>
	<path style="fill:#8099B4;" d="M327.436,240.845c0,4.433-3.597,8.025-8.025,8.025h-47.055c-4.433,0-8.025-3.597-8.025-8.025
		v-47.051c0-4.433,3.597-8.025,8.025-8.025h47.055c4.433,0,8.025,3.597,8.025,8.025V240.845z"/>
	<path style="fill:#8099B4;" d="M404.633,240.845c0,4.433-3.597,8.025-8.025,8.025h-47.055c-4.433,0-8.025-3.597-8.025-8.025
		v-47.051c0-4.433,3.597-8.025,8.025-8.025h47.055c4.433,0,8.025,3.597,8.025,8.025L404.633,240.845L404.633,240.845z"/>
	<path style="fill:#8099B4;" d="M173.043,317.334c0,4.433-3.597,8.025-8.025,8.025h-47.055c-4.433,0-8.025-3.597-8.025-8.025
		v-47.055c0-4.433,3.597-8.025,8.025-8.025h47.055c4.433,0,8.025,3.597,8.025,8.025V317.334z"/>
	<path style="fill:#8099B4;" d="M250.244,317.334c0,4.433-3.597,8.025-8.025,8.025h-47.059c-4.433,0-8.025-3.597-8.025-8.025
		v-47.055c0-4.433,3.597-8.025,8.025-8.025h47.055c4.433,0,8.025,3.597,8.025,8.025v47.055H250.244z"/>
	<path style="fill:#8099B4;" d="M327.436,317.334c0,4.433-3.597,8.025-8.025,8.025h-47.055c-4.433,0-8.025-3.597-8.025-8.025
		v-47.055c0-4.433,3.597-8.025,8.025-8.025h47.055c4.433,0,8.025,3.597,8.025,8.025V317.334z"/>
	<path style="fill:#8099B4;" d="M404.633,317.334c0,4.433-3.597,8.025-8.025,8.025h-47.055c-4.433,0-8.025-3.597-8.025-8.025
		v-47.055c0-4.433,3.597-8.025,8.025-8.025h47.055c4.433,0,8.025,3.597,8.025,8.025L404.633,317.334L404.633,317.334z"/>
	<path style="fill:#8099B4;" d="M173.043,393.814c0,4.433-3.597,8.025-8.025,8.025h-47.055c-4.433,0-8.025-3.597-8.025-8.025
		v-47.055c0-4.433,3.597-8.025,8.025-8.025h47.055c4.433,0,8.025,3.597,8.025,8.025V393.814z"/>
	<path style="fill:#8099B4;" d="M250.244,393.814c0,4.433-3.597,8.025-8.025,8.025h-47.059c-4.433,0-8.025-3.597-8.025-8.025
		v-47.055c0-4.433,3.597-8.025,8.025-8.025h47.055c4.433,0,8.025,3.597,8.025,8.025v47.055H250.244z"/>
	<path style="fill:#8099B4;" d="M327.436,393.814c0,4.433-3.597,8.025-8.025,8.025h-47.055c-4.433,0-8.025-3.597-8.025-8.025
		v-47.055c0-4.433,3.597-8.025,8.025-8.025h47.055c4.433,0,8.025,3.597,8.025,8.025V393.814z"/>
	<path style="fill:#8099B4;" d="M173.043,470.298c0,4.433-3.597,8.025-8.025,8.025h-47.055c-4.433,0-8.025-3.597-8.025-8.025
		v-47.055c0-4.433,3.597-8.025,8.025-8.025h47.055c4.433,0,8.025,3.597,8.025,8.025V470.298z"/>
	<path style="fill:#8099B4;" d="M250.244,470.298c0,4.433-3.597,8.025-8.025,8.025h-47.059c-4.433,0-8.025-3.597-8.025-8.025
		v-47.055c0-4.433,3.597-8.025,8.025-8.025h47.055c4.433,0,8.025,3.597,8.025,8.025v47.055H250.244z"/>
	<path style="fill:#8099B4;" d="M327.436,470.298c0,4.433-3.597,8.025-8.025,8.025h-47.055c-4.433,0-8.025-3.597-8.025-8.025
		v-47.055c0-4.433,3.597-8.025,8.025-8.025h47.055c4.433,0,8.025,3.597,8.025,8.025V470.298z"/>
	<path style="fill:#8099B4;" d="M396.608,338.729h-47.055c-4.433,0-8.025,3.597-8.025,8.025v123.539
		c0,4.433,3.597,8.025,8.025,8.025h47.055c4.433,0,8.025-3.597,8.025-8.025V346.759
		C404.633,342.326,401.036,338.729,396.608,338.729z"/>
</g>
</svg>