<?xml version="1.0" encoding="iso-8859-1"?>
<!-- Uploaded to: SVG Repo, www.svgrepo.com, Generator: SVG Repo Mixer Tools -->
<svg version="1.1" id="Layer_1" xmlns="http://www.w3.org/2000/svg" xmlns:xlink="http://www.w3.org/1999/xlink" 
	 viewBox="0 0 512.001 512.001" xml:space="preserve">
<path style="fill:#4BB6AA;" d="M185.169,97.614c0-12.591-10.303-22.894-22.894-22.894H82.857c-12.592,0-22.895,10.303-22.895,22.894
	v24.587c0,12.592,10.303,22.894,22.895,22.894h79.417c12.592,0,22.894-10.303,22.894-22.894V97.614H185.169z"/>
<path style="fill:#333E48;" d="M503.826,148.952c0-22.036-18.03-40.066-40.066-40.066H48.24c-22.036,0-40.066,18.03-40.066,40.066
	v248.264c0,22.036,18.03,40.066,40.066,40.066h415.521c22.036,0,40.066-18.029,40.066-40.066V148.952H503.826z"/>
<path style="fill:#00A8E1;" d="M8.174,355.077h37.013c9.445,0,17.171-7.727,17.171-17.171V208.27
	c0-9.444-7.727-17.171-17.171-17.171H8.174V355.077z"/>
<rect x="87.299" y="108.889" style="opacity:0.1;enable-background:new    ;" width="42.93" height="328.399"/>
<circle style="opacity:0.1;enable-background:new    ;" cx="277.753" cy="302.396" r="112.943"/>
<circle style="fill:#FFFFFF;" cx="277.753" cy="273.089" r="112.943"/>
<circle style="fill:#333E48;" cx="277.753" cy="273.089" r="78.601"/>
<g>
	<circle style="fill:#FFFFFF;" cx="293.785" cy="255.913" r="25.187"/>
	<path style="fill:#FFFFFF;" d="M393.179,183.034c0,6.296,5.152,11.447,11.447,11.447h58.492c6.296,0,11.447-5.152,11.447-11.447
		v-15.645c0-6.296-5.152-11.447-11.447-11.447h-58.492c-6.295,0-11.447,5.152-11.447,11.447V183.034z"/>
</g>
<rect x="410.576" y="155.939" style="opacity:0.1;enable-background:new    ;" width="16.348" height="38.538"/>
<rect x="440.82" y="155.939" style="opacity:0.1;enable-background:new    ;" width="16.348" height="38.538"/>
<path style="fill:#1E252B;" d="M463.761,100.712H193.343v-3.099c0-17.131-13.937-31.068-31.068-31.068H82.857
	c-17.132,0-31.069,13.937-31.069,31.068v3.099h-3.55C21.639,100.712,0,122.353,0,148.952v248.264c0,26.599,21.639,48.24,48.24,48.24
	h415.521c26.599,0,48.24-21.64,48.24-48.24V148.952C512,122.353,490.361,100.712,463.761,100.712z M68.136,97.614
	c0-8.116,6.604-14.72,14.721-14.72h79.417c8.116,0,14.72,6.604,14.72,14.72v3.099H68.136V97.614z M16.348,199.272h28.839
	c4.961,0,8.997,4.036,8.997,8.997v129.636c0,4.961-4.036,8.997-8.997,8.997H16.348V199.272z M495.652,397.215
	c0,17.585-14.307,31.892-31.892,31.892H48.24c-17.585,0-31.892-14.307-31.892-31.892V363.25h28.839
	c13.975,0,25.345-11.37,25.345-25.345V208.27c0-13.975-11.37-25.345-25.345-25.345H16.348v-33.972
	c0-17.585,14.307-31.892,31.892-31.892h415.521c17.585,0,31.892,14.307,31.892,31.892v248.262H495.652z M463.118,147.767h-58.492
	c-10.819,0-19.621,8.802-19.621,19.621v15.645c0,10.819,8.802,19.621,19.621,19.621h58.492c10.819,0,19.621-8.802,19.621-19.621
	v-15.645C482.739,156.57,473.937,147.767,463.118,147.767z M466.391,183.034c0,1.774-1.499,3.273-3.273,3.273h-58.492
	c-1.774,0-3.273-1.5-3.273-3.273v-15.645c0-1.774,1.499-3.273,3.273-3.273h58.492c1.774,0,3.273,1.5,3.273,3.273V183.034z
	 M277.75,151.968c-66.786,0-121.122,54.334-121.122,121.12s54.334,121.12,121.122,121.12s121.12-54.334,121.12-121.12
	S344.536,151.968,277.75,151.968z M277.75,377.86c-57.772,0-104.774-47.001-104.774-104.772s47.001-104.772,104.774-104.772
	s104.772,47.001,104.772,104.772S335.522,377.86,277.75,377.86z"/>
</svg>