<?xml version="1.0" encoding="iso-8859-1"?>
<!-- Uploaded to: SVG Repo, www.svgrepo.com, Generator: SVG Repo Mixer Tools -->
<svg version="1.1" id="Layer_1" xmlns="http://www.w3.org/2000/svg" xmlns:xlink="http://www.w3.org/1999/xlink" 
	 viewBox="0 0 512 512" xml:space="preserve">
<g>
	<polygon style="fill:#3E4A57;" points="434.423,95.524 241.748,95.524 210.617,211.952 403.292,211.952 	"/>
	<path style="fill:#3E4A57;" d="M49.642,211.952c-12.045,0-21.808,9.763-21.808,21.808v165.207c0,12.044,9.763,21.807,21.808,21.807
		H383.82V211.952H49.642z"/>
</g>
<path style="fill:#333E48;" d="M482.139,420.773c12.044,0,21.807-9.763,21.807-21.807V233.76c0-12.044-9.763-21.808-21.807-21.808
	H347.761c-12.044,0-21.807,9.763-21.807,21.808v165.207c0,12.044,9.763,21.807,21.807,21.807H482.139z"/>
<polygon style="fill:#E8E8E8;" points="410.737,111.323 218.063,111.323 191.146,211.952 383.82,211.952 "/>
<circle style="fill:#FFFFFF;" cx="288.572" cy="294.275" r="8.701"/>
<circle style="fill:#FF8189;" cx="288.572" cy="264.266" r="8.701"/>
<path style="fill:#B3B8BA;" d="M24.365,388.149c-9.009,0-16.31,7.303-16.31,16.312c0,9.008,7.302,16.312,16.31,16.312h115.692
	v-32.624H24.365z"/>
<path style="fill:#A4A9AD;" d="M140.057,388.149c-9.008,0-16.312,7.303-16.312,16.312c0,9.008,7.304,16.312,16.312,16.312h115.692
	v-32.624H140.057z"/>
<rect x="96.355" y="332.738" style="fill:#333E48;" width="159.404" height="55.41"/>
<g>
	<rect x="96.355" y="211.947" style="fill:#A4A9AD;" width="159.404" height="55.41"/>
	<rect x="391.092" y="273.427" style="fill:#A4A9AD;" width="47.721" height="24.289"/>
</g>
<path d="M482.139,203.896h-66.281l29.569-110.588c0.648-2.419,0.132-5.001-1.392-6.987c-1.525-1.986-3.886-3.15-6.39-3.15H237.859
	c-3.648,0-6.84,2.451-7.782,5.975l-3.776,14.121h-8.238c-3.646,0-6.84,2.451-7.782,5.974l-25.319,94.655H49.642
	c-16.467,0-29.864,13.397-29.864,29.864v146.773C8.529,382.686,0,392.594,0,404.461c0,13.437,10.931,24.368,24.365,24.368h457.772
	c16.466,0,29.863-13.397,29.863-29.863V233.76C512,217.293,498.604,203.896,482.139,203.896z M244.044,99.283h183.108
	L399.18,203.896h-4.868l24.206-90.492c0.648-2.419,0.133-5.001-1.392-6.987c-1.525-1.986-3.886-3.15-6.39-3.15H242.978
	L244.044,99.283z M224.248,119.378h175.996l-22.609,84.518H201.638L224.248,119.378z M117.133,412.718H24.365
	c-4.552,0-8.254-3.703-8.254-8.256c0-4.553,3.702-8.256,8.254-8.256h92.767c-0.931,2.58-1.442,5.36-1.442,8.256
	C115.691,407.358,116.202,410.138,117.133,412.718z M247.694,412.718H140.057c-4.552,0-8.256-3.703-8.256-8.256
	c0-4.553,3.703-8.256,8.256-8.256h107.636V412.718z M247.694,380.094H104.407v-39.3h143.287V380.094z M321.267,412.718h-57.462
	v-79.98c0-4.449-3.606-8.056-8.056-8.056H96.351c-4.45,0-8.056,3.607-8.056,8.056v47.355H35.889V233.76
	c0-7.583,6.169-13.752,13.752-13.752h271.625c-2.147,4.119-3.368,8.795-3.368,13.752v165.207
	C317.9,403.923,319.12,408.599,321.267,412.718z M495.889,398.966c0,7.582-6.168,13.751-13.751,13.751H347.761
	c-7.583,0-13.751-6.169-13.751-13.751V233.76c0-7.583,6.168-13.752,13.751-13.752h134.377c7.583,0,13.751,6.169,13.751,13.752
	L495.889,398.966L495.889,398.966z"/>
</svg>