<?xml version="1.0" encoding="iso-8859-1"?>
<!-- Uploaded to: SVG Repo, www.svgrepo.com, Generator: SVG Repo Mixer Tools -->
<svg height="800px" width="800px" version="1.1" id="Layer_1" xmlns="http://www.w3.org/2000/svg" xmlns:xlink="http://www.w3.org/1999/xlink" 
	 viewBox="0 0 512 512" xml:space="preserve">
<path style="fill:#ED8800;" d="M478.362,257.617h-28.88l-322.829,0.539v247.916l323.4,0.538c0.296,0,0.594-0.002,0.899-0.006
	c29.501-0.493,53.503-25.306,53.503-55.313v-167.58C504.455,269.322,492.75,257.617,478.362,257.617z"/>
<path style="fill:#CC7400;" d="M478.362,257.617h-28.88l-3.749,0.006c14.273,0.134,25.846,11.781,25.846,26.087v167.58
	c0,30.008-24.005,54.778-53.506,55.269c-0.305,0.004,31.979,0.05,31.979,0.05c0.296,0,0.594-0.002,0.899-0.006
	c29.501-0.493,53.503-25.306,53.503-55.313v-167.58C504.455,269.322,492.75,257.617,478.362,257.617z"/>
<path style="fill:#ECE5DD;" d="M342.771,9.701H89.582c-15.517,0-28.142,12.624-28.142,28.142v134.62v258.156l334.147,0.539h35.352
	c10.819,0,19.621-8.802,19.621-19.621V106.712L342.771,9.701z"/>
<path style="fill:#D9CBBD;" d="M417.792,77.22l0.046,29.491v304.825c0,10.819-8.802,19.621-19.621,19.621h32.722
	c10.819,0,19.621-8.802,19.621-19.621V106.712L417.792,77.22z"/>
<path style="fill:#FFB656;" d="M72.247,506.072c-35.379,0-64.163-28.784-64.163-64.163V220.8c0-27.545,22.409-49.954,49.954-49.954
	h65.845c9.205,0,18.235,3.167,25.423,8.917l25.909,20.727c10.859,8.687,24.497,13.472,38.402,13.472h152.418
	c17.186,0,31.168,13.982,31.168,31.168v206.507c0,14.42,5.663,27.931,15.946,38.043c0.486,0.479,0.98,0.946,1.48,1.402
	l16.393,15.494L72.247,506.072z"/>
<path style="fill:#FFA733;" d="M414.63,491.085c-0.5-0.456-0.994-0.924-1.48-1.402c-10.283-10.112-15.946-23.623-15.946-38.043
	V245.13c0-17.186-13.982-31.168-31.168-31.168h-32.337c17.186,0,31.168,13.982,31.168,31.168v206.507
	c0,14.42,5.663,27.931,15.946,38.043c0.486,0.479,0.98,0.946,1.48,1.402l16.393,14.987l32.337,0.507L414.63,491.085z"/>
<g>
	<path style="fill:#BABABA;" d="M126.653,93.777h107.789c4.465,0,8.084-3.62,8.084-8.084s-3.62-8.084-8.084-8.084H126.653
		c-4.465,0-8.084,3.62-8.084,8.084S122.188,93.777,126.653,93.777z"/>
	<path style="fill:#BABABA;" d="M277.558,93.777h21.558c4.466,0,8.084-3.62,8.084-8.084s-3.618-8.084-8.084-8.084h-21.558
		c-4.466,0-8.084,3.62-8.084,8.084S273.092,93.777,277.558,93.777z"/>
	<path style="fill:#BABABA;" d="M126.653,136.893h86.232c4.465,0,8.084-3.62,8.084-8.084c0-4.465-3.62-8.084-8.084-8.084h-86.232
		c-4.465,0-8.084,3.62-8.084,8.084C118.568,133.273,122.188,136.893,126.653,136.893z"/>
	<path style="fill:#BABABA;" d="M256,136.893h64.674c4.466,0,8.084-3.62,8.084-8.084c0-4.465-3.618-8.084-8.084-8.084H256
		c-4.465,0-8.084,3.62-8.084,8.084C247.916,133.273,251.535,136.893,256,136.893z"/>
</g>
<path style="fill:#C0AB91;" d="M363.436,107.789c-11.989,0-21.743-9.754-21.743-21.743V9.03l109.733,98.76H363.436z"/>
<path d="M478.362,247.916h-20.257V105.095c0-0.183-0.016-0.363-0.029-0.544c-0.005-0.072-0.004-0.146-0.012-0.218
	c-0.033-0.356-0.092-0.706-0.171-1.051c-0.018-0.079-0.042-0.154-0.063-0.232c-0.073-0.28-0.162-0.555-0.264-0.825
	c-0.032-0.086-0.063-0.171-0.098-0.257c-0.137-0.327-0.291-0.647-0.471-0.953c-0.027-0.046-0.06-0.091-0.088-0.137
	c-0.163-0.265-0.342-0.52-0.534-0.765c-0.061-0.078-0.122-0.154-0.186-0.231c-0.236-0.279-0.485-0.55-0.76-0.798L347.639,2.075
	c-0.263-0.237-0.544-0.447-0.833-0.647c-0.065-0.044-0.127-0.088-0.193-0.13c-0.285-0.183-0.577-0.351-0.881-0.497
	c-0.052-0.025-0.106-0.045-0.158-0.069c-0.272-0.124-0.551-0.232-0.834-0.324c-0.066-0.022-0.13-0.045-0.197-0.066
	c-0.318-0.095-0.641-0.17-0.969-0.225c-0.072-0.012-0.146-0.02-0.219-0.03c-0.29-0.041-0.583-0.067-0.877-0.075
	c-0.059-0.002-0.117-0.008-0.177-0.009C342.278,0.003,342.254,0,342.232,0H89.582C69.904,0,53.895,16.009,53.895,35.687v126.122
	C23.864,163.677,0,188.691,0,219.184v221.107C0,479.831,32.169,512,71.708,512h378.313c0.351,0,0.704-0.003,1.055-0.009
	C484.67,511.431,512,483.233,512,449.135v-167.58C512,263.006,496.911,247.916,478.362,247.916z M350.316,26.236l78.638,70.775
	h-65.518c-7.235,0-13.12-5.885-13.12-13.12V26.236z M71.708,495.832c-30.674,0-55.54-24.866-55.54-55.54V219.183
	c0-22.827,18.504-41.331,41.331-41.331h65.845c7.255,0,14.372,2.496,20.037,7.029l25.908,20.727
	c12.382,9.905,27.934,15.36,43.789,15.36h61.41c4.465,0,8.084-3.62,8.084-8.084l0,0c0-4.465-3.62-8.084-8.084-8.084h-61.41
	c-12.199,0-24.163-4.197-33.69-11.817l-25.908-20.727c-8.554-6.844-19.182-10.572-30.137-10.572H70.063V35.687
	c0-10.78,8.738-19.519,19.519-19.519h244.566V83.89c0,16.176,13.113,29.289,29.289,29.289h78.501v296.202
	c0,6.074-4.924,10.998-10.998,10.998h-26.729V243.514c0-21.381-17.333-38.714-38.714-38.714h-55.363
	c-4.465,0-8.084,3.62-8.084,8.084l0,0c0,4.465,3.62,8.084,8.084,8.084h55.363c12.452,0,22.545,10.093,22.545,22.545v206.507
	c0,16.752,6.578,32.446,18.524,44.193c0.56,0.551,1.131,1.091,1.707,1.618H71.708z M495.832,449.134
	c0,25.331-20.198,46.276-45.025,46.69c-12.423,0.203-24.08-4.459-32.905-13.14c-8.829-8.681-13.691-20.283-13.691-32.663v-13.474
	h26.729c14.98,0,27.166-12.187,27.166-27.166V264.084h20.257c9.633,0,17.469,7.837,17.469,17.471V449.134z"/>
</svg>