<?xml version="1.0" encoding="iso-8859-1"?>
<!-- Uploaded to: SVG Repo, www.svgrepo.com, Generator: SVG Repo Mixer Tools -->
<svg height="800px" width="800px" version="1.1" id="Layer_1" xmlns="http://www.w3.org/2000/svg" xmlns:xlink="http://www.w3.org/1999/xlink" 
	 viewBox="0 0 512 512" xml:space="preserve">
<path style="fill:#6B563C;" d="M450.099,63.596h-22.174H84.076H61.901c-12.141,0-22.019,9.878-22.019,22.018l0.539,129.426h431.158
	l0.539-129.426C472.118,73.474,462.24,63.596,450.099,63.596z"/>
<path style="fill:#ECE5DD;" d="M82.998,194.021V30.808c0-11.638,9.468-21.107,21.107-21.107h303.79
	c11.639,0,21.107,9.469,21.107,21.107v163.213H82.998z"/>
<path style="fill:#D9CBBD;" d="M407.895,9.701h-32.876c11.639,0,21.107,9.469,21.107,21.107v163.213h32.876V30.808
	C429.002,19.17,419.534,9.701,407.895,9.701z"/>
<g>
	<path style="fill:#BABABA;" d="M126.653,72.219h107.789c4.466,0,8.084-3.62,8.084-8.084s-3.618-8.084-8.084-8.084H126.653
		c-4.466,0-8.084,3.62-8.084,8.084S122.187,72.219,126.653,72.219z"/>
	<path style="fill:#BABABA;" d="M277.558,72.219h21.558c4.466,0,8.084-3.62,8.084-8.084s-3.618-8.084-8.084-8.084h-21.558
		c-4.466,0-8.084,3.62-8.084,8.084S273.092,72.219,277.558,72.219z"/>
	<path style="fill:#BABABA;" d="M342.232,72.219h43.116c4.466,0,8.084-3.62,8.084-8.084s-3.618-8.084-8.084-8.084h-43.116
		c-4.466,0-8.084,3.62-8.084,8.084S337.766,72.219,342.232,72.219z"/>
	<path style="fill:#BABABA;" d="M126.653,115.335h172.463c4.466,0,8.084-3.62,8.084-8.084s-3.618-8.084-8.084-8.084H126.653
		c-4.466,0-8.084,3.62-8.084,8.084S122.187,115.335,126.653,115.335z"/>
	<path style="fill:#BABABA;" d="M342.232,115.335h43.116c4.466,0,8.084-3.62,8.084-8.084s-3.618-8.084-8.084-8.084h-43.116
		c-4.466,0-8.084,3.62-8.084,8.084S337.766,115.335,342.232,115.335z"/>
	<path style="fill:#BABABA;" d="M126.653,158.451h43.116c4.466,0,8.084-3.62,8.084-8.084c0-4.465-3.618-8.084-8.084-8.084h-43.116
		c-4.466,0-8.084,3.62-8.084,8.084C118.568,154.831,122.187,158.451,126.653,158.451z"/>
	<path style="fill:#BABABA;" d="M299.116,142.282h-86.232c-4.466,0-8.084,3.62-8.084,8.084c0,4.465,3.618,8.084,8.084,8.084h86.232
		c4.466,0,8.084-3.62,8.084-8.084C307.2,145.902,303.582,142.282,299.116,142.282z"/>
	<path style="fill:#BABABA;" d="M385.347,142.282h-21.558c-4.466,0-8.084,3.62-8.084,8.084c0,4.465,3.618,8.084,8.084,8.084h21.558
		c4.466,0,8.084-3.62,8.084-8.084C393.432,145.902,389.813,142.282,385.347,142.282z"/>
</g>
<path style="fill:#957755;" d="M39.343,489.911l0.895-318.859l42.887,21.891h344.672l43.965-21.891l-0.183,318.859
	c0,8.925-7.236,16.161-16.161,16.161H55.504C46.579,506.072,39.343,498.836,39.343,489.911z"/>
<path style="fill:#FE5022;" d="M256,312.589c-18.127,0-32.876-14.748-32.876-32.876c0-18.128,14.749-32.876,32.876-32.876
	s32.876,14.748,32.876,32.876C288.876,297.842,274.127,312.589,256,312.589z"/>
<g>
	<path style="fill:#806749;" d="M264.084,433.921v-45.001c0-4.427-3.412-8.287-7.836-8.419c-4.579-0.137-8.332,3.533-8.332,8.081
		v45.339H264.084z"/>
	<path style="fill:#806749;" d="M438.703,506.072h16.715c8.925,0,16.161-7.236,16.161-16.161l0.183-318.859l-33.059,16.438V506.072z
		"/>
</g>
<path style="fill:#6B563C;" d="M55.504,506.072h399.914c5.404,0,10.174-2.661,13.108-6.735l-35.32-64.881l-1.45-1.112
	c-2.78-2.134-6.111-3.263-9.629-3.263H89.872c-3.518,0-6.849,1.129-9.629,3.263l-1.449,1.112l-35.775,65.715
	C45.983,503.773,50.475,506.072,55.504,506.072z"/>
<path style="fill:#957755;" d="M257.825,265.851c-7.377-1.209-13.664,5.078-12.454,12.455c0.733,4.468,4.336,8.07,8.803,8.803
	c7.377,1.21,13.664-5.078,12.454-12.455C265.896,270.186,262.293,266.584,257.825,265.851z"/>
<path d="M450.099,53.895h-13.551V28.653C436.547,12.854,423.693,0,407.895,0h-303.79C88.307,0,75.453,12.854,75.453,28.653v25.242
	H61.901c-16.302,0-29.564,13.262-29.564,29.563v420.458c0,4.465,3.618,8.084,8.084,8.084h431.158c4.466,0,8.084-3.62,8.084-8.084
	V83.458C479.663,67.157,466.401,53.895,450.099,53.895z M48.505,83.458c0-7.386,6.009-13.395,13.396-13.395h13.551v108.183
	l-26.947-13.474V83.458z M54.026,495.832l31.468-57.804c1.25-0.96,2.774-1.48,4.378-1.48h332.257c1.603,0,3.127,0.52,4.378,1.48
	l31.466,57.804H54.026z M463.495,472.158l-23.352-42.897c-0.399-0.732-0.875-1.425-1.465-2.016
	c-4.418-4.428-10.297-6.866-16.55-6.866H264.084v-34.693c0-4.427-3.412-8.287-7.836-8.419c-4.578-0.137-8.332,3.533-8.332,8.081
	v35.032H89.872c-6.254,0-12.132,2.439-16.55,6.866c-0.589,0.591-1.066,1.283-1.465,2.016l-23.352,42.897V182.849l31.416,15.708
	c1.123,0.562,2.361,0.854,3.616,0.854h164.378v38.54c-18.428,3.755-32.337,20.087-32.337,39.607
	c0,19.521,13.909,35.852,32.337,39.607v3.169c0,4.427,3.412,8.287,7.836,8.419c4.578,0.137,8.332-3.533,8.332-8.081v-3.509
	c18.428-3.755,32.337-20.087,32.337-39.607s-13.909-35.852-32.337-39.607v-38.539h56.202c4.465,0,8.084-3.62,8.084-8.084l0,0
	c0-4.465-3.62-8.084-8.084-8.084H91.621V28.653c0-6.895,5.589-12.484,12.484-12.484h303.79c6.895,0,12.484,5.589,12.484,12.484
	v154.589h-64.447c-4.465,0-8.084,3.62-8.084,8.084l0,0c0,4.465,3.62,8.084,8.084,8.084h72.532c1.256,0,2.493-0.292,3.616-0.854
	l31.415-15.708V472.158z M256,253.305c13.372,0,24.253,10.879,24.253,24.253c0,13.373-10.88,24.253-24.253,24.253
	s-24.253-10.879-24.253-24.253C231.747,264.184,242.628,253.305,256,253.305z M463.495,164.772l-26.947,13.474V70.063h13.551
	c7.387,0,13.396,6.009,13.396,13.395V164.772z"/>
<circle cx="256" cy="276.48" r="10.779"/>
<path d="M450.099,53.895h-13.551V28.653C436.547,12.854,423.693,0,407.895,0h-303.79C88.307,0,75.453,12.854,75.453,28.653v25.242
	H61.901c-16.302,0-29.564,13.262-29.564,29.563v420.458c0,4.465,3.618,8.084,8.084,8.084h431.158c4.466,0,8.084-3.62,8.084-8.084
	V83.458C479.663,67.157,466.401,53.895,450.099,53.895z M48.505,83.458c0-7.386,6.009-13.395,13.396-13.395h13.551v108.183
	l-26.947-13.474V83.458z M54.026,495.832l31.468-57.804c1.25-0.96,2.774-1.48,4.378-1.48h332.257c1.603,0,3.127,0.52,4.378,1.48
	l31.466,57.804H54.026z M463.495,472.158l-23.352-42.897c-0.399-0.732-0.875-1.425-1.465-2.016
	c-4.418-4.428-10.297-6.866-16.55-6.866H264.084v-34.693c0-4.427-3.412-8.287-7.836-8.419c-4.578-0.137-8.332,3.533-8.332,8.081
	v35.032H89.872c-6.254,0-12.132,2.439-16.55,6.866c-0.589,0.591-1.066,1.283-1.465,2.016l-23.352,42.897V182.849l31.416,15.708
	c1.123,0.562,2.361,0.854,3.616,0.854h164.378v38.54c-18.428,3.755-32.337,20.087-32.337,39.607
	c0,19.521,13.909,35.852,32.337,39.607v3.169c0,4.427,3.412,8.287,7.836,8.419c4.578,0.137,8.332-3.533,8.332-8.081v-3.509
	c18.428-3.755,32.337-20.087,32.337-39.607s-13.909-35.852-32.337-39.607v-38.539h56.202c4.465,0,8.084-3.62,8.084-8.084l0,0
	c0-4.465-3.62-8.084-8.084-8.084H91.621V28.653c0-6.895,5.589-12.484,12.484-12.484h303.79c6.895,0,12.484,5.589,12.484,12.484
	v154.589h-64.447c-4.465,0-8.084,3.62-8.084,8.084l0,0c0,4.465,3.62,8.084,8.084,8.084h72.532c1.256,0,2.493-0.292,3.616-0.854
	l31.415-15.708V472.158z M256,253.305c13.372,0,24.253,10.879,24.253,24.253c0,13.373-10.88,24.253-24.253,24.253
	s-24.253-10.879-24.253-24.253C231.747,264.184,242.628,253.305,256,253.305z M463.495,164.772l-26.947,13.474V70.063h13.551
	c7.387,0,13.396,6.009,13.396,13.395V164.772z"/>
</svg>