<?xml version="1.0" encoding="iso-8859-1"?>
<!-- Uploaded to: SVG Repo, www.svgrepo.com, Generator: SVG Repo Mixer Tools -->
<svg height="800px" width="800px" version="1.1" id="Layer_1" xmlns="http://www.w3.org/2000/svg" xmlns:xlink="http://www.w3.org/1999/xlink" 
	 viewBox="0 0 512 512" xml:space="preserve">
<path style="fill:#FBC176;" d="M0,167.724v264.828c0,15.007,11.476,26.483,26.483,26.483h459.034
	c15.007,0,26.483-11.476,26.483-26.483V167.724c0-15.007-11.476-26.483-26.483-26.483H26.483C11.476,141.241,0,153.6,0,167.724"/>
<path style="fill:#C39A6E;" d="M467.862,141.241c0-19.421-15.89-35.31-35.31-35.31H291.31l-44.138-52.966H52.966
	c-15.007,0-26.483,12.359-26.483,26.483v61.793H467.862z"/>
<g>
	<path style="fill:#FFFFFF;" d="M158.897,203.034H52.966c-5.297,0-8.828-3.531-8.828-8.828s3.531-8.828,8.828-8.828h105.931
		c5.297,0,8.828,3.531,8.828,8.828S164.193,203.034,158.897,203.034"/>
	<path style="fill:#FFFFFF;" d="M158.897,238.345H52.966c-5.297,0-8.828-3.531-8.828-8.828s3.531-8.828,8.828-8.828h105.931
		c5.297,0,8.828,3.531,8.828,8.828S164.193,238.345,158.897,238.345"/>
</g>
</svg>