<?xml version="1.0" encoding="iso-8859-1"?>
<!-- Uploaded to: SVG Repo, www.svgrepo.com, Generator: SVG Repo Mixer Tools -->
<svg height="800px" width="800px" version="1.1" id="Layer_1" xmlns="http://www.w3.org/2000/svg" xmlns:xlink="http://www.w3.org/1999/xlink" 
	 viewBox="0 0 511.882 511.882" xml:space="preserve">
<path style="fill:#E9573F;" d="M458.554,501.228c0,5.874-4.749,10.654-10.654,10.654H63.997c-5.89,0-10.669-4.78-10.669-10.654
	V10.67C53.328,4.78,58.107,0,63.997,0H447.9c5.905,0,10.654,4.78,10.654,10.67V501.228z"/>
<path style="fill:#FC6E51;" d="M94.974,107.085c7.889,5.444,23.229,10.225,32.82,10.225h256.309c9.592,0,24.932-4.78,32.836-10.225
	l41.615-28.744V10.67C458.554,4.78,453.805,0,447.9,0H63.997c-5.89,0-10.669,4.78-10.669,10.67v67.671L94.974,107.085z"/>
<polygon style="fill:#E6E9ED;" points="266.606,469.236 309.276,398.128 351.922,469.236 "/>
<polygon style="fill:#F5F7FA;" points="302.153,469.236 359.046,369.696 415.908,469.236 "/>
<g>
	<path style="fill:#434A54;" d="M138.636,426.574h-31.993c-5.89,0-10.653-4.765-10.653-10.67c0-5.889,4.764-10.653,10.653-10.653
		h31.993c5.889,0,10.669,4.765,10.669,10.653C149.305,421.809,144.525,426.574,138.636,426.574z"/>
	<path style="fill:#434A54;" d="M202.621,469.236h-95.978c-5.89,0-10.653-4.78-10.653-10.67c0-5.889,4.764-10.669,10.653-10.669
		h95.978c5.89,0,10.67,4.78,10.67,10.669C213.291,464.456,208.51,469.236,202.621,469.236z"/>
</g>
<polygon style="fill:#FFCE54;" points="286.281,84.808 225.6,84.816 241.393,127.97 225.6,171.14 286.281,171.132 270.511,127.97 
	"/>
<g>
	<path style="fill:#434A54;" d="M287.937,181.294c0,17.668-14.309,31.993-31.984,31.993c-17.668,0-31.993-14.325-31.993-31.993
		c0-17.667,14.325-31.993,31.993-31.993C273.629,149.301,287.937,163.627,287.937,181.294z"/>
	<path style="fill:#434A54;" d="M223.96,74.655c0-17.668,14.325-31.993,31.993-31.993c17.676,0,31.984,14.325,31.984,31.993
		c0,17.667-14.309,31.992-31.984,31.992C238.285,106.647,223.96,92.322,223.96,74.655z"/>
</g>
<g>
	<path style="fill:#656D78;" d="M266.606,74.655c0,5.889-4.765,10.661-10.653,10.661c-5.89,0-10.67-4.772-10.67-10.661
		c0-5.89,4.78-10.67,10.67-10.67C261.841,63.985,266.606,68.765,266.606,74.655z"/>
	<path style="fill:#656D78;" d="M266.606,181.81c0,5.889-4.765,10.662-10.653,10.662c-5.89,0-10.67-4.772-10.67-10.662
		s4.78-10.669,10.67-10.669C261.841,171.14,266.606,175.92,266.606,181.81z"/>
</g>
</svg>