<?xml version="1.0" encoding="utf-8"?>
<!-- Uploaded to: SVG Repo, www.svgrepo.com, Generator: SVG Repo Mixer Tools -->
<svg width="800px" height="800px" viewBox="-5.76 0 138.145 138.145" xmlns="http://www.w3.org/2000/svg">
  <g id="oreo_biscuit" data-name="oreo biscuit" transform="translate(-590.519 469.1)">
    <path id="path144" d="M715.172-395.306a60.528,60.528,0,0,1-60.527,60.528,60.529,60.529,0,0,1-60.528-60.528,60.529,60.529,0,0,1,60.528-60.532,60.528,60.528,0,0,1,60.527,60.532" fill="#e9ecef"/>
    <path id="path146" d="M714.362-406.682a60.528,60.528,0,0,1-60.527,60.529,60.528,60.528,0,0,1-60.528-60.529,60.529,60.529,0,0,1,60.528-60.53,60.529,60.529,0,0,1,60.527,60.53" fill="#7a383f"/>
    <path id="path148" d="M672.722-410.819c-.269-1.216-7.373-5.128-7.373-5.128L651.98-417.3l-14.2,4.452-3.912,9.941,6.071,5.3,12.04,2.293,16.7-2.428,4.047-6.88a46.681,46.681,0,0,0,0-6.205" fill="#92444d"/>
    <path id="path150" d="M618.895-426.212l-4.723,10.131,11.173,3.1,1.509-9.579-7.96-3.656" fill="#92444d"/>
    <path id="path152" d="M645.942-433.484h-11.2v-9.376h11.2v9.376" fill="#92444d"/>
    <path id="path154" d="M671.642-432.744H662.4v-10.791h9.24v10.791" fill="#92444d"/>
    <path id="path156" d="M690.328-414.53H679.8v-9.984h10.524v9.984" fill="#92444d"/>
    <path id="path158" d="M691.609-387.65H681.086v-9.984h10.523v9.984" fill="#92444d"/>
    <path id="path160" d="M672.234-369.42H661.71V-379.4h10.524v9.983" fill="#92444d"/>
    <path id="path162" d="M645.47-369.075H634.948v-9.983H645.47v9.983" fill="#92444d"/>
    <path id="path164" d="M627.385-388.223H616.861v-9.984h10.524v9.984" fill="#92444d"/>
    <path id="path166" d="M694.538-353.57a57.512,57.512,0,0,1-18.3,12.341,57.273,57.273,0,0,1-22.4,4.519,57.234,57.234,0,0,1-22.4-4.519,57.474,57.474,0,0,1-18.3-12.341,57.42,57.42,0,0,1-11.427-16.268,63.238,63.238,0,0,0,52.13,27.373,63.256,63.256,0,0,0,52.129-27.369A57.345,57.345,0,0,1,694.538-353.57ZM602.6-432.043l4.932,2.849h0a2.871,2.871,0,0,0,3.929-1.053,2.871,2.871,0,0,0-1.049-3.929l-4.933-2.851a57.088,57.088,0,0,1,5.671-7.368l4.023,4.017a2.871,2.871,0,0,0,4.068,0,2.874,2.874,0,0,0,0-4.069l-4.017-4.021a57.08,57.08,0,0,1,7.368-5.669l2.851,4.932a2.872,2.872,0,0,0,3.929,1.051,2.872,2.872,0,0,0,1.053-3.929l-2.848-4.933q1.89-.974,3.856-1.8c1.56-.659,3.141-1.24,4.743-1.759l1.476,5.5a2.882,2.882,0,0,0,3.524,2.041,2.879,2.879,0,0,0,2.032-3.529l-1.475-5.5a57.332,57.332,0,0,1,9.224-1.205v5.688a2.882,2.882,0,0,0,2.884,2.88,2.88,2.88,0,0,0,2.875-2.88v-5.688a57.31,57.31,0,0,1,9.225,1.205l-1.476,5.5h0v0a2.876,2.876,0,0,0,2.036,3.525,2.882,2.882,0,0,0,3.525-2.041s0,0,0-.008l1.472-5.493c1.6.519,3.183,1.1,4.74,1.759q1.964.834,3.856,1.8l-2.849,4.933h0a2.879,2.879,0,0,0,1.053,3.929,2.869,2.869,0,0,0,3.929-1.051l.005,0,2.845-4.928a57.737,57.737,0,0,1,7.373,5.669l-4.019,4.021h0a2.875,2.875,0,0,0,0,4.069,2.872,2.872,0,0,0,4.069,0l0,0,4.013-4.013a56.968,56.968,0,0,1,5.671,7.368l-4.929,2.851h0a2.873,2.873,0,0,0-1.053,3.929,2.87,2.87,0,0,0,3.928,1.053h.009l4.924-2.849q.974,1.89,1.8,3.857.988,2.338,1.763,4.744l-5.505,1.473h0a2.882,2.882,0,0,0-2.036,3.527,2.876,2.876,0,0,0,3.529,2.031h0l5.5-1.476a57.382,57.382,0,0,1,1.205,9.225h-5.688a2.881,2.881,0,0,0-2.88,2.879,2.883,2.883,0,0,0,2.884,2.88h5.684a57.32,57.32,0,0,1-1.205,9.224l-5.5-1.475h0a2.873,2.873,0,0,0-3.524,2.035,2.882,2.882,0,0,0,2.036,3.527h0l5.505,1.471c-.517,1.6-1.1,3.188-1.763,4.748q-.834,1.958-1.8,3.851l-4.939-2.848h0a2.877,2.877,0,0,0-3.928,1.055,2.872,2.872,0,0,0,1.053,3.928h0l4.929,2.851a57.068,57.068,0,0,1-5.671,7.369l-4.017-4.015h0a2.875,2.875,0,0,0-4.069,0,2.875,2.875,0,0,0,0,4.069h0l4.019,4.017a57.515,57.515,0,0,1-7.373,5.671l-2.851-4.929h0a2.872,2.872,0,0,0-3.929-1.053,2.878,2.878,0,0,0-1.053,3.929h0l2.849,4.933q-1.89.972-3.856,1.8c-1.557.659-3.143,1.244-4.74,1.763l-1.475-5.505h0a2.883,2.883,0,0,0-3.525-2.037A2.874,2.874,0,0,0,664.464-355v0l1.476,5.5a57.014,57.014,0,0,1-9.225,1.205v-5.687a2.88,2.88,0,0,0-2.875-2.88,2.882,2.882,0,0,0-2.884,2.88v5.687a57.032,57.032,0,0,1-9.224-1.205l1.475-5.5v0a2.867,2.867,0,0,0-2.032-3.52,2.874,2.874,0,0,0-3.524,2.032h0l-1.476,5.505q-2.4-.778-4.743-1.763-1.966-.834-3.856-1.8l2.848-4.932v0a2.871,2.871,0,0,0-1.053-3.929,2.876,2.876,0,0,0-3.929,1.053h0l-2.851,4.933a57.478,57.478,0,0,1-7.368-5.675l4.017-4.017h0a2.874,2.874,0,0,0,0-4.069,2.87,2.87,0,0,0-4.068,0h0l-4.023,4.017a57.4,57.4,0,0,1-5.671-7.372l4.929-2.851h0a2.87,2.87,0,0,0,1.049-3.928,2.877,2.877,0,0,0-3.929-1.055h0l-4.932,2.848q-.974-1.89-1.8-3.851c-.659-1.56-1.24-3.147-1.759-4.744l5.5-1.475h0a2.883,2.883,0,0,0,2.041-3.527,2.879,2.879,0,0,0-3.529-2.035h0l-5.5,1.475a57.131,57.131,0,0,1-1.205-9.224h5.691a2.881,2.881,0,0,0,2.876-2.88,2.88,2.88,0,0,0-2.876-2.879h-5.691a57.224,57.224,0,0,1,1.205-9.225l5.5,1.476h.008a2.876,2.876,0,0,0,3.525-2.031,2.88,2.88,0,0,0-2.041-3.527h0l-5.5-1.473c.519-1.6,1.1-3.185,1.759-4.744q.834-1.966,1.8-3.857Zm114.553,26.26A63.317,63.317,0,0,0,653.836-469.1a63.315,63.315,0,0,0-63.317,63.317c0,1.944.091,3.868.26,5.763-.169,1.893-.26,3.813-.26,5.752a63.314,63.314,0,0,0,63.317,63.313,63.316,63.316,0,0,0,63.317-63.313c0-1.939-.092-3.853-.26-5.743q.258-2.854.26-5.772" fill="#100f0d"/>
    <path id="path168" d="M640.7-411.082a25.373,25.373,0,0,1,13.137-3.333,25.35,25.35,0,0,1,13.129,3.333c2.555,1.6,4.016,3.533,4.016,5.3s-1.461,3.7-4.016,5.3a25.338,25.338,0,0,1-13.129,3.336,25.361,25.361,0,0,1-13.137-3.336c-2.551-1.6-4.012-3.533-4.012-5.3S638.152-409.479,640.7-411.082Zm-9.772,5.3c0,7.948,10.253,14.389,22.909,14.389s22.9-6.441,22.9-14.389-10.253-14.388-22.9-14.388-22.909,6.441-22.909,14.388" fill="#100f0d"/>
    <path id="path170" d="M645.2-402.9H662.47a2.874,2.874,0,0,0,2.035-.844,2.883,2.883,0,0,0,0-4.072,2.878,2.878,0,0,0-2.035-.843H645.2a2.884,2.884,0,0,0-2.036.843,2.885,2.885,0,0,0,0,4.072,2.88,2.88,0,0,0,2.036.844" fill="#100f0d"/>
    <path id="path172" d="M651.8-387.379a2.878,2.878,0,0,0,0,4.068,2.88,2.88,0,0,0,4.072,0,2.88,2.88,0,0,0,0-4.068,2.875,2.875,0,0,0-4.072,0" fill="#100f0d"/>
    <path id="path174" d="M655.872-424.176a2.885,2.885,0,0,0,0-4.072,2.885,2.885,0,0,0-4.072,0,2.883,2.883,0,0,0,0,4.072,2.885,2.885,0,0,0,4.072,0" fill="#100f0d"/>
    <path id="path176" d="M655.872-444.04a2.882,2.882,0,0,0,0-4.069,2.875,2.875,0,0,0-4.072,0,2.879,2.879,0,0,0,0,4.069,2.878,2.878,0,0,0,4.072,0" fill="#100f0d"/>
    <path id="path178" d="M651.8-367.523a2.878,2.878,0,0,0,0,4.068,2.878,2.878,0,0,0,4.072,0,2.88,2.88,0,0,0,0-4.068,2.878,2.878,0,0,0-4.072,0" fill="#100f0d"/>
    <path id="path180" d="M625.345-431.394a2.88,2.88,0,0,0,2.879-2.879,2.88,2.88,0,0,0-2.879-2.88,2.879,2.879,0,0,0-2.879,2.88,2.879,2.879,0,0,0,2.879,2.879" fill="#100f0d"/>
    <path id="path182" d="M682.326-380.171a2.881,2.881,0,0,0-2.879,2.883,2.879,2.879,0,0,0,2.879,2.876,2.879,2.879,0,0,0,2.879-2.876,2.881,2.881,0,0,0-2.879-2.883" fill="#100f0d"/>
    <path id="path184" d="M615.577-403.747a2.88,2.88,0,0,0,0-4.072,2.884,2.884,0,0,0-4.069,0,2.878,2.878,0,0,0,0,4.072,2.879,2.879,0,0,0,4.069,0" fill="#100f0d"/>
    <path id="path186" d="M692.094-407.819a2.878,2.878,0,0,0,0,4.072,2.878,2.878,0,0,0,4.068,0,2.875,2.875,0,0,0,0-4.072,2.883,2.883,0,0,0-4.068,0" fill="#100f0d"/>
    <path id="path188" d="M625.345-380.171a2.88,2.88,0,0,0-2.879,2.883,2.878,2.878,0,0,0,2.879,2.876,2.879,2.879,0,0,0,2.879-2.876,2.881,2.881,0,0,0-2.879-2.883" fill="#100f0d"/>
    <path id="path190" d="M682.326-431.394a2.88,2.88,0,0,0,2.879-2.879,2.88,2.88,0,0,0-2.879-2.88,2.88,2.88,0,0,0-2.879,2.88,2.88,2.88,0,0,0,2.879,2.879" fill="#100f0d"/>
    <path id="path192" d="M683.992-396.4l5.32,2.2-2.2,5.32-5.32-2.2Zm-9.721,8.432,15.952,6.608,6.611-15.953-15.953-6.607-6.609,15.952" fill="#100f0d"/>
    <path id="path194" d="M642.258-370.306l-5.316-2.2,2.2-5.32,5.321,2.2Zm-6.232-15.043L629.421-369.4l15.953,6.609,6.605-15.952-15.953-6.611" fill="#100f0d"/>
    <path id="path196" d="M665.416-441.254l5.317,2.2-2.205,5.311-5.312-2.2Zm6.232,15.037,6.605-15.953L662.3-448.775l-6.607,15.952,15.953,6.607" fill="#100f0d"/>
    <path id="path198" d="M665.416-370.306l-2.2-5.321,5.312-2.2,2.209,5.32Zm-9.721-8.432,6.607,15.952,15.952-6.609-6.605-15.953-15.953,6.611" fill="#100f0d"/>
    <path id="path200" d="M642.258-441.254l2.205,5.315-5.321,2.2-2.2-5.311Zm9.721,8.431-6.605-15.952-15.953,6.605,6.605,15.953,15.953-6.607" fill="#100f0d"/>
    <path id="path202" d="M623.68-415.154l-5.32-2.205,2.2-5.317,5.316,2.2Zm9.721-8.436L617.448-430.2l-6.605,15.952,15.952,6.607L633.4-423.59" fill="#100f0d"/>
    <path id="path204" d="M687.112-422.676l2.2,5.317-5.32,2.205-2.2-5.321Zm-6.232,15.039,15.953-6.607L690.222-430.2,674.27-423.59l6.609,15.952" fill="#100f0d"/>
    <path id="path206" d="M620.568-388.884l-2.205-5.317,5.317-2.2,2.2,5.313Zm6.227-15.039-15.952,6.607,6.605,15.953,15.953-6.608-6.607-15.952" fill="#100f0d"/>
  </g>
</svg>