<?xml version="1.0" encoding="iso-8859-1"?>
<!-- Uploaded to: SVG Repo, www.svgrepo.com, Generator: SVG Repo Mixer Tools -->
<!DOCTYPE svg PUBLIC "-//W3C//DTD SVG 1.1//EN" "http://www.w3.org/Graphics/SVG/1.1/DTD/svg11.dtd">
<svg fill="#000000" version="1.1" id="Capa_1" xmlns="http://www.w3.org/2000/svg" xmlns:xlink="http://www.w3.org/1999/xlink" 
	 width="800px" height="800px" viewBox="0 0 123.941 123.941"
	 xml:space="preserve">
<g>
	<g>
		<path d="M62.938,14.356c0.758,6.359,6.161,11.294,12.723,11.294c7.083,0,12.827-5.743,12.827-12.826S82.744,0,75.661,0
			C69.009,0,63.54,5.068,62.902,11.552c0.056,0.522,0.091,1.053,0.091,1.591C62.992,13.552,62.971,13.955,62.938,14.356z"/>
		<path d="M90.709,33.332c-0.272,1.096-0.817,2.202-1.714,3.252c-2.938,3.454-11.688,7.025-21.244,7.025
			c-1.483,0-2.977-0.092-4.458-0.272v22.832c0,0.897-0.108,1.782-0.308,2.649c0.08,0.26,0.167,0.518,0.267,0.769
			c-0.037,0.26-0.061,0.521-0.061,0.79l0.004,47.678c0,3.25,2.635,5.884,5.885,5.883c3.251,0,5.884-2.635,5.884-5.884l-0.002-40.917
			c0.233,0.012,0.465,0.029,0.701,0.029c0.045,0,0.091-0.004,0.138-0.006l-0.002,40.895c0,3.25,2.633,5.884,5.885,5.884
			c3.249,0,5.885-2.634,5.885-5.884V71.195c0.36,0.393,0.788,0.734,1.282,1.004c0.756,0.41,1.57,0.606,2.373,0.606
			c1.767,0,3.478-0.94,4.379-2.601C106.088,50.928,98.069,39.496,90.709,33.332z M88.788,61.385V46.107
			C90.956,49.886,91.486,54.74,88.788,61.385z"/>
		<path d="M72.565,26.358c-0.012,0.002-0.021,0.003-0.032,0.005c-2.433,0.581-4.792,1.83-6.611,3.588
			c0.587,0.043,1.18,0.072,1.787,0.072c4.474,0,8.484-1.192,10.438-2.122c0.295-0.513,0.662-0.98,1.079-1.401
			c-0.123-0.033-0.246-0.077-0.369-0.108c0,0-1.887-0.278-3.177-0.288C74.393,26.095,72.565,26.358,72.565,26.358z"/>
		<path d="M88.185,35.092c2.134-2.505,1.721-5.403,0.365-7.164c-1.679-2.18-4.805-2.587-6.982-0.91
			c-0.678,0.521-1.185,1.182-1.509,1.91c-3.228,1.785-13.693,4.734-22.217,0.13c-0.166-0.089-0.333-0.166-0.504-0.235
			c-1.577-1.167-3.409-2.012-5.283-2.459c-0.011-0.002-0.021-0.003-0.032-0.005c0,0-1.618-0.26-3.074-0.255
			c-1.458,0.004-3.217,0.29-3.217,0.29c-1.603,0.394-3.176,1.072-4.582,1.995c-0.173,0.08-0.348,0.146-0.513,0.248
			c-6.298,3.861-25.459,15.614-11.411,41.436c0.901,1.658,2.613,2.601,4.378,2.601c0.803,0,1.621-0.196,2.376-0.606
			c0.387-0.212,0.73-0.472,1.038-0.761l-0.026,29.681l-11.021,7.209c-2.72,1.778-3.481,5.426-1.703,8.145
			c1.13,1.727,3.012,2.664,4.931,2.664c1.105,0,2.222-0.311,3.215-0.96l4.566-2.986l-0.002,2.994
			c-0.002,3.25,2.628,5.886,5.878,5.89c0.002,0,0.004,0,0.006,0c3.248,0,5.883-2.631,5.885-5.879l0.009-10.708l9.951-6.51
			c1.661-1.086,2.663-2.935,2.663-4.918l0.026-25.541c0-0.269-0.024-0.533-0.059-0.794c0.456-1.148,0.716-2.398,0.716-3.738V40.912
			c2.109,0.385,4.216,0.568,6.27,0.568C77.54,41.479,85.682,38.033,88.185,35.092z M35.799,60.636
			c-2.328-6.087-1.901-10.641,0-14.236V60.636z M49.603,92.732l-0.837,0.549l0.016-16.121c0.047,0,0.095,0.004,0.143,0.004
			c0.233,0,0.463-0.018,0.694-0.028L49.603,92.732z"/>
		<circle cx="48.926" cy="12.825" r="12.825"/>
	</g>
</g>
</svg>