<?xml version="1.0" encoding="iso-8859-1"?>

<!DOCTYPE svg PUBLIC "-//W3C//DTD SVG 1.1//EN" "http://www.w3.org/Graphics/SVG/1.1/DTD/svg11.dtd">
<!-- Uploaded to: SVG Repo, www.svgrepo.com, Generator: SVG Repo Mixer Tools -->
<svg version="1.1" id="_x36_" xmlns="http://www.w3.org/2000/svg" xmlns:xlink="http://www.w3.org/1999/xlink" 
	 viewBox="0 0 512 512"  xml:space="preserve">
<g>
	<g>
		<path style="fill:#484747;" d="M483.073,329.244c-13.43,4.556-27.783,1.961-38.608-5.978l-18.691-24.939l-63.588-84.906H148.796
			l-58.264,77.786l-24.742,33.024v0.01c-10.741,7.223-24.576,9.403-37.538,4.888c12.351-3.892,22.843-12.174,28.271-23.652
			l92.274-123.191h213.389l92.274,123.191C459.929,317.06,470.577,325.384,483.073,329.244z"/>
		<path style="fill:#484747;" d="M191.124,137.426c-0.268,0.736-0.536,1.539-0.87,2.276l-4.15,6.292l-6.962,10.576l-2.142,3.213
			l-14.66,22.357l-0.067,0.134l-6.962,10.576l-14.593,22.29l-48.598,73.901l-1.406,2.142c0,0-18.074,28.583-24.767,33.068
			c-4.418,2.945-9.305,5.087-14.459,6.159l-9.171,1.071c-4.351,0-8.702-0.669-12.986-2.008c0,0-0.067,0-0.067-0.067
			c-0.268-0.067-0.602-0.134-0.87-0.268h-0.067c-0.737-0.268-1.473-0.603-2.209-0.87c-11.915-4.953-20.416-14.66-24.031-26.039
			c-3.012-9.238-2.878-19.613,1.138-29.319L33.349,96.861l1.405-8.167c5.556-24.834,22.425-45.451,44.983-56.028
			c10.576-4.953,22.291-7.765,34.741-7.765c2.811,0,5.623,0.134,8.367,0.402c0.335,0.067,0.736,0.067,1.071,0.134
			c7.23,0.87,14.459,2.811,21.488,5.69c1.339,0.536,2.611,1.138,3.882,1.74c19.948,9.505,34.54,26.106,41.903,45.451
			c0.067,0.134,0.134,0.335,0.201,0.536C198.219,97.128,198.621,117.88,191.124,137.426z"/>
		<path style="fill:#484747;" d="M485.879,328.248c-0.872,0.363-1.754,0.695-2.636,0.996c-13.43,4.556-27.783,1.961-38.608-5.978
			c-6.051-4.421-18.691-24.939-18.691-24.939l-76.239-116.041l-16.886-25.697l-6.954-10.586l-4.151-6.31
			c-8.386-20.217-8.199-41.835-1.121-60.838c0.062-0.187,0.135-0.374,0.208-0.561c7.836-20.601,23.808-38.058,45.758-47.159
			c7.058-2.916,14.281-4.805,21.514-5.708c0.343-0.042,0.695-0.083,1.048-0.114c2.74-0.28,5.532-0.425,8.354-0.425
			c38.991,0,71.59,27.306,79.748,63.837l1.391,8.126l30.139,176.038C517.72,294.508,507.477,319.302,485.879,328.248z"/>
		<path style="fill:#484747;" d="M149.287,32.666v0.201c0.067,6.761-4.418,12.25-10.643,12.25H90.381
			c-6.292,0-10.844-5.556-10.643-12.451c0-0.602,0-1.138,0.134-1.74l2.812-20.082C83.486,4.753,88.774,0,94.464,0h40.029
			c5.69,0,11.045,4.753,11.848,10.844l2.811,20.082C149.22,31.461,149.287,32.064,149.287,32.666z"/>
		<path style="fill:#484747;" d="M431.568,32.6c0.201,6.894-4.284,12.517-10.644,12.517h-48.263
			c-6.159,0-10.577-5.288-10.577-11.982V32.6c0-0.536,0-1.071,0.134-1.674l2.744-20.082C365.834,4.753,371.122,0,376.812,0h40.029
			c0.803,0,1.607,0.067,2.343,0.268c4.284,1.004,8.033,4.619,9.171,9.171c0.201,0.469,0.268,0.937,0.335,1.406l2.744,20.082
			c0.067,0.468,0.134,0.937,0.067,1.406C431.568,32.466,431.568,32.533,431.568,32.6z"/>
		<path style="fill:#5C5C5C;" d="M478.559,106.634c0,45.117-36.616,81.732-81.732,81.732c-5.556,0-10.978-0.602-16.199-1.607
			c-5.221-1.071-10.309-2.611-15.128-4.619H145.806c-4.017,1.674-8.233,3.012-12.585,4.083c-6.025,1.406-12.25,2.142-18.743,2.142
			c-45.117,0-81.665-36.615-81.665-81.732c0-3.347,0.134-6.56,0.536-9.773l1.405-8.167c5.556-24.834,22.425-45.451,44.983-56.028
			c10.576-4.953,22.291-7.765,34.741-7.765c2.811,0,5.623,0.134,8.367,0.402c0.335,0.067,0.736,0.067,1.071,0.134
			c8.97,1.004,17.471,3.548,25.37,7.229c8.3,3.883,15.931,9.238,22.424,15.597h167.95c6.493-6.426,14.057-11.714,22.424-15.663
			c7.851-3.672,16.439-6.094,25.5-7.088c0.157-0.02,0.315-0.056,0.472-0.074c0.335-0.067,0.736-0.067,1.071-0.134
			c1.138-0.134,2.343-0.268,3.548-0.268c1.138-0.067,2.343-0.134,3.481-0.134h1.339c2.611,0,5.154,0.134,7.698,0.402
			c9.371,1.004,18.207,3.481,26.374,7.297C459.348,45.719,478.559,73.901,478.559,106.634z"/>
		<polygon style="fill:#777778;" points="102.793,89.222 116.06,96.298 129.327,89.222 129.327,67.7 102.793,67.7 		"/>
		<polygon style="fill:#777778;" points="102.793,124.013 116.06,116.936 129.327,124.013 129.327,145.535 102.793,145.535 		"/>
		<polygon style="fill:#777778;" points="133.455,92.466 126.379,105.733 133.455,119 154.978,119 154.978,92.466 		"/>
		<polygon style="fill:#777778;" points="98.665,92.466 105.741,105.733 98.665,119 77.143,119 77.143,92.466 		"/>
		<circle style="fill:#646363;" cx="184.555" cy="188.343" r="51.37"/>
		<path style="fill:#777778;" d="M184.555,217.899c-16.297,0-29.557-13.258-29.557-29.556c0-16.297,13.259-29.556,29.557-29.556
			s29.556,13.259,29.556,29.556C214.11,204.641,200.852,217.899,184.555,217.899z"/>
		<circle style="fill:#646363;" cx="329.326" cy="188.343" r="51.37"/>
		<path style="fill:#777778;" d="M329.326,217.899c-16.297,0-29.556-13.258-29.556-29.556s13.259-29.557,29.556-29.557
			s29.556,13.259,29.556,29.557S345.623,217.899,329.326,217.899z"/>
		<g>
			<path style="fill:#777778;" d="M396.818,88.862c-10.223,0-18.54-8.316-18.54-18.539c0-10.223,8.317-18.54,18.54-18.54
				c10.223,0,18.539,8.317,18.539,18.54C415.358,80.545,407.041,88.862,396.818,88.862z"/>
			<path style="fill:#777778;" d="M396.818,152.43c-10.223,0-18.54-8.317-18.54-18.539c0-10.223,8.317-18.54,18.54-18.54
				c10.223,0,18.539,8.317,18.539,18.54C415.358,144.113,407.041,152.43,396.818,152.43z"/>
			<path style="fill:#777778;" d="M410.063,102.106c0-10.223,8.316-18.54,18.539-18.54c10.223,0,18.54,8.317,18.54,18.54
				c0,10.223-8.317,18.539-18.54,18.539C418.379,120.646,410.063,112.329,410.063,102.106z"/>
			<path style="fill:#777778;" d="M346.495,102.106c0-10.223,8.317-18.54,18.539-18.54c10.223,0,18.54,8.317,18.54,18.54
				c0,10.223-8.317,18.539-18.54,18.539C354.811,120.646,346.495,112.329,346.495,102.106z"/>
		</g>
		<g>
			<rect x="209.189" y="104.182" style="fill:#777778;" width="26.463" height="15.767"/>
			<rect x="245.34" y="145.868" style="fill:#777778;" width="26.464" height="15.767"/>
			<polygon style="fill:#777778;" points="291.074,104.182 272.249,104.182 272.249,119.949 291.074,119.949 302.135,112.533 			"/>
		</g>
		<g>
			<path style="fill:#7AC493;" d="M396.827,55.225l-14.459,24.968h28.851L396.827,55.225z M396.827,60.781l9.572,16.601h-19.211
				L396.827,60.781z"/>
		</g>
		<g>
			<path style="fill:#CE7FB2;" d="M373.131,89.297h-16.199c-2.611,0-4.752,2.075-4.752,4.686v16.266
				c0,2.544,2.142,4.686,4.752,4.686h16.199c2.61,0,4.752-2.142,4.752-4.686V93.982C377.883,91.372,375.741,89.297,373.131,89.297z
				 M375.072,110.249c0,1.071-0.87,1.941-1.941,1.941h-16.199c-1.071,0-1.941-0.87-1.941-1.941V93.982
				c0-1.071,0.87-1.941,1.941-1.941h16.199c1.071,0,1.941,0.87,1.941,1.941V110.249z"/>
		</g>
		<g>
			<path style="fill:#E776AA;" d="M428.623,87.824c-7.899,0-14.325,6.426-14.325,14.258c0,7.899,6.426,14.325,14.325,14.325
				c7.832,0,14.258-6.426,14.258-14.325C442.881,94.25,436.455,87.824,428.623,87.824z M428.623,113.595
				c-6.359,0-11.514-5.154-11.514-11.514c0-6.359,5.154-11.513,11.514-11.513c6.359,0,11.513,5.154,11.513,11.513
				C440.136,108.441,434.982,113.595,428.623,113.595z"/>
		</g>
		<g>
			<g>
				
					<rect x="382.679" y="132.503" transform="matrix(0.7071 0.7071 -0.7071 0.7071 210.9001 -241.3773)" style="fill:#57C0EB;" width="28.278" height="2.775"/>
			</g>
			<g>
				
					<rect x="395.431" y="119.751" transform="matrix(0.7071 0.7071 -0.7071 0.7071 210.9001 -241.3773)" style="fill:#57C0EB;" width="2.775" height="28.278"/>
			</g>
		</g>
		<g>
			<path style="fill:#949394;" d="M234.099,77.984c-0.268-0.602-0.67-1.138-1.272-1.539c-0.469-0.402-1.004-0.67-1.606-0.87
				c-0.603-0.201-1.406-0.402-2.343-0.469l-2.544-0.335c-0.402-0.067-0.803-0.134-1.071-0.268c-0.335-0.134-0.603-0.268-0.803-0.402
				c-0.201-0.201-0.335-0.402-0.469-0.602c-0.067-0.201-0.134-0.402-0.134-0.67c0-0.602,0.268-1.071,0.803-1.539
				c0.536-0.402,1.339-0.602,2.41-0.602c0.669,0,1.405,0.067,2.142,0.201c0.803,0.134,1.472,0.469,2.142,0.937l2.544-2.075
				c-0.87-0.736-1.874-1.272-2.945-1.607c-1.071-0.268-2.343-0.469-3.749-0.469c-1.138,0-2.142,0.134-3.079,0.402
				c-0.87,0.268-1.674,0.669-2.276,1.071c-0.602,0.469-1.071,1.071-1.406,1.674c-0.335,0.67-0.535,1.339-0.535,2.142
				c0,1.473,0.535,2.611,1.472,3.414c0.469,0.402,1.071,0.669,1.673,0.937c0.67,0.201,1.473,0.402,2.41,0.535l2.477,0.268
				c0.535,0.067,0.937,0.201,1.205,0.268c0.201,0.067,0.469,0.201,0.669,0.335c0.402,0.402,0.669,0.87,0.669,1.473
				c0,0.669-0.335,1.205-0.937,1.606c-0.67,0.335-1.54,0.536-2.812,0.536c-0.937,0-1.874-0.067-2.744-0.335
				c-0.803-0.201-1.607-0.535-2.276-1.138l-2.61,2.209c1.004,0.87,2.142,1.472,3.347,1.807c1.272,0.335,2.677,0.468,4.284,0.468
				c1.071,0,2.075-0.067,3.012-0.335c1.004-0.201,1.808-0.535,2.477-1.004c0.737-0.469,1.272-1.004,1.607-1.673
				c0.402-0.67,0.603-1.406,0.603-2.209C234.433,79.323,234.299,78.653,234.099,77.984z"/>
			<path style="fill:#949394;" d="M252.707,72.428c-0.134-0.535-0.335-1.071-0.602-1.539c-0.335-0.469-0.736-0.937-1.272-1.339
				c-0.67-0.602-1.473-1.071-2.41-1.406c-0.87-0.268-1.942-0.469-3.146-0.469c-1.205,0-2.276,0.201-3.146,0.469
				c-0.937,0.335-1.74,0.803-2.41,1.406c-0.535,0.402-0.937,0.87-1.272,1.339c-0.268,0.469-0.468,1.004-0.602,1.539
				c-0.134,0.603-0.201,1.205-0.201,1.874c-0.067,0.669-0.067,1.406-0.067,2.209c0,0.87,0,1.606,0.067,2.276
				c0,0.67,0.067,1.272,0.201,1.874c0.134,0.535,0.335,1.071,0.602,1.539c0.335,0.469,0.737,0.937,1.272,1.339
				c0.67,0.602,1.473,1.071,2.41,1.339c0.87,0.335,1.941,0.468,3.146,0.468c1.205,0,2.276-0.134,3.146-0.468
				c0.937-0.268,1.74-0.737,2.41-1.339c0.536-0.402,0.937-0.87,1.272-1.339c0.268-0.469,0.469-1.004,0.602-1.539
				c0.134-0.603,0.201-1.205,0.268-1.874v-4.485C252.908,73.633,252.841,73.031,252.707,72.428z M248.892,78.587
				c-0.067,0.535-0.134,1.004-0.201,1.338c-0.067,0.402-0.201,0.67-0.335,0.87c-0.134,0.201-0.268,0.402-0.469,0.603
				c-0.268,0.268-0.67,0.536-1.071,0.669c-0.468,0.201-0.937,0.268-1.539,0.268c-0.536,0-1.071-0.067-1.473-0.268
				c-0.469-0.134-0.87-0.402-1.138-0.669c-0.201-0.201-0.402-0.402-0.469-0.603c-0.134-0.201-0.268-0.469-0.335-0.87
				c-0.067-0.335-0.134-0.803-0.134-1.338c-0.067-0.536-0.067-1.205-0.067-2.075c0-0.803,0-1.473,0.067-2.008
				c0-0.602,0.067-1.004,0.134-1.405c0.067-0.335,0.201-0.603,0.335-0.87c0.067-0.201,0.268-0.402,0.469-0.603
				c0.268-0.268,0.67-0.469,1.138-0.669c0.402-0.134,0.937-0.201,1.473-0.201c0.603,0,1.071,0.067,1.539,0.201
				c0.402,0.201,0.804,0.402,1.071,0.669c0.201,0.201,0.335,0.402,0.469,0.603c0.134,0.268,0.268,0.536,0.335,0.87
				c0.067,0.402,0.134,0.803,0.201,1.405V78.587z"/>
			<path style="fill:#949394;" d="M269.04,67.876V78.52l-8.233-10.644h-3.682v17.337h4.083V74.57l8.3,10.644h3.615V67.876H269.04z"
				/>
			<path style="fill:#949394;" d="M287.784,67.876l-3.816,6.962l-3.882-6.962h-4.418l6.226,10.242v7.096h4.083v-7.096l6.225-10.242
				H287.784z"/>
		</g>
	</g>
	<g style="opacity:0.1;">
		<path d="M278.343,182.287c0.006-0.049,0.017-0.097,0.022-0.146H256v0.146H278.343z"/>
		<path d="M235.537,182.287H256v-0.146h-20.485C235.52,182.19,235.531,182.238,235.537,182.287z"/>
		<path d="M508.753,272.889L478.614,96.852l-1.39-8.126c-5.617-25.154-22.824-45.93-45.725-56.434c0.058-0.456,0-0.911-0.065-1.366
			l-2.744-20.082c-0.067-0.469-0.134-0.937-0.335-1.406c-1.138-4.552-4.887-8.167-9.171-9.171C418.448,0.067,417.645,0,416.842,0
			h-40.029c-5.69,0-10.978,4.753-11.848,10.844l-2.744,20.082c-0.134,0.602-0.134,1.138-0.134,1.674
			c-8.367,3.949-15.931,9.237-22.424,15.663H256v133.878h22.365c-0.006,0.049-0.017,0.097-0.022,0.146H256v31.135h28.515
			c8.795,15.679,25.553,26.291,44.81,26.291c15.639,0,29.62-7.012,39.043-18.036l57.406,76.65l1.032,1.377
			c2.832,4.492,12.154,18.942,17.374,23.182l0.285,0.38c6.803,4.99,15.001,7.86,23.487,8.179c5.07,0.211,10.245-0.489,15.291-2.201
			c0.883-0.301,1.764-0.633,2.636-0.996C507.477,319.302,517.72,294.508,508.753,272.889z"/>
	</g>
</g>
</svg>