<?xml version="1.0" ?><!-- Uploaded to: SVG Repo, www.svgrepo.com, Generator: SVG Repo Mixer Tools -->
<svg width="800px" height="800px" viewBox="0 0 96 96" xmlns="http://www.w3.org/2000/svg"><title/><path d="M63.43,25.34V21H32.57v4.34a3.86,3.86,0,0,1-2.94,3.72A11.54,11.54,0,0,0,21,40.21V86a8,8,0,0,0,8,8H67a8,8,0,0,0,8-8V40.21a11.54,11.54,0,0,0-8.63-11.15A3.86,3.86,0,0,1,63.43,25.34Z" style="fill:#eaeaea"/><path d="M66.37,29.06a3.86,3.86,0,0,1-2.94-3.72V21h-8v9.34a3.86,3.86,0,0,0,2.94,3.72A11.54,11.54,0,0,1,67,45.21V79A15,15,0,0,1,52,94H67a8,8,0,0,0,8-8V40.21A11.54,11.54,0,0,0,66.37,29.06Z" style="fill:#bacece"/><path d="M63.43,25.34V21H32.57v4.34a3.86,3.86,0,0,1-2.94,3.72A11.54,11.54,0,0,0,21,40.21V86a8,8,0,0,0,8,8H67a8,8,0,0,0,8-8V40.21a11.54,11.54,0,0,0-8.63-11.15A3.86,3.86,0,0,1,63.43,25.34Z" style="fill:none;stroke:#281a3b;stroke-linecap:round;stroke-linejoin:round;stroke-width:4px"/><rect height="38" style="fill:#aae1e9" width="54" x="21" y="42"/><rect height="38" style="fill:#75c9c9" width="8" x="67" y="42"/><rect height="38" style="fill:none;stroke:#281a3b;stroke-linecap:round;stroke-linejoin:round;stroke-width:4px" width="54" x="21" y="42"/><rect height="19" rx="5" ry="5" style="fill:#575072" width="46" x="25" y="2"/><path d="M66,2H58a5,5,0,0,1,5,5v9a5,5,0,0,1-5,5h8a5,5,0,0,0,5-5V7A5,5,0,0,0,66,2Z" style="fill:#363354"/><rect height="19" rx="5" ry="5" style="fill:none;stroke:#281a3b;stroke-linecap:round;stroke-linejoin:round;stroke-width:4px" width="46" x="25" y="2"/><path d="M52,65h6a2,2,0,0,0,2-2V59a2,2,0,0,0-2-2H52V51a2,2,0,0,0-2-2H46a2,2,0,0,0-2,2v6H38a2,2,0,0,0-2,2v4a2,2,0,0,0,2,2h6v6a2,2,0,0,0,2,2h4a2,2,0,0,0,2-2Z" style="fill:#575072"/><path d="M52,65h6a2,2,0,0,0,2-2V59a2,2,0,0,0-2-2H52V51a2,2,0,0,0-2-2H46a2,2,0,0,0-2,2v6H38a2,2,0,0,0-2,2v4a2,2,0,0,0,2,2h6v6a2,2,0,0,0,2,2h4a2,2,0,0,0,2-2Z" style="fill:none;stroke:#281a3b;stroke-linecap:round;stroke-linejoin:round;stroke-width:4px"/></svg>