<?xml version="1.0" encoding="utf-8"?>
<!-- Uploaded to: SVG Repo, www.svgrepo.com, Generator: SVG Repo Mixer Tools -->
<svg width="800px" height="800px" viewBox="0 0 1024 1024" class="icon"  version="1.1" xmlns="http://www.w3.org/2000/svg"><path d="M496 124.608L96 524.576V1024h832V556.576z" fill="#EAEAEA" /><path d="M256 672h224v352H256z" fill="#434854" /><path d="M544 640h96v96h-96zM672 640h96v96h-96zM672 512h96v96h-96zM544 512h96v96h-96z" fill="#469FCC" /><path d="M544 512h96v32h-96zM672 512h96v32h-96zM544 640h96v32h-96zM672 640h96v32h-96z" fill="" /><path d="M496 64L96 480v96L496 176 928 608v-96z" fill="" /><path d="M1012.576 505.376L541.248 34.048l-22.624-22.624a31.968 31.968 0 0 0-45.248 0l-22.624 22.624L11.424 473.376a31.968 31.968 0 0 0 0 45.248l22.624 22.624a31.968 31.968 0 0 0 45.248 0L496 124.608l448.672 448.672a31.968 31.968 0 0 0 45.248 0l22.624-22.624a32.032 32.032 0 0 0 0.032-45.28z" fill="#EF4D4D" /><path d="M238.24 1024A126.656 126.656 0 0 0 256 960a128 128 0 0 0-256 0c0 23.424 6.752 45.088 17.76 64h220.48zM896 832a127.744 127.744 0 0 0-116.224 75.04A94.848 94.848 0 0 0 736 896a96 96 0 0 0-96 96c0 11.296 2.304 21.952 5.888 32h360.384A126.944 126.944 0 0 0 1024 960a128 128 0 0 0-128-128z" fill="#3AAD73" /><path d="M779.776 907.04A94.848 94.848 0 0 0 736 896a96 96 0 0 0-96 96c0 11.296 2.304 21.952 5.888 32h139.872A126.656 126.656 0 0 1 768 960c0-18.944 4.384-36.768 11.776-52.96z" fill="" /></svg>