<?xml version="1.0" encoding="iso-8859-1"?>
<!-- Uploaded to: SVG Repo, www.svgrepo.com, Generator: SVG Repo Mixer Tools -->
<svg height="800px" width="800px" version="1.1" id="Layer_1" xmlns="http://www.w3.org/2000/svg" xmlns:xlink="http://www.w3.org/1999/xlink" 
	 viewBox="0 0 512 512" xml:space="preserve">
<g>
	<path style="fill:#B88353;" d="M0,211.862h512V0H0V211.862z"/>
	<path style="fill:#DD342E;" d="M35.31,211.862h52.966V70.621H35.31V211.862z"/>
	<path style="fill:#ECBA16;" d="M194.207,211.862h52.966V35.31h-52.966V211.862z"/>
	<path style="fill:#25B99A;" d="M88.276,211.862h52.966V88.276H88.276V211.862z"/>
	<path style="fill:#A2D672;" d="M141.241,211.862h52.966V70.621h-52.966V211.862z"/>
	<path style="fill:#8C5D37;" d="M0,423.724h512V211.862H0V423.724z"/>
	<g>
		<path style="fill:#B88353;" d="M0,512h211.862v-88.276H0V512z"/>
		<path style="fill:#B88353;" d="M300.138,512H512v-88.276H300.138V512z"/>
	</g>
	<g>
		<path style="fill:#8C5D37;" d="M114.759,467.862c0,4.873-3.955,8.828-8.828,8.828c-4.873,0-8.828-3.955-8.828-8.828
			c0-4.873,3.955-8.828,8.828-8.828C110.804,459.034,114.759,462.989,114.759,467.862"/>
		<path style="fill:#8C5D37;" d="M414.897,467.862c0,4.873-3.955,8.828-8.828,8.828s-8.828-3.955-8.828-8.828
			c0-4.873,3.955-8.828,8.828-8.828S414.897,462.989,414.897,467.862"/>
		<path style="fill:#8C5D37;" d="M211.862,512h88.276v-88.276h-88.276V512z"/>
	</g>
	<path style="fill:#B12621;" d="M35.31,105.931h52.966v-35.31H35.31V105.931z"/>
	<path style="fill:#199172;" d="M88.276,123.586h52.966v-35.31H88.276V123.586z"/>
	<path style="fill:#88C057;" d="M141.241,105.931h52.966v-35.31h-52.966V105.931z"/>
	<path style="fill:#ED8A19;" d="M194.207,70.621h52.966V35.31h-52.966V70.621z"/>
	<path style="fill:#25B99A;" d="M371.129,189.387l-44.509,22.475L262.408,84.824l47.784-22.855L371.129,189.387z"/>
	<path style="fill:#199172;" d="M310.189,61.968l-47.784,22.855l-15.236-31.859l47.784-22.855L310.189,61.968z"/>
	<path style="fill:#25B99A;" d="M52.966,423.724h70.621V264.828H52.966V423.724z"/>
	<path style="fill:#199172;" d="M52.966,300.138h70.621v-35.31H52.966V300.138z"/>
	<path style="fill:#A2D672;" d="M123.586,423.724h70.621V247.172h-70.621V423.724z"/>
	<path style="fill:#88C057;" d="M123.586,282.483h70.621v-35.31h-70.621V282.483z"/>
	<path style="fill:#199172;" d="M88.276,397.241c-4.882,0-8.828-3.955-8.828-8.828v-52.966c0-4.873,3.946-8.828,8.828-8.828
		s8.828,3.955,8.828,8.828v52.966C97.103,393.287,93.158,397.241,88.276,397.241"/>
	<path style="fill:#88C057;" d="M158.897,397.241c-4.882,0-8.828-3.955-8.828-8.828v-70.621c0-4.873,3.946-8.828,8.828-8.828
		c4.882,0,8.828,3.955,8.828,8.828v70.621C167.724,393.287,163.778,397.241,158.897,397.241"/>
	<path style="fill:#DD342E;" d="M423.724,423.724H238.345c10.69-16.04,10.69-36.926,0-52.966h185.379
		c14.627,0,26.483,11.855,26.483,26.483C450.207,411.869,438.351,423.724,423.724,423.724"/>
	<path style="fill:#ECBA16;" d="M450.207,370.759H264.828c10.69-16.04,10.69-36.926,0-52.966h185.379
		c14.627,0,26.483,11.855,26.483,26.483C476.69,358.903,464.834,370.759,450.207,370.759"/>
	<path style="fill:#25B99A;" d="M423.724,317.793H238.345c10.69-16.04,10.69-36.926,0-52.965h185.379
		c14.627,0,26.483,11.855,26.483,26.483C450.207,305.938,438.351,317.793,423.724,317.793"/>
</g>
</svg>