<?xml version="1.0" encoding="iso-8859-1"?>
<!-- Uploaded to: SVG Repo, www.svgrepo.com, Generator: SVG Repo Mixer Tools -->
<svg version="1.1" id="Layer_1" xmlns="http://www.w3.org/2000/svg" xmlns:xlink="http://www.w3.org/1999/xlink" 
	 viewBox="0 0 512 512" xml:space="preserve">
<path style="fill:#00D7DF;" d="M455.111,187.223c0,109.966-89.145,199.111-199.111,199.111S56.889,297.19,56.889,187.223H0
	c0,117.185,78.741,215.98,186.2,246.366h139.6C433.259,403.204,512,304.409,512,187.223H455.111z"/>
<path style="fill:#00A1A7;" d="M56.889,187.223H0c0,117.185,78.741,215.98,186.2,246.366H256v-47.255
	C146.034,386.335,56.889,297.19,56.889,187.223z"/>
<path style="fill:#818085;" d="M341.333,187.223c0,47.128-85.333,113.778-85.333,113.778s-85.333-66.65-85.333-113.778
	c0-47.13,38.205-85.333,85.333-85.333S341.333,140.094,341.333,187.223z"/>
<path style="fill:#565659;" d="M256,301.001c0,0-85.333-66.65-85.333-113.778c0-47.13,38.205-85.333,85.333-85.333
	C256,163.046,256,301.001,256,301.001z"/>
<circle cx="256" cy="201.441" r="28.444"/>
<path d="M241.778,201.446v87.625c8.488,7.45,14.222,11.931,14.222,11.931s5.734-4.48,14.222-11.931v-87.625H241.778z"/>
<polygon style="fill:#F2F2F3;" points="256,59.223 170.667,59.223 192.4,130.335 256,130.335 319.6,130.335 341.333,59.223 "/>
<g>
	<polygon style="fill:#DEDDE0;" points="256,130.335 256,59.223 170.667,59.223 192.4,130.335 	"/>
	<rect x="256" y="381.665" style="fill:#DEDDE0;" width="227.556" height="56.889"/>
</g>
<rect x="28.444" y="381.665" style="fill:#CDCDD0;" width="227.556" height="56.889"/>
<rect x="213.333" y="367.443" style="fill:#FF5023;" width="85.333" height="85.333"/>
<rect x="213.333" y="367.443" style="fill:#D80027;" width="42.667" height="85.333"/>
<g>
	<circle style="fill:#565659;" cx="28.444" cy="410.11" r="28.444"/>
	<circle style="fill:#565659;" cx="28.444" cy="187.219" r="28.444"/>
</g>
<g>
	<circle style="fill:#818085;" cx="483.556" cy="187.219" r="28.444"/>
	<circle style="fill:#818085;" cx="483.556" cy="410.11" r="28.444"/>
</g>
</svg>