<?xml version="1.0" ?>
<!DOCTYPE svg  PUBLIC '-//W3C//DTD SVG 1.1//EN'  'http://www.w3.org/Graphics/SVG/1.1/DTD/svg11.dtd'>
<!-- Uploaded to: SVG Repo, www.svgrepo.com, Generator: SVG Repo Mixer Tools -->
<svg width="800px" height="800px" viewBox="0 0 512 512" version="1.1" xml:space="preserve" xmlns="http://www.w3.org/2000/svg" xmlns:xlink="http://www.w3.org/1999/xlink">
<g id="_x34_97_x2C__pen_x2C__calculator_x2C__scale_x2C__education">
<g>
<path d="M331,147v308c0,11.6-9.4,21-21,21H82c-11.6,0-21-9.4-21-21V147c0-11.6,9.4-21,21-21h228    C321.6,126,331,135.4,331,147z" style="fill:#57606F;"/>
<path d="M73,468.75v-308c0-11.6,9.4-21,21-21h228c2.921,0,5.701,0.599,8.229,1.676    C327.784,132.537,319.666,126,310,126H82c-11.6,0-21,9.4-21,21v308c0,8.679,5.263,16.123,12.771,19.324    C73.283,472.547,73,470.684,73,468.75z" style="fill:#414A56;"/>
<rect height="50" style="fill:#A28671;" width="230" x="61" y="36"/>
<polygon points="69.667,45.667 291,45.667 291,36 61,36 61,86 69.667,86   " style="fill:#8E725D;"/>
<path d="M416,36c13.81,0,25,11.19,25,25c0,6.9-2.8,13.16-7.32,17.68C429.16,83.2,422.9,86,416,86H291V36    H416z" style="fill:#F6E58D;"/>
<path d="M298.875,44.188h125c5.023,0,9.696,1.486,13.613,4.035C433.129,40.904,425.14,36,416,36H291v50    h7.875V44.188z" style="fill:#E5CF70;"/>
<polygon points="371,236 371,196 371,156 451,156 451,476 371,476 371,436 371,396 371,356 371,316     371,276   " style="fill:#F6E58D;"/>
<polygon points="381.167,446 381.167,406 381.167,366 381.167,326 381.167,286 381.167,246 381.167,206     381.167,166 451,166 451,156 371,156 371,196 371,236 371,276 371,316 371,356 371,396 371,436 371,476 381.167,476   " style="fill:#E5CF70;"/>
<path d="M291,166v60H101v-60H291z M271,206v-20h-20v20H271z M241,206v-20h-20v20H241z M211,206v-20h-20v20    H211z" style="fill:#E8F9F9;"/>
<g>
<g>
<g>
<polygon points="109.167,174.5 291,174.5 291,166 101,166 101,226 109.167,226      " style="fill:#CCE5E4;"/>
</g>
</g>
</g>
<rect height="100" style="fill:#FEBE76;" width="30" x="261" y="336"/>
<polygon points="268.5,344.188 291,344.188 291,336 261,336 261,436 268.5,436   " style="fill:#E8A664;"/>
<rect height="20" width="20" x="251" y="186"/>
<rect height="20" width="20" x="221" y="186"/>
<rect height="20" width="20" x="191" y="186"/>
<path d="M310,481H82c-14.336,0-26-11.663-26-26V147c0-14.336,11.664-26,26-26h228c14.337,0,26,11.664,26,26v308    C336,469.337,324.337,481,310,481z M82,131c-8.822,0-16,7.178-16,16v308c0,8.822,7.178,16,16,16h228c8.822,0,16-7.178,16-16V147    c0-8.822-7.178-16-16-16H82z"/>
<path d="M291,231H101c-2.761,0-5-2.239-5-5v-60c0-2.761,2.239-5,5-5h190c2.762,0,5,2.239,5,5v60C296,228.761,293.762,231,291,231z     M106,221h180v-50H106V221z"/>
<path d="M291,441h-30c-2.762,0-5-2.238-5-5V336c0-2.762,2.238-5,5-5h30c2.762,0,5,2.238,5,5v100C296,438.762,293.762,441,291,441z     M266,431h20v-90h-20V431z"/>
<path d="M451,481h-80c-2.762,0-5-2.238-5-5V156c0-2.761,2.238-5,5-5h80c2.762,0,5,2.239,5,5v320C456,478.762,453.762,481,451,481z     M376,471h70V161h-70V471z"/>
<path d="M411,441h-40c-2.762,0-5-2.238-5-5s2.238-5,5-5h40c2.762,0,5,2.238,5,5S413.762,441,411,441z"/>
<path d="M411,401h-40c-2.762,0-5-2.238-5-5s2.238-5,5-5h40c2.762,0,5,2.238,5,5S413.762,401,411,401z"/>
<path d="M411,361h-40c-2.762,0-5-2.238-5-5s2.238-5,5-5h40c2.762,0,5,2.238,5,5S413.762,361,411,361z"/>
<path d="M411,321h-40c-2.762,0-5-2.238-5-5s2.238-5,5-5h40c2.762,0,5,2.238,5,5S413.762,321,411,321z"/>
<path d="M411,281h-40c-2.762,0-5-2.238-5-5s2.238-5,5-5h40c2.762,0,5,2.238,5,5S413.762,281,411,281z"/>
<path d="M411,241h-40c-2.762,0-5-2.239-5-5s2.238-5,5-5h40c2.762,0,5,2.239,5,5S413.762,241,411,241z"/>
<path d="M411,201h-40c-2.762,0-5-2.239-5-5s2.238-5,5-5h40c2.762,0,5,2.239,5,5S413.762,201,411,201z"/>
<path d="M416,91H61c-2.761,0-5-2.239-5-5V36c0-2.761,2.239-5,5-5h355c16.542,0,30,13.458,30,30c0,8.017-3.12,15.551-8.785,21.216    C431.551,87.88,424.017,91,416,91z M66,81h350c5.346,0,10.368-2.08,14.144-5.855C433.921,71.369,436,66.346,436,61    c0-11.028-8.972-20-20-20H66V81z"/>
<path d="M291,91c-2.762,0-5-2.239-5-5V36c0-2.761,2.238-5,5-5s5,2.239,5,5v50C296,88.761,293.762,91,291,91z"/>
<g>
<rect height="30" style="fill:#FF7979;" width="30" x="181" y="266"/>
<polygon points="188.625,273.625 211,273.625 211,266 181,266 181,296 188.625,296    " style="fill:#D65B5B;"/>
<path d="M211,301h-30c-2.761,0-5-2.238-5-5v-30c0-2.762,2.239-5,5-5h30c2.761,0,5,2.238,5,5v30C216,298.762,213.761,301,211,301z      M186,291h20v-20h-20V291z"/>
</g>
<g>
<rect height="30" style="fill:#FF7979;" width="30" x="261" y="266"/>
<polygon points="268.625,273.625 291,273.625 291,266 261,266 261,296 268.625,296    " style="fill:#D65B5B;"/>
<path d="M291,301h-30c-2.762,0-5-2.238-5-5v-30c0-2.762,2.238-5,5-5h30c2.762,0,5,2.238,5,5v30C296,298.762,293.762,301,291,301z      M266,291h20v-20h-20V291z"/>
</g>
<g>
<rect height="30" style="fill:#FF7979;" width="30" x="101" y="266"/>
<polygon points="108.625,273.625 131,273.625 131,266 101,266 101,296 108.625,296    " style="fill:#D65B5B;"/>
<path d="M131,301h-30c-2.761,0-5-2.238-5-5v-30c0-2.762,2.239-5,5-5h30c2.761,0,5,2.238,5,5v30C136,298.762,133.761,301,131,301z      M106,291h20v-20h-20V291z"/>
</g>
<g>
<rect height="30" style="fill:#FF7979;" width="30" x="181" y="336"/>
<polygon points="188.625,343.625 211,343.625 211,336 181,336 181,366 188.625,366    " style="fill:#D65B5B;"/>
<path d="M211,371h-30c-2.761,0-5-2.238-5-5v-30c0-2.762,2.239-5,5-5h30c2.761,0,5,2.238,5,5v30C216,368.762,213.761,371,211,371z      M186,361h20v-20h-20V361z"/>
</g>
<g>
<rect height="30" style="fill:#FF7979;" width="30" x="101" y="336"/>
<polygon points="108.625,343.625 131,343.625 131,336 101,336 101,366 108.625,366    " style="fill:#D65B5B;"/>
<path d="M131,371h-30c-2.761,0-5-2.238-5-5v-30c0-2.762,2.239-5,5-5h30c2.761,0,5,2.238,5,5v30C136,368.762,133.761,371,131,371z      M106,361h20v-20h-20V361z"/>
</g>
<g>
<rect height="30" style="fill:#FF7979;" width="30" x="181" y="406"/>
<polygon points="188.625,413.625 211,413.625 211,406 181,406 181,436 188.625,436    " style="fill:#D65B5B;"/>
<path d="M211,441h-30c-2.761,0-5-2.238-5-5v-30c0-2.762,2.239-5,5-5h30c2.761,0,5,2.238,5,5v30C216,438.762,213.761,441,211,441z      M186,431h20v-20h-20V431z"/>
</g>
<g>
<rect height="30" style="fill:#FF7979;" width="30" x="101" y="406"/>
<polygon points="108.625,413.625 131,413.625 131,406 101,406 101,436 108.625,436    " style="fill:#D65B5B;"/>
<path d="M131,441h-30c-2.761,0-5-2.238-5-5v-30c0-2.762,2.239-5,5-5h30c2.761,0,5,2.238,5,5v30C136,438.762,133.761,441,131,441z      M106,431h20v-20h-20V431z"/>
</g>
</g>
</g>
<g id="Layer_1"/>
</svg>