<?xml version="1.0" encoding="iso-8859-1"?>
<!-- Uploaded to: SVG Repo, www.svgrepo.com, Generator: SVG Repo Mixer Tools -->
<svg version="1.1" id="Layer_1" xmlns="http://www.w3.org/2000/svg" xmlns:xlink="http://www.w3.org/1999/xlink" 
	 viewBox="0 0 512 512" xml:space="preserve">
<g>
	<rect x="136" y="232" style="fill:#3F556B;" width="24" height="16"/>
	<rect x="352" y="232" style="fill:#3F556B;" width="24" height="16"/>
</g>
<path style="fill:#C9D5E3;" d="M256,0c-48.6,0-88,39.4-88,88v176c0,48.6,39.4,88,88,88s88-39.4,88-88V88C344,39.4,304.6,0,256,0z"/>
<path style="fill:#576D7E;" d="M392,200c-8.84,0-16,7.16-16,16v48c0,66.272-53.728,120-120,120s-120-53.728-120-120v-48
	c0-8.84-7.16-16-16-16s-16,7.16-16,16v48c0.088,74.616,54.32,138.136,128,149.92V464h48v-50.08
	c73.68-11.784,127.912-75.304,128-149.92v-48C408,207.16,400.84,200,392,200z"/>
<path style="fill:#F6B545;" d="M168,224h176c4.416,0,8,3.584,8,8v16c0,4.416-3.584,8-8,8H168c-4.416,0-8-3.584-8-8v-16
	C160,227.584,163.584,224,168,224z"/>
<path style="fill:#35495C;" d="M168,264c0,48.6,39.4,88,88,88s88-39.4,88-88v-8H168V264z"/>
<path style="fill:#F19920;" d="M344,256h-16v-32h16c4.416,0,8,3.584,8,8v16C352,252.416,348.416,256,344,256z"/>
<g>
	<circle style="fill:#82A7C4;" cx="240" cy="88" r="8"/>
	<circle style="fill:#82A7C4;" cx="208" cy="88" r="8"/>
	<circle style="fill:#82A7C4;" cx="272" cy="88" r="8"/>
	<circle style="fill:#82A7C4;" cx="256" cy="120" r="8"/>
	<circle style="fill:#82A7C4;" cx="224" cy="120" r="8"/>
	<circle style="fill:#82A7C4;" cx="288" cy="120" r="8"/>
	<circle style="fill:#82A7C4;" cx="256" cy="56" r="8"/>
	<circle style="fill:#82A7C4;" cx="224" cy="56" r="8"/>
	<circle style="fill:#82A7C4;" cx="288" cy="56" r="8"/>
	<circle style="fill:#82A7C4;" cx="256" cy="184" r="8"/>
	<circle style="fill:#82A7C4;" cx="224" cy="184" r="8"/>
	<circle style="fill:#82A7C4;" cx="288" cy="184" r="8"/>
	<circle style="fill:#82A7C4;" cx="304" cy="88" r="8"/>
	<circle style="fill:#82A7C4;" cx="240" cy="152" r="8"/>
	<circle style="fill:#82A7C4;" cx="208" cy="152" r="8"/>
	<circle style="fill:#82A7C4;" cx="272" cy="152" r="8"/>
	<circle style="fill:#82A7C4;" cx="304" cy="152" r="8"/>
</g>
<path style="fill:#123247;" d="M168,256v8c0,2.72,0,5.36,0.4,8h149.52c4.416-0.12,8.096,3.368,8.216,7.784
	c0.016,0.696-0.056,1.384-0.216,2.056c-8.168,31.928-36.968,54.232-69.92,54.16c-4.416,0-8,3.584-8,8s3.584,8,8,8
	c45.488-0.016,83.464-34.704,87.6-80l0,0c0-2.64,0.4-5.28,0.4-8v-8H168z"/>
<path style="fill:#576D7E;" d="M321.36,464H190.64c-4.24,0.016-8.296,1.712-11.28,4.72l-14.64,14.64
	c-3.008,2.984-4.704,7.04-4.72,11.28V496c0,8.84,7.16,16,16,16h160c8.84,0,16-7.16,16-16v-1.36c-0.016-4.24-1.712-8.296-4.72-11.28
	l-14.64-14.64C329.656,465.712,325.6,464.016,321.36,464z"/>
<g>
	<path style="fill:#3F556B;" d="M347.28,483.28l-8-8c3.024,3.008,4.72,7.096,4.72,11.36V488c0,8.84-7.16,16-16,16H168
		c-2.264-0.008-4.496-0.504-6.56-1.44c2.576,5.736,8.272,9.424,14.56,9.44h160c8.84,0,16-7.16,16-16v-1.36
		C352,490.376,350.304,486.288,347.28,483.28z"/>
	<path style="fill:#3F556B;" d="M256,416c-8.04-0.056-16.064-0.752-24-2.08v16c7.936,1.328,15.96,2.024,24,2.08
		c3.736-0.68,7.32,1.8,8,5.536c0.152,0.816,0.152,1.648,0,2.464v24h16v-50.08C272.064,415.248,264.04,415.944,256,416z"/>
</g>
<path style="fill:#B0C4D9;" d="M328,224h16V96c0-4.416-3.584-8-8-8l0,0c-4.416,0-8,3.584-8,8V224z"/>
<path style="fill:#D5E3EF;" d="M264,8c0,4.416-3.584,8-8,8c-39.768,0-72,32.232-72,72c0,4.416-3.584,8-8,8s-8-3.584-8-8
	c0-48.6,39.4-88,88-88C260.416,0,264,3.584,264,8z"/>
</svg>