<?xml version="1.0" ?>
<!DOCTYPE svg  PUBLIC '-//W3C//DTD SVG 1.1//EN'  'http://www.w3.org/Graphics/SVG/1.1/DTD/svg11.dtd'>
<!-- Uploaded to: SVG Repo, www.svgrepo.com, Generator: SVG Repo Mixer Tools -->
<svg width="800px" height="800px" viewBox="0 -4 64.009 64.009" id="Layer_1" version="1.1" xml:space="preserve" xmlns="http://www.w3.org/2000/svg" xmlns:xlink="http://www.w3.org/1999/xlink">
<g id="Tripod_2_">
<g>
<path d="M59.417,52.47l-5.408-5.407V2.001    c0-1.104-0.896-2.001-2-2.001s-2,0.896-2,2.001V47.08l-5.35,5.35c-0.807,0.807-0.807,2.114,0,2.921    c0.807,0.806,2.114,0.806,2.92,0l4.42-4.421l4.479,4.479c0.812,0.811,2.128,0.811,2.939,0    C60.229,54.597,60.229,53.281,59.417,52.47z" style="fill-rule:evenodd;clip-rule:evenodd;fill:#CCCCCC;"/>
</g>
</g>
<g id="Legs_3_">
<g>
<path d="M8.009,38.001c-1.104,0-2,0.896-2,1.999v14    c0,1.104,0.896,2.001,2,2.001s2-0.896,2-2.001V40C10.009,38.896,9.113,38.001,8.009,38.001z M36.009,38.001    c-1.104,0-2,0.896-2,1.999v14c0,1.104,0.896,2.001,2,2.001s2-0.896,2-2.001V40C38.009,38.896,37.113,38.001,36.009,38.001z" style="fill-rule:evenodd;clip-rule:evenodd;fill:#B3B3B3;"/>
</g>
</g>
<g id="Legs_2_">
<g>
<path d="M10.08,20.993c-0.603-0.949-1.937-1.274-2.98-0.727    c-1.044,0.549-1.401,1.762-0.799,2.711l7.637,12.03c0.603,0.949,1.937,1.274,2.98,0.727c1.043-0.548,1.401-1.762,0.798-2.711    L10.08,20.993z M36.918,20.267c-1.044-0.548-2.378-0.223-2.98,0.727l-7.637,12.03c-0.603,0.949-0.245,2.163,0.799,2.711    s2.378,0.223,2.98-0.727l7.637-12.03C38.319,22.028,37.961,20.815,36.918,20.267z" style="fill-rule:evenodd;clip-rule:evenodd;fill:#B3B3B3;"/>
</g>
</g>
<g id="Rim_2_">
<g>
<circle cx="22.009" cy="40" r="16" style="fill:#ED7161;"/>
</g>
</g>
<g id="Drum">
<g>
<circle cx="22.009" cy="40" r="12" style="fill:#CCCCCC;"/>
</g>
</g>
<g id="Drums_1_">
<g>
<path d="M43.04,20.515l-10.154-6.28    c-0.935-0.577-2.13-0.235-2.67,0.767l-1.954,3.626c-0.539,1.001-0.219,2.281,0.716,2.859l10.154,6.28    c0.935,0.578,2.13,0.235,2.669-0.766l1.954-3.627C44.295,22.373,43.975,21.093,43.04,20.515z M13.801,15.054    c-0.539-0.992-1.734-1.332-2.669-0.76L0.978,20.519c-0.935,0.573-1.255,1.842-0.716,2.835l1.954,3.594    c0.54,0.992,1.735,1.333,2.67,0.76l10.154-6.225c0.935-0.573,1.255-1.843,0.715-2.835L13.801,15.054z" style="fill-rule:evenodd;clip-rule:evenodd;fill:#666666;"/>
</g>
</g>
<g id="Cymbal_3_">
<g>
<path d="M52.009,4c-4.418,0-12-0.418-12,4h24C64.009,3.582,56.427,4,52.009,4z" style="fill:#FFCC66;"/>
</g>
</g>
<g/>
<g/>
<g/>
<g/>
<g/>
<g/>
<g/>
<g/>
<g/>
<g/>
<g/>
<g/>
<g/>
<g/>
<g/>
</svg>