<?xml version="1.0" encoding="iso-8859-1"?>
<!-- Uploaded to: SVG Repo, www.svgrepo.com, Generator: SVG Repo Mixer Tools -->
<!DOCTYPE svg PUBLIC "-//W3C//DTD SVG 1.1//EN" "http://www.w3.org/Graphics/SVG/1.1/DTD/svg11.dtd">
<svg version="1.1" id="Capa_1" xmlns="http://www.w3.org/2000/svg" xmlns:xlink="http://www.w3.org/1999/xlink" 
	 viewBox="0 0 58 58" xml:space="preserve">
<rect x="1" y="38" style="fill:#6B5B4B;stroke:#D1C17C;stroke-width:2;stroke-linecap:round;stroke-miterlimit:10;" width="14" height="14"/>
<rect x="15" y="38" style="fill:#6B5B4B;stroke:#D1C17C;stroke-width:2;stroke-linecap:round;stroke-miterlimit:10;" width="14" height="14"/>
<rect x="29" y="38" style="fill:#6B5B4B;stroke:#D1C17C;stroke-width:2;stroke-linecap:round;stroke-miterlimit:10;" width="14" height="14"/>
<rect x="43" y="38" style="fill:#6B5B4B;stroke:#D1C17C;stroke-width:2;stroke-linecap:round;stroke-miterlimit:10;" width="14" height="14"/>
<rect x="1" y="24" style="fill:#F7E6A1;stroke:#D1C17C;stroke-width:2;stroke-linecap:round;stroke-miterlimit:10;" width="14" height="14"/>
<rect x="15" y="24" style="fill:#F7E6A1;stroke:#D1C17C;stroke-width:2;stroke-linecap:round;stroke-miterlimit:10;" width="14" height="14"/>
<rect x="29" y="24" style="fill:#F7E6A1;stroke:#D1C17C;stroke-width:2;stroke-linecap:round;stroke-miterlimit:10;" width="14" height="14"/>
<rect x="43" y="24" style="fill:#F7E6A1;stroke:#D1C17C;stroke-width:2;stroke-linecap:round;stroke-miterlimit:10;" width="14" height="14"/>
<rect x="18" y="17" style="fill:#BE6E41;" width="22" height="6"/>
<line style="fill:none;stroke:#556080;stroke-width:2;stroke-linecap:round;stroke-miterlimit:10;" x1="21" y1="16" x2="37" y2="16"/>
<line style="fill:none;stroke:#C7CAC7;stroke-width:2;stroke-linecap:round;stroke-miterlimit:10;" x1="39" y1="16" x2="39" y2="12"/>
<line style="fill:none;stroke:#C7CAC7;stroke-width:2;stroke-linecap:round;stroke-miterlimit:10;" x1="39" y1="12" x2="35" y2="12"/>
<line style="fill:none;stroke:#C7CAC7;stroke-width:2;stroke-linecap:round;stroke-miterlimit:10;" x1="35" y1="12" x2="35" y2="13"/>
<rect x="2" y="5" style="fill:#556080;" width="12" height="18"/>
<rect x="44" y="5" style="fill:#556080;" width="12" height="18"/>
<circle style="fill:#38454F;" cx="8" cy="17" r="3"/>
<circle style="fill:#38454F;" cx="8" cy="11" r="3"/>
<circle style="fill:#38454F;" cx="50" cy="17" r="3"/>
<circle style="fill:#38454F;" cx="50" cy="11" r="3"/>
<rect x="11" y="26" style="fill:#38454F;" width="3" height="11"/>
<rect x="8" y="26" style="fill:#556080;" width="3" height="11"/>
<rect x="5" y="26" style="fill:#7FABDA;" width="3" height="11"/>
<rect x="39" y="28" style="fill:#DC691D;" width="3" height="9"/>
<rect x="36" y="28" style="fill:#ED8A19;" width="3" height="9"/>
<rect x="33" y="28" style="fill:#EBBA16;" width="3" height="9"/>
<rect x="53" y="28" style="fill:#B02721;" width="3" height="9"/>
<rect x="50" y="28" style="fill:#CE2929;" width="3" height="9"/>
<rect x="47" y="28" style="fill:#DD352E;" width="3" height="9"/>
<line style="fill:none;stroke:#9E6C53;stroke-width:2;stroke-linecap:round;stroke-miterlimit:10;" x1="6" y1="42" x2="10" y2="42"/>
<line style="fill:none;stroke:#9E6C53;stroke-width:2;stroke-linecap:round;stroke-miterlimit:10;" x1="20" y1="42" x2="24" y2="42"/>
<line style="fill:none;stroke:#9E6C53;stroke-width:2;stroke-linecap:round;stroke-miterlimit:10;" x1="34" y1="42" x2="38" y2="42"/>
<line style="fill:none;stroke:#9E6C53;stroke-width:2;stroke-linecap:round;stroke-miterlimit:10;" x1="48" y1="42" x2="52" y2="42"/>
</svg>