<?xml version="1.0" encoding="iso-8859-1"?>
<!-- Uploaded to: SVG Repo, www.svgrepo.com, Generator: SVG Repo Mixer Tools -->
<svg version="1.1" id="Layer_1" xmlns="http://www.w3.org/2000/svg" xmlns:xlink="http://www.w3.org/1999/xlink" 
	 viewBox="0 0 512 512" xml:space="preserve">
<path style="fill:#5195AF;" d="M469.308,40.851h-98.576v455.364c0,0,31.243,7.615,72.976,7.615c28.16,0,51.2-23.04,51.2-51.189
	L469.308,40.851z"/>
<path style="fill:#367596;" d="M494.908,66.451v386.19c0,14.075-11.525,25.589-25.6,25.589c-14.075,0-25.6-11.515-25.6-25.589
	V66.451c0-14.085,11.525-25.6,25.6-25.6C483.382,40.851,494.908,52.366,494.908,66.451z"/>
<path style="fill:#B7D9DD;" d="M392.519,452.641c0,28.149,23.04,51.189,51.189,51.189h-32.681
	c-69.153,0-94.764-51.189-94.764-51.189L359.838,8.17h32.681v32.681V452.641z"/>
<path style="fill:#C7E7EB;" d="M367.464,452.641V8.17H17.092v444.47c0,28.149,23.04,51.189,51.2,51.189h350.361
	C390.503,503.83,367.464,480.79,367.464,452.641z"/>
<polygon style="fill:#C20035;" points="347.144,51.745 347.144,133.447 305.37,133.447 283.583,92.596 305.37,51.745 "/>
<polygon style="fill:#27467A;" points="188.47,296.851 188.47,460.255 166.683,460.255 144.896,378.553 166.683,296.851 "/>
<rect x="60.274" y="296.851" style="fill:#2F5E88;" width="106.409" height="163.404"/>
<rect x="60.274" y="51.745" style="fill:#FF0F47;" width="245.095" height="81.702"/>
<path d="M469.307,32.681h-44.109c-4.513,0-8.17,3.658-8.17,8.17s3.657,8.17,8.17,8.17h15.199c-3.08,5.091-4.855,11.055-4.855,17.427
	v386.189c0,4.512,3.657,8.17,8.17,8.17c4.513,0,8.17-3.658,8.17-8.17V66.448c0-9.609,7.817-17.427,17.425-17.427
	c9.609,0,17.428,7.817,17.428,17.427v386.189c0,23.723-19.3,43.023-43.023,43.023c-23.723,0-43.023-19.3-43.023-43.023V8.17
	c0-4.512-3.657-8.17-8.17-8.17H17.095c-4.513,0-8.17,3.658-8.17,8.17v444.466C8.925,485.369,35.557,512,68.29,512h375.421
	c32.733,0,59.364-26.63,59.364-59.364V66.448C503.075,47.828,487.926,32.681,469.307,32.681z M68.29,495.66
	c-23.723,0-43.023-19.3-43.023-43.023V16.34h359.081v436.296c0,16.913,7.112,32.2,18.501,43.023H68.29z"/>
<path d="M348.942,43.574H60.67c-4.513,0-8.17,3.658-8.17,8.17v81.702c0,4.512,3.657,8.17,8.17,8.17h288.272
	c4.513,0,8.17-3.658,8.17-8.17V51.745C357.112,47.233,353.455,43.574,348.942,43.574z M340.772,125.277H68.84V59.915h271.932
	V125.277z"/>
<path d="M348.942,157.957H60.67c-4.513,0-8.17,3.658-8.17,8.17s3.657,8.17,8.17,8.17h288.272c4.513,0,8.17-3.658,8.17-8.17
	S353.455,157.957,348.942,157.957z"/>
<path d="M348.942,223.319H221.147c-4.513,0-8.17,3.658-8.17,8.17c0,4.512,3.657,8.17,8.17,8.17h127.795
	c4.513,0,8.17-3.658,8.17-8.17C357.112,226.977,353.455,223.319,348.942,223.319z"/>
<path d="M188.466,223.319H60.67c-4.513,0-8.17,3.658-8.17,8.17c0,4.512,3.657,8.17,8.17,8.17h127.796c4.513,0,8.17-3.658,8.17-8.17
	C196.636,226.977,192.978,223.319,188.466,223.319z"/>
<path d="M348.942,256H221.147c-4.513,0-8.17,3.658-8.17,8.17c0,4.512,3.657,8.17,8.17,8.17h127.795c4.513,0,8.17-3.658,8.17-8.17
	C357.112,259.658,353.455,256,348.942,256z"/>
<path d="M188.466,256H60.67c-4.513,0-8.17,3.658-8.17,8.17c0,4.512,3.657,8.17,8.17,8.17h127.796c4.513,0,8.17-3.658,8.17-8.17
	C196.636,259.658,192.978,256,188.466,256z"/>
<path d="M348.942,288.681H221.147c-4.513,0-8.17,3.658-8.17,8.17c0,4.512,3.657,8.17,8.17,8.17h127.795
	c4.513,0,8.17-3.658,8.17-8.17C357.112,292.339,353.455,288.681,348.942,288.681z"/>
<path d="M348.942,321.362H221.147c-4.513,0-8.17,3.658-8.17,8.17c0,4.512,3.657,8.17,8.17,8.17h127.795
	c4.513,0,8.17-3.658,8.17-8.17C357.112,325.02,353.455,321.362,348.942,321.362z"/>
<path d="M221.147,370.383h84.221c4.513,0,8.17-3.658,8.17-8.17c0-4.512-3.657-8.17-8.17-8.17h-84.221c-4.513,0-8.17,3.658-8.17,8.17
	C212.977,366.725,216.634,370.383,221.147,370.383z"/>
<path d="M305.368,452.085h-84.221c-4.513,0-8.17,3.658-8.17,8.17c0,4.512,3.657,8.17,8.17,8.17h84.221c4.513,0,8.17-3.658,8.17-8.17
	C313.538,455.743,309.881,452.085,305.368,452.085z"/>
<path d="M348.942,419.404H221.147c-4.513,0-8.17,3.658-8.17,8.17c0,4.512,3.657,8.17,8.17,8.17h127.795
	c4.513,0,8.17-3.658,8.17-8.17C357.112,423.062,353.455,419.404,348.942,419.404z"/>
<path d="M188.466,288.681H60.67c-4.513,0-8.17,3.658-8.17,8.17v163.404c0,4.512,3.657,8.17,8.17,8.17h127.796
	c4.513,0,8.17-3.658,8.17-8.17V296.851C196.636,292.339,192.978,288.681,188.466,288.681z M180.296,452.085H68.84V305.021h111.456
	L180.296,452.085L180.296,452.085z"/>
</svg>