<?xml version="1.0" encoding="iso-8859-1"?>
<!-- Uploaded to: SVG Repo, www.svgrepo.com, Generator: SVG Repo Mixer Tools -->
<svg height="800px" width="800px" version="1.1" id="Layer_1" xmlns="http://www.w3.org/2000/svg" xmlns:xlink="http://www.w3.org/1999/xlink" 
	 viewBox="0 0 512 512" xml:space="preserve">
<g>
	<path style="fill:#285680;" d="M458.105,0C487.873,0,512,24.127,512,53.895v404.211c0-29.768-24.127-53.895-53.895-53.895
		s-53.895,24.127-53.895,53.895V53.895C404.211,24.127,428.337,0,458.105,0"/>
	<path style="fill:#4482C3;" d="M404.211,62.877v395.228c0-29.768,24.127-53.895,53.895-53.895S512,428.337,512,458.105v0.539
		C512,488.107,488.107,512,458.644,512H0V62.877H404.211z"/>
	<g>
		<path style="fill:#285680;" d="M134.737,152.702c-4.967,0-8.982-4.024-8.982-8.982V71.86c0-4.958,4.015-8.982,8.982-8.982
			s8.982,4.024,8.982,8.982v71.86C143.719,148.678,139.704,152.702,134.737,152.702"/>
		<path style="fill:#285680;" d="M134.737,296.421H8.982c-4.967,0-8.982-4.024-8.982-8.982s4.015-8.982,8.982-8.982h116.772v-62.877
			c0-4.958,4.015-8.982,8.982-8.982s8.982,4.024,8.982,8.982v71.86C143.719,292.397,139.704,296.421,134.737,296.421"/>
		<path style="fill:#285680;" d="M152.702,152.702h-35.93c-4.967,0-8.982-4.024-8.982-8.982s4.015-8.982,8.982-8.982h35.93
			c4.967,0,8.982,4.024,8.982,8.982S157.669,152.702,152.702,152.702"/>
		<path style="fill:#285680;" d="M152.702,224.561h-35.93c-4.967,0-8.982-4.024-8.982-8.982s4.015-8.982,8.982-8.982h35.93
			c4.967,0,8.982,4.024,8.982,8.982S157.669,224.561,152.702,224.561"/>
		<path style="fill:#285680;" d="M233.544,206.596c-4.967,0-8.982-4.024-8.982-8.982v-35.93c0-4.958,4.015-8.982,8.982-8.982
			c4.967,0,8.982,4.024,8.982,8.982v35.93C242.526,202.572,238.511,206.596,233.544,206.596"/>
		<path style="fill:#285680;" d="M305.404,206.596c-4.967,0-8.982-4.024-8.982-8.982v-35.93c0-4.958,4.015-8.982,8.982-8.982
			c4.967,0,8.982,4.024,8.982,8.982v35.93C314.386,202.572,310.371,206.596,305.404,206.596"/>
		<path style="fill:#285680;" d="M134.737,512c-4.967,0-8.982-4.024-8.982-8.982V395.228c0-4.958,4.015-8.982,8.982-8.982h71.86
			c4.967,0,8.982,4.024,8.982,8.982c0,4.958-4.015,8.982-8.982,8.982h-62.877v98.807C143.719,507.976,139.704,512,134.737,512"/>
		<path style="fill:#285680;" d="M350.316,512c-4.967,0-8.982-4.024-8.982-8.982v-98.807h-62.877c-4.967,0-8.982-4.024-8.982-8.982
			c0-4.958,4.015-8.982,8.982-8.982h71.86c4.967,0,8.982,4.024,8.982,8.982v107.789C359.298,507.976,355.283,512,350.316,512"/>
		<path style="fill:#285680;" d="M206.596,422.175c-4.967,0-8.982-4.024-8.982-8.982v-35.93c0-4.958,4.015-8.982,8.982-8.982
			s8.982,4.024,8.982,8.982v35.93C215.579,418.151,211.564,422.175,206.596,422.175"/>
		<path style="fill:#285680;" d="M278.456,422.175c-4.967,0-8.982-4.024-8.982-8.982v-35.93c0-4.958,4.015-8.982,8.982-8.982
			s8.982,4.024,8.982,8.982v35.93C287.439,418.151,283.423,422.175,278.456,422.175"/>
		<path style="fill:#285680;" d="M233.544,188.636h-44.912c-4.967,0-8.982-4.024-8.982-8.982V71.864
			c0-4.958,4.015-8.982,8.982-8.982c4.967,0,8.982,4.024,8.982,8.982v98.807h35.93c4.967,0,8.982,4.024,8.982,8.982
			S238.511,188.636,233.544,188.636"/>
		<path style="fill:#285680;" d="M359.298,188.636h-53.895c-4.967,0-8.982-4.024-8.982-8.982s4.015-8.982,8.982-8.982h44.912V71.864
			c0-4.958,4.015-8.982,8.982-8.982c4.967,0,8.982,4.024,8.982,8.982v107.789C368.281,184.612,364.266,188.636,359.298,188.636"/>
		<path style="fill:#285680;" d="M8.982,449.123c-4.967,0-8.982-4.024-8.982-8.982c0-4.958,4.015-8.982,8.982-8.982
			c51.46,0,93.849-39.532,98.403-89.825H8.982c-4.967,0-8.982-4.024-8.982-8.982c0-4.958,4.015-8.982,8.982-8.982h107.789
			c4.967,0,8.982,4.024,8.982,8.982C125.754,396.737,73.369,449.123,8.982,449.123"/>
	</g>
</g>
</svg>