<?xml version="1.0" encoding="iso-8859-1"?>
<!-- Uploaded to: SVG Repo, www.svgrepo.com, Generator: SVG Repo Mixer Tools -->
<svg height="800px" width="800px" version="1.1" id="Layer_1" xmlns="http://www.w3.org/2000/svg" xmlns:xlink="http://www.w3.org/1999/xlink" 
	 viewBox="0 0 493.6 493.6" xml:space="preserve">
<path style="fill:#515B5A;" d="M106.38,478.4c-4.8,0-8.8-4-8.8-8.8V58.4c0-4.8,4-8.8,8.8-8.8h343.2c4.8,0,8.8,4,8.8,8.8v410.4
	c0,4.8-4,8.8-8.8,8.8h-343.2V478.4z"/>
<g>
	<path style="fill:#6B7776;" d="M443.18,65.6v396.8h-329.6V65.6H443.18 M450.38,33.6h-344c-13.6,0-24.8,11.2-24.8,24.8v410.4
		c0,13.6,11.2,24.8,24.8,24.8h343.2c13.6,0,24.8-11.2,24.8-24.8V58.4C475.18,44.8,463.98,33.6,450.38,33.6L450.38,33.6z"/>
	<path style="fill:#6B7776;" d="M450.38,49.6h-344c-4.8,0-8.8,4-8.8,8.8v410.4c0,3.2,1.6,5.6,4,7.2l355.2-424
		C455.18,50.4,452.78,49.6,450.38,49.6z"/>
</g>
<path style="fill:#515B5A;" d="M467.18,40c-4.8-4-10.4-6.4-16.8-6.4h-344c-13.6,0-24.8,11.2-24.8,24.8v410.4c0,8,4,15.2,9.6,19.2
	l22.4-26.4v-396h329.6v3.2L467.18,40z"/>
<g>
	<path style="fill:#E8EFEE;" d="M187.98,153.6h188c6.4,0,12-5.6,12-12s-5.6-12-12-12h-188c-6.4,0-12,5.6-12,12
		C175.98,148.8,181.58,153.6,187.98,153.6z"/>
	<path style="fill:#E8EFEE;" d="M187.98,219.2h108.8c6.4,0,12-5.6,12-12s-5.6-12-12-12h-108.8c-6.4,0-12,5.6-12,12
		S181.58,219.2,187.98,219.2z"/>
	<path style="fill:#E8EFEE;" d="M375.98,261.6h-188c-6.4,0-12,5.6-12,12s5.6,12,12,12h188c6.4,0,12-5.6,12-12
		S383.18,261.6,375.98,261.6z"/>
	<path style="fill:#E8EFEE;" d="M296.78,327.2h-108.8c-6.4,0-12,5.6-12,12s5.6,12,12,12h108.8c6.4,0,12-5.6,12-12
		C308.78,332,303.18,327.2,296.78,327.2z"/>
</g>
<path style="fill:#B1BAB9;" d="M183.98,149.6h188c6.4,0,12-5.6,12-12s-5.6-12-12-12h-188c-6.4,0-12,5.6-12,12
	C171.98,144,177.58,149.6,183.98,149.6z"/>
<path style="fill:#9AA5A4;" d="M183.98,214.4h108.8c6.4,0,12-5.6,12-12s-5.6-12-12-12h-108.8c-6.4,0-12,5.6-12,12
	C171.98,208.8,177.58,214.4,183.98,214.4z"/>
<path style="fill:#B1BAB9;" d="M371.98,256.8h-188c-6.4,0-12,5.6-12,12s5.6,12,12,12h188c6.4,0,12-5.6,12-12
	S379.18,256.8,371.98,256.8z"/>
<path style="fill:#9AA5A4;" d="M292.78,322.4h-108.8c-6.4,0-12,5.6-12,12s5.6,12,12,12h108.8c6.4,0,12-5.6,12-12
	C304.78,327.2,299.18,322.4,292.78,322.4z"/>
<path style="fill:#E8EFEE;" d="M43.98,444.8c-4.8,0-8.8-4-8.8-8.8V25.6c0-4.8,4-8.8,8.8-8.8h343.2c4.8,0,8.8,4,8.8,8.8V436
	c0,4.8-4,8.8-8.8,8.8L43.98,444.8L43.98,444.8z"/>
<path style="fill:#9AA5A4;" d="M380.78,32v396.8H51.18V32H380.78 M387.98,0h-344c-13.6,0-24.8,11.2-24.8,24.8v410.4
	c0,13.6,11.2,24.8,24.8,24.8h343.2c13.6,0,24.8-11.2,24.8-24.8V25.6C412.78,11.2,401.58,0,387.98,0L387.98,0z"/>
<path style="fill:#FFFFFF;" d="M387.98,16h-344c-4.8,0-8.8,4-8.8,9.6V436c0,3.2,1.6,5.6,4,7.2l355.2-424
	C392.78,17.6,390.38,16,387.98,16z"/>
<path style="fill:#B3BCBB;" d="M404.78,7.2c-4.8-4-10.4-6.4-16.8-6.4h-344c-13.6,0-24.8,11.2-24.8,24.8V436c0,8,4,15.2,9.6,19.2
	l22.4-26.4V32h329.6v3.2L404.78,7.2z"/>
<g>
	<path style="fill:#E8EFEE;" d="M126.38,120.8h188c6.4,0,12-5.6,12-12s-5.6-12-12-12h-188c-6.4,0-12,5.6-12,12
		C114.38,115.2,119.18,120.8,126.38,120.8z"/>
	<path style="fill:#E8EFEE;" d="M126.38,185.6h108.8c6.4,0,12-5.6,12-12s-5.6-12-12-12h-108.8c-6.4,0-12,5.6-12,12
		C114.38,180.8,119.18,185.6,126.38,185.6z"/>
	<path style="fill:#E8EFEE;" d="M314.38,228.8h-188c-6.4,0-12,5.6-12,12s5.6,12,12,12h188c6.4,0,12-5.6,12-12
		C326.38,234.4,320.78,228.8,314.38,228.8z"/>
	<path style="fill:#E8EFEE;" d="M234.38,293.6h-108c-6.4,0-12,5.6-12,12s5.6,12,12,12h108.8c6.4,0,12-5.6,12-12
		S241.58,293.6,234.38,293.6z"/>
</g>
<path style="fill:#B1BAB9;" d="M122.38,116h188c6.4,0,12-5.6,12-12s-5.6-12-12-12h-188c-6.4,0-12,5.6-12,12
	C110.38,111.2,115.18,116,122.38,116z"/>
<path style="fill:#9AA5A4;" d="M122.38,180.8h108.8c6.4,0,12-5.6,12-12s-5.6-12-12-12h-108.8c-6.4,0-12,5.6-12,12
	C110.38,176,115.18,180.8,122.38,180.8z"/>
<path style="fill:#B1BAB9;" d="M310.38,224h-188c-6.4,0-12,5.6-12,12s5.6,12,12,12h188c6.4,0,12-5.6,12-12S316.78,224,310.38,224z"
	/>
<path style="fill:#9AA5A4;" d="M230.38,288.8h-108c-6.4,0-12,5.6-12,12s5.6,12,12,12h108.8c6.4,0,12-5.6,12-12
	C242.38,294.4,237.58,288.8,230.38,288.8z"/>
</svg>