<?xml version="1.0" encoding="iso-8859-1"?>
<!-- Uploaded to: SVG Repo, www.svgrepo.com, Generator: SVG Repo Mixer Tools -->
<svg version="1.1" id="Layer_1" xmlns="http://www.w3.org/2000/svg" xmlns:xlink="http://www.w3.org/1999/xlink" 
	 viewBox="0 0 512 512" xml:space="preserve">
<path style="fill:#ECF0F1;" d="M447.26,39.988v393.939l-0.055-0.044c-1.26-24.234-21.304-43.492-45.858-43.492H117.166V11.055
	h301.162C434.302,11.055,447.26,24.001,447.26,39.988z"/>
<path style="fill:#9E9E9E;" d="M447.26,436.292v18.75c0,25.35-20.552,45.902-45.913,45.902H92.379
	c-15.268,0-27.639-12.371-27.639-27.639c0-3.438,0.63-6.744,1.791-9.784c1.393-3.704,3.56-7.02,6.302-9.762
	c4.997-4.997,11.918-8.093,19.546-8.093h303.649V390.39h5.318c24.554,0,44.598,19.259,45.858,43.492
	C447.238,434.678,447.26,435.485,447.26,436.292z"/>
<path style="fill:#E0E0E0;" d="M117.166,390.39h278.863v55.277H92.379c-7.628,0-14.549,3.095-19.546,8.093
	c-2.742,2.742-4.909,6.058-6.302,9.762c-1.161,3.04-1.791,6.346-1.791,9.784V84.762c0-15.975,12.946-28.932,28.921-28.932h23.504
	V390.39z"/>
<rect x="229.091" y="61.726" style="fill:#B71C1C;" width="132.665" height="121.61"/>
<g>
	<path style="fill:#231F20;" d="M458.315,39.988C458.315,17.939,440.376,0,418.327,0H117.166c-6.105,0-11.055,4.951-11.055,11.055
		v33.719H93.662c-22.042,0-39.977,17.939-39.977,39.988v388.544c0,21.336,17.358,38.694,38.694,38.694h308.968
		c31.412,0,56.968-25.551,56.968-56.959V39.988z M128.221,22.111h290.106c9.857,0,17.877,8.02,17.877,17.877V391.22
		c-9.651-7.462-21.757-11.886-34.857-11.886H128.221V22.111z M75.796,84.762c0-9.857,8.014-17.877,17.866-17.877h12.448V390.39
		c0,6.105,4.951,11.055,11.055,11.055h267.807v33.166H92.379c-5.833,0-11.467,1.28-16.583,3.708V84.762z M436.204,455.042
		c0,19.215-15.637,34.848-34.857,34.848H92.379c-8.879,0-16.128-7.018-16.543-15.795c0,0-0.792-6.91,4.815-12.517
		c3.13-3.13,7.295-4.854,11.728-4.854h303.649c6.105,0,11.055-4.951,11.055-11.055v-43.743c15.865,2.625,28.19,15.941,29.076,32.479
		C436.185,435.028,436.204,455.042,436.204,455.042z"/>
	<path style="fill:#231F20;" d="M184.873,346.26c6.105,0,11.055-4.951,11.055-11.055V64.346c0-6.105-4.951-11.055-11.055-11.055
		c-6.105,0-11.055,4.951-11.055,11.055v270.859C173.817,341.311,178.768,346.26,184.873,346.26z"/>
	<path style="fill:#231F20;" d="M229.094,346.26c6.105,0,11.055-4.951,11.055-11.055v-98.803c0-6.105-4.951-11.055-11.055-11.055
		c-6.105,0-11.055,4.951-11.055,11.055v98.803C218.039,341.311,222.99,346.26,229.094,346.26z"/>
	<path style="fill:#231F20;" d="M273.316,225.347c-6.105,0-11.055,4.951-11.055,11.055v98.803c0,6.105,4.951,11.055,11.055,11.055
		s11.055-4.951,11.055-11.055v-98.803C284.372,230.297,279.422,225.347,273.316,225.347z"/>
	<path style="fill:#231F20;" d="M317.538,225.347c-6.105,0-11.055,4.951-11.055,11.055v98.803c0,6.105,4.951,11.055,11.055,11.055
		c6.105,0,11.055-4.951,11.055-11.055v-98.803C328.593,230.297,323.644,225.347,317.538,225.347z"/>
	<path style="fill:#231F20;" d="M361.76,225.347c-6.105,0-11.055,4.951-11.055,11.055v98.803c0,6.105,4.951,11.055,11.055,11.055
		c6.105,0,11.055-4.951,11.055-11.055v-98.803C372.815,230.297,367.866,225.347,361.76,225.347z"/>
	<path style="fill:#231F20;" d="M229.094,194.391H361.76c6.105,0,11.055-4.951,11.055-11.055V61.726
		c0-6.105-4.951-11.055-11.055-11.055H229.094c-6.105,0-11.055,4.951-11.055,11.055v121.61
		C218.039,189.441,222.99,194.391,229.094,194.391z M240.15,72.781h110.555v99.499H240.15L240.15,72.781L240.15,72.781z"/>
</g>
</svg>