<?xml version="1.0" encoding="iso-8859-1"?>

<!DOCTYPE svg PUBLIC "-//W3C//DTD SVG 1.1//EN" "http://www.w3.org/Graphics/SVG/1.1/DTD/svg11.dtd">
<!-- Uploaded to: SVG Repo, www.svgrepo.com, Generator: SVG Repo Mixer Tools -->
<svg height="800px" width="800px" version="1.1" id="_x34_" xmlns="http://www.w3.org/2000/svg" xmlns:xlink="http://www.w3.org/1999/xlink" 
	 viewBox="0 0 512 512"  xml:space="preserve">
<g>
	<g>
		<path style="fill:#DECA94;" d="M392.59,189.479l-9.721,19.076v0.061l-15.836,31.182h-0.061l-0.428,0.917l-0.978,1.835
			l-25.496,22.806l-0.061,0.061l-0.673,0.611l-27.758,24.824l-0.367,0.306l-23.906,21.338l-3.546,3.18l-0.795,0.733l-5.38,4.769
			l-0.856,0.796h-0.061l-19.015,17.058h-0.061c-0.367,0.366-0.795,0.672-1.162,1.04l-0.306,0.306l-1.712,1.528l-0.367-0.367
			l-12.351-13.818l-3.546-3.974l-4.769-5.319l-3.302-3.73l-0.367-0.366l-3.363-3.792l-17.609-19.687l-3.668-4.096v-0.061
			l-1.712-1.896l-1.957-2.14l-0.183-0.184l-17.12-19.26l-3.669-4.035v-0.061l-3.668-4.036l-17.425-19.566l-3.546-3.974l10.639-9.538
			l11.311-10.149l32.222-28.798l21.889-19.565l15.835-14.184l5.442-4.83l3.179-1.529l39.803-19.626h0.061l7.276-3.608l11.495-5.686
			l27.758,26.963L392.59,189.479z"/>
		<polygon style="fill:#FFFFFF;" points="479.106,138.303 416.252,194.492 408.976,200.973 390.695,217.359 382.869,208.616 
			382.869,208.555 331.999,151.693 303.446,119.716 294.764,109.994 313.045,93.669 320.321,87.127 383.236,30.999 416.008,67.684 
					"/>
		<polygon style="opacity:0.07;fill:#040000;" points="497.387,121.978 479.106,138.303 416.252,194.492 408.976,200.973 
			349.363,134.329 313.045,93.669 320.321,87.127 400.477,15.469 401.456,14.614 416.864,31.855 433.372,50.32 		"/>
		<polygon style="fill:#3B3B44;" points="512,123.629 510.227,125.219 423.589,202.685 416.252,194.492 356.272,127.42 
			320.321,87.127 313.045,78.996 392.774,7.765 401.456,0 440.281,43.411 		"/>
		<g>
			<polygon style="fill:#FCF4DD;" points="357.495,231.789 357.067,232.278 333.1,259.119 333.038,259.18 332.427,259.852 
				307.726,287.427 307.42,287.794 287.549,310.049 283.086,315.063 282.535,315.675 277.583,321.177 258.935,342.026 
				258.813,342.21 258.262,341.721 256.428,340.07 238.147,323.745 232.766,318.915 229.342,315.858 228.67,315.246 
				225.185,312.128 206.414,295.375 205.008,294.153 200.911,290.484 200.911,290.423 196.876,286.816 196.815,286.755 
				177.25,269.329 173.153,265.661 173.153,265.599 169.057,261.992 147.657,242.855 146.801,241.082 146.251,240.042 
				143.622,234.967 129.804,207.821 120.633,189.784 198.283,114.335 208.737,119.471 223.717,126.869 230.015,129.987 
				246.706,138.242 256.306,142.95 260.097,144.784 274.954,158.052 301.734,181.957 323.867,201.767 			"/>
			<polygon style="fill:#FFFFFF;" points="217.236,109.994 208.737,119.471 129.804,207.821 121.305,217.359 103.024,200.973 
				95.748,194.492 32.894,138.303 128.764,30.999 191.679,87.127 198.955,93.669 			"/>
			<polygon style="opacity:0.07;fill:#040000;" points="198.955,93.669 103.024,200.973 95.748,194.492 32.894,138.303 
				14.613,121.978 61.325,69.702 110.544,14.614 113.662,17.365 191.679,87.127 			"/>
			<polygon style="fill:#494849;" points="198.955,78.996 191.679,87.127 95.748,194.492 88.411,202.685 53.744,171.686 0,123.629 
				110.544,0 121.366,9.661 			"/>
			<path style="fill:#FCF4DD;" d="M326.992,204.04c-7.618-6.808-19.314-6.152-26.122,1.467c-6.808,7.618-6.152,19.314,1.467,26.122
				l44.855,40.087c7.618,6.808,19.314,6.152,26.122-1.467c6.809-7.618,6.152-19.314-1.466-26.122L326.992,204.04z"/>
			<path style="fill:#FCF4DD;" d="M302.379,231.816c-7.618-6.809-19.514-5.928-26.569,1.966c-7.055,7.894-6.598,19.813,1.02,26.622
				l44.855,40.087c7.618,6.809,19.514,5.928,26.569-1.966c7.055-7.894,6.598-19.813-1.02-26.622L302.379,231.816z"/>
			<path style="fill:#FCF4DD;" d="M268.893,252.724c-7.618-6.808-19.314-6.152-26.122,1.467c-6.808,7.618-6.152,19.314,1.467,26.122
				l44.855,40.087c7.618,6.808,19.314,6.152,26.122-1.467c6.809-7.618,6.152-19.314-1.466-26.122L268.893,252.724z"/>
			<path style="fill:#FCF4DD;" d="M280.498,337.567c-4.928,5.511-12.413,7.375-19.055,5.408c-0.843-0.247-1.673-0.555-2.481-0.932
				c-0.24-0.11-0.48-0.226-0.713-0.35c-0.74-0.377-1.453-0.809-2.145-1.295c-0.034-0.021-0.069-0.041-0.103-0.069
				c-0.562-0.398-1.103-0.829-1.624-1.296l-12.653-11.31l-9.384-8.383l-3.29-2.947l-0.822-0.733l-3.359-3.002l-15.347-13.716
				c-1.2-1.069-2.228-2.262-3.078-3.544c-0.357-0.535-0.686-1.083-0.973-1.645c-0.946-1.789-1.576-3.701-1.885-5.662
				c-0.007-0.014-0.007-0.021-0.007-0.027c-0.171-1.083-0.247-2.18-0.226-3.276c0.027-1.487,0.233-2.968,0.623-4.414
				c0.72-2.721,2.077-5.312,4.079-7.554c3.002-3.359,6.957-5.367,11.097-5.97c1.001-0.151,2.022-0.219,3.037-0.192h0.007
				c1.57,0.027,3.132,0.254,4.654,0.679c0.254,0.069,0.5,0.144,0.747,0.219c2.365,0.775,4.606,2.036,6.58,3.797l18.274,16.334
				l2.762,2.468l1.693,1.515l2.481,2.214l19.645,17.561c0.884,0.788,1.673,1.645,2.365,2.557c0.418,0.535,0.795,1.097,1.138,1.666
				c0.151,0.24,0.288,0.487,0.418,0.733c0.72,1.316,1.268,2.707,1.638,4.133C286.112,326.333,284.789,332.762,280.498,337.567z"/>
		</g>
		<path style="fill:#DECA94;" d="M247.807,144.906l-0.122,4.403l-0.428,17.486l-0.367,16.142
			c-0.245,10.21-8.682,18.281-18.893,18.036c-9.966-0.245-17.792-8.132-18.037-17.915c-0.061-0.305-0.061-0.611-0.061-0.979
			l0.917-38.03c0.183-8.132,5.564-14.857,12.901-17.181c1.895-0.61,3.974-0.916,6.053-0.855c7.888,0.122,14.491,5.197,16.936,12.228
			C247.501,140.32,247.868,142.583,247.807,144.906z"/>
		<path style="opacity:0.04;fill:#040000;" d="M287.565,310.04c-0.041,0.823-0.117,1.638-0.24,2.454
			c-0.267,1.741-0.72,3.455-1.357,5.107c-0.391,1.001-0.843,1.981-1.378,2.934c-1.261,2.289-2.927,4.407-4.99,6.251l-18.157,16.19
			c-0.843-0.247-1.673-0.555-2.481-0.932l-0.144,0.158l-0.569-0.507c-0.74-0.377-1.453-0.809-2.145-1.295l-1.7,1.515l-0.336-0.377
			c-7.361,3.969-16.752,2.536-22.565-3.969c-3.393-3.797-4.928-8.602-4.675-13.318c0.144-2.721,0.891-5.408,2.221-7.855
			l-0.822-0.733l-5.319,4.736c-0.418,0.377-0.85,0.727-1.296,1.056v0.007c-7.595,5.655-18.397,4.675-24.827-2.529
			c-3.379-3.784-4.922-8.568-4.682-13.27v-0.007c0.226-4.435,2.043-8.794,5.401-12.146l-9.473,8.438
			c-0.37,0.336-0.754,0.651-1.152,0.946c-7.608,5.778-18.5,4.832-24.97-2.413c-4.167-4.661-5.538-10.851-4.222-16.512v-0.007
			c0.823-3.592,2.728-6.964,5.689-9.603l9.775-8.712l-0.014-0.014l-10.426,9.288c-2.728,2.433-5.97,3.914-9.329,4.455
			c-6.032,0.994-12.42-1.028-16.793-5.922c-6.813-7.622-6.155-19.316,1.467-26.122l5.305-4.723l47.028-20.78
			c0,0,9.891,5.056,11.714,8.497c1.823,3.441,0.802,5.751,0.432,8.609c0.507-0.041,1.028-0.055,1.542-0.055
			c6.827,0,13.346,2.92,17.89,8.006c3.413,3.811,5.374,8.424,5.922,13.161c3.393-1.768,7.177-2.714,11.063-2.714
			c0.514,0,1.021,0.014,1.529,0.048c6.265,0.404,12.16,3.256,16.361,7.958c4.956,5.545,6.854,12.777,5.819,19.604
			c0.315-0.014,0.63-0.021,0.946-0.021c6.827,0,13.346,2.92,17.89,8.006C285.858,297.798,287.853,303.974,287.565,310.04z"/>
		<path style="fill:#DECA94;" d="M298.249,159.886c-8.193-2.324-16.203-2.568-23.295-1.835c-16.019,1.773-27.636,8.743-27.636,8.743
			h-0.061l-15.407-3.301l-1.834-33.506l-0.245-3.974l66.339-2.69h0.061C296.17,123.324,325.09,167.468,298.249,159.886z"/>
		<path style="fill:#DECA94;" d="M196.778,240.022c-0.822,3.585-2.728,6.964-5.682,9.603l-10.673,9.507l-7.286,6.498l-10.426,9.288
			c-2.728,2.433-5.97,3.914-9.329,4.455c-6.032,0.994-12.42-1.028-16.793-5.922c-6.813-7.622-6.155-19.316,1.467-26.122l8.17-7.279
			l9.542-8.506l10.672-9.507c7.615-6.807,19.309-6.148,26.122,1.467C196.73,228.171,198.101,234.36,196.778,240.022z"/>
		<path style="fill:#DECA94;" d="M222.558,263.814c-0.048,0.953-0.171,1.906-0.364,2.845h-0.007
			c-0.72,3.475-2.454,6.779-5.162,9.425l-0.02,0.021c-0.192,0.192-0.391,0.377-0.59,0.555L205.1,286.741l-1.515,1.35l-2.666,2.372
			l-3.393,3.023c-0.007,0.007-0.014,0.014-0.021,0.021l-9.473,8.438c-0.37,0.336-0.754,0.651-1.152,0.946
			c-7.608,5.778-18.5,4.832-24.97-2.413c-4.167-4.661-5.538-10.851-4.222-16.512v-0.007c0.823-3.592,2.728-6.964,5.689-9.603
			l9.775-8.712l7.286-6.491l11.317-10.083c2.728-2.433,5.97-3.914,9.329-4.462c6.032-0.987,12.427,1.035,16.8,5.929
			C221.269,254.32,222.805,259.111,222.558,263.814z"/>
		<path style="fill:#DECA94;" d="M256.885,285.885c-0.37,1.467-0.918,2.893-1.659,4.25c0,0.007-0.007,0.014-0.014,0.021
			c-0.98,1.816-2.289,3.496-3.921,4.956l-21.557,19.199l-1.062,0.953l-0.445,0.398l-5.319,4.736
			c-0.418,0.377-0.85,0.727-1.296,1.056v0.007c-7.595,5.655-18.397,4.675-24.827-2.529c-3.379-3.784-4.922-8.568-4.682-13.27v-0.007
			c0.226-4.435,2.043-8.794,5.401-12.146c0.007-0.007,0.014-0.014,0.021-0.021c0.24-0.226,0.48-0.459,0.726-0.679l2.653-2.365
			l2.673-2.379l1.501-1.343l11.927-10.618l0.02-0.021l9.61-8.561c0.069-0.062,0.137-0.123,0.213-0.185
			c0.301-0.26,0.61-0.514,0.925-0.747c3.167-2.42,6.909-3.66,10.665-3.756c5.257-0.151,10.542,1.933,14.319,6.155
			C257.015,273.752,258.352,280.12,256.885,285.885z"/>
		<path style="fill:#DECA94;" d="M281.506,313.618c-0.034,0.123-0.069,0.254-0.11,0.384c-0.829,2.934-2.399,5.689-4.688,7.979
			c-0.007,0.007-0.014,0.014-0.021,0.021c-0.24,0.24-0.487,0.473-0.74,0.699l-18.322,16.334l-0.007,0.007
			c-0.398,0.35-0.802,0.685-1.22,1.001c-0.13,0.096-0.26,0.192-0.398,0.288c-0.624,0.446-1.268,0.843-1.933,1.206
			c-7.361,3.969-16.752,2.536-22.565-3.969c-3.393-3.797-4.928-8.602-4.675-13.318c0.144-2.721,0.891-5.408,2.221-7.855
			c0.096-0.178,0.192-0.356,0.301-0.528c0.226-0.397,0.473-0.781,0.74-1.158c0.809-1.172,1.769-2.269,2.879-3.263l18.322-16.334
			c1.7-1.522,3.605-2.666,5.614-3.441c0.007-0.007,0.014-0.014,0.027-0.014c1.343-0.521,2.735-0.884,4.147-1.069
			c5.895-0.816,12.071,1.22,16.334,5.991C281.711,301.383,283.034,307.812,281.506,313.618z"/>
	</g>
	<path style="opacity:0.04;fill:#040000;" d="M177.132,306.577c3.442-0.266,6.836-1.475,9.748-3.686
		c0.398-0.295,0.782-0.61,1.152-0.946l9.473-8.438c-3.359,3.352-5.175,7.711-5.401,12.146v0.007
		c-0.24,4.702,1.302,9.486,4.682,13.27c6.43,7.205,17.232,8.184,24.827,2.529v-0.007c0.446-0.329,0.878-0.678,1.296-1.056
		l5.319-4.736l0.822,0.734c-1.33,2.447-2.077,5.134-2.221,7.855c-0.253,4.716,1.282,9.521,4.675,13.318
		c5.813,6.505,15.203,7.938,22.565,3.969l0.336,0.376l1.7-1.514c0.692,0.487,1.405,0.919,2.145,1.295l0.569,0.508l0.144-0.158
		c0.809,0.377,1.638,0.686,2.481,0.932c6.642,1.967,14.127,0.103,19.055-5.408c4.291-4.805,5.614-11.234,4.092-17.033
		c0.534-0.951,0.986-1.93,1.375-2.929l3.127,2.794c7.618,6.808,19.314,6.151,26.122-1.467c5.909-6.612,6.177-16.286,1.17-23.18
		l5.301,4.736c7.618,6.809,19.514,5.929,26.568-1.966c7.055-7.893,6.599-19.813-1.02-26.621l-7.247-6.477l0.083-0.075l7.121,6.365
		c7.618,6.808,19.314,6.151,26.122-1.467c6.809-7.618,6.152-19.313-1.466-26.122l-4.863-4.346l15.884-31.225l7.842,8.776
		l25.554-22.838l7.308,8.177l88.418-79.018L440.288,43.42L177.132,306.577z"/>
</g>
</svg>