<?xml version="1.0" encoding="UTF-8" standalone="no"?>
<svg width="800px" height="800px" viewBox="0 -5 104 104" version="1.1" xmlns="http://www.w3.org/2000/svg" xmlns:xlink="http://www.w3.org/1999/xlink">
    <!-- Uploaded to: SVG Repo, www.svgrepo.com, Generator: SVG Repo Mixer Tools -->
    <title>19-multimeda-pic-picture-collection</title>
    <desc>Created with Sketch.</desc>
    <defs>
</defs>
    <g id="3.Multimedia" stroke="none" stroke-width="1" fill="none" fill-rule="evenodd" stroke-linecap="round" stroke-linejoin="round">
        <g id="Multimedia-(Color)" transform="translate(-1698.000000, -305.000000)" stroke="#263238" stroke-width="3.5">
            <g id="19-multimeda-pic-picture-collection" transform="translate(1700.000000, 307.000000)">
                <polygon id="Layer-1" fill="#FFFFFF" points="80 20 4.26325641e-14 20 4.26325641e-14 90 80 90">
</polygon>
                <polygon id="Layer-2" fill="#7BE380" points="36.0290728 89.4863281 11.5758057 63.9659405 50.2429917 29.4863281 80 60.5419078 80 89.4863281">
</polygon>
                <polygon id="Layer-3" fill="#7BE380" points="36.4547482 89.9076696 -1.32960174e-07 51.8863467 6.91741953e-07 89.9076693">
</polygon>
                <path d="M17,43 C13.6862915,43 11,40.3137085 11,37 C11,33.6862915 13.6862915,31 17,31 C20.3137085,31 23,33.6862915 23,37 C23,40.3137085 20.3137085,43 17,43 L17,43 Z" id="Layer-4" fill="#F7E07E">
</path>
                <polygon id="Layer-5" fill="#EBF1F5" points="90 15 90 10 10 10 10 20 80 20 80 80 90 80">
</polygon>
                <polygon id="Layer-6" fill="#EBF1F5" points="100 5 100 0 20 0 20 10 90 10 90 70 100 70">
</polygon>
            </g>
        </g>
    </g>
</svg>