<?xml version="1.0" encoding="utf-8"?>
<!-- Uploaded to: SVG Repo, www.svgrepo.com, Generator: SVG Repo Mixer Tools -->
<svg width="800px" height="800px" viewBox="0 0 1024 1024" class="icon"  version="1.1" xmlns="http://www.w3.org/2000/svg"><path d="M142.5 387h739.9v452.1H142.5z" fill="#FF5959" /><path d="M142.5 655.4h252.7v28.7H142.5zM629.8 655.4h252.7v28.7H629.8z" fill="#F2D383" /><path d="M142.5 576.9h82.8v39.8h-82.8zM673.9 599.4h82.8v39.8h-82.8zM610.2 762.4H693v39.8h-82.8zM741.5 387h82.8v39.8h-82.8zM799.7 702.7h82.8v39.8h-82.8zM300.1 443.7h82.8v39.8h-82.8zM189.3 370.9h82.8v39.8h-82.8zM256.9 713.1h82.8v39.8h-82.8z" fill="" /><path d="M960.3 874.5c0 4.2-3.5 7.7-7.7 7.7H72.5c-4.2 0-7.7-3.5-7.7-7.7v-27.6c0-4.2 3.5-7.7 7.7-7.7h880.1c4.2 0 7.7 3.5 7.7 7.7v27.6z" fill="#A4A9AD" /><path d="M395.2 591.9h234.6v247.2H395.2z" fill="#FFB819" /><path d="M498.2 591.9h28.7v247.2h-28.7z" fill="" /><path d="M882.5 390.8v-65.5c0-15.8-12.9-28.7-28.7-28.7H171.2c-15.8 0-28.7 12.9-28.7 28.7v65.5h740z" fill="#333E48" /><path d="M512.5 316.8m-161.4 0a161.4 161.4 0 1 0 322.8 0 161.4 161.4 0 1 0-322.8 0Z" fill="#FFFFFF" /><path d="M512.5 155.3c-89.2 0-161.5 72.3-161.5 161.5 0 6.6 0.4 13 1.2 19.4 0.2 0.4 0.3 0.7 0.4 1 1.4-10.5 3.9-20.6 7.3-30.3l152.6 152.6 152.6-152.6c3.3 9.7 5.8 19.8 7.3 30.3 0-0.3 0.2-0.6 0.4-0.9 0.8-6.4 1.2-12.9 1.2-19.4-0.1-89.3-72.3-161.6-161.5-161.6z" fill="" /><path d="M512.5 169.6c-81.1 0-147.1 66-147.1 147.1s66 147.1 147.1 147.1 147.1-66 147.1-147.1-66-147.1-147.1-147.1z m0 322.9c-96.9 0-175.8-78.9-175.8-175.8S415.6 141 512.5 141s175.8 78.9 175.8 175.8-78.9 175.7-175.8 175.7z" fill="#333E48" /><path d="M330.9 268.2l181.6 181.6 184.7-184.7c-102.3-98.8-265.4-97.8-366.3 3.1z" fill="#D68231" /><path d="M376.5 313.9l136 136 139.1-139.1c-77.1-73.8-199.3-72.8-275.1 3.1z" fill="#F2D383" /><path d="M476.3 413.7c21.4-21.4 21.4-56 0-77.3-21.4-21.4-56-21.4-77.3 0l77.3 77.3zM534.4 317.1c-21.4 21.4-21.4 56 0 77.3 6 6 13.1 10.3 20.6 13l69.7-69.7c-2.6-7.5-6.9-14.6-13-20.6-21.3-21.3-56-21.3-77.3 0z" fill="#A93439" /><path d="M651.6 310.8c-77-73.8-199.3-72.8-275.1 3l17.2 17.2c64.1-64.1 167.9-64.1 232 0 0.9 0.9 1.8 1.9 2.7 2.9l23.2-23.1z" fill="" /><path d="M828.2 493.5c0-10.5-8.6-19.1-19.1-19.1H693c-10.5 0-19.1 8.6-19.1 19.1v56.3c0 10.5 8.6 19.1 19.1 19.1h116.1c10.5 0 19.1-8.6 19.1-19.1v-56.3z" fill="#FFFFFF" /><path d="M809.1 474.4H693c-10.5 0-19.1 8.6-19.1 19.1v27.4c0-10.5 8.6-19.1 19.1-19.1h116.1c10.5 0 19.1 8.6 19.1 19.1v-27.4c0-10.5-8.6-19.1-19.1-19.1z" fill="" /><path d="M693 488.7c-2.6 0-4.8 2.2-4.8 4.8v56.3c0 2.6 2.2 4.8 4.8 4.8h116.1c2.6 0 4.8-2.2 4.8-4.8v-56.3c0-2.6-2.2-4.8-4.8-4.8H693z m116.1 94.6H693c-18.4 0-33.4-15-33.4-33.4v-56.3c0-18.4 15-33.4 33.4-33.4h116.1c18.4 0 33.4 15 33.4 33.4v56.3c0 18.4-15 33.4-33.4 33.4z" fill="#333E48" /><path d="M196.8 493.5c0-10.5 8.6-19.1 19.1-19.1H332c10.5 0 19.1 8.6 19.1 19.1v56.3c0 10.5-8.6 19.1-19.1 19.1H215.9c-10.5 0-19.1-8.6-19.1-19.1v-56.3z" fill="#FFFFFF" /><path d="M215.9 474.4H332c10.5 0 19.1 8.6 19.1 19.1v27.4c0-10.5-8.6-19.1-19.1-19.1H215.9c-10.5 0-19.1 8.6-19.1 19.1v-27.4c0-10.5 8.6-19.1 19.1-19.1z" fill="" /><path d="M215.9 488.7c-2.6 0-4.8 2.2-4.8 4.8v56.3c0 2.6 2.2 4.8 4.8 4.8H332c2.6 0 4.8-2.2 4.8-4.8v-56.3c0-2.6-2.2-4.8-4.8-4.8H215.9z m116 94.6h-116c-18.4 0-33.4-15-33.4-33.4v-56.3c0-18.4 15-33.4 33.4-33.4H332c18.4 0 33.4 15 33.4 33.4v56.3c0 18.4-15 33.4-33.5 33.4zM280.9 839.1h463.2v43.1H280.9z" fill="#333E48" /><path d="M921.1 839.1c0-55-44.6-99.6-99.6-99.6-55 0-99.6 44.6-99.6 99.6h199.2zM300.2 839.1c0-55-44.6-99.6-99.6-99.6S101 784.1 101 839.1h199.2z" fill="#00AD68" /><path d="M644.1 839.1h-28.7V606.2H409.5v232.9h-28.7V591.9c0-7.9 6.4-14.3 14.3-14.3h234.6c7.9 0 14.3 6.4 14.3 14.3l0.1 247.2z" fill="#333E48" /></svg>