<?xml version="1.0" encoding="iso-8859-1"?>
<!-- Uploaded to: SVG Repo, www.svgrepo.com, Generator: SVG Repo Mixer Tools -->
<svg version="1.1" id="Layer_1" xmlns="http://www.w3.org/2000/svg" xmlns:xlink="http://www.w3.org/1999/xlink" 
	 viewBox="0 0 501.551 501.551" xml:space="preserve">
<path style="fill:#CDD6E0;" d="M480.653,0H20.898C9.404,0,0,9.404,0,20.898v459.755c0,11.494,9.404,20.898,20.898,20.898h459.755
	c11.494,0,20.898-9.404,20.898-20.898V20.898C501.551,9.404,492.147,0,480.653,0z"/>
<rect x="36.362" y="80.206" style="fill:#FFFFFF;" width="428.408" height="384.522"/>
<g>
	<circle style="fill:#F2F2F2;" cx="438.857" cy="39.706" r="13.584"/>
	<circle style="fill:#F2F2F2;" cx="394.971" cy="39.706" r="13.584"/>
	<circle style="fill:#F2F2F2;" cx="350.041" cy="39.706" r="13.584"/>
</g>
<g>
	<rect x="198.531" y="212.114" style="fill:#4CDBC4;" width="236.147" height="24.033"/>
	<rect x="198.531" y="169.273" style="fill:#4CDBC4;" width="236.147" height="24.033"/>
</g>
<g>
	<rect x="329.143" y="415.869" style="fill:#CDD6E0;" width="63.739" height="24.033"/>
	<rect x="329.143" y="371.984" style="fill:#CDD6E0;" width="104.49" height="24.033"/>
	<rect x="198.531" y="415.869" style="fill:#CDD6E0;" width="63.739" height="24.033"/>
	<rect x="198.531" y="371.984" style="fill:#CDD6E0;" width="104.49" height="24.033"/>
	<rect x="66.873" y="415.869" style="fill:#CDD6E0;" width="63.739" height="24.033"/>
	<rect x="66.873" y="371.984" style="fill:#CDD6E0;" width="104.49" height="24.033"/>
</g>
<rect x="66.873" y="266.449" style="fill:#FFD15C;" width="104.49" height="75.233"/>
<rect x="198.531" y="266.449" style="fill:#FF7058;" width="104.49" height="75.233"/>
<rect x="329.143" y="266.449" style="fill:#ACB3BA;" width="104.49" height="75.233"/>
<rect x="67.803" y="108.575" style="fill:#F1543F;" width="104.49" height="127.478"/>
<path style="fill:#FFFFFF;" d="M154.645,174.498l7.314-4.18l-2.09-8.359l-8.359-1.045c-1.045-2.09-2.09-4.18-3.135-6.269l4.18-7.314
	l-6.269-6.269l-7.314,4.18c-2.09-1.045-4.18-2.09-6.269-3.135l-2.09-10.449l-9.404-1.045l-3.135,7.314c-2.09,0-5.224,0-7.314,1.045
	l-6.269-6.269l-8.359,4.18l1.045,8.359c-1.045,1.045-2.09,1.045-3.135,2.09l0,0c-1.045,1.045-2.09,2.09-2.09,3.135l-8.359-1.045
	l-4.18,8.359l6.269,6.269c-1.045,2.09-1.045,5.224-1.045,7.314l-7.314,4.18l1.045,9.404l8.359,1.045
	c1.045,2.09,2.09,4.18,3.135,6.269l-4.18,7.314l6.269,6.269l7.314-4.18c2.09,1.045,4.18,2.09,6.269,3.135l1.045,8.359l9.404,1.045
	l3.135-7.314c2.09,0,5.224,0,7.314-1.045l6.269,6.269l8.359-4.18l0-8.359c1.045-1.045,2.09-1.045,3.135-2.09l0,0
	c1.045-1.045,2.09-2.09,2.09-3.135l8.359,1.045l4.18-8.359l-6.269-6.269C153.6,179.722,154.645,176.588,154.645,174.498z
	 M119.118,192.261c-10.449,0-19.853-8.359-19.853-19.853c0-5.224,2.09-10.449,6.269-13.584c3.135-3.135,8.359-6.269,13.584-6.269
	c10.449,0,19.853,8.359,19.853,19.853c0,5.224-2.09,10.449-6.269,13.584C129.567,190.171,125.388,192.261,119.118,192.261z"/>
</svg>