<?xml version="1.0" ?><!-- Uploaded to: SVG Repo, www.svgrepo.com, Generator: SVG Repo Mixer Tools -->
<svg width="800px" height="800px" viewBox="0 0 50 50" data-name="Layer 1" id="Layer_1" xmlns="http://www.w3.org/2000/svg"><defs><style>.cls-1{fill:#231f20;}.cls-2{fill:#ff8e5a;}.cls-3{fill:#ffffff;}.cls-4{fill:#d12200;}.cls-5{fill:#00a1d3;}.cls-6{fill:#7cc05b;}</style></defs><title/><path class="cls-1" d="M44.067,4.5H5.933A1.435,1.435,0,0,0,4.5,5.933V7.876A1.435,1.435,0,0,0,5.933,9.309H7.379V35.528a2.5,2.5,0,0,0,1.494,2.285l-1.41,4.936A2.157,2.157,0,0,0,9.538,45.5h.176a2.169,2.169,0,0,0,2.075-1.564l1.687-5.908H36.524l1.687,5.908A2.169,2.169,0,0,0,40.286,45.5h.176a2.157,2.157,0,0,0,2.075-2.751l-1.41-4.936a2.5,2.5,0,0,0,1.494-2.285V9.309h1.446A1.435,1.435,0,0,0,45.5,7.876V5.933A1.435,1.435,0,0,0,44.067,4.5Z"/><path class="cls-2" d="M10.827,43.66a1.163,1.163,0,0,1-1.113.84H9.538a1.157,1.157,0,0,1-1.113-1.476l1.428-5,.026,0h2.557Z"/><path class="cls-2" d="M41.575,43.024A1.157,1.157,0,0,1,40.462,44.5h-.176a1.163,1.163,0,0,1-1.113-.84l-1.609-5.632h2.557l.026,0Z"/><path class="cls-3" d="M41.621,35.528a1.5,1.5,0,0,1-1.5,1.5H9.879a1.5,1.5,0,0,1-1.5-1.5V9.309H41.621Z"/><rect class="cls-2" height="2.809" rx="0.433" width="39" x="5.5" y="5.5"/><path class="cls-1" d="M25.344,26.563H39.1a.5.5,0,0,0,0-1H37.825V15.287a.5.5,0,1,0-1,0V25.563h-2.4V17.35a.5.5,0,0,0-1,0v8.213h-2.4V19.682a.5.5,0,1,0-1,0v5.881h-2.4V22.089a.5.5,0,0,0-1,0v3.474H25.344a.5.5,0,0,0,0,1Z"/><circle class="cls-1" cx="16.745" cy="20.14" r="6.347"/><path class="cls-4" d="M22.042,19.64h-4.8v-4.8A5.319,5.319,0,0,1,22.042,19.64Z"/><path class="cls-5" d="M16.245,14.844v4.332L12.7,16.681A5.3,5.3,0,0,1,16.245,14.844Z"/><path class="cls-6" d="M12.125,17.5l4.332,3.052c.009.006.021,0,.031.01a.488.488,0,0,0,.256.081h5.3a5.333,5.333,0,0,1-10.644-.5A5.281,5.281,0,0,1,12.125,17.5Z"/><path class="cls-1" d="M39.1,28.965H19.182a.5.5,0,0,0,0,1H39.1a.5.5,0,0,0,0-1Z"/><path class="cls-1" d="M39.1,31.889H19.182a.5.5,0,0,0,0,1H39.1a.5.5,0,0,0,0-1Z"/></svg>