<?xml version="1.0" encoding="iso-8859-1"?>
<!-- Uploaded to: SVG Repo, www.svgrepo.com, Generator: SVG Repo Mixer Tools -->
<svg version="1.1" id="Layer_1" xmlns="http://www.w3.org/2000/svg" xmlns:xlink="http://www.w3.org/1999/xlink" 
	 viewBox="0 0 512 512" xml:space="preserve">
<path style="fill:#415E72;" d="M0,355.2v-324c0.104-5.704,4.696-10.296,10.4-10.4h491.2c5.704,0.104,10.296,4.696,10.4,10.4v324H0z"
	/>
<g>
	<path style="fill:#CFDCE5;" d="M512,355.2v41.6c-0.104,5.704-4.696,10.296-10.4,10.4H10.4c-5.704-0.104-10.296-4.696-10.4-10.4
		v-41.6H512z"/>
	<rect x="146.4" y="480.8" style="fill:#CFDCE5;" width="219.2" height="10.4"/>
</g>
<polygon style="fill:#AAC1CE;" points="328.8,480.8 183.2,480.8 193.6,407.2 318.4,407.2 "/>
<rect x="20.8" y="41.6" style="fill:#FFFFFF;" width="470.4" height="292.8"/>
<polygon style="fill:#8BA0AE;" points="318.4,407.2 193.6,407.2 187.792,448.28 320.272,420.424 "/>
<path style="fill:#415E72;" d="M426.512,106.584h-2.968l3.952,3.952l3.952-3.952h-2.968c0.008-3.272,2.656-5.92,5.928-5.928
	c0.96,0.016,1.912,0.256,2.768,0.688l1.48-1.48c-1.296-0.752-2.752-1.16-4.248-1.184C430.048,98.696,426.52,102.224,426.512,106.584
	L426.512,106.584z M440.344,106.584c-0.008,3.272-2.656,5.92-5.928,5.928c-0.96-0.016-1.912-0.256-2.768-0.688l-1.48,1.48
	c1.296,0.752,2.752,1.16,4.248,1.184c4.36-0.016,7.888-3.544,7.904-7.904h2.968l-3.952-3.952l-3.952,3.952H440.344z"/>
<path style="fill:#FFD07D;" d="M134.752,166.4c24.216,0.528,43.712,20.024,44.24,44.24H200
	c-0.536-35.816-29.448-64.728-65.264-65.264L134.752,166.4z"/>
<path style="fill:#E04F5F;" d="M179,212.472c-0.496,24.936-21.112,44.752-46.048,44.256c-8.736-0.176-17.24-2.88-24.472-7.792
	l-13.104,16.456c29.712,21.256,71.024,14.4,92.28-15.312c7.856-10.984,12.168-24.104,12.344-37.608H179z"/>
<path style="fill:#25B6D2;" d="M93.888,264.304l13.088-16.44c-20.048-14.84-24.272-43.128-9.432-63.176
	c8.32-11.24,21.376-17.992,35.36-18.288v-21.04c-36.544,0.488-65.768,30.504-65.28,67.04
	C67.896,232.832,77.584,251.984,93.888,264.304L93.888,264.304z"/>
<rect x="347.856" y="209.04" style="fill:#E04F5F;" width="13.872" height="25.184"/>
<rect x="364.624" y="168.16" style="fill:#25B6D2;" width="13.872" height="66.072"/>
<rect x="381.392" y="195.896" style="fill:#E04F5F;" width="13.872" height="38.352"/>
<rect x="398.152" y="136.96" style="fill:#25B6D2;" width="13.872" height="97.288"/>
<rect x="414.92" y="195.896" style="fill:#E04F5F;" width="13.872" height="38.352"/>
<rect x="431.688" y="195.896" style="fill:#25B6D2;" width="13.872" height="38.352"/>
<polygon style="fill:#53BAD8;" points="233.88,173.928 222.96,173.928 222.96,184.848 233.88,184.848 "/>
<rect x="222.96" y="205.16" style="fill:#E04F5F;" width="10.92" height="10.92"/>
<rect x="222.96" y="235.624" style="fill:#415E72;" width="10.92" height="10.92"/>
<rect x="242.56" y="178.384" style="fill:#53BAD8;" width="61.912" height="2"/>
<g>
	<rect x="66.44" y="113.12" style="fill:#415E72;" width="126.08" height="2"/>
	<rect x="347.856" y="247.256" style="fill:#415E72;" width="97.704" height="2"/>
	<rect x="66.44" y="98.624" style="fill:#415E72;" width="126.08" height="2"/>
</g>
<g>
	<rect x="242.56" y="209.6" style="fill:#E04F5F;" width="61.912" height="2"/>
	<rect x="119.24" y="198.688" style="fill:#E04F5F;" width="31.24" height="2"/>
</g>
<g>
	<rect x="107.984" y="209.6" style="fill:#415E72;" width="53.76" height="2"/>
	<rect x="107.984" y="217.2" style="fill:#415E72;" width="53.76" height="2"/>
	<rect x="242.56" y="240.08" style="fill:#415E72;" width="61.912" height="2"/>
</g>
</svg>