<?xml version="1.0" encoding="iso-8859-1"?>
<!-- Uploaded to: SVG Repo, www.svgrepo.com, Generator: SVG Repo Mixer Tools -->
<svg height="800px" width="800px" version="1.1" id="Layer_1" xmlns="http://www.w3.org/2000/svg" xmlns:xlink="http://www.w3.org/1999/xlink" 
	 viewBox="0 0 512 512" xml:space="preserve">
<g>
	<path style="fill:#5B5D6E;" d="M379.586,485.517v17.655c0,4.875,3.953,8.828,8.828,8.828h17.655c4.875,0,8.828-3.953,8.828-8.828
		v-17.655H379.586z"/>
	<path style="fill:#5B5D6E;" d="M97.103,485.517v17.655c0,4.875,3.953,8.828,8.828,8.828h17.655c4.875,0,8.828-3.953,8.828-8.828
		v-17.655H97.103z"/>
</g>
<path style="fill:#707487;" d="M414.897,494.345H97.103c-14.626,0-26.483-11.857-26.483-26.483V26.483
	C70.621,11.857,82.477,0,97.103,0h317.793c14.626,0,26.483,11.857,26.483,26.483v441.379
	C441.379,482.488,429.523,494.345,414.897,494.345z"/>
<path style="fill:#464655;" d="M397.241,459.034H114.759c-4.875,0-8.828-3.948-8.828-8.828V44.138c0-4.879,3.953-8.828,8.828-8.828
	h282.483c4.875,0,8.828,3.948,8.828,8.828v406.069C406.069,455.086,402.116,459.034,397.241,459.034z M123.586,441.379h264.828
	V52.966H123.586V441.379z"/>
<g>
	<path style="fill:#959CB3;" d="M123.586,158.897h-17.655c-4.875,0-8.828-3.953-8.828-8.828v-35.31c0-4.875,3.953-8.828,8.828-8.828
		h17.655c4.875,0,8.828,3.953,8.828,8.828v35.31C132.414,154.944,128.461,158.897,123.586,158.897z"/>
	<path style="fill:#959CB3;" d="M123.586,388.414h-17.655c-4.875,0-8.828-3.953-8.828-8.828v-35.31c0-4.875,3.953-8.828,8.828-8.828
		h17.655c4.875,0,8.828,3.953,8.828,8.828v35.31C132.414,384.461,128.461,388.414,123.586,388.414z"/>
</g>
<path style="fill:#5B5D6E;" d="M388.414,300.138l-14.411-4.803c-7.209-2.403-12.072-9.15-12.072-16.749v-62.826
	c0-7.599,4.863-14.346,12.072-16.749l14.411-4.803V300.138z"/>
<path style="fill:#464655;" d="M256,203.034c-29.204,0-52.966-23.762-52.966-52.966S226.796,97.103,256,97.103
	s52.966,23.762,52.966,52.966S285.204,203.034,256,203.034z M256,123.586c-14.603,0-26.483,11.88-26.483,26.483
	s11.88,26.483,26.483,26.483s26.483-11.88,26.483-26.483S270.603,123.586,256,123.586z"/>
<circle style="fill:#5B5D6E;" cx="256" cy="150.069" r="35.31"/>
<path style="fill:#464655;" d="M256,150.069c-4.875,0-8.828-3.948-8.828-8.828v-17.655c0-4.879,3.953-8.828,8.828-8.828
	s8.828,3.948,8.828,8.828v17.655C264.828,146.121,260.875,150.069,256,150.069z"/>
<circle style="fill:#959CB3;" cx="256" cy="150.069" r="17.655"/>
<circle style="fill:#5B5D6E;" cx="256" cy="308.966" r="35.31"/>
<path style="fill:#959CB3;" d="M324.979,259.699c-2.84-3.982-8.358-4.897-12.314-2.051L256,298.121l-56.664-40.474
	c-3.966-2.845-9.487-1.931-12.314,2.051c-2.831,3.966-1.913,9.483,2.056,12.31l58.095,41.497v66.081
	c0,4.879,3.953,8.828,8.828,8.828s8.828-3.948,8.828-8.828v-66.081l58.094-41.496C326.892,269.181,327.81,263.663,324.979,259.699z"
	/>
<circle style="fill:#AFB9D2;" cx="256" cy="308.966" r="17.655"/>
</svg>