<?xml version="1.0" ?><!-- Uploaded to: SVG Repo, www.svgrepo.com, Generator: SVG Repo Mixer Tools -->
<svg width="800px" height="800px" viewBox="0 0 96 96" xmlns="http://www.w3.org/2000/svg"><title/><path d="M14,2H82a4,4,0,0,1,4,4V86a8,8,0,0,1-8,8H18a8,8,0,0,1-8-8V6A4,4,0,0,1,14,2Z" style="fill:#575072"/><path d="M82,2H74a4,4,0,0,1,4,4V86a8,8,0,0,1-8,8h8a8,8,0,0,0,8-8V6A4,4,0,0,0,82,2Z" style="fill:#363354"/><path d="M18,2H78a0,0,0,0,1,0,0V82a4,4,0,0,1-4,4H22a4,4,0,0,1-4-4V2A0,0,0,0,1,18,2Z" style="fill:#eaeaea"/><path d="M18,2H78a0,0,0,0,1,0,0V82a4,4,0,0,1-4,4H22a4,4,0,0,1-4-4V2A0,0,0,0,1,18,2Z" style="fill:none;stroke:#281a3b;stroke-linecap:round;stroke-linejoin:round;stroke-width:4px"/><path d="M14,2H82a4,4,0,0,1,4,4V86a8,8,0,0,1-8,8H18a8,8,0,0,1-8-8V6A4,4,0,0,1,14,2Z" style="fill:none;stroke:#281a3b;stroke-linecap:round;stroke-linejoin:round;stroke-width:4px"/><path d="M33,2H63a0,0,0,0,1,0,0V9a4,4,0,0,1-4,4H37a4,4,0,0,1-4-4V2A0,0,0,0,1,33,2Z" style="fill:#575072"/><path d="M33,2H63a0,0,0,0,1,0,0V9a4,4,0,0,1-4,4H37a4,4,0,0,1-4-4V2A0,0,0,0,1,33,2Z" style="fill:none;stroke:#281a3b;stroke-linecap:round;stroke-linejoin:round;stroke-width:4px"/><polyline points="40 29 30.71 36 27 32.5" style="fill:none;stroke:#281a3b;stroke-linecap:round;stroke-linejoin:round;stroke-width:4px"/><line style="fill:none;stroke:#281a3b;stroke-linecap:round;stroke-linejoin:round;stroke-width:4px" x1="49" x2="69" y1="32" y2="32"/><polyline points="40 48 30.71 55 27 51.5" style="fill:none;stroke:#281a3b;stroke-linecap:round;stroke-linejoin:round;stroke-width:4px"/><line style="fill:none;stroke:#281a3b;stroke-linecap:round;stroke-linejoin:round;stroke-width:4px" x1="49" x2="69" y1="51" y2="51"/><polyline points="40 67 30.71 74 27 70.5" style="fill:none;stroke:#281a3b;stroke-linecap:round;stroke-linejoin:round;stroke-width:4px"/><line style="fill:none;stroke:#281a3b;stroke-linecap:round;stroke-linejoin:round;stroke-width:4px" x1="49" x2="69" y1="70" y2="70"/></svg>