<?xml version="1.0" encoding="iso-8859-1"?>
<!-- Uploaded to: SVG Repo, www.svgrepo.com, Generator: SVG Repo Mixer Tools -->
<svg height="800px" width="800px" version="1.1" id="Layer_1" xmlns="http://www.w3.org/2000/svg" xmlns:xlink="http://www.w3.org/1999/xlink" 
	 viewBox="0 0 511.883 511.883" xml:space="preserve">
<path style="fill:#AC92EB;" d="M10.654,383.913C4.765,383.913,0,388.693,0,394.582v106.647c0,5.89,4.765,10.654,10.654,10.654
	h490.543c5.904,0,10.686-4.765,10.686-10.654V394.582c0-5.889-4.781-10.669-10.686-10.669H10.654z"/>
<path style="fill:#5D9CEC;" d="M498.198,326.16l-40.834-98.524c-2.249-5.437-8.498-8.03-13.934-5.765L0.001,405.547v55.487
	l21.058,50.848h56.612L492.42,340.093C497.855,337.845,500.448,331.612,498.198,326.16z"/>
<path style="fill:#4FC2E9;" d="M0.001,473.547l38.335,38.335h51.488l328.675-328.659c4.154-4.171,4.154-10.919,0-15.09
	l-75.421-75.405c-4.155-4.171-10.903-4.171-15.074,0L0.001,420.747V473.547z"/>
<path style="fill:#48CFAD;" d="M0.001,490.654l51.238,21.229h55.487L290.403,68.438c2.265-5.436-0.312-11.685-5.765-13.934
	l-98.524-40.803c-5.436-2.265-11.685,0.328-13.934,5.765L0.001,435.181V490.654z"/>
<path style="fill:#A0D468;" d="M0.001,501.228c0,5.89,4.765,10.654,10.654,10.654h106.632c5.905,0,10.685-4.765,10.685-10.654V10.67
	c0-5.89-4.78-10.67-10.685-10.67H10.654C4.765,0.001,0,4.781,0,10.67v490.558H0.001z"/>
<path style="fill:#E6E9ED;" d="M0.001,383.927v117.301c0,5.89,4.765,10.654,10.654,10.654h106.632
	c5.905,0,10.685-4.765,10.685-10.654V383.927H0.001z"/>
<path d="M63.986,437.243c-5.905,0-10.685,4.765-10.685,10.654s4.78,10.669,10.685,10.669c5.874,0,10.654-4.779,10.654-10.669
	S69.859,437.243,63.986,437.243z"/>
<path d="M68.047,458.161c-5.437,2.249-11.669-0.328-13.935-5.78c-2.25-5.437,0.344-11.669,5.78-13.935
	c5.436-2.249,11.685,0.344,13.934,5.78S73.484,455.911,68.047,458.161z"/>
<path d="M71.609,454.693c-4.155,4.155-10.904,4.155-15.075,0c-4.171-4.171-4.171-10.919,0-15.09c4.171-4.155,10.919-4.155,15.075,0
	C75.78,443.773,75.78,450.521,71.609,454.693z"/>
<path d="M73.827,451.991c-2.25,5.437-8.498,8.014-13.934,5.765c-5.437-2.25-8.03-8.498-5.78-13.935
	c2.265-5.437,8.498-8.029,13.935-5.765C73.499,440.306,76.077,446.538,73.827,451.991z"/>
<path d="M53.301,447.897c0,5.89,4.78,10.669,10.685,10.669c5.874,0,10.654-4.779,10.654-10.669s-4.78-10.654-10.654-10.654
	C58.081,437.243,53.301,442.008,53.301,447.897z"/>
<path style="fill:#434A54;" d="M53.301,447.897c0,5.89,4.78,10.669,10.685,10.669c5.874,0,10.654-4.779,10.654-10.669
	s-4.78-10.654-10.654-10.654C58.081,437.243,53.301,442.008,53.301,447.897z"/>
</svg>