<?xml version="1.0" encoding="UTF-8" standalone="no"?>
<svg width="800px" height="800px" viewBox="0 -10 104 104" version="1.1" xmlns="http://www.w3.org/2000/svg" xmlns:xlink="http://www.w3.org/1999/xlink">
    <!-- Uploaded to: SVG Repo, www.svgrepo.com, Generator: SVG Repo Mixer Tools -->
    <title>6-multimeda-video-movie-play</title>
    <desc>Created with Sketch.</desc>
    <defs>
</defs>
    <g id="3.Multimedia" stroke="none" stroke-width="1" fill="none" fill-rule="evenodd" stroke-linecap="round" stroke-linejoin="round">
        <g id="Multimedia-(Color)" transform="translate(-1098.000000, -108.000000)" stroke="#263238" stroke-width="3.5">
            <g id="6-multimeda-video-movie-play" transform="translate(1100.000000, 110.000000)">
                <path d="M98.2758621,0 L81.0344828,0 L18.9655172,0 L1.72413793,0 C0.772413793,0 0,0.777391304 0,1.73913043 L0,20.8695652 L0,40 L0,59.1304348 L0,78.2608696 C0,79.2226087 0.772413793,80 1.72413793,80 L18.9655172,80 L81.0344828,80 L98.2758621,80 C99.2275862,80 100,79.2226087 100,78.2608696 L100,59.1304348 L100,40 L100,20.8695652 L100,1.73913043 C100,0.777391304 99.2275862,0 98.2758621,0 L98.2758621,0 Z" id="Layer-1" fill="#76B6FF">
</path>
                <polygon id="Layer-2" fill="#FFFFFF" points="63.2167969 41 42 56 42 26">
</polygon>
                <rect id="Layer-3" fill="#B3D7FF" x="80" y="0" width="20" height="20">
</rect>
                <rect id="Layer-4" fill="#B3D7FF" x="0" y="0" width="20" height="20">
</rect>
                <rect id="Layer-5" fill="#B3D7FF" x="80" y="20" width="20" height="20">
</rect>
                <rect id="Layer-6" fill="#B3D7FF" x="0" y="20" width="20" height="20">
</rect>
                <rect id="Layer-7" fill="#B3D7FF" x="80" y="40" width="20" height="20">
</rect>
                <rect id="Layer-8" fill="#B3D7FF" x="0" y="40" width="20" height="20">
</rect>
                <rect id="Layer-9" fill="#B3D7FF" x="80" y="60" width="20" height="20">
</rect>
                <rect id="Layer-10" fill="#B3D7FF" x="0" y="60" width="20" height="20">
</rect>
            </g>
        </g>
    </g>
</svg>